G04*
G04 #@! TF.GenerationSoftware,Altium Limited,Altium Designer,22.2.1 (43)*
G04*
G04 Layer_Color=2752767*
%FSLAX25Y25*%
%MOIN*%
G70*
G04*
G04 #@! TF.SameCoordinates,4B28361B-3754-4690-972C-136B69916877*
G04*
G04*
G04 #@! TF.FilePolarity,Positive*
G04*
G01*
G75*
%ADD24C,0.00200*%
G36*
X472854Y424712D02*
X472876D01*
X472904Y424709D01*
X472965Y424707D01*
X473034Y424698D01*
X473109Y424687D01*
X473192Y424676D01*
X473278Y424660D01*
X473366Y424637D01*
X473458Y424613D01*
X473541Y424585D01*
Y424651D01*
X474314D01*
Y423593D01*
Y423078D01*
X474330Y423056D01*
X474361Y423009D01*
X474394Y422956D01*
X474420Y422910D01*
X474449Y422917D01*
X474486Y422924D01*
X474526Y422933D01*
X474567Y422940D01*
X474657Y422952D01*
X474706Y422957D01*
X474775D01*
X474798Y422954D01*
X474815Y422953D01*
Y423193D01*
X474663Y423596D01*
X475284D01*
X475309Y423617D01*
X475311Y423620D01*
X475322Y423626D01*
X475339Y423638D01*
X475359Y423652D01*
X475389Y423668D01*
X475422Y423687D01*
X475463Y423707D01*
X475507Y423728D01*
X475556Y423749D01*
X475611Y423770D01*
X475671Y423788D01*
X475734Y423804D01*
X475803Y423818D01*
X475875Y423830D01*
X475951Y423837D01*
X476029Y423839D01*
X476050D01*
X476076Y423837D01*
X476108Y423834D01*
X476147Y423832D01*
X476193Y423825D01*
X476244Y423818D01*
X476300Y423807D01*
X476357Y423793D01*
X476420Y423777D01*
X476482Y423756D01*
X476542Y423730D01*
X476605Y423700D01*
X476665Y423668D01*
X476720Y423629D01*
X476751Y423602D01*
X476772Y423596D01*
X477519D01*
X477393Y423253D01*
X477399Y423247D01*
X477405Y423241D01*
X477416Y423228D01*
X477438Y423205D01*
X477463Y423172D01*
X477494Y423133D01*
X477527Y423083D01*
X477559Y423034D01*
X477589Y423141D01*
X477623Y423243D01*
X477665Y423340D01*
X477690Y423386D01*
X477713Y423430D01*
X477741Y423472D01*
X477769Y423511D01*
X477771Y423516D01*
X477780Y423525D01*
X477797Y423541D01*
X477817Y423562D01*
X477843Y423587D01*
X477875Y423615D01*
X477914Y423645D01*
X477958Y423675D01*
X478007Y423705D01*
X478060Y423735D01*
X478120Y423763D01*
X478185Y423788D01*
X478254Y423809D01*
X478330Y423825D01*
X478380Y423831D01*
Y424651D01*
X479114D01*
Y423616D01*
X479140Y423592D01*
X479208Y423615D01*
X479294Y423637D01*
X479383Y423651D01*
X479474Y423657D01*
X479499D01*
X479519Y423654D01*
X479541D01*
X479568Y423651D01*
X479599Y423649D01*
X479632Y423643D01*
X479704Y423629D01*
X479782Y423610D01*
X479859Y423582D01*
X479937Y423546D01*
X479940D01*
X479945Y423540D01*
X479956Y423535D01*
X479970Y423527D01*
X479987Y423513D01*
X480006Y423499D01*
X480012Y423494D01*
X480048Y423516D01*
Y423465D01*
X480050Y423463D01*
X480103Y423416D01*
X480140Y423377D01*
X480156Y423388D01*
X480186Y423410D01*
X480197Y423430D01*
X480224Y423472D01*
X480252Y423511D01*
X480254Y423516D01*
X480264Y423525D01*
X480280Y423541D01*
X480301Y423562D01*
X480326Y423587D01*
X480358Y423615D01*
X480398Y423645D01*
X480442Y423675D01*
X480490Y423705D01*
X480543Y423735D01*
X480603Y423763D01*
X480668Y423788D01*
X480737Y423809D01*
X480813Y423825D01*
X480892Y423834D01*
X480977Y423839D01*
X480998D01*
X481021Y423837D01*
X481054Y423834D01*
X481093Y423830D01*
X481139Y423820D01*
X481188Y423811D01*
X481243Y423797D01*
X481298Y423779D01*
X481359Y423758D01*
X481419Y423730D01*
X481479Y423698D01*
X481539Y423661D01*
X481597Y423617D01*
X481652Y423564D01*
X481703Y423506D01*
X481707Y423502D01*
X481710Y423497D01*
X481717Y423488D01*
X481723Y423476D01*
X481733Y423465D01*
X481742Y423449D01*
X481749Y423434D01*
X481768Y423416D01*
X481793Y423388D01*
X481820Y423358D01*
X481845Y423324D01*
X481870Y423291D01*
X481895Y423253D01*
X481901Y423247D01*
X481903Y423241D01*
X481917Y423228D01*
X481934Y423203D01*
X481956Y423169D01*
X481984Y423125D01*
X482014Y423072D01*
X482045Y423009D01*
X482078Y422937D01*
X482111Y422854D01*
X482144Y422759D01*
X482172Y422657D01*
X482189Y422590D01*
X482225Y422588D01*
X482277Y422582D01*
X482336Y422571D01*
X482405Y422560D01*
X482477Y422543D01*
X482511Y422533D01*
Y422947D01*
X482718D01*
Y424651D01*
X483452D01*
Y423269D01*
X483455Y423275D01*
X483468Y423286D01*
X483485Y423305D01*
X483513Y423330D01*
X483543Y423360D01*
X483582Y423391D01*
X483629Y423427D01*
X483679Y423463D01*
X483734Y423499D01*
X483795Y423535D01*
X483862Y423568D01*
X483934Y423596D01*
X484009Y423621D01*
X484086Y423640D01*
X484169Y423651D01*
X484255Y423657D01*
X484277D01*
X484305Y423654D01*
X484341Y423651D01*
X484383Y423646D01*
X484435Y423637D01*
X484491Y423626D01*
X484551Y423610D01*
X484618Y423590D01*
X484685Y423568D01*
X484754Y423538D01*
X484826Y423502D01*
X484850Y423487D01*
X484865Y423496D01*
X484923Y423521D01*
X484926Y423524D01*
X484937Y423527D01*
X484956Y423535D01*
X484978Y423543D01*
X485009Y423552D01*
X485045Y423565D01*
X485086Y423576D01*
X485133Y423590D01*
X485186Y423601D01*
X485205Y423606D01*
Y424003D01*
X484067D01*
Y424651D01*
X487114D01*
Y424003D01*
X485978D01*
Y423632D01*
X486000Y423629D01*
X486083Y423618D01*
X486169Y423601D01*
X486225Y423588D01*
X486587D01*
Y423497D01*
X486599Y423502D01*
X486629Y423516D01*
X486668Y423532D01*
X486709Y423549D01*
X486757Y423565D01*
X486809Y423582D01*
X486867Y423599D01*
X486928Y423615D01*
X486992Y423629D01*
X487061Y423640D01*
X487130Y423649D01*
X487205Y423654D01*
X487280Y423657D01*
X487308D01*
X487324Y423654D01*
X487341D01*
X487385Y423651D01*
X487438Y423646D01*
X487502Y423635D01*
X487571Y423624D01*
X487646Y423607D01*
X487686Y423596D01*
X488036D01*
X488037Y423593D01*
X488637D01*
Y422915D01*
X488542D01*
X488554Y422892D01*
X488590Y422815D01*
X488596Y422800D01*
X488624Y422823D01*
X488684Y422866D01*
X488748Y422906D01*
X488751D01*
X488758Y422910D01*
X488767Y422915D01*
X488778Y422920D01*
X488797Y422927D01*
X488815Y422936D01*
X488838Y422943D01*
X488861Y422952D01*
X488889Y422961D01*
X488919Y422968D01*
X488984Y422984D01*
X489053Y422994D01*
X489127Y422998D01*
X489152D01*
X489294Y423428D01*
Y424651D01*
X490028D01*
Y423596D01*
X490111D01*
X490028Y423369D01*
Y422538D01*
X490560D01*
Y423596D01*
X491244D01*
Y423186D01*
X491247Y423189D01*
X491249Y423194D01*
X491258Y423205D01*
X491269Y423222D01*
X491283Y423239D01*
X491299Y423261D01*
X491316Y423283D01*
X491338Y423308D01*
X491391Y423360D01*
X491452Y423419D01*
X491524Y423474D01*
X491604Y423527D01*
X491607Y423529D01*
X491615Y423532D01*
X491626Y423538D01*
X491643Y423546D01*
X491665Y423557D01*
X491690Y423568D01*
X491720Y423579D01*
X491753Y423593D01*
X491789Y423604D01*
X491828Y423615D01*
X491914Y423637D01*
X492008Y423651D01*
X492058Y423657D01*
X492133D01*
X492158Y423654D01*
X492191Y423651D01*
X492196Y423651D01*
X492239Y423723D01*
X492289Y423802D01*
X492343Y423880D01*
X492761D01*
Y423878D01*
X492758Y423874D01*
X492754Y423864D01*
X492747Y423850D01*
X492740Y423834D01*
X492733Y423816D01*
X492724Y423795D01*
X492712Y423770D01*
X492701Y423742D01*
X492687Y423714D01*
X492659Y423647D01*
X492629Y423573D01*
X492610Y423525D01*
X492662Y423496D01*
X492731Y423455D01*
X492801Y423402D01*
X492870Y423344D01*
X492934Y423277D01*
X492936Y423272D01*
X492947Y423261D01*
X492964Y423239D01*
X492986Y423208D01*
X493011Y423169D01*
X493042Y423122D01*
X493072Y423067D01*
X493103Y423003D01*
X493133Y422931D01*
X493163Y422854D01*
X493194Y422765D01*
X493219Y422671D01*
X493236Y422592D01*
X493283Y422588D01*
X493341Y422577D01*
X493410Y422565D01*
X493482Y422549D01*
X493557Y422527D01*
X493637Y422499D01*
X493666Y422487D01*
X493668Y422496D01*
X493681Y422577D01*
X493701Y422662D01*
X493726Y422751D01*
X493753Y422840D01*
X493789Y422931D01*
X493831Y423020D01*
X493878Y423106D01*
X493933Y423186D01*
X493960Y423217D01*
X493096D01*
Y423786D01*
X495191D01*
Y423624D01*
X495194Y423624D01*
X495266Y423607D01*
X495341Y423585D01*
X495421Y423557D01*
X495501Y423524D01*
X495584Y423485D01*
X495665Y423438D01*
X495742Y423383D01*
X495817Y423319D01*
X495886Y423247D01*
X495889Y423241D01*
X495903Y423228D01*
X495920Y423203D01*
X495942Y423169D01*
X495969Y423125D01*
X496000Y423072D01*
X496030Y423009D01*
X496064Y422937D01*
X496097Y422854D01*
X496130Y422759D01*
X496158Y422657D01*
X496185Y422543D01*
X496205Y422421D01*
X496222Y422288D01*
X496230Y422144D01*
X496233Y421992D01*
X494391D01*
Y421989D01*
Y421978D01*
X494393Y421962D01*
Y421939D01*
X494396Y421912D01*
X494402Y421878D01*
X494407Y421845D01*
X494416Y421806D01*
X494435Y421723D01*
X494449Y421682D01*
X494465Y421640D01*
X494487Y421599D01*
X494510Y421557D01*
X494535Y421518D01*
X494565Y421482D01*
X494568Y421480D01*
X494573Y421474D01*
X494582Y421466D01*
X494596Y421455D01*
X494612Y421441D01*
X494634Y421424D01*
X494657Y421410D01*
X494684Y421394D01*
X494712Y421374D01*
X494745Y421360D01*
X494817Y421330D01*
X494859Y421319D01*
X494900Y421311D01*
X494945Y421305D01*
X494992Y421302D01*
X495008D01*
X495022Y421305D01*
X495053Y421308D01*
X495094Y421313D01*
X495139Y421324D01*
X495188Y421341D01*
X495235Y421363D01*
X495283Y421394D01*
X495285D01*
X495288Y421399D01*
X495302Y421413D01*
X495324Y421435D01*
X495349Y421468D01*
X495379Y421510D01*
X495410Y421563D01*
X495438Y421624D01*
X495463Y421698D01*
X496194Y421576D01*
X496191Y421571D01*
X496188Y421560D01*
X496180Y421538D01*
X496166Y421510D01*
X496152Y421477D01*
X496133Y421438D01*
X496111Y421394D01*
X496083Y421349D01*
X496055Y421300D01*
X496022Y421250D01*
X496017Y421243D01*
X496323D01*
Y420630D01*
X495711D01*
Y420940D01*
X495690Y420928D01*
X495659Y420915D01*
X495626Y420895D01*
X495582Y420879D01*
X495535Y420859D01*
X495482Y420840D01*
X495427Y420820D01*
X495363Y420801D01*
X495296Y420787D01*
X495224Y420773D01*
X495147Y420762D01*
X495066Y420757D01*
X494983Y420754D01*
X494953D01*
X494934Y420757D01*
X494914D01*
X494892Y420759D01*
X494864Y420762D01*
X494803Y420768D01*
X494737Y420779D01*
X494659Y420793D01*
X494576Y420812D01*
X494490Y420837D01*
X494402Y420870D01*
X494313Y420906D01*
X494261Y420934D01*
X494135D01*
X494128Y420875D01*
X494121Y420792D01*
X494119Y420711D01*
X494117Y420630D01*
X493738D01*
X494410Y420518D01*
X494407Y420513D01*
X494404Y420502D01*
X494396Y420480D01*
X494382Y420452D01*
X494368Y420419D01*
X494349Y420380D01*
X494327Y420336D01*
X494299Y420291D01*
X494272Y420241D01*
X494238Y420191D01*
X494199Y420139D01*
X494161Y420089D01*
X494116Y420039D01*
X494069Y419989D01*
X494017Y419945D01*
X493961Y419904D01*
X493959Y419901D01*
X493947Y419895D01*
X493931Y419884D01*
X493906Y419870D01*
X493875Y419856D01*
X493842Y419837D01*
X493798Y419820D01*
X493751Y419801D01*
X493698Y419782D01*
X493643Y419762D01*
X493579Y419743D01*
X493512Y419729D01*
X493440Y419715D01*
X493363Y419704D01*
X493283Y419698D01*
X493199Y419696D01*
X493169D01*
X493150Y419698D01*
X493130D01*
X493108Y419701D01*
X493080Y419704D01*
X493019Y419710D01*
X492953Y419721D01*
X492875Y419734D01*
X492792Y419754D01*
X492715Y419776D01*
X492719Y419766D01*
X492754Y419690D01*
X492333D01*
Y419693D01*
X492329Y419697D01*
X492324Y419704D01*
X492319Y419713D01*
X492310Y419725D01*
X492301Y419741D01*
X492289Y419757D01*
X492278Y419778D01*
X492250Y419824D01*
X492218Y419880D01*
X492183Y419942D01*
X492144Y420011D01*
X492105Y420087D01*
X492063Y420168D01*
X492019Y420254D01*
X491978Y420346D01*
X491936Y420439D01*
X491897Y420536D01*
X491860Y420635D01*
X491825Y420737D01*
Y420739D01*
X491823Y420744D01*
X491821Y420751D01*
X491818Y420762D01*
X491814Y420774D01*
X491809Y420790D01*
X491807Y420799D01*
X491756Y420815D01*
X491684Y420845D01*
X491681D01*
X491676Y420851D01*
X491665Y420856D01*
X491651Y420862D01*
X491634Y420873D01*
X491615Y420887D01*
X491593Y420901D01*
X491565Y420920D01*
X491507Y420962D01*
X491476Y420987D01*
X491440Y421017D01*
X491407Y421047D01*
X491368Y421081D01*
X491332Y421119D01*
X491294Y421158D01*
Y420405D01*
X491573D01*
Y419759D01*
X489094D01*
Y420336D01*
X489352Y420630D01*
X489275D01*
Y421315D01*
X489130Y420920D01*
X488953Y420438D01*
Y420435D01*
X488947Y420427D01*
X488945Y420416D01*
X488936Y420399D01*
X488928Y420377D01*
X488917Y420355D01*
X488895Y420300D01*
X488864Y420241D01*
X488834Y420178D01*
X488801Y420119D01*
X488767Y420067D01*
X488765Y420061D01*
X488754Y420045D01*
X488734Y420023D01*
X488709Y419995D01*
X488682Y419962D01*
X488648Y419926D01*
X488637Y419916D01*
Y419759D01*
X488357D01*
X488349Y419757D01*
X488288Y419737D01*
X488285D01*
X488280Y419734D01*
X488272Y419732D01*
X488258Y419729D01*
X488244Y419726D01*
X488225Y419723D01*
X488202Y419718D01*
X488180Y419715D01*
X488122Y419704D01*
X488058Y419698D01*
X487989Y419693D01*
X487912Y419690D01*
X487876D01*
X487856Y419693D01*
X487809D01*
X487781Y419696D01*
X487718Y419701D01*
X487648Y419710D01*
X487574Y419721D01*
X487499Y419737D01*
X487498Y419748D01*
X487025D01*
Y420192D01*
X487020Y420186D01*
X486998Y420158D01*
X486970Y420128D01*
X486939Y420095D01*
X486903Y420061D01*
X486865Y420025D01*
X486823Y419989D01*
X486776Y419956D01*
X486726Y419920D01*
X486673Y419887D01*
X486615Y419856D01*
X486587Y419844D01*
Y419754D01*
X486551D01*
X486554Y419748D01*
X486279D01*
X486269Y419746D01*
X486205Y419734D01*
X486136Y419723D01*
X486064Y419712D01*
X485986Y419704D01*
X485903Y419696D01*
X485815Y419693D01*
X485723Y419690D01*
X485673D01*
X485654Y419693D01*
X485629D01*
X485604Y419696D01*
X485543Y419701D01*
X485471Y419707D01*
X485394Y419718D01*
X485374Y419721D01*
X485359Y419718D01*
X485295Y419706D01*
X485223Y419697D01*
X485149Y419695D01*
X485133D01*
X485125Y419696D01*
X485125Y419696D01*
X485036Y419690D01*
X485014D01*
X484989Y419693D01*
X484956Y419696D01*
X484914Y419701D01*
X484867Y419710D01*
X484812Y419723D01*
X484754Y419737D01*
X484737Y419743D01*
X484207D01*
Y419757D01*
X484078D01*
X484052Y419748D01*
X484022Y419741D01*
X483987Y419732D01*
X483950Y419723D01*
X483911Y419716D01*
X483867Y419709D01*
X483777Y419699D01*
X483678Y419695D01*
X483650D01*
X483636Y419697D01*
X483620D01*
X483590Y419700D01*
X483555Y419695D01*
X483482Y419690D01*
X483463D01*
X483442Y419693D01*
X483415Y419695D01*
X483380Y419699D01*
X483341Y419706D01*
X483294Y419718D01*
X483246Y419729D01*
X483195Y419748D01*
X483140Y419769D01*
X483082Y419794D01*
X483024Y419827D01*
X482966Y419863D01*
X482936Y419885D01*
X482926Y419878D01*
X482901Y419865D01*
X482870Y419851D01*
X482837Y419831D01*
X482793Y419815D01*
X482746Y419795D01*
X482693Y419776D01*
X482638Y419757D01*
X482574Y419737D01*
X482507Y419723D01*
X482435Y419710D01*
X482358Y419698D01*
X482277Y419693D01*
X482194Y419690D01*
X482164D01*
X482144Y419693D01*
X482125D01*
X482103Y419696D01*
X482075Y419698D01*
X482014Y419704D01*
X481948Y419715D01*
X481870Y419729D01*
X481809Y419743D01*
X481712D01*
X481650Y419727D01*
X481564Y419709D01*
X481474Y419699D01*
X481379Y419695D01*
X481347D01*
X481326Y419697D01*
X481296Y419699D01*
X481264Y419702D01*
X481225Y419706D01*
X481203Y419710D01*
X481161Y419704D01*
X481081Y419698D01*
X480998Y419696D01*
X480967D01*
X480948Y419698D01*
X480928D01*
X480906Y419701D01*
X480878Y419704D01*
X480818Y419710D01*
X480751Y419721D01*
X480674Y419734D01*
X480590Y419754D01*
X480581Y419757D01*
X480529D01*
Y419743D01*
X480432D01*
X480399Y419734D01*
X480355Y419723D01*
X480308Y419715D01*
X480255Y419707D01*
X480147Y419696D01*
X480028Y419690D01*
X479995D01*
X479978Y419693D01*
X479959D01*
X479909Y419698D01*
X479854Y419707D01*
X479795Y419718D01*
X479732Y419734D01*
X479722Y419738D01*
X479710Y419734D01*
X479621Y419712D01*
X479527Y419698D01*
X479513Y419698D01*
Y419690D01*
X478868D01*
Y419743D01*
X478721D01*
Y419748D01*
X478326D01*
Y419754D01*
X478288D01*
X478284Y419753D01*
X478254Y419743D01*
X478224Y419734D01*
X478189Y419725D01*
X478115Y419706D01*
X478037Y419695D01*
X477993Y419693D01*
X477951Y419690D01*
X477928D01*
X477912Y419693D01*
X477891D01*
X477868Y419695D01*
X477840Y419699D01*
X477810Y419704D01*
X477746Y419716D01*
X477676Y419734D01*
X477602Y419760D01*
Y419690D01*
X476958D01*
Y419693D01*
X476923Y419698D01*
X476881Y419701D01*
X476837Y419710D01*
X476785Y419721D01*
X476784Y419721D01*
X476732Y419710D01*
X476624Y419698D01*
X476510Y419693D01*
X476472D01*
X476446Y419696D01*
X476417Y419698D01*
X476372Y419696D01*
X476333D01*
X476308Y419698D01*
X476272Y419701D01*
X476233Y419704D01*
X476186Y419710D01*
X476136Y419718D01*
X476084Y419726D01*
X476025Y419737D01*
X475964Y419751D01*
X475924Y419762D01*
X475872Y419743D01*
X475792Y419723D01*
X475706Y419704D01*
X475616Y419695D01*
X475595Y419694D01*
Y419690D01*
X474951D01*
Y419709D01*
X474947Y419709D01*
X474934Y419706D01*
X474854Y419695D01*
X474770Y419693D01*
X474752D01*
X474729Y419695D01*
X474699Y419697D01*
X474662Y419699D01*
X474618Y419706D01*
X474572Y419713D01*
X474519Y419725D01*
X474463Y419736D01*
X474405Y419753D01*
X474345Y419773D01*
X474314Y419787D01*
Y419759D01*
X474111D01*
X474121Y419743D01*
X473435D01*
X473413Y419737D01*
X473319Y419718D01*
X473217Y419704D01*
X473109Y419693D01*
X472995Y419690D01*
X472962D01*
X472942Y419693D01*
X472920D01*
X472895Y419696D01*
X472868Y419698D01*
X472837Y419701D01*
X472804Y419707D01*
X472726Y419718D01*
X472643Y419734D01*
X472637Y419736D01*
X472631Y419734D01*
X472560Y419716D01*
X472483Y419702D01*
X472403Y419693D01*
X472317Y419690D01*
X472299D01*
X472276Y419693D01*
X472246Y419695D01*
X472206Y419697D01*
X472165Y419702D01*
X472116Y419709D01*
X472063Y419718D01*
X472008Y419732D01*
X471948Y419746D01*
X471921Y419754D01*
X471895D01*
Y419743D01*
Y419690D01*
X471250D01*
Y419743D01*
Y420818D01*
Y424651D01*
X472023D01*
Y424576D01*
X472031Y424579D01*
X472034Y424582D01*
X472045Y424585D01*
X472064Y424593D01*
X472086Y424601D01*
X472117Y424610D01*
X472153Y424623D01*
X472195Y424635D01*
X472242Y424649D01*
X472294Y424660D01*
X472353Y424673D01*
X472413Y424684D01*
X472480Y424693D01*
X472552Y424704D01*
X472627Y424709D01*
X472704Y424712D01*
X472785Y424715D01*
X472834D01*
X472854Y424712D01*
D02*
G37*
G36*
X506501Y423261D02*
X505889D01*
Y423827D01*
X506501D01*
Y423261D01*
D02*
G37*
G36*
X504560Y422996D02*
X504581D01*
X504606Y422994D01*
X504636Y422989D01*
X504667Y422984D01*
X504733Y422973D01*
X504807Y422954D01*
X504879Y422929D01*
X504914Y422913D01*
X504948Y422894D01*
X504951D01*
X504955Y422890D01*
X504964Y422883D01*
X504978Y422876D01*
X504992Y422864D01*
X505008Y422850D01*
X505027Y422834D01*
X505048Y422818D01*
X505068Y422797D01*
X505089Y422774D01*
X505112Y422749D01*
X505133Y422721D01*
X505154Y422693D01*
X505175Y422661D01*
X505212Y422589D01*
Y422587D01*
X505214Y422582D01*
X505219Y422573D01*
X505221Y422562D01*
X505228Y422545D01*
X505232Y422524D01*
X505237Y422501D01*
X505244Y422474D01*
X505251Y422441D01*
X505256Y422407D01*
X505262Y422367D01*
X505267Y422324D01*
X505269Y422277D01*
X505274Y422224D01*
X505276Y422169D01*
Y422109D01*
Y420630D01*
X504664D01*
Y421952D01*
Y421956D01*
Y421968D01*
Y421984D01*
Y422007D01*
X504662Y422035D01*
Y422065D01*
X504660Y422099D01*
X504657Y422136D01*
X504648Y422213D01*
X504636Y422284D01*
X504630Y422319D01*
X504620Y422349D01*
X504611Y422377D01*
X504600Y422398D01*
Y422400D01*
X504595Y422402D01*
X504590Y422409D01*
X504583Y422418D01*
X504563Y422439D01*
X504535Y422465D01*
X504498Y422488D01*
X504454Y422508D01*
X504428Y422518D01*
X504401Y422524D01*
X504371Y422527D01*
X504338Y422529D01*
X504318D01*
X504292Y422524D01*
X504260Y422520D01*
X504223Y422511D01*
X504181Y422497D01*
X504140Y422476D01*
X504096Y422451D01*
X504094D01*
X504091Y422446D01*
X504077Y422437D01*
X504057Y422418D01*
X504034Y422393D01*
X504006Y422361D01*
X503978Y422321D01*
X503953Y422273D01*
X503932Y422220D01*
Y422217D01*
X503930Y422213D01*
X503927Y422203D01*
X503925Y422192D01*
X503920Y422173D01*
X503916Y422155D01*
X503911Y422129D01*
X503909Y422102D01*
X503904Y422072D01*
X503899Y422035D01*
X503895Y421998D01*
X503890Y421954D01*
X503888Y421906D01*
X503886Y421855D01*
X503883Y421802D01*
Y421741D01*
Y420630D01*
X503271D01*
Y421899D01*
Y421903D01*
Y421912D01*
Y421931D01*
Y421954D01*
Y421979D01*
X503269Y422009D01*
Y422044D01*
X503267Y422079D01*
X503262Y422153D01*
X503257Y422224D01*
X503253Y422257D01*
X503248Y422287D01*
X503243Y422312D01*
X503237Y422333D01*
Y422335D01*
X503234Y422337D01*
X503230Y422349D01*
X503223Y422367D01*
X503211Y422388D01*
X503197Y422414D01*
X503181Y422437D01*
X503160Y422460D01*
X503135Y422481D01*
X503133Y422483D01*
X503123Y422488D01*
X503107Y422497D01*
X503086Y422506D01*
X503061Y422513D01*
X503029Y422522D01*
X502992Y422527D01*
X502950Y422529D01*
X502927D01*
X502913Y422527D01*
X502899Y422524D01*
X502865Y422520D01*
X502825Y422511D01*
X502781Y422497D01*
X502738Y422476D01*
X502694Y422451D01*
X502691D01*
X502689Y422446D01*
X502675Y422437D01*
X502654Y422418D01*
X502631Y422395D01*
X502604Y422363D01*
X502578Y422326D01*
X502553Y422282D01*
X502532Y422231D01*
Y422229D01*
X502530Y422224D01*
X502527Y422215D01*
X502525Y422203D01*
X502521Y422187D01*
X502516Y422169D01*
X502511Y422146D01*
X502509Y422118D01*
X502504Y422086D01*
X502500Y422051D01*
X502495Y422012D01*
X502490Y421970D01*
X502488Y421922D01*
X502486Y421871D01*
X502484Y421813D01*
Y421753D01*
Y420630D01*
X501871D01*
Y422947D01*
X502435D01*
Y422631D01*
X502440Y422635D01*
X502449Y422647D01*
X502465Y422665D01*
X502488Y422689D01*
X502518Y422716D01*
X502553Y422746D01*
X502592Y422781D01*
X502638Y422816D01*
X502689Y422848D01*
X502744Y422883D01*
X502802Y422913D01*
X502867Y422940D01*
X502934Y422963D01*
X503006Y422982D01*
X503080Y422994D01*
X503156Y422998D01*
X503176D01*
X503193Y422996D01*
X503211D01*
X503234Y422994D01*
X503260Y422991D01*
X503287Y422987D01*
X503347Y422975D01*
X503412Y422959D01*
X503477Y422936D01*
X503542Y422906D01*
X503544D01*
X503548Y422901D01*
X503558Y422896D01*
X503569Y422890D01*
X503583Y422878D01*
X503599Y422866D01*
X503636Y422836D01*
X503680Y422797D01*
X503724Y422751D01*
X503768Y422693D01*
X503809Y422628D01*
X503812Y422631D01*
X503816Y422638D01*
X503826Y422647D01*
X503837Y422658D01*
X503851Y422675D01*
X503867Y422691D01*
X503886Y422712D01*
X503909Y422732D01*
X503957Y422776D01*
X504013Y422823D01*
X504073Y422866D01*
X504138Y422906D01*
X504140D01*
X504147Y422910D01*
X504156Y422915D01*
X504168Y422920D01*
X504186Y422927D01*
X504205Y422936D01*
X504228Y422943D01*
X504251Y422952D01*
X504278Y422961D01*
X504308Y422968D01*
X504373Y422984D01*
X504442Y422994D01*
X504516Y422998D01*
X504542D01*
X504560Y422996D01*
D02*
G37*
G36*
X507741Y420630D02*
X507129D01*
Y423827D01*
X507741D01*
Y420630D01*
D02*
G37*
G36*
X506501D02*
X505889D01*
Y422947D01*
X506501D01*
Y420630D01*
D02*
G37*
G36*
X501398Y423340D02*
X501396Y423338D01*
X501386Y423328D01*
X501372Y423312D01*
X501354Y423291D01*
X501329Y423266D01*
X501301Y423234D01*
X501268Y423197D01*
X501234Y423153D01*
X501194Y423102D01*
X501153Y423049D01*
X501111Y422989D01*
X501065Y422922D01*
X501017Y422850D01*
X500968Y422774D01*
X500920Y422693D01*
X500869Y422605D01*
Y422603D01*
X500867Y422601D01*
X500862Y422594D01*
X500857Y422585D01*
X500850Y422573D01*
X500843Y422557D01*
X500834Y422541D01*
X500825Y422522D01*
X500802Y422478D01*
X500776Y422425D01*
X500749Y422365D01*
X500716Y422298D01*
X500684Y422227D01*
X500652Y422148D01*
X500617Y422062D01*
X500582Y421975D01*
X500550Y421882D01*
X500518Y421788D01*
X500488Y421688D01*
X500460Y421589D01*
Y421587D01*
X500458Y421582D01*
Y421575D01*
X500453Y421566D01*
X500451Y421552D01*
X500448Y421536D01*
X500444Y421520D01*
X500439Y421499D01*
X500428Y421453D01*
X500416Y421397D01*
X500405Y421335D01*
X500391Y421268D01*
X500379Y421196D01*
X500365Y421120D01*
X500354Y421039D01*
X500344Y420958D01*
X500335Y420875D01*
X500328Y420792D01*
X500326Y420711D01*
X500324Y420630D01*
X499732D01*
Y420633D01*
Y420637D01*
Y420646D01*
X499735Y420660D01*
Y420677D01*
Y420695D01*
X499737Y420718D01*
X499739Y420746D01*
X499742Y420774D01*
X499744Y420806D01*
X499746Y420841D01*
X499751Y420878D01*
X499755Y420917D01*
X499760Y420958D01*
X499772Y421048D01*
X499788Y421145D01*
X499804Y421252D01*
X499827Y421363D01*
X499852Y421480D01*
X499885Y421600D01*
X499919Y421725D01*
X499959Y421852D01*
X500005Y421982D01*
Y421984D01*
X500007Y421989D01*
X500012Y422000D01*
X500016Y422012D01*
X500023Y422030D01*
X500033Y422049D01*
X500042Y422072D01*
X500051Y422097D01*
X500065Y422127D01*
X500079Y422160D01*
X500093Y422192D01*
X500109Y422229D01*
X500146Y422307D01*
X500187Y422395D01*
X500236Y422488D01*
X500287Y422587D01*
X500344Y422689D01*
X500405Y422795D01*
X500471Y422901D01*
X500541Y423007D01*
X500617Y423114D01*
X500696Y423217D01*
X499303D01*
Y423786D01*
X501398D01*
Y423340D01*
D02*
G37*
G36*
X497893Y423837D02*
X497926Y423834D01*
X497963Y423832D01*
X498007Y423827D01*
X498055Y423818D01*
X498108Y423809D01*
X498164Y423797D01*
X498222Y423781D01*
X498282Y423763D01*
X498339Y423740D01*
X498397Y423712D01*
X498455Y423682D01*
X498508Y423645D01*
X498557Y423603D01*
X498559Y423601D01*
X498568Y423592D01*
X498580Y423580D01*
X498596Y423562D01*
X498617Y423539D01*
X498637Y423511D01*
X498661Y423479D01*
X498684Y423442D01*
X498707Y423402D01*
X498730Y423356D01*
X498753Y423308D01*
X498771Y423257D01*
X498787Y423201D01*
X498799Y423141D01*
X498808Y423079D01*
X498811Y423014D01*
Y423012D01*
Y423005D01*
Y422994D01*
X498808Y422977D01*
X498806Y422957D01*
X498804Y422933D01*
X498801Y422908D01*
X498797Y422880D01*
X498783Y422818D01*
X498762Y422753D01*
X498748Y422719D01*
X498732Y422684D01*
X498714Y422649D01*
X498693Y422617D01*
X498691Y422615D01*
X498688Y422610D01*
X498681Y422601D01*
X498672Y422589D01*
X498661Y422573D01*
X498644Y422557D01*
X498628Y422538D01*
X498610Y422520D01*
X498587Y422499D01*
X498563Y422476D01*
X498536Y422455D01*
X498508Y422432D01*
X498443Y422391D01*
X498369Y422354D01*
X498372Y422351D01*
X498381Y422349D01*
X498395Y422342D01*
X498413Y422333D01*
X498436Y422321D01*
X498462Y422307D01*
X498490Y422291D01*
X498520Y422273D01*
X498552Y422252D01*
X498584Y422229D01*
X498619Y422203D01*
X498651Y422176D01*
X498686Y422146D01*
X498716Y422111D01*
X498746Y422076D01*
X498774Y422039D01*
X498776Y422037D01*
X498781Y422030D01*
X498787Y422019D01*
X498794Y422003D01*
X498806Y421984D01*
X498817Y421961D01*
X498829Y421936D01*
X498843Y421906D01*
X498857Y421871D01*
X498868Y421836D01*
X498880Y421797D01*
X498891Y421755D01*
X498898Y421711D01*
X498905Y421665D01*
X498910Y421617D01*
X498912Y421568D01*
Y421566D01*
Y421564D01*
Y421557D01*
Y421550D01*
X498910Y421527D01*
X498908Y421494D01*
X498903Y421457D01*
X498898Y421413D01*
X498889Y421365D01*
X498878Y421312D01*
X498861Y421256D01*
X498843Y421196D01*
X498820Y421138D01*
X498792Y421076D01*
X498760Y421016D01*
X498723Y420958D01*
X498679Y420901D01*
X498628Y420848D01*
X498626Y420845D01*
X498614Y420836D01*
X498598Y420822D01*
X498577Y420804D01*
X498550Y420783D01*
X498515Y420760D01*
X498473Y420737D01*
X498429Y420711D01*
X498379Y420683D01*
X498321Y420660D01*
X498258Y420637D01*
X498191Y420616D01*
X498120Y420598D01*
X498044Y420584D01*
X497963Y420575D01*
X497877Y420573D01*
X497859D01*
X497836Y420575D01*
X497806Y420577D01*
X497766Y420579D01*
X497725Y420584D01*
X497676Y420591D01*
X497623Y420600D01*
X497568Y420614D01*
X497508Y420628D01*
X497448Y420646D01*
X497388Y420670D01*
X497325Y420695D01*
X497265Y420725D01*
X497207Y420762D01*
X497152Y420801D01*
X497147Y420804D01*
X497138Y420813D01*
X497120Y420829D01*
X497099Y420850D01*
X497074Y420878D01*
X497044Y420912D01*
X497013Y420951D01*
X496981Y420995D01*
X496949Y421046D01*
X496919Y421102D01*
X496889Y421162D01*
X496863Y421226D01*
X496842Y421298D01*
X496824Y421374D01*
X496815Y421455D01*
X496810Y421540D01*
Y421543D01*
Y421552D01*
Y421566D01*
X496812Y421584D01*
X496815Y421607D01*
X496817Y421635D01*
X496822Y421665D01*
X496826Y421698D01*
X496833Y421735D01*
X496840Y421771D01*
X496863Y421852D01*
X496879Y421894D01*
X496896Y421936D01*
X496914Y421977D01*
X496937Y422019D01*
X496940Y422021D01*
X496944Y422028D01*
X496951Y422039D01*
X496963Y422056D01*
X496977Y422072D01*
X496993Y422093D01*
X497013Y422118D01*
X497037Y422141D01*
X497062Y422169D01*
X497092Y422196D01*
X497127Y422224D01*
X497161Y422252D01*
X497203Y422280D01*
X497244Y422305D01*
X497291Y422331D01*
X497341Y422354D01*
X497339Y422356D01*
X497332Y422358D01*
X497318Y422365D01*
X497302Y422372D01*
X497284Y422381D01*
X497261Y422395D01*
X497237Y422409D01*
X497210Y422425D01*
X497154Y422465D01*
X497097Y422511D01*
X497044Y422566D01*
X497018Y422596D01*
X496997Y422628D01*
Y422631D01*
X496993Y422635D01*
X496988Y422647D01*
X496981Y422658D01*
X496972Y422675D01*
X496963Y422695D01*
X496953Y422719D01*
X496944Y422742D01*
X496935Y422769D01*
X496926Y422799D01*
X496907Y422866D01*
X496896Y422938D01*
X496893Y422975D01*
X496891Y423014D01*
Y423019D01*
Y423030D01*
X496893Y423049D01*
X496896Y423074D01*
X496898Y423104D01*
X496905Y423139D01*
X496912Y423178D01*
X496923Y423222D01*
X496935Y423266D01*
X496951Y423315D01*
X496972Y423363D01*
X496997Y423414D01*
X497025Y423462D01*
X497057Y423511D01*
X497097Y423559D01*
X497141Y423603D01*
X497143Y423606D01*
X497152Y423613D01*
X497166Y423624D01*
X497187Y423640D01*
X497212Y423659D01*
X497244Y423677D01*
X497281Y423700D01*
X497323Y423721D01*
X497371Y423744D01*
X497422Y423765D01*
X497482Y423783D01*
X497545Y423802D01*
X497614Y423818D01*
X497688Y423830D01*
X497766Y423837D01*
X497850Y423839D01*
X497870D01*
X497893Y423837D01*
D02*
G37*
G36*
X508612Y423878D02*
X508617Y423876D01*
X508621Y423869D01*
X508626Y423860D01*
X508635Y423848D01*
X508644Y423834D01*
X508665Y423800D01*
X508693Y423756D01*
X508725Y423705D01*
X508760Y423645D01*
X508799Y423580D01*
X508838Y423509D01*
X508880Y423432D01*
X508924Y423349D01*
X508965Y423264D01*
X509007Y423171D01*
X509049Y423079D01*
X509088Y422982D01*
X509123Y422885D01*
Y422883D01*
X509125Y422878D01*
X509127Y422871D01*
X509129Y422862D01*
X509134Y422848D01*
X509139Y422834D01*
X509146Y422816D01*
X509150Y422795D01*
X509157Y422772D01*
X509164Y422746D01*
X509180Y422691D01*
X509196Y422626D01*
X509215Y422555D01*
X509231Y422478D01*
X509247Y422395D01*
X509263Y422307D01*
X509277Y422215D01*
X509289Y422118D01*
X509298Y422021D01*
X509303Y421922D01*
X509305Y421820D01*
Y421818D01*
Y421815D01*
Y421808D01*
Y421799D01*
Y421788D01*
Y421774D01*
X509303Y421741D01*
X509300Y421698D01*
X509298Y421649D01*
X509293Y421591D01*
X509286Y421527D01*
X509279Y421457D01*
X509270Y421381D01*
X509259Y421300D01*
X509245Y421215D01*
X509229Y421127D01*
X509208Y421035D01*
X509187Y420940D01*
X509162Y420843D01*
Y420841D01*
X509159Y420836D01*
X509157Y420829D01*
X509155Y420818D01*
X509150Y420804D01*
X509143Y420785D01*
X509139Y420767D01*
X509129Y420744D01*
X509123Y420718D01*
X509113Y420690D01*
X509102Y420660D01*
X509090Y420628D01*
X509065Y420559D01*
X509032Y420480D01*
X508998Y420397D01*
X508958Y420305D01*
X508915Y420210D01*
X508866Y420111D01*
X508813Y420009D01*
X508755Y419903D01*
X508693Y419796D01*
X508626Y419690D01*
X508203D01*
X508205Y419695D01*
X508210Y419706D01*
X508219Y419727D01*
X508233Y419755D01*
X508247Y419787D01*
X508263Y419824D01*
X508282Y419866D01*
X508302Y419910D01*
X508321Y419958D01*
X508342Y420007D01*
X508386Y420106D01*
X508404Y420154D01*
X508423Y420201D01*
X508441Y420245D01*
X508455Y420286D01*
Y420289D01*
X508457Y420295D01*
X508462Y420307D01*
X508466Y420323D01*
X508473Y420342D01*
X508483Y420367D01*
X508490Y420392D01*
X508499Y420425D01*
X508510Y420457D01*
X508520Y420494D01*
X508531Y420533D01*
X508543Y420575D01*
X508568Y420665D01*
X508591Y420762D01*
Y420764D01*
X508594Y420774D01*
X508598Y420790D01*
X508600Y420808D01*
X508607Y420831D01*
X508612Y420861D01*
X508619Y420891D01*
X508626Y420928D01*
X508633Y420965D01*
X508642Y421007D01*
X508656Y421092D01*
X508672Y421182D01*
X508684Y421275D01*
Y421277D01*
X508686Y421286D01*
Y421298D01*
X508688Y421316D01*
X508691Y421340D01*
X508693Y421365D01*
X508697Y421395D01*
X508700Y421427D01*
X508702Y421464D01*
X508707Y421503D01*
X508709Y421545D01*
X508711Y421587D01*
X508714Y421679D01*
X508716Y421774D01*
Y421776D01*
Y421781D01*
Y421788D01*
Y421797D01*
Y421808D01*
Y421825D01*
Y421843D01*
X508714Y421862D01*
Y421908D01*
X508709Y421963D01*
X508707Y422023D01*
X508702Y422090D01*
X508695Y422164D01*
X508688Y422240D01*
X508679Y422321D01*
X508667Y422407D01*
X508656Y422492D01*
X508640Y422580D01*
X508624Y422668D01*
X508603Y422755D01*
Y422758D01*
X508600Y422760D01*
Y422767D01*
X508598Y422776D01*
X508594Y422788D01*
X508591Y422802D01*
X508587Y422820D01*
X508582Y422839D01*
X508575Y422859D01*
X508568Y422883D01*
X508552Y422938D01*
X508533Y423000D01*
X508510Y423070D01*
X508485Y423148D01*
X508455Y423234D01*
X508423Y423326D01*
X508386Y423425D01*
X508344Y423532D01*
X508298Y423643D01*
X508249Y423758D01*
X508196Y423880D01*
X508612D01*
Y423878D01*
D02*
G37*
G36*
X220817Y80426D02*
X221065Y80260D01*
X221231Y80012D01*
X221289Y79719D01*
Y48690D01*
X221231Y48397D01*
X221065Y48149D01*
X220817Y47984D01*
X220525Y47925D01*
X69750D01*
X69457Y47984D01*
X69209Y48149D01*
X69043Y48397D01*
X68985Y48690D01*
Y79719D01*
X69043Y80012D01*
X69209Y80260D01*
X69457Y80426D01*
X69750Y80484D01*
X220525D01*
X220817Y80426D01*
D02*
G37*
%LPC*%
G36*
X472837Y424075D02*
X472746D01*
X472724Y424072D01*
X472696Y424069D01*
X472663Y424067D01*
X472627Y424064D01*
X472585Y424058D01*
X472502Y424042D01*
X472413Y424017D01*
X472369Y424000D01*
X472328Y423981D01*
X472289Y423959D01*
X472250Y423934D01*
X472244Y423931D01*
X472231Y423917D01*
X472211Y423898D01*
X472189Y423870D01*
X472167Y423837D01*
X472163Y423830D01*
X472202Y423834D01*
X472287Y423839D01*
X472308D01*
X472331Y423837D01*
X472363Y423834D01*
X472403Y423830D01*
X472449Y423820D01*
X472497Y423811D01*
X472553Y423797D01*
X472608Y423779D01*
X472668Y423758D01*
X472728Y423730D01*
X472788Y423698D01*
X472849Y423661D01*
X472869Y423645D01*
X472895Y423649D01*
X472967Y423651D01*
X473042Y423654D01*
X473073D01*
X473089Y423651D01*
X473109D01*
X473134Y423649D01*
X473159D01*
X473219Y423640D01*
X473286Y423632D01*
X473363Y423618D01*
X473447Y423601D01*
X473465Y423597D01*
X473458Y423621D01*
X473449Y423651D01*
X473438Y423685D01*
X473408Y423754D01*
X473372Y423823D01*
X473325Y423889D01*
X473300Y423920D01*
X473269Y423945D01*
X473267Y423948D01*
X473261Y423950D01*
X473253Y423956D01*
X473239Y423964D01*
X473222Y423975D01*
X473200Y423986D01*
X473175Y423997D01*
X473147Y424011D01*
X473114Y424022D01*
X473078Y424033D01*
X473037Y424045D01*
X472992Y424056D01*
X472945Y424064D01*
X472895Y424069D01*
X472837Y424075D01*
D02*
G37*
G36*
X487283Y423059D02*
X487255D01*
X487236Y423056D01*
X487211Y423053D01*
X487180Y423047D01*
X487150Y423039D01*
X487114Y423031D01*
X487078Y423020D01*
X487039Y423006D01*
X487016Y422995D01*
X487017Y422995D01*
X487040Y422947D01*
X487046D01*
Y422945D01*
X487491D01*
X487500Y422948D01*
X487469Y423028D01*
X487435Y423039D01*
X487385Y423050D01*
X487335Y423056D01*
X487283Y423059D01*
D02*
G37*
G36*
X484061Y423095D02*
X484036D01*
X484017Y423092D01*
X483995Y423089D01*
X483967Y423083D01*
X483939Y423078D01*
X483906Y423070D01*
X483873Y423059D01*
X483837Y423045D01*
X483801Y423028D01*
X483762Y423006D01*
X483744Y422995D01*
X483796Y422998D01*
X483816D01*
X483833Y422996D01*
X483851D01*
X483874Y422994D01*
X483900Y422991D01*
X483927Y422987D01*
X483987Y422975D01*
X484052Y422959D01*
X484117Y422936D01*
X484163Y422914D01*
Y422940D01*
X484350D01*
X484369Y422989D01*
X484372Y422996D01*
X484352Y423009D01*
X484319Y423028D01*
X484283Y423045D01*
X484244Y423061D01*
X484202Y423075D01*
X484158Y423086D01*
X484111Y423092D01*
X484061Y423095D01*
D02*
G37*
G36*
X476369Y423059D02*
X476341D01*
X476322Y423056D01*
X476297Y423053D01*
X476266Y423047D01*
X476236Y423039D01*
X476200Y423031D01*
X476164Y423020D01*
X476125Y423006D01*
X476084Y422987D01*
X476042Y422964D01*
X476003Y422939D01*
X475962Y422909D01*
X475936Y422887D01*
X476430D01*
X476431Y422906D01*
Y422908D01*
Y422915D01*
Y422924D01*
X476429Y422940D01*
Y422957D01*
X476427Y422975D01*
X476417Y423021D01*
X476408Y423056D01*
X476369Y423059D01*
D02*
G37*
G36*
X480931Y423092D02*
X480909Y423089D01*
X480884Y423086D01*
X480859Y423081D01*
X480829Y423072D01*
X480768Y423050D01*
X480734Y423036D01*
X480701Y423020D01*
X480665Y423000D01*
X480637Y422977D01*
X480633Y422959D01*
X480629Y422933D01*
X480622Y422901D01*
X480617Y422862D01*
X480612Y422816D01*
X480606Y422765D01*
X480601Y422705D01*
X480594Y422640D01*
X480589Y422568D01*
X480589Y422549D01*
X480635Y422563D01*
X480726Y422582D01*
X480823Y422593D01*
X480926Y422599D01*
X480953D01*
X480967Y422596D01*
X480984D01*
X481028Y422593D01*
X481081Y422588D01*
X481139Y422577D01*
X481208Y422565D01*
X481279Y422549D01*
X481277Y422579D01*
X481275Y422624D01*
X481264Y422715D01*
X481250Y422801D01*
X481241Y422842D01*
X481230Y422878D01*
X481219Y422912D01*
X481205Y422937D01*
Y422939D01*
X481200Y422942D01*
X481194Y422951D01*
X481186Y422962D01*
X481161Y422987D01*
X481128Y423017D01*
X481083Y423045D01*
X481031Y423070D01*
X481000Y423081D01*
X480967Y423089D01*
X480931Y423092D01*
D02*
G37*
G36*
X494980Y423093D02*
X494946Y423049D01*
X494904Y422989D01*
X494858Y422922D01*
X494810Y422850D01*
X494761Y422774D01*
X494713Y422693D01*
X494662Y422605D01*
Y422603D01*
X494660Y422601D01*
X494655Y422594D01*
X494650Y422585D01*
X494643Y422573D01*
X494636Y422557D01*
X494627Y422541D01*
X494618Y422522D01*
X494595Y422478D01*
X494577Y422441D01*
X495504D01*
Y422443D01*
Y422455D01*
X495501Y422471D01*
Y422493D01*
X495499Y422521D01*
X495493Y422552D01*
X495487Y422585D01*
X495479Y422621D01*
X495460Y422698D01*
X495429Y422779D01*
X495413Y422820D01*
X495391Y422856D01*
X495366Y422892D01*
X495338Y422926D01*
X495335Y422928D01*
X495330Y422934D01*
X495321Y422942D01*
X495310Y422953D01*
X495294Y422964D01*
X495277Y422978D01*
X495255Y422995D01*
X495230Y423011D01*
X495175Y423042D01*
X495111Y423070D01*
X495075Y423078D01*
X495036Y423086D01*
X494997Y423092D01*
X494980Y423093D01*
D02*
G37*
G36*
X492369Y422831D02*
X492349Y422755D01*
Y422753D01*
X492347Y422751D01*
Y422744D01*
X492345Y422735D01*
X492343Y422723D01*
X492340Y422709D01*
X492333Y422675D01*
X492324Y422633D01*
X492315Y422582D01*
X492306Y422524D01*
X492294Y422460D01*
X492285Y422388D01*
X492273Y422312D01*
X492267Y422257D01*
X492277Y422266D01*
X492313Y422297D01*
X492357Y422330D01*
X492407Y422366D01*
X492463Y422402D01*
X492507Y422427D01*
X492501Y422460D01*
X492479Y422565D01*
X492465Y422618D01*
X492449Y422671D01*
X492429Y422723D01*
X492405Y422773D01*
X492377Y422820D01*
X492369Y422831D01*
D02*
G37*
G36*
X472324Y422347D02*
X472144D01*
X472131Y422308D01*
X472109Y422227D01*
X472089Y422139D01*
X472080Y422083D01*
X472675D01*
Y422090D01*
Y422093D01*
Y422097D01*
Y422106D01*
X472673Y422118D01*
Y422134D01*
X472671Y422150D01*
X472661Y422190D01*
X472650Y422233D01*
X472631Y422280D01*
X472606Y422326D01*
X472601Y422332D01*
X472592Y422333D01*
X472567Y422335D01*
X472537Y422337D01*
X472504Y422340D01*
X472467Y422342D01*
X472424D01*
X472377Y422344D01*
X472324Y422347D01*
D02*
G37*
G36*
X476878Y421746D02*
X476851Y421682D01*
X476819Y421688D01*
X476741Y421473D01*
X476773Y421499D01*
X476815Y421532D01*
X476851Y421571D01*
X476854Y421574D01*
X476859Y421582D01*
X476870Y421593D01*
X476881Y421613D01*
X476895Y421635D01*
X476912Y421662D01*
X476921Y421678D01*
X476915Y421690D01*
X476887Y421734D01*
X476878Y421746D01*
D02*
G37*
G36*
X488949Y422529D02*
X488928D01*
X488903Y422524D01*
X488871Y422520D01*
X488834Y422511D01*
X488792Y422497D01*
X488751Y422476D01*
X488707Y422451D01*
X488704D01*
X488702Y422446D01*
X488699Y422444D01*
X488701Y422435D01*
X488712Y422324D01*
X488718Y422211D01*
Y422208D01*
Y422203D01*
Y422194D01*
Y422183D01*
X488715Y422169D01*
Y422150D01*
X488712Y422106D01*
X488706Y422053D01*
X488695Y421989D01*
X488684Y421920D01*
X488668Y421845D01*
X488648Y421772D01*
X488698Y421621D01*
X488997Y422526D01*
X488982Y422527D01*
X488949Y422529D01*
D02*
G37*
G36*
X487637Y422522D02*
Y421462D01*
X487648Y421468D01*
X487687Y421499D01*
X487729Y421532D01*
X487765Y421571D01*
X487768Y421574D01*
X487773Y421582D01*
X487784Y421593D01*
X487795Y421613D01*
X487809Y421635D01*
X487826Y421662D01*
X487845Y421696D01*
X487864Y421732D01*
X487881Y421776D01*
X487882Y421778D01*
Y421899D01*
Y421903D01*
Y421912D01*
Y421931D01*
Y421936D01*
X487663Y422515D01*
X487640Y422522D01*
X487637Y422522D01*
D02*
G37*
G36*
X490515Y421945D02*
X490493D01*
X490463Y421942D01*
X490424Y421939D01*
X490377D01*
X490319Y421937D01*
X490252Y421934D01*
X490177D01*
X490028Y421933D01*
Y421406D01*
X490136Y421529D01*
X490139Y421532D01*
X490147Y421543D01*
X490161Y421557D01*
X490177Y421576D01*
X490200Y421601D01*
X490225Y421629D01*
X490249Y421660D01*
X490280Y421690D01*
X490341Y421759D01*
X490405Y421829D01*
X490463Y421892D01*
X490490Y421920D01*
X490515Y421945D01*
D02*
G37*
G36*
X491907Y423075D02*
X491884D01*
X491864Y423072D01*
X491842Y423070D01*
X491815Y423064D01*
X491784Y423059D01*
X491751Y423050D01*
X491717Y423039D01*
X491681Y423023D01*
X491643Y423006D01*
X491607Y422987D01*
X491568Y422962D01*
X491532Y422934D01*
X491496Y422901D01*
X491460Y422865D01*
X491457Y422862D01*
X491452Y422856D01*
X491443Y422842D01*
X491432Y422826D01*
X491418Y422804D01*
X491404Y422779D01*
X491388Y422746D01*
X491371Y422710D01*
X491355Y422668D01*
X491338Y422624D01*
X491324Y422574D01*
X491315Y422538D01*
X491493D01*
Y422017D01*
X491338Y421838D01*
X491344Y421817D01*
X491360Y421759D01*
X491382Y421704D01*
X491407Y421651D01*
X491435Y421601D01*
X491468Y421557D01*
X491471Y421554D01*
X491476Y421549D01*
X491488Y421538D01*
X491502Y421524D01*
X491521Y421504D01*
X491540Y421488D01*
X491565Y421466D01*
X491596Y421446D01*
X491626Y421427D01*
X491662Y421405D01*
X491681Y421396D01*
X491680Y421409D01*
X491668Y421501D01*
X491659Y421596D01*
X491654Y421691D01*
X491652Y421785D01*
Y421788D01*
Y421792D01*
Y421802D01*
Y421813D01*
Y421829D01*
X491654Y421848D01*
Y421869D01*
Y421894D01*
X491656Y421919D01*
X491659Y421949D01*
X491661Y421982D01*
X491664Y422014D01*
X491670Y422090D01*
X491680Y422171D01*
X491691Y422259D01*
X491705Y422354D01*
X491721Y422453D01*
X491742Y422555D01*
X491767Y422661D01*
X491795Y422767D01*
X491830Y422873D01*
X491867Y422980D01*
Y422982D01*
X491869Y422984D01*
X491871Y422991D01*
X491876Y423000D01*
X491881Y423014D01*
X491885Y423028D01*
X491901Y423063D01*
X491907Y423075D01*
D02*
G37*
G36*
X493259Y422027D02*
X493255Y421978D01*
X493244Y421903D01*
X493230Y421823D01*
X493211Y421737D01*
X493188Y421651D01*
X493161Y421560D01*
X493127Y421471D01*
X493089Y421383D01*
X493624D01*
X493645Y421480D01*
X493678Y421600D01*
X493682Y421616D01*
X493676Y421640D01*
X493645Y421721D01*
X493629Y421762D01*
X493607Y421798D01*
X493582Y421834D01*
X493554Y421867D01*
X493551Y421870D01*
X493546Y421876D01*
X493537Y421884D01*
X493526Y421895D01*
X493510Y421906D01*
X493493Y421920D01*
X493471Y421937D01*
X493446Y421953D01*
X493391Y421984D01*
X493327Y422011D01*
X493291Y422020D01*
X493259Y422027D01*
D02*
G37*
G36*
X474815Y422347D02*
X474471D01*
X474466Y422342D01*
X474463Y422340D01*
X474461Y422337D01*
X474456Y422331D01*
X474447Y422321D01*
X474440Y422310D01*
X474429Y422296D01*
X474419Y422280D01*
X474408Y422261D01*
X474396Y422240D01*
X474385Y422217D01*
X474373Y422192D01*
X474362Y422162D01*
X474352Y422132D01*
X474351Y422128D01*
X474352Y422122D01*
X474361Y422061D01*
X474364Y421998D01*
X474366Y421931D01*
Y421928D01*
Y421917D01*
Y421898D01*
X474364Y421876D01*
X474361Y421845D01*
X474355Y421812D01*
X474350Y421773D01*
X474344Y421732D01*
X474333Y421685D01*
X474322Y421635D01*
X474314Y421610D01*
Y421243D01*
X474369D01*
X474373Y421259D01*
X474387Y421310D01*
X474405Y421363D01*
X474426Y421416D01*
X474449Y421469D01*
X474475Y421522D01*
X474477Y421524D01*
X474482Y421534D01*
X474491Y421550D01*
X474503Y421568D01*
X474519Y421594D01*
X474537Y421621D01*
X474558Y421651D01*
X474574Y421672D01*
X474576Y421688D01*
X474587D01*
X474613Y421718D01*
X474646Y421755D01*
X474680Y421790D01*
X474717Y421827D01*
X474759Y421862D01*
X474803Y421896D01*
X474815Y421905D01*
Y422347D01*
D02*
G37*
G36*
X485094Y421143D02*
X485089Y421136D01*
X485086Y421131D01*
X485072Y421119D01*
X485056Y421100D01*
X485028Y421075D01*
X485004Y421055D01*
X485013Y421058D01*
X485059Y421072D01*
X485094Y421080D01*
Y421143D01*
D02*
G37*
G36*
X473541Y420845D02*
X473532Y420843D01*
X473485Y420831D01*
X473435Y420818D01*
X473423Y420815D01*
X473438Y420794D01*
X473461Y420764D01*
X473486Y420732D01*
X473514Y420695D01*
X473541Y420656D01*
Y420818D01*
Y420845D01*
D02*
G37*
G36*
X485094Y420644D02*
X485091Y420642D01*
X485075Y420626D01*
X485095Y420599D01*
X485094Y420604D01*
Y420644D01*
D02*
G37*
G36*
X476927Y420630D02*
X476847D01*
X476845Y420613D01*
X476843Y420585D01*
Y420582D01*
Y420579D01*
Y420571D01*
X476845Y420560D01*
X476848Y420530D01*
X476852Y420514D01*
X476854Y420516D01*
X476859Y420524D01*
X476870Y420535D01*
X476881Y420554D01*
X476895Y420577D01*
X476912Y420604D01*
X476927Y420630D01*
D02*
G37*
G36*
X472718Y420677D02*
X472661Y420651D01*
X472597Y420626D01*
X472527Y420605D01*
X472451Y420589D01*
X472389Y420581D01*
X472413Y420563D01*
X472449Y420535D01*
X472491Y420507D01*
X472538Y420477D01*
X472588Y420449D01*
X472643Y420424D01*
X472680Y420409D01*
X472684Y420418D01*
X472696Y420445D01*
X472708Y420473D01*
X472719Y420506D01*
X472728Y420543D01*
X472735Y420579D01*
X472742Y420621D01*
X472743Y420642D01*
X472718Y420677D01*
D02*
G37*
G36*
X490560Y420942D02*
X490429Y420793D01*
X490056Y420388D01*
X490069D01*
X490083Y420391D01*
X490128D01*
X490155Y420394D01*
X490216Y420397D01*
X490283Y420399D01*
X490344Y420402D01*
X490371D01*
X490396Y420405D01*
X490560D01*
Y420942D01*
D02*
G37*
G36*
X474394Y420465D02*
X474382Y420444D01*
X474392Y420425D01*
X474424Y420367D01*
X474425Y420365D01*
X474415Y420402D01*
X474401Y420443D01*
X474394Y420465D01*
D02*
G37*
G36*
X482537Y420626D02*
X482532Y420605D01*
X482516Y420545D01*
Y420352D01*
X482535Y420372D01*
X482560Y420405D01*
X482583Y420437D01*
X482581Y420445D01*
X482557Y420524D01*
X482539Y420612D01*
X482537Y420626D01*
D02*
G37*
G36*
X481028Y420328D02*
Y420327D01*
X481029Y420326D01*
X481028Y420328D01*
D02*
G37*
G36*
X487882Y420885D02*
X487881Y420884D01*
X487798Y420851D01*
X487707Y420818D01*
X487637Y420800D01*
Y420280D01*
X487690Y420277D01*
X487743Y420275D01*
X487768D01*
X487784Y420277D01*
X487806Y420280D01*
X487828Y420283D01*
X487887Y420294D01*
X487903Y420299D01*
Y420630D01*
X487882D01*
Y420885D01*
D02*
G37*
G36*
X493550Y420934D02*
X492678D01*
X492643Y420912D01*
X492610Y420893D01*
Y420881D01*
X492612Y420854D01*
X492618Y420820D01*
X492623Y420787D01*
X492632Y420748D01*
X492651Y420665D01*
X492665Y420624D01*
X492682Y420582D01*
X492704Y420541D01*
X492726Y420499D01*
X492751Y420460D01*
X492781Y420424D01*
X492784Y420422D01*
X492790Y420416D01*
X492798Y420408D01*
X492812Y420397D01*
X492828Y420383D01*
X492850Y420366D01*
X492873Y420352D01*
X492900Y420336D01*
X492928Y420316D01*
X492961Y420302D01*
X493033Y420272D01*
X493075Y420261D01*
X493116Y420253D01*
X493161Y420247D01*
X493208Y420244D01*
X493224D01*
X493238Y420247D01*
X493269Y420250D01*
X493310Y420255D01*
X493355Y420266D01*
X493404Y420283D01*
X493452Y420305D01*
X493499Y420336D01*
X493501D01*
X493504Y420341D01*
X493518Y420355D01*
X493540Y420377D01*
X493565Y420410D01*
X493596Y420452D01*
X493626Y420505D01*
X493654Y420566D01*
X493675Y420630D01*
X493525D01*
Y420633D01*
Y420637D01*
Y420646D01*
X493528Y420660D01*
Y420677D01*
Y420695D01*
X493530Y420718D01*
X493532Y420746D01*
X493535Y420774D01*
X493537Y420806D01*
X493539Y420841D01*
X493544Y420878D01*
X493548Y420917D01*
X493550Y420934D01*
D02*
G37*
G36*
X497889Y423354D02*
X497840D01*
X497827Y423351D01*
X497813D01*
X497794Y423349D01*
X497755Y423340D01*
X497709Y423328D01*
X497662Y423310D01*
X497616Y423282D01*
X497596Y423266D01*
X497575Y423248D01*
X497570Y423243D01*
X497566Y423236D01*
X497559Y423229D01*
X497542Y423206D01*
X497524Y423174D01*
X497503Y423134D01*
X497487Y423086D01*
X497475Y423033D01*
X497473Y423003D01*
X497471Y422970D01*
Y422968D01*
Y422963D01*
Y422952D01*
X497473Y422940D01*
Y422924D01*
X497475Y422906D01*
X497485Y422866D01*
X497496Y422820D01*
X497515Y422772D01*
X497540Y422725D01*
X497554Y422705D01*
X497573Y422684D01*
X497575D01*
X497577Y422679D01*
X497584Y422675D01*
X497591Y422668D01*
X497614Y422652D01*
X497646Y422633D01*
X497686Y422615D01*
X497734Y422599D01*
X497787Y422587D01*
X497817Y422585D01*
X497850Y422582D01*
X497866D01*
X497880Y422585D01*
X497893D01*
X497910Y422587D01*
X497951Y422596D01*
X497995Y422608D01*
X498041Y422626D01*
X498088Y422652D01*
X498108Y422665D01*
X498129Y422684D01*
X498132Y422686D01*
X498134Y422689D01*
X498138Y422695D01*
X498145Y422702D01*
X498164Y422725D01*
X498182Y422760D01*
X498201Y422799D01*
X498219Y422850D01*
X498231Y422908D01*
X498235Y422938D01*
Y422973D01*
Y422975D01*
Y422980D01*
Y422989D01*
X498233Y423000D01*
Y423017D01*
X498231Y423033D01*
X498222Y423072D01*
X498210Y423116D01*
X498191Y423162D01*
X498166Y423208D01*
X498150Y423229D01*
X498132Y423250D01*
Y423252D01*
X498127Y423254D01*
X498120Y423259D01*
X498113Y423266D01*
X498090Y423282D01*
X498058Y423303D01*
X498018Y423321D01*
X497972Y423338D01*
X497917Y423349D01*
X497889Y423354D01*
D02*
G37*
G36*
X497859Y422093D02*
X497838D01*
X497822Y422090D01*
X497803Y422088D01*
X497780Y422083D01*
X497732Y422074D01*
X497676Y422053D01*
X497649Y422042D01*
X497621Y422026D01*
X497593Y422009D01*
X497568Y421986D01*
X497545Y421963D01*
X497522Y421936D01*
Y421933D01*
X497517Y421929D01*
X497512Y421919D01*
X497506Y421908D01*
X497496Y421894D01*
X497487Y421878D01*
X497478Y421857D01*
X497469Y421836D01*
X497448Y421785D01*
X497429Y421730D01*
X497418Y421667D01*
X497415Y421635D01*
X497413Y421600D01*
Y421598D01*
Y421589D01*
Y421575D01*
X497415Y421559D01*
X497418Y421538D01*
X497420Y421513D01*
X497425Y421485D01*
X497429Y421455D01*
X497445Y421393D01*
X497469Y421326D01*
X497482Y421293D01*
X497501Y421263D01*
X497519Y421233D01*
X497542Y421206D01*
X497545Y421203D01*
X497549Y421199D01*
X497556Y421192D01*
X497566Y421185D01*
X497579Y421173D01*
X497593Y421162D01*
X497612Y421148D01*
X497633Y421136D01*
X497679Y421108D01*
X497734Y421088D01*
X497764Y421078D01*
X497796Y421072D01*
X497831Y421067D01*
X497866Y421065D01*
X497884D01*
X497898Y421067D01*
X497914Y421069D01*
X497933Y421072D01*
X497977Y421081D01*
X498028Y421097D01*
X498053Y421108D01*
X498081Y421122D01*
X498106Y421138D01*
X498134Y421157D01*
X498159Y421178D01*
X498182Y421201D01*
X498185Y421203D01*
X498187Y421208D01*
X498194Y421215D01*
X498201Y421226D01*
X498212Y421240D01*
X498222Y421259D01*
X498233Y421277D01*
X498245Y421300D01*
X498256Y421328D01*
X498268Y421356D01*
X498279Y421388D01*
X498289Y421425D01*
X498295Y421462D01*
X498302Y421503D01*
X498305Y421547D01*
X498307Y421594D01*
Y421596D01*
Y421603D01*
Y421614D01*
X498305Y421631D01*
X498302Y421649D01*
X498300Y421672D01*
X498295Y421695D01*
X498291Y421723D01*
X498277Y421781D01*
X498254Y421841D01*
X498240Y421871D01*
X498222Y421899D01*
X498203Y421929D01*
X498180Y421954D01*
X498178Y421956D01*
X498175Y421961D01*
X498166Y421968D01*
X498157Y421975D01*
X498145Y421986D01*
X498129Y421998D01*
X498113Y422009D01*
X498092Y422023D01*
X498046Y422049D01*
X497991Y422072D01*
X497961Y422079D01*
X497928Y422086D01*
X497893Y422090D01*
X497859Y422093D01*
D02*
G37*
G36*
X219760Y78954D02*
X186998D01*
Y70141D01*
X219760D01*
Y78954D01*
D02*
G37*
G36*
X185469D02*
X165455D01*
Y70141D01*
X185469D01*
Y78954D01*
D02*
G37*
G36*
X163926D02*
X121194D01*
Y70141D01*
X163926D01*
Y78954D01*
D02*
G37*
G36*
X119665D02*
X98601D01*
Y70141D01*
X119665D01*
Y78954D01*
D02*
G37*
G36*
X97072D02*
X70515D01*
Y70141D01*
X97072D01*
Y78954D01*
D02*
G37*
G36*
X219760Y68612D02*
X186998D01*
Y59798D01*
X219760D01*
Y68612D01*
D02*
G37*
G36*
X185469D02*
X165455D01*
Y59798D01*
X185469D01*
Y68612D01*
D02*
G37*
G36*
X163926D02*
X121194D01*
Y59798D01*
X163926D01*
Y68612D01*
D02*
G37*
G36*
X119665D02*
X98601D01*
Y59798D01*
X119665D01*
Y68612D01*
D02*
G37*
G36*
X97072D02*
X70515D01*
Y59798D01*
X97072D01*
Y68612D01*
D02*
G37*
G36*
X219760Y58268D02*
X186998D01*
Y49455D01*
X219760D01*
Y58268D01*
D02*
G37*
G36*
X185469D02*
X165455D01*
Y49455D01*
X185469D01*
Y58268D01*
D02*
G37*
G36*
X163926D02*
X121194D01*
Y49455D01*
X163926D01*
Y58268D01*
D02*
G37*
G36*
X119665D02*
X98601D01*
Y49455D01*
X119665D01*
Y58268D01*
D02*
G37*
G36*
X97072D02*
X70515D01*
Y49455D01*
X97072D01*
Y58268D01*
D02*
G37*
%LPD*%
G36*
X78949Y67116D02*
X79108Y66733D01*
Y62136D01*
X78949Y61753D01*
X78567Y61595D01*
X73970D01*
X73587Y61753D01*
X73429Y62136D01*
Y66733D01*
X73587Y67116D01*
X73970Y67274D01*
X78567D01*
X78949Y67116D01*
D02*
G37*
%LPC*%
G36*
X78026Y66192D02*
X74511D01*
Y62677D01*
X78026D01*
Y66192D01*
D02*
G37*
%LPD*%
D24*
X13849Y31048D02*
Y32648D01*
X15449D01*
Y31048D01*
X13849D01*
X46941Y18605D02*
Y20205D01*
X48541D01*
Y18605D01*
X46941D01*
X33559Y30730D02*
Y32330D01*
X35159D01*
Y30730D01*
X33559D01*
X36200Y27700D02*
Y29300D01*
X37800D01*
Y27700D01*
X36200D01*
X19531Y26925D02*
Y28525D01*
X21131D01*
Y26925D01*
X19531D01*
X52700Y12700D02*
Y14300D01*
X54300D01*
Y12700D01*
X52700D01*
Y14700D02*
Y16300D01*
X54300D01*
Y14700D01*
X52700D01*
Y16700D02*
Y18300D01*
X54300D01*
Y16700D01*
X52700D01*
X44200Y42200D02*
Y43800D01*
X45800D01*
Y42200D01*
X44200D01*
X44700Y65700D02*
Y67300D01*
X46300D01*
Y65700D01*
X44700D01*
X45200Y57200D02*
Y58800D01*
X46800D01*
Y57200D01*
X45200D01*
X8200Y24700D02*
Y26300D01*
X9800D01*
Y24700D01*
X8200D01*
X52700Y36200D02*
Y37800D01*
X54300D01*
Y36200D01*
X52700D01*
Y42200D02*
Y43800D01*
X54300D01*
Y42200D01*
X52700D01*
Y30200D02*
Y31800D01*
X54300D01*
Y30200D01*
X52700D01*
X8200Y30700D02*
Y32300D01*
X9800D01*
Y30700D01*
X8200D01*
Y18700D02*
Y20300D01*
X9800D01*
Y18700D01*
X8200D01*
X8700Y38200D02*
Y39800D01*
X10300D01*
Y38200D01*
X8700D01*
X14200Y48200D02*
Y49800D01*
X15800D01*
Y48200D01*
X14200D01*
X11079Y64201D02*
Y65801D01*
X12679D01*
Y64201D01*
X11079D01*
X18200Y64200D02*
Y65800D01*
X19800D01*
Y64200D01*
X18200D01*
Y58700D02*
Y60300D01*
X19800D01*
Y58700D01*
X18200D01*
X26700Y46200D02*
Y47800D01*
X28300D01*
Y46200D01*
X26700D01*
X35200D02*
Y47800D01*
X36800D01*
Y46200D01*
X35200D01*
X54200Y63200D02*
Y64800D01*
X55800D01*
Y63200D01*
X54200D01*
Y65700D02*
Y67300D01*
X55800D01*
Y65700D01*
X54200D01*
Y68200D02*
Y69800D01*
X55800D01*
Y68200D01*
X54200D01*
Y70700D02*
Y72300D01*
X55800D01*
Y70700D01*
X54200D01*
X41200Y74200D02*
Y75800D01*
X42800D01*
Y74200D01*
X41200D01*
X38700D02*
Y75800D01*
X40300D01*
Y74200D01*
X38700D01*
X36200D02*
Y75800D01*
X37800D01*
Y74200D01*
X36200D01*
X33700D02*
Y75800D01*
X35300D01*
Y74200D01*
X33700D01*
X12200D02*
Y75800D01*
X13800D01*
Y74200D01*
X12200D01*
X9700D02*
Y75800D01*
X11300D01*
Y74200D01*
X9700D01*
X7200D02*
Y75800D01*
X8800D01*
Y74200D01*
X7200D01*
X6200Y50700D02*
Y52300D01*
X7800D01*
Y50700D01*
X6200D01*
Y47700D02*
Y49300D01*
X7800D01*
Y47700D01*
X6200D01*
Y44700D02*
Y46300D01*
X7800D01*
Y44700D01*
X6200D01*
Y42200D02*
Y43800D01*
X7800D01*
Y42200D01*
X6200D01*
X14700Y9200D02*
Y10800D01*
X16300D01*
Y9200D01*
X14700D01*
X12200D02*
Y10800D01*
X13800D01*
Y9200D01*
X12200D01*
X9700D02*
Y10800D01*
X11300D01*
Y9200D01*
X9700D01*
X7200D02*
Y10800D01*
X8800D01*
Y9200D01*
X7200D01*
X36200D02*
Y10800D01*
X37800D01*
Y9200D01*
X36200D01*
X38700D02*
Y10800D01*
X40300D01*
Y9200D01*
X38700D01*
X41200D02*
Y10800D01*
X42800D01*
Y9200D01*
X41200D01*
X43700D02*
Y10800D01*
X45300D01*
Y9200D01*
X43700D01*
X52700Y18700D02*
Y20300D01*
X54300D01*
Y18700D01*
X52700D01*
X44200Y30200D02*
Y31800D01*
X45800D01*
Y30200D01*
X44200D01*
X22200Y46700D02*
Y48300D01*
X23800D01*
Y46700D01*
X22200D01*
X19837Y51200D02*
Y52800D01*
X21437D01*
Y51200D01*
X19837D01*
X19700Y71200D02*
Y72800D01*
X21300D01*
Y71200D01*
X19700D01*
X21575Y62675D02*
Y64275D01*
X23175D01*
Y62675D01*
X21575D01*
X21538Y60236D02*
Y61836D01*
X23138D01*
Y60236D01*
X21538D01*
X41200Y47700D02*
Y49300D01*
X42800D01*
Y47700D01*
X41200D01*
X29280Y63526D02*
Y65126D01*
X30880D01*
Y63526D01*
X29280D01*
X16700Y72200D02*
Y73800D01*
X18300D01*
Y72200D01*
X16700D01*
X26594Y50700D02*
Y52300D01*
X28194D01*
Y50700D01*
X26594D01*
X23022Y51312D02*
Y52912D01*
X24622D01*
Y51312D01*
X23022D01*
X14200Y18700D02*
Y20300D01*
X15800D01*
Y18700D01*
X14200D01*
X53828Y51507D02*
Y53107D01*
X55427D01*
Y51507D01*
X53828D01*
X41786Y51397D02*
Y52997D01*
X43386D01*
Y51397D01*
X41786D01*
X34617Y50645D02*
Y52245D01*
X36217D01*
Y50645D01*
X34617D01*
X37065Y50531D02*
Y52131D01*
X38665D01*
Y50531D01*
X37065D01*
X36200Y32852D02*
Y34452D01*
X37800D01*
Y32852D01*
X36200D01*
X32200Y46666D02*
Y48266D01*
X33800D01*
Y46666D01*
X32200D01*
X29348D02*
Y48266D01*
X30948D01*
Y46666D01*
X29348D01*
X14346Y24054D02*
Y25654D01*
X15946D01*
Y24054D01*
X14346D01*
X27218Y18327D02*
Y19927D01*
X28818D01*
Y18327D01*
X27218D01*
X29568Y20496D02*
Y22096D01*
X31168D01*
Y20496D01*
X29568D01*
X23891Y22578D02*
Y24178D01*
X25491D01*
Y22578D01*
X23891D01*
X22349Y24389D02*
Y25989D01*
X23949D01*
Y24389D01*
X22349D01*
X36394Y20700D02*
Y22300D01*
X37994D01*
Y20700D01*
X36394D01*
X36272Y23977D02*
Y25577D01*
X37872D01*
Y23977D01*
X36272D01*
X31938Y20436D02*
Y22036D01*
X33538D01*
Y20436D01*
X31938D01*
X26015Y24144D02*
Y25744D01*
X27615D01*
Y24144D01*
X26015D01*
X27700Y29700D02*
Y31300D01*
X29300D01*
Y29700D01*
X27700D01*
X32488Y26159D02*
Y27759D01*
X34088D01*
Y26159D01*
X32488D01*
X39700Y60700D02*
Y62300D01*
X41300D01*
Y60700D01*
X39700D01*
X44500Y20000D02*
Y21600D01*
X46100D01*
Y20000D01*
X44500D01*
X27759Y25848D02*
Y27448D01*
X29359D01*
Y25848D01*
X27759D01*
X14527Y21450D02*
Y23050D01*
X16127D01*
Y21450D01*
X14527D01*
X21701Y16365D02*
Y17965D01*
X23301D01*
Y16365D01*
X21701D01*
M02*
