G04*
G04 #@! TF.GenerationSoftware,Altium Limited,Altium Designer,22.2.1 (43)*
G04*
G04 Layer_Color=255*
%FSLAX25Y25*%
%MOIN*%
G70*
G04*
G04 #@! TF.SameCoordinates,4B28361B-3754-4690-972C-136B69916877*
G04*
G04*
G04 #@! TF.FilePolarity,Positive*
G04*
G01*
G75*
%ADD15R,0.03858X0.03661*%
%ADD19R,0.03661X0.03858*%
%ADD20R,0.00906X0.03937*%
D15*
X37000Y43031D02*
D03*
Y36968D02*
D03*
X19000Y43031D02*
D03*
Y36968D02*
D03*
X25000Y43063D02*
D03*
Y37000D02*
D03*
X31000Y43063D02*
D03*
Y37000D02*
D03*
D19*
X11500Y34500D02*
D03*
X5437D02*
D03*
X11500Y28500D02*
D03*
X5437D02*
D03*
X11468Y22500D02*
D03*
X5406D02*
D03*
X11531Y16500D02*
D03*
X5469D02*
D03*
X54000Y28000D02*
D03*
X47937D02*
D03*
X54000Y34000D02*
D03*
X47937D02*
D03*
X54000Y40000D02*
D03*
X47937D02*
D03*
X53969Y46000D02*
D03*
X47905D02*
D03*
D20*
X15902Y55500D02*
D03*
X17476D02*
D03*
X19051D02*
D03*
X20626D02*
D03*
X22201D02*
D03*
X23776D02*
D03*
X25350D02*
D03*
X26925D02*
D03*
X28500D02*
D03*
X30075D02*
D03*
X31650D02*
D03*
X34799D02*
D03*
X36374D02*
D03*
X37949D02*
D03*
X39524D02*
D03*
X41098D02*
D03*
X33224D02*
D03*
X41098Y68886D02*
D03*
X39524D02*
D03*
X37949D02*
D03*
X36374D02*
D03*
X34799D02*
D03*
X33224D02*
D03*
X31650D02*
D03*
X30075D02*
D03*
X28500D02*
D03*
X26925D02*
D03*
X25350D02*
D03*
X23776D02*
D03*
X22201D02*
D03*
X20626D02*
D03*
X19051D02*
D03*
X17476D02*
D03*
X15902D02*
D03*
M02*
