G04*
G04 #@! TF.GenerationSoftware,Altium Limited,Altium Designer,22.2.1 (43)*
G04*
G04 Layer_Color=65535*
%FSLAX25Y25*%
%MOIN*%
G70*
G04*
G04 #@! TF.SameCoordinates,4B28361B-3754-4690-972C-136B69916877*
G04*
G04*
G04 #@! TF.FilePolarity,Positive*
G04*
G01*
G75*
%ADD10C,0.00500*%
%ADD11C,0.00600*%
%ADD12C,0.00787*%
G36*
X4703Y4086D02*
Y4080D01*
Y4069D01*
X4701Y4056D01*
Y4040D01*
X4699Y4019D01*
X4697Y3995D01*
X4696Y3969D01*
X4694Y3938D01*
X4690Y3906D01*
X4688Y3870D01*
X4683Y3833D01*
X4679Y3792D01*
X4673Y3747D01*
X4668Y3703D01*
X4662Y3655D01*
X4664Y3657D01*
X4670Y3659D01*
X4681Y3664D01*
X4694Y3670D01*
X4710Y3679D01*
X4731Y3688D01*
X4755Y3697D01*
X4781Y3710D01*
X4810Y3721D01*
X4842Y3736D01*
X4875Y3749D01*
X4912Y3764D01*
X4949Y3779D01*
X4990Y3792D01*
X5073Y3821D01*
X5154Y3575D01*
X5153D01*
X5145Y3572D01*
X5132Y3568D01*
X5116Y3564D01*
X5097Y3557D01*
X5073Y3551D01*
X5047Y3544D01*
X5017Y3535D01*
X4984Y3527D01*
X4951Y3520D01*
X4877Y3503D01*
X4799Y3488D01*
X4720Y3477D01*
X4721Y3475D01*
X4725Y3474D01*
X4731Y3468D01*
X4740Y3459D01*
X4749Y3449D01*
X4764Y3435D01*
X4779Y3420D01*
X4797Y3401D01*
X4818Y3381D01*
X4840Y3357D01*
X4864Y3329D01*
X4890Y3300D01*
X4919Y3266D01*
X4951Y3229D01*
X4984Y3191D01*
X5019Y3148D01*
X4810Y3000D01*
X4808Y3002D01*
X4807Y3005D01*
X4799Y3015D01*
X4792Y3026D01*
X4783Y3039D01*
X4772Y3056D01*
X4757Y3076D01*
X4742Y3098D01*
X4725Y3124D01*
X4707Y3152D01*
X4688Y3181D01*
X4666Y3215D01*
X4644Y3252D01*
X4622Y3290D01*
X4597Y3331D01*
X4572Y3374D01*
X4570Y3372D01*
X4566Y3363D01*
X4559Y3350D01*
X4549Y3333D01*
X4538Y3313D01*
X4525Y3289D01*
X4511Y3263D01*
X4494Y3235D01*
X4459Y3174D01*
X4422Y3113D01*
X4383Y3054D01*
X4363Y3026D01*
X4344Y3000D01*
X4137Y3148D01*
X4139Y3152D01*
X4146Y3159D01*
X4155Y3172D01*
X4170Y3189D01*
X4187Y3207D01*
X4205Y3231D01*
X4228Y3255D01*
X4250Y3283D01*
X4298Y3337D01*
X4346Y3392D01*
X4368Y3416D01*
X4390Y3440D01*
X4411Y3461D01*
X4427Y3477D01*
X4425D01*
X4418Y3479D01*
X4405Y3481D01*
X4389Y3485D01*
X4368Y3488D01*
X4346Y3494D01*
X4318Y3500D01*
X4289Y3505D01*
X4257Y3512D01*
X4224Y3520D01*
X4152Y3537D01*
X4076Y3555D01*
X4000Y3575D01*
X4079Y3821D01*
X4083Y3820D01*
X4092Y3818D01*
X4105Y3812D01*
X4126Y3805D01*
X4148Y3797D01*
X4174Y3788D01*
X4203Y3777D01*
X4235Y3764D01*
X4300Y3738D01*
X4366Y3710D01*
X4400Y3696D01*
X4429Y3681D01*
X4457Y3666D01*
X4483Y3653D01*
Y3657D01*
X4481Y3666D01*
X4479Y3683D01*
X4477Y3705D01*
X4476Y3729D01*
X4472Y3759D01*
X4470Y3792D01*
X4466Y3825D01*
X4461Y3897D01*
X4455Y3969D01*
X4453Y4003D01*
X4451Y4034D01*
X4450Y4064D01*
Y4088D01*
X4703D01*
Y4086D01*
D02*
G37*
G36*
X18173Y13804D02*
X17398Y13508D01*
Y12433D01*
X18173Y12154D01*
Y11797D01*
X15613Y12779D01*
Y13142D01*
X18173Y14189D01*
Y13804D01*
D02*
G37*
G36*
X42886Y14247D02*
X42908Y14245D01*
X42938Y14243D01*
X42969Y14238D01*
X43006Y14232D01*
X43045Y14223D01*
X43088Y14212D01*
X43132Y14197D01*
X43178Y14180D01*
X43225Y14160D01*
X43271Y14136D01*
X43317Y14108D01*
X43363Y14077D01*
X43406Y14040D01*
X43408Y14038D01*
X43415Y14031D01*
X43426Y14018D01*
X43441Y13999D01*
X43458Y13975D01*
X43478Y13946D01*
X43499Y13910D01*
X43519Y13868D01*
X43539Y13820D01*
X43560Y13766D01*
X43580Y13703D01*
X43597Y13636D01*
X43611Y13561D01*
X43617Y13520D01*
X43622Y13477D01*
X43626Y13433D01*
X43630Y13387D01*
X43632Y13339D01*
Y12634D01*
X44673D01*
Y12295D01*
X42113D01*
Y13322D01*
X42115Y13348D01*
Y13374D01*
X42116Y13403D01*
X42118Y13466D01*
X42124Y13531D01*
X42129Y13594D01*
X42135Y13624D01*
X42139Y13649D01*
Y13651D01*
X42141Y13659D01*
X42142Y13668D01*
X42144Y13681D01*
X42148Y13698D01*
X42153Y13716D01*
X42159Y13736D01*
X42165Y13760D01*
X42181Y13810D01*
X42204Y13862D01*
X42228Y13916D01*
X42259Y13966D01*
X42261Y13968D01*
X42263Y13971D01*
X42268Y13979D01*
X42276Y13986D01*
X42283Y13997D01*
X42294Y14010D01*
X42307Y14025D01*
X42322Y14040D01*
X42338Y14055D01*
X42357Y14071D01*
X42400Y14106D01*
X42450Y14140D01*
X42505Y14171D01*
X42507Y14173D01*
X42512Y14175D01*
X42522Y14179D01*
X42533Y14184D01*
X42548Y14190D01*
X42566Y14195D01*
X42586Y14203D01*
X42609Y14210D01*
X42633Y14217D01*
X42660Y14225D01*
X42688Y14230D01*
X42720Y14236D01*
X42784Y14245D01*
X42855Y14249D01*
X42858D01*
X42869D01*
X42886Y14247D01*
D02*
G37*
G36*
X15044Y13794D02*
X15046Y13795D01*
X15050Y13799D01*
X15055Y13805D01*
X15065Y13812D01*
X15076Y13821D01*
X15090Y13834D01*
X15107Y13847D01*
X15124Y13862D01*
X15146Y13877D01*
X15168Y13895D01*
X15192Y13912D01*
X15218Y13932D01*
X15248Y13951D01*
X15277Y13971D01*
X15344Y14012D01*
X15346Y14014D01*
X15351Y14017D01*
X15362Y14023D01*
X15375Y14029D01*
X15390Y14038D01*
X15409Y14049D01*
X15431Y14060D01*
X15453Y14073D01*
X15505Y14099D01*
X15560Y14125D01*
X15618Y14151D01*
X15673Y14173D01*
Y13869D01*
X15669Y13868D01*
X15662Y13864D01*
X15647Y13857D01*
X15629Y13847D01*
X15607Y13836D01*
X15579Y13821D01*
X15549Y13805D01*
X15518Y13786D01*
X15483Y13764D01*
X15446Y13742D01*
X15368Y13690D01*
X15288Y13633D01*
X15213Y13570D01*
X15211Y13568D01*
X15203Y13562D01*
X15194Y13553D01*
X15181Y13540D01*
X15165Y13523D01*
X15146Y13505D01*
X15126Y13483D01*
X15103Y13461D01*
X15081Y13435D01*
X15057Y13407D01*
X15011Y13350D01*
X14968Y13288D01*
X14950Y13257D01*
X14933Y13226D01*
X14730D01*
Y15795D01*
X15044D01*
Y13794D01*
D02*
G37*
G36*
X12917Y41183D02*
X14027D01*
Y40894D01*
X12859Y39235D01*
X12602D01*
Y40894D01*
X12256D01*
Y41183D01*
X12602D01*
Y41795D01*
X12917D01*
Y41183D01*
D02*
G37*
G36*
X15044Y39794D02*
X15046Y39795D01*
X15050Y39799D01*
X15055Y39805D01*
X15065Y39812D01*
X15076Y39821D01*
X15090Y39834D01*
X15107Y39847D01*
X15124Y39862D01*
X15146Y39877D01*
X15168Y39895D01*
X15192Y39912D01*
X15218Y39932D01*
X15248Y39951D01*
X15277Y39971D01*
X15344Y40012D01*
X15346Y40014D01*
X15351Y40017D01*
X15362Y40023D01*
X15375Y40029D01*
X15390Y40038D01*
X15409Y40049D01*
X15431Y40060D01*
X15453Y40073D01*
X15505Y40099D01*
X15560Y40125D01*
X15618Y40151D01*
X15673Y40173D01*
Y39869D01*
X15669Y39868D01*
X15662Y39864D01*
X15647Y39856D01*
X15629Y39847D01*
X15607Y39836D01*
X15579Y39821D01*
X15549Y39805D01*
X15518Y39786D01*
X15483Y39764D01*
X15446Y39742D01*
X15368Y39690D01*
X15288Y39633D01*
X15213Y39570D01*
X15211Y39568D01*
X15203Y39562D01*
X15194Y39553D01*
X15181Y39540D01*
X15165Y39524D01*
X15146Y39505D01*
X15126Y39483D01*
X15103Y39461D01*
X15081Y39435D01*
X15057Y39407D01*
X15011Y39350D01*
X14968Y39288D01*
X14950Y39257D01*
X14933Y39226D01*
X14730D01*
Y41795D01*
X15044D01*
Y39794D01*
D02*
G37*
G36*
X33340Y8145D02*
X33360Y8144D01*
X33384Y8140D01*
X33410Y8136D01*
X33439Y8133D01*
X33471Y8125D01*
X33504Y8118D01*
X33539Y8107D01*
X33575Y8096D01*
X33612Y8081D01*
X33647Y8064D01*
X33682Y8046D01*
X33717Y8023D01*
X33719Y8022D01*
X33724Y8018D01*
X33734Y8010D01*
X33747Y8001D01*
X33763Y7988D01*
X33780Y7973D01*
X33798Y7955D01*
X33821Y7935D01*
X33843Y7912D01*
X33865Y7886D01*
X33887Y7857D01*
X33911Y7827D01*
X33933Y7794D01*
X33954Y7757D01*
X33974Y7720D01*
X33993Y7679D01*
X33994Y7677D01*
X33996Y7670D01*
X34002Y7657D01*
X34007Y7640D01*
X34015Y7620D01*
X34022Y7596D01*
X34030Y7566D01*
X34039Y7535D01*
X34048Y7500D01*
X34056Y7463D01*
X34063Y7422D01*
X34070Y7380D01*
X34076Y7335D01*
X34082Y7289D01*
X34083Y7243D01*
X34085Y7193D01*
Y7189D01*
Y7180D01*
Y7165D01*
X34083Y7145D01*
X34082Y7121D01*
X34080Y7091D01*
X34076Y7058D01*
X34072Y7023D01*
X34067Y6984D01*
X34059Y6943D01*
X34041Y6856D01*
X34030Y6812D01*
X34017Y6767D01*
X34000Y6723D01*
X33981Y6680D01*
X33980Y6678D01*
X33976Y6671D01*
X33970Y6658D01*
X33963Y6643D01*
X33952Y6623D01*
X33939Y6603D01*
X33924Y6577D01*
X33906Y6551D01*
X33887Y6523D01*
X33865Y6495D01*
X33841Y6466D01*
X33813Y6436D01*
X33785Y6408D01*
X33754Y6381D01*
X33721Y6355D01*
X33686Y6331D01*
X33684Y6329D01*
X33676Y6325D01*
X33667Y6320D01*
X33652Y6312D01*
X33634Y6303D01*
X33613Y6292D01*
X33589Y6283D01*
X33562Y6272D01*
X33532Y6259D01*
X33500Y6249D01*
X33467Y6238D01*
X33432Y6229D01*
X33395Y6222D01*
X33356Y6216D01*
X33317Y6212D01*
X33277Y6210D01*
X33262D01*
X33251Y6212D01*
X33236D01*
X33221Y6214D01*
X33203Y6216D01*
X33182Y6218D01*
X33138Y6227D01*
X33092Y6238D01*
X33042Y6253D01*
X32994Y6275D01*
X32992D01*
X32988Y6279D01*
X32983Y6283D01*
X32973Y6288D01*
X32962Y6294D01*
X32951Y6301D01*
X32921Y6321D01*
X32890Y6346D01*
X32855Y6375D01*
X32822Y6407D01*
X32790Y6443D01*
Y5541D01*
X32476D01*
Y8107D01*
X32762D01*
Y7864D01*
X32764Y7866D01*
X32766Y7870D01*
X32772Y7877D01*
X32781Y7888D01*
X32790Y7899D01*
X32801Y7912D01*
X32829Y7944D01*
X32862Y7977D01*
X32901Y8012D01*
X32944Y8046D01*
X32990Y8075D01*
X32992D01*
X32996Y8079D01*
X33003Y8083D01*
X33012Y8086D01*
X33025Y8092D01*
X33040Y8097D01*
X33057Y8105D01*
X33077Y8112D01*
X33097Y8118D01*
X33121Y8125D01*
X33147Y8131D01*
X33175Y8136D01*
X33234Y8144D01*
X33299Y8147D01*
X33321D01*
X33340Y8145D01*
D02*
G37*
G36*
X53669D02*
X53688Y8144D01*
X53706Y8142D01*
X53728Y8140D01*
X53775Y8133D01*
X53826Y8122D01*
X53880Y8107D01*
X53934Y8086D01*
X53936D01*
X53939Y8084D01*
X53947Y8081D01*
X53958Y8075D01*
X53969Y8070D01*
X53982Y8062D01*
X54013Y8044D01*
X54047Y8022D01*
X54082Y7994D01*
X54115Y7962D01*
X54145Y7927D01*
Y7925D01*
X54148Y7924D01*
X54152Y7918D01*
X54156Y7911D01*
X54161Y7901D01*
X54169Y7890D01*
X54184Y7862D01*
X54200Y7829D01*
X54215Y7789D01*
X54230Y7744D01*
X54243Y7696D01*
Y7694D01*
Y7692D01*
X54245Y7687D01*
X54246Y7679D01*
Y7670D01*
X54248Y7657D01*
X54250Y7642D01*
X54252Y7626D01*
X54254Y7605D01*
X54256Y7583D01*
X54258Y7559D01*
Y7531D01*
X54259Y7500D01*
X54261Y7467D01*
Y7430D01*
Y7391D01*
Y6251D01*
X53947D01*
Y7378D01*
Y7380D01*
Y7387D01*
Y7396D01*
Y7409D01*
X53945Y7426D01*
Y7444D01*
X53943Y7465D01*
Y7485D01*
X53938Y7533D01*
X53932Y7579D01*
X53923Y7626D01*
X53917Y7646D01*
X53910Y7665D01*
Y7666D01*
X53908Y7668D01*
X53906Y7674D01*
X53902Y7681D01*
X53893Y7698D01*
X53880Y7720D01*
X53862Y7744D01*
X53839Y7770D01*
X53812Y7796D01*
X53778Y7818D01*
X53777D01*
X53775Y7820D01*
X53769Y7824D01*
X53762Y7827D01*
X53743Y7836D01*
X53717Y7848D01*
X53684Y7857D01*
X53647Y7866D01*
X53606Y7874D01*
X53560Y7875D01*
X53540D01*
X53527Y7874D01*
X53508Y7872D01*
X53488Y7868D01*
X53466Y7864D01*
X53442Y7859D01*
X53414Y7853D01*
X53386Y7844D01*
X53359Y7835D01*
X53329Y7822D01*
X53299Y7807D01*
X53270Y7790D01*
X53240Y7770D01*
X53212Y7748D01*
X53211Y7746D01*
X53207Y7742D01*
X53199Y7733D01*
X53190Y7722D01*
X53179Y7707D01*
X53166Y7688D01*
X53153Y7666D01*
X53140Y7639D01*
X53127Y7609D01*
X53114Y7574D01*
X53101Y7533D01*
X53090Y7489D01*
X53081Y7441D01*
X53074Y7387D01*
X53070Y7328D01*
X53068Y7263D01*
Y6251D01*
X52754D01*
Y8107D01*
X53036D01*
Y7842D01*
X53038Y7846D01*
X53046Y7855D01*
X53059Y7870D01*
X53074Y7890D01*
X53096Y7912D01*
X53122Y7938D01*
X53151Y7966D01*
X53186Y7996D01*
X53225Y8023D01*
X53270Y8051D01*
X53318Y8077D01*
X53371Y8099D01*
X53429Y8120D01*
X53490Y8134D01*
X53556Y8144D01*
X53627Y8147D01*
X53654D01*
X53669Y8145D01*
D02*
G37*
G36*
X36699Y7750D02*
X36342D01*
Y8107D01*
X36699D01*
Y7750D01*
D02*
G37*
G36*
X47853Y8145D02*
X47875Y8144D01*
X47901Y8142D01*
X47929Y8140D01*
X47956Y8136D01*
X47988Y8133D01*
X48053Y8122D01*
X48119Y8105D01*
X48182Y8084D01*
X48184D01*
X48190Y8081D01*
X48199Y8079D01*
X48210Y8073D01*
X48223Y8066D01*
X48238Y8059D01*
X48275Y8040D01*
X48314Y8016D01*
X48354Y7986D01*
X48391Y7953D01*
X48410Y7935D01*
X48425Y7914D01*
X48426Y7912D01*
X48428Y7909D01*
X48432Y7903D01*
X48438Y7894D01*
X48445Y7885D01*
X48452Y7872D01*
X48460Y7855D01*
X48469Y7838D01*
X48478Y7818D01*
X48487Y7798D01*
X48497Y7774D01*
X48504Y7748D01*
X48513Y7720D01*
X48523Y7692D01*
X48535Y7627D01*
X48228Y7585D01*
Y7587D01*
X48226Y7591D01*
Y7598D01*
X48223Y7609D01*
X48221Y7620D01*
X48215Y7635D01*
X48204Y7666D01*
X48188Y7701D01*
X48167Y7739D01*
X48140Y7775D01*
X48123Y7792D01*
X48105Y7807D01*
X48103Y7809D01*
X48101Y7811D01*
X48093Y7814D01*
X48086Y7820D01*
X48075Y7825D01*
X48064Y7833D01*
X48049Y7840D01*
X48032Y7848D01*
X48012Y7855D01*
X47992Y7862D01*
X47967Y7870D01*
X47943Y7875D01*
X47916Y7881D01*
X47886Y7885D01*
X47855Y7888D01*
X47801D01*
X47786Y7886D01*
X47768D01*
X47747Y7885D01*
X47725Y7883D01*
X47701Y7879D01*
X47649Y7872D01*
X47598Y7859D01*
X47574Y7850D01*
X47551Y7840D01*
X47529Y7829D01*
X47511Y7816D01*
X47509D01*
X47507Y7812D01*
X47496Y7803D01*
X47481Y7789D01*
X47464Y7768D01*
X47448Y7744D01*
X47433Y7716D01*
X47422Y7685D01*
X47420Y7666D01*
X47418Y7650D01*
Y7648D01*
Y7639D01*
X47420Y7627D01*
X47424Y7613D01*
X47427Y7596D01*
X47433Y7577D01*
X47442Y7557D01*
X47455Y7539D01*
X47457Y7537D01*
X47462Y7531D01*
X47472Y7522D01*
X47485Y7509D01*
X47501Y7496D01*
X47524Y7483D01*
X47548Y7468D01*
X47577Y7456D01*
X47579D01*
X47583Y7454D01*
X47588Y7452D01*
X47596Y7450D01*
X47605Y7446D01*
X47616Y7444D01*
X47629Y7439D01*
X47646Y7435D01*
X47666Y7430D01*
X47688Y7422D01*
X47714Y7415D01*
X47744Y7407D01*
X47777Y7398D01*
X47816Y7387D01*
X47857Y7376D01*
X47858D01*
X47860Y7374D01*
X47871Y7372D01*
X47888Y7367D01*
X47910Y7361D01*
X47938Y7354D01*
X47969Y7344D01*
X48005Y7335D01*
X48040Y7324D01*
X48117Y7302D01*
X48195Y7276D01*
X48230Y7265D01*
X48265Y7252D01*
X48295Y7241D01*
X48323Y7230D01*
X48325D01*
X48328Y7228D01*
X48336Y7224D01*
X48345Y7219D01*
X48356Y7213D01*
X48369Y7206D01*
X48399Y7187D01*
X48432Y7163D01*
X48465Y7135D01*
X48498Y7102D01*
X48530Y7063D01*
Y7061D01*
X48534Y7058D01*
X48537Y7052D01*
X48541Y7045D01*
X48548Y7034D01*
X48554Y7021D01*
X48561Y7006D01*
X48569Y6989D01*
X48574Y6971D01*
X48582Y6950D01*
X48595Y6906D01*
X48602Y6854D01*
X48606Y6797D01*
Y6795D01*
Y6789D01*
Y6782D01*
X48604Y6771D01*
Y6756D01*
X48600Y6740D01*
X48598Y6721D01*
X48595Y6701D01*
X48584Y6656D01*
X48567Y6606D01*
X48556Y6580D01*
X48545Y6553D01*
X48530Y6527D01*
X48513Y6501D01*
X48511Y6499D01*
X48510Y6495D01*
X48504Y6488D01*
X48497Y6479D01*
X48487Y6466D01*
X48474Y6453D01*
X48461Y6438D01*
X48445Y6421D01*
X48428Y6405D01*
X48408Y6388D01*
X48386Y6369D01*
X48362Y6351D01*
X48336Y6334D01*
X48308Y6318D01*
X48278Y6301D01*
X48247Y6286D01*
X48245D01*
X48239Y6283D01*
X48230Y6279D01*
X48217Y6275D01*
X48201Y6270D01*
X48180Y6262D01*
X48158Y6255D01*
X48134Y6249D01*
X48106Y6242D01*
X48077Y6234D01*
X48043Y6229D01*
X48010Y6222D01*
X47936Y6214D01*
X47857Y6210D01*
X47840D01*
X47821Y6212D01*
X47797D01*
X47766Y6216D01*
X47733Y6218D01*
X47694Y6223D01*
X47651Y6229D01*
X47607Y6236D01*
X47562Y6247D01*
X47516Y6259D01*
X47470Y6273D01*
X47425Y6290D01*
X47381Y6310D01*
X47340Y6334D01*
X47303Y6360D01*
X47302Y6362D01*
X47296Y6368D01*
X47285Y6377D01*
X47274Y6388D01*
X47259Y6405D01*
X47240Y6423D01*
X47222Y6445D01*
X47203Y6473D01*
X47183Y6503D01*
X47161Y6534D01*
X47142Y6571D01*
X47122Y6612D01*
X47104Y6654D01*
X47089Y6702D01*
X47074Y6752D01*
X47063Y6806D01*
X47374Y6854D01*
Y6852D01*
X47376Y6847D01*
X47377Y6836D01*
X47379Y6823D01*
X47383Y6808D01*
X47388Y6789D01*
X47394Y6769D01*
X47401Y6749D01*
X47420Y6702D01*
X47446Y6654D01*
X47461Y6630D01*
X47477Y6608D01*
X47498Y6588D01*
X47518Y6567D01*
X47520Y6566D01*
X47524Y6564D01*
X47531Y6558D01*
X47540Y6553D01*
X47553Y6545D01*
X47568Y6536D01*
X47585Y6527D01*
X47605Y6519D01*
X47627Y6510D01*
X47653Y6501D01*
X47681Y6492D01*
X47710Y6484D01*
X47744Y6479D01*
X47779Y6473D01*
X47816Y6471D01*
X47855Y6469D01*
X47875D01*
X47890Y6471D01*
X47908D01*
X47929Y6475D01*
X47951Y6477D01*
X47977Y6481D01*
X48029Y6492D01*
X48082Y6506D01*
X48132Y6529D01*
X48156Y6542D01*
X48177Y6556D01*
X48178Y6558D01*
X48180Y6560D01*
X48186Y6566D01*
X48193Y6573D01*
X48210Y6592D01*
X48230Y6616D01*
X48249Y6645D01*
X48265Y6682D01*
X48273Y6701D01*
X48278Y6721D01*
X48280Y6741D01*
X48282Y6763D01*
Y6765D01*
Y6769D01*
Y6775D01*
X48280Y6780D01*
X48276Y6801D01*
X48271Y6825D01*
X48260Y6850D01*
X48243Y6878D01*
X48232Y6891D01*
X48219Y6906D01*
X48204Y6919D01*
X48188Y6930D01*
X48184Y6932D01*
X48180Y6934D01*
X48175Y6937D01*
X48166Y6941D01*
X48154Y6947D01*
X48140Y6952D01*
X48125Y6960D01*
X48105Y6967D01*
X48082Y6974D01*
X48055Y6984D01*
X48025Y6993D01*
X47992Y7002D01*
X47955Y7013D01*
X47912Y7024D01*
X47866Y7035D01*
X47864D01*
X47862Y7037D01*
X47851Y7039D01*
X47833Y7045D01*
X47810Y7050D01*
X47781Y7058D01*
X47749Y7067D01*
X47714Y7076D01*
X47675Y7087D01*
X47596Y7111D01*
X47516Y7137D01*
X47479Y7150D01*
X47444Y7163D01*
X47412Y7176D01*
X47385Y7187D01*
X47383D01*
X47379Y7191D01*
X47372Y7195D01*
X47363Y7198D01*
X47352Y7206D01*
X47339Y7213D01*
X47309Y7233D01*
X47278Y7258D01*
X47244Y7287D01*
X47211Y7322D01*
X47183Y7363D01*
Y7365D01*
X47179Y7368D01*
X47178Y7374D01*
X47172Y7383D01*
X47166Y7393D01*
X47161Y7406D01*
X47155Y7420D01*
X47150Y7437D01*
X47137Y7474D01*
X47126Y7517D01*
X47118Y7563D01*
X47115Y7613D01*
Y7615D01*
Y7618D01*
Y7626D01*
X47117Y7633D01*
Y7644D01*
X47118Y7657D01*
X47122Y7688D01*
X47128Y7724D01*
X47139Y7763D01*
X47152Y7801D01*
X47170Y7842D01*
Y7844D01*
X47172Y7848D01*
X47176Y7853D01*
X47181Y7861D01*
X47194Y7879D01*
X47211Y7903D01*
X47233Y7931D01*
X47261Y7960D01*
X47290Y7990D01*
X47326Y8018D01*
X47329Y8020D01*
X47339Y8027D01*
X47355Y8036D01*
X47379Y8049D01*
X47407Y8064D01*
X47440Y8079D01*
X47481Y8094D01*
X47525Y8108D01*
X47527D01*
X47531Y8110D01*
X47538Y8112D01*
X47548Y8114D01*
X47559Y8118D01*
X47574Y8122D01*
X47590Y8125D01*
X47607Y8129D01*
X47648Y8134D01*
X47694Y8142D01*
X47744Y8145D01*
X47797Y8147D01*
X47834D01*
X47853Y8145D01*
D02*
G37*
G36*
X35129D02*
X35151Y8144D01*
X35177Y8142D01*
X35204Y8140D01*
X35232Y8136D01*
X35264Y8133D01*
X35328Y8122D01*
X35395Y8105D01*
X35458Y8084D01*
X35460D01*
X35465Y8081D01*
X35475Y8079D01*
X35486Y8073D01*
X35499Y8066D01*
X35513Y8059D01*
X35550Y8040D01*
X35589Y8016D01*
X35630Y7986D01*
X35667Y7953D01*
X35685Y7935D01*
X35700Y7914D01*
X35702Y7912D01*
X35704Y7909D01*
X35708Y7903D01*
X35713Y7894D01*
X35721Y7885D01*
X35728Y7872D01*
X35735Y7855D01*
X35745Y7838D01*
X35754Y7818D01*
X35763Y7798D01*
X35772Y7774D01*
X35780Y7748D01*
X35789Y7720D01*
X35798Y7692D01*
X35811Y7627D01*
X35504Y7585D01*
Y7587D01*
X35502Y7591D01*
Y7598D01*
X35499Y7609D01*
X35497Y7620D01*
X35491Y7635D01*
X35480Y7666D01*
X35463Y7701D01*
X35443Y7739D01*
X35415Y7775D01*
X35399Y7792D01*
X35380Y7807D01*
X35378Y7809D01*
X35376Y7811D01*
X35369Y7814D01*
X35362Y7820D01*
X35350Y7825D01*
X35339Y7833D01*
X35325Y7840D01*
X35308Y7848D01*
X35288Y7855D01*
X35267Y7862D01*
X35243Y7870D01*
X35219Y7875D01*
X35191Y7881D01*
X35162Y7885D01*
X35130Y7888D01*
X35077D01*
X35062Y7886D01*
X35043D01*
X35023Y7885D01*
X35001Y7883D01*
X34977Y7879D01*
X34925Y7872D01*
X34873Y7859D01*
X34849Y7850D01*
X34827Y7840D01*
X34805Y7829D01*
X34786Y7816D01*
X34784D01*
X34783Y7812D01*
X34771Y7803D01*
X34757Y7789D01*
X34740Y7768D01*
X34723Y7744D01*
X34709Y7716D01*
X34697Y7685D01*
X34696Y7666D01*
X34694Y7650D01*
Y7648D01*
Y7639D01*
X34696Y7627D01*
X34699Y7613D01*
X34703Y7596D01*
X34709Y7577D01*
X34718Y7557D01*
X34731Y7539D01*
X34733Y7537D01*
X34738Y7531D01*
X34747Y7522D01*
X34760Y7509D01*
X34777Y7496D01*
X34799Y7483D01*
X34823Y7468D01*
X34853Y7456D01*
X34855D01*
X34858Y7454D01*
X34864Y7452D01*
X34871Y7450D01*
X34881Y7446D01*
X34892Y7444D01*
X34905Y7439D01*
X34921Y7435D01*
X34942Y7430D01*
X34964Y7422D01*
X34990Y7415D01*
X35019Y7407D01*
X35053Y7398D01*
X35092Y7387D01*
X35132Y7376D01*
X35134D01*
X35136Y7374D01*
X35147Y7372D01*
X35164Y7367D01*
X35186Y7361D01*
X35214Y7354D01*
X35245Y7344D01*
X35280Y7335D01*
X35315Y7324D01*
X35393Y7302D01*
X35471Y7276D01*
X35506Y7265D01*
X35541Y7252D01*
X35571Y7241D01*
X35598Y7230D01*
X35600D01*
X35604Y7228D01*
X35611Y7224D01*
X35621Y7219D01*
X35632Y7213D01*
X35645Y7206D01*
X35674Y7187D01*
X35708Y7163D01*
X35741Y7135D01*
X35774Y7102D01*
X35806Y7063D01*
Y7061D01*
X35809Y7058D01*
X35813Y7052D01*
X35817Y7045D01*
X35824Y7034D01*
X35830Y7021D01*
X35837Y7006D01*
X35844Y6989D01*
X35850Y6971D01*
X35857Y6950D01*
X35870Y6906D01*
X35878Y6854D01*
X35882Y6797D01*
Y6795D01*
Y6789D01*
Y6782D01*
X35880Y6771D01*
Y6756D01*
X35876Y6740D01*
X35874Y6721D01*
X35870Y6701D01*
X35859Y6656D01*
X35843Y6606D01*
X35831Y6580D01*
X35820Y6553D01*
X35806Y6527D01*
X35789Y6501D01*
X35787Y6499D01*
X35785Y6495D01*
X35780Y6488D01*
X35772Y6479D01*
X35763Y6466D01*
X35750Y6453D01*
X35737Y6438D01*
X35721Y6421D01*
X35704Y6405D01*
X35684Y6388D01*
X35661Y6369D01*
X35637Y6351D01*
X35611Y6334D01*
X35584Y6318D01*
X35554Y6301D01*
X35523Y6286D01*
X35521D01*
X35515Y6283D01*
X35506Y6279D01*
X35493Y6275D01*
X35476Y6270D01*
X35456Y6262D01*
X35434Y6255D01*
X35410Y6249D01*
X35382Y6242D01*
X35352Y6234D01*
X35319Y6229D01*
X35286Y6222D01*
X35212Y6214D01*
X35132Y6210D01*
X35116D01*
X35097Y6212D01*
X35073D01*
X35042Y6216D01*
X35008Y6218D01*
X34969Y6223D01*
X34927Y6229D01*
X34883Y6236D01*
X34838Y6247D01*
X34792Y6259D01*
X34746Y6273D01*
X34701Y6290D01*
X34657Y6310D01*
X34616Y6334D01*
X34579Y6360D01*
X34577Y6362D01*
X34572Y6368D01*
X34561Y6377D01*
X34549Y6388D01*
X34535Y6405D01*
X34516Y6423D01*
X34498Y6445D01*
X34479Y6473D01*
X34459Y6503D01*
X34437Y6534D01*
X34418Y6571D01*
X34398Y6612D01*
X34379Y6654D01*
X34365Y6702D01*
X34350Y6752D01*
X34339Y6806D01*
X34649Y6854D01*
Y6852D01*
X34651Y6847D01*
X34653Y6836D01*
X34655Y6823D01*
X34659Y6808D01*
X34664Y6789D01*
X34670Y6769D01*
X34677Y6749D01*
X34696Y6702D01*
X34722Y6654D01*
X34736Y6630D01*
X34753Y6608D01*
X34773Y6588D01*
X34794Y6567D01*
X34795Y6566D01*
X34799Y6564D01*
X34807Y6558D01*
X34816Y6553D01*
X34829Y6545D01*
X34844Y6536D01*
X34860Y6527D01*
X34881Y6519D01*
X34903Y6510D01*
X34929Y6501D01*
X34956Y6492D01*
X34986Y6484D01*
X35019Y6479D01*
X35055Y6473D01*
X35092Y6471D01*
X35130Y6469D01*
X35151D01*
X35166Y6471D01*
X35184D01*
X35204Y6475D01*
X35227Y6477D01*
X35252Y6481D01*
X35304Y6492D01*
X35358Y6506D01*
X35408Y6529D01*
X35432Y6542D01*
X35452Y6556D01*
X35454Y6558D01*
X35456Y6560D01*
X35462Y6566D01*
X35469Y6573D01*
X35486Y6592D01*
X35506Y6616D01*
X35524Y6645D01*
X35541Y6682D01*
X35548Y6701D01*
X35554Y6721D01*
X35556Y6741D01*
X35558Y6763D01*
Y6765D01*
Y6769D01*
Y6775D01*
X35556Y6780D01*
X35552Y6801D01*
X35547Y6825D01*
X35536Y6850D01*
X35519Y6878D01*
X35508Y6891D01*
X35495Y6906D01*
X35480Y6919D01*
X35463Y6930D01*
X35460Y6932D01*
X35456Y6934D01*
X35451Y6937D01*
X35441Y6941D01*
X35430Y6947D01*
X35415Y6952D01*
X35401Y6960D01*
X35380Y6967D01*
X35358Y6974D01*
X35330Y6984D01*
X35301Y6993D01*
X35267Y7002D01*
X35230Y7013D01*
X35188Y7024D01*
X35142Y7035D01*
X35140D01*
X35138Y7037D01*
X35127Y7039D01*
X35108Y7045D01*
X35086Y7050D01*
X35056Y7058D01*
X35025Y7067D01*
X34990Y7076D01*
X34951Y7087D01*
X34871Y7111D01*
X34792Y7137D01*
X34755Y7150D01*
X34720Y7163D01*
X34688Y7176D01*
X34661Y7187D01*
X34659D01*
X34655Y7191D01*
X34648Y7195D01*
X34638Y7198D01*
X34627Y7206D01*
X34614Y7213D01*
X34585Y7233D01*
X34553Y7258D01*
X34520Y7287D01*
X34487Y7322D01*
X34459Y7363D01*
Y7365D01*
X34455Y7368D01*
X34453Y7374D01*
X34448Y7383D01*
X34442Y7393D01*
X34437Y7406D01*
X34431Y7420D01*
X34426Y7437D01*
X34413Y7474D01*
X34402Y7517D01*
X34394Y7563D01*
X34390Y7613D01*
Y7615D01*
Y7618D01*
Y7626D01*
X34392Y7633D01*
Y7644D01*
X34394Y7657D01*
X34398Y7688D01*
X34403Y7724D01*
X34414Y7763D01*
X34427Y7801D01*
X34446Y7842D01*
Y7844D01*
X34448Y7848D01*
X34451Y7853D01*
X34457Y7861D01*
X34470Y7879D01*
X34487Y7903D01*
X34509Y7931D01*
X34536Y7960D01*
X34566Y7990D01*
X34601Y8018D01*
X34605Y8020D01*
X34614Y8027D01*
X34631Y8036D01*
X34655Y8049D01*
X34683Y8064D01*
X34716Y8079D01*
X34757Y8094D01*
X34801Y8108D01*
X34803D01*
X34807Y8110D01*
X34814Y8112D01*
X34823Y8114D01*
X34834Y8118D01*
X34849Y8122D01*
X34866Y8125D01*
X34883Y8129D01*
X34923Y8134D01*
X34969Y8142D01*
X35019Y8145D01*
X35073Y8147D01*
X35110D01*
X35129Y8145D01*
D02*
G37*
G36*
X51743D02*
X51764D01*
X51790Y8142D01*
X51819Y8140D01*
X51853Y8134D01*
X51889Y8129D01*
X51928Y8120D01*
X51967Y8110D01*
X52008Y8097D01*
X52051Y8083D01*
X52091Y8066D01*
X52132Y8044D01*
X52171Y8022D01*
X52208Y7994D01*
X52210Y7992D01*
X52217Y7986D01*
X52226Y7977D01*
X52239Y7966D01*
X52254Y7949D01*
X52272Y7931D01*
X52291Y7909D01*
X52311Y7883D01*
X52332Y7853D01*
X52352Y7820D01*
X52374Y7785D01*
X52393Y7746D01*
X52413Y7705D01*
X52430Y7659D01*
X52445Y7613D01*
X52456Y7561D01*
X52150Y7515D01*
Y7517D01*
X52149Y7522D01*
X52145Y7533D01*
X52141Y7544D01*
X52138Y7561D01*
X52130Y7577D01*
X52123Y7598D01*
X52115Y7618D01*
X52093Y7665D01*
X52065Y7711D01*
X52034Y7755D01*
X52015Y7775D01*
X51995Y7794D01*
X51993Y7796D01*
X51989Y7798D01*
X51984Y7803D01*
X51975Y7809D01*
X51965Y7816D01*
X51952Y7824D01*
X51938Y7833D01*
X51919Y7842D01*
X51880Y7859D01*
X51836Y7874D01*
X51784Y7885D01*
X51756Y7886D01*
X51727Y7888D01*
X51716D01*
X51705Y7886D01*
X51688D01*
X51668Y7883D01*
X51644Y7879D01*
X51618Y7874D01*
X51590Y7868D01*
X51560Y7859D01*
X51529Y7848D01*
X51497Y7833D01*
X51464Y7816D01*
X51433Y7798D01*
X51401Y7774D01*
X51372Y7748D01*
X51342Y7718D01*
X51340Y7716D01*
X51336Y7711D01*
X51329Y7700D01*
X51320Y7687D01*
X51307Y7668D01*
X51296Y7644D01*
X51281Y7618D01*
X51268Y7587D01*
X51255Y7552D01*
X51240Y7513D01*
X51229Y7468D01*
X51218Y7418D01*
X51207Y7367D01*
X51200Y7309D01*
X51196Y7246D01*
X51194Y7180D01*
Y7178D01*
Y7176D01*
Y7171D01*
Y7163D01*
X51196Y7145D01*
Y7119D01*
X51198Y7087D01*
X51201Y7052D01*
X51205Y7013D01*
X51213Y6973D01*
X51220Y6928D01*
X51229Y6884D01*
X51240Y6838D01*
X51255Y6793D01*
X51270Y6751D01*
X51290Y6710D01*
X51310Y6671D01*
X51336Y6638D01*
X51338Y6636D01*
X51344Y6630D01*
X51351Y6623D01*
X51362Y6612D01*
X51377Y6599D01*
X51394Y6584D01*
X51414Y6569D01*
X51436Y6555D01*
X51462Y6538D01*
X51490Y6523D01*
X51521Y6508D01*
X51555Y6495D01*
X51590Y6484D01*
X51627Y6477D01*
X51668Y6471D01*
X51710Y6469D01*
X51729D01*
X51741Y6471D01*
X51756Y6473D01*
X51775Y6475D01*
X51795Y6479D01*
X51817Y6484D01*
X51867Y6497D01*
X51893Y6506D01*
X51919Y6517D01*
X51945Y6531D01*
X51971Y6545D01*
X51995Y6562D01*
X52019Y6582D01*
X52021Y6584D01*
X52025Y6588D01*
X52030Y6595D01*
X52039Y6604D01*
X52049Y6616D01*
X52060Y6630D01*
X52073Y6649D01*
X52086Y6669D01*
X52099Y6691D01*
X52112Y6717D01*
X52125Y6745D01*
X52138Y6778D01*
X52150Y6812D01*
X52160Y6849D01*
X52169Y6889D01*
X52176Y6932D01*
X52485Y6889D01*
Y6886D01*
X52483Y6875D01*
X52480Y6858D01*
X52474Y6836D01*
X52467Y6810D01*
X52457Y6778D01*
X52446Y6745D01*
X52434Y6706D01*
X52417Y6667D01*
X52398Y6627D01*
X52378Y6586D01*
X52354Y6543D01*
X52326Y6503D01*
X52297Y6462D01*
X52261Y6425D01*
X52224Y6390D01*
X52223Y6388D01*
X52215Y6382D01*
X52204Y6373D01*
X52187Y6362D01*
X52167Y6349D01*
X52143Y6333D01*
X52115Y6318D01*
X52082Y6301D01*
X52047Y6283D01*
X52008Y6268D01*
X51965Y6253D01*
X51921Y6238D01*
X51873Y6227D01*
X51821Y6218D01*
X51767Y6212D01*
X51712Y6210D01*
X51695D01*
X51675Y6212D01*
X51649Y6214D01*
X51618Y6218D01*
X51581Y6223D01*
X51538Y6231D01*
X51494Y6242D01*
X51446Y6255D01*
X51396Y6272D01*
X51346Y6292D01*
X51294Y6316D01*
X51244Y6344D01*
X51194Y6377D01*
X51146Y6414D01*
X51101Y6458D01*
X51100Y6462D01*
X51092Y6469D01*
X51079Y6484D01*
X51066Y6505D01*
X51048Y6531D01*
X51027Y6562D01*
X51007Y6599D01*
X50987Y6640D01*
X50965Y6688D01*
X50944Y6741D01*
X50924Y6801D01*
X50907Y6864D01*
X50892Y6932D01*
X50880Y7006D01*
X50872Y7085D01*
X50870Y7171D01*
Y7174D01*
Y7183D01*
Y7200D01*
X50872Y7220D01*
X50874Y7246D01*
X50876Y7278D01*
X50878Y7311D01*
X50883Y7348D01*
X50887Y7389D01*
X50894Y7431D01*
X50911Y7518D01*
X50922Y7565D01*
X50937Y7609D01*
X50952Y7653D01*
X50968Y7696D01*
X50970Y7698D01*
X50974Y7705D01*
X50979Y7718D01*
X50987Y7733D01*
X50998Y7751D01*
X51011Y7774D01*
X51026Y7798D01*
X51044Y7824D01*
X51064Y7850D01*
X51087Y7877D01*
X51111Y7907D01*
X51139Y7935D01*
X51168Y7960D01*
X51200Y7988D01*
X51235Y8012D01*
X51272Y8034D01*
X51274Y8036D01*
X51281Y8040D01*
X51292Y8046D01*
X51307Y8053D01*
X51325Y8060D01*
X51349Y8070D01*
X51375Y8081D01*
X51403Y8092D01*
X51434Y8101D01*
X51470Y8112D01*
X51505Y8122D01*
X51544Y8131D01*
X51584Y8136D01*
X51627Y8142D01*
X51669Y8145D01*
X51714Y8147D01*
X51727D01*
X51743Y8145D01*
D02*
G37*
G36*
X50419Y6251D02*
X50062D01*
Y6608D01*
X50419D01*
Y6251D01*
D02*
G37*
G36*
X43526Y7892D02*
X43528Y7896D01*
X43535Y7903D01*
X43548Y7916D01*
X43565Y7933D01*
X43587Y7951D01*
X43613Y7973D01*
X43644Y7996D01*
X43677Y8020D01*
X43716Y8044D01*
X43759Y8066D01*
X43803Y8088D01*
X43853Y8107D01*
X43905Y8123D01*
X43960Y8136D01*
X44020Y8144D01*
X44081Y8147D01*
X44101D01*
X44116Y8145D01*
X44133D01*
X44153Y8144D01*
X44177Y8140D01*
X44203Y8138D01*
X44258Y8127D01*
X44317Y8112D01*
X44379Y8094D01*
X44408Y8081D01*
X44438Y8066D01*
X44440D01*
X44445Y8062D01*
X44453Y8057D01*
X44464Y8051D01*
X44475Y8042D01*
X44490Y8033D01*
X44523Y8007D01*
X44558Y7975D01*
X44595Y7937D01*
X44628Y7892D01*
X44643Y7866D01*
X44656Y7840D01*
Y7838D01*
X44660Y7833D01*
X44662Y7825D01*
X44667Y7814D01*
X44671Y7800D01*
X44676Y7781D01*
X44684Y7759D01*
X44689Y7735D01*
X44695Y7707D01*
X44702Y7677D01*
X44708Y7642D01*
X44712Y7605D01*
X44717Y7565D01*
X44719Y7522D01*
X44723Y7476D01*
Y7426D01*
Y6251D01*
X44408D01*
Y7426D01*
Y7428D01*
Y7437D01*
Y7448D01*
X44406Y7465D01*
X44405Y7483D01*
X44403Y7505D01*
X44399Y7531D01*
X44395Y7557D01*
X44382Y7613D01*
X44364Y7670D01*
X44353Y7696D01*
X44340Y7722D01*
X44323Y7746D01*
X44305Y7768D01*
X44303Y7770D01*
X44299Y7774D01*
X44293Y7777D01*
X44286Y7785D01*
X44275Y7794D01*
X44262Y7803D01*
X44247Y7812D01*
X44230Y7824D01*
X44210Y7833D01*
X44190Y7842D01*
X44166Y7851D01*
X44140Y7861D01*
X44112Y7868D01*
X44082Y7872D01*
X44049Y7875D01*
X44016Y7877D01*
X44003D01*
X43992Y7875D01*
X43979D01*
X43964Y7874D01*
X43949Y7872D01*
X43931Y7868D01*
X43890Y7859D01*
X43846Y7846D01*
X43798Y7827D01*
X43751Y7803D01*
X43749D01*
X43746Y7800D01*
X43740Y7796D01*
X43731Y7790D01*
X43711Y7774D01*
X43685Y7751D01*
X43655Y7724D01*
X43627Y7690D01*
X43600Y7652D01*
X43578Y7607D01*
Y7605D01*
X43576Y7602D01*
X43572Y7594D01*
X43570Y7585D01*
X43566Y7572D01*
X43561Y7557D01*
X43557Y7539D01*
X43552Y7518D01*
X43546Y7494D01*
X43542Y7468D01*
X43539Y7441D01*
X43533Y7411D01*
X43531Y7378D01*
X43528Y7343D01*
X43526Y7306D01*
Y7265D01*
Y6251D01*
X43211D01*
Y8811D01*
X43526D01*
Y7892D01*
D02*
G37*
G36*
X40077Y8145D02*
X40101Y8144D01*
X40127Y8142D01*
X40155Y8140D01*
X40216Y8133D01*
X40281Y8123D01*
X40344Y8108D01*
X40375Y8099D01*
X40403Y8090D01*
X40405D01*
X40410Y8088D01*
X40418Y8084D01*
X40427Y8081D01*
X40440Y8075D01*
X40453Y8068D01*
X40486Y8051D01*
X40521Y8031D01*
X40558Y8007D01*
X40592Y7981D01*
X40621Y7949D01*
Y7948D01*
X40625Y7946D01*
X40629Y7940D01*
X40632Y7935D01*
X40645Y7916D01*
X40660Y7890D01*
X40677Y7859D01*
X40692Y7824D01*
X40706Y7781D01*
X40719Y7735D01*
Y7731D01*
X40721Y7726D01*
Y7720D01*
X40723Y7711D01*
X40725Y7698D01*
X40727Y7685D01*
X40729Y7668D01*
Y7650D01*
X40730Y7629D01*
X40732Y7605D01*
X40734Y7579D01*
Y7550D01*
X40736Y7518D01*
Y7483D01*
Y7446D01*
Y7028D01*
Y7026D01*
Y7023D01*
Y7017D01*
Y7010D01*
Y6999D01*
Y6987D01*
Y6958D01*
Y6923D01*
X40738Y6884D01*
Y6839D01*
Y6795D01*
X40740Y6701D01*
X40741Y6654D01*
X40743Y6608D01*
X40745Y6567D01*
X40749Y6531D01*
X40751Y6499D01*
X40753Y6484D01*
X40754Y6473D01*
Y6471D01*
X40756Y6468D01*
Y6462D01*
X40758Y6453D01*
X40762Y6443D01*
X40764Y6431D01*
X40773Y6401D01*
X40784Y6368D01*
X40797Y6331D01*
X40815Y6292D01*
X40836Y6251D01*
X40508D01*
Y6253D01*
X40507Y6255D01*
X40503Y6260D01*
X40501Y6268D01*
X40495Y6277D01*
X40492Y6290D01*
X40481Y6316D01*
X40470Y6351D01*
X40458Y6390D01*
X40451Y6432D01*
X40444Y6481D01*
X40442Y6479D01*
X40436Y6473D01*
X40427Y6466D01*
X40414Y6456D01*
X40397Y6443D01*
X40379Y6431D01*
X40358Y6414D01*
X40336Y6397D01*
X40310Y6381D01*
X40284Y6364D01*
X40227Y6329D01*
X40168Y6295D01*
X40137Y6283D01*
X40107Y6270D01*
X40105D01*
X40099Y6268D01*
X40090Y6264D01*
X40079Y6260D01*
X40064Y6257D01*
X40046Y6251D01*
X40025Y6246D01*
X40003Y6240D01*
X39979Y6234D01*
X39952Y6229D01*
X39892Y6220D01*
X39829Y6212D01*
X39761Y6210D01*
X39748D01*
X39731Y6212D01*
X39711D01*
X39685Y6214D01*
X39656Y6218D01*
X39622Y6223D01*
X39587Y6229D01*
X39550Y6236D01*
X39513Y6247D01*
X39472Y6259D01*
X39434Y6273D01*
X39397Y6290D01*
X39358Y6310D01*
X39324Y6333D01*
X39291Y6358D01*
X39289Y6360D01*
X39284Y6366D01*
X39276Y6373D01*
X39265Y6386D01*
X39254Y6401D01*
X39239Y6418D01*
X39224Y6438D01*
X39210Y6462D01*
X39195Y6488D01*
X39180Y6517D01*
X39165Y6549D01*
X39154Y6582D01*
X39143Y6619D01*
X39136Y6656D01*
X39130Y6697D01*
X39128Y6740D01*
Y6741D01*
Y6745D01*
Y6752D01*
X39130Y6763D01*
Y6775D01*
X39132Y6789D01*
X39136Y6823D01*
X39143Y6860D01*
X39154Y6902D01*
X39169Y6945D01*
X39189Y6987D01*
Y6989D01*
X39193Y6993D01*
X39195Y6999D01*
X39200Y7006D01*
X39213Y7026D01*
X39232Y7052D01*
X39256Y7082D01*
X39284Y7111D01*
X39315Y7141D01*
X39350Y7169D01*
X39352D01*
X39356Y7172D01*
X39361Y7176D01*
X39369Y7180D01*
X39378Y7185D01*
X39389Y7193D01*
X39417Y7208D01*
X39450Y7224D01*
X39489Y7241D01*
X39531Y7258D01*
X39578Y7272D01*
X39580D01*
X39582Y7274D01*
X39587D01*
X39595Y7276D01*
X39606Y7278D01*
X39617Y7282D01*
X39632Y7283D01*
X39648Y7287D01*
X39667Y7291D01*
X39687Y7294D01*
X39709Y7298D01*
X39735Y7302D01*
X39763Y7306D01*
X39792Y7311D01*
X39824Y7315D01*
X39857Y7319D01*
X39861D01*
X39866Y7320D01*
X39874D01*
X39894Y7324D01*
X39920Y7326D01*
X39952Y7332D01*
X39987Y7337D01*
X40027Y7343D01*
X40070Y7350D01*
X40114Y7357D01*
X40161Y7365D01*
X40253Y7383D01*
X40299Y7394D01*
X40342Y7406D01*
X40381Y7417D01*
X40418Y7428D01*
Y7431D01*
Y7439D01*
Y7448D01*
X40420Y7461D01*
Y7489D01*
Y7500D01*
Y7509D01*
Y7511D01*
Y7518D01*
Y7528D01*
X40418Y7541D01*
Y7555D01*
X40414Y7574D01*
X40408Y7615D01*
X40397Y7659D01*
X40381Y7705D01*
X40371Y7726D01*
X40358Y7746D01*
X40345Y7763D01*
X40329Y7779D01*
X40327Y7781D01*
X40323Y7785D01*
X40316Y7789D01*
X40307Y7796D01*
X40294Y7803D01*
X40279Y7812D01*
X40260Y7824D01*
X40240Y7833D01*
X40216Y7842D01*
X40188Y7853D01*
X40161Y7862D01*
X40127Y7870D01*
X40092Y7877D01*
X40055Y7883D01*
X40014Y7885D01*
X39972Y7886D01*
X39952D01*
X39935Y7885D01*
X39916D01*
X39896Y7883D01*
X39872Y7879D01*
X39848Y7877D01*
X39794Y7868D01*
X39741Y7853D01*
X39689Y7833D01*
X39665Y7822D01*
X39644Y7807D01*
X39643D01*
X39641Y7803D01*
X39635Y7798D01*
X39628Y7792D01*
X39619Y7783D01*
X39609Y7772D01*
X39598Y7759D01*
X39585Y7744D01*
X39572Y7726D01*
X39559Y7705D01*
X39546Y7683D01*
X39535Y7659D01*
X39522Y7631D01*
X39509Y7602D01*
X39498Y7568D01*
X39489Y7533D01*
X39182Y7576D01*
Y7577D01*
X39184Y7585D01*
X39186Y7594D01*
X39189Y7609D01*
X39195Y7626D01*
X39200Y7644D01*
X39206Y7666D01*
X39215Y7688D01*
X39234Y7740D01*
X39258Y7792D01*
X39285Y7846D01*
X39319Y7894D01*
X39321Y7896D01*
X39323Y7899D01*
X39328Y7905D01*
X39337Y7914D01*
X39347Y7924D01*
X39360Y7937D01*
X39372Y7949D01*
X39389Y7962D01*
X39408Y7977D01*
X39430Y7994D01*
X39452Y8009D01*
X39476Y8023D01*
X39504Y8040D01*
X39531Y8055D01*
X39563Y8068D01*
X39596Y8081D01*
X39598D01*
X39604Y8084D01*
X39615Y8086D01*
X39628Y8092D01*
X39646Y8096D01*
X39667Y8101D01*
X39691Y8108D01*
X39717Y8114D01*
X39746Y8120D01*
X39779Y8127D01*
X39815Y8133D01*
X39852Y8136D01*
X39890Y8142D01*
X39931Y8144D01*
X40018Y8147D01*
X40057D01*
X40077Y8145D01*
D02*
G37*
G36*
X36699Y6251D02*
X36342D01*
Y6608D01*
X36699D01*
Y6251D01*
D02*
G37*
G36*
X28815Y7892D02*
X28816Y7896D01*
X28824Y7903D01*
X28837Y7916D01*
X28853Y7933D01*
X28875Y7951D01*
X28901Y7973D01*
X28933Y7996D01*
X28966Y8020D01*
X29005Y8044D01*
X29048Y8066D01*
X29092Y8088D01*
X29142Y8107D01*
X29194Y8123D01*
X29249Y8136D01*
X29308Y8144D01*
X29370Y8147D01*
X29390D01*
X29405Y8145D01*
X29421D01*
X29442Y8144D01*
X29466Y8140D01*
X29492Y8138D01*
X29547Y8127D01*
X29606Y8112D01*
X29667Y8094D01*
X29697Y8081D01*
X29726Y8066D01*
X29728D01*
X29734Y8062D01*
X29741Y8057D01*
X29752Y8051D01*
X29763Y8042D01*
X29778Y8033D01*
X29812Y8007D01*
X29847Y7975D01*
X29884Y7937D01*
X29917Y7892D01*
X29932Y7866D01*
X29945Y7840D01*
Y7838D01*
X29949Y7833D01*
X29950Y7825D01*
X29956Y7814D01*
X29960Y7800D01*
X29965Y7781D01*
X29973Y7759D01*
X29978Y7735D01*
X29984Y7707D01*
X29991Y7677D01*
X29997Y7642D01*
X30000Y7605D01*
X30006Y7565D01*
X30008Y7522D01*
X30011Y7476D01*
Y7426D01*
Y6251D01*
X29697D01*
Y7426D01*
Y7428D01*
Y7437D01*
Y7448D01*
X29695Y7465D01*
X29693Y7483D01*
X29691Y7505D01*
X29688Y7531D01*
X29684Y7557D01*
X29671Y7613D01*
X29653Y7670D01*
X29641Y7696D01*
X29629Y7722D01*
X29612Y7746D01*
X29593Y7768D01*
X29592Y7770D01*
X29588Y7774D01*
X29582Y7777D01*
X29575Y7785D01*
X29564Y7794D01*
X29551Y7803D01*
X29536Y7812D01*
X29519Y7824D01*
X29499Y7833D01*
X29479Y7842D01*
X29455Y7851D01*
X29429Y7861D01*
X29401Y7868D01*
X29371Y7872D01*
X29338Y7875D01*
X29305Y7877D01*
X29292D01*
X29281Y7875D01*
X29268D01*
X29253Y7874D01*
X29238Y7872D01*
X29220Y7868D01*
X29179Y7859D01*
X29135Y7846D01*
X29087Y7827D01*
X29040Y7803D01*
X29038D01*
X29035Y7800D01*
X29029Y7796D01*
X29020Y7790D01*
X29000Y7774D01*
X28974Y7751D01*
X28944Y7724D01*
X28916Y7690D01*
X28888Y7652D01*
X28866Y7607D01*
Y7605D01*
X28864Y7602D01*
X28861Y7594D01*
X28859Y7585D01*
X28855Y7572D01*
X28850Y7557D01*
X28846Y7539D01*
X28840Y7518D01*
X28835Y7494D01*
X28831Y7468D01*
X28827Y7441D01*
X28822Y7411D01*
X28820Y7378D01*
X28816Y7343D01*
X28815Y7306D01*
Y7265D01*
Y6251D01*
X28500D01*
Y8811D01*
X28815D01*
Y7892D01*
D02*
G37*
G36*
X49351Y8107D02*
X49664D01*
Y7862D01*
X49351D01*
Y6776D01*
Y6775D01*
Y6771D01*
Y6763D01*
Y6754D01*
Y6732D01*
X49353Y6704D01*
X49355Y6677D01*
X49357Y6647D01*
X49361Y6623D01*
X49364Y6614D01*
X49366Y6604D01*
Y6603D01*
X49370Y6599D01*
X49374Y6592D01*
X49379Y6582D01*
X49396Y6562D01*
X49407Y6553D01*
X49420Y6543D01*
X49422D01*
X49427Y6540D01*
X49435Y6536D01*
X49448Y6532D01*
X49462Y6529D01*
X49481Y6525D01*
X49503Y6523D01*
X49527Y6521D01*
X49547D01*
X49564Y6523D01*
X49583D01*
X49607Y6527D01*
X49634Y6529D01*
X49664Y6532D01*
X49710Y6255D01*
X49708D01*
X49705Y6253D01*
X49697D01*
X49688Y6251D01*
X49677Y6249D01*
X49662Y6246D01*
X49631Y6242D01*
X49594Y6236D01*
X49553Y6231D01*
X49512Y6229D01*
X49472Y6227D01*
X49444D01*
X49429Y6229D01*
X49412Y6231D01*
X49375Y6234D01*
X49333Y6240D01*
X49288Y6249D01*
X49246Y6262D01*
X49207Y6281D01*
X49205D01*
X49203Y6283D01*
X49192Y6290D01*
X49176Y6303D01*
X49155Y6318D01*
X49133Y6338D01*
X49111Y6362D01*
X49090Y6390D01*
X49074Y6421D01*
Y6423D01*
X49072Y6425D01*
X49070Y6431D01*
X49068Y6440D01*
X49065Y6451D01*
X49063Y6464D01*
X49059Y6481D01*
X49055Y6501D01*
X49052Y6525D01*
X49048Y6551D01*
X49046Y6582D01*
X49042Y6616D01*
X49041Y6654D01*
X49039Y6695D01*
X49037Y6743D01*
Y6793D01*
Y7862D01*
X48804D01*
Y8107D01*
X49037D01*
Y8565D01*
X49351Y8754D01*
Y8107D01*
D02*
G37*
G36*
X31856D02*
X32168D01*
Y7862D01*
X31856D01*
Y6776D01*
Y6775D01*
Y6771D01*
Y6763D01*
Y6754D01*
Y6732D01*
X31858Y6704D01*
X31860Y6677D01*
X31861Y6647D01*
X31865Y6623D01*
X31869Y6614D01*
X31871Y6604D01*
Y6603D01*
X31874Y6599D01*
X31878Y6592D01*
X31884Y6582D01*
X31900Y6562D01*
X31911Y6553D01*
X31924Y6543D01*
X31926D01*
X31932Y6540D01*
X31939Y6536D01*
X31952Y6532D01*
X31967Y6529D01*
X31985Y6525D01*
X32008Y6523D01*
X32032Y6521D01*
X32052D01*
X32069Y6523D01*
X32087D01*
X32111Y6527D01*
X32139Y6529D01*
X32168Y6532D01*
X32215Y6255D01*
X32213D01*
X32209Y6253D01*
X32202D01*
X32193Y6251D01*
X32182Y6249D01*
X32167Y6246D01*
X32135Y6242D01*
X32098Y6236D01*
X32057Y6231D01*
X32017Y6229D01*
X31976Y6227D01*
X31948D01*
X31934Y6229D01*
X31917Y6231D01*
X31880Y6234D01*
X31837Y6240D01*
X31793Y6249D01*
X31751Y6262D01*
X31712Y6281D01*
X31710D01*
X31708Y6283D01*
X31697Y6290D01*
X31680Y6303D01*
X31660Y6318D01*
X31638Y6338D01*
X31615Y6362D01*
X31595Y6390D01*
X31578Y6421D01*
Y6423D01*
X31576Y6425D01*
X31575Y6431D01*
X31573Y6440D01*
X31569Y6451D01*
X31567Y6464D01*
X31564Y6481D01*
X31560Y6501D01*
X31556Y6525D01*
X31552Y6551D01*
X31551Y6582D01*
X31547Y6616D01*
X31545Y6654D01*
X31543Y6695D01*
X31541Y6743D01*
Y6793D01*
Y7862D01*
X31308D01*
Y8107D01*
X31541D01*
Y8565D01*
X31856Y8754D01*
Y8107D01*
D02*
G37*
G36*
X30863D02*
X31175D01*
Y7862D01*
X30863D01*
Y6776D01*
Y6775D01*
Y6771D01*
Y6763D01*
Y6754D01*
Y6732D01*
X30864Y6704D01*
X30866Y6677D01*
X30868Y6647D01*
X30872Y6623D01*
X30875Y6614D01*
X30877Y6604D01*
Y6603D01*
X30881Y6599D01*
X30885Y6592D01*
X30890Y6582D01*
X30907Y6562D01*
X30918Y6553D01*
X30931Y6543D01*
X30933D01*
X30938Y6540D01*
X30946Y6536D01*
X30959Y6532D01*
X30974Y6529D01*
X30992Y6525D01*
X31014Y6523D01*
X31038Y6521D01*
X31059D01*
X31075Y6523D01*
X31094D01*
X31118Y6527D01*
X31146Y6529D01*
X31175Y6532D01*
X31221Y6255D01*
X31220D01*
X31216Y6253D01*
X31208D01*
X31199Y6251D01*
X31188Y6249D01*
X31173Y6246D01*
X31142Y6242D01*
X31105Y6236D01*
X31064Y6231D01*
X31023Y6229D01*
X30983Y6227D01*
X30955D01*
X30940Y6229D01*
X30924Y6231D01*
X30887Y6234D01*
X30844Y6240D01*
X30799Y6249D01*
X30757Y6262D01*
X30718Y6281D01*
X30716D01*
X30714Y6283D01*
X30703Y6290D01*
X30687Y6303D01*
X30666Y6318D01*
X30644Y6338D01*
X30622Y6362D01*
X30602Y6390D01*
X30585Y6421D01*
Y6423D01*
X30583Y6425D01*
X30581Y6431D01*
X30579Y6440D01*
X30576Y6451D01*
X30574Y6464D01*
X30570Y6481D01*
X30566Y6501D01*
X30563Y6525D01*
X30559Y6551D01*
X30557Y6582D01*
X30553Y6616D01*
X30552Y6654D01*
X30550Y6695D01*
X30548Y6743D01*
Y6793D01*
Y7862D01*
X30315D01*
Y8107D01*
X30548D01*
Y8565D01*
X30863Y8754D01*
Y8107D01*
D02*
G37*
G36*
X45988Y8145D02*
X46014Y8144D01*
X46047Y8140D01*
X46084Y8134D01*
X46127Y8127D01*
X46173Y8116D01*
X46221Y8103D01*
X46273Y8086D01*
X46325Y8066D01*
X46376Y8042D01*
X46428Y8012D01*
X46480Y7979D01*
X46530Y7940D01*
X46576Y7896D01*
X46580Y7892D01*
X46587Y7885D01*
X46599Y7870D01*
X46615Y7850D01*
X46634Y7824D01*
X46654Y7794D01*
X46676Y7757D01*
X46698Y7716D01*
X46721Y7668D01*
X46743Y7616D01*
X46763Y7561D01*
X46782Y7498D01*
X46798Y7431D01*
X46809Y7361D01*
X46819Y7285D01*
X46821Y7204D01*
Y7202D01*
Y7200D01*
Y7195D01*
Y7189D01*
Y7169D01*
X46819Y7145D01*
X46817Y7115D01*
X46815Y7080D01*
X46811Y7041D01*
X46808Y7000D01*
X46802Y6956D01*
X46795Y6910D01*
X46785Y6864D01*
X46774Y6815D01*
X46761Y6769D01*
X46748Y6725D01*
X46730Y6682D01*
X46711Y6641D01*
X46710Y6640D01*
X46706Y6632D01*
X46700Y6621D01*
X46691Y6608D01*
X46680Y6590D01*
X46667Y6571D01*
X46650Y6549D01*
X46632Y6525D01*
X46611Y6499D01*
X46587Y6473D01*
X46562Y6447D01*
X46534Y6421D01*
X46504Y6395D01*
X46471Y6369D01*
X46436Y6346D01*
X46399Y6323D01*
X46397Y6321D01*
X46389Y6318D01*
X46378Y6312D01*
X46364Y6307D01*
X46343Y6297D01*
X46321Y6288D01*
X46295Y6277D01*
X46267Y6268D01*
X46234Y6257D01*
X46201Y6246D01*
X46164Y6236D01*
X46125Y6229D01*
X46082Y6222D01*
X46040Y6216D01*
X45997Y6212D01*
X45951Y6210D01*
X45934D01*
X45925Y6212D01*
X45914D01*
X45886Y6214D01*
X45853Y6218D01*
X45816Y6223D01*
X45774Y6231D01*
X45727Y6242D01*
X45677Y6255D01*
X45627Y6272D01*
X45574Y6292D01*
X45522Y6316D01*
X45470Y6344D01*
X45418Y6377D01*
X45368Y6414D01*
X45322Y6458D01*
X45320Y6462D01*
X45311Y6469D01*
X45300Y6484D01*
X45285Y6505D01*
X45267Y6531D01*
X45246Y6562D01*
X45226Y6599D01*
X45204Y6641D01*
X45182Y6690D01*
X45159Y6743D01*
X45139Y6802D01*
X45120Y6867D01*
X45106Y6937D01*
X45094Y7012D01*
X45085Y7093D01*
X45083Y7178D01*
Y7180D01*
Y7183D01*
Y7191D01*
Y7200D01*
X45085Y7213D01*
Y7228D01*
X45087Y7244D01*
Y7263D01*
X45089Y7283D01*
X45093Y7306D01*
X45098Y7354D01*
X45107Y7407D01*
X45118Y7467D01*
X45133Y7528D01*
X45154Y7591D01*
X45176Y7653D01*
X45204Y7716D01*
X45237Y7777D01*
X45274Y7836D01*
X45318Y7890D01*
X45368Y7940D01*
X45372Y7942D01*
X45379Y7949D01*
X45392Y7959D01*
X45411Y7973D01*
X45435Y7988D01*
X45463Y8005D01*
X45494Y8025D01*
X45531Y8044D01*
X45572Y8062D01*
X45616Y8083D01*
X45664Y8099D01*
X45716Y8116D01*
X45770Y8129D01*
X45827Y8138D01*
X45888Y8145D01*
X45951Y8147D01*
X45977D01*
X45988Y8145D01*
D02*
G37*
G36*
X38257Y6207D02*
X38005D01*
X38747Y8854D01*
X38999D01*
X38257Y6207D01*
D02*
G37*
G36*
X37264D02*
X37012D01*
X37754Y8854D01*
X38005D01*
X37264Y6207D01*
D02*
G37*
G36*
X41935Y8145D02*
X41959Y8144D01*
X41987Y8140D01*
X42018Y8133D01*
X42055Y8125D01*
X42094Y8114D01*
X42136Y8101D01*
X42181Y8083D01*
X42225Y8062D01*
X42271Y8036D01*
X42316Y8005D01*
X42360Y7970D01*
X42405Y7929D01*
X42445Y7883D01*
Y8107D01*
X42736D01*
Y6503D01*
Y6501D01*
Y6497D01*
Y6492D01*
Y6484D01*
Y6473D01*
Y6462D01*
X42734Y6432D01*
Y6397D01*
X42732Y6357D01*
X42728Y6312D01*
X42725Y6264D01*
X42719Y6216D01*
X42713Y6164D01*
X42706Y6114D01*
X42699Y6064D01*
X42688Y6016D01*
X42676Y5970D01*
X42662Y5929D01*
X42647Y5892D01*
X42645Y5890D01*
X42643Y5885D01*
X42638Y5875D01*
X42630Y5863D01*
X42621Y5848D01*
X42608Y5829D01*
X42595Y5809D01*
X42579Y5789D01*
X42560Y5766D01*
X42540Y5742D01*
X42518Y5718D01*
X42492Y5694D01*
X42464Y5672D01*
X42434Y5648D01*
X42403Y5626D01*
X42368Y5605D01*
X42366Y5604D01*
X42358Y5602D01*
X42349Y5596D01*
X42334Y5589D01*
X42316Y5581D01*
X42292Y5572D01*
X42266Y5563D01*
X42238Y5554D01*
X42205Y5542D01*
X42170Y5533D01*
X42131Y5524D01*
X42088Y5517D01*
X42046Y5509D01*
X41998Y5504D01*
X41949Y5502D01*
X41898Y5500D01*
X41883D01*
X41866Y5502D01*
X41842D01*
X41814Y5506D01*
X41783Y5507D01*
X41746Y5513D01*
X41707Y5519D01*
X41665Y5526D01*
X41622Y5537D01*
X41576Y5548D01*
X41531Y5563D01*
X41487Y5579D01*
X41443Y5600D01*
X41402Y5624D01*
X41361Y5650D01*
X41359Y5652D01*
X41352Y5657D01*
X41343Y5666D01*
X41330Y5678D01*
X41315Y5694D01*
X41296Y5713D01*
X41280Y5737D01*
X41261Y5763D01*
X41241Y5792D01*
X41224Y5826D01*
X41208Y5863D01*
X41193Y5903D01*
X41180Y5946D01*
X41171Y5994D01*
X41167Y6046D01*
X41165Y6099D01*
X41470Y6053D01*
Y6051D01*
X41472Y6048D01*
Y6040D01*
X41474Y6031D01*
X41478Y6018D01*
X41482Y6005D01*
X41491Y5976D01*
X41504Y5942D01*
X41522Y5909D01*
X41546Y5877D01*
X41576Y5850D01*
X41578Y5848D01*
X41581Y5846D01*
X41589Y5842D01*
X41598Y5837D01*
X41609Y5829D01*
X41624Y5822D01*
X41641Y5815D01*
X41659Y5805D01*
X41681Y5798D01*
X41705Y5789D01*
X41731Y5781D01*
X41761Y5776D01*
X41790Y5768D01*
X41824Y5765D01*
X41859Y5763D01*
X41896Y5761D01*
X41916D01*
X41931Y5763D01*
X41949D01*
X41972Y5766D01*
X41994Y5768D01*
X42020Y5772D01*
X42074Y5783D01*
X42131Y5798D01*
X42184Y5820D01*
X42208Y5835D01*
X42232Y5850D01*
X42234Y5852D01*
X42238Y5853D01*
X42244Y5859D01*
X42251Y5866D01*
X42262Y5874D01*
X42271Y5885D01*
X42284Y5898D01*
X42297Y5913D01*
X42323Y5948D01*
X42351Y5988D01*
X42375Y6036D01*
X42393Y6092D01*
Y6094D01*
X42395Y6098D01*
Y6103D01*
X42397Y6112D01*
X42399Y6123D01*
X42401Y6138D01*
X42403Y6157D01*
X42405Y6179D01*
X42408Y6203D01*
X42410Y6233D01*
X42412Y6266D01*
X42414Y6303D01*
Y6344D01*
X42416Y6388D01*
Y6438D01*
Y6493D01*
X42414Y6492D01*
X42406Y6482D01*
X42395Y6471D01*
X42379Y6456D01*
X42358Y6438D01*
X42334Y6418D01*
X42307Y6395D01*
X42275Y6373D01*
X42240Y6349D01*
X42201Y6327D01*
X42159Y6307D01*
X42112Y6290D01*
X42064Y6273D01*
X42014Y6262D01*
X41959Y6255D01*
X41903Y6251D01*
X41887D01*
X41866Y6253D01*
X41840Y6255D01*
X41809Y6260D01*
X41772Y6266D01*
X41729Y6275D01*
X41685Y6286D01*
X41639Y6301D01*
X41591Y6318D01*
X41541Y6340D01*
X41493Y6368D01*
X41445Y6399D01*
X41396Y6436D01*
X41352Y6479D01*
X41311Y6527D01*
X41309Y6531D01*
X41302Y6540D01*
X41293Y6555D01*
X41278Y6577D01*
X41263Y6603D01*
X41245Y6634D01*
X41226Y6671D01*
X41208Y6714D01*
X41187Y6758D01*
X41169Y6810D01*
X41150Y6864D01*
X41135Y6923D01*
X41121Y6984D01*
X41111Y7048D01*
X41104Y7117D01*
X41102Y7187D01*
Y7191D01*
Y7198D01*
Y7213D01*
X41104Y7232D01*
X41106Y7256D01*
X41108Y7283D01*
X41110Y7315D01*
X41113Y7348D01*
X41119Y7385D01*
X41124Y7424D01*
X41143Y7507D01*
X41152Y7550D01*
X41165Y7592D01*
X41180Y7635D01*
X41197Y7677D01*
X41198Y7679D01*
X41200Y7687D01*
X41206Y7700D01*
X41215Y7714D01*
X41224Y7733D01*
X41237Y7755D01*
X41250Y7779D01*
X41267Y7805D01*
X41287Y7833D01*
X41308Y7861D01*
X41330Y7888D01*
X41356Y7918D01*
X41381Y7946D01*
X41411Y7973D01*
X41443Y7999D01*
X41476Y8023D01*
X41478Y8025D01*
X41485Y8029D01*
X41494Y8034D01*
X41509Y8044D01*
X41526Y8053D01*
X41546Y8062D01*
X41570Y8073D01*
X41598Y8086D01*
X41628Y8097D01*
X41661Y8108D01*
X41696Y8118D01*
X41733Y8129D01*
X41774Y8136D01*
X41814Y8142D01*
X41859Y8145D01*
X41903Y8147D01*
X41918D01*
X41935Y8145D01*
D02*
G37*
G36*
X49507Y56649D02*
X49534Y56647D01*
X49567Y56646D01*
X49604Y56640D01*
X49647Y56634D01*
X49695Y56627D01*
X49745Y56616D01*
X49797Y56603D01*
X49850Y56588D01*
X49904Y56568D01*
X49958Y56546D01*
X50013Y56520D01*
X50065Y56490D01*
X50115Y56455D01*
X50119Y56453D01*
X50126Y56446D01*
X50141Y56435D01*
X50158Y56418D01*
X50180Y56400D01*
X50204Y56374D01*
X50230Y56346D01*
X50259Y56313D01*
X50289Y56275D01*
X50320Y56235D01*
X50350Y56188D01*
X50380Y56140D01*
X50409Y56087D01*
X50435Y56029D01*
X50461Y55968D01*
X50481Y55904D01*
X50148Y55826D01*
X50147Y55830D01*
X50145Y55839D01*
X50139Y55852D01*
X50132Y55872D01*
X50122Y55894D01*
X50111Y55920D01*
X50097Y55950D01*
X50082Y55981D01*
X50065Y56015D01*
X50045Y56048D01*
X50024Y56081D01*
X50000Y56116D01*
X49975Y56148D01*
X49949Y56179D01*
X49919Y56207D01*
X49887Y56233D01*
X49886Y56235D01*
X49880Y56239D01*
X49871Y56244D01*
X49858Y56253D01*
X49841Y56262D01*
X49821Y56274D01*
X49797Y56285D01*
X49771Y56298D01*
X49741Y56309D01*
X49710Y56320D01*
X49675Y56331D01*
X49638Y56340D01*
X49597Y56349D01*
X49555Y56355D01*
X49510Y56359D01*
X49462Y56361D01*
X49434D01*
X49414Y56359D01*
X49388Y56357D01*
X49358Y56353D01*
X49325Y56349D01*
X49290Y56342D01*
X49251Y56335D01*
X49212Y56326D01*
X49172Y56314D01*
X49129Y56301D01*
X49088Y56285D01*
X49048Y56264D01*
X49007Y56244D01*
X48968Y56218D01*
X48966Y56216D01*
X48959Y56213D01*
X48950Y56203D01*
X48937Y56192D01*
X48920Y56177D01*
X48902Y56161D01*
X48881Y56140D01*
X48859Y56118D01*
X48837Y56092D01*
X48813Y56065D01*
X48790Y56033D01*
X48768Y55998D01*
X48746Y55963D01*
X48726Y55924D01*
X48707Y55883D01*
X48691Y55839D01*
Y55837D01*
X48687Y55828D01*
X48683Y55815D01*
X48678Y55798D01*
X48672Y55776D01*
X48665Y55750D01*
X48659Y55721D01*
X48652Y55687D01*
X48644Y55652D01*
X48637Y55613D01*
X48630Y55572D01*
X48624Y55530D01*
X48615Y55441D01*
X48613Y55395D01*
X48611Y55347D01*
Y55343D01*
Y55332D01*
Y55315D01*
X48613Y55291D01*
X48615Y55264D01*
X48617Y55230D01*
X48619Y55193D01*
X48622Y55154D01*
X48628Y55110D01*
X48633Y55064D01*
X48652Y54969D01*
X48661Y54919D01*
X48674Y54871D01*
X48689Y54823D01*
X48705Y54777D01*
X48707Y54775D01*
X48709Y54766D01*
X48715Y54755D01*
X48724Y54738D01*
X48733Y54718D01*
X48746Y54694D01*
X48761Y54668D01*
X48778Y54640D01*
X48798Y54612D01*
X48820Y54583D01*
X48844Y54551D01*
X48870Y54522D01*
X48900Y54492D01*
X48931Y54464D01*
X48964Y54439D01*
X49001Y54414D01*
X49003Y54413D01*
X49011Y54409D01*
X49022Y54403D01*
X49036Y54396D01*
X49055Y54387D01*
X49077Y54375D01*
X49103Y54366D01*
X49131Y54355D01*
X49162Y54342D01*
X49196Y54333D01*
X49233Y54322D01*
X49270Y54313D01*
X49310Y54305D01*
X49351Y54300D01*
X49394Y54296D01*
X49436Y54294D01*
X49449D01*
X49464Y54296D01*
X49484D01*
X49508Y54300D01*
X49536Y54303D01*
X49569Y54307D01*
X49603Y54315D01*
X49640Y54324D01*
X49679Y54335D01*
X49719Y54348D01*
X49760Y54363D01*
X49801Y54381D01*
X49841Y54403D01*
X49880Y54429D01*
X49919Y54457D01*
X49921Y54459D01*
X49928Y54464D01*
X49937Y54474D01*
X49951Y54488D01*
X49967Y54505D01*
X49986Y54525D01*
X50006Y54551D01*
X50026Y54579D01*
X50049Y54612D01*
X50071Y54647D01*
X50095Y54688D01*
X50115Y54733D01*
X50137Y54779D01*
X50156Y54831D01*
X50172Y54884D01*
X50187Y54944D01*
X50526Y54858D01*
Y54857D01*
X50524Y54853D01*
X50522Y54847D01*
X50520Y54840D01*
X50518Y54831D01*
X50515Y54818D01*
X50506Y54790D01*
X50493Y54755D01*
X50478Y54716D01*
X50459Y54672D01*
X50437Y54624D01*
X50413Y54572D01*
X50385Y54520D01*
X50354Y54468D01*
X50319Y54414D01*
X50280Y54363D01*
X50237Y54313D01*
X50191Y54266D01*
X50141Y54222D01*
X50137Y54220D01*
X50128Y54213D01*
X50113Y54202D01*
X50091Y54189D01*
X50065Y54172D01*
X50032Y54154D01*
X49995Y54133D01*
X49952Y54113D01*
X49906Y54093D01*
X49854Y54072D01*
X49799Y54054D01*
X49740Y54037D01*
X49675Y54024D01*
X49608Y54013D01*
X49538Y54006D01*
X49464Y54004D01*
X49436D01*
X49423Y54006D01*
X49395D01*
X49360Y54009D01*
X49320Y54013D01*
X49273Y54018D01*
X49225Y54024D01*
X49172Y54033D01*
X49118Y54044D01*
X49061Y54059D01*
X49005Y54074D01*
X48950Y54094D01*
X48894Y54116D01*
X48840Y54142D01*
X48790Y54172D01*
X48787Y54174D01*
X48779Y54179D01*
X48766Y54190D01*
X48748Y54203D01*
X48726Y54220D01*
X48702Y54242D01*
X48674Y54266D01*
X48644Y54296D01*
X48613Y54329D01*
X48581Y54364D01*
X48548Y54405D01*
X48515Y54448D01*
X48483Y54496D01*
X48452Y54546D01*
X48422Y54601D01*
X48396Y54659D01*
Y54660D01*
X48395Y54662D01*
X48391Y54673D01*
X48384Y54690D01*
X48376Y54714D01*
X48365Y54744D01*
X48354Y54779D01*
X48341Y54820D01*
X48330Y54864D01*
X48317Y54914D01*
X48304Y54968D01*
X48293Y55023D01*
X48282Y55084D01*
X48274Y55145D01*
X48267Y55210D01*
X48263Y55277D01*
X48261Y55345D01*
Y55347D01*
Y55351D01*
Y55356D01*
Y55364D01*
Y55373D01*
X48263Y55384D01*
Y55411D01*
X48267Y55447D01*
X48269Y55487D01*
X48274Y55534D01*
X48280Y55584D01*
X48289Y55635D01*
X48298Y55691D01*
X48311Y55750D01*
X48326Y55809D01*
X48343Y55869D01*
X48363Y55928D01*
X48387Y55985D01*
X48413Y56042D01*
X48415Y56046D01*
X48421Y56055D01*
X48430Y56070D01*
X48441Y56092D01*
X48458Y56116D01*
X48476Y56144D01*
X48500Y56177D01*
X48526Y56211D01*
X48554Y56246D01*
X48587Y56285D01*
X48622Y56322D01*
X48661Y56359D01*
X48704Y56396D01*
X48748Y56431D01*
X48796Y56464D01*
X48848Y56496D01*
X48851Y56498D01*
X48861Y56503D01*
X48876Y56511D01*
X48898Y56520D01*
X48924Y56533D01*
X48955Y56546D01*
X48992Y56559D01*
X49031Y56573D01*
X49075Y56588D01*
X49123Y56601D01*
X49175Y56616D01*
X49229Y56627D01*
X49286Y56636D01*
X49345Y56644D01*
X49406Y56649D01*
X49470Y56651D01*
X49495D01*
X49507Y56649D01*
D02*
G37*
G36*
X54037Y56614D02*
X54056D01*
X54078Y56610D01*
X54102Y56608D01*
X54128Y56605D01*
X54157Y56599D01*
X54187Y56594D01*
X54252Y56577D01*
X54287Y56568D01*
X54320Y56555D01*
X54353Y56542D01*
X54387Y56525D01*
X54389Y56523D01*
X54394Y56522D01*
X54403Y56516D01*
X54416Y56509D01*
X54431Y56499D01*
X54448Y56488D01*
X54466Y56475D01*
X54487Y56460D01*
X54531Y56425D01*
X54576Y56383D01*
X54618Y56335D01*
X54638Y56307D01*
X54657Y56279D01*
X54659Y56277D01*
X54661Y56272D01*
X54666Y56264D01*
X54672Y56251D01*
X54679Y56239D01*
X54686Y56220D01*
X54696Y56201D01*
X54705Y56179D01*
X54712Y56155D01*
X54722Y56131D01*
X54736Y56076D01*
X54747Y56015D01*
X54749Y55983D01*
X54751Y55950D01*
Y55948D01*
Y55942D01*
Y55933D01*
X54749Y55922D01*
Y55907D01*
X54746Y55891D01*
X54744Y55870D01*
X54740Y55850D01*
X54729Y55802D01*
X54712Y55752D01*
X54703Y55726D01*
X54690Y55698D01*
X54677Y55672D01*
X54661Y55647D01*
X54659Y55645D01*
X54657Y55641D01*
X54651Y55634D01*
X54644Y55624D01*
X54635Y55613D01*
X54624Y55600D01*
X54611Y55585D01*
X54594Y55569D01*
X54577Y55552D01*
X54557Y55536D01*
X54537Y55517D01*
X54513Y55498D01*
X54487Y55482D01*
X54459Y55463D01*
X54429Y55447D01*
X54398Y55432D01*
X54400D01*
X54407Y55430D01*
X54420Y55426D01*
X54435Y55421D01*
X54455Y55415D01*
X54477Y55406D01*
X54501Y55397D01*
X54527Y55384D01*
X54555Y55371D01*
X54585Y55354D01*
X54614Y55338D01*
X54644Y55317D01*
X54672Y55295D01*
X54699Y55271D01*
X54727Y55243D01*
X54751Y55214D01*
X54753Y55212D01*
X54757Y55206D01*
X54762Y55197D01*
X54772Y55184D01*
X54781Y55167D01*
X54792Y55149D01*
X54803Y55127D01*
X54814Y55101D01*
X54825Y55071D01*
X54838Y55040D01*
X54847Y55006D01*
X54857Y54969D01*
X54866Y54931D01*
X54871Y54890D01*
X54875Y54847D01*
X54877Y54801D01*
Y54797D01*
Y54786D01*
X54875Y54768D01*
X54873Y54746D01*
X54870Y54716D01*
X54864Y54683D01*
X54857Y54646D01*
X54846Y54605D01*
X54833Y54561D01*
X54818Y54516D01*
X54798Y54468D01*
X54773Y54420D01*
X54746Y54372D01*
X54712Y54324D01*
X54673Y54277D01*
X54631Y54233D01*
X54627Y54231D01*
X54620Y54224D01*
X54607Y54211D01*
X54586Y54196D01*
X54562Y54179D01*
X54535Y54159D01*
X54500Y54139D01*
X54463Y54116D01*
X54420Y54094D01*
X54372Y54074D01*
X54322Y54054D01*
X54267Y54037D01*
X54209Y54022D01*
X54146Y54009D01*
X54081Y54002D01*
X54013Y54000D01*
X53998D01*
X53980Y54002D01*
X53958Y54004D01*
X53928Y54006D01*
X53895Y54011D01*
X53858Y54017D01*
X53817Y54026D01*
X53774Y54035D01*
X53728Y54048D01*
X53682Y54065D01*
X53634Y54085D01*
X53588Y54107D01*
X53541Y54133D01*
X53495Y54165D01*
X53452Y54200D01*
X53451Y54202D01*
X53443Y54209D01*
X53432Y54220D01*
X53417Y54237D01*
X53401Y54257D01*
X53380Y54281D01*
X53360Y54309D01*
X53338Y54340D01*
X53316Y54375D01*
X53293Y54416D01*
X53273Y54459D01*
X53253Y54505D01*
X53236Y54555D01*
X53219Y54607D01*
X53208Y54662D01*
X53201Y54721D01*
X53515Y54764D01*
Y54760D01*
X53517Y54753D01*
X53521Y54738D01*
X53527Y54720D01*
X53532Y54698D01*
X53539Y54673D01*
X53549Y54646D01*
X53558Y54616D01*
X53584Y54551D01*
X53615Y54488D01*
X53634Y54457D01*
X53654Y54427D01*
X53675Y54401D01*
X53699Y54377D01*
X53700Y54375D01*
X53704Y54372D01*
X53711Y54366D01*
X53723Y54359D01*
X53734Y54350D01*
X53750Y54340D01*
X53767Y54329D01*
X53787Y54320D01*
X53810Y54309D01*
X53834Y54298D01*
X53860Y54289D01*
X53887Y54279D01*
X53917Y54272D01*
X53948Y54266D01*
X53980Y54263D01*
X54015Y54261D01*
X54024D01*
X54037Y54263D01*
X54052D01*
X54072Y54266D01*
X54094Y54268D01*
X54119Y54274D01*
X54146Y54279D01*
X54174Y54289D01*
X54205Y54298D01*
X54237Y54311D01*
X54268Y54326D01*
X54300Y54344D01*
X54331Y54364D01*
X54361Y54387D01*
X54390Y54414D01*
X54392Y54416D01*
X54398Y54422D01*
X54405Y54429D01*
X54414Y54442D01*
X54426Y54457D01*
X54439Y54475D01*
X54453Y54496D01*
X54468Y54520D01*
X54481Y54546D01*
X54496Y54575D01*
X54509Y54605D01*
X54520Y54640D01*
X54529Y54675D01*
X54537Y54712D01*
X54542Y54753D01*
X54544Y54794D01*
Y54795D01*
Y54803D01*
Y54814D01*
X54542Y54831D01*
X54540Y54847D01*
X54537Y54870D01*
X54533Y54894D01*
X54526Y54919D01*
X54518Y54947D01*
X54509Y54977D01*
X54498Y55006D01*
X54485Y55036D01*
X54468Y55066D01*
X54448Y55095D01*
X54427Y55123D01*
X54401Y55151D01*
X54400Y55152D01*
X54396Y55156D01*
X54387Y55164D01*
X54376Y55173D01*
X54363Y55184D01*
X54346Y55195D01*
X54326Y55208D01*
X54303Y55221D01*
X54279Y55234D01*
X54252Y55247D01*
X54222Y55258D01*
X54191Y55269D01*
X54157Y55278D01*
X54120Y55286D01*
X54083Y55289D01*
X54043Y55291D01*
X54026D01*
X54008Y55289D01*
X53982Y55288D01*
X53948Y55284D01*
X53911Y55277D01*
X53869Y55269D01*
X53821Y55258D01*
X53856Y55534D01*
X53861D01*
X53867Y55532D01*
X53874D01*
X53891Y55530D01*
X53926D01*
X53939Y55532D01*
X53958Y55534D01*
X53978Y55536D01*
X54000Y55539D01*
X54026Y55543D01*
X54054Y55549D01*
X54081Y55556D01*
X54143Y55574D01*
X54174Y55585D01*
X54205Y55600D01*
X54237Y55615D01*
X54267Y55634D01*
X54268Y55635D01*
X54274Y55639D01*
X54281Y55645D01*
X54292Y55654D01*
X54303Y55665D01*
X54318Y55678D01*
X54331Y55695D01*
X54348Y55713D01*
X54363Y55735D01*
X54378Y55759D01*
X54390Y55785D01*
X54401Y55815D01*
X54413Y55846D01*
X54420Y55881D01*
X54426Y55918D01*
X54427Y55957D01*
Y55959D01*
Y55965D01*
Y55974D01*
X54426Y55987D01*
X54424Y56000D01*
X54422Y56018D01*
X54418Y56037D01*
X54413Y56057D01*
X54398Y56102D01*
X54389Y56126D01*
X54378Y56150D01*
X54365Y56174D01*
X54348Y56198D01*
X54329Y56220D01*
X54309Y56242D01*
X54307Y56244D01*
X54303Y56248D01*
X54298Y56253D01*
X54289Y56261D01*
X54276Y56268D01*
X54263Y56279D01*
X54246Y56288D01*
X54228Y56300D01*
X54207Y56311D01*
X54185Y56320D01*
X54159Y56331D01*
X54133Y56338D01*
X54104Y56346D01*
X54074Y56351D01*
X54041Y56355D01*
X54008Y56357D01*
X53989D01*
X53978Y56355D01*
X53961Y56353D01*
X53943Y56351D01*
X53922Y56348D01*
X53900Y56342D01*
X53852Y56329D01*
X53828Y56320D01*
X53802Y56307D01*
X53776Y56294D01*
X53750Y56279D01*
X53726Y56261D01*
X53702Y56240D01*
X53700Y56239D01*
X53697Y56235D01*
X53691Y56227D01*
X53682Y56218D01*
X53673Y56207D01*
X53662Y56192D01*
X53650Y56174D01*
X53637Y56155D01*
X53624Y56131D01*
X53612Y56105D01*
X53597Y56077D01*
X53586Y56046D01*
X53573Y56013D01*
X53563Y55978D01*
X53554Y55939D01*
X53547Y55896D01*
X53232Y55952D01*
Y55954D01*
Y55955D01*
X53236Y55967D01*
X53240Y55981D01*
X53245Y56003D01*
X53253Y56031D01*
X53262Y56061D01*
X53273Y56094D01*
X53286Y56131D01*
X53303Y56170D01*
X53321Y56211D01*
X53343Y56251D01*
X53367Y56292D01*
X53393Y56333D01*
X53423Y56372D01*
X53456Y56409D01*
X53493Y56442D01*
X53495Y56444D01*
X53502Y56449D01*
X53513Y56459D01*
X53530Y56470D01*
X53550Y56483D01*
X53575Y56498D01*
X53602Y56512D01*
X53634Y56529D01*
X53669Y56546D01*
X53708Y56560D01*
X53749Y56575D01*
X53793Y56588D01*
X53841Y56599D01*
X53893Y56608D01*
X53947Y56614D01*
X54002Y56616D01*
X54022D01*
X54037Y56614D01*
D02*
G37*
G36*
X51923Y55567D02*
X53045Y54046D01*
X52598D01*
X51686Y55338D01*
X51268Y54934D01*
Y54046D01*
X50929D01*
Y56607D01*
X51268D01*
Y55336D01*
X52539Y56607D01*
X52999D01*
X51923Y55567D01*
D02*
G37*
G36*
X57430Y54046D02*
X57045D01*
X56749Y54821D01*
X55674D01*
X55395Y54046D01*
X55038D01*
X56020Y56607D01*
X56383D01*
X57430Y54046D01*
D02*
G37*
G36*
X44190Y56605D02*
X44219D01*
X44252Y56603D01*
X44288Y56601D01*
X44328Y56597D01*
X44369Y56594D01*
X44412Y56590D01*
X44499Y56577D01*
X44539Y56570D01*
X44580Y56560D01*
X44619Y56549D01*
X44654Y56536D01*
X44656D01*
X44661Y56533D01*
X44671Y56529D01*
X44684Y56523D01*
X44698Y56516D01*
X44715Y56505D01*
X44735Y56494D01*
X44756Y56481D01*
X44778Y56464D01*
X44802Y56448D01*
X44826Y56427D01*
X44850Y56405D01*
X44872Y56379D01*
X44896Y56353D01*
X44919Y56324D01*
X44939Y56292D01*
X44941Y56290D01*
X44944Y56285D01*
X44948Y56275D01*
X44956Y56262D01*
X44963Y56246D01*
X44972Y56226D01*
X44983Y56203D01*
X44993Y56179D01*
X45002Y56151D01*
X45013Y56122D01*
X45022Y56090D01*
X45030Y56057D01*
X45037Y56022D01*
X45042Y55985D01*
X45044Y55946D01*
X45046Y55907D01*
Y55904D01*
Y55896D01*
X45044Y55881D01*
Y55861D01*
X45041Y55839D01*
X45037Y55811D01*
X45031Y55782D01*
X45024Y55748D01*
X45015Y55713D01*
X45004Y55676D01*
X44989Y55637D01*
X44972Y55598D01*
X44952Y55560D01*
X44928Y55523D01*
X44900Y55484D01*
X44868Y55449D01*
X44867Y55447D01*
X44861Y55441D01*
X44850Y55432D01*
X44835Y55419D01*
X44817Y55404D01*
X44793Y55388D01*
X44767Y55369D01*
X44735Y55349D01*
X44698Y55328D01*
X44659Y55308D01*
X44613Y55289D01*
X44565Y55269D01*
X44512Y55252D01*
X44454Y55236D01*
X44391Y55223D01*
X44325Y55212D01*
X44326D01*
X44330Y55208D01*
X44337Y55206D01*
X44347Y55201D01*
X44358Y55195D01*
X44371Y55188D01*
X44401Y55171D01*
X44434Y55152D01*
X44467Y55130D01*
X44499Y55108D01*
X44528Y55084D01*
X44530Y55082D01*
X44535Y55079D01*
X44543Y55069D01*
X44554Y55060D01*
X44567Y55045D01*
X44582Y55030D01*
X44600Y55012D01*
X44619Y54990D01*
X44639Y54966D01*
X44661Y54940D01*
X44685Y54912D01*
X44709Y54882D01*
X44733Y54849D01*
X44759Y54816D01*
X44809Y54742D01*
X45251Y54046D01*
X44828D01*
X44489Y54579D01*
X44487Y54581D01*
X44482Y54588D01*
X44475Y54601D01*
X44465Y54616D01*
X44452Y54636D01*
X44438Y54659D01*
X44421Y54683D01*
X44404Y54709D01*
X44365Y54766D01*
X44325Y54825D01*
X44284Y54881D01*
X44263Y54906D01*
X44245Y54931D01*
X44243Y54932D01*
X44241Y54936D01*
X44236Y54942D01*
X44228Y54951D01*
X44210Y54973D01*
X44188Y54999D01*
X44160Y55027D01*
X44132Y55056D01*
X44103Y55082D01*
X44073Y55103D01*
X44069Y55104D01*
X44060Y55110D01*
X44045Y55119D01*
X44025Y55129D01*
X44003Y55140D01*
X43977Y55152D01*
X43949Y55162D01*
X43920Y55171D01*
X43918D01*
X43908Y55173D01*
X43894Y55175D01*
X43875Y55178D01*
X43849Y55180D01*
X43816Y55182D01*
X43777Y55184D01*
X43339D01*
Y54046D01*
X43000D01*
Y56607D01*
X44167D01*
X44190Y56605D01*
D02*
G37*
G36*
X46733Y56649D02*
X46757D01*
X46789Y56646D01*
X46826Y56642D01*
X46867Y56636D01*
X46911Y56631D01*
X46959Y56621D01*
X47011Y56610D01*
X47064Y56596D01*
X47118Y56579D01*
X47174Y56560D01*
X47229Y56536D01*
X47285Y56511D01*
X47338Y56481D01*
X47342Y56479D01*
X47351Y56473D01*
X47366Y56464D01*
X47385Y56449D01*
X47409Y56433D01*
X47436Y56412D01*
X47466Y56387D01*
X47499Y56359D01*
X47534Y56327D01*
X47570Y56292D01*
X47607Y56253D01*
X47642Y56211D01*
X47677Y56164D01*
X47712Y56116D01*
X47743Y56065D01*
X47773Y56009D01*
X47775Y56005D01*
X47780Y55996D01*
X47788Y55980D01*
X47797Y55955D01*
X47808Y55928D01*
X47821Y55893D01*
X47834Y55854D01*
X47849Y55809D01*
X47862Y55761D01*
X47875Y55708D01*
X47888Y55652D01*
X47899Y55591D01*
X47910Y55528D01*
X47917Y55462D01*
X47921Y55393D01*
X47923Y55323D01*
Y55321D01*
Y55319D01*
Y55313D01*
Y55306D01*
Y55297D01*
X47921Y55284D01*
Y55256D01*
X47917Y55223D01*
X47915Y55184D01*
X47910Y55138D01*
X47903Y55090D01*
X47895Y55036D01*
X47884Y54980D01*
X47871Y54923D01*
X47856Y54864D01*
X47838Y54803D01*
X47817Y54744D01*
X47793Y54685D01*
X47766Y54625D01*
X47764Y54622D01*
X47758Y54612D01*
X47749Y54596D01*
X47736Y54575D01*
X47721Y54549D01*
X47701Y54520D01*
X47677Y54487D01*
X47651Y54451D01*
X47621Y54414D01*
X47588Y54377D01*
X47551Y54339D01*
X47512Y54300D01*
X47468Y54263D01*
X47422Y54226D01*
X47372Y54192D01*
X47320Y54161D01*
X47316Y54159D01*
X47307Y54154D01*
X47290Y54146D01*
X47270Y54137D01*
X47242Y54124D01*
X47211Y54111D01*
X47175Y54096D01*
X47135Y54083D01*
X47089Y54068D01*
X47040Y54054D01*
X46990Y54041D01*
X46935Y54028D01*
X46880Y54018D01*
X46820Y54011D01*
X46759Y54006D01*
X46698Y54004D01*
X46681D01*
X46663Y54006D01*
X46637Y54007D01*
X46606Y54009D01*
X46569Y54013D01*
X46526Y54018D01*
X46482Y54026D01*
X46432Y54035D01*
X46380Y54046D01*
X46326Y54061D01*
X46273Y54078D01*
X46217Y54096D01*
X46160Y54120D01*
X46104Y54146D01*
X46051Y54178D01*
X46047Y54179D01*
X46038Y54185D01*
X46023Y54196D01*
X46004Y54209D01*
X45980Y54228D01*
X45953Y54248D01*
X45923Y54274D01*
X45890Y54302D01*
X45856Y54335D01*
X45819Y54370D01*
X45784Y54409D01*
X45749Y54451D01*
X45714Y54498D01*
X45681Y54546D01*
X45649Y54598D01*
X45620Y54653D01*
X45618Y54657D01*
X45614Y54666D01*
X45607Y54683D01*
X45597Y54707D01*
X45586Y54734D01*
X45573Y54768D01*
X45560Y54805D01*
X45547Y54847D01*
X45533Y54894D01*
X45520Y54944D01*
X45507Y54995D01*
X45496Y55051D01*
X45486Y55110D01*
X45479Y55169D01*
X45475Y55230D01*
X45474Y55293D01*
Y55295D01*
Y55300D01*
Y55310D01*
Y55321D01*
X45475Y55336D01*
Y55354D01*
X45477Y55374D01*
X45479Y55399D01*
X45481Y55424D01*
X45485Y55452D01*
X45488Y55482D01*
X45492Y55513D01*
X45503Y55582D01*
X45516Y55656D01*
X45535Y55735D01*
X45557Y55817D01*
X45584Y55900D01*
X45618Y55983D01*
X45657Y56065D01*
X45703Y56144D01*
X45729Y56183D01*
X45755Y56220D01*
X45784Y56255D01*
X45816Y56290D01*
X45818Y56292D01*
X45819Y56294D01*
X45825Y56300D01*
X45832Y56305D01*
X45840Y56314D01*
X45851Y56324D01*
X45879Y56348D01*
X45912Y56374D01*
X45953Y56405D01*
X46001Y56437D01*
X46054Y56472D01*
X46115Y56505D01*
X46182Y56536D01*
X46254Y56568D01*
X46332Y56596D01*
X46417Y56618D01*
X46506Y56636D01*
X46552Y56642D01*
X46600Y56647D01*
X46648Y56649D01*
X46698Y56651D01*
X46715D01*
X46733Y56649D01*
D02*
G37*
G36*
X56057Y61343D02*
X57016Y60000D01*
X56596D01*
X55950Y60912D01*
X55948Y60916D01*
X55941Y60925D01*
X55930Y60942D01*
X55917Y60960D01*
X55900Y60984D01*
X55884Y61010D01*
X55845Y61067D01*
Y61066D01*
X55841Y61062D01*
X55837Y61054D01*
X55832Y61047D01*
X55817Y61023D01*
X55799Y60997D01*
X55778Y60966D01*
X55760Y60936D01*
X55741Y60908D01*
X55725Y60886D01*
X55075Y60000D01*
X54668D01*
X55658Y61326D01*
X54785Y62560D01*
X55190D01*
X55656Y61905D01*
X55658Y61904D01*
X55661Y61896D01*
X55671Y61885D01*
X55680Y61872D01*
X55691Y61856D01*
X55706Y61835D01*
X55721Y61813D01*
X55737Y61791D01*
X55771Y61739D01*
X55804Y61687D01*
X55835Y61637D01*
X55850Y61613D01*
X55861Y61591D01*
X55863Y61593D01*
X55865Y61597D01*
X55871Y61604D01*
X55876Y61615D01*
X55885Y61626D01*
X55895Y61641D01*
X55906Y61659D01*
X55919Y61678D01*
X55948Y61721D01*
X55982Y61769D01*
X56020Y61822D01*
X56063Y61878D01*
X56576Y62560D01*
X56946D01*
X56057Y61343D01*
D02*
G37*
G36*
X54659Y60000D02*
X54274D01*
X53978Y60775D01*
X52903D01*
X52624Y60000D01*
X52267D01*
X53249Y62560D01*
X53612D01*
X54659Y60000D01*
D02*
G37*
G36*
X50916Y62559D02*
X50946D01*
X50977Y62557D01*
X51012D01*
X51086Y62551D01*
X51162Y62546D01*
X51199Y62540D01*
X51235Y62536D01*
X51268Y62531D01*
X51299Y62523D01*
X51301D01*
X51309Y62522D01*
X51320Y62518D01*
X51336Y62514D01*
X51355Y62507D01*
X51377Y62499D01*
X51401Y62492D01*
X51429Y62481D01*
X51486Y62457D01*
X51549Y62423D01*
X51612Y62387D01*
X51643Y62364D01*
X51673Y62340D01*
X51675Y62338D01*
X51682Y62333D01*
X51693Y62322D01*
X51706Y62309D01*
X51723Y62292D01*
X51743Y62272D01*
X51764Y62248D01*
X51788Y62222D01*
X51812Y62190D01*
X51836Y62157D01*
X51862Y62122D01*
X51888Y62083D01*
X51912Y62041D01*
X51934Y61998D01*
X51956Y61950D01*
X51976Y61902D01*
X51978Y61898D01*
X51980Y61889D01*
X51986Y61876D01*
X51993Y61856D01*
X52000Y61830D01*
X52008Y61800D01*
X52017Y61765D01*
X52028Y61726D01*
X52037Y61683D01*
X52047Y61635D01*
X52054Y61585D01*
X52061Y61532D01*
X52069Y61476D01*
X52074Y61417D01*
X52076Y61356D01*
X52078Y61293D01*
Y61289D01*
Y61280D01*
Y61265D01*
X52076Y61243D01*
Y61219D01*
X52074Y61190D01*
X52073Y61156D01*
X52069Y61119D01*
X52065Y61080D01*
X52061Y61038D01*
X52048Y60951D01*
X52032Y60862D01*
X52010Y60775D01*
Y60773D01*
X52006Y60766D01*
X52002Y60753D01*
X51997Y60738D01*
X51991Y60720D01*
X51982Y60698D01*
X51973Y60672D01*
X51961Y60646D01*
X51938Y60587D01*
X51906Y60524D01*
X51873Y60462D01*
X51834Y60403D01*
X51832Y60401D01*
X51828Y60398D01*
X51823Y60388D01*
X51815Y60379D01*
X51806Y60366D01*
X51793Y60352D01*
X51765Y60318D01*
X51730Y60281D01*
X51691Y60242D01*
X51647Y60205D01*
X51601Y60170D01*
X51599D01*
X51595Y60167D01*
X51588Y60163D01*
X51579Y60157D01*
X51566Y60150D01*
X51551Y60142D01*
X51534Y60133D01*
X51516Y60124D01*
X51494Y60113D01*
X51471Y60102D01*
X51445Y60093D01*
X51420Y60081D01*
X51360Y60061D01*
X51296Y60043D01*
X51294D01*
X51288Y60041D01*
X51277Y60039D01*
X51264Y60035D01*
X51248Y60033D01*
X51227Y60030D01*
X51203Y60026D01*
X51177Y60022D01*
X51148Y60017D01*
X51116Y60013D01*
X51083Y60009D01*
X51046Y60007D01*
X51009Y60004D01*
X50968Y60002D01*
X50885Y60000D01*
X49962D01*
Y62560D01*
X50892D01*
X50916Y62559D01*
D02*
G37*
G36*
X49692Y60000D02*
X49307D01*
X49011Y60775D01*
X47936D01*
X47657Y60000D01*
X47300D01*
X48282Y62560D01*
X48645D01*
X49692Y60000D01*
D02*
G37*
G36*
X46190Y62559D02*
X46219D01*
X46252Y62557D01*
X46288Y62555D01*
X46328Y62551D01*
X46369Y62547D01*
X46411Y62544D01*
X46499Y62531D01*
X46539Y62523D01*
X46580Y62514D01*
X46619Y62503D01*
X46654Y62490D01*
X46656D01*
X46661Y62486D01*
X46670Y62483D01*
X46683Y62477D01*
X46698Y62470D01*
X46715Y62459D01*
X46735Y62448D01*
X46756Y62435D01*
X46778Y62418D01*
X46802Y62401D01*
X46826Y62381D01*
X46850Y62359D01*
X46872Y62333D01*
X46896Y62307D01*
X46918Y62277D01*
X46939Y62246D01*
X46941Y62244D01*
X46944Y62239D01*
X46948Y62229D01*
X46955Y62216D01*
X46963Y62200D01*
X46972Y62179D01*
X46983Y62157D01*
X46992Y62133D01*
X47002Y62105D01*
X47013Y62076D01*
X47022Y62044D01*
X47030Y62011D01*
X47037Y61976D01*
X47042Y61939D01*
X47044Y61900D01*
X47046Y61861D01*
Y61857D01*
Y61850D01*
X47044Y61835D01*
Y61815D01*
X47041Y61793D01*
X47037Y61765D01*
X47031Y61735D01*
X47024Y61702D01*
X47015Y61667D01*
X47004Y61630D01*
X46989Y61591D01*
X46972Y61552D01*
X46952Y61513D01*
X46928Y61476D01*
X46900Y61437D01*
X46869Y61402D01*
X46867Y61401D01*
X46861Y61395D01*
X46850Y61386D01*
X46835Y61373D01*
X46817Y61358D01*
X46793Y61341D01*
X46767Y61323D01*
X46735Y61302D01*
X46698Y61282D01*
X46659Y61262D01*
X46613Y61243D01*
X46565Y61223D01*
X46512Y61206D01*
X46454Y61190D01*
X46391Y61177D01*
X46325Y61165D01*
X46326D01*
X46330Y61162D01*
X46338Y61160D01*
X46347Y61154D01*
X46358Y61149D01*
X46371Y61141D01*
X46400Y61125D01*
X46434Y61106D01*
X46467Y61084D01*
X46499Y61062D01*
X46528Y61038D01*
X46530Y61036D01*
X46536Y61032D01*
X46543Y61023D01*
X46554Y61014D01*
X46567Y60999D01*
X46582Y60984D01*
X46600Y60966D01*
X46619Y60944D01*
X46639Y60919D01*
X46661Y60894D01*
X46685Y60866D01*
X46709Y60836D01*
X46733Y60803D01*
X46759Y60770D01*
X46809Y60696D01*
X47251Y60000D01*
X46828D01*
X46489Y60533D01*
X46487Y60535D01*
X46482Y60542D01*
X46474Y60555D01*
X46465Y60570D01*
X46452Y60590D01*
X46437Y60612D01*
X46421Y60636D01*
X46404Y60662D01*
X46365Y60720D01*
X46325Y60779D01*
X46284Y60834D01*
X46264Y60860D01*
X46245Y60884D01*
X46243Y60886D01*
X46241Y60890D01*
X46236Y60895D01*
X46228Y60905D01*
X46210Y60927D01*
X46188Y60953D01*
X46160Y60980D01*
X46132Y61010D01*
X46103Y61036D01*
X46073Y61056D01*
X46069Y61058D01*
X46060Y61064D01*
X46045Y61073D01*
X46025Y61082D01*
X46003Y61093D01*
X45977Y61106D01*
X45949Y61115D01*
X45919Y61125D01*
X45918D01*
X45908Y61127D01*
X45893Y61128D01*
X45875Y61132D01*
X45849Y61134D01*
X45816Y61136D01*
X45777Y61138D01*
X45338D01*
Y60000D01*
X45000D01*
Y62560D01*
X46167D01*
X46190Y62559D01*
D02*
G37*
G36*
X53144Y68101D02*
X53174D01*
X53207Y68099D01*
X53242Y68097D01*
X53283Y68094D01*
X53323Y68090D01*
X53366Y68086D01*
X53453Y68073D01*
X53493Y68066D01*
X53534Y68057D01*
X53573Y68046D01*
X53608Y68033D01*
X53610D01*
X53616Y68029D01*
X53625Y68025D01*
X53638Y68020D01*
X53653Y68012D01*
X53669Y68001D01*
X53690Y67990D01*
X53710Y67977D01*
X53732Y67961D01*
X53756Y67944D01*
X53780Y67923D01*
X53804Y67901D01*
X53826Y67875D01*
X53851Y67849D01*
X53873Y67820D01*
X53893Y67788D01*
X53895Y67787D01*
X53899Y67781D01*
X53902Y67772D01*
X53910Y67759D01*
X53917Y67742D01*
X53926Y67722D01*
X53938Y67700D01*
X53947Y67676D01*
X53956Y67648D01*
X53967Y67618D01*
X53976Y67587D01*
X53984Y67554D01*
X53991Y67518D01*
X53997Y67481D01*
X53999Y67443D01*
X54000Y67404D01*
Y67400D01*
Y67393D01*
X53999Y67378D01*
Y67357D01*
X53995Y67335D01*
X53991Y67307D01*
X53986Y67278D01*
X53978Y67245D01*
X53969Y67209D01*
X53958Y67172D01*
X53943Y67134D01*
X53926Y67095D01*
X53906Y67056D01*
X53882Y67019D01*
X53854Y66980D01*
X53823Y66945D01*
X53821Y66943D01*
X53815Y66938D01*
X53804Y66928D01*
X53790Y66915D01*
X53771Y66900D01*
X53747Y66884D01*
X53721Y66865D01*
X53690Y66845D01*
X53653Y66825D01*
X53614Y66804D01*
X53567Y66786D01*
X53519Y66765D01*
X53466Y66749D01*
X53408Y66732D01*
X53346Y66719D01*
X53279Y66708D01*
X53281D01*
X53285Y66704D01*
X53292Y66703D01*
X53301Y66697D01*
X53312Y66691D01*
X53325Y66684D01*
X53355Y66667D01*
X53388Y66649D01*
X53421Y66627D01*
X53453Y66604D01*
X53482Y66580D01*
X53484Y66579D01*
X53490Y66575D01*
X53497Y66566D01*
X53508Y66556D01*
X53521Y66541D01*
X53536Y66527D01*
X53554Y66508D01*
X53573Y66486D01*
X53593Y66462D01*
X53616Y66436D01*
X53640Y66408D01*
X53664Y66379D01*
X53688Y66346D01*
X53714Y66312D01*
X53764Y66238D01*
X54206Y65543D01*
X53782D01*
X53444Y66075D01*
X53442Y66077D01*
X53436Y66085D01*
X53429Y66098D01*
X53420Y66112D01*
X53407Y66133D01*
X53392Y66155D01*
X53375Y66179D01*
X53359Y66205D01*
X53320Y66262D01*
X53279Y66321D01*
X53238Y66377D01*
X53218Y66403D01*
X53199Y66427D01*
X53197Y66429D01*
X53196Y66432D01*
X53190Y66438D01*
X53183Y66447D01*
X53164Y66469D01*
X53142Y66495D01*
X53114Y66523D01*
X53087Y66553D01*
X53057Y66579D01*
X53027Y66599D01*
X53024Y66601D01*
X53014Y66606D01*
X53000Y66615D01*
X52979Y66625D01*
X52957Y66636D01*
X52931Y66649D01*
X52903Y66658D01*
X52874Y66667D01*
X52872D01*
X52863Y66669D01*
X52848Y66671D01*
X52829Y66675D01*
X52803Y66677D01*
X52770Y66678D01*
X52731Y66680D01*
X52293D01*
Y65543D01*
X51954D01*
Y68103D01*
X53122D01*
X53144Y68101D01*
D02*
G37*
G36*
X48726Y67801D02*
X47339D01*
Y67008D01*
X48539D01*
Y66706D01*
X47339D01*
Y65543D01*
X47000D01*
Y68103D01*
X48726D01*
Y67801D01*
D02*
G37*
G36*
X50323Y68146D02*
X50347D01*
X50378Y68142D01*
X50415Y68138D01*
X50456Y68133D01*
X50500Y68127D01*
X50548Y68118D01*
X50600Y68107D01*
X50654Y68092D01*
X50707Y68075D01*
X50763Y68057D01*
X50818Y68033D01*
X50874Y68007D01*
X50928Y67977D01*
X50931Y67975D01*
X50941Y67970D01*
X50955Y67961D01*
X50974Y67946D01*
X50998Y67929D01*
X51026Y67909D01*
X51055Y67883D01*
X51089Y67855D01*
X51124Y67824D01*
X51159Y67788D01*
X51196Y67750D01*
X51231Y67707D01*
X51266Y67661D01*
X51301Y67613D01*
X51333Y67561D01*
X51362Y67505D01*
X51364Y67502D01*
X51370Y67492D01*
X51377Y67476D01*
X51386Y67452D01*
X51398Y67424D01*
X51410Y67389D01*
X51423Y67350D01*
X51438Y67306D01*
X51451Y67257D01*
X51464Y67204D01*
X51477Y67148D01*
X51488Y67087D01*
X51499Y67024D01*
X51507Y66958D01*
X51510Y66889D01*
X51512Y66819D01*
Y66817D01*
Y66815D01*
Y66810D01*
Y66802D01*
Y66793D01*
X51510Y66780D01*
Y66752D01*
X51507Y66719D01*
X51505Y66680D01*
X51499Y66634D01*
X51492Y66586D01*
X51484Y66532D01*
X51473Y66477D01*
X51460Y66419D01*
X51446Y66360D01*
X51427Y66299D01*
X51407Y66240D01*
X51383Y66181D01*
X51355Y66122D01*
X51353Y66118D01*
X51348Y66109D01*
X51338Y66092D01*
X51325Y66072D01*
X51310Y66046D01*
X51290Y66016D01*
X51266Y65983D01*
X51240Y65948D01*
X51211Y65911D01*
X51177Y65874D01*
X51140Y65835D01*
X51101Y65796D01*
X51057Y65759D01*
X51011Y65722D01*
X50961Y65689D01*
X50909Y65657D01*
X50905Y65655D01*
X50896Y65650D01*
X50880Y65642D01*
X50859Y65633D01*
X50831Y65620D01*
X50800Y65607D01*
X50765Y65592D01*
X50724Y65579D01*
X50678Y65565D01*
X50630Y65550D01*
X50580Y65537D01*
X50524Y65524D01*
X50469Y65515D01*
X50410Y65507D01*
X50349Y65502D01*
X50287Y65500D01*
X50271D01*
X50252Y65502D01*
X50226Y65504D01*
X50195Y65506D01*
X50158Y65509D01*
X50115Y65515D01*
X50071Y65522D01*
X50021Y65531D01*
X49969Y65543D01*
X49916Y65557D01*
X49862Y65574D01*
X49806Y65592D01*
X49749Y65617D01*
X49694Y65642D01*
X49640Y65674D01*
X49636Y65676D01*
X49627Y65681D01*
X49612Y65692D01*
X49594Y65705D01*
X49570Y65724D01*
X49542Y65744D01*
X49512Y65770D01*
X49479Y65798D01*
X49446Y65831D01*
X49409Y65866D01*
X49374Y65905D01*
X49338Y65948D01*
X49303Y65994D01*
X49270Y66042D01*
X49238Y66094D01*
X49209Y66149D01*
X49207Y66153D01*
X49203Y66162D01*
X49196Y66179D01*
X49187Y66203D01*
X49176Y66231D01*
X49163Y66264D01*
X49150Y66301D01*
X49137Y66344D01*
X49122Y66390D01*
X49109Y66440D01*
X49096Y66492D01*
X49085Y66547D01*
X49076Y66606D01*
X49068Y66666D01*
X49065Y66726D01*
X49063Y66789D01*
Y66791D01*
Y66797D01*
Y66806D01*
Y66817D01*
X49065Y66832D01*
Y66851D01*
X49066Y66871D01*
X49068Y66895D01*
X49070Y66921D01*
X49074Y66949D01*
X49078Y66978D01*
X49081Y67010D01*
X49092Y67078D01*
X49105Y67152D01*
X49124Y67232D01*
X49146Y67313D01*
X49174Y67396D01*
X49207Y67479D01*
X49246Y67561D01*
X49292Y67640D01*
X49318Y67679D01*
X49344Y67716D01*
X49374Y67751D01*
X49405Y67787D01*
X49407Y67788D01*
X49409Y67790D01*
X49414Y67796D01*
X49422Y67801D01*
X49429Y67811D01*
X49440Y67820D01*
X49468Y67844D01*
X49501Y67870D01*
X49542Y67901D01*
X49590Y67933D01*
X49644Y67968D01*
X49705Y68001D01*
X49771Y68033D01*
X49843Y68064D01*
X49921Y68092D01*
X50006Y68114D01*
X50095Y68133D01*
X50141Y68138D01*
X50189Y68144D01*
X50238Y68146D01*
X50287Y68147D01*
X50304D01*
X50323Y68146D01*
D02*
G37*
G36*
X16740Y63146D02*
X16764D01*
X16794Y63142D01*
X16825Y63140D01*
X16862Y63136D01*
X16899Y63131D01*
X16940Y63125D01*
X17023Y63108D01*
X17067Y63097D01*
X17110Y63086D01*
X17153Y63072D01*
X17193Y63055D01*
X17195Y63053D01*
X17203Y63051D01*
X17214Y63046D01*
X17229Y63038D01*
X17247Y63029D01*
X17267Y63016D01*
X17291Y63003D01*
X17315Y62986D01*
X17343Y62970D01*
X17369Y62949D01*
X17397Y62927D01*
X17425Y62903D01*
X17452Y62877D01*
X17478Y62848D01*
X17504Y62818D01*
X17526Y62785D01*
X17528Y62783D01*
X17532Y62777D01*
X17537Y62766D01*
X17545Y62753D01*
X17554Y62737D01*
X17565Y62716D01*
X17574Y62694D01*
X17587Y62668D01*
X17598Y62640D01*
X17610Y62609D01*
X17621Y62576D01*
X17630Y62541D01*
X17639Y62503D01*
X17647Y62465D01*
X17650Y62424D01*
X17654Y62383D01*
X17328Y62359D01*
Y62363D01*
X17327Y62370D01*
X17325Y62383D01*
X17321Y62400D01*
X17317Y62418D01*
X17312Y62442D01*
X17304Y62468D01*
X17295Y62496D01*
X17286Y62526D01*
X17273Y62555D01*
X17258Y62585D01*
X17242Y62616D01*
X17223Y62646D01*
X17201Y62674D01*
X17177Y62701D01*
X17151Y62726D01*
X17149Y62727D01*
X17143Y62731D01*
X17136Y62737D01*
X17123Y62746D01*
X17106Y62755D01*
X17088Y62764D01*
X17066Y62775D01*
X17040Y62788D01*
X17010Y62800D01*
X16977Y62811D01*
X16940Y62820D01*
X16901Y62831D01*
X16857Y62838D01*
X16810Y62844D01*
X16760Y62848D01*
X16707Y62849D01*
X16677D01*
X16657Y62848D01*
X16631Y62846D01*
X16603Y62844D01*
X16570Y62840D01*
X16537Y62835D01*
X16463Y62822D01*
X16426Y62813D01*
X16389Y62801D01*
X16353Y62788D01*
X16318Y62774D01*
X16287Y62757D01*
X16259Y62737D01*
X16257Y62735D01*
X16254Y62731D01*
X16246Y62726D01*
X16237Y62716D01*
X16228Y62705D01*
X16215Y62692D01*
X16204Y62677D01*
X16191Y62661D01*
X16178Y62642D01*
X16165Y62620D01*
X16142Y62574D01*
X16133Y62550D01*
X16126Y62522D01*
X16122Y62494D01*
X16120Y62465D01*
Y62463D01*
Y62459D01*
Y62452D01*
X16122Y62442D01*
X16124Y62429D01*
X16126Y62417D01*
X16133Y62385D01*
X16144Y62348D01*
X16161Y62311D01*
X16172Y62291D01*
X16187Y62272D01*
X16202Y62254D01*
X16218Y62237D01*
X16220Y62235D01*
X16224Y62234D01*
X16229Y62228D01*
X16241Y62222D01*
X16254Y62213D01*
X16272Y62204D01*
X16292Y62193D01*
X16318Y62180D01*
X16350Y62167D01*
X16385Y62152D01*
X16427Y62137D01*
X16474Y62121D01*
X16527Y62104D01*
X16587Y62087D01*
X16653Y62071D01*
X16727Y62052D01*
X16729D01*
X16733Y62050D01*
X16738D01*
X16746Y62049D01*
X16755Y62047D01*
X16766Y62043D01*
X16794Y62037D01*
X16827Y62028D01*
X16866Y62019D01*
X16908Y62010D01*
X16953Y61997D01*
X17047Y61973D01*
X17094Y61960D01*
X17140Y61945D01*
X17184Y61932D01*
X17225Y61917D01*
X17262Y61904D01*
X17293Y61891D01*
X17295Y61889D01*
X17302Y61886D01*
X17315Y61880D01*
X17330Y61873D01*
X17349Y61862D01*
X17369Y61851D01*
X17393Y61836D01*
X17419Y61819D01*
X17445Y61802D01*
X17473Y61782D01*
X17528Y61738D01*
X17580Y61686D01*
X17602Y61658D01*
X17624Y61629D01*
X17626Y61627D01*
X17630Y61621D01*
X17634Y61612D01*
X17641Y61601D01*
X17648Y61586D01*
X17658Y61567D01*
X17669Y61547D01*
X17678Y61525D01*
X17687Y61499D01*
X17698Y61471D01*
X17708Y61442D01*
X17715Y61408D01*
X17722Y61375D01*
X17728Y61340D01*
X17730Y61305D01*
X17732Y61266D01*
Y61264D01*
Y61257D01*
Y61246D01*
X17730Y61231D01*
X17728Y61212D01*
X17726Y61192D01*
X17722Y61168D01*
X17717Y61140D01*
X17711Y61112D01*
X17702Y61081D01*
X17693Y61049D01*
X17682Y61016D01*
X17669Y60983D01*
X17652Y60948D01*
X17634Y60914D01*
X17613Y60879D01*
X17611Y60877D01*
X17608Y60872D01*
X17600Y60863D01*
X17591Y60850D01*
X17580Y60835D01*
X17565Y60816D01*
X17549Y60798D01*
X17528Y60777D01*
X17506Y60755D01*
X17480Y60733D01*
X17452Y60709D01*
X17423Y60685D01*
X17391Y60663D01*
X17356Y60641D01*
X17319Y60620D01*
X17278Y60600D01*
X17277Y60598D01*
X17269Y60596D01*
X17256Y60591D01*
X17240Y60585D01*
X17219Y60578D01*
X17195Y60568D01*
X17167Y60559D01*
X17136Y60550D01*
X17101Y60541D01*
X17062Y60531D01*
X17021Y60524D01*
X16979Y60515D01*
X16934Y60509D01*
X16886Y60504D01*
X16836Y60502D01*
X16786Y60500D01*
X16753D01*
X16729Y60502D01*
X16699Y60504D01*
X16664Y60506D01*
X16625Y60509D01*
X16583Y60513D01*
X16538Y60518D01*
X16492Y60524D01*
X16394Y60543D01*
X16344Y60554D01*
X16296Y60567D01*
X16248Y60583D01*
X16204Y60600D01*
X16202Y60602D01*
X16193Y60605D01*
X16181Y60611D01*
X16165Y60618D01*
X16144Y60629D01*
X16122Y60642D01*
X16096Y60659D01*
X16070Y60676D01*
X16041Y60696D01*
X16011Y60718D01*
X15980Y60744D01*
X15950Y60772D01*
X15919Y60802D01*
X15889Y60833D01*
X15861Y60868D01*
X15835Y60905D01*
X15834Y60907D01*
X15830Y60914D01*
X15822Y60926D01*
X15815Y60940D01*
X15804Y60961D01*
X15793Y60983D01*
X15780Y61009D01*
X15769Y61038D01*
X15756Y61072D01*
X15743Y61107D01*
X15732Y61146D01*
X15721Y61185D01*
X15711Y61227D01*
X15704Y61272D01*
X15699Y61318D01*
X15697Y61366D01*
X16017Y61394D01*
Y61392D01*
X16019Y61384D01*
Y61375D01*
X16022Y61362D01*
X16024Y61345D01*
X16028Y61325D01*
X16033Y61305D01*
X16039Y61281D01*
X16052Y61231D01*
X16070Y61177D01*
X16093Y61125D01*
X16120Y61075D01*
X16122Y61073D01*
X16124Y61070D01*
X16130Y61064D01*
X16137Y61055D01*
X16144Y61044D01*
X16156Y61033D01*
X16169Y61020D01*
X16183Y61005D01*
X16200Y60990D01*
X16220Y60974D01*
X16241Y60957D01*
X16265Y60940D01*
X16289Y60924D01*
X16317Y60907D01*
X16346Y60892D01*
X16377Y60877D01*
X16379D01*
X16385Y60874D01*
X16396Y60870D01*
X16409Y60866D01*
X16426Y60861D01*
X16444Y60853D01*
X16468Y60846D01*
X16492Y60840D01*
X16520Y60833D01*
X16551Y60826D01*
X16583Y60820D01*
X16618Y60813D01*
X16692Y60805D01*
X16771Y60802D01*
X16790D01*
X16805Y60803D01*
X16822D01*
X16840Y60805D01*
X16862Y60807D01*
X16886Y60809D01*
X16940Y60816D01*
X16997Y60826D01*
X17055Y60840D01*
X17112Y60859D01*
X17114D01*
X17119Y60861D01*
X17127Y60864D01*
X17136Y60870D01*
X17149Y60875D01*
X17162Y60883D01*
X17195Y60900D01*
X17230Y60922D01*
X17267Y60949D01*
X17302Y60981D01*
X17332Y61016D01*
Y61018D01*
X17336Y61022D01*
X17339Y61027D01*
X17343Y61035D01*
X17349Y61044D01*
X17356Y61055D01*
X17369Y61083D01*
X17382Y61114D01*
X17395Y61151D01*
X17402Y61194D01*
X17406Y61236D01*
Y61238D01*
Y61242D01*
Y61247D01*
X17404Y61257D01*
Y61268D01*
X17402Y61279D01*
X17397Y61308D01*
X17389Y61340D01*
X17377Y61375D01*
X17358Y61410D01*
X17334Y61445D01*
Y61447D01*
X17330Y61449D01*
X17321Y61460D01*
X17302Y61477D01*
X17291Y61488D01*
X17278Y61499D01*
X17264Y61510D01*
X17247Y61523D01*
X17229Y61536D01*
X17206Y61549D01*
X17184Y61562D01*
X17158Y61575D01*
X17132Y61586D01*
X17103Y61599D01*
X17101D01*
X17097Y61601D01*
X17092Y61603D01*
X17081Y61606D01*
X17067Y61610D01*
X17053Y61616D01*
X17032Y61621D01*
X17008Y61629D01*
X16979Y61638D01*
X16947Y61647D01*
X16910Y61656D01*
X16868Y61667D01*
X16822Y61680D01*
X16768Y61693D01*
X16711Y61708D01*
X16648Y61723D01*
X16646D01*
X16644Y61725D01*
X16638D01*
X16633Y61726D01*
X16614Y61732D01*
X16590Y61738D01*
X16563Y61745D01*
X16529Y61754D01*
X16492Y61764D01*
X16455Y61775D01*
X16374Y61799D01*
X16292Y61826D01*
X16254Y61841D01*
X16217Y61856D01*
X16185Y61869D01*
X16156Y61884D01*
X16154Y61886D01*
X16148Y61888D01*
X16139Y61893D01*
X16126Y61901D01*
X16111Y61910D01*
X16093Y61923D01*
X16074Y61936D01*
X16052Y61950D01*
X16007Y61984D01*
X15963Y62024D01*
X15919Y62071D01*
X15900Y62097D01*
X15882Y62122D01*
X15880Y62124D01*
X15878Y62130D01*
X15874Y62137D01*
X15869Y62148D01*
X15861Y62161D01*
X15854Y62176D01*
X15846Y62195D01*
X15837Y62215D01*
X15830Y62239D01*
X15821Y62263D01*
X15808Y62317D01*
X15797Y62376D01*
X15795Y62407D01*
X15793Y62441D01*
Y62442D01*
Y62450D01*
Y62459D01*
X15795Y62474D01*
X15797Y62491D01*
X15798Y62511D01*
X15802Y62533D01*
X15806Y62559D01*
X15813Y62587D01*
X15819Y62615D01*
X15828Y62644D01*
X15839Y62676D01*
X15852Y62707D01*
X15867Y62739D01*
X15883Y62772D01*
X15902Y62803D01*
X15904Y62805D01*
X15908Y62811D01*
X15913Y62820D01*
X15922Y62831D01*
X15934Y62846D01*
X15948Y62861D01*
X15965Y62879D01*
X15983Y62898D01*
X16004Y62918D01*
X16028Y62940D01*
X16054Y62960D01*
X16083Y62983D01*
X16115Y63003D01*
X16148Y63023D01*
X16183Y63042D01*
X16222Y63059D01*
X16224Y63060D01*
X16231Y63062D01*
X16242Y63066D01*
X16259Y63073D01*
X16279Y63079D01*
X16302Y63086D01*
X16329Y63096D01*
X16361Y63103D01*
X16394Y63112D01*
X16429Y63120D01*
X16468Y63127D01*
X16509Y63134D01*
X16553Y63140D01*
X16598Y63144D01*
X16644Y63146D01*
X16692Y63147D01*
X16720D01*
X16740Y63146D01*
D02*
G37*
G36*
X8903D02*
X8929D01*
X8957Y63142D01*
X8989Y63140D01*
X9024Y63136D01*
X9063Y63131D01*
X9101Y63125D01*
X9187Y63108D01*
X9229Y63099D01*
X9273Y63086D01*
X9316Y63073D01*
X9359Y63057D01*
X9360Y63055D01*
X9368Y63053D01*
X9381Y63047D01*
X9396Y63040D01*
X9414Y63031D01*
X9436Y63020D01*
X9460Y63007D01*
X9488Y62992D01*
X9516Y62973D01*
X9544Y62955D01*
X9603Y62912D01*
X9660Y62862D01*
X9688Y62835D01*
X9712Y62805D01*
X9714Y62803D01*
X9718Y62798D01*
X9725Y62788D01*
X9732Y62775D01*
X9743Y62761D01*
X9756Y62740D01*
X9769Y62718D01*
X9784Y62692D01*
X9799Y62665D01*
X9816Y62631D01*
X9832Y62598D01*
X9847Y62561D01*
X9864Y62520D01*
X9878Y62478D01*
X9893Y62433D01*
X9906Y62385D01*
X9601Y62302D01*
Y62304D01*
X9599Y62311D01*
X9595Y62320D01*
X9590Y62335D01*
X9584Y62350D01*
X9579Y62370D01*
X9569Y62391D01*
X9562Y62415D01*
X9540Y62463D01*
X9516Y62515D01*
X9488Y62565D01*
X9473Y62587D01*
X9457Y62609D01*
X9455Y62611D01*
X9453Y62615D01*
X9447Y62620D01*
X9442Y62628D01*
X9433Y62637D01*
X9421Y62648D01*
X9409Y62661D01*
X9394Y62674D01*
X9377Y62688D01*
X9360Y62703D01*
X9318Y62733D01*
X9268Y62762D01*
X9212Y62788D01*
X9211D01*
X9205Y62792D01*
X9196Y62794D01*
X9185Y62800D01*
X9170Y62805D01*
X9151Y62811D01*
X9131Y62816D01*
X9109Y62824D01*
X9085Y62829D01*
X9057Y62835D01*
X9027Y62840D01*
X8998Y62846D01*
X8931Y62853D01*
X8861Y62857D01*
X8839D01*
X8822Y62855D01*
X8802D01*
X8778Y62853D01*
X8752Y62851D01*
X8724Y62848D01*
X8693Y62844D01*
X8659Y62840D01*
X8593Y62827D01*
X8524Y62809D01*
X8458Y62785D01*
X8456D01*
X8450Y62781D01*
X8441Y62777D01*
X8430Y62772D01*
X8415Y62764D01*
X8398Y62757D01*
X8380Y62746D01*
X8361Y62735D01*
X8317Y62709D01*
X8273Y62676D01*
X8226Y62639D01*
X8186Y62598D01*
X8184Y62596D01*
X8182Y62592D01*
X8176Y62587D01*
X8169Y62577D01*
X8160Y62566D01*
X8151Y62555D01*
X8139Y62541D01*
X8127Y62524D01*
X8101Y62487D01*
X8073Y62444D01*
X8047Y62396D01*
X8023Y62346D01*
X8021Y62344D01*
X8019Y62335D01*
X8014Y62322D01*
X8008Y62306D01*
X8001Y62283D01*
X7993Y62257D01*
X7984Y62226D01*
X7975Y62193D01*
X7966Y62156D01*
X7956Y62117D01*
X7949Y62074D01*
X7942Y62028D01*
X7936Y61982D01*
X7930Y61932D01*
X7929Y61882D01*
X7927Y61830D01*
Y61828D01*
Y61826D01*
Y61815D01*
Y61797D01*
X7929Y61773D01*
X7930Y61743D01*
X7932Y61710D01*
X7936Y61671D01*
X7942Y61630D01*
X7947Y61586D01*
X7954Y61540D01*
X7966Y61492D01*
X7977Y61444D01*
X7990Y61395D01*
X8004Y61347D01*
X8023Y61301D01*
X8043Y61257D01*
X8045Y61255D01*
X8049Y61247D01*
X8056Y61234D01*
X8065Y61220D01*
X8078Y61199D01*
X8093Y61179D01*
X8110Y61155D01*
X8130Y61129D01*
X8154Y61101D01*
X8180Y61073D01*
X8208Y61044D01*
X8239Y61016D01*
X8273Y60988D01*
X8308Y60962D01*
X8347Y60939D01*
X8387Y60916D01*
X8389Y60914D01*
X8398Y60911D01*
X8410Y60905D01*
X8426Y60900D01*
X8447Y60890D01*
X8472Y60881D01*
X8500Y60872D01*
X8532Y60861D01*
X8567Y60850D01*
X8604Y60840D01*
X8643Y60831D01*
X8683Y60822D01*
X8728Y60816D01*
X8772Y60811D01*
X8818Y60807D01*
X8865Y60805D01*
X8887D01*
X8902Y60807D01*
X8922D01*
X8946Y60809D01*
X8972Y60813D01*
X9002Y60816D01*
X9033Y60820D01*
X9066Y60826D01*
X9138Y60840D01*
X9216Y60861D01*
X9255Y60874D01*
X9294Y60888D01*
X9296Y60890D01*
X9303Y60892D01*
X9314Y60898D01*
X9329Y60903D01*
X9346Y60911D01*
X9366Y60920D01*
X9388Y60931D01*
X9412Y60944D01*
X9464Y60970D01*
X9518Y61001D01*
X9569Y61035D01*
X9592Y61051D01*
X9614Y61070D01*
Y61547D01*
X8861D01*
Y61849D01*
X9945D01*
Y60898D01*
X9941Y60896D01*
X9934Y60888D01*
X9921Y60879D01*
X9903Y60864D01*
X9878Y60850D01*
X9853Y60829D01*
X9821Y60809D01*
X9788Y60787D01*
X9749Y60763D01*
X9710Y60739D01*
X9668Y60713D01*
X9621Y60689D01*
X9527Y60641D01*
X9479Y60620D01*
X9429Y60600D01*
X9425Y60598D01*
X9418Y60596D01*
X9403Y60591D01*
X9383Y60585D01*
X9359Y60578D01*
X9331Y60568D01*
X9297Y60559D01*
X9262Y60550D01*
X9222Y60541D01*
X9179Y60531D01*
X9135Y60524D01*
X9088Y60515D01*
X8989Y60504D01*
X8937Y60502D01*
X8885Y60500D01*
X8859D01*
X8848Y60502D01*
X8822D01*
X8789Y60506D01*
X8750Y60509D01*
X8705Y60513D01*
X8658Y60520D01*
X8606Y60530D01*
X8552Y60539D01*
X8495Y60552D01*
X8435Y60568D01*
X8376Y60587D01*
X8317Y60607D01*
X8258Y60633D01*
X8199Y60661D01*
X8195Y60663D01*
X8186Y60668D01*
X8169Y60678D01*
X8149Y60690D01*
X8123Y60707D01*
X8093Y60728D01*
X8060Y60752D01*
X8025Y60779D01*
X7988Y60811D01*
X7949Y60846D01*
X7910Y60883D01*
X7871Y60926D01*
X7834Y60972D01*
X7797Y61020D01*
X7764Y61072D01*
X7733Y61127D01*
X7731Y61131D01*
X7725Y61142D01*
X7718Y61159D01*
X7708Y61181D01*
X7697Y61210D01*
X7683Y61244D01*
X7670Y61284D01*
X7655Y61327D01*
X7640Y61377D01*
X7627Y61429D01*
X7614Y61484D01*
X7601Y61545D01*
X7592Y61608D01*
X7584Y61673D01*
X7579Y61739D01*
X7577Y61810D01*
Y61812D01*
Y61813D01*
Y61819D01*
Y61826D01*
Y61836D01*
X7579Y61847D01*
Y61873D01*
X7583Y61906D01*
X7584Y61945D01*
X7590Y61989D01*
X7597Y62037D01*
X7605Y62089D01*
X7616Y62145D01*
X7627Y62202D01*
X7642Y62261D01*
X7660Y62322D01*
X7681Y62385D01*
X7705Y62446D01*
X7733Y62507D01*
Y62509D01*
X7734Y62511D01*
X7740Y62522D01*
X7749Y62539D01*
X7762Y62561D01*
X7777Y62587D01*
X7797Y62618D01*
X7821Y62653D01*
X7847Y62690D01*
X7877Y62729D01*
X7910Y62768D01*
X7947Y62809D01*
X7988Y62848D01*
X8032Y62887D01*
X8078Y62924D01*
X8128Y62959D01*
X8182Y62990D01*
X8186Y62992D01*
X8195Y62998D01*
X8212Y63005D01*
X8234Y63014D01*
X8262Y63027D01*
X8295Y63040D01*
X8334Y63055D01*
X8376Y63070D01*
X8424Y63083D01*
X8476Y63097D01*
X8532Y63110D01*
X8591Y63123D01*
X8654Y63133D01*
X8719Y63140D01*
X8787Y63146D01*
X8857Y63147D01*
X8885D01*
X8903Y63146D01*
D02*
G37*
G36*
X12463Y60543D02*
X12124D01*
Y61749D01*
X10796D01*
Y60543D01*
X10458D01*
Y63103D01*
X10796D01*
Y62050D01*
X12124D01*
Y63103D01*
X12463D01*
Y60543D01*
D02*
G37*
G36*
X20031Y62801D02*
X19184D01*
Y60543D01*
X18845D01*
Y62801D01*
X18002D01*
Y63103D01*
X20031D01*
Y62801D01*
D02*
G37*
G36*
X7392Y60543D02*
X7007D01*
X6711Y61318D01*
X5636D01*
X5357Y60543D01*
X5000D01*
X5982Y63103D01*
X6345D01*
X7392Y60543D01*
D02*
G37*
G36*
X14183Y63146D02*
X14208D01*
X14239Y63142D01*
X14276Y63138D01*
X14317Y63133D01*
X14361Y63127D01*
X14409Y63118D01*
X14461Y63107D01*
X14514Y63092D01*
X14568Y63075D01*
X14624Y63057D01*
X14679Y63033D01*
X14735Y63007D01*
X14788Y62977D01*
X14792Y62975D01*
X14801Y62970D01*
X14816Y62960D01*
X14835Y62946D01*
X14859Y62929D01*
X14886Y62909D01*
X14916Y62883D01*
X14949Y62855D01*
X14985Y62824D01*
X15020Y62788D01*
X15057Y62750D01*
X15092Y62707D01*
X15127Y62661D01*
X15162Y62613D01*
X15193Y62561D01*
X15223Y62505D01*
X15225Y62502D01*
X15231Y62492D01*
X15238Y62476D01*
X15247Y62452D01*
X15258Y62424D01*
X15271Y62389D01*
X15284Y62350D01*
X15299Y62306D01*
X15312Y62257D01*
X15325Y62204D01*
X15338Y62148D01*
X15349Y62087D01*
X15360Y62024D01*
X15367Y61958D01*
X15371Y61889D01*
X15373Y61819D01*
Y61817D01*
Y61815D01*
Y61810D01*
Y61802D01*
Y61793D01*
X15371Y61780D01*
Y61752D01*
X15367Y61719D01*
X15365Y61680D01*
X15360Y61634D01*
X15353Y61586D01*
X15345Y61532D01*
X15334Y61477D01*
X15321Y61419D01*
X15306Y61360D01*
X15288Y61299D01*
X15268Y61240D01*
X15244Y61181D01*
X15216Y61122D01*
X15214Y61118D01*
X15208Y61109D01*
X15199Y61092D01*
X15186Y61072D01*
X15171Y61046D01*
X15151Y61016D01*
X15127Y60983D01*
X15101Y60948D01*
X15071Y60911D01*
X15038Y60874D01*
X15001Y60835D01*
X14962Y60796D01*
X14918Y60759D01*
X14872Y60722D01*
X14822Y60689D01*
X14770Y60657D01*
X14766Y60655D01*
X14757Y60650D01*
X14740Y60642D01*
X14720Y60633D01*
X14692Y60620D01*
X14661Y60607D01*
X14626Y60593D01*
X14585Y60580D01*
X14539Y60565D01*
X14491Y60550D01*
X14441Y60537D01*
X14385Y60524D01*
X14330Y60515D01*
X14270Y60507D01*
X14209Y60502D01*
X14148Y60500D01*
X14132D01*
X14113Y60502D01*
X14087Y60504D01*
X14056Y60506D01*
X14019Y60509D01*
X13976Y60515D01*
X13932Y60522D01*
X13882Y60531D01*
X13830Y60543D01*
X13776Y60557D01*
X13723Y60574D01*
X13667Y60593D01*
X13610Y60616D01*
X13554Y60642D01*
X13501Y60674D01*
X13497Y60676D01*
X13488Y60681D01*
X13473Y60692D01*
X13454Y60705D01*
X13430Y60724D01*
X13403Y60744D01*
X13373Y60770D01*
X13340Y60798D01*
X13307Y60831D01*
X13270Y60866D01*
X13234Y60905D01*
X13199Y60948D01*
X13164Y60994D01*
X13131Y61042D01*
X13099Y61094D01*
X13070Y61149D01*
X13068Y61153D01*
X13064Y61162D01*
X13057Y61179D01*
X13047Y61203D01*
X13036Y61231D01*
X13023Y61264D01*
X13011Y61301D01*
X12998Y61344D01*
X12983Y61390D01*
X12970Y61440D01*
X12957Y61492D01*
X12946Y61547D01*
X12936Y61606D01*
X12929Y61665D01*
X12925Y61726D01*
X12924Y61789D01*
Y61791D01*
Y61797D01*
Y61806D01*
Y61817D01*
X12925Y61832D01*
Y61851D01*
X12927Y61871D01*
X12929Y61895D01*
X12931Y61921D01*
X12935Y61949D01*
X12938Y61978D01*
X12942Y62010D01*
X12953Y62078D01*
X12966Y62152D01*
X12985Y62232D01*
X13007Y62313D01*
X13035Y62396D01*
X13068Y62480D01*
X13107Y62561D01*
X13153Y62640D01*
X13179Y62679D01*
X13205Y62716D01*
X13234Y62751D01*
X13266Y62787D01*
X13268Y62788D01*
X13270Y62790D01*
X13275Y62796D01*
X13283Y62801D01*
X13290Y62811D01*
X13301Y62820D01*
X13329Y62844D01*
X13362Y62870D01*
X13403Y62901D01*
X13451Y62933D01*
X13504Y62968D01*
X13566Y63001D01*
X13632Y63033D01*
X13704Y63064D01*
X13782Y63092D01*
X13867Y63114D01*
X13956Y63133D01*
X14002Y63138D01*
X14050Y63144D01*
X14098Y63146D01*
X14148Y63147D01*
X14165D01*
X14183Y63146D01*
D02*
G37*
G36*
X16956Y65584D02*
Y64500D01*
X16617D01*
Y65584D01*
X15631Y67060D01*
X16044D01*
X16547Y66287D01*
X16549Y66285D01*
X16553Y66278D01*
X16562Y66265D01*
X16571Y66250D01*
X16584Y66230D01*
X16599Y66208D01*
X16615Y66182D01*
X16634Y66152D01*
X16652Y66121D01*
X16673Y66087D01*
X16695Y66050D01*
X16717Y66013D01*
X16763Y65936D01*
X16808Y65856D01*
X16810Y65858D01*
X16813Y65865D01*
X16819Y65876D01*
X16828Y65891D01*
X16839Y65910D01*
X16854Y65932D01*
X16869Y65958D01*
X16887Y65987D01*
X16906Y66019D01*
X16928Y66052D01*
X16950Y66089D01*
X16974Y66130D01*
X17000Y66171D01*
X17028Y66215D01*
X17087Y66306D01*
X17583Y67060D01*
X17977D01*
X16956Y65584D01*
D02*
G37*
G36*
X14506Y67059D02*
X14532D01*
X14560Y67057D01*
X14593Y67053D01*
X14627Y67051D01*
X14664Y67046D01*
X14703Y67042D01*
X14780Y67027D01*
X14858Y67007D01*
X14895Y66996D01*
X14928Y66981D01*
X14930D01*
X14936Y66977D01*
X14945Y66974D01*
X14958Y66966D01*
X14973Y66959D01*
X14989Y66948D01*
X15010Y66936D01*
X15030Y66922D01*
X15052Y66907D01*
X15074Y66888D01*
X15097Y66870D01*
X15121Y66848D01*
X15143Y66824D01*
X15165Y66799D01*
X15185Y66772D01*
X15206Y66742D01*
X15208Y66740D01*
X15209Y66735D01*
X15215Y66725D01*
X15222Y66714D01*
X15230Y66700D01*
X15237Y66681D01*
X15246Y66663D01*
X15258Y66640D01*
X15267Y66615D01*
X15276Y66589D01*
X15291Y66531D01*
X15304Y66468D01*
X15306Y66437D01*
X15307Y66404D01*
Y66402D01*
Y66396D01*
Y66387D01*
X15306Y66376D01*
Y66361D01*
X15302Y66344D01*
X15300Y66324D01*
X15296Y66304D01*
X15285Y66256D01*
X15269Y66204D01*
X15259Y66176D01*
X15246Y66150D01*
X15233Y66123D01*
X15217Y66095D01*
X15215Y66093D01*
X15213Y66089D01*
X15208Y66082D01*
X15200Y66071D01*
X15191Y66058D01*
X15180Y66045D01*
X15165Y66028D01*
X15150Y66012D01*
X15132Y65993D01*
X15113Y65974D01*
X15091Y65956D01*
X15067Y65936D01*
X15039Y65915D01*
X15011Y65897D01*
X14982Y65878D01*
X14949Y65862D01*
X14950D01*
X14960Y65858D01*
X14971Y65854D01*
X14987Y65849D01*
X15006Y65841D01*
X15028Y65832D01*
X15054Y65821D01*
X15080Y65806D01*
X15110Y65791D01*
X15139Y65775D01*
X15169Y65756D01*
X15198Y65734D01*
X15226Y65712D01*
X15256Y65686D01*
X15281Y65658D01*
X15306Y65628D01*
X15307Y65627D01*
X15311Y65621D01*
X15317Y65612D01*
X15326Y65599D01*
X15335Y65584D01*
X15346Y65566D01*
X15357Y65543D01*
X15369Y65519D01*
X15380Y65492D01*
X15393Y65462D01*
X15402Y65431D01*
X15411Y65395D01*
X15420Y65360D01*
X15426Y65321D01*
X15430Y65283D01*
X15431Y65242D01*
Y65240D01*
Y65235D01*
Y65223D01*
X15430Y65210D01*
Y65196D01*
X15428Y65177D01*
X15426Y65155D01*
X15422Y65133D01*
X15413Y65081D01*
X15398Y65024D01*
X15380Y64964D01*
X15354Y64905D01*
Y64903D01*
X15350Y64898D01*
X15346Y64890D01*
X15341Y64879D01*
X15333Y64866D01*
X15324Y64851D01*
X15302Y64818D01*
X15274Y64779D01*
X15243Y64741D01*
X15208Y64702D01*
X15167Y64668D01*
X15165D01*
X15161Y64665D01*
X15156Y64661D01*
X15146Y64655D01*
X15135Y64648D01*
X15123Y64641D01*
X15108Y64631D01*
X15091Y64622D01*
X15071Y64611D01*
X15050Y64602D01*
X15002Y64579D01*
X14949Y64561D01*
X14887Y64543D01*
X14886D01*
X14880Y64541D01*
X14871Y64539D01*
X14858Y64535D01*
X14841Y64533D01*
X14821Y64530D01*
X14799Y64526D01*
X14773Y64522D01*
X14745Y64517D01*
X14714Y64513D01*
X14679Y64509D01*
X14643Y64507D01*
X14604Y64504D01*
X14564Y64502D01*
X14519Y64500D01*
X13500D01*
Y67060D01*
X14486D01*
X14506Y67059D01*
D02*
G37*
G36*
X11398Y71145D02*
X11422D01*
X11451Y71142D01*
X11483Y71140D01*
X11520Y71136D01*
X11557Y71131D01*
X11598Y71125D01*
X11681Y71109D01*
X11725Y71097D01*
X11768Y71086D01*
X11810Y71071D01*
X11851Y71055D01*
X11853Y71053D01*
X11860Y71051D01*
X11871Y71046D01*
X11886Y71038D01*
X11905Y71029D01*
X11925Y71016D01*
X11949Y71003D01*
X11973Y70986D01*
X12001Y70970D01*
X12027Y70949D01*
X12055Y70927D01*
X12082Y70903D01*
X12110Y70877D01*
X12136Y70848D01*
X12162Y70818D01*
X12184Y70785D01*
X12186Y70783D01*
X12190Y70777D01*
X12195Y70766D01*
X12202Y70753D01*
X12212Y70737D01*
X12223Y70716D01*
X12232Y70694D01*
X12245Y70668D01*
X12256Y70640D01*
X12267Y70609D01*
X12278Y70576D01*
X12288Y70540D01*
X12297Y70503D01*
X12304Y70465D01*
X12308Y70424D01*
X12312Y70383D01*
X11986Y70359D01*
Y70363D01*
X11984Y70370D01*
X11982Y70383D01*
X11979Y70400D01*
X11975Y70418D01*
X11970Y70442D01*
X11962Y70468D01*
X11953Y70496D01*
X11944Y70526D01*
X11931Y70555D01*
X11916Y70585D01*
X11899Y70616D01*
X11881Y70646D01*
X11858Y70674D01*
X11834Y70701D01*
X11808Y70726D01*
X11807Y70727D01*
X11801Y70731D01*
X11794Y70737D01*
X11781Y70746D01*
X11764Y70755D01*
X11746Y70764D01*
X11723Y70776D01*
X11698Y70789D01*
X11668Y70799D01*
X11635Y70811D01*
X11598Y70820D01*
X11559Y70831D01*
X11514Y70838D01*
X11468Y70844D01*
X11418Y70848D01*
X11365Y70850D01*
X11335D01*
X11315Y70848D01*
X11289Y70846D01*
X11261Y70844D01*
X11228Y70840D01*
X11194Y70835D01*
X11120Y70822D01*
X11083Y70812D01*
X11046Y70801D01*
X11011Y70789D01*
X10976Y70774D01*
X10944Y70757D01*
X10917Y70737D01*
X10915Y70735D01*
X10911Y70731D01*
X10904Y70726D01*
X10895Y70716D01*
X10885Y70705D01*
X10872Y70692D01*
X10861Y70677D01*
X10848Y70661D01*
X10835Y70642D01*
X10823Y70620D01*
X10800Y70574D01*
X10791Y70550D01*
X10784Y70522D01*
X10780Y70494D01*
X10778Y70465D01*
Y70463D01*
Y70459D01*
Y70452D01*
X10780Y70442D01*
X10782Y70429D01*
X10784Y70417D01*
X10791Y70385D01*
X10802Y70348D01*
X10819Y70311D01*
X10830Y70291D01*
X10845Y70272D01*
X10859Y70254D01*
X10876Y70237D01*
X10878Y70235D01*
X10882Y70234D01*
X10887Y70228D01*
X10898Y70222D01*
X10911Y70213D01*
X10930Y70204D01*
X10950Y70193D01*
X10976Y70180D01*
X11007Y70167D01*
X11043Y70152D01*
X11085Y70137D01*
X11131Y70121D01*
X11185Y70104D01*
X11244Y70087D01*
X11311Y70071D01*
X11385Y70052D01*
X11387D01*
X11390Y70050D01*
X11396D01*
X11403Y70048D01*
X11413Y70047D01*
X11424Y70043D01*
X11451Y70037D01*
X11485Y70028D01*
X11524Y70019D01*
X11566Y70010D01*
X11611Y69997D01*
X11705Y69973D01*
X11751Y69960D01*
X11797Y69945D01*
X11842Y69932D01*
X11883Y69917D01*
X11919Y69904D01*
X11951Y69891D01*
X11953Y69889D01*
X11960Y69886D01*
X11973Y69880D01*
X11988Y69873D01*
X12006Y69862D01*
X12027Y69850D01*
X12051Y69836D01*
X12077Y69819D01*
X12103Y69802D01*
X12130Y69782D01*
X12186Y69738D01*
X12238Y69686D01*
X12260Y69658D01*
X12282Y69629D01*
X12284Y69627D01*
X12288Y69621D01*
X12291Y69612D01*
X12299Y69601D01*
X12306Y69586D01*
X12315Y69567D01*
X12326Y69547D01*
X12336Y69525D01*
X12345Y69499D01*
X12356Y69471D01*
X12365Y69442D01*
X12373Y69408D01*
X12380Y69375D01*
X12386Y69340D01*
X12388Y69305D01*
X12389Y69266D01*
Y69264D01*
Y69257D01*
Y69246D01*
X12388Y69231D01*
X12386Y69212D01*
X12384Y69192D01*
X12380Y69168D01*
X12375Y69140D01*
X12369Y69112D01*
X12360Y69081D01*
X12350Y69050D01*
X12339Y69016D01*
X12326Y68983D01*
X12310Y68948D01*
X12291Y68914D01*
X12271Y68879D01*
X12269Y68877D01*
X12265Y68872D01*
X12258Y68863D01*
X12249Y68850D01*
X12238Y68835D01*
X12223Y68816D01*
X12206Y68798D01*
X12186Y68778D01*
X12164Y68755D01*
X12138Y68733D01*
X12110Y68709D01*
X12081Y68685D01*
X12049Y68663D01*
X12014Y68641D01*
X11977Y68620D01*
X11936Y68600D01*
X11934Y68598D01*
X11927Y68596D01*
X11914Y68591D01*
X11897Y68585D01*
X11877Y68578D01*
X11853Y68568D01*
X11825Y68559D01*
X11794Y68550D01*
X11759Y68541D01*
X11720Y68531D01*
X11679Y68524D01*
X11637Y68515D01*
X11592Y68509D01*
X11544Y68504D01*
X11494Y68502D01*
X11444Y68500D01*
X11411D01*
X11387Y68502D01*
X11357Y68504D01*
X11322Y68506D01*
X11283Y68509D01*
X11241Y68513D01*
X11196Y68519D01*
X11150Y68524D01*
X11052Y68543D01*
X11002Y68554D01*
X10954Y68567D01*
X10906Y68583D01*
X10861Y68600D01*
X10859Y68602D01*
X10850Y68605D01*
X10839Y68611D01*
X10823Y68618D01*
X10802Y68629D01*
X10780Y68642D01*
X10754Y68659D01*
X10728Y68676D01*
X10699Y68696D01*
X10669Y68718D01*
X10637Y68744D01*
X10608Y68772D01*
X10576Y68801D01*
X10547Y68833D01*
X10519Y68868D01*
X10493Y68905D01*
X10491Y68907D01*
X10488Y68914D01*
X10480Y68925D01*
X10473Y68940D01*
X10462Y68961D01*
X10451Y68983D01*
X10438Y69009D01*
X10427Y69038D01*
X10414Y69072D01*
X10401Y69107D01*
X10390Y69146D01*
X10378Y69184D01*
X10369Y69227D01*
X10362Y69271D01*
X10356Y69318D01*
X10354Y69366D01*
X10674Y69394D01*
Y69392D01*
X10676Y69384D01*
Y69375D01*
X10680Y69362D01*
X10682Y69345D01*
X10686Y69325D01*
X10691Y69305D01*
X10697Y69281D01*
X10710Y69231D01*
X10728Y69177D01*
X10750Y69125D01*
X10778Y69075D01*
X10780Y69073D01*
X10782Y69070D01*
X10787Y69064D01*
X10795Y69055D01*
X10802Y69044D01*
X10813Y69033D01*
X10826Y69020D01*
X10841Y69005D01*
X10858Y68990D01*
X10878Y68974D01*
X10898Y68957D01*
X10922Y68940D01*
X10946Y68924D01*
X10974Y68907D01*
X11004Y68892D01*
X11035Y68877D01*
X11037D01*
X11043Y68874D01*
X11054Y68870D01*
X11067Y68866D01*
X11083Y68861D01*
X11102Y68853D01*
X11126Y68846D01*
X11150Y68840D01*
X11178Y68833D01*
X11209Y68826D01*
X11241Y68820D01*
X11276Y68813D01*
X11350Y68805D01*
X11429Y68801D01*
X11448D01*
X11463Y68803D01*
X11479D01*
X11498Y68805D01*
X11520Y68807D01*
X11544Y68809D01*
X11598Y68816D01*
X11655Y68826D01*
X11712Y68840D01*
X11770Y68859D01*
X11772D01*
X11777Y68861D01*
X11784Y68864D01*
X11794Y68870D01*
X11807Y68875D01*
X11820Y68883D01*
X11853Y68900D01*
X11888Y68922D01*
X11925Y68950D01*
X11960Y68981D01*
X11990Y69016D01*
Y69018D01*
X11993Y69022D01*
X11997Y69027D01*
X12001Y69035D01*
X12006Y69044D01*
X12014Y69055D01*
X12027Y69083D01*
X12040Y69114D01*
X12053Y69151D01*
X12060Y69194D01*
X12064Y69236D01*
Y69238D01*
Y69242D01*
Y69247D01*
X12062Y69257D01*
Y69268D01*
X12060Y69279D01*
X12055Y69309D01*
X12047Y69340D01*
X12034Y69375D01*
X12016Y69410D01*
X11992Y69445D01*
Y69447D01*
X11988Y69449D01*
X11979Y69460D01*
X11960Y69477D01*
X11949Y69488D01*
X11936Y69499D01*
X11921Y69510D01*
X11905Y69523D01*
X11886Y69536D01*
X11864Y69549D01*
X11842Y69562D01*
X11816Y69575D01*
X11790Y69586D01*
X11760Y69599D01*
X11759D01*
X11755Y69601D01*
X11749Y69603D01*
X11738Y69606D01*
X11725Y69610D01*
X11710Y69616D01*
X11690Y69621D01*
X11666Y69629D01*
X11637Y69638D01*
X11605Y69647D01*
X11568Y69656D01*
X11525Y69667D01*
X11479Y69680D01*
X11426Y69693D01*
X11368Y69708D01*
X11305Y69723D01*
X11303D01*
X11302Y69725D01*
X11296D01*
X11291Y69727D01*
X11272Y69732D01*
X11248Y69738D01*
X11220Y69745D01*
X11187Y69754D01*
X11150Y69763D01*
X11113Y69775D01*
X11032Y69799D01*
X10950Y69826D01*
X10911Y69841D01*
X10874Y69856D01*
X10843Y69869D01*
X10813Y69884D01*
X10811Y69886D01*
X10806Y69888D01*
X10797Y69893D01*
X10784Y69901D01*
X10769Y69910D01*
X10750Y69923D01*
X10732Y69936D01*
X10710Y69950D01*
X10665Y69984D01*
X10621Y70024D01*
X10576Y70071D01*
X10558Y70097D01*
X10539Y70122D01*
X10538Y70124D01*
X10536Y70130D01*
X10532Y70137D01*
X10526Y70148D01*
X10519Y70161D01*
X10512Y70176D01*
X10504Y70195D01*
X10495Y70215D01*
X10488Y70239D01*
X10478Y70263D01*
X10465Y70317D01*
X10454Y70376D01*
X10452Y70407D01*
X10451Y70441D01*
Y70442D01*
Y70450D01*
Y70459D01*
X10452Y70474D01*
X10454Y70491D01*
X10456Y70511D01*
X10460Y70533D01*
X10464Y70559D01*
X10471Y70587D01*
X10476Y70614D01*
X10486Y70644D01*
X10497Y70676D01*
X10510Y70707D01*
X10525Y70739D01*
X10541Y70772D01*
X10560Y70803D01*
X10562Y70805D01*
X10565Y70811D01*
X10571Y70820D01*
X10580Y70831D01*
X10591Y70846D01*
X10606Y70861D01*
X10623Y70879D01*
X10641Y70898D01*
X10661Y70918D01*
X10686Y70940D01*
X10712Y70960D01*
X10741Y70983D01*
X10773Y71003D01*
X10806Y71023D01*
X10841Y71042D01*
X10880Y71059D01*
X10882Y71060D01*
X10889Y71062D01*
X10900Y71066D01*
X10917Y71073D01*
X10937Y71079D01*
X10959Y71086D01*
X10987Y71096D01*
X11019Y71103D01*
X11052Y71112D01*
X11087Y71120D01*
X11126Y71127D01*
X11167Y71134D01*
X11211Y71140D01*
X11255Y71144D01*
X11302Y71145D01*
X11350Y71147D01*
X11377D01*
X11398Y71145D01*
D02*
G37*
G36*
X15087D02*
X15113D01*
X15140Y71142D01*
X15172Y71140D01*
X15207Y71136D01*
X15246Y71131D01*
X15285Y71125D01*
X15370Y71109D01*
X15412Y71099D01*
X15457Y71086D01*
X15499Y71073D01*
X15542Y71057D01*
X15544Y71055D01*
X15551Y71053D01*
X15564Y71048D01*
X15579Y71040D01*
X15597Y71031D01*
X15619Y71020D01*
X15643Y71007D01*
X15671Y70992D01*
X15699Y70973D01*
X15727Y70955D01*
X15786Y70912D01*
X15843Y70863D01*
X15871Y70835D01*
X15895Y70805D01*
X15897Y70803D01*
X15901Y70798D01*
X15908Y70789D01*
X15915Y70776D01*
X15927Y70761D01*
X15939Y70740D01*
X15953Y70718D01*
X15967Y70692D01*
X15982Y70665D01*
X15999Y70631D01*
X16015Y70598D01*
X16030Y70561D01*
X16047Y70520D01*
X16062Y70478D01*
X16076Y70433D01*
X16089Y70385D01*
X15784Y70302D01*
Y70304D01*
X15782Y70311D01*
X15779Y70320D01*
X15773Y70335D01*
X15767Y70350D01*
X15762Y70370D01*
X15753Y70391D01*
X15745Y70415D01*
X15723Y70463D01*
X15699Y70515D01*
X15671Y70565D01*
X15656Y70587D01*
X15640Y70609D01*
X15638Y70611D01*
X15636Y70614D01*
X15631Y70620D01*
X15625Y70627D01*
X15616Y70637D01*
X15605Y70648D01*
X15592Y70661D01*
X15577Y70674D01*
X15560Y70688D01*
X15544Y70703D01*
X15501Y70733D01*
X15451Y70762D01*
X15396Y70789D01*
X15394D01*
X15388Y70792D01*
X15379Y70794D01*
X15368Y70799D01*
X15353Y70805D01*
X15335Y70811D01*
X15314Y70816D01*
X15292Y70824D01*
X15268Y70829D01*
X15240Y70835D01*
X15211Y70840D01*
X15181Y70846D01*
X15114Y70853D01*
X15044Y70857D01*
X15022D01*
X15005Y70855D01*
X14985D01*
X14961Y70853D01*
X14935Y70851D01*
X14907Y70848D01*
X14876Y70844D01*
X14842Y70840D01*
X14776Y70827D01*
X14707Y70809D01*
X14641Y70785D01*
X14639D01*
X14633Y70781D01*
X14624Y70777D01*
X14613Y70772D01*
X14598Y70764D01*
X14582Y70757D01*
X14563Y70746D01*
X14545Y70735D01*
X14500Y70709D01*
X14456Y70676D01*
X14410Y70639D01*
X14369Y70598D01*
X14367Y70596D01*
X14365Y70592D01*
X14360Y70587D01*
X14352Y70578D01*
X14343Y70566D01*
X14334Y70555D01*
X14323Y70540D01*
X14310Y70524D01*
X14284Y70487D01*
X14256Y70444D01*
X14230Y70396D01*
X14206Y70346D01*
X14204Y70344D01*
X14202Y70335D01*
X14197Y70322D01*
X14191Y70306D01*
X14184Y70283D01*
X14176Y70258D01*
X14167Y70226D01*
X14158Y70193D01*
X14149Y70156D01*
X14140Y70117D01*
X14132Y70074D01*
X14125Y70028D01*
X14119Y69982D01*
X14114Y69932D01*
X14112Y69882D01*
X14110Y69830D01*
Y69828D01*
Y69826D01*
Y69815D01*
Y69797D01*
X14112Y69773D01*
X14114Y69743D01*
X14116Y69710D01*
X14119Y69671D01*
X14125Y69630D01*
X14130Y69586D01*
X14138Y69540D01*
X14149Y69492D01*
X14160Y69444D01*
X14173Y69395D01*
X14188Y69347D01*
X14206Y69301D01*
X14226Y69257D01*
X14228Y69255D01*
X14232Y69247D01*
X14239Y69235D01*
X14249Y69220D01*
X14262Y69199D01*
X14276Y69179D01*
X14293Y69155D01*
X14313Y69129D01*
X14337Y69101D01*
X14363Y69073D01*
X14391Y69044D01*
X14423Y69016D01*
X14456Y68988D01*
X14491Y68963D01*
X14530Y68938D01*
X14571Y68916D01*
X14572Y68914D01*
X14582Y68911D01*
X14593Y68905D01*
X14609Y68900D01*
X14630Y68890D01*
X14656Y68881D01*
X14683Y68872D01*
X14715Y68861D01*
X14750Y68850D01*
X14787Y68840D01*
X14826Y68831D01*
X14867Y68822D01*
X14911Y68816D01*
X14955Y68811D01*
X15002Y68807D01*
X15048Y68805D01*
X15070D01*
X15085Y68807D01*
X15105D01*
X15129Y68809D01*
X15155Y68813D01*
X15185Y68816D01*
X15216Y68820D01*
X15249Y68826D01*
X15322Y68840D01*
X15399Y68861D01*
X15438Y68874D01*
X15477Y68888D01*
X15479Y68890D01*
X15486Y68892D01*
X15497Y68898D01*
X15512Y68903D01*
X15529Y68911D01*
X15549Y68920D01*
X15571Y68931D01*
X15595Y68944D01*
X15647Y68970D01*
X15701Y69001D01*
X15753Y69035D01*
X15775Y69051D01*
X15797Y69070D01*
Y69547D01*
X15044D01*
Y69849D01*
X16128D01*
Y68898D01*
X16125Y68896D01*
X16117Y68888D01*
X16104Y68879D01*
X16086Y68864D01*
X16062Y68850D01*
X16036Y68829D01*
X16004Y68809D01*
X15971Y68787D01*
X15932Y68763D01*
X15893Y68739D01*
X15851Y68713D01*
X15804Y68689D01*
X15710Y68641D01*
X15662Y68620D01*
X15612Y68600D01*
X15608Y68598D01*
X15601Y68596D01*
X15586Y68591D01*
X15566Y68585D01*
X15542Y68578D01*
X15514Y68568D01*
X15481Y68559D01*
X15446Y68550D01*
X15405Y68541D01*
X15362Y68531D01*
X15318Y68524D01*
X15272Y68515D01*
X15172Y68504D01*
X15120Y68502D01*
X15068Y68500D01*
X15042D01*
X15031Y68502D01*
X15005D01*
X14972Y68506D01*
X14933Y68509D01*
X14889Y68513D01*
X14841Y68520D01*
X14789Y68530D01*
X14735Y68539D01*
X14678Y68552D01*
X14619Y68568D01*
X14559Y68587D01*
X14500Y68607D01*
X14441Y68633D01*
X14382Y68661D01*
X14378Y68663D01*
X14369Y68668D01*
X14352Y68678D01*
X14332Y68691D01*
X14306Y68707D01*
X14276Y68727D01*
X14243Y68752D01*
X14208Y68779D01*
X14171Y68811D01*
X14132Y68846D01*
X14093Y68883D01*
X14054Y68925D01*
X14017Y68972D01*
X13980Y69020D01*
X13947Y69072D01*
X13916Y69127D01*
X13914Y69131D01*
X13908Y69142D01*
X13901Y69159D01*
X13892Y69181D01*
X13881Y69210D01*
X13866Y69244D01*
X13853Y69284D01*
X13838Y69327D01*
X13823Y69377D01*
X13810Y69429D01*
X13797Y69484D01*
X13784Y69545D01*
X13775Y69608D01*
X13768Y69673D01*
X13762Y69740D01*
X13760Y69810D01*
Y69812D01*
Y69814D01*
Y69819D01*
Y69826D01*
Y69836D01*
X13762Y69847D01*
Y69873D01*
X13766Y69906D01*
X13768Y69945D01*
X13773Y69989D01*
X13781Y70037D01*
X13788Y70089D01*
X13799Y70145D01*
X13810Y70202D01*
X13825Y70261D01*
X13844Y70322D01*
X13864Y70385D01*
X13888Y70446D01*
X13916Y70507D01*
Y70509D01*
X13917Y70511D01*
X13923Y70522D01*
X13932Y70539D01*
X13945Y70561D01*
X13960Y70587D01*
X13980Y70618D01*
X14004Y70653D01*
X14030Y70690D01*
X14060Y70729D01*
X14093Y70768D01*
X14130Y70809D01*
X14171Y70848D01*
X14215Y70886D01*
X14262Y70924D01*
X14311Y70959D01*
X14365Y70990D01*
X14369Y70992D01*
X14378Y70998D01*
X14395Y71005D01*
X14417Y71014D01*
X14445Y71027D01*
X14478Y71040D01*
X14517Y71055D01*
X14559Y71070D01*
X14608Y71083D01*
X14659Y71097D01*
X14715Y71110D01*
X14774Y71123D01*
X14837Y71133D01*
X14902Y71140D01*
X14970Y71145D01*
X15041Y71147D01*
X15068D01*
X15087Y71145D01*
D02*
G37*
G36*
X18641Y68543D02*
X18291D01*
X16950Y70552D01*
Y68543D01*
X16624D01*
Y71103D01*
X16972D01*
X18315Y69092D01*
Y71103D01*
X18641D01*
Y68543D01*
D02*
G37*
G36*
X13248D02*
X12909D01*
Y71103D01*
X13248D01*
Y68543D01*
D02*
G37*
G36*
X9940Y70801D02*
X8428D01*
Y70017D01*
X9844D01*
Y69715D01*
X8428D01*
Y68844D01*
X9999D01*
Y68543D01*
X8090D01*
Y71103D01*
X9940D01*
Y70801D01*
D02*
G37*
G36*
X6455Y71101D02*
X6484D01*
X6516Y71099D01*
X6551D01*
X6625Y71094D01*
X6701Y71088D01*
X6738Y71083D01*
X6773Y71079D01*
X6806Y71073D01*
X6838Y71066D01*
X6839D01*
X6847Y71064D01*
X6858Y71060D01*
X6875Y71057D01*
X6893Y71049D01*
X6915Y71042D01*
X6939Y71034D01*
X6967Y71023D01*
X7024Y70999D01*
X7087Y70966D01*
X7150Y70929D01*
X7182Y70907D01*
X7211Y70883D01*
X7213Y70881D01*
X7220Y70875D01*
X7232Y70864D01*
X7244Y70851D01*
X7261Y70835D01*
X7282Y70814D01*
X7302Y70790D01*
X7326Y70764D01*
X7350Y70733D01*
X7374Y70700D01*
X7400Y70665D01*
X7426Y70626D01*
X7450Y70583D01*
X7472Y70540D01*
X7494Y70492D01*
X7515Y70444D01*
X7517Y70441D01*
X7518Y70431D01*
X7524Y70418D01*
X7531Y70398D01*
X7539Y70372D01*
X7546Y70343D01*
X7555Y70307D01*
X7566Y70269D01*
X7576Y70226D01*
X7585Y70178D01*
X7592Y70128D01*
X7600Y70074D01*
X7607Y70019D01*
X7613Y69960D01*
X7615Y69899D01*
X7616Y69836D01*
Y69832D01*
Y69823D01*
Y69808D01*
X7615Y69786D01*
Y69762D01*
X7613Y69732D01*
X7611Y69699D01*
X7607Y69662D01*
X7603Y69623D01*
X7600Y69580D01*
X7587Y69493D01*
X7570Y69405D01*
X7548Y69318D01*
Y69316D01*
X7544Y69309D01*
X7541Y69296D01*
X7535Y69281D01*
X7529Y69262D01*
X7520Y69240D01*
X7511Y69214D01*
X7500Y69188D01*
X7476Y69129D01*
X7444Y69066D01*
X7411Y69005D01*
X7372Y68946D01*
X7370Y68944D01*
X7367Y68940D01*
X7361Y68931D01*
X7354Y68922D01*
X7344Y68909D01*
X7332Y68894D01*
X7304Y68861D01*
X7269Y68824D01*
X7230Y68785D01*
X7185Y68748D01*
X7139Y68713D01*
X7137D01*
X7134Y68709D01*
X7126Y68705D01*
X7117Y68700D01*
X7104Y68692D01*
X7089Y68685D01*
X7073Y68676D01*
X7054Y68666D01*
X7032Y68655D01*
X7010Y68644D01*
X6984Y68635D01*
X6958Y68624D01*
X6899Y68604D01*
X6834Y68585D01*
X6832D01*
X6826Y68583D01*
X6815Y68581D01*
X6802Y68578D01*
X6786Y68576D01*
X6765Y68572D01*
X6741Y68568D01*
X6715Y68565D01*
X6686Y68559D01*
X6654Y68555D01*
X6621Y68552D01*
X6584Y68550D01*
X6547Y68546D01*
X6506Y68544D01*
X6423Y68543D01*
X5500D01*
Y71103D01*
X6431D01*
X6455Y71101D01*
D02*
G37*
G36*
X41446Y69543D02*
X41118D01*
Y71685D01*
X40373Y69543D01*
X40066D01*
X39327Y71722D01*
Y69543D01*
X39000D01*
Y72103D01*
X39509D01*
X40116Y70290D01*
X40117Y70286D01*
X40119Y70279D01*
X40123Y70266D01*
X40128Y70249D01*
X40136Y70227D01*
X40143Y70203D01*
X40153Y70177D01*
X40162Y70148D01*
X40182Y70086D01*
X40203Y70024D01*
X40212Y69992D01*
X40221Y69963D01*
X40230Y69937D01*
X40238Y69911D01*
Y69912D01*
X40240Y69918D01*
X40243Y69925D01*
X40247Y69937D01*
X40251Y69951D01*
X40256Y69970D01*
X40264Y69990D01*
X40271Y70014D01*
X40280Y70042D01*
X40291Y70072D01*
X40302Y70105D01*
X40314Y70142D01*
X40328Y70183D01*
X40341Y70225D01*
X40358Y70271D01*
X40374Y70321D01*
X40989Y72103D01*
X41446D01*
Y69543D01*
D02*
G37*
G36*
X49373Y70623D02*
Y70621D01*
Y70619D01*
Y70614D01*
Y70606D01*
Y70597D01*
Y70586D01*
X49371Y70560D01*
Y70527D01*
X49369Y70490D01*
X49366Y70447D01*
X49362Y70403D01*
X49356Y70355D01*
X49351Y70305D01*
X49336Y70203D01*
X49325Y70151D01*
X49314Y70103D01*
X49299Y70055D01*
X49284Y70011D01*
X49282Y70009D01*
X49281Y70001D01*
X49275Y69988D01*
X49268Y69974D01*
X49256Y69953D01*
X49245Y69931D01*
X49231Y69907D01*
X49212Y69879D01*
X49192Y69850D01*
X49169Y69820D01*
X49143Y69790D01*
X49114Y69759D01*
X49082Y69727D01*
X49049Y69698D01*
X49010Y69668D01*
X48970Y69641D01*
X48968Y69639D01*
X48959Y69635D01*
X48946Y69628D01*
X48929Y69618D01*
X48905Y69607D01*
X48879Y69596D01*
X48846Y69583D01*
X48811Y69570D01*
X48768Y69557D01*
X48724Y69544D01*
X48676Y69533D01*
X48622Y69522D01*
X48564Y69513D01*
X48503Y69506D01*
X48441Y69502D01*
X48372Y69500D01*
X48337D01*
X48313Y69502D01*
X48281Y69504D01*
X48246Y69507D01*
X48206Y69511D01*
X48163Y69515D01*
X48117Y69522D01*
X48069Y69530D01*
X48021Y69541D01*
X47971Y69552D01*
X47923Y69567D01*
X47873Y69583D01*
X47826Y69602D01*
X47782Y69624D01*
X47780Y69626D01*
X47773Y69630D01*
X47760Y69637D01*
X47745Y69646D01*
X47726Y69659D01*
X47704Y69676D01*
X47682Y69694D01*
X47656Y69715D01*
X47630Y69739D01*
X47602Y69766D01*
X47575Y69794D01*
X47549Y69827D01*
X47523Y69861D01*
X47499Y69900D01*
X47477Y69938D01*
X47456Y69981D01*
X47455Y69985D01*
X47453Y69992D01*
X47447Y70005D01*
X47442Y70024D01*
X47434Y70048D01*
X47427Y70077D01*
X47418Y70110D01*
X47408Y70149D01*
X47399Y70194D01*
X47390Y70242D01*
X47382Y70294D01*
X47375Y70351D01*
X47369Y70412D01*
X47364Y70479D01*
X47362Y70549D01*
X47360Y70623D01*
Y72103D01*
X47699D01*
Y70625D01*
Y70621D01*
Y70610D01*
Y70593D01*
X47701Y70571D01*
Y70543D01*
X47702Y70512D01*
X47704Y70477D01*
X47706Y70438D01*
X47710Y70399D01*
X47714Y70358D01*
X47725Y70277D01*
X47732Y70238D01*
X47739Y70199D01*
X47749Y70164D01*
X47760Y70133D01*
Y70131D01*
X47763Y70125D01*
X47767Y70118D01*
X47773Y70107D01*
X47778Y70094D01*
X47787Y70079D01*
X47810Y70044D01*
X47839Y70005D01*
X47856Y69985D01*
X47876Y69964D01*
X47897Y69944D01*
X47921Y69925D01*
X47945Y69907D01*
X47973Y69890D01*
X47974D01*
X47980Y69887D01*
X47987Y69883D01*
X48000Y69877D01*
X48015Y69870D01*
X48032Y69863D01*
X48052Y69855D01*
X48076Y69848D01*
X48102Y69840D01*
X48130Y69833D01*
X48159Y69826D01*
X48193Y69818D01*
X48228Y69813D01*
X48265Y69809D01*
X48302Y69807D01*
X48342Y69805D01*
X48359D01*
X48378Y69807D01*
X48404D01*
X48435Y69811D01*
X48468Y69814D01*
X48507Y69820D01*
X48550Y69826D01*
X48592Y69835D01*
X48637Y69846D01*
X48681Y69861D01*
X48726Y69876D01*
X48768Y69896D01*
X48807Y69918D01*
X48844Y69944D01*
X48875Y69974D01*
X48877Y69976D01*
X48883Y69981D01*
X48890Y69992D01*
X48899Y70007D01*
X48912Y70027D01*
X48925Y70053D01*
X48940Y70083D01*
X48955Y70120D01*
X48970Y70161D01*
X48984Y70207D01*
X48997Y70260D01*
X49010Y70320D01*
X49020Y70386D01*
X49027Y70458D01*
X49033Y70538D01*
X49034Y70625D01*
Y72103D01*
X49373D01*
Y70623D01*
D02*
G37*
G36*
X53783Y71801D02*
X52272D01*
Y71017D01*
X53687D01*
Y70715D01*
X52272D01*
Y69844D01*
X53843D01*
Y69543D01*
X51933D01*
Y72103D01*
X53783D01*
Y71801D01*
D02*
G37*
G36*
X50263Y69844D02*
X51523D01*
Y69543D01*
X49924D01*
Y72103D01*
X50263D01*
Y69844D01*
D02*
G37*
G36*
X45727Y72101D02*
X45756D01*
X45788Y72099D01*
X45823D01*
X45897Y72094D01*
X45973Y72088D01*
X46010Y72083D01*
X46045Y72079D01*
X46078Y72073D01*
X46110Y72066D01*
X46111D01*
X46119Y72064D01*
X46130Y72060D01*
X46147Y72057D01*
X46165Y72049D01*
X46187Y72042D01*
X46211Y72035D01*
X46239Y72023D01*
X46296Y71999D01*
X46359Y71966D01*
X46422Y71929D01*
X46454Y71907D01*
X46483Y71883D01*
X46485Y71881D01*
X46492Y71875D01*
X46504Y71864D01*
X46517Y71851D01*
X46533Y71835D01*
X46554Y71814D01*
X46574Y71790D01*
X46598Y71764D01*
X46622Y71733D01*
X46646Y71700D01*
X46672Y71665D01*
X46698Y71626D01*
X46722Y71583D01*
X46744Y71540D01*
X46766Y71492D01*
X46787Y71444D01*
X46788Y71441D01*
X46790Y71431D01*
X46796Y71418D01*
X46803Y71398D01*
X46811Y71372D01*
X46818Y71343D01*
X46827Y71307D01*
X46839Y71269D01*
X46848Y71226D01*
X46857Y71178D01*
X46864Y71128D01*
X46872Y71074D01*
X46879Y71019D01*
X46885Y70960D01*
X46887Y70899D01*
X46888Y70836D01*
Y70832D01*
Y70823D01*
Y70808D01*
X46887Y70786D01*
Y70762D01*
X46885Y70732D01*
X46883Y70699D01*
X46879Y70662D01*
X46876Y70623D01*
X46872Y70580D01*
X46859Y70493D01*
X46842Y70405D01*
X46820Y70318D01*
Y70316D01*
X46816Y70309D01*
X46812Y70296D01*
X46807Y70281D01*
X46801Y70262D01*
X46792Y70240D01*
X46783Y70214D01*
X46772Y70188D01*
X46748Y70129D01*
X46716Y70066D01*
X46683Y70005D01*
X46644Y69946D01*
X46642Y69944D01*
X46639Y69940D01*
X46633Y69931D01*
X46626Y69922D01*
X46616Y69909D01*
X46604Y69894D01*
X46576Y69861D01*
X46541Y69824D01*
X46502Y69785D01*
X46457Y69748D01*
X46411Y69713D01*
X46409D01*
X46406Y69709D01*
X46398Y69705D01*
X46389Y69700D01*
X46376Y69692D01*
X46361Y69685D01*
X46345Y69676D01*
X46326Y69666D01*
X46304Y69655D01*
X46282Y69644D01*
X46256Y69635D01*
X46230Y69624D01*
X46171Y69604D01*
X46106Y69585D01*
X46104D01*
X46099Y69583D01*
X46087Y69581D01*
X46074Y69578D01*
X46058Y69576D01*
X46037Y69572D01*
X46013Y69568D01*
X45987Y69565D01*
X45958Y69559D01*
X45926Y69555D01*
X45893Y69552D01*
X45856Y69550D01*
X45819Y69546D01*
X45778Y69544D01*
X45695Y69543D01*
X44772D01*
Y72103D01*
X45703D01*
X45727Y72101D01*
D02*
G37*
G36*
X43146Y72145D02*
X43170D01*
X43201Y72142D01*
X43238Y72138D01*
X43279Y72133D01*
X43323Y72127D01*
X43372Y72118D01*
X43423Y72107D01*
X43477Y72092D01*
X43531Y72075D01*
X43586Y72057D01*
X43642Y72033D01*
X43697Y72007D01*
X43751Y71977D01*
X43755Y71975D01*
X43764Y71970D01*
X43779Y71961D01*
X43797Y71946D01*
X43821Y71929D01*
X43849Y71909D01*
X43878Y71883D01*
X43912Y71855D01*
X43947Y71824D01*
X43982Y71789D01*
X44019Y71750D01*
X44054Y71707D01*
X44089Y71661D01*
X44124Y71613D01*
X44156Y71561D01*
X44186Y71505D01*
X44187Y71502D01*
X44193Y71492D01*
X44200Y71476D01*
X44210Y71452D01*
X44221Y71424D01*
X44234Y71389D01*
X44247Y71350D01*
X44261Y71306D01*
X44274Y71258D01*
X44287Y71204D01*
X44300Y71148D01*
X44311Y71087D01*
X44322Y71024D01*
X44330Y70958D01*
X44334Y70889D01*
X44335Y70819D01*
Y70817D01*
Y70815D01*
Y70810D01*
Y70802D01*
Y70793D01*
X44334Y70780D01*
Y70752D01*
X44330Y70719D01*
X44328Y70680D01*
X44322Y70634D01*
X44315Y70586D01*
X44308Y70532D01*
X44297Y70477D01*
X44284Y70419D01*
X44269Y70360D01*
X44250Y70299D01*
X44230Y70240D01*
X44206Y70181D01*
X44178Y70122D01*
X44176Y70118D01*
X44171Y70109D01*
X44161Y70092D01*
X44149Y70072D01*
X44134Y70046D01*
X44113Y70016D01*
X44089Y69983D01*
X44063Y69948D01*
X44034Y69911D01*
X44001Y69874D01*
X43964Y69835D01*
X43925Y69796D01*
X43880Y69759D01*
X43834Y69722D01*
X43784Y69689D01*
X43732Y69657D01*
X43729Y69655D01*
X43719Y69650D01*
X43703Y69642D01*
X43682Y69633D01*
X43655Y69620D01*
X43623Y69607D01*
X43588Y69592D01*
X43547Y69579D01*
X43501Y69565D01*
X43453Y69550D01*
X43403Y69537D01*
X43347Y69524D01*
X43292Y69515D01*
X43233Y69507D01*
X43172Y69502D01*
X43111Y69500D01*
X43094D01*
X43075Y69502D01*
X43050Y69504D01*
X43018Y69506D01*
X42981Y69509D01*
X42939Y69515D01*
X42894Y69522D01*
X42844Y69531D01*
X42792Y69543D01*
X42739Y69557D01*
X42685Y69574D01*
X42630Y69592D01*
X42572Y69617D01*
X42517Y69642D01*
X42463Y69674D01*
X42459Y69676D01*
X42450Y69681D01*
X42435Y69692D01*
X42417Y69705D01*
X42393Y69724D01*
X42365Y69744D01*
X42336Y69770D01*
X42302Y69798D01*
X42269Y69831D01*
X42232Y69866D01*
X42197Y69905D01*
X42162Y69948D01*
X42127Y69994D01*
X42093Y70042D01*
X42062Y70094D01*
X42032Y70149D01*
X42030Y70153D01*
X42027Y70162D01*
X42019Y70179D01*
X42010Y70203D01*
X41999Y70231D01*
X41986Y70264D01*
X41973Y70301D01*
X41960Y70344D01*
X41945Y70390D01*
X41932Y70440D01*
X41919Y70492D01*
X41908Y70547D01*
X41899Y70606D01*
X41892Y70666D01*
X41888Y70727D01*
X41886Y70789D01*
Y70791D01*
Y70797D01*
Y70806D01*
Y70817D01*
X41888Y70832D01*
Y70850D01*
X41890Y70871D01*
X41892Y70895D01*
X41893Y70921D01*
X41897Y70949D01*
X41901Y70978D01*
X41905Y71010D01*
X41916Y71078D01*
X41929Y71152D01*
X41947Y71232D01*
X41969Y71313D01*
X41997Y71396D01*
X42030Y71479D01*
X42069Y71561D01*
X42115Y71640D01*
X42141Y71679D01*
X42167Y71716D01*
X42197Y71751D01*
X42228Y71787D01*
X42230Y71789D01*
X42232Y71790D01*
X42237Y71796D01*
X42245Y71801D01*
X42252Y71811D01*
X42263Y71820D01*
X42291Y71844D01*
X42325Y71870D01*
X42365Y71901D01*
X42413Y71933D01*
X42467Y71968D01*
X42528Y72001D01*
X42595Y72033D01*
X42667Y72064D01*
X42744Y72092D01*
X42829Y72114D01*
X42918Y72133D01*
X42965Y72138D01*
X43013Y72144D01*
X43061Y72145D01*
X43111Y72147D01*
X43127D01*
X43146Y72145D01*
D02*
G37*
G36*
X54481Y75646D02*
X54509Y75644D01*
X54542Y75642D01*
X54579Y75636D01*
X54622Y75631D01*
X54670Y75623D01*
X54720Y75612D01*
X54772Y75599D01*
X54825Y75585D01*
X54879Y75564D01*
X54933Y75542D01*
X54988Y75516D01*
X55040Y75486D01*
X55090Y75451D01*
X55094Y75449D01*
X55101Y75442D01*
X55116Y75431D01*
X55132Y75414D01*
X55155Y75396D01*
X55179Y75370D01*
X55205Y75342D01*
X55234Y75309D01*
X55264Y75272D01*
X55295Y75231D01*
X55325Y75185D01*
X55354Y75137D01*
X55384Y75083D01*
X55410Y75026D01*
X55436Y74965D01*
X55456Y74900D01*
X55123Y74822D01*
X55121Y74826D01*
X55120Y74835D01*
X55114Y74848D01*
X55107Y74869D01*
X55097Y74891D01*
X55086Y74917D01*
X55071Y74946D01*
X55057Y74978D01*
X55040Y75011D01*
X55020Y75044D01*
X54999Y75077D01*
X54975Y75113D01*
X54949Y75144D01*
X54923Y75176D01*
X54894Y75203D01*
X54862Y75229D01*
X54861Y75231D01*
X54855Y75235D01*
X54846Y75240D01*
X54833Y75250D01*
X54816Y75259D01*
X54796Y75270D01*
X54772Y75281D01*
X54746Y75294D01*
X54716Y75305D01*
X54685Y75316D01*
X54650Y75327D01*
X54613Y75336D01*
X54572Y75346D01*
X54529Y75351D01*
X54485Y75355D01*
X54437Y75357D01*
X54409D01*
X54389Y75355D01*
X54363Y75353D01*
X54333Y75349D01*
X54300Y75346D01*
X54265Y75338D01*
X54226Y75331D01*
X54187Y75322D01*
X54146Y75311D01*
X54104Y75298D01*
X54063Y75281D01*
X54023Y75261D01*
X53982Y75240D01*
X53943Y75214D01*
X53941Y75213D01*
X53934Y75209D01*
X53924Y75200D01*
X53912Y75188D01*
X53895Y75174D01*
X53876Y75157D01*
X53856Y75137D01*
X53834Y75115D01*
X53812Y75089D01*
X53787Y75061D01*
X53765Y75029D01*
X53743Y74994D01*
X53721Y74959D01*
X53701Y74920D01*
X53682Y74880D01*
X53665Y74835D01*
Y74833D01*
X53662Y74824D01*
X53658Y74811D01*
X53652Y74795D01*
X53647Y74772D01*
X53640Y74746D01*
X53634Y74717D01*
X53627Y74683D01*
X53619Y74648D01*
X53612Y74610D01*
X53604Y74569D01*
X53599Y74526D01*
X53589Y74437D01*
X53588Y74391D01*
X53586Y74343D01*
Y74339D01*
Y74328D01*
Y74312D01*
X53588Y74288D01*
X53589Y74260D01*
X53591Y74226D01*
X53593Y74190D01*
X53597Y74151D01*
X53602Y74106D01*
X53608Y74060D01*
X53627Y73966D01*
X53636Y73916D01*
X53649Y73868D01*
X53663Y73820D01*
X53680Y73773D01*
X53682Y73772D01*
X53684Y73762D01*
X53689Y73751D01*
X53699Y73734D01*
X53708Y73714D01*
X53721Y73690D01*
X53736Y73664D01*
X53752Y73636D01*
X53773Y73609D01*
X53795Y73579D01*
X53819Y73548D01*
X53845Y73518D01*
X53874Y73488D01*
X53906Y73461D01*
X53939Y73435D01*
X53976Y73411D01*
X53978Y73409D01*
X53986Y73405D01*
X53997Y73400D01*
X54011Y73392D01*
X54030Y73383D01*
X54052Y73372D01*
X54078Y73363D01*
X54106Y73352D01*
X54137Y73339D01*
X54171Y73329D01*
X54207Y73318D01*
X54244Y73309D01*
X54285Y73302D01*
X54326Y73296D01*
X54368Y73292D01*
X54411Y73290D01*
X54424D01*
X54439Y73292D01*
X54459D01*
X54483Y73296D01*
X54511Y73300D01*
X54544Y73303D01*
X54577Y73311D01*
X54614Y73320D01*
X54653Y73331D01*
X54694Y73344D01*
X54735Y73359D01*
X54775Y73377D01*
X54816Y73400D01*
X54855Y73426D01*
X54894Y73453D01*
X54896Y73455D01*
X54903Y73461D01*
X54912Y73470D01*
X54925Y73485D01*
X54942Y73501D01*
X54960Y73522D01*
X54981Y73548D01*
X55001Y73575D01*
X55023Y73609D01*
X55045Y73644D01*
X55070Y73685D01*
X55090Y73729D01*
X55112Y73775D01*
X55131Y73827D01*
X55147Y73881D01*
X55162Y73940D01*
X55501Y73855D01*
Y73853D01*
X55499Y73849D01*
X55497Y73844D01*
X55495Y73836D01*
X55493Y73827D01*
X55489Y73814D01*
X55480Y73786D01*
X55467Y73751D01*
X55453Y73712D01*
X55434Y73668D01*
X55412Y73620D01*
X55388Y73568D01*
X55360Y73516D01*
X55329Y73464D01*
X55293Y73411D01*
X55255Y73359D01*
X55212Y73309D01*
X55166Y73263D01*
X55116Y73218D01*
X55112Y73216D01*
X55103Y73209D01*
X55088Y73198D01*
X55066Y73185D01*
X55040Y73168D01*
X55007Y73150D01*
X54970Y73129D01*
X54927Y73109D01*
X54881Y73089D01*
X54829Y73068D01*
X54774Y73050D01*
X54714Y73033D01*
X54650Y73020D01*
X54583Y73009D01*
X54513Y73002D01*
X54439Y73000D01*
X54411D01*
X54398Y73002D01*
X54370D01*
X54335Y73006D01*
X54294Y73009D01*
X54248Y73015D01*
X54200Y73020D01*
X54146Y73030D01*
X54093Y73041D01*
X54035Y73055D01*
X53980Y73070D01*
X53924Y73091D01*
X53869Y73113D01*
X53815Y73139D01*
X53765Y73168D01*
X53762Y73170D01*
X53754Y73176D01*
X53741Y73187D01*
X53723Y73200D01*
X53701Y73216D01*
X53676Y73239D01*
X53649Y73263D01*
X53619Y73292D01*
X53588Y73326D01*
X53556Y73361D01*
X53523Y73401D01*
X53490Y73444D01*
X53458Y73492D01*
X53427Y73542D01*
X53397Y73598D01*
X53371Y73655D01*
Y73657D01*
X53369Y73659D01*
X53366Y73670D01*
X53358Y73686D01*
X53351Y73710D01*
X53340Y73740D01*
X53329Y73775D01*
X53316Y73816D01*
X53305Y73860D01*
X53292Y73910D01*
X53279Y73964D01*
X53268Y74019D01*
X53257Y74080D01*
X53249Y74141D01*
X53242Y74206D01*
X53238Y74273D01*
X53236Y74341D01*
Y74343D01*
Y74347D01*
Y74352D01*
Y74360D01*
Y74369D01*
X53238Y74380D01*
Y74408D01*
X53242Y74443D01*
X53244Y74484D01*
X53249Y74530D01*
X53255Y74580D01*
X53264Y74632D01*
X53273Y74687D01*
X53286Y74746D01*
X53301Y74806D01*
X53318Y74865D01*
X53338Y74924D01*
X53362Y74981D01*
X53388Y75039D01*
X53390Y75042D01*
X53395Y75052D01*
X53404Y75066D01*
X53416Y75089D01*
X53432Y75113D01*
X53451Y75140D01*
X53475Y75174D01*
X53501Y75207D01*
X53528Y75242D01*
X53562Y75281D01*
X53597Y75318D01*
X53636Y75355D01*
X53678Y75392D01*
X53723Y75427D01*
X53771Y75460D01*
X53823Y75492D01*
X53826Y75494D01*
X53836Y75499D01*
X53850Y75507D01*
X53873Y75516D01*
X53899Y75529D01*
X53930Y75542D01*
X53967Y75555D01*
X54006Y75570D01*
X54050Y75585D01*
X54098Y75597D01*
X54150Y75612D01*
X54204Y75623D01*
X54261Y75633D01*
X54320Y75640D01*
X54381Y75646D01*
X54444Y75647D01*
X54470D01*
X54481Y75646D01*
D02*
G37*
G36*
X52790Y73043D02*
X52463D01*
Y75185D01*
X51717Y73043D01*
X51410D01*
X50672Y75222D01*
Y73043D01*
X50345D01*
Y75603D01*
X50853D01*
X51460Y73790D01*
X51462Y73786D01*
X51464Y73779D01*
X51468Y73766D01*
X51473Y73749D01*
X51481Y73727D01*
X51488Y73703D01*
X51497Y73677D01*
X51506Y73647D01*
X51527Y73586D01*
X51547Y73524D01*
X51556Y73492D01*
X51566Y73462D01*
X51575Y73437D01*
X51582Y73411D01*
Y73413D01*
X51584Y73418D01*
X51588Y73426D01*
X51591Y73437D01*
X51595Y73451D01*
X51601Y73470D01*
X51608Y73490D01*
X51616Y73514D01*
X51625Y73542D01*
X51636Y73572D01*
X51647Y73605D01*
X51658Y73642D01*
X51673Y73683D01*
X51686Y73725D01*
X51702Y73772D01*
X51719Y73821D01*
X52333Y75603D01*
X52790D01*
Y73043D01*
D02*
G37*
G36*
X49812D02*
X49484D01*
Y75185D01*
X48739Y73043D01*
X48432D01*
X47694Y75222D01*
Y73043D01*
X47366D01*
Y75603D01*
X47875D01*
X48482Y73790D01*
X48484Y73786D01*
X48485Y73779D01*
X48489Y73766D01*
X48495Y73749D01*
X48502Y73727D01*
X48509Y73703D01*
X48519Y73677D01*
X48528Y73647D01*
X48548Y73586D01*
X48569Y73524D01*
X48578Y73492D01*
X48587Y73462D01*
X48596Y73437D01*
X48604Y73411D01*
Y73413D01*
X48606Y73418D01*
X48609Y73426D01*
X48613Y73437D01*
X48617Y73451D01*
X48622Y73470D01*
X48630Y73490D01*
X48637Y73514D01*
X48646Y73542D01*
X48658Y73572D01*
X48669Y73605D01*
X48680Y73642D01*
X48695Y73683D01*
X48707Y73725D01*
X48724Y73772D01*
X48741Y73821D01*
X49355Y75603D01*
X49812D01*
Y73043D01*
D02*
G37*
G36*
X46850Y75301D02*
X45338D01*
Y74517D01*
X46754D01*
Y74215D01*
X45338D01*
Y73344D01*
X46909D01*
Y73043D01*
X45000D01*
Y75603D01*
X46850D01*
Y75301D01*
D02*
G37*
G36*
X8937Y9798D02*
X6935D01*
X6937Y9796D01*
X6941Y9792D01*
X6946Y9786D01*
X6954Y9777D01*
X6963Y9766D01*
X6976Y9751D01*
X6989Y9735D01*
X7004Y9718D01*
X7018Y9696D01*
X7037Y9674D01*
X7053Y9650D01*
X7074Y9624D01*
X7092Y9594D01*
X7113Y9564D01*
X7153Y9498D01*
X7155Y9496D01*
X7159Y9490D01*
X7164Y9479D01*
X7170Y9466D01*
X7179Y9452D01*
X7190Y9433D01*
X7202Y9411D01*
X7214Y9389D01*
X7240Y9337D01*
X7266Y9281D01*
X7292Y9224D01*
X7314Y9168D01*
X7011D01*
X7009Y9172D01*
X7005Y9180D01*
X6998Y9194D01*
X6989Y9213D01*
X6978Y9235D01*
X6963Y9263D01*
X6946Y9292D01*
X6928Y9324D01*
X6905Y9359D01*
X6883Y9396D01*
X6831Y9474D01*
X6774Y9553D01*
X6711Y9629D01*
X6709Y9631D01*
X6704Y9638D01*
X6695Y9648D01*
X6682Y9661D01*
X6665Y9677D01*
X6646Y9696D01*
X6624Y9716D01*
X6602Y9738D01*
X6576Y9760D01*
X6548Y9785D01*
X6491Y9831D01*
X6430Y9873D01*
X6399Y9892D01*
X6367Y9909D01*
Y10112D01*
X8937D01*
Y9798D01*
D02*
G37*
G36*
X7919Y8489D02*
X7953D01*
X7990Y8488D01*
X8032Y8484D01*
X8077Y8480D01*
X8125Y8475D01*
X8175Y8469D01*
X8276Y8454D01*
X8328Y8443D01*
X8376Y8432D01*
X8424Y8417D01*
X8469Y8403D01*
X8471Y8401D01*
X8478Y8399D01*
X8491Y8393D01*
X8506Y8386D01*
X8526Y8375D01*
X8548Y8364D01*
X8572Y8349D01*
X8600Y8330D01*
X8630Y8310D01*
X8659Y8288D01*
X8689Y8262D01*
X8720Y8232D01*
X8752Y8201D01*
X8781Y8168D01*
X8811Y8129D01*
X8839Y8088D01*
X8841Y8086D01*
X8844Y8077D01*
X8852Y8064D01*
X8861Y8047D01*
X8872Y8023D01*
X8883Y7997D01*
X8896Y7964D01*
X8909Y7929D01*
X8922Y7886D01*
X8935Y7842D01*
X8946Y7794D01*
X8957Y7740D01*
X8966Y7683D01*
X8974Y7622D01*
X8978Y7559D01*
X8979Y7491D01*
Y7455D01*
X8978Y7431D01*
X8976Y7400D01*
X8972Y7365D01*
X8968Y7324D01*
X8964Y7282D01*
X8957Y7235D01*
X8950Y7187D01*
X8939Y7139D01*
X8928Y7089D01*
X8913Y7041D01*
X8896Y6991D01*
X8878Y6945D01*
X8855Y6900D01*
X8854Y6899D01*
X8850Y6891D01*
X8842Y6878D01*
X8833Y6863D01*
X8820Y6845D01*
X8804Y6823D01*
X8785Y6801D01*
X8765Y6775D01*
X8741Y6749D01*
X8713Y6721D01*
X8685Y6693D01*
X8652Y6667D01*
X8619Y6641D01*
X8580Y6617D01*
X8541Y6595D01*
X8498Y6575D01*
X8495Y6573D01*
X8487Y6571D01*
X8474Y6566D01*
X8456Y6560D01*
X8432Y6553D01*
X8402Y6545D01*
X8369Y6536D01*
X8330Y6527D01*
X8286Y6517D01*
X8237Y6508D01*
X8186Y6501D01*
X8128Y6493D01*
X8067Y6488D01*
X8001Y6482D01*
X7930Y6480D01*
X7856Y6479D01*
X6376D01*
Y6817D01*
X7854D01*
X7858D01*
X7869D01*
X7886D01*
X7908Y6819D01*
X7936D01*
X7967Y6821D01*
X8003Y6823D01*
X8041Y6825D01*
X8080Y6828D01*
X8121Y6832D01*
X8202Y6843D01*
X8241Y6850D01*
X8280Y6858D01*
X8315Y6867D01*
X8347Y6878D01*
X8348D01*
X8354Y6882D01*
X8361Y6886D01*
X8372Y6891D01*
X8386Y6897D01*
X8400Y6906D01*
X8435Y6928D01*
X8474Y6958D01*
X8495Y6974D01*
X8515Y6995D01*
X8535Y7015D01*
X8554Y7039D01*
X8572Y7063D01*
X8589Y7091D01*
Y7093D01*
X8593Y7098D01*
X8596Y7106D01*
X8602Y7119D01*
X8609Y7134D01*
X8617Y7150D01*
X8624Y7170D01*
X8631Y7194D01*
X8639Y7220D01*
X8646Y7248D01*
X8654Y7278D01*
X8661Y7311D01*
X8667Y7346D01*
X8670Y7383D01*
X8672Y7420D01*
X8674Y7461D01*
Y7478D01*
X8672Y7496D01*
Y7522D01*
X8669Y7553D01*
X8665Y7587D01*
X8659Y7626D01*
X8654Y7668D01*
X8644Y7711D01*
X8633Y7755D01*
X8619Y7800D01*
X8604Y7844D01*
X8583Y7886D01*
X8561Y7925D01*
X8535Y7962D01*
X8506Y7994D01*
X8504Y7996D01*
X8498Y8001D01*
X8487Y8009D01*
X8472Y8018D01*
X8452Y8031D01*
X8426Y8044D01*
X8397Y8059D01*
X8360Y8073D01*
X8319Y8088D01*
X8273Y8103D01*
X8219Y8116D01*
X8160Y8129D01*
X8093Y8138D01*
X8021Y8145D01*
X7942Y8151D01*
X7854Y8153D01*
X6376D01*
Y8491D01*
X7856D01*
X7858D01*
X7860D01*
X7866D01*
X7873D01*
X7882D01*
X7893D01*
X7919Y8489D01*
D02*
G37*
G36*
X32283Y67783D02*
X32309Y67781D01*
X32340Y67779D01*
X32375Y67774D01*
X32416Y67768D01*
X32459Y67759D01*
X32505Y67748D01*
X32551Y67735D01*
X32601Y67718D01*
X32649Y67698D01*
X32697Y67674D01*
X32744Y67648D01*
X32788Y67616D01*
X32831Y67580D01*
X32832Y67578D01*
X32840Y67570D01*
X32851Y67559D01*
X32864Y67542D01*
X32880Y67524D01*
X32899Y67500D01*
X32919Y67472D01*
X32940Y67441D01*
X32958Y67406D01*
X32979Y67367D01*
X32997Y67324D01*
X33014Y67280D01*
X33027Y67232D01*
X33038Y67182D01*
X33045Y67128D01*
X33047Y67073D01*
Y67071D01*
Y67065D01*
Y67058D01*
Y67047D01*
X33045Y67032D01*
X33043Y67017D01*
X33042Y66999D01*
X33040Y66978D01*
X33032Y66932D01*
X33021Y66880D01*
X33005Y66826D01*
X32984Y66771D01*
Y66769D01*
X32980Y66764D01*
X32977Y66756D01*
X32971Y66745D01*
X32966Y66732D01*
X32956Y66716D01*
X32947Y66697D01*
X32934Y66677D01*
X32921Y66654D01*
X32906Y66630D01*
X32869Y66577D01*
X32849Y66549D01*
X32827Y66519D01*
X32801Y66490D01*
X32775Y66458D01*
X32773Y66457D01*
X32768Y66451D01*
X32760Y66442D01*
X32747Y66429D01*
X32731Y66412D01*
X32710Y66392D01*
X32688Y66368D01*
X32660Y66340D01*
X32629Y66310D01*
X32592Y66277D01*
X32553Y66240D01*
X32509Y66199D01*
X32461Y66157D01*
X32409Y66111D01*
X32351Y66061D01*
X32290Y66009D01*
X32287Y66007D01*
X32277Y65998D01*
X32265Y65987D01*
X32246Y65970D01*
X32222Y65952D01*
X32198Y65929D01*
X32170Y65905D01*
X32140Y65879D01*
X32078Y65826D01*
X32048Y65798D01*
X32018Y65772D01*
X31991Y65746D01*
X31967Y65724D01*
X31944Y65704D01*
X31928Y65685D01*
X31924Y65681D01*
X31915Y65670D01*
X31900Y65654D01*
X31881Y65633D01*
X31861Y65607D01*
X31839Y65580D01*
X31817Y65548D01*
X31796Y65517D01*
X33051D01*
Y65215D01*
X31360D01*
Y65217D01*
Y65221D01*
Y65226D01*
Y65234D01*
Y65245D01*
X31362Y65256D01*
X31363Y65285D01*
X31367Y65317D01*
X31373Y65354D01*
X31382Y65393D01*
X31395Y65432D01*
Y65434D01*
X31399Y65439D01*
X31402Y65448D01*
X31408Y65461D01*
X31413Y65478D01*
X31423Y65496D01*
X31434Y65517D01*
X31445Y65539D01*
X31458Y65565D01*
X31475Y65591D01*
X31510Y65648D01*
X31552Y65709D01*
X31602Y65772D01*
X31604Y65774D01*
X31610Y65779D01*
X31617Y65789D01*
X31628Y65802D01*
X31643Y65818D01*
X31661Y65837D01*
X31682Y65859D01*
X31708Y65883D01*
X31735Y65911D01*
X31765Y65940D01*
X31798Y65972D01*
X31835Y66007D01*
X31876Y66042D01*
X31918Y66079D01*
X31965Y66118D01*
X32013Y66159D01*
X32015Y66161D01*
X32018Y66162D01*
X32024Y66168D01*
X32031Y66173D01*
X32041Y66183D01*
X32052Y66192D01*
X32079Y66216D01*
X32115Y66244D01*
X32152Y66279D01*
X32194Y66316D01*
X32239Y66357D01*
X32287Y66399D01*
X32333Y66444D01*
X32381Y66488D01*
X32425Y66534D01*
X32470Y66579D01*
X32509Y66621D01*
X32546Y66664D01*
X32575Y66703D01*
X32577Y66704D01*
X32581Y66712D01*
X32588Y66723D01*
X32599Y66736D01*
X32610Y66754D01*
X32621Y66775D01*
X32636Y66799D01*
X32649Y66825D01*
X32662Y66852D01*
X32677Y66882D01*
X32701Y66947D01*
X32710Y66980D01*
X32718Y67013D01*
X32721Y67047D01*
X32723Y67080D01*
Y67082D01*
Y67089D01*
Y67098D01*
X32721Y67111D01*
X32720Y67128D01*
X32716Y67147D01*
X32712Y67167D01*
X32707Y67189D01*
X32699Y67213D01*
X32690Y67239D01*
X32679Y67265D01*
X32666Y67291D01*
X32651Y67319D01*
X32633Y67344D01*
X32612Y67370D01*
X32588Y67395D01*
X32586Y67396D01*
X32583Y67400D01*
X32575Y67406D01*
X32564Y67415D01*
X32551Y67424D01*
X32535Y67435D01*
X32516Y67448D01*
X32496Y67459D01*
X32472Y67472D01*
X32446Y67483D01*
X32416Y67494D01*
X32387Y67504D01*
X32353Y67513D01*
X32318Y67518D01*
X32281Y67522D01*
X32242Y67524D01*
X32220D01*
X32205Y67522D01*
X32185Y67520D01*
X32163Y67517D01*
X32139Y67513D01*
X32111Y67507D01*
X32083Y67500D01*
X32054Y67491D01*
X32024Y67480D01*
X31993Y67467D01*
X31963Y67450D01*
X31933Y67431D01*
X31904Y67411D01*
X31878Y67387D01*
X31876Y67385D01*
X31872Y67382D01*
X31865Y67372D01*
X31857Y67363D01*
X31846Y67348D01*
X31835Y67332D01*
X31822Y67311D01*
X31811Y67289D01*
X31798Y67265D01*
X31785Y67235D01*
X31774Y67206D01*
X31763Y67172D01*
X31756Y67136D01*
X31748Y67097D01*
X31745Y67056D01*
X31743Y67011D01*
X31419Y67045D01*
Y67047D01*
Y67049D01*
X31421Y67054D01*
Y67062D01*
X31423Y67080D01*
X31428Y67104D01*
X31434Y67134D01*
X31441Y67169D01*
X31451Y67208D01*
X31462Y67248D01*
X31476Y67293D01*
X31493Y67337D01*
X31513Y67383D01*
X31537Y67430D01*
X31563Y67474D01*
X31595Y67517D01*
X31628Y67557D01*
X31667Y67594D01*
X31669Y67596D01*
X31676Y67602D01*
X31689Y67613D01*
X31706Y67624D01*
X31728Y67639D01*
X31754Y67655D01*
X31785Y67672D01*
X31820Y67690D01*
X31861Y67707D01*
X31904Y67724D01*
X31952Y67740D01*
X32004Y67755D01*
X32059Y67768D01*
X32118Y67777D01*
X32181Y67783D01*
X32248Y67785D01*
X32265D01*
X32283Y67783D01*
D02*
G37*
G36*
X30139Y67774D02*
X30168D01*
X30202Y67772D01*
X30237Y67770D01*
X30278Y67766D01*
X30318Y67763D01*
X30361Y67759D01*
X30448Y67746D01*
X30488Y67739D01*
X30529Y67729D01*
X30568Y67718D01*
X30603Y67705D01*
X30605D01*
X30611Y67702D01*
X30620Y67698D01*
X30633Y67692D01*
X30648Y67685D01*
X30664Y67674D01*
X30685Y67663D01*
X30705Y67650D01*
X30727Y67633D01*
X30751Y67616D01*
X30775Y67596D01*
X30799Y67574D01*
X30821Y67548D01*
X30845Y67522D01*
X30868Y67493D01*
X30888Y67461D01*
X30890Y67459D01*
X30894Y67454D01*
X30897Y67444D01*
X30905Y67431D01*
X30912Y67415D01*
X30921Y67395D01*
X30933Y67372D01*
X30942Y67348D01*
X30951Y67321D01*
X30962Y67291D01*
X30971Y67259D01*
X30979Y67226D01*
X30986Y67191D01*
X30992Y67154D01*
X30994Y67115D01*
X30995Y67076D01*
Y67073D01*
Y67065D01*
X30994Y67050D01*
Y67030D01*
X30990Y67008D01*
X30986Y66980D01*
X30981Y66951D01*
X30973Y66917D01*
X30964Y66882D01*
X30953Y66845D01*
X30938Y66806D01*
X30921Y66767D01*
X30901Y66729D01*
X30877Y66691D01*
X30849Y66653D01*
X30818Y66618D01*
X30816Y66616D01*
X30810Y66610D01*
X30799Y66601D01*
X30784Y66588D01*
X30766Y66573D01*
X30742Y66556D01*
X30716Y66538D01*
X30685Y66518D01*
X30648Y66497D01*
X30609Y66477D01*
X30562Y66458D01*
X30514Y66438D01*
X30461Y66421D01*
X30403Y66405D01*
X30340Y66392D01*
X30274Y66381D01*
X30276D01*
X30279Y66377D01*
X30287Y66375D01*
X30296Y66370D01*
X30307Y66364D01*
X30320Y66357D01*
X30350Y66340D01*
X30383Y66321D01*
X30416Y66299D01*
X30448Y66277D01*
X30477Y66253D01*
X30479Y66251D01*
X30485Y66247D01*
X30492Y66238D01*
X30503Y66229D01*
X30516Y66214D01*
X30531Y66199D01*
X30549Y66181D01*
X30568Y66159D01*
X30588Y66135D01*
X30611Y66109D01*
X30635Y66081D01*
X30659Y66051D01*
X30683Y66018D01*
X30709Y65985D01*
X30759Y65911D01*
X31201Y65215D01*
X30777D01*
X30439Y65748D01*
X30437Y65750D01*
X30431Y65757D01*
X30424Y65770D01*
X30415Y65785D01*
X30402Y65805D01*
X30387Y65828D01*
X30370Y65852D01*
X30353Y65877D01*
X30315Y65935D01*
X30274Y65994D01*
X30233Y66049D01*
X30213Y66075D01*
X30194Y66100D01*
X30193Y66101D01*
X30191Y66105D01*
X30185Y66111D01*
X30178Y66120D01*
X30159Y66142D01*
X30137Y66168D01*
X30109Y66196D01*
X30081Y66225D01*
X30052Y66251D01*
X30022Y66272D01*
X30019Y66273D01*
X30009Y66279D01*
X29994Y66288D01*
X29974Y66297D01*
X29952Y66308D01*
X29926Y66321D01*
X29898Y66331D01*
X29869Y66340D01*
X29867D01*
X29858Y66342D01*
X29843Y66344D01*
X29824Y66347D01*
X29798Y66349D01*
X29765Y66351D01*
X29726Y66353D01*
X29288D01*
Y65215D01*
X28949D01*
Y67776D01*
X30117D01*
X30139Y67774D01*
D02*
G37*
G36*
X39317Y65715D02*
X39002D01*
Y67717D01*
X39000Y67715D01*
X38997Y67711D01*
X38991Y67706D01*
X38982Y67698D01*
X38971Y67689D01*
X38956Y67676D01*
X38939Y67663D01*
X38923Y67648D01*
X38901Y67634D01*
X38878Y67615D01*
X38854Y67598D01*
X38828Y67578D01*
X38799Y67560D01*
X38769Y67539D01*
X38702Y67499D01*
X38701Y67497D01*
X38695Y67493D01*
X38684Y67488D01*
X38671Y67482D01*
X38656Y67473D01*
X38638Y67462D01*
X38616Y67450D01*
X38593Y67437D01*
X38542Y67412D01*
X38486Y67386D01*
X38429Y67360D01*
X38373Y67338D01*
Y67641D01*
X38377Y67643D01*
X38384Y67647D01*
X38399Y67654D01*
X38418Y67663D01*
X38440Y67674D01*
X38467Y67689D01*
X38497Y67706D01*
X38529Y67724D01*
X38564Y67747D01*
X38601Y67769D01*
X38678Y67821D01*
X38758Y67878D01*
X38834Y67941D01*
X38836Y67943D01*
X38843Y67948D01*
X38852Y67957D01*
X38865Y67970D01*
X38882Y67987D01*
X38901Y68006D01*
X38921Y68028D01*
X38943Y68050D01*
X38965Y68076D01*
X38989Y68103D01*
X39035Y68161D01*
X39078Y68222D01*
X39097Y68253D01*
X39113Y68285D01*
X39317D01*
Y65715D01*
D02*
G37*
G36*
X36873Y68274D02*
X36902D01*
X36936Y68272D01*
X36971Y68270D01*
X37012Y68266D01*
X37052Y68263D01*
X37095Y68259D01*
X37182Y68246D01*
X37222Y68239D01*
X37263Y68229D01*
X37302Y68218D01*
X37337Y68205D01*
X37339D01*
X37345Y68202D01*
X37354Y68198D01*
X37367Y68192D01*
X37382Y68185D01*
X37398Y68174D01*
X37419Y68163D01*
X37439Y68150D01*
X37461Y68133D01*
X37485Y68116D01*
X37509Y68096D01*
X37533Y68074D01*
X37556Y68048D01*
X37580Y68022D01*
X37602Y67993D01*
X37622Y67961D01*
X37624Y67959D01*
X37628Y67954D01*
X37631Y67944D01*
X37639Y67931D01*
X37646Y67915D01*
X37655Y67895D01*
X37666Y67872D01*
X37676Y67848D01*
X37685Y67821D01*
X37696Y67791D01*
X37705Y67759D01*
X37713Y67726D01*
X37720Y67691D01*
X37726Y67654D01*
X37728Y67615D01*
X37729Y67576D01*
Y67573D01*
Y67565D01*
X37728Y67550D01*
Y67530D01*
X37724Y67508D01*
X37720Y67480D01*
X37715Y67450D01*
X37707Y67417D01*
X37698Y67382D01*
X37687Y67345D01*
X37672Y67306D01*
X37655Y67267D01*
X37635Y67229D01*
X37611Y67191D01*
X37583Y67153D01*
X37552Y67118D01*
X37550Y67116D01*
X37544Y67110D01*
X37533Y67101D01*
X37519Y67088D01*
X37500Y67073D01*
X37476Y67056D01*
X37450Y67038D01*
X37419Y67018D01*
X37382Y66997D01*
X37343Y66977D01*
X37297Y66958D01*
X37248Y66938D01*
X37195Y66921D01*
X37137Y66905D01*
X37075Y66892D01*
X37008Y66881D01*
X37010D01*
X37014Y66877D01*
X37021Y66875D01*
X37030Y66870D01*
X37041Y66864D01*
X37054Y66857D01*
X37084Y66840D01*
X37117Y66821D01*
X37150Y66799D01*
X37182Y66777D01*
X37211Y66753D01*
X37213Y66751D01*
X37219Y66747D01*
X37226Y66738D01*
X37237Y66729D01*
X37250Y66714D01*
X37265Y66699D01*
X37284Y66681D01*
X37302Y66659D01*
X37322Y66635D01*
X37345Y66609D01*
X37369Y66581D01*
X37393Y66551D01*
X37417Y66518D01*
X37443Y66485D01*
X37493Y66411D01*
X37935Y65715D01*
X37511D01*
X37173Y66248D01*
X37171Y66250D01*
X37165Y66257D01*
X37158Y66270D01*
X37148Y66285D01*
X37136Y66305D01*
X37121Y66328D01*
X37104Y66352D01*
X37088Y66378D01*
X37049Y66435D01*
X37008Y66494D01*
X36967Y66549D01*
X36947Y66575D01*
X36928Y66600D01*
X36926Y66601D01*
X36925Y66605D01*
X36919Y66611D01*
X36912Y66620D01*
X36893Y66642D01*
X36871Y66668D01*
X36843Y66696D01*
X36816Y66725D01*
X36786Y66751D01*
X36756Y66772D01*
X36753Y66773D01*
X36743Y66779D01*
X36729Y66788D01*
X36708Y66797D01*
X36686Y66808D01*
X36660Y66821D01*
X36632Y66831D01*
X36603Y66840D01*
X36601D01*
X36592Y66842D01*
X36577Y66844D01*
X36558Y66847D01*
X36533Y66849D01*
X36499Y66851D01*
X36460Y66853D01*
X36022D01*
Y65715D01*
X35683D01*
Y68276D01*
X36851D01*
X36873Y68274D01*
D02*
G37*
%LPC*%
G36*
X17122Y13401D02*
X16414Y13133D01*
X16412D01*
X16410Y13131D01*
X16399Y13127D01*
X16382Y13122D01*
X16360Y13113D01*
X16332Y13103D01*
X16301Y13090D01*
X16264Y13079D01*
X16225Y13064D01*
X16184Y13050D01*
X16142Y13035D01*
X16053Y13005D01*
X15964Y12976D01*
X15922Y12963D01*
X15881Y12952D01*
X15885D01*
X15892Y12950D01*
X15905Y12946D01*
X15924Y12942D01*
X15946Y12937D01*
X15972Y12931D01*
X16001Y12924D01*
X16035Y12916D01*
X16072Y12905D01*
X16111Y12896D01*
X16149Y12885D01*
X16192Y12872D01*
X16281Y12844D01*
X16371Y12813D01*
X17122Y12532D01*
Y13401D01*
D02*
G37*
G36*
X42864Y13899D02*
X42862D01*
X42856D01*
X42849D01*
X42836Y13897D01*
X42823D01*
X42807Y13895D01*
X42788Y13892D01*
X42770Y13890D01*
X42727Y13879D01*
X42681Y13864D01*
X42634Y13846D01*
X42612Y13833D01*
X42590Y13818D01*
X42588D01*
X42585Y13814D01*
X42579Y13809D01*
X42572Y13803D01*
X42551Y13784D01*
X42527Y13760D01*
X42503Y13729D01*
X42477Y13694D01*
X42455Y13651D01*
X42438Y13603D01*
Y13601D01*
X42437Y13600D01*
Y13594D01*
X42435Y13587D01*
X42433Y13577D01*
X42431Y13564D01*
X42429Y13550D01*
X42426Y13531D01*
X42424Y13511D01*
X42422Y13488D01*
X42420Y13463D01*
X42418Y13433D01*
X42416Y13402D01*
Y13366D01*
X42414Y13329D01*
Y12634D01*
X43330D01*
Y13326D01*
X43328Y13348D01*
X43326Y13374D01*
X43323Y13405D01*
X43319Y13439D01*
X43315Y13476D01*
X43301Y13551D01*
X43291Y13590D01*
X43278Y13629D01*
X43265Y13666D01*
X43249Y13701D01*
X43230Y13733D01*
X43208Y13760D01*
X43206Y13762D01*
X43202Y13766D01*
X43195Y13773D01*
X43186Y13783D01*
X43173Y13792D01*
X43158Y13805D01*
X43140Y13818D01*
X43119Y13831D01*
X43095Y13844D01*
X43071Y13855D01*
X43042Y13868D01*
X43012Y13877D01*
X42979Y13886D01*
X42942Y13894D01*
X42905Y13897D01*
X42864Y13899D01*
D02*
G37*
G36*
X13720Y40894D02*
X12917D01*
Y39740D01*
X13720Y40894D01*
D02*
G37*
G36*
X33268Y7901D02*
X33258D01*
X33249Y7899D01*
X33234Y7898D01*
X33216Y7896D01*
X33195Y7892D01*
X33173Y7885D01*
X33149Y7877D01*
X33121Y7868D01*
X33094Y7855D01*
X33064Y7840D01*
X33034Y7822D01*
X33003Y7800D01*
X32973Y7775D01*
X32944Y7746D01*
X32914Y7713D01*
X32912Y7711D01*
X32907Y7703D01*
X32899Y7692D01*
X32890Y7677D01*
X32879Y7659D01*
X32866Y7635D01*
X32851Y7607D01*
X32838Y7574D01*
X32824Y7539D01*
X32809Y7498D01*
X32796Y7454D01*
X32785Y7404D01*
X32775Y7352D01*
X32768Y7294D01*
X32762Y7233D01*
X32761Y7169D01*
Y7167D01*
Y7165D01*
Y7159D01*
Y7154D01*
X32762Y7135D01*
Y7109D01*
X32764Y7080D01*
X32768Y7047D01*
X32774Y7008D01*
X32779Y6969D01*
X32787Y6926D01*
X32796Y6882D01*
X32807Y6838D01*
X32822Y6795D01*
X32838Y6752D01*
X32857Y6712D01*
X32879Y6673D01*
X32905Y6640D01*
X32907Y6638D01*
X32912Y6632D01*
X32920Y6625D01*
X32931Y6614D01*
X32945Y6601D01*
X32962Y6586D01*
X32981Y6571D01*
X33003Y6555D01*
X33027Y6538D01*
X33053Y6523D01*
X33083Y6508D01*
X33114Y6495D01*
X33145Y6486D01*
X33180Y6477D01*
X33217Y6471D01*
X33255Y6469D01*
X33264D01*
X33275Y6471D01*
X33290Y6473D01*
X33308Y6475D01*
X33329Y6479D01*
X33353Y6484D01*
X33378Y6492D01*
X33404Y6501D01*
X33434Y6512D01*
X33463Y6527D01*
X33493Y6543D01*
X33525Y6564D01*
X33554Y6588D01*
X33584Y6614D01*
X33612Y6645D01*
X33613Y6647D01*
X33619Y6654D01*
X33626Y6664D01*
X33636Y6678D01*
X33647Y6697D01*
X33660Y6721D01*
X33673Y6749D01*
X33687Y6780D01*
X33700Y6817D01*
X33713Y6858D01*
X33726Y6902D01*
X33737Y6952D01*
X33748Y7006D01*
X33756Y7065D01*
X33760Y7128D01*
X33761Y7195D01*
Y7197D01*
Y7198D01*
Y7204D01*
Y7209D01*
Y7228D01*
X33760Y7252D01*
X33758Y7282D01*
X33754Y7315D01*
X33748Y7354D01*
X33743Y7393D01*
X33735Y7435D01*
X33726Y7480D01*
X33713Y7524D01*
X33700Y7566D01*
X33684Y7609D01*
X33663Y7650D01*
X33641Y7688D01*
X33615Y7724D01*
X33613Y7726D01*
X33608Y7731D01*
X33601Y7740D01*
X33589Y7751D01*
X33575Y7764D01*
X33558Y7779D01*
X33539Y7796D01*
X33517Y7812D01*
X33493Y7829D01*
X33465Y7846D01*
X33438Y7861D01*
X33406Y7874D01*
X33375Y7885D01*
X33340Y7894D01*
X33305Y7899D01*
X33268Y7901D01*
D02*
G37*
G36*
X40418Y7182D02*
X40416D01*
X40410Y7178D01*
X40399Y7174D01*
X40386Y7171D01*
X40368Y7163D01*
X40345Y7158D01*
X40320Y7148D01*
X40288Y7141D01*
X40255Y7132D01*
X40216Y7121D01*
X40174Y7111D01*
X40129Y7102D01*
X40077Y7091D01*
X40024Y7082D01*
X39966Y7071D01*
X39903Y7061D01*
X39902D01*
X39894Y7060D01*
X39885D01*
X39872Y7056D01*
X39855Y7054D01*
X39839Y7050D01*
X39796Y7043D01*
X39752Y7034D01*
X39706Y7023D01*
X39665Y7012D01*
X39646Y7006D01*
X39630Y6999D01*
X39626Y6997D01*
X39617Y6993D01*
X39602Y6984D01*
X39585Y6973D01*
X39565Y6960D01*
X39544Y6941D01*
X39524Y6921D01*
X39506Y6897D01*
X39504Y6893D01*
X39498Y6886D01*
X39493Y6871D01*
X39485Y6854D01*
X39476Y6832D01*
X39470Y6806D01*
X39465Y6778D01*
X39463Y6749D01*
Y6747D01*
Y6743D01*
Y6736D01*
X39465Y6728D01*
X39467Y6717D01*
X39469Y6704D01*
X39474Y6675D01*
X39485Y6643D01*
X39504Y6608D01*
X39513Y6590D01*
X39526Y6573D01*
X39541Y6556D01*
X39557Y6540D01*
X39559D01*
X39561Y6536D01*
X39567Y6532D01*
X39576Y6527D01*
X39585Y6521D01*
X39596Y6514D01*
X39611Y6506D01*
X39628Y6499D01*
X39646Y6490D01*
X39667Y6482D01*
X39689Y6475D01*
X39715Y6469D01*
X39741Y6464D01*
X39770Y6460D01*
X39802Y6458D01*
X39835Y6456D01*
X39853D01*
X39866Y6458D01*
X39881D01*
X39900Y6460D01*
X39922Y6464D01*
X39944Y6466D01*
X39994Y6475D01*
X40049Y6490D01*
X40105Y6508D01*
X40159Y6534D01*
X40161Y6536D01*
X40164Y6538D01*
X40172Y6542D01*
X40181Y6549D01*
X40194Y6556D01*
X40207Y6567D01*
X40238Y6592D01*
X40272Y6623D01*
X40305Y6660D01*
X40338Y6702D01*
X40366Y6752D01*
Y6754D01*
X40368Y6758D01*
X40371Y6763D01*
X40373Y6773D01*
X40379Y6784D01*
X40383Y6797D01*
X40386Y6814D01*
X40392Y6832D01*
X40397Y6852D01*
X40401Y6875D01*
X40407Y6900D01*
X40410Y6928D01*
X40412Y6960D01*
X40416Y6993D01*
X40418Y7028D01*
Y7065D01*
Y7182D01*
D02*
G37*
G36*
X45951Y7886D02*
X45940D01*
X45929Y7885D01*
X45912D01*
X45892Y7881D01*
X45868Y7877D01*
X45842Y7872D01*
X45814Y7864D01*
X45785Y7855D01*
X45753Y7844D01*
X45720Y7829D01*
X45687Y7812D01*
X45655Y7792D01*
X45622Y7768D01*
X45590Y7740D01*
X45561Y7709D01*
X45559Y7707D01*
X45553Y7701D01*
X45546Y7690D01*
X45537Y7676D01*
X45526Y7657D01*
X45513Y7635D01*
X45498Y7607D01*
X45485Y7577D01*
X45470Y7541D01*
X45455Y7502D01*
X45442Y7459D01*
X45431Y7411D01*
X45422Y7359D01*
X45415Y7302D01*
X45409Y7243D01*
X45407Y7178D01*
Y7176D01*
Y7174D01*
Y7169D01*
Y7163D01*
X45409Y7145D01*
Y7121D01*
X45413Y7091D01*
X45415Y7056D01*
X45420Y7019D01*
X45426Y6978D01*
X45435Y6936D01*
X45444Y6891D01*
X45457Y6847D01*
X45472Y6804D01*
X45490Y6760D01*
X45511Y6719D01*
X45533Y6680D01*
X45561Y6645D01*
X45562Y6643D01*
X45568Y6638D01*
X45577Y6628D01*
X45588Y6617D01*
X45603Y6604D01*
X45622Y6590D01*
X45644Y6573D01*
X45668Y6558D01*
X45694Y6542D01*
X45724Y6525D01*
X45757Y6510D01*
X45790Y6497D01*
X45827Y6486D01*
X45868Y6477D01*
X45908Y6471D01*
X45951Y6469D01*
X45962D01*
X45973Y6471D01*
X45990Y6473D01*
X46010Y6475D01*
X46034Y6479D01*
X46060Y6484D01*
X46088Y6492D01*
X46117Y6501D01*
X46149Y6512D01*
X46182Y6527D01*
X46216Y6545D01*
X46247Y6566D01*
X46280Y6588D01*
X46312Y6616D01*
X46341Y6647D01*
X46343Y6649D01*
X46349Y6656D01*
X46356Y6666D01*
X46365Y6680D01*
X46378Y6699D01*
X46391Y6723D01*
X46404Y6751D01*
X46419Y6782D01*
X46434Y6817D01*
X46447Y6858D01*
X46462Y6902D01*
X46473Y6950D01*
X46482Y7004D01*
X46489Y7061D01*
X46495Y7123D01*
X46497Y7189D01*
Y7191D01*
Y7193D01*
Y7204D01*
X46495Y7222D01*
Y7244D01*
X46491Y7274D01*
X46489Y7307D01*
X46484Y7343D01*
X46476Y7383D01*
X46469Y7424D01*
X46458Y7467D01*
X46445Y7509D01*
X46430Y7553D01*
X46412Y7594D01*
X46391Y7635D01*
X46367Y7674D01*
X46340Y7709D01*
X46338Y7711D01*
X46332Y7716D01*
X46323Y7726D01*
X46312Y7737D01*
X46297Y7750D01*
X46279Y7764D01*
X46256Y7781D01*
X46232Y7798D01*
X46206Y7814D01*
X46177Y7831D01*
X46145Y7846D01*
X46110Y7859D01*
X46073Y7870D01*
X46034Y7879D01*
X45994Y7885D01*
X45951Y7886D01*
D02*
G37*
G36*
X41927D02*
X41918D01*
X41907Y7885D01*
X41892D01*
X41874Y7881D01*
X41853Y7877D01*
X41829Y7872D01*
X41805Y7866D01*
X41777Y7857D01*
X41748Y7846D01*
X41720Y7831D01*
X41689Y7814D01*
X41659Y7796D01*
X41629Y7772D01*
X41600Y7746D01*
X41572Y7716D01*
X41570Y7714D01*
X41567Y7709D01*
X41559Y7698D01*
X41550Y7685D01*
X41539Y7666D01*
X41526Y7644D01*
X41513Y7618D01*
X41500Y7589D01*
X41485Y7555D01*
X41472Y7518D01*
X41459Y7478D01*
X41448Y7431D01*
X41439Y7381D01*
X41431Y7330D01*
X41428Y7272D01*
X41426Y7211D01*
Y7209D01*
Y7208D01*
Y7202D01*
Y7195D01*
X41428Y7176D01*
Y7152D01*
X41430Y7123D01*
X41433Y7087D01*
X41439Y7048D01*
X41445Y7008D01*
X41452Y6965D01*
X41461Y6921D01*
X41472Y6876D01*
X41487Y6832D01*
X41504Y6789D01*
X41522Y6751D01*
X41544Y6712D01*
X41570Y6678D01*
X41572Y6677D01*
X41578Y6671D01*
X41585Y6664D01*
X41596Y6652D01*
X41611Y6640D01*
X41628Y6627D01*
X41648Y6610D01*
X41670Y6595D01*
X41694Y6580D01*
X41722Y6566D01*
X41752Y6551D01*
X41785Y6538D01*
X41818Y6527D01*
X41855Y6519D01*
X41892Y6514D01*
X41933Y6512D01*
X41942D01*
X41953Y6514D01*
X41970D01*
X41988Y6517D01*
X42009Y6521D01*
X42033Y6527D01*
X42059Y6532D01*
X42088Y6542D01*
X42116Y6553D01*
X42147Y6566D01*
X42177Y6582D01*
X42208Y6601D01*
X42238Y6623D01*
X42268Y6649D01*
X42295Y6678D01*
X42297Y6680D01*
X42301Y6686D01*
X42308Y6697D01*
X42318Y6710D01*
X42329Y6728D01*
X42342Y6751D01*
X42355Y6776D01*
X42369Y6806D01*
X42382Y6841D01*
X42395Y6878D01*
X42408Y6923D01*
X42419Y6969D01*
X42429Y7021D01*
X42436Y7076D01*
X42440Y7135D01*
X42442Y7200D01*
Y7202D01*
Y7204D01*
Y7215D01*
X42440Y7233D01*
Y7256D01*
X42438Y7285D01*
X42434Y7317D01*
X42429Y7354D01*
X42423Y7393D01*
X42414Y7433D01*
X42405Y7476D01*
X42392Y7518D01*
X42377Y7561D01*
X42360Y7602D01*
X42340Y7640D01*
X42316Y7679D01*
X42290Y7713D01*
X42288Y7714D01*
X42283Y7720D01*
X42275Y7729D01*
X42264Y7740D01*
X42249Y7753D01*
X42231Y7768D01*
X42210Y7783D01*
X42188Y7800D01*
X42164Y7816D01*
X42136Y7831D01*
X42105Y7846D01*
X42074Y7859D01*
X42040Y7870D01*
X42003Y7879D01*
X41966Y7885D01*
X41927Y7886D01*
D02*
G37*
G36*
X56192Y56338D02*
Y56335D01*
X56191Y56327D01*
X56187Y56314D01*
X56183Y56296D01*
X56178Y56274D01*
X56172Y56248D01*
X56165Y56218D01*
X56157Y56185D01*
X56146Y56148D01*
X56137Y56109D01*
X56126Y56070D01*
X56113Y56028D01*
X56085Y55939D01*
X56054Y55848D01*
X55772Y55097D01*
X56642D01*
X56374Y55806D01*
Y55807D01*
X56372Y55809D01*
X56368Y55820D01*
X56362Y55837D01*
X56353Y55859D01*
X56344Y55887D01*
X56331Y55918D01*
X56320Y55955D01*
X56305Y55994D01*
X56290Y56035D01*
X56276Y56077D01*
X56246Y56166D01*
X56216Y56255D01*
X56203Y56298D01*
X56192Y56338D01*
D02*
G37*
G36*
X44147Y56324D02*
X43339D01*
Y55478D01*
X44104D01*
X44123Y55480D01*
X44147D01*
X44171Y55482D01*
X44199Y55484D01*
X44256Y55489D01*
X44317Y55498D01*
X44376Y55510D01*
X44402Y55517D01*
X44428Y55524D01*
X44430D01*
X44434Y55526D01*
X44441Y55530D01*
X44450Y55534D01*
X44462Y55539D01*
X44473Y55545D01*
X44502Y55561D01*
X44535Y55584D01*
X44569Y55610D01*
X44600Y55641D01*
X44628Y55678D01*
Y55680D01*
X44632Y55683D01*
X44634Y55689D01*
X44639Y55696D01*
X44645Y55706D01*
X44650Y55719D01*
X44663Y55746D01*
X44674Y55780D01*
X44685Y55819D01*
X44693Y55861D01*
X44696Y55907D01*
Y55909D01*
Y55915D01*
Y55924D01*
X44695Y55937D01*
X44693Y55954D01*
X44689Y55970D01*
X44685Y55991D01*
X44680Y56013D01*
X44672Y56035D01*
X44663Y56059D01*
X44654Y56085D01*
X44641Y56109D01*
X44624Y56135D01*
X44608Y56159D01*
X44587Y56183D01*
X44563Y56205D01*
X44561Y56207D01*
X44558Y56211D01*
X44548Y56216D01*
X44539Y56224D01*
X44524Y56233D01*
X44506Y56242D01*
X44486Y56253D01*
X44462Y56264D01*
X44436Y56275D01*
X44404Y56287D01*
X44369Y56296D01*
X44332Y56305D01*
X44291Y56313D01*
X44247Y56318D01*
X44199Y56322D01*
X44147Y56324D01*
D02*
G37*
G36*
X46700Y56359D02*
X46683D01*
X46665Y56357D01*
X46641Y56355D01*
X46609Y56351D01*
X46572Y56346D01*
X46532Y56338D01*
X46489Y56327D01*
X46441Y56314D01*
X46391Y56298D01*
X46341Y56277D01*
X46288Y56255D01*
X46236Y56226D01*
X46184Y56192D01*
X46132Y56155D01*
X46082Y56111D01*
X46078Y56107D01*
X46071Y56100D01*
X46058Y56085D01*
X46041Y56063D01*
X46023Y56037D01*
X46001Y56002D01*
X45977Y55963D01*
X45953Y55917D01*
X45929Y55863D01*
X45904Y55802D01*
X45884Y55734D01*
X45864Y55660D01*
X45847Y55578D01*
X45840Y55534D01*
X45834Y55489D01*
X45829Y55441D01*
X45827Y55391D01*
X45823Y55341D01*
Y55288D01*
Y55286D01*
Y55282D01*
Y55277D01*
Y55267D01*
X45825Y55256D01*
Y55243D01*
Y55228D01*
X45827Y55212D01*
X45831Y55173D01*
X45836Y55127D01*
X45843Y55077D01*
X45855Y55023D01*
X45867Y54966D01*
X45884Y54906D01*
X45904Y54845D01*
X45929Y54784D01*
X45956Y54725D01*
X45990Y54666D01*
X46027Y54611D01*
X46071Y54559D01*
X46075Y54555D01*
X46082Y54548D01*
X46097Y54535D01*
X46115Y54518D01*
X46141Y54498D01*
X46169Y54475D01*
X46204Y54451D01*
X46243Y54427D01*
X46286Y54401D01*
X46334Y54377D01*
X46385Y54355D01*
X46441Y54335D01*
X46498Y54318D01*
X46561Y54305D01*
X46628Y54298D01*
X46696Y54294D01*
X46713D01*
X46722Y54296D01*
X46733D01*
X46759Y54298D01*
X46793Y54302D01*
X46830Y54309D01*
X46872Y54316D01*
X46918Y54327D01*
X46966Y54342D01*
X47018Y54359D01*
X47070Y54381D01*
X47122Y54407D01*
X47175Y54439D01*
X47227Y54474D01*
X47277Y54516D01*
X47325Y54562D01*
X47329Y54566D01*
X47336Y54575D01*
X47348Y54590D01*
X47364Y54612D01*
X47383Y54640D01*
X47403Y54673D01*
X47427Y54712D01*
X47449Y54759D01*
X47473Y54810D01*
X47495Y54866D01*
X47516Y54929D01*
X47534Y54997D01*
X47551Y55071D01*
X47562Y55151D01*
X47571Y55234D01*
X47573Y55325D01*
Y55328D01*
Y55338D01*
Y55354D01*
X47571Y55376D01*
X47570Y55404D01*
X47568Y55436D01*
X47564Y55471D01*
X47560Y55510D01*
X47555Y55550D01*
X47547Y55595D01*
X47538Y55639D01*
X47529Y55685D01*
X47516Y55732D01*
X47501Y55778D01*
X47484Y55824D01*
X47466Y55869D01*
X47464Y55870D01*
X47460Y55880D01*
X47455Y55891D01*
X47445Y55907D01*
X47434Y55926D01*
X47422Y55950D01*
X47407Y55974D01*
X47388Y56002D01*
X47368Y56029D01*
X47344Y56059D01*
X47320Y56089D01*
X47292Y56118D01*
X47261Y56148D01*
X47229Y56177D01*
X47194Y56203D01*
X47157Y56229D01*
X47155Y56231D01*
X47148Y56235D01*
X47137Y56240D01*
X47122Y56250D01*
X47101Y56259D01*
X47079Y56270D01*
X47053Y56283D01*
X47024Y56294D01*
X46990Y56307D01*
X46955Y56318D01*
X46918Y56329D01*
X46878Y56338D01*
X46837Y56348D01*
X46793Y56353D01*
X46746Y56357D01*
X46700Y56359D01*
D02*
G37*
G36*
X53421Y62292D02*
Y62288D01*
X53419Y62281D01*
X53416Y62268D01*
X53412Y62250D01*
X53406Y62227D01*
X53401Y62201D01*
X53393Y62172D01*
X53386Y62139D01*
X53375Y62102D01*
X53366Y62063D01*
X53355Y62024D01*
X53342Y61981D01*
X53314Y61893D01*
X53282Y61802D01*
X53001Y61051D01*
X53871D01*
X53602Y61759D01*
Y61761D01*
X53601Y61763D01*
X53597Y61774D01*
X53591Y61791D01*
X53582Y61813D01*
X53573Y61841D01*
X53560Y61872D01*
X53549Y61909D01*
X53534Y61948D01*
X53519Y61989D01*
X53504Y62031D01*
X53475Y62120D01*
X53445Y62209D01*
X53432Y62251D01*
X53421Y62292D01*
D02*
G37*
G36*
X50892Y62259D02*
X50300D01*
Y60302D01*
X50889D01*
X50909Y60303D01*
X50933D01*
X50961Y60305D01*
X50990Y60307D01*
X51053Y60313D01*
X51120Y60322D01*
X51185Y60333D01*
X51214Y60340D01*
X51242Y60348D01*
X51244D01*
X51248Y60350D01*
X51257Y60353D01*
X51266Y60357D01*
X51279Y60361D01*
X51292Y60368D01*
X51325Y60383D01*
X51362Y60401D01*
X51401Y60424D01*
X51438Y60451D01*
X51473Y60481D01*
X51475Y60483D01*
X51479Y60487D01*
X51484Y60494D01*
X51494Y60503D01*
X51503Y60514D01*
X51514Y60529D01*
X51527Y60548D01*
X51542Y60566D01*
X51556Y60588D01*
X51571Y60612D01*
X51588Y60640D01*
X51603Y60668D01*
X51617Y60699D01*
X51632Y60733D01*
X51647Y60768D01*
X51660Y60805D01*
Y60807D01*
X51664Y60814D01*
X51666Y60825D01*
X51671Y60842D01*
X51677Y60860D01*
X51682Y60884D01*
X51688Y60912D01*
X51695Y60944D01*
X51701Y60977D01*
X51706Y61016D01*
X51712Y61056D01*
X51717Y61099D01*
X51723Y61145D01*
X51725Y61193D01*
X51728Y61245D01*
Y61299D01*
Y61300D01*
Y61302D01*
Y61308D01*
Y61317D01*
Y61326D01*
Y61338D01*
X51727Y61365D01*
X51725Y61399D01*
X51721Y61437D01*
X51717Y61480D01*
X51712Y61526D01*
X51704Y61574D01*
X51695Y61626D01*
X51686Y61676D01*
X51673Y61728D01*
X51656Y61778D01*
X51640Y61826D01*
X51619Y61872D01*
X51595Y61915D01*
X51593Y61917D01*
X51590Y61924D01*
X51582Y61935D01*
X51571Y61950D01*
X51558Y61967D01*
X51543Y61987D01*
X51527Y62009D01*
X51506Y62033D01*
X51484Y62057D01*
X51460Y62081D01*
X51432Y62105D01*
X51405Y62129D01*
X51375Y62151D01*
X51344Y62172D01*
X51310Y62190D01*
X51275Y62205D01*
X51273D01*
X51270Y62207D01*
X51260Y62211D01*
X51249Y62214D01*
X51235Y62218D01*
X51216Y62222D01*
X51194Y62227D01*
X51170Y62233D01*
X51140Y62237D01*
X51109Y62242D01*
X51072Y62246D01*
X51033Y62251D01*
X50989Y62253D01*
X50942Y62257D01*
X50892Y62259D01*
D02*
G37*
G36*
X48454Y62292D02*
Y62288D01*
X48452Y62281D01*
X48448Y62268D01*
X48445Y62250D01*
X48439Y62227D01*
X48434Y62201D01*
X48426Y62172D01*
X48419Y62139D01*
X48408Y62102D01*
X48399Y62063D01*
X48387Y62024D01*
X48374Y61981D01*
X48347Y61893D01*
X48315Y61802D01*
X48034Y61051D01*
X48904D01*
X48635Y61759D01*
Y61761D01*
X48633Y61763D01*
X48630Y61774D01*
X48624Y61791D01*
X48615Y61813D01*
X48606Y61841D01*
X48593Y61872D01*
X48582Y61909D01*
X48567Y61948D01*
X48552Y61989D01*
X48537Y62031D01*
X48508Y62120D01*
X48478Y62209D01*
X48465Y62251D01*
X48454Y62292D01*
D02*
G37*
G36*
X46147Y62277D02*
X45338D01*
Y61432D01*
X46104D01*
X46123Y61434D01*
X46147D01*
X46171Y61436D01*
X46199Y61437D01*
X46256Y61443D01*
X46317Y61452D01*
X46376Y61463D01*
X46402Y61471D01*
X46428Y61478D01*
X46430D01*
X46434Y61480D01*
X46441Y61484D01*
X46450Y61487D01*
X46461Y61493D01*
X46473Y61498D01*
X46502Y61515D01*
X46536Y61537D01*
X46569Y61563D01*
X46600Y61595D01*
X46628Y61632D01*
Y61634D01*
X46632Y61637D01*
X46634Y61643D01*
X46639Y61650D01*
X46645Y61659D01*
X46650Y61672D01*
X46663Y61700D01*
X46674Y61734D01*
X46685Y61772D01*
X46693Y61815D01*
X46696Y61861D01*
Y61863D01*
Y61869D01*
Y61878D01*
X46695Y61891D01*
X46693Y61907D01*
X46689Y61924D01*
X46685Y61944D01*
X46680Y61967D01*
X46672Y61989D01*
X46663Y62013D01*
X46654Y62039D01*
X46641Y62063D01*
X46624Y62089D01*
X46608Y62113D01*
X46587Y62137D01*
X46563Y62159D01*
X46561Y62161D01*
X46558Y62164D01*
X46549Y62170D01*
X46539Y62177D01*
X46524Y62187D01*
X46506Y62196D01*
X46486Y62207D01*
X46461Y62218D01*
X46436Y62229D01*
X46404Y62240D01*
X46369Y62250D01*
X46332Y62259D01*
X46291Y62266D01*
X46247Y62272D01*
X46199Y62275D01*
X46147Y62277D01*
D02*
G37*
G36*
X53101Y67820D02*
X52293D01*
Y66975D01*
X53059D01*
X53077Y66976D01*
X53101D01*
X53125Y66978D01*
X53153Y66980D01*
X53211Y66986D01*
X53272Y66995D01*
X53331Y67006D01*
X53357Y67013D01*
X53382Y67021D01*
X53384D01*
X53388Y67023D01*
X53395Y67026D01*
X53405Y67030D01*
X53416Y67036D01*
X53427Y67041D01*
X53456Y67058D01*
X53490Y67080D01*
X53523Y67106D01*
X53554Y67137D01*
X53582Y67174D01*
Y67176D01*
X53586Y67180D01*
X53588Y67185D01*
X53593Y67193D01*
X53599Y67202D01*
X53605Y67215D01*
X53617Y67243D01*
X53628Y67276D01*
X53640Y67315D01*
X53647Y67357D01*
X53651Y67404D01*
Y67405D01*
Y67411D01*
Y67420D01*
X53649Y67433D01*
X53647Y67450D01*
X53643Y67466D01*
X53640Y67487D01*
X53634Y67509D01*
X53627Y67531D01*
X53617Y67555D01*
X53608Y67581D01*
X53595Y67605D01*
X53579Y67631D01*
X53562Y67655D01*
X53542Y67679D01*
X53518Y67702D01*
X53516Y67703D01*
X53512Y67707D01*
X53503Y67713D01*
X53493Y67720D01*
X53479Y67729D01*
X53460Y67738D01*
X53440Y67750D01*
X53416Y67761D01*
X53390Y67772D01*
X53359Y67783D01*
X53323Y67792D01*
X53286Y67801D01*
X53246Y67809D01*
X53201Y67814D01*
X53153Y67818D01*
X53101Y67820D01*
D02*
G37*
G36*
X50289Y67855D02*
X50273D01*
X50254Y67853D01*
X50230Y67851D01*
X50199Y67848D01*
X50162Y67842D01*
X50121Y67835D01*
X50078Y67824D01*
X50030Y67811D01*
X49980Y67794D01*
X49930Y67774D01*
X49877Y67751D01*
X49825Y67722D01*
X49773Y67689D01*
X49721Y67651D01*
X49671Y67607D01*
X49668Y67603D01*
X49660Y67596D01*
X49647Y67581D01*
X49631Y67559D01*
X49612Y67533D01*
X49590Y67498D01*
X49566Y67459D01*
X49542Y67413D01*
X49518Y67359D01*
X49494Y67298D01*
X49474Y67230D01*
X49453Y67156D01*
X49437Y67074D01*
X49429Y67030D01*
X49424Y66986D01*
X49418Y66938D01*
X49416Y66887D01*
X49412Y66838D01*
Y66784D01*
Y66782D01*
Y66778D01*
Y66773D01*
Y66764D01*
X49414Y66752D01*
Y66739D01*
Y66725D01*
X49416Y66708D01*
X49420Y66669D01*
X49425Y66623D01*
X49433Y66573D01*
X49444Y66519D01*
X49457Y66462D01*
X49474Y66403D01*
X49494Y66342D01*
X49518Y66281D01*
X49546Y66221D01*
X49579Y66162D01*
X49616Y66107D01*
X49660Y66055D01*
X49664Y66051D01*
X49671Y66044D01*
X49686Y66031D01*
X49705Y66014D01*
X49731Y65994D01*
X49758Y65972D01*
X49793Y65948D01*
X49832Y65924D01*
X49875Y65898D01*
X49923Y65874D01*
X49975Y65851D01*
X50030Y65831D01*
X50088Y65815D01*
X50151Y65802D01*
X50217Y65794D01*
X50286Y65790D01*
X50302D01*
X50311Y65792D01*
X50323D01*
X50349Y65794D01*
X50382Y65798D01*
X50419Y65805D01*
X50461Y65813D01*
X50508Y65824D01*
X50556Y65838D01*
X50608Y65855D01*
X50659Y65877D01*
X50711Y65903D01*
X50765Y65935D01*
X50817Y65970D01*
X50867Y66013D01*
X50915Y66059D01*
X50918Y66062D01*
X50926Y66072D01*
X50937Y66087D01*
X50953Y66109D01*
X50972Y66136D01*
X50992Y66170D01*
X51016Y66209D01*
X51038Y66255D01*
X51063Y66307D01*
X51085Y66362D01*
X51105Y66425D01*
X51124Y66493D01*
X51140Y66567D01*
X51151Y66647D01*
X51161Y66730D01*
X51162Y66821D01*
Y66825D01*
Y66834D01*
Y66851D01*
X51161Y66873D01*
X51159Y66900D01*
X51157Y66932D01*
X51153Y66967D01*
X51149Y67006D01*
X51144Y67047D01*
X51137Y67091D01*
X51127Y67135D01*
X51118Y67182D01*
X51105Y67228D01*
X51090Y67274D01*
X51074Y67320D01*
X51055Y67365D01*
X51053Y67367D01*
X51050Y67376D01*
X51044Y67387D01*
X51035Y67404D01*
X51024Y67422D01*
X51011Y67446D01*
X50996Y67470D01*
X50977Y67498D01*
X50957Y67526D01*
X50933Y67555D01*
X50909Y67585D01*
X50881Y67615D01*
X50850Y67644D01*
X50818Y67674D01*
X50783Y67700D01*
X50746Y67725D01*
X50744Y67727D01*
X50737Y67731D01*
X50726Y67737D01*
X50711Y67746D01*
X50691Y67755D01*
X50669Y67766D01*
X50643Y67779D01*
X50613Y67790D01*
X50580Y67803D01*
X50545Y67814D01*
X50508Y67826D01*
X50467Y67835D01*
X50426Y67844D01*
X50382Y67849D01*
X50336Y67853D01*
X50289Y67855D01*
D02*
G37*
G36*
X6154Y62835D02*
Y62831D01*
X6153Y62824D01*
X6149Y62811D01*
X6145Y62792D01*
X6140Y62770D01*
X6134Y62744D01*
X6127Y62714D01*
X6119Y62681D01*
X6108Y62644D01*
X6099Y62605D01*
X6088Y62566D01*
X6075Y62524D01*
X6047Y62435D01*
X6016Y62344D01*
X5734Y61593D01*
X6604D01*
X6336Y62302D01*
Y62304D01*
X6334Y62306D01*
X6330Y62317D01*
X6325Y62333D01*
X6315Y62356D01*
X6306Y62383D01*
X6293Y62415D01*
X6282Y62452D01*
X6267Y62491D01*
X6252Y62531D01*
X6238Y62574D01*
X6208Y62663D01*
X6179Y62751D01*
X6165Y62794D01*
X6154Y62835D01*
D02*
G37*
G36*
X14150Y62855D02*
X14133D01*
X14115Y62853D01*
X14091Y62851D01*
X14060Y62848D01*
X14022Y62842D01*
X13982Y62835D01*
X13939Y62824D01*
X13891Y62811D01*
X13841Y62794D01*
X13791Y62774D01*
X13737Y62751D01*
X13686Y62722D01*
X13634Y62688D01*
X13582Y62651D01*
X13532Y62607D01*
X13529Y62603D01*
X13521Y62596D01*
X13508Y62581D01*
X13491Y62559D01*
X13473Y62533D01*
X13451Y62498D01*
X13427Y62459D01*
X13403Y62413D01*
X13379Y62359D01*
X13355Y62298D01*
X13334Y62230D01*
X13314Y62156D01*
X13297Y62074D01*
X13290Y62030D01*
X13284Y61986D01*
X13279Y61937D01*
X13277Y61888D01*
X13273Y61838D01*
Y61784D01*
Y61782D01*
Y61778D01*
Y61773D01*
Y61764D01*
X13275Y61752D01*
Y61739D01*
Y61725D01*
X13277Y61708D01*
X13281Y61669D01*
X13286Y61623D01*
X13294Y61573D01*
X13305Y61519D01*
X13318Y61462D01*
X13334Y61403D01*
X13355Y61342D01*
X13379Y61281D01*
X13406Y61221D01*
X13440Y61162D01*
X13477Y61107D01*
X13521Y61055D01*
X13525Y61051D01*
X13532Y61044D01*
X13547Y61031D01*
X13566Y61014D01*
X13591Y60994D01*
X13619Y60972D01*
X13654Y60948D01*
X13693Y60924D01*
X13736Y60898D01*
X13784Y60874D01*
X13836Y60852D01*
X13891Y60831D01*
X13948Y60814D01*
X14011Y60802D01*
X14078Y60794D01*
X14146Y60790D01*
X14163D01*
X14172Y60792D01*
X14183D01*
X14209Y60794D01*
X14243Y60798D01*
X14280Y60805D01*
X14322Y60813D01*
X14368Y60824D01*
X14416Y60839D01*
X14468Y60855D01*
X14520Y60877D01*
X14572Y60903D01*
X14626Y60935D01*
X14677Y60970D01*
X14727Y61013D01*
X14775Y61059D01*
X14779Y61062D01*
X14786Y61072D01*
X14798Y61086D01*
X14814Y61109D01*
X14833Y61136D01*
X14853Y61170D01*
X14877Y61209D01*
X14899Y61255D01*
X14923Y61307D01*
X14946Y61362D01*
X14966Y61425D01*
X14985Y61493D01*
X15001Y61567D01*
X15012Y61647D01*
X15021Y61730D01*
X15023Y61821D01*
Y61825D01*
Y61834D01*
Y61851D01*
X15021Y61873D01*
X15020Y61901D01*
X15018Y61932D01*
X15014Y61967D01*
X15010Y62006D01*
X15005Y62047D01*
X14997Y62091D01*
X14988Y62135D01*
X14979Y62182D01*
X14966Y62228D01*
X14951Y62274D01*
X14934Y62320D01*
X14916Y62365D01*
X14914Y62367D01*
X14910Y62376D01*
X14905Y62387D01*
X14896Y62404D01*
X14885Y62422D01*
X14872Y62446D01*
X14857Y62470D01*
X14838Y62498D01*
X14818Y62526D01*
X14794Y62555D01*
X14770Y62585D01*
X14742Y62615D01*
X14711Y62644D01*
X14679Y62674D01*
X14644Y62700D01*
X14607Y62726D01*
X14605Y62727D01*
X14598Y62731D01*
X14587Y62737D01*
X14572Y62746D01*
X14552Y62755D01*
X14529Y62766D01*
X14503Y62779D01*
X14474Y62790D01*
X14441Y62803D01*
X14405Y62814D01*
X14368Y62826D01*
X14328Y62835D01*
X14287Y62844D01*
X14243Y62849D01*
X14196Y62853D01*
X14150Y62855D01*
D02*
G37*
G36*
X14399Y66759D02*
X13839D01*
Y65984D01*
X14427D01*
X14445Y65986D01*
X14490D01*
X14516Y65987D01*
X14567Y65991D01*
X14621Y65997D01*
X14647Y66000D01*
X14671Y66004D01*
X14693Y66008D01*
X14714Y66013D01*
X14716D01*
X14719Y66015D01*
X14727Y66017D01*
X14736Y66021D01*
X14745Y66024D01*
X14758Y66030D01*
X14786Y66043D01*
X14817Y66060D01*
X14851Y66082D01*
X14880Y66108D01*
X14908Y66139D01*
Y66141D01*
X14911Y66143D01*
X14913Y66148D01*
X14919Y66156D01*
X14923Y66165D01*
X14928Y66174D01*
X14941Y66202D01*
X14954Y66233D01*
X14963Y66272D01*
X14971Y66317D01*
X14974Y66365D01*
Y66367D01*
Y66370D01*
Y66378D01*
Y66387D01*
X14973Y66398D01*
X14971Y66411D01*
X14967Y66441D01*
X14960Y66476D01*
X14949Y66513D01*
X14932Y66552D01*
X14911Y66589D01*
Y66590D01*
X14908Y66592D01*
X14900Y66605D01*
X14886Y66622D01*
X14867Y66642D01*
X14843Y66664D01*
X14812Y66687D01*
X14778Y66705D01*
X14738Y66722D01*
X14736D01*
X14732Y66724D01*
X14725Y66725D01*
X14716Y66727D01*
X14703Y66731D01*
X14688Y66733D01*
X14669Y66737D01*
X14647Y66740D01*
X14621Y66744D01*
X14593Y66748D01*
X14562Y66750D01*
X14527Y66753D01*
X14488Y66755D01*
X14445Y66757D01*
X14399Y66759D01*
D02*
G37*
G36*
X14473Y65682D02*
X13839D01*
Y64802D01*
X14530D01*
X14566Y64803D01*
X14604D01*
X14641Y64807D01*
X14677Y64809D01*
X14693Y64811D01*
X14706Y64813D01*
X14708D01*
X14712Y64815D01*
X14717D01*
X14727Y64816D01*
X14747Y64822D01*
X14775Y64829D01*
X14804Y64838D01*
X14838Y64850D01*
X14869Y64864D01*
X14900Y64881D01*
X14902D01*
X14904Y64883D01*
X14913Y64890D01*
X14928Y64901D01*
X14947Y64918D01*
X14967Y64938D01*
X14989Y64963D01*
X15010Y64990D01*
X15030Y65024D01*
Y65025D01*
X15032Y65027D01*
X15035Y65033D01*
X15037Y65040D01*
X15047Y65061D01*
X15056Y65087D01*
X15065Y65118D01*
X15074Y65155D01*
X15080Y65197D01*
X15082Y65242D01*
Y65244D01*
Y65247D01*
Y65257D01*
X15080Y65266D01*
Y65279D01*
X15078Y65292D01*
X15073Y65327D01*
X15063Y65366D01*
X15050Y65407D01*
X15032Y65449D01*
X15008Y65490D01*
Y65492D01*
X15004Y65495D01*
X15000Y65499D01*
X14995Y65506D01*
X14978Y65525D01*
X14954Y65547D01*
X14924Y65573D01*
X14889Y65597D01*
X14849Y65619D01*
X14802Y65638D01*
X14801D01*
X14797Y65640D01*
X14789Y65641D01*
X14778Y65645D01*
X14765Y65649D01*
X14749Y65653D01*
X14730Y65656D01*
X14708Y65660D01*
X14682Y65664D01*
X14654Y65667D01*
X14623Y65671D01*
X14590Y65675D01*
X14555Y65678D01*
X14516Y65680D01*
X14473Y65682D01*
D02*
G37*
G36*
X6431Y70801D02*
X5839D01*
Y68844D01*
X6427D01*
X6447Y68846D01*
X6471D01*
X6499Y68848D01*
X6529Y68850D01*
X6592Y68855D01*
X6658Y68864D01*
X6723Y68875D01*
X6752Y68883D01*
X6780Y68890D01*
X6782D01*
X6786Y68892D01*
X6795Y68896D01*
X6804Y68900D01*
X6817Y68903D01*
X6830Y68911D01*
X6864Y68925D01*
X6900Y68944D01*
X6939Y68966D01*
X6976Y68994D01*
X7012Y69024D01*
X7013Y69025D01*
X7017Y69029D01*
X7023Y69037D01*
X7032Y69046D01*
X7041Y69057D01*
X7052Y69072D01*
X7065Y69090D01*
X7080Y69109D01*
X7095Y69131D01*
X7109Y69155D01*
X7126Y69183D01*
X7141Y69210D01*
X7156Y69242D01*
X7171Y69275D01*
X7185Y69310D01*
X7198Y69347D01*
Y69349D01*
X7202Y69357D01*
X7204Y69368D01*
X7209Y69384D01*
X7215Y69403D01*
X7220Y69427D01*
X7226Y69455D01*
X7233Y69486D01*
X7239Y69519D01*
X7244Y69558D01*
X7250Y69599D01*
X7256Y69641D01*
X7261Y69688D01*
X7263Y69736D01*
X7267Y69788D01*
Y69841D01*
Y69843D01*
Y69845D01*
Y69850D01*
Y69860D01*
Y69869D01*
Y69880D01*
X7265Y69908D01*
X7263Y69941D01*
X7259Y69980D01*
X7256Y70023D01*
X7250Y70069D01*
X7243Y70117D01*
X7233Y70169D01*
X7224Y70219D01*
X7211Y70271D01*
X7195Y70320D01*
X7178Y70368D01*
X7158Y70415D01*
X7134Y70457D01*
X7132Y70459D01*
X7128Y70467D01*
X7121Y70478D01*
X7109Y70492D01*
X7097Y70509D01*
X7082Y70529D01*
X7065Y70552D01*
X7045Y70576D01*
X7023Y70600D01*
X6999Y70624D01*
X6971Y70648D01*
X6943Y70672D01*
X6913Y70694D01*
X6882Y70714D01*
X6849Y70733D01*
X6814Y70748D01*
X6812D01*
X6808Y70750D01*
X6799Y70753D01*
X6788Y70757D01*
X6773Y70761D01*
X6754Y70764D01*
X6732Y70770D01*
X6708Y70776D01*
X6678Y70779D01*
X6647Y70785D01*
X6610Y70789D01*
X6571Y70794D01*
X6527Y70796D01*
X6481Y70799D01*
X6431Y70801D01*
D02*
G37*
G36*
X45703Y71801D02*
X45111D01*
Y69844D01*
X45699D01*
X45719Y69846D01*
X45743D01*
X45771Y69848D01*
X45801Y69850D01*
X45864Y69855D01*
X45930Y69864D01*
X45995Y69876D01*
X46025Y69883D01*
X46052Y69890D01*
X46054D01*
X46058Y69892D01*
X46067Y69896D01*
X46076Y69900D01*
X46089Y69903D01*
X46102Y69911D01*
X46135Y69925D01*
X46172Y69944D01*
X46211Y69966D01*
X46248Y69994D01*
X46283Y70024D01*
X46285Y70025D01*
X46289Y70029D01*
X46295Y70037D01*
X46304Y70046D01*
X46313Y70057D01*
X46324Y70072D01*
X46337Y70090D01*
X46352Y70109D01*
X46367Y70131D01*
X46382Y70155D01*
X46398Y70183D01*
X46413Y70210D01*
X46428Y70242D01*
X46442Y70275D01*
X46457Y70310D01*
X46470Y70347D01*
Y70349D01*
X46474Y70357D01*
X46476Y70368D01*
X46481Y70384D01*
X46487Y70403D01*
X46492Y70427D01*
X46498Y70455D01*
X46505Y70486D01*
X46511Y70519D01*
X46517Y70558D01*
X46522Y70599D01*
X46528Y70641D01*
X46533Y70688D01*
X46535Y70736D01*
X46539Y70788D01*
Y70841D01*
Y70843D01*
Y70845D01*
Y70850D01*
Y70860D01*
Y70869D01*
Y70880D01*
X46537Y70908D01*
X46535Y70941D01*
X46531Y70980D01*
X46528Y71023D01*
X46522Y71069D01*
X46515Y71117D01*
X46505Y71169D01*
X46496Y71219D01*
X46483Y71271D01*
X46467Y71320D01*
X46450Y71368D01*
X46430Y71415D01*
X46406Y71457D01*
X46404Y71459D01*
X46400Y71466D01*
X46393Y71478D01*
X46382Y71492D01*
X46369Y71509D01*
X46354Y71529D01*
X46337Y71552D01*
X46317Y71576D01*
X46295Y71600D01*
X46270Y71624D01*
X46243Y71648D01*
X46215Y71672D01*
X46185Y71694D01*
X46154Y71714D01*
X46121Y71733D01*
X46086Y71748D01*
X46084D01*
X46080Y71750D01*
X46071Y71753D01*
X46060Y71757D01*
X46045Y71761D01*
X46026Y71764D01*
X46004Y71770D01*
X45980Y71776D01*
X45950Y71779D01*
X45919Y71785D01*
X45882Y71789D01*
X45843Y71794D01*
X45799Y71796D01*
X45753Y71799D01*
X45703Y71801D01*
D02*
G37*
G36*
X43112Y71855D02*
X43096D01*
X43077Y71853D01*
X43053Y71851D01*
X43022Y71848D01*
X42985Y71842D01*
X42944Y71835D01*
X42902Y71824D01*
X42854Y71811D01*
X42804Y71794D01*
X42754Y71774D01*
X42700Y71751D01*
X42648Y71722D01*
X42596Y71688D01*
X42545Y71652D01*
X42495Y71607D01*
X42491Y71603D01*
X42484Y71596D01*
X42471Y71581D01*
X42454Y71559D01*
X42435Y71533D01*
X42413Y71498D01*
X42389Y71459D01*
X42365Y71413D01*
X42341Y71359D01*
X42317Y71298D01*
X42297Y71230D01*
X42276Y71156D01*
X42260Y71074D01*
X42252Y71030D01*
X42247Y70986D01*
X42241Y70938D01*
X42239Y70888D01*
X42236Y70837D01*
Y70784D01*
Y70782D01*
Y70778D01*
Y70773D01*
Y70763D01*
X42237Y70752D01*
Y70740D01*
Y70725D01*
X42239Y70708D01*
X42243Y70669D01*
X42249Y70623D01*
X42256Y70573D01*
X42267Y70519D01*
X42280Y70462D01*
X42297Y70403D01*
X42317Y70342D01*
X42341Y70281D01*
X42369Y70222D01*
X42402Y70162D01*
X42439Y70107D01*
X42484Y70055D01*
X42487Y70051D01*
X42495Y70044D01*
X42509Y70031D01*
X42528Y70014D01*
X42554Y69994D01*
X42582Y69972D01*
X42617Y69948D01*
X42656Y69924D01*
X42698Y69898D01*
X42746Y69874D01*
X42798Y69851D01*
X42854Y69831D01*
X42911Y69814D01*
X42974Y69801D01*
X43040Y69794D01*
X43109Y69790D01*
X43126D01*
X43135Y69792D01*
X43146D01*
X43172Y69794D01*
X43205Y69798D01*
X43242Y69805D01*
X43285Y69813D01*
X43331Y69824D01*
X43379Y69839D01*
X43431Y69855D01*
X43483Y69877D01*
X43534Y69903D01*
X43588Y69935D01*
X43640Y69970D01*
X43690Y70012D01*
X43738Y70059D01*
X43742Y70062D01*
X43749Y70072D01*
X43760Y70086D01*
X43777Y70109D01*
X43795Y70136D01*
X43816Y70170D01*
X43840Y70209D01*
X43862Y70255D01*
X43886Y70307D01*
X43908Y70362D01*
X43928Y70425D01*
X43947Y70493D01*
X43964Y70567D01*
X43975Y70647D01*
X43984Y70730D01*
X43986Y70821D01*
Y70825D01*
Y70834D01*
Y70850D01*
X43984Y70873D01*
X43982Y70900D01*
X43980Y70932D01*
X43977Y70967D01*
X43973Y71006D01*
X43967Y71047D01*
X43960Y71091D01*
X43951Y71135D01*
X43941Y71182D01*
X43928Y71228D01*
X43914Y71274D01*
X43897Y71320D01*
X43878Y71365D01*
X43877Y71367D01*
X43873Y71376D01*
X43867Y71387D01*
X43858Y71404D01*
X43847Y71422D01*
X43834Y71446D01*
X43819Y71470D01*
X43801Y71498D01*
X43780Y71526D01*
X43756Y71555D01*
X43732Y71585D01*
X43705Y71614D01*
X43673Y71644D01*
X43642Y71674D01*
X43606Y71700D01*
X43569Y71725D01*
X43568Y71727D01*
X43560Y71731D01*
X43549Y71737D01*
X43534Y71746D01*
X43514Y71755D01*
X43492Y71766D01*
X43466Y71779D01*
X43436Y71790D01*
X43403Y71803D01*
X43368Y71814D01*
X43331Y71825D01*
X43290Y71835D01*
X43249Y71844D01*
X43205Y71850D01*
X43159Y71853D01*
X43112Y71855D01*
D02*
G37*
G36*
X30096Y67493D02*
X29288D01*
Y66647D01*
X30054D01*
X30072Y66649D01*
X30096D01*
X30120Y66651D01*
X30148Y66653D01*
X30205Y66658D01*
X30266Y66667D01*
X30326Y66679D01*
X30352Y66686D01*
X30378Y66693D01*
X30379D01*
X30383Y66695D01*
X30390Y66699D01*
X30400Y66703D01*
X30411Y66708D01*
X30422Y66714D01*
X30452Y66730D01*
X30485Y66752D01*
X30518Y66778D01*
X30549Y66810D01*
X30577Y66847D01*
Y66849D01*
X30581Y66852D01*
X30583Y66858D01*
X30588Y66865D01*
X30594Y66875D01*
X30599Y66888D01*
X30612Y66915D01*
X30623Y66949D01*
X30635Y66988D01*
X30642Y67030D01*
X30646Y67076D01*
Y67078D01*
Y67084D01*
Y67093D01*
X30644Y67106D01*
X30642Y67123D01*
X30638Y67139D01*
X30635Y67159D01*
X30629Y67182D01*
X30622Y67204D01*
X30612Y67228D01*
X30603Y67254D01*
X30590Y67278D01*
X30574Y67304D01*
X30557Y67328D01*
X30537Y67352D01*
X30512Y67374D01*
X30511Y67376D01*
X30507Y67380D01*
X30498Y67385D01*
X30488Y67393D01*
X30474Y67402D01*
X30455Y67411D01*
X30435Y67422D01*
X30411Y67433D01*
X30385Y67444D01*
X30353Y67456D01*
X30318Y67465D01*
X30281Y67474D01*
X30241Y67481D01*
X30196Y67487D01*
X30148Y67491D01*
X30096Y67493D01*
D02*
G37*
G36*
X36830Y67993D02*
X36022D01*
Y67147D01*
X36788D01*
X36806Y67149D01*
X36830D01*
X36854Y67151D01*
X36882Y67153D01*
X36939Y67158D01*
X37001Y67167D01*
X37060Y67178D01*
X37086Y67186D01*
X37111Y67193D01*
X37113D01*
X37117Y67195D01*
X37124Y67199D01*
X37134Y67203D01*
X37145Y67208D01*
X37156Y67214D01*
X37185Y67230D01*
X37219Y67252D01*
X37252Y67278D01*
X37284Y67310D01*
X37311Y67347D01*
Y67349D01*
X37315Y67352D01*
X37317Y67358D01*
X37322Y67365D01*
X37328Y67375D01*
X37334Y67388D01*
X37346Y67415D01*
X37358Y67449D01*
X37369Y67488D01*
X37376Y67530D01*
X37380Y67576D01*
Y67578D01*
Y67584D01*
Y67593D01*
X37378Y67606D01*
X37376Y67623D01*
X37372Y67639D01*
X37369Y67659D01*
X37363Y67682D01*
X37356Y67704D01*
X37346Y67728D01*
X37337Y67754D01*
X37324Y67778D01*
X37308Y67804D01*
X37291Y67828D01*
X37271Y67852D01*
X37247Y67874D01*
X37245Y67876D01*
X37241Y67880D01*
X37232Y67885D01*
X37222Y67893D01*
X37208Y67902D01*
X37189Y67911D01*
X37169Y67922D01*
X37145Y67933D01*
X37119Y67944D01*
X37088Y67955D01*
X37052Y67965D01*
X37015Y67974D01*
X36975Y67981D01*
X36930Y67987D01*
X36882Y67991D01*
X36830Y67993D01*
D02*
G37*
%LPD*%
D10*
X4000Y7000D02*
X6000Y5000D01*
D11*
X25252Y4445D02*
Y5445D01*
Y51145D02*
Y52145D01*
X35094Y4445D02*
Y5445D01*
Y51145D02*
Y52145D01*
X3373Y23374D02*
X4373D01*
X55973D02*
X56973D01*
X3373Y33216D02*
X4373D01*
X55973D02*
X56973D01*
X56473Y4945D02*
Y51645D01*
X3873D02*
X56473D01*
X3873Y4945D02*
Y51645D01*
Y4945D02*
X56473D01*
D12*
X33890Y51957D02*
Y56425D01*
Y64043D02*
X40110D01*
X33890Y51957D02*
X40110D01*
X33890Y59575D02*
Y64043D01*
X40110Y51957D02*
Y56425D01*
Y59575D02*
Y64043D01*
X27890Y51957D02*
Y56425D01*
Y64043D02*
X34110D01*
X27890Y51957D02*
X34110D01*
X27890Y59575D02*
Y64043D01*
X34110Y51957D02*
Y56425D01*
Y59575D02*
Y64043D01*
M02*
