G04*
G04 #@! TF.GenerationSoftware,Altium Limited,Altium Designer,22.2.1 (43)*
G04*
G04 Layer_Physical_Order=2*
G04 Layer_Color=36540*
%FSLAX25Y25*%
%MOIN*%
G70*
G04*
G04 #@! TF.SameCoordinates,4B28361B-3754-4690-972C-136B69916877*
G04*
G04*
G04 #@! TF.FilePolarity,Positive*
G04*
G01*
G75*
%ADD11C,0.00600*%
%ADD17C,0.01772*%
G36*
X57000Y74500D02*
Y8000D01*
X55000Y6000D01*
X6500D01*
X4000Y8500D01*
Y74500D01*
X6500Y77000D01*
X54500D01*
X57000Y74500D01*
D02*
G37*
%LPC*%
G36*
X17796Y74486D02*
X17204D01*
X16658Y74260D01*
X16240Y73842D01*
X16014Y73296D01*
Y72704D01*
X16240Y72158D01*
X16658Y71740D01*
X17204Y71514D01*
X17796D01*
X18342Y71740D01*
X18514Y71913D01*
X19014Y71706D01*
Y71704D01*
X19240Y71158D01*
X19658Y70740D01*
X20204Y70514D01*
X20796D01*
X21342Y70740D01*
X21760Y71158D01*
X21986Y71704D01*
Y72082D01*
X23500D01*
Y72073D01*
X23952Y71983D01*
X24335Y71727D01*
X24591Y71344D01*
X24680Y70892D01*
X24690D01*
Y69300D01*
X24675D01*
X24806Y68637D01*
X24917Y68471D01*
X24728Y67957D01*
X24428Y67833D01*
Y67833D01*
X23765Y67701D01*
X23202Y67326D01*
X22826Y66763D01*
X22694Y66100D01*
X22826Y65437D01*
X22836Y65423D01*
X22783Y65274D01*
X22543Y64961D01*
X22079D01*
X21533Y64734D01*
X21115Y64316D01*
X20889Y63770D01*
Y63179D01*
X21115Y62633D01*
X21475Y62274D01*
X21079Y61878D01*
X20853Y61331D01*
Y60740D01*
X21079Y60194D01*
X21497Y59776D01*
X22043Y59550D01*
X22634D01*
X23180Y59776D01*
X23598Y60194D01*
X23824Y60740D01*
Y61331D01*
X23598Y61878D01*
X23238Y62237D01*
X23634Y62633D01*
X23861Y63179D01*
Y63770D01*
X23771Y63988D01*
X23979Y64242D01*
X24428Y64367D01*
X24728Y64243D01*
X24917Y63729D01*
X24806Y63563D01*
X24675Y62900D01*
X24690D01*
Y61000D01*
Y53902D01*
X24190Y53568D01*
X24117Y53598D01*
X23526D01*
X22980Y53372D01*
X22562Y52954D01*
X22477Y52747D01*
X21936D01*
X21896Y52842D01*
X21478Y53260D01*
X20932Y53486D01*
X20341D01*
X19795Y53260D01*
X19377Y52842D01*
X19151Y52296D01*
Y51704D01*
X19377Y51158D01*
X19618Y50918D01*
X19411Y50418D01*
X18075D01*
Y50441D01*
X17252Y50278D01*
X16555Y49811D01*
X16088Y49114D01*
X15925Y48291D01*
X15948D01*
Y46618D01*
X15376D01*
Y46633D01*
X15000Y46559D01*
X14713Y46501D01*
X14150Y46126D01*
X13775Y45564D01*
X13643Y44900D01*
X13775Y44237D01*
X14150Y43674D01*
X14336Y43550D01*
Y43050D01*
X14150Y42926D01*
X13775Y42364D01*
X13643Y41700D01*
X13775Y41037D01*
X14150Y40475D01*
X14336Y40350D01*
Y39850D01*
X14150Y39726D01*
X13775Y39164D01*
X13643Y38500D01*
X13775Y37837D01*
X14150Y37275D01*
X14713Y36899D01*
X15000Y36842D01*
Y29926D01*
X14217Y29823D01*
X13487Y29520D01*
X12860Y29040D01*
X12380Y28413D01*
X12077Y27683D01*
X11974Y26900D01*
X11982D01*
X11982Y26900D01*
Y21608D01*
X11974Y21600D01*
X11974Y21600D01*
Y21600D01*
D01*
X12077Y20817D01*
X12380Y20087D01*
X12860Y19460D01*
X13487Y18980D01*
X13632Y18919D01*
X13740Y18658D01*
X14158Y18240D01*
X14704Y18014D01*
X15296D01*
X15842Y18240D01*
X16260Y18658D01*
X16486Y19204D01*
Y19796D01*
X16260Y20342D01*
X16157Y20444D01*
X16169Y20990D01*
X16587Y21408D01*
X16791Y21903D01*
X16874Y21932D01*
X16986Y21954D01*
X17312Y21954D01*
X17770Y21270D01*
X18564Y20739D01*
X19500Y20553D01*
Y20582D01*
X25651D01*
X26149Y20575D01*
X26149Y20575D01*
X26637Y20673D01*
X26945Y20879D01*
X27316Y20763D01*
X27456Y20664D01*
X27464Y20505D01*
X27176Y20386D01*
X26759Y19968D01*
X26532Y19422D01*
Y18831D01*
X26759Y18285D01*
X27176Y17867D01*
X27723Y17641D01*
X28314D01*
X28860Y17867D01*
X29278Y18285D01*
X29504Y18831D01*
Y19422D01*
X29838Y19800D01*
X29978Y19849D01*
X30072Y19810D01*
X30663D01*
X31209Y20036D01*
X31523Y20350D01*
X31897Y19976D01*
X32443Y19750D01*
X33034D01*
X33580Y19976D01*
X33785Y20181D01*
X34236Y20299D01*
Y20299D01*
X34969Y20445D01*
X35590Y20860D01*
X36005Y21481D01*
X36151Y22214D01*
X36132D01*
Y23017D01*
X36632Y23351D01*
X36776Y23291D01*
X37367D01*
X37913Y23517D01*
X38331Y23935D01*
X38557Y24481D01*
Y25072D01*
X38518Y25167D01*
X38796Y25582D01*
X46936D01*
Y25558D01*
X47765Y25723D01*
X48467Y26193D01*
X48937Y26895D01*
X49102Y27724D01*
X49078D01*
Y46413D01*
X49089D01*
X48993Y46896D01*
X48974Y46993D01*
X48761Y47312D01*
X48755Y47319D01*
X48690Y47416D01*
X48690Y47416D01*
X48576Y47530D01*
X48576Y47530D01*
X48479Y47595D01*
X48472Y47601D01*
X48153Y47814D01*
X48056Y47833D01*
X47573Y47929D01*
Y47918D01*
X43908D01*
X43492Y48201D01*
X43486Y48391D01*
Y48796D01*
X43260Y49342D01*
X42842Y49760D01*
X42296Y49986D01*
X41704D01*
X41158Y49760D01*
X40740Y49342D01*
X40635Y49088D01*
X40190Y48817D01*
X40028Y48828D01*
X39500Y48933D01*
Y48918D01*
X38783D01*
Y50147D01*
X39125Y50489D01*
X39351Y51035D01*
Y51627D01*
X39125Y52173D01*
X38707Y52591D01*
X38161Y52817D01*
X37570D01*
X37024Y52591D01*
X36606Y52173D01*
X36379Y51627D01*
Y51035D01*
X36606Y50489D01*
X36948Y50147D01*
Y48635D01*
X36935D01*
X37054Y48036D01*
X37394Y47528D01*
X37901Y47189D01*
X38500Y47070D01*
Y47082D01*
X39382D01*
Y45318D01*
X38410D01*
Y45333D01*
X37747Y45202D01*
X37184Y44826D01*
X36809Y44263D01*
X36677Y43600D01*
X36809Y42937D01*
X37184Y42375D01*
X37370Y42250D01*
Y41750D01*
X37184Y41626D01*
X36809Y41063D01*
X36677Y40400D01*
X36809Y39737D01*
X37184Y39175D01*
X37370Y39050D01*
Y38550D01*
X37184Y38426D01*
X36809Y37863D01*
X36677Y37200D01*
X36809Y36537D01*
X37184Y35974D01*
X37747Y35599D01*
X38410Y35467D01*
Y35482D01*
X39382D01*
Y32300D01*
X39367D01*
X39301Y31968D01*
X39113Y31687D01*
X38832Y31499D01*
X38500Y31433D01*
Y31418D01*
X36409D01*
X36345Y31405D01*
X35857Y31753D01*
X35845Y31776D01*
Y31825D01*
X35619Y32371D01*
X35201Y32789D01*
X34655Y33015D01*
X34064D01*
X33991Y32985D01*
X33491Y33319D01*
Y34986D01*
X33649Y35144D01*
X33848Y35441D01*
X33918Y35792D01*
Y39500D01*
Y41028D01*
X33848Y41380D01*
X33649Y41677D01*
X32918Y42409D01*
Y45980D01*
X33296D01*
X33842Y46206D01*
X34260Y46624D01*
X34486Y47170D01*
Y47761D01*
X34260Y48307D01*
X33842Y48725D01*
X33296Y48952D01*
X32704D01*
X32158Y48725D01*
X31888Y48455D01*
X31574Y48358D01*
X31260Y48455D01*
X30989Y48725D01*
X30443Y48952D01*
X29852D01*
X29306Y48725D01*
X28888Y48307D01*
X28662Y47761D01*
Y47170D01*
X28888Y46624D01*
X29306Y46206D01*
X29711Y46038D01*
Y43518D01*
X28519D01*
Y43533D01*
X28387Y43507D01*
X27855Y43401D01*
X27293Y43026D01*
X27025Y42625D01*
X26525Y42777D01*
Y49710D01*
X27025Y50044D01*
X27098Y50014D01*
X27689D01*
X28235Y50240D01*
X28653Y50658D01*
X28879Y51204D01*
Y51796D01*
X28653Y52342D01*
X28235Y52760D01*
X28000Y52857D01*
X27689Y52986D01*
X27098D01*
X27025Y52956D01*
X26986Y52959D01*
X26525Y53290D01*
Y61000D01*
Y62375D01*
X26788Y62767D01*
X27451Y62899D01*
X28013Y63274D01*
X28231Y63600D01*
X28795Y63544D01*
X28820Y63484D01*
X29238Y63066D01*
X29784Y62840D01*
X30375D01*
X30921Y63066D01*
X31339Y63484D01*
X31566Y64030D01*
Y64622D01*
X31339Y65168D01*
X30921Y65586D01*
X30375Y65812D01*
X29784D01*
X29238Y65586D01*
X28885Y65233D01*
X28710Y65208D01*
D01*
X28578Y65216D01*
X28320Y65267D01*
X28013Y65726D01*
X28000Y65735D01*
X27827Y65850D01*
Y66350D01*
X28013Y66474D01*
X28389Y67037D01*
X28521Y67700D01*
X28389Y68363D01*
X28013Y68926D01*
X27451Y69301D01*
X26788Y69433D01*
X26525Y69825D01*
Y70892D01*
X26534D01*
X26430Y71677D01*
X26127Y72409D01*
X25645Y73037D01*
X25017Y73519D01*
X24285Y73823D01*
X23500Y73926D01*
Y73918D01*
X21500D01*
Y73937D01*
X20759Y73790D01*
X20304Y73486D01*
X20204D01*
X19658Y73260D01*
X19486Y73087D01*
X18986Y73294D01*
Y73296D01*
X18760Y73842D01*
X18342Y74260D01*
X17796Y74486D01*
D02*
G37*
G36*
X40795Y62986D02*
X40205D01*
X39658Y62760D01*
X39240Y62342D01*
X39014Y61796D01*
Y61204D01*
X39240Y60658D01*
X39658Y60240D01*
X40205Y60014D01*
X40795D01*
X41342Y60240D01*
X41760Y60658D01*
X41986Y61204D01*
Y61796D01*
X41760Y62342D01*
X41342Y62760D01*
X40795Y62986D01*
D02*
G37*
G36*
X45595Y22286D02*
X45004D01*
X44458Y22060D01*
X44040Y21642D01*
X43814Y21096D01*
Y20504D01*
X44040Y19958D01*
X44458Y19540D01*
X45004Y19314D01*
X45595D01*
X46142Y19540D01*
X46560Y19958D01*
X46786Y20504D01*
Y21096D01*
X46560Y21642D01*
X46142Y22060D01*
X45595Y22286D01*
D02*
G37*
G36*
X22796Y18651D02*
X22205D01*
X21659Y18425D01*
X21241Y18007D01*
X21015Y17461D01*
Y16870D01*
X21241Y16324D01*
X21659Y15906D01*
X22205Y15679D01*
X22796D01*
X23342Y15906D01*
X23760Y16324D01*
X23987Y16870D01*
Y17461D01*
X23760Y18007D01*
X23342Y18425D01*
X22796Y18651D01*
D02*
G37*
G36*
X35163Y12765D02*
X18932D01*
Y8918D01*
X35163D01*
Y12765D01*
D02*
G37*
%LPD*%
G36*
X41770Y46770D02*
X42564Y46239D01*
X43500Y46053D01*
Y46082D01*
X47242D01*
Y27724D01*
X47233D01*
X47146Y27514D01*
X46936Y27427D01*
Y27418D01*
X38672D01*
X38367Y27918D01*
X38486Y28205D01*
Y28795D01*
X38367Y29082D01*
X38407Y29234D01*
X38657Y29597D01*
X39205Y29669D01*
X39862Y29942D01*
X40426Y30374D01*
X40858Y30938D01*
X41131Y31595D01*
X41223Y32300D01*
X41218D01*
Y35600D01*
X41233D01*
X41101Y36263D01*
X40888Y36582D01*
X41155Y37082D01*
X42190D01*
Y37067D01*
X42853Y37199D01*
X43416Y37574D01*
X43791Y38137D01*
X43923Y38800D01*
X43791Y39463D01*
X43416Y40026D01*
X43229Y40150D01*
Y40650D01*
X43416Y40775D01*
X43791Y41337D01*
X43923Y42000D01*
X43791Y42663D01*
X43416Y43226D01*
X42853Y43602D01*
X42190Y43733D01*
Y43718D01*
X41155D01*
X40888Y44218D01*
X41101Y44537D01*
X41233Y45200D01*
X41218D01*
Y46675D01*
X41243Y46704D01*
X41718Y46848D01*
X41770Y46770D01*
D02*
G37*
G36*
X27293Y34174D02*
X27855Y33799D01*
X28519Y33667D01*
Y33682D01*
X29711D01*
Y32043D01*
X29211Y31814D01*
X28795Y31986D01*
X28205D01*
X27658Y31760D01*
X27240Y31342D01*
X27014Y30795D01*
Y30204D01*
X27240Y29658D01*
X27658Y29240D01*
X28205Y29014D01*
X28795D01*
X29211Y29186D01*
X29711Y28956D01*
Y24509D01*
X27933Y22731D01*
X27918Y22708D01*
X27567Y22774D01*
X27414Y22854D01*
X27327Y23291D01*
X27417Y23585D01*
X27657Y23685D01*
X28075Y24103D01*
X28301Y24649D01*
Y25240D01*
X28075Y25786D01*
X28000Y25861D01*
X27657Y26204D01*
X27111Y26430D01*
X26520D01*
X25973Y26204D01*
X25555Y25786D01*
X25337Y25260D01*
X25201Y25007D01*
X25135Y24963D01*
X24634Y25169D01*
Y25485D01*
X24408Y26031D01*
X23990Y26449D01*
X23444Y26675D01*
X22853D01*
X22307Y26449D01*
X21889Y26031D01*
X21663Y25485D01*
Y24894D01*
X21889Y24348D01*
X22307Y23930D01*
X22853Y23704D01*
X23185D01*
X23205Y23674D01*
Y23083D01*
X23273Y22918D01*
X22939Y22418D01*
X19500D01*
X19479Y22413D01*
X19079Y22579D01*
X19026Y22708D01*
X18913Y22979D01*
X18918Y23000D01*
Y26329D01*
X19418Y26537D01*
X19489Y26465D01*
X20035Y26239D01*
X20626D01*
X21172Y26465D01*
X21590Y26883D01*
X21816Y27429D01*
Y27913D01*
X26257Y32353D01*
X26456Y32651D01*
X26525Y33002D01*
Y34423D01*
X27025Y34575D01*
X27293Y34174D01*
D02*
G37*
G36*
X31272Y12163D02*
X31296D01*
X31326Y12159D01*
X31357Y12157D01*
X31394Y12154D01*
X31431Y12148D01*
X31472Y12143D01*
X31555Y12126D01*
X31600Y12115D01*
X31642Y12104D01*
X31685Y12089D01*
X31725Y12072D01*
X31727Y12071D01*
X31735Y12069D01*
X31746Y12063D01*
X31761Y12056D01*
X31779Y12047D01*
X31800Y12033D01*
X31824Y12021D01*
X31848Y12004D01*
X31875Y11987D01*
X31901Y11967D01*
X31929Y11945D01*
X31957Y11921D01*
X31984Y11895D01*
X32010Y11865D01*
X32036Y11836D01*
X32059Y11802D01*
X32060Y11800D01*
X32064Y11795D01*
X32070Y11784D01*
X32077Y11771D01*
X32086Y11754D01*
X32097Y11734D01*
X32107Y11712D01*
X32120Y11686D01*
X32131Y11658D01*
X32142Y11626D01*
X32153Y11593D01*
X32162Y11558D01*
X32171Y11521D01*
X32179Y11482D01*
X32182Y11441D01*
X32186Y11401D01*
X31861Y11377D01*
Y11381D01*
X31859Y11388D01*
X31857Y11401D01*
X31853Y11417D01*
X31850Y11436D01*
X31844Y11460D01*
X31837Y11486D01*
X31827Y11514D01*
X31818Y11543D01*
X31805Y11573D01*
X31790Y11603D01*
X31774Y11634D01*
X31755Y11664D01*
X31733Y11691D01*
X31709Y11719D01*
X31683Y11743D01*
X31681Y11745D01*
X31676Y11749D01*
X31668Y11754D01*
X31655Y11763D01*
X31639Y11773D01*
X31620Y11782D01*
X31598Y11793D01*
X31572Y11806D01*
X31542Y11817D01*
X31509Y11828D01*
X31472Y11837D01*
X31433Y11849D01*
X31389Y11856D01*
X31343Y11862D01*
X31293Y11865D01*
X31239Y11867D01*
X31209D01*
X31189Y11865D01*
X31163Y11863D01*
X31135Y11862D01*
X31102Y11858D01*
X31069Y11852D01*
X30995Y11839D01*
X30958Y11830D01*
X30921Y11819D01*
X30886Y11806D01*
X30850Y11791D01*
X30819Y11774D01*
X30791Y11754D01*
X30789Y11752D01*
X30786Y11749D01*
X30778Y11743D01*
X30769Y11734D01*
X30760Y11723D01*
X30747Y11710D01*
X30736Y11695D01*
X30723Y11678D01*
X30710Y11660D01*
X30697Y11638D01*
X30675Y11591D01*
X30665Y11567D01*
X30658Y11540D01*
X30654Y11512D01*
X30652Y11482D01*
Y11480D01*
Y11477D01*
Y11469D01*
X30654Y11460D01*
X30656Y11447D01*
X30658Y11434D01*
X30665Y11403D01*
X30677Y11366D01*
X30693Y11329D01*
X30704Y11308D01*
X30719Y11290D01*
X30734Y11271D01*
X30751Y11255D01*
X30752Y11253D01*
X30756Y11251D01*
X30762Y11245D01*
X30773Y11240D01*
X30786Y11231D01*
X30804Y11221D01*
X30825Y11210D01*
X30850Y11197D01*
X30882Y11184D01*
X30917Y11170D01*
X30960Y11155D01*
X31006Y11138D01*
X31060Y11122D01*
X31119Y11105D01*
X31185Y11088D01*
X31259Y11070D01*
X31261D01*
X31265Y11068D01*
X31270D01*
X31278Y11066D01*
X31287Y11064D01*
X31298Y11060D01*
X31326Y11055D01*
X31359Y11046D01*
X31398Y11036D01*
X31441Y11027D01*
X31485Y11014D01*
X31579Y10990D01*
X31626Y10977D01*
X31672Y10962D01*
X31716Y10949D01*
X31757Y10935D01*
X31794Y10922D01*
X31825Y10909D01*
X31827Y10907D01*
X31835Y10903D01*
X31848Y10898D01*
X31862Y10890D01*
X31881Y10879D01*
X31901Y10868D01*
X31925Y10853D01*
X31951Y10837D01*
X31977Y10820D01*
X32005Y10800D01*
X32060Y10755D01*
X32112Y10703D01*
X32134Y10676D01*
X32157Y10646D01*
X32158Y10644D01*
X32162Y10639D01*
X32166Y10629D01*
X32173Y10618D01*
X32181Y10604D01*
X32190Y10585D01*
X32201Y10565D01*
X32210Y10542D01*
X32219Y10516D01*
X32231Y10489D01*
X32240Y10459D01*
X32247Y10426D01*
X32255Y10393D01*
X32260Y10357D01*
X32262Y10322D01*
X32264Y10283D01*
Y10282D01*
Y10274D01*
Y10263D01*
X32262Y10248D01*
X32260Y10230D01*
X32258Y10209D01*
X32255Y10185D01*
X32249Y10158D01*
X32243Y10130D01*
X32234Y10098D01*
X32225Y10067D01*
X32214Y10034D01*
X32201Y10000D01*
X32184Y9965D01*
X32166Y9932D01*
X32146Y9897D01*
X32144Y9895D01*
X32140Y9889D01*
X32133Y9880D01*
X32123Y9867D01*
X32112Y9852D01*
X32097Y9834D01*
X32081Y9815D01*
X32060Y9795D01*
X32038Y9773D01*
X32012Y9751D01*
X31984Y9727D01*
X31955Y9702D01*
X31923Y9680D01*
X31888Y9658D01*
X31851Y9638D01*
X31811Y9617D01*
X31809Y9616D01*
X31801Y9614D01*
X31788Y9608D01*
X31772Y9603D01*
X31751Y9595D01*
X31727Y9586D01*
X31700Y9577D01*
X31668Y9567D01*
X31633Y9558D01*
X31594Y9549D01*
X31554Y9542D01*
X31511Y9532D01*
X31466Y9527D01*
X31418Y9521D01*
X31368Y9519D01*
X31319Y9517D01*
X31285D01*
X31261Y9519D01*
X31232Y9521D01*
X31196Y9523D01*
X31158Y9527D01*
X31115Y9531D01*
X31071Y9536D01*
X31024Y9542D01*
X30926Y9560D01*
X30876Y9571D01*
X30828Y9584D01*
X30780Y9601D01*
X30736Y9617D01*
X30734Y9619D01*
X30725Y9623D01*
X30714Y9629D01*
X30697Y9636D01*
X30677Y9647D01*
X30654Y9660D01*
X30628Y9677D01*
X30603Y9693D01*
X30573Y9714D01*
X30543Y9736D01*
X30512Y9762D01*
X30482Y9789D01*
X30451Y9819D01*
X30421Y9850D01*
X30393Y9886D01*
X30368Y9923D01*
X30366Y9924D01*
X30362Y9932D01*
X30355Y9943D01*
X30347Y9958D01*
X30336Y9978D01*
X30325Y10000D01*
X30312Y10026D01*
X30301Y10056D01*
X30288Y10089D01*
X30275Y10124D01*
X30264Y10163D01*
X30253Y10202D01*
X30244Y10245D01*
X30236Y10289D01*
X30231Y10335D01*
X30229Y10383D01*
X30549Y10411D01*
Y10409D01*
X30551Y10402D01*
Y10393D01*
X30555Y10380D01*
X30556Y10363D01*
X30560Y10343D01*
X30566Y10322D01*
X30571Y10298D01*
X30584Y10248D01*
X30603Y10195D01*
X30625Y10143D01*
X30652Y10093D01*
X30654Y10091D01*
X30656Y10087D01*
X30662Y10082D01*
X30669Y10073D01*
X30677Y10061D01*
X30688Y10050D01*
X30701Y10037D01*
X30715Y10023D01*
X30732Y10008D01*
X30752Y9991D01*
X30773Y9974D01*
X30797Y9958D01*
X30821Y9941D01*
X30849Y9924D01*
X30878Y9910D01*
X30910Y9895D01*
X30911D01*
X30917Y9891D01*
X30928Y9888D01*
X30941Y9884D01*
X30958Y9878D01*
X30976Y9871D01*
X31000Y9864D01*
X31024Y9858D01*
X31052Y9850D01*
X31084Y9843D01*
X31115Y9838D01*
X31150Y9830D01*
X31224Y9823D01*
X31304Y9819D01*
X31322D01*
X31337Y9821D01*
X31354D01*
X31372Y9823D01*
X31394Y9825D01*
X31418Y9826D01*
X31472Y9834D01*
X31529Y9843D01*
X31587Y9858D01*
X31644Y9876D01*
X31646D01*
X31651Y9878D01*
X31659Y9882D01*
X31668Y9888D01*
X31681Y9893D01*
X31694Y9900D01*
X31727Y9917D01*
X31762Y9939D01*
X31800Y9967D01*
X31835Y9999D01*
X31864Y10034D01*
Y10035D01*
X31868Y10039D01*
X31872Y10045D01*
X31875Y10052D01*
X31881Y10061D01*
X31888Y10073D01*
X31901Y10100D01*
X31914Y10132D01*
X31927Y10169D01*
X31935Y10211D01*
X31938Y10254D01*
Y10256D01*
Y10259D01*
Y10265D01*
X31936Y10274D01*
Y10285D01*
X31935Y10296D01*
X31929Y10326D01*
X31922Y10357D01*
X31909Y10393D01*
X31890Y10428D01*
X31866Y10463D01*
Y10465D01*
X31862Y10467D01*
X31853Y10478D01*
X31835Y10494D01*
X31824Y10505D01*
X31811Y10516D01*
X31796Y10528D01*
X31779Y10541D01*
X31761Y10554D01*
X31738Y10566D01*
X31716Y10579D01*
X31690Y10592D01*
X31664Y10604D01*
X31635Y10616D01*
X31633D01*
X31629Y10618D01*
X31624Y10620D01*
X31613Y10624D01*
X31600Y10627D01*
X31585Y10633D01*
X31565Y10639D01*
X31541Y10646D01*
X31511Y10655D01*
X31479Y10665D01*
X31442Y10674D01*
X31400Y10685D01*
X31354Y10698D01*
X31300Y10711D01*
X31243Y10726D01*
X31180Y10740D01*
X31178D01*
X31176Y10742D01*
X31170D01*
X31165Y10744D01*
X31146Y10750D01*
X31122Y10755D01*
X31095Y10763D01*
X31061Y10772D01*
X31024Y10781D01*
X30987Y10792D01*
X30906Y10816D01*
X30825Y10844D01*
X30786Y10859D01*
X30749Y10874D01*
X30717Y10887D01*
X30688Y10901D01*
X30686Y10903D01*
X30680Y10905D01*
X30671Y10911D01*
X30658Y10918D01*
X30643Y10927D01*
X30625Y10940D01*
X30606Y10953D01*
X30584Y10968D01*
X30540Y11001D01*
X30495Y11042D01*
X30451Y11088D01*
X30432Y11114D01*
X30414Y11140D01*
X30412Y11142D01*
X30410Y11147D01*
X30406Y11155D01*
X30401Y11166D01*
X30393Y11179D01*
X30386Y11194D01*
X30379Y11212D01*
X30369Y11232D01*
X30362Y11257D01*
X30353Y11281D01*
X30340Y11334D01*
X30329Y11393D01*
X30327Y11425D01*
X30325Y11458D01*
Y11460D01*
Y11467D01*
Y11477D01*
X30327Y11491D01*
X30329Y11508D01*
X30331Y11529D01*
X30334Y11551D01*
X30338Y11577D01*
X30345Y11604D01*
X30351Y11632D01*
X30360Y11662D01*
X30371Y11693D01*
X30384Y11725D01*
X30399Y11756D01*
X30416Y11789D01*
X30434Y11821D01*
X30436Y11823D01*
X30440Y11828D01*
X30445Y11837D01*
X30455Y11849D01*
X30466Y11863D01*
X30481Y11878D01*
X30497Y11897D01*
X30516Y11915D01*
X30536Y11936D01*
X30560Y11958D01*
X30586Y11978D01*
X30615Y12000D01*
X30647Y12021D01*
X30680Y12041D01*
X30715Y12059D01*
X30754Y12076D01*
X30756Y12078D01*
X30764Y12080D01*
X30775Y12083D01*
X30791Y12091D01*
X30812Y12096D01*
X30834Y12104D01*
X30862Y12113D01*
X30893Y12121D01*
X30926Y12130D01*
X30961Y12137D01*
X31000Y12145D01*
X31041Y12152D01*
X31085Y12157D01*
X31130Y12161D01*
X31176Y12163D01*
X31224Y12165D01*
X31252D01*
X31272Y12163D01*
D02*
G37*
G36*
X23436D02*
X23462D01*
X23489Y12159D01*
X23521Y12157D01*
X23556Y12154D01*
X23595Y12148D01*
X23634Y12143D01*
X23719Y12126D01*
X23761Y12117D01*
X23806Y12104D01*
X23848Y12091D01*
X23891Y12074D01*
X23893Y12072D01*
X23900Y12071D01*
X23913Y12065D01*
X23928Y12058D01*
X23946Y12048D01*
X23968Y12037D01*
X23992Y12024D01*
X24020Y12009D01*
X24048Y11991D01*
X24076Y11972D01*
X24135Y11930D01*
X24192Y11880D01*
X24220Y11852D01*
X24244Y11823D01*
X24246Y11821D01*
X24250Y11815D01*
X24257Y11806D01*
X24264Y11793D01*
X24276Y11778D01*
X24288Y11758D01*
X24302Y11736D01*
X24316Y11710D01*
X24331Y11682D01*
X24348Y11649D01*
X24364Y11615D01*
X24379Y11578D01*
X24396Y11538D01*
X24411Y11495D01*
X24425Y11451D01*
X24438Y11403D01*
X24133Y11319D01*
Y11321D01*
X24131Y11329D01*
X24128Y11338D01*
X24122Y11353D01*
X24116Y11367D01*
X24111Y11388D01*
X24102Y11408D01*
X24094Y11432D01*
X24072Y11480D01*
X24048Y11532D01*
X24020Y11582D01*
X24005Y11604D01*
X23989Y11626D01*
X23987Y11628D01*
X23985Y11632D01*
X23980Y11638D01*
X23974Y11645D01*
X23965Y11654D01*
X23954Y11665D01*
X23941Y11678D01*
X23926Y11691D01*
X23909Y11706D01*
X23893Y11721D01*
X23850Y11750D01*
X23800Y11780D01*
X23745Y11806D01*
X23743D01*
X23737Y11810D01*
X23728Y11812D01*
X23717Y11817D01*
X23702Y11823D01*
X23684Y11828D01*
X23663Y11834D01*
X23641Y11841D01*
X23617Y11847D01*
X23589Y11852D01*
X23560Y11858D01*
X23530Y11863D01*
X23463Y11871D01*
X23393Y11874D01*
X23371D01*
X23354Y11873D01*
X23334D01*
X23310Y11871D01*
X23284Y11869D01*
X23256Y11865D01*
X23225Y11862D01*
X23191Y11858D01*
X23125Y11845D01*
X23056Y11826D01*
X22990Y11802D01*
X22988D01*
X22982Y11799D01*
X22973Y11795D01*
X22962Y11789D01*
X22947Y11782D01*
X22931Y11774D01*
X22912Y11763D01*
X22894Y11752D01*
X22849Y11726D01*
X22805Y11693D01*
X22759Y11656D01*
X22718Y11615D01*
X22716Y11614D01*
X22714Y11610D01*
X22709Y11604D01*
X22701Y11595D01*
X22692Y11584D01*
X22683Y11573D01*
X22672Y11558D01*
X22659Y11541D01*
X22633Y11504D01*
X22605Y11462D01*
X22579Y11414D01*
X22555Y11364D01*
X22553Y11362D01*
X22551Y11353D01*
X22546Y11340D01*
X22540Y11323D01*
X22533Y11301D01*
X22525Y11275D01*
X22516Y11244D01*
X22507Y11210D01*
X22498Y11173D01*
X22489Y11134D01*
X22481Y11092D01*
X22474Y11046D01*
X22468Y10999D01*
X22463Y10949D01*
X22461Y10899D01*
X22459Y10848D01*
Y10846D01*
Y10844D01*
Y10833D01*
Y10814D01*
X22461Y10790D01*
X22463Y10761D01*
X22464Y10727D01*
X22468Y10689D01*
X22474Y10648D01*
X22479Y10604D01*
X22487Y10557D01*
X22498Y10509D01*
X22509Y10461D01*
X22522Y10413D01*
X22537Y10365D01*
X22555Y10319D01*
X22575Y10274D01*
X22577Y10272D01*
X22581Y10265D01*
X22588Y10252D01*
X22598Y10237D01*
X22611Y10217D01*
X22625Y10197D01*
X22642Y10172D01*
X22662Y10147D01*
X22686Y10119D01*
X22712Y10091D01*
X22740Y10061D01*
X22772Y10034D01*
X22805Y10006D01*
X22840Y9980D01*
X22879Y9956D01*
X22919Y9934D01*
X22921Y9932D01*
X22931Y9928D01*
X22942Y9923D01*
X22958Y9917D01*
X22979Y9908D01*
X23005Y9899D01*
X23032Y9889D01*
X23064Y9878D01*
X23099Y9867D01*
X23136Y9858D01*
X23175Y9849D01*
X23215Y9839D01*
X23260Y9834D01*
X23304Y9828D01*
X23351Y9825D01*
X23397Y9823D01*
X23419D01*
X23434Y9825D01*
X23454D01*
X23478Y9826D01*
X23504Y9830D01*
X23534Y9834D01*
X23565Y9838D01*
X23598Y9843D01*
X23671Y9858D01*
X23748Y9878D01*
X23787Y9891D01*
X23826Y9906D01*
X23828Y9908D01*
X23835Y9910D01*
X23846Y9915D01*
X23861Y9921D01*
X23878Y9928D01*
X23898Y9938D01*
X23920Y9949D01*
X23944Y9962D01*
X23996Y9987D01*
X24050Y10019D01*
X24102Y10052D01*
X24124Y10069D01*
X24146Y10087D01*
Y10565D01*
X23393D01*
Y10866D01*
X24477D01*
Y9915D01*
X24474Y9913D01*
X24466Y9906D01*
X24453Y9897D01*
X24435Y9882D01*
X24411Y9867D01*
X24385Y9847D01*
X24353Y9826D01*
X24320Y9804D01*
X24281Y9780D01*
X24242Y9756D01*
X24200Y9730D01*
X24153Y9706D01*
X24059Y9658D01*
X24011Y9638D01*
X23961Y9617D01*
X23957Y9616D01*
X23950Y9614D01*
X23935Y9608D01*
X23915Y9603D01*
X23891Y9595D01*
X23863Y9586D01*
X23830Y9577D01*
X23795Y9567D01*
X23754Y9558D01*
X23711Y9549D01*
X23667Y9542D01*
X23621Y9532D01*
X23521Y9521D01*
X23469Y9519D01*
X23417Y9517D01*
X23391D01*
X23380Y9519D01*
X23354D01*
X23321Y9523D01*
X23282Y9527D01*
X23238Y9531D01*
X23190Y9538D01*
X23138Y9547D01*
X23084Y9556D01*
X23027Y9569D01*
X22968Y9586D01*
X22908Y9605D01*
X22849Y9625D01*
X22790Y9651D01*
X22731Y9679D01*
X22727Y9680D01*
X22718Y9686D01*
X22701Y9695D01*
X22681Y9708D01*
X22655Y9725D01*
X22625Y9745D01*
X22592Y9769D01*
X22557Y9797D01*
X22520Y9828D01*
X22481Y9864D01*
X22442Y9900D01*
X22403Y9943D01*
X22366Y9989D01*
X22329Y10037D01*
X22296Y10089D01*
X22265Y10145D01*
X22263Y10148D01*
X22257Y10159D01*
X22250Y10176D01*
X22241Y10198D01*
X22230Y10228D01*
X22215Y10261D01*
X22202Y10302D01*
X22187Y10345D01*
X22172Y10394D01*
X22159Y10446D01*
X22146Y10502D01*
X22133Y10563D01*
X22124Y10626D01*
X22117Y10690D01*
X22111Y10757D01*
X22109Y10827D01*
Y10829D01*
Y10831D01*
Y10837D01*
Y10844D01*
Y10853D01*
X22111Y10864D01*
Y10890D01*
X22115Y10924D01*
X22117Y10962D01*
X22122Y11007D01*
X22130Y11055D01*
X22137Y11107D01*
X22148Y11162D01*
X22159Y11220D01*
X22174Y11279D01*
X22193Y11340D01*
X22213Y11403D01*
X22237Y11464D01*
X22265Y11525D01*
Y11527D01*
X22266Y11529D01*
X22272Y11540D01*
X22281Y11556D01*
X22294Y11578D01*
X22309Y11604D01*
X22329Y11636D01*
X22353Y11671D01*
X22379Y11708D01*
X22409Y11747D01*
X22442Y11786D01*
X22479Y11826D01*
X22520Y11865D01*
X22564Y11904D01*
X22611Y11941D01*
X22660Y11976D01*
X22714Y12008D01*
X22718Y12009D01*
X22727Y12015D01*
X22744Y12022D01*
X22766Y12032D01*
X22794Y12045D01*
X22827Y12058D01*
X22866Y12072D01*
X22908Y12087D01*
X22956Y12100D01*
X23008Y12115D01*
X23064Y12128D01*
X23123Y12141D01*
X23186Y12150D01*
X23251Y12157D01*
X23319Y12163D01*
X23389Y12165D01*
X23417D01*
X23436Y12163D01*
D02*
G37*
G36*
X26995Y9560D02*
X26656D01*
Y10766D01*
X25328D01*
Y9560D01*
X24990D01*
Y12121D01*
X25328D01*
Y11068D01*
X26656D01*
Y12121D01*
X26995D01*
Y9560D01*
D02*
G37*
G36*
X34563Y11819D02*
X33716D01*
Y9560D01*
X33378D01*
Y11819D01*
X32534D01*
Y12121D01*
X34563D01*
Y11819D01*
D02*
G37*
G36*
X21924Y9560D02*
X21539D01*
X21243Y10335D01*
X20169D01*
X19889Y9560D01*
X19532D01*
X20515Y12121D01*
X20877D01*
X21924Y9560D01*
D02*
G37*
G36*
X28716Y12163D02*
X28740D01*
X28771Y12159D01*
X28808Y12156D01*
X28849Y12150D01*
X28893Y12145D01*
X28941Y12135D01*
X28993Y12124D01*
X29047Y12109D01*
X29100Y12093D01*
X29156Y12074D01*
X29211Y12050D01*
X29267Y12024D01*
X29320Y11995D01*
X29324Y11993D01*
X29333Y11987D01*
X29348Y11978D01*
X29367Y11963D01*
X29391Y11947D01*
X29419Y11926D01*
X29448Y11900D01*
X29482Y11873D01*
X29517Y11841D01*
X29552Y11806D01*
X29589Y11767D01*
X29624Y11725D01*
X29659Y11678D01*
X29694Y11630D01*
X29726Y11578D01*
X29755Y11523D01*
X29757Y11519D01*
X29763Y11510D01*
X29770Y11493D01*
X29779Y11469D01*
X29790Y11441D01*
X29803Y11406D01*
X29816Y11367D01*
X29831Y11323D01*
X29844Y11275D01*
X29857Y11221D01*
X29870Y11166D01*
X29881Y11105D01*
X29892Y11042D01*
X29900Y10975D01*
X29903Y10907D01*
X29905Y10837D01*
Y10835D01*
Y10833D01*
Y10827D01*
Y10820D01*
Y10811D01*
X29903Y10798D01*
Y10770D01*
X29900Y10737D01*
X29898Y10698D01*
X29892Y10652D01*
X29885Y10604D01*
X29877Y10550D01*
X29866Y10494D01*
X29853Y10437D01*
X29838Y10378D01*
X29820Y10317D01*
X29800Y10257D01*
X29776Y10198D01*
X29748Y10139D01*
X29746Y10135D01*
X29741Y10126D01*
X29731Y10109D01*
X29718Y10089D01*
X29704Y10063D01*
X29683Y10034D01*
X29659Y10000D01*
X29633Y9965D01*
X29604Y9928D01*
X29570Y9891D01*
X29533Y9852D01*
X29494Y9814D01*
X29450Y9776D01*
X29404Y9740D01*
X29354Y9706D01*
X29302Y9675D01*
X29298Y9673D01*
X29289Y9667D01*
X29272Y9660D01*
X29252Y9651D01*
X29224Y9638D01*
X29193Y9625D01*
X29158Y9610D01*
X29117Y9597D01*
X29071Y9582D01*
X29023Y9567D01*
X28973Y9555D01*
X28917Y9542D01*
X28862Y9532D01*
X28802Y9525D01*
X28741Y9519D01*
X28680Y9517D01*
X28664D01*
X28645Y9519D01*
X28619Y9521D01*
X28588Y9523D01*
X28551Y9527D01*
X28508Y9532D01*
X28464Y9540D01*
X28414Y9549D01*
X28362Y9560D01*
X28309Y9575D01*
X28255Y9591D01*
X28199Y9610D01*
X28142Y9634D01*
X28087Y9660D01*
X28033Y9691D01*
X28029Y9693D01*
X28020Y9699D01*
X28005Y9710D01*
X27987Y9723D01*
X27963Y9741D01*
X27935Y9762D01*
X27905Y9788D01*
X27872Y9815D01*
X27839Y9849D01*
X27802Y9884D01*
X27766Y9923D01*
X27731Y9965D01*
X27696Y10012D01*
X27663Y10060D01*
X27632Y10111D01*
X27602Y10167D01*
X27600Y10171D01*
X27596Y10180D01*
X27589Y10197D01*
X27580Y10221D01*
X27569Y10248D01*
X27556Y10282D01*
X27543Y10319D01*
X27530Y10361D01*
X27515Y10407D01*
X27502Y10457D01*
X27489Y10509D01*
X27478Y10565D01*
X27469Y10624D01*
X27461Y10683D01*
X27458Y10744D01*
X27456Y10807D01*
Y10809D01*
Y10814D01*
Y10824D01*
Y10835D01*
X27458Y10849D01*
Y10868D01*
X27459Y10888D01*
X27461Y10912D01*
X27463Y10938D01*
X27467Y10966D01*
X27470Y10996D01*
X27474Y11027D01*
X27485Y11096D01*
X27498Y11170D01*
X27517Y11249D01*
X27539Y11331D01*
X27567Y11414D01*
X27600Y11497D01*
X27639Y11578D01*
X27685Y11658D01*
X27711Y11697D01*
X27737Y11734D01*
X27766Y11769D01*
X27798Y11804D01*
X27800Y11806D01*
X27802Y11808D01*
X27807Y11813D01*
X27815Y11819D01*
X27822Y11828D01*
X27833Y11837D01*
X27861Y11862D01*
X27894Y11887D01*
X27935Y11919D01*
X27983Y11950D01*
X28037Y11985D01*
X28098Y12019D01*
X28164Y12050D01*
X28236Y12082D01*
X28314Y12109D01*
X28399Y12132D01*
X28488Y12150D01*
X28534Y12156D01*
X28582Y12161D01*
X28631Y12163D01*
X28680Y12165D01*
X28697D01*
X28716Y12163D01*
D02*
G37*
%LPC*%
G36*
X20687Y11852D02*
Y11849D01*
X20685Y11841D01*
X20681Y11828D01*
X20677Y11810D01*
X20672Y11788D01*
X20666Y11762D01*
X20659Y11732D01*
X20651Y11699D01*
X20640Y11662D01*
X20631Y11623D01*
X20620Y11584D01*
X20607Y11541D01*
X20579Y11453D01*
X20548Y11362D01*
X20267Y10611D01*
X21136D01*
X20868Y11319D01*
Y11321D01*
X20866Y11323D01*
X20862Y11334D01*
X20857Y11351D01*
X20847Y11373D01*
X20838Y11401D01*
X20825Y11432D01*
X20814Y11469D01*
X20799Y11508D01*
X20785Y11549D01*
X20770Y11591D01*
X20740Y11680D01*
X20711Y11769D01*
X20698Y11812D01*
X20687Y11852D01*
D02*
G37*
G36*
X28682Y11873D02*
X28666D01*
X28647Y11871D01*
X28623Y11869D01*
X28592Y11865D01*
X28555Y11860D01*
X28514Y11852D01*
X28471Y11841D01*
X28423Y11828D01*
X28373Y11812D01*
X28323Y11791D01*
X28270Y11769D01*
X28218Y11739D01*
X28166Y11706D01*
X28114Y11669D01*
X28064Y11625D01*
X28061Y11621D01*
X28053Y11614D01*
X28040Y11599D01*
X28024Y11577D01*
X28005Y11551D01*
X27983Y11515D01*
X27959Y11477D01*
X27935Y11430D01*
X27911Y11377D01*
X27887Y11316D01*
X27866Y11247D01*
X27846Y11173D01*
X27829Y11092D01*
X27822Y11048D01*
X27817Y11003D01*
X27811Y10955D01*
X27809Y10905D01*
X27805Y10855D01*
Y10801D01*
Y10800D01*
Y10796D01*
Y10790D01*
Y10781D01*
X27807Y10770D01*
Y10757D01*
Y10742D01*
X27809Y10726D01*
X27813Y10687D01*
X27818Y10640D01*
X27826Y10590D01*
X27837Y10537D01*
X27850Y10480D01*
X27866Y10420D01*
X27887Y10359D01*
X27911Y10298D01*
X27939Y10239D01*
X27972Y10180D01*
X28009Y10124D01*
X28053Y10073D01*
X28057Y10069D01*
X28064Y10061D01*
X28079Y10048D01*
X28098Y10032D01*
X28124Y10012D01*
X28151Y9989D01*
X28187Y9965D01*
X28225Y9941D01*
X28268Y9915D01*
X28316Y9891D01*
X28368Y9869D01*
X28423Y9849D01*
X28481Y9832D01*
X28543Y9819D01*
X28610Y9812D01*
X28679Y9808D01*
X28695D01*
X28705Y9810D01*
X28716D01*
X28741Y9812D01*
X28775Y9815D01*
X28812Y9823D01*
X28854Y9830D01*
X28901Y9841D01*
X28949Y9856D01*
X29000Y9873D01*
X29052Y9895D01*
X29104Y9921D01*
X29158Y9952D01*
X29210Y9987D01*
X29259Y10030D01*
X29308Y10076D01*
X29311Y10080D01*
X29319Y10089D01*
X29330Y10104D01*
X29346Y10126D01*
X29365Y10154D01*
X29385Y10187D01*
X29409Y10226D01*
X29432Y10272D01*
X29456Y10324D01*
X29478Y10380D01*
X29498Y10442D01*
X29517Y10511D01*
X29533Y10585D01*
X29544Y10665D01*
X29554Y10748D01*
X29555Y10838D01*
Y10842D01*
Y10851D01*
Y10868D01*
X29554Y10890D01*
X29552Y10918D01*
X29550Y10949D01*
X29546Y10985D01*
X29542Y11023D01*
X29537Y11064D01*
X29530Y11108D01*
X29520Y11153D01*
X29511Y11199D01*
X29498Y11245D01*
X29483Y11292D01*
X29467Y11338D01*
X29448Y11382D01*
X29446Y11384D01*
X29443Y11393D01*
X29437Y11405D01*
X29428Y11421D01*
X29417Y11440D01*
X29404Y11464D01*
X29389Y11488D01*
X29370Y11515D01*
X29350Y11543D01*
X29326Y11573D01*
X29302Y11603D01*
X29274Y11632D01*
X29243Y11662D01*
X29211Y11691D01*
X29176Y11717D01*
X29139Y11743D01*
X29137Y11745D01*
X29130Y11749D01*
X29119Y11754D01*
X29104Y11763D01*
X29084Y11773D01*
X29061Y11784D01*
X29036Y11797D01*
X29006Y11808D01*
X28973Y11821D01*
X28938Y11832D01*
X28901Y11843D01*
X28860Y11852D01*
X28819Y11862D01*
X28775Y11867D01*
X28729Y11871D01*
X28682Y11873D01*
D02*
G37*
%LPD*%
D11*
X25608Y69300D02*
X26408Y68500D01*
X26788Y66900D02*
X27481Y67300D01*
Y68100D01*
X26788Y68500D01*
X24428Y66900D02*
X23735Y66500D01*
Y65700D01*
X24428Y65300D01*
X26788Y63700D02*
X27481Y64100D01*
Y64900D01*
X26788Y65300D01*
X26408Y63700D02*
X25608Y62900D01*
X16066Y45700D02*
X16866Y46500D01*
X15376Y45700D02*
X14683Y45300D01*
Y44500D01*
X15376Y44100D01*
X18356Y42500D02*
X19049Y42900D01*
Y43700D01*
X18356Y44100D01*
X15376Y42500D02*
X14683Y42100D01*
Y41300D01*
X15376Y40900D01*
X18356Y39300D02*
X19049Y39700D01*
Y40500D01*
X18356Y40900D01*
X15376Y39300D02*
X14683Y38900D01*
Y38100D01*
X15376Y37700D01*
X16866Y36900D02*
X16066Y37700D01*
X22270Y45500D02*
X23070Y46301D01*
X21660Y45500D02*
X20967Y45101D01*
Y44300D01*
X21660Y43900D01*
X23608Y42301D02*
X24301Y42700D01*
Y43501D01*
X23608Y43900D01*
X21660Y42301D02*
X20967Y41901D01*
Y41100D01*
X21660Y40701D01*
X23070Y39900D02*
X22270Y40701D01*
X16690Y29176D02*
X16690Y29176D01*
X18075Y49500D02*
X17220Y49146D01*
X16866Y48291D01*
X29829Y42600D02*
X30629Y43400D01*
X28519Y42600D02*
X27826Y42200D01*
Y41400D01*
X28519Y41000D01*
X31000Y39400D02*
X31693Y39800D01*
Y40600D01*
X31000Y41000D01*
X28519Y39400D02*
X27826Y39000D01*
Y38200D01*
X28519Y37800D01*
X31000Y36200D02*
X31693Y36600D01*
Y37400D01*
X31000Y37800D01*
X28519Y36200D02*
X27826Y35800D01*
Y35000D01*
X28519Y34600D01*
X30629Y33800D02*
X29829Y34600D01*
X18000Y23000D02*
X18439Y21939D01*
X19500Y21500D01*
X26149D02*
X26500Y21851D01*
X26500Y22802D02*
X26149Y23154D01*
X23000Y49500D02*
X23822Y50322D01*
X39500Y44400D02*
X40300Y45200D01*
X38410Y44400D02*
X37717Y44000D01*
Y43200D01*
X38410Y42800D01*
X42190Y41200D02*
X42883Y41600D01*
Y42400D01*
X42190Y42800D01*
X38410Y41200D02*
X37717Y40800D01*
Y40000D01*
X38410Y39600D01*
X42190Y38000D02*
X42883Y38400D01*
Y39200D01*
X42190Y39600D01*
X38410Y38000D02*
X37717Y37600D01*
Y36800D01*
X38410Y36400D01*
X40300Y35600D02*
X39500Y36400D01*
X47927Y46881D02*
X47573Y47000D01*
X48160Y46413D02*
X48041Y46768D01*
X46936Y26500D02*
X47801Y26859D01*
X48160Y27724D01*
X42000Y48500D02*
X42439Y47439D01*
X43500Y47000D01*
X38000Y26500D02*
X37879Y26460D01*
X37143Y25790D01*
X37049Y24799D01*
X25608Y70892D02*
X25325Y71946D01*
X24554Y72718D01*
X23500Y73000D01*
X21500D02*
X20793Y72707D01*
X20500Y72000D01*
X37865Y48635D02*
X38500Y48000D01*
X40300Y47200D02*
X39500Y48000D01*
X12900Y21600D02*
X13181Y20550D01*
X13950Y19781D01*
X15000Y19500D01*
Y29000D02*
X13950Y28719D01*
X13181Y27950D01*
X12900Y26900D01*
X38500Y30500D02*
X39400Y30741D01*
X40059Y31400D01*
X40300Y32300D01*
X34236Y21236D02*
X34928Y21522D01*
X35214Y22214D01*
X32574Y35366D02*
X33000Y35792D01*
X32000Y42028D02*
X33000Y41028D01*
X32574Y30130D02*
Y35366D01*
Y30130D02*
X33288Y29415D01*
Y26959D02*
Y29415D01*
X33000Y35792D02*
Y41028D01*
X35214Y22214D02*
Y29305D01*
X36409Y30500D02*
X38500D01*
X35214Y29305D02*
X36409Y30500D01*
X32000Y42028D02*
Y46466D01*
X33000Y47466D01*
X20331Y27725D02*
X25608Y33002D01*
Y69300D02*
Y70892D01*
X26408Y68500D02*
X26788D01*
X24428Y66900D02*
X26788D01*
X24428Y65300D02*
X26788D01*
X26408Y63700D02*
X26788D01*
X25608Y61000D02*
Y62900D01*
Y53000D02*
Y61000D01*
X16866Y46500D02*
Y48291D01*
X15376Y45700D02*
X16066D01*
X15376Y44100D02*
X18356D01*
X15376Y42500D02*
X18356D01*
X15376Y40900D02*
X18356D01*
X15376Y39300D02*
X18356D01*
X15376Y37700D02*
X16066D01*
X16866Y36600D02*
Y36900D01*
Y29351D02*
Y36600D01*
X23070Y46301D02*
Y47430D01*
X21660Y45500D02*
X22270D01*
X21660Y43900D02*
X23608D01*
X21660Y42301D02*
X23608D01*
X21660Y40701D02*
X22270D01*
X23070Y39600D02*
Y39900D01*
Y33570D02*
Y39600D01*
X16515Y29000D02*
X16690Y29176D01*
X15000Y29000D02*
X16515D01*
X16690Y29176D02*
X16866Y29351D01*
X18075Y49500D02*
X23000D01*
X30629Y43400D02*
Y45000D01*
X28519Y42600D02*
X29829D01*
X28519Y41000D02*
X31000D01*
X28519Y39400D02*
X31000D01*
X28519Y37800D02*
X31000D01*
X28519Y36200D02*
X31000D01*
X28519Y34600D02*
X29829D01*
X30629Y33500D02*
Y33800D01*
Y45000D02*
Y46689D01*
Y24129D02*
Y33500D01*
X19500Y21500D02*
X26149D01*
X18000Y23000D02*
Y28500D01*
X24691Y23378D02*
X24915Y23154D01*
X23000Y47500D02*
X23070Y47430D01*
X18000Y28500D02*
X23070Y33570D01*
X23822Y50322D02*
Y52112D01*
X26500Y21851D02*
Y22802D01*
X24915Y23154D02*
X26149D01*
X40300Y45200D02*
Y47200D01*
X38410Y44400D02*
X39500D01*
X38410Y42800D02*
X42190D01*
X38410Y41200D02*
X42190D01*
X38410Y39600D02*
X42190D01*
X38410Y38000D02*
X42190D01*
X38410Y36400D02*
X39500D01*
X40300Y35300D02*
Y35600D01*
Y32300D02*
Y35300D01*
X38000Y26500D02*
X46936D01*
X47927Y46881D02*
X48041Y46768D01*
X48160Y27724D02*
Y46413D01*
X43500Y47000D02*
X47573D01*
X38000Y26500D02*
X38000D01*
X37049Y24799D02*
X37072Y24777D01*
X25608Y33002D02*
Y53000D01*
X21500Y73000D02*
X23500D01*
X28582Y22082D02*
X30629Y24129D01*
X28582Y20007D02*
Y22082D01*
X28018Y19444D02*
X28582Y20007D01*
X40300Y47200D02*
Y47200D01*
X38500Y48000D02*
X39500D01*
X12900Y21600D02*
Y26900D01*
X30368Y21035D02*
Y21296D01*
X37865Y48635D02*
Y51331D01*
X30148Y47170D02*
X30629Y46689D01*
X30148Y47170D02*
Y47466D01*
X28018Y19127D02*
Y19444D01*
X32739Y21236D02*
X34236D01*
X15224Y22250D02*
X15327D01*
D17*
X14649Y31848D02*
D03*
X47741Y19405D02*
D03*
X20331Y27725D02*
D03*
X53500Y13500D02*
D03*
Y15500D02*
D03*
Y17500D02*
D03*
X45000Y43000D02*
D03*
X45500Y66500D02*
D03*
X46000Y58000D02*
D03*
X9000Y25500D02*
D03*
X53500Y37000D02*
D03*
Y43000D02*
D03*
Y31000D02*
D03*
X9000Y31500D02*
D03*
Y19500D02*
D03*
X9500Y39000D02*
D03*
X15000Y49000D02*
D03*
X11879Y65001D02*
D03*
X19000Y65000D02*
D03*
Y59500D02*
D03*
X27500Y47000D02*
D03*
X36000D02*
D03*
X55000Y64000D02*
D03*
Y66500D02*
D03*
Y69000D02*
D03*
Y71500D02*
D03*
X42000Y75000D02*
D03*
X39500D02*
D03*
X37000D02*
D03*
X34500D02*
D03*
X13000D02*
D03*
X10500D02*
D03*
X8000D02*
D03*
X7000Y51500D02*
D03*
Y48500D02*
D03*
Y45500D02*
D03*
Y43000D02*
D03*
X15500Y10000D02*
D03*
X13000D02*
D03*
X10500D02*
D03*
X8000D02*
D03*
X37000D02*
D03*
X39500D02*
D03*
X42000D02*
D03*
X44500D02*
D03*
X53500Y19500D02*
D03*
X45000Y31000D02*
D03*
X23000Y47500D02*
D03*
X20500Y72000D02*
D03*
X42000Y48500D02*
D03*
X23822Y52112D02*
D03*
X15000Y19500D02*
D03*
X54628Y52307D02*
D03*
X42586Y52197D02*
D03*
X35417Y51445D02*
D03*
X37865Y51331D02*
D03*
X37000Y33652D02*
D03*
X33000Y47466D02*
D03*
X30148D02*
D03*
X28018Y19127D02*
D03*
X30368Y21296D02*
D03*
X24691Y23378D02*
D03*
X37194Y21500D02*
D03*
X37072Y24777D02*
D03*
X32739Y21236D02*
D03*
X33288Y26959D02*
D03*
X28559Y26648D02*
D03*
X15327Y22250D02*
D03*
M02*
