G04*
G04 #@! TF.GenerationSoftware,Altium Limited,Altium Designer,22.2.1 (43)*
G04*
G04 Layer_Color=32896*
%FSLAX25Y25*%
%MOIN*%
G70*
G04*
G04 #@! TF.SameCoordinates,4B28361B-3754-4690-972C-136B69916877*
G04*
G04*
G04 #@! TF.FilePolarity,Positive*
G04*
G01*
G75*
%ADD10C,0.00500*%
%ADD12C,0.00787*%
G36*
X43000Y64253D02*
X43018Y64222D01*
X43061Y64161D01*
X43107Y64104D01*
X43131Y64076D01*
X43153Y64050D01*
X43175Y64028D01*
X43196Y64006D01*
X43214Y63987D01*
X43231Y63970D01*
X43244Y63957D01*
X43253Y63948D01*
X43260Y63943D01*
X43262Y63941D01*
X43338Y63878D01*
X43418Y63820D01*
X43495Y63769D01*
X43532Y63747D01*
X43568Y63724D01*
X43599Y63706D01*
X43629Y63689D01*
X43656Y63674D01*
X43679Y63663D01*
X43697Y63654D01*
X43712Y63647D01*
X43719Y63643D01*
X43723Y63641D01*
Y63338D01*
X43668Y63360D01*
X43610Y63386D01*
X43555Y63412D01*
X43503Y63437D01*
X43481Y63450D01*
X43458Y63462D01*
X43440Y63473D01*
X43425Y63482D01*
X43412Y63487D01*
X43401Y63493D01*
X43396Y63497D01*
X43394Y63499D01*
X43327Y63539D01*
X43297Y63560D01*
X43268Y63578D01*
X43242Y63599D01*
X43218Y63615D01*
X43196Y63634D01*
X43174Y63648D01*
X43157Y63663D01*
X43140Y63676D01*
X43126Y63689D01*
X43114Y63698D01*
X43105Y63706D01*
X43099Y63711D01*
X43096Y63715D01*
X43094Y63717D01*
Y61715D01*
X42779D01*
Y64285D01*
X42983D01*
X43000Y64253D01*
D02*
G37*
G36*
X46220Y61715D02*
X45882D01*
Y62757D01*
X45177D01*
X45129Y62759D01*
X45083Y62762D01*
X45038Y62766D01*
X44996Y62771D01*
X44955Y62777D01*
X44879Y62792D01*
X44813Y62809D01*
X44750Y62829D01*
X44696Y62849D01*
X44648Y62870D01*
X44605Y62890D01*
X44570Y62910D01*
X44541Y62931D01*
X44517Y62947D01*
X44498Y62962D01*
X44485Y62973D01*
X44478Y62981D01*
X44476Y62982D01*
X44439Y63025D01*
X44407Y63071D01*
X44380Y63117D01*
X44356Y63164D01*
X44335Y63210D01*
X44319Y63256D01*
X44304Y63301D01*
X44293Y63343D01*
X44284Y63382D01*
X44278Y63419D01*
X44272Y63450D01*
X44271Y63480D01*
X44269Y63502D01*
X44267Y63519D01*
Y63530D01*
Y63534D01*
X44271Y63604D01*
X44280Y63669D01*
X44285Y63700D01*
X44291Y63728D01*
X44298Y63756D01*
X44306Y63780D01*
X44313Y63802D01*
X44320Y63822D01*
X44326Y63841D01*
X44332Y63856D01*
X44337Y63867D01*
X44341Y63876D01*
X44343Y63881D01*
X44345Y63883D01*
X44376Y63939D01*
X44409Y63989D01*
X44445Y64031D01*
X44461Y64050D01*
X44476Y64066D01*
X44491Y64081D01*
X44506Y64094D01*
X44519Y64105D01*
X44530Y64113D01*
X44537Y64120D01*
X44544Y64126D01*
X44548Y64128D01*
X44550Y64129D01*
X44600Y64161D01*
X44654Y64185D01*
X44705Y64207D01*
X44755Y64224D01*
X44779Y64229D01*
X44800Y64235D01*
X44818Y64240D01*
X44835Y64244D01*
X44848Y64246D01*
X44857Y64248D01*
X44864Y64250D01*
X44866D01*
X44892Y64253D01*
X44922Y64259D01*
X44985Y64265D01*
X45050Y64270D01*
X45112Y64272D01*
X45142Y64274D01*
X45168D01*
X45194Y64276D01*
X46220D01*
Y61715D01*
D02*
G37*
G36*
X15773Y32287D02*
X15835Y32281D01*
X15895Y32272D01*
X15950Y32259D01*
X16002Y32244D01*
X16050Y32228D01*
X16093Y32211D01*
X16133Y32194D01*
X16169Y32176D01*
X16200Y32159D01*
X16226Y32142D01*
X16248Y32128D01*
X16265Y32116D01*
X16278Y32105D01*
X16285Y32100D01*
X16287Y32098D01*
X16326Y32061D01*
X16359Y32020D01*
X16390Y31978D01*
X16416Y31933D01*
X16441Y31887D01*
X16461Y31841D01*
X16477Y31796D01*
X16492Y31752D01*
X16503Y31711D01*
X16513Y31672D01*
X16520Y31637D01*
X16526Y31608D01*
X16531Y31584D01*
X16533Y31565D01*
Y31558D01*
X16535Y31552D01*
Y31550D01*
Y31549D01*
X16211Y31515D01*
X16209Y31560D01*
X16206Y31600D01*
X16198Y31639D01*
X16191Y31676D01*
X16180Y31710D01*
X16169Y31739D01*
X16156Y31769D01*
X16143Y31793D01*
X16131Y31815D01*
X16118Y31835D01*
X16107Y31852D01*
X16096Y31867D01*
X16089Y31876D01*
X16082Y31885D01*
X16078Y31889D01*
X16076Y31891D01*
X16050Y31915D01*
X16021Y31935D01*
X15991Y31954D01*
X15961Y31970D01*
X15930Y31983D01*
X15900Y31994D01*
X15871Y32004D01*
X15843Y32011D01*
X15815Y32017D01*
X15791Y32020D01*
X15769Y32024D01*
X15749Y32026D01*
X15734Y32028D01*
X15711D01*
X15673Y32026D01*
X15636Y32022D01*
X15601Y32017D01*
X15567Y32007D01*
X15538Y31998D01*
X15508Y31987D01*
X15482Y31976D01*
X15458Y31963D01*
X15438Y31952D01*
X15419Y31939D01*
X15403Y31928D01*
X15390Y31918D01*
X15379Y31909D01*
X15371Y31904D01*
X15367Y31900D01*
X15366Y31898D01*
X15342Y31874D01*
X15321Y31848D01*
X15303Y31822D01*
X15288Y31795D01*
X15275Y31769D01*
X15264Y31743D01*
X15255Y31717D01*
X15247Y31693D01*
X15242Y31671D01*
X15238Y31650D01*
X15234Y31632D01*
X15232Y31615D01*
X15231Y31602D01*
Y31593D01*
Y31585D01*
Y31584D01*
X15232Y31550D01*
X15236Y31517D01*
X15244Y31484D01*
X15253Y31451D01*
X15277Y31386D01*
X15292Y31356D01*
X15305Y31328D01*
X15317Y31302D01*
X15332Y31278D01*
X15343Y31258D01*
X15355Y31240D01*
X15366Y31227D01*
X15373Y31216D01*
X15377Y31208D01*
X15379Y31206D01*
X15408Y31167D01*
X15445Y31125D01*
X15484Y31082D01*
X15528Y31038D01*
X15573Y30992D01*
X15621Y30947D01*
X15667Y30903D01*
X15715Y30860D01*
X15760Y30820D01*
X15802Y30783D01*
X15839Y30748D01*
X15874Y30720D01*
X15902Y30696D01*
X15913Y30686D01*
X15923Y30677D01*
X15930Y30672D01*
X15935Y30666D01*
X15939Y30664D01*
X15941Y30662D01*
X15989Y30622D01*
X16035Y30583D01*
X16078Y30546D01*
X16118Y30511D01*
X16156Y30476D01*
X16189Y30444D01*
X16218Y30415D01*
X16246Y30387D01*
X16272Y30363D01*
X16292Y30340D01*
X16311Y30322D01*
X16326Y30305D01*
X16337Y30292D01*
X16344Y30283D01*
X16350Y30278D01*
X16352Y30276D01*
X16402Y30213D01*
X16444Y30152D01*
X16479Y30094D01*
X16496Y30068D01*
X16509Y30043D01*
X16520Y30020D01*
X16531Y30000D01*
X16540Y29982D01*
X16546Y29965D01*
X16551Y29952D01*
X16555Y29943D01*
X16559Y29937D01*
Y29935D01*
X16572Y29897D01*
X16581Y29858D01*
X16587Y29821D01*
X16590Y29789D01*
X16592Y29760D01*
X16594Y29748D01*
Y29737D01*
Y29730D01*
Y29724D01*
Y29721D01*
Y29719D01*
X14903D01*
Y30020D01*
X16157D01*
X16137Y30052D01*
X16115Y30083D01*
X16093Y30111D01*
X16072Y30137D01*
X16054Y30157D01*
X16039Y30174D01*
X16030Y30185D01*
X16026Y30189D01*
X16009Y30207D01*
X15987Y30228D01*
X15963Y30250D01*
X15935Y30276D01*
X15906Y30302D01*
X15876Y30329D01*
X15813Y30383D01*
X15784Y30409D01*
X15756Y30433D01*
X15732Y30455D01*
X15708Y30474D01*
X15689Y30490D01*
X15676Y30501D01*
X15667Y30511D01*
X15664Y30512D01*
X15602Y30564D01*
X15545Y30614D01*
X15493Y30661D01*
X15445Y30703D01*
X15401Y30744D01*
X15362Y30781D01*
X15325Y30814D01*
X15293Y30844D01*
X15266Y30871D01*
X15244Y30896D01*
X15223Y30916D01*
X15206Y30933D01*
X15193Y30945D01*
X15186Y30955D01*
X15181Y30960D01*
X15179Y30962D01*
X15153Y30994D01*
X15127Y31023D01*
X15105Y31053D01*
X15084Y31080D01*
X15047Y31134D01*
X15033Y31158D01*
X15020Y31180D01*
X15007Y31201D01*
X14998Y31219D01*
X14988Y31236D01*
X14983Y31249D01*
X14977Y31260D01*
X14973Y31267D01*
X14970Y31273D01*
Y31275D01*
X14949Y31330D01*
X14933Y31384D01*
X14922Y31436D01*
X14914Y31482D01*
X14912Y31502D01*
X14910Y31521D01*
X14909Y31536D01*
X14907Y31550D01*
Y31561D01*
Y31569D01*
Y31574D01*
Y31576D01*
X14909Y31632D01*
X14916Y31685D01*
X14927Y31735D01*
X14940Y31784D01*
X14957Y31828D01*
X14975Y31870D01*
X14996Y31909D01*
X15014Y31944D01*
X15034Y31976D01*
X15055Y32004D01*
X15073Y32028D01*
X15090Y32046D01*
X15103Y32063D01*
X15114Y32074D01*
X15121Y32081D01*
X15123Y32083D01*
X15166Y32120D01*
X15210Y32152D01*
X15257Y32177D01*
X15305Y32202D01*
X15353Y32222D01*
X15403Y32239D01*
X15449Y32252D01*
X15495Y32263D01*
X15538Y32272D01*
X15578Y32277D01*
X15613Y32283D01*
X15645Y32285D01*
X15671Y32287D01*
X15689Y32289D01*
X15706D01*
X15773Y32287D01*
D02*
G37*
G36*
X17580Y32257D02*
X17599Y32226D01*
X17641Y32165D01*
X17687Y32107D01*
X17711Y32079D01*
X17734Y32054D01*
X17756Y32031D01*
X17776Y32009D01*
X17795Y31991D01*
X17811Y31974D01*
X17824Y31961D01*
X17833Y31952D01*
X17841Y31946D01*
X17843Y31944D01*
X17919Y31881D01*
X17998Y31824D01*
X18076Y31772D01*
X18113Y31750D01*
X18148Y31728D01*
X18179Y31710D01*
X18209Y31693D01*
X18237Y31678D01*
X18259Y31667D01*
X18278Y31658D01*
X18292Y31650D01*
X18300Y31647D01*
X18303Y31645D01*
Y31341D01*
X18248Y31363D01*
X18191Y31389D01*
X18135Y31415D01*
X18083Y31441D01*
X18061Y31454D01*
X18039Y31465D01*
X18020Y31476D01*
X18006Y31486D01*
X17993Y31491D01*
X17981Y31497D01*
X17976Y31500D01*
X17974Y31502D01*
X17908Y31543D01*
X17878Y31563D01*
X17848Y31582D01*
X17822Y31602D01*
X17798Y31619D01*
X17776Y31637D01*
X17754Y31652D01*
X17737Y31667D01*
X17721Y31680D01*
X17706Y31693D01*
X17695Y31702D01*
X17685Y31710D01*
X17680Y31715D01*
X17676Y31719D01*
X17674Y31721D01*
Y29719D01*
X17360D01*
Y32289D01*
X17563D01*
X17580Y32257D01*
D02*
G37*
G36*
X19952Y32322D02*
X20013Y32316D01*
X20072Y32309D01*
X20129Y32300D01*
X20183Y32289D01*
X20235Y32274D01*
X20283Y32261D01*
X20327Y32246D01*
X20366Y32231D01*
X20403Y32218D01*
X20435Y32205D01*
X20460Y32192D01*
X20483Y32183D01*
X20497Y32176D01*
X20507Y32170D01*
X20511Y32168D01*
X20562Y32137D01*
X20610Y32103D01*
X20655Y32068D01*
X20697Y32031D01*
X20736Y31994D01*
X20771Y31957D01*
X20805Y31918D01*
X20832Y31883D01*
X20858Y31850D01*
X20882Y31817D01*
X20901Y31789D01*
X20917Y31765D01*
X20929Y31743D01*
X20938Y31728D01*
X20943Y31719D01*
X20945Y31715D01*
X20971Y31658D01*
X20995Y31600D01*
X21015Y31541D01*
X21032Y31482D01*
X21047Y31423D01*
X21060Y31363D01*
X21069Y31308D01*
X21078Y31256D01*
X21084Y31206D01*
X21090Y31160D01*
X21091Y31119D01*
X21095Y31084D01*
Y31056D01*
X21097Y31045D01*
Y31036D01*
Y31029D01*
Y31023D01*
Y31019D01*
Y31018D01*
X21095Y30949D01*
X21091Y30882D01*
X21084Y30818D01*
X21077Y30757D01*
X21066Y30696D01*
X21054Y30640D01*
X21041Y30586D01*
X21028Y30537D01*
X21017Y30492D01*
X21004Y30452D01*
X20993Y30416D01*
X20982Y30387D01*
X20975Y30363D01*
X20967Y30346D01*
X20964Y30335D01*
X20962Y30333D01*
Y30331D01*
X20936Y30274D01*
X20906Y30218D01*
X20875Y30168D01*
X20843Y30120D01*
X20810Y30078D01*
X20777Y30037D01*
X20745Y30002D01*
X20714Y29969D01*
X20684Y29939D01*
X20657Y29915D01*
X20633Y29893D01*
X20610Y29876D01*
X20592Y29863D01*
X20579Y29852D01*
X20572Y29847D01*
X20568Y29845D01*
X20518Y29815D01*
X20464Y29789D01*
X20409Y29767D01*
X20353Y29747D01*
X20298Y29732D01*
X20240Y29717D01*
X20187Y29706D01*
X20133Y29697D01*
X20085Y29691D01*
X20039Y29686D01*
X19998Y29682D01*
X19963Y29678D01*
X19935D01*
X19922Y29676D01*
X19894D01*
X19820Y29678D01*
X19750Y29686D01*
X19683Y29697D01*
X19619Y29710D01*
X19559Y29726D01*
X19504Y29745D01*
X19452Y29765D01*
X19406Y29785D01*
X19364Y29806D01*
X19326Y29826D01*
X19293Y29845D01*
X19267Y29861D01*
X19245Y29874D01*
X19230Y29885D01*
X19221Y29893D01*
X19217Y29895D01*
X19167Y29939D01*
X19121Y29985D01*
X19079Y30035D01*
X19040Y30087D01*
X19005Y30141D01*
X18973Y30193D01*
X18945Y30244D01*
X18921Y30296D01*
X18899Y30344D01*
X18881Y30389D01*
X18866Y30427D01*
X18853Y30463D01*
X18844Y30490D01*
X18840Y30503D01*
X18838Y30512D01*
X18836Y30520D01*
X18834Y30525D01*
X18833Y30529D01*
Y30531D01*
X19171Y30616D01*
X19186Y30557D01*
X19203Y30503D01*
X19221Y30452D01*
X19243Y30405D01*
X19264Y30361D01*
X19288Y30320D01*
X19310Y30285D01*
X19332Y30252D01*
X19352Y30224D01*
X19373Y30198D01*
X19391Y30178D01*
X19408Y30161D01*
X19421Y30146D01*
X19430Y30137D01*
X19437Y30131D01*
X19439Y30130D01*
X19478Y30102D01*
X19517Y30076D01*
X19558Y30054D01*
X19598Y30035D01*
X19639Y30020D01*
X19680Y30007D01*
X19719Y29996D01*
X19756Y29987D01*
X19789Y29980D01*
X19822Y29976D01*
X19850Y29972D01*
X19874Y29969D01*
X19894D01*
X19909Y29967D01*
X19922D01*
X19965Y29969D01*
X20007Y29972D01*
X20048Y29978D01*
X20089Y29985D01*
X20126Y29994D01*
X20163Y30006D01*
X20196Y30015D01*
X20227Y30028D01*
X20255Y30039D01*
X20281Y30048D01*
X20303Y30059D01*
X20322Y30068D01*
X20336Y30076D01*
X20348Y30081D01*
X20355Y30085D01*
X20357Y30087D01*
X20394Y30111D01*
X20427Y30137D01*
X20459Y30165D01*
X20488Y30194D01*
X20514Y30224D01*
X20538Y30255D01*
X20560Y30285D01*
X20581Y30313D01*
X20597Y30340D01*
X20612Y30366D01*
X20625Y30390D01*
X20634Y30411D01*
X20644Y30427D01*
X20649Y30439D01*
X20651Y30448D01*
X20653Y30450D01*
X20670Y30496D01*
X20684Y30544D01*
X20697Y30592D01*
X20707Y30642D01*
X20725Y30736D01*
X20731Y30783D01*
X20736Y30827D01*
X20740Y30866D01*
X20742Y30903D01*
X20743Y30936D01*
X20745Y30964D01*
X20747Y30988D01*
Y31005D01*
Y31016D01*
Y31019D01*
X20745Y31067D01*
X20743Y31114D01*
X20734Y31203D01*
X20729Y31245D01*
X20721Y31286D01*
X20714Y31325D01*
X20707Y31360D01*
X20699Y31393D01*
X20694Y31423D01*
X20686Y31449D01*
X20681Y31471D01*
X20675Y31488D01*
X20671Y31500D01*
X20668Y31510D01*
Y31512D01*
X20651Y31556D01*
X20633Y31597D01*
X20612Y31635D01*
X20590Y31671D01*
X20568Y31706D01*
X20546Y31737D01*
X20522Y31765D01*
X20499Y31791D01*
X20477Y31813D01*
X20457Y31833D01*
X20438Y31850D01*
X20422Y31865D01*
X20409Y31876D01*
X20399Y31885D01*
X20392Y31889D01*
X20390Y31891D01*
X20351Y31917D01*
X20311Y31937D01*
X20270Y31957D01*
X20229Y31974D01*
X20187Y31987D01*
X20146Y31998D01*
X20107Y32007D01*
X20068Y32015D01*
X20033Y32022D01*
X20000Y32026D01*
X19970Y32030D01*
X19944Y32031D01*
X19924Y32033D01*
X19896D01*
X19848Y32031D01*
X19804Y32028D01*
X19761Y32022D01*
X19721Y32013D01*
X19683Y32004D01*
X19648Y31993D01*
X19617Y31981D01*
X19587Y31970D01*
X19561Y31957D01*
X19537Y31946D01*
X19517Y31935D01*
X19500Y31926D01*
X19487Y31917D01*
X19478Y31911D01*
X19473Y31907D01*
X19471Y31906D01*
X19439Y31880D01*
X19410Y31852D01*
X19384Y31820D01*
X19358Y31789D01*
X19334Y31754D01*
X19313Y31721D01*
X19293Y31687D01*
X19276Y31654D01*
X19262Y31622D01*
X19247Y31593D01*
X19236Y31567D01*
X19227Y31545D01*
X19219Y31525D01*
X19214Y31512D01*
X19212Y31502D01*
X19210Y31499D01*
X18877Y31576D01*
X18897Y31641D01*
X18923Y31702D01*
X18949Y31759D01*
X18979Y31813D01*
X19008Y31861D01*
X19038Y31907D01*
X19069Y31948D01*
X19099Y31985D01*
X19128Y32018D01*
X19154Y32046D01*
X19178Y32072D01*
X19201Y32091D01*
X19217Y32107D01*
X19232Y32118D01*
X19240Y32126D01*
X19243Y32128D01*
X19293Y32163D01*
X19345Y32192D01*
X19400Y32218D01*
X19454Y32240D01*
X19508Y32261D01*
X19561Y32276D01*
X19613Y32289D01*
X19663Y32300D01*
X19711Y32307D01*
X19754Y32313D01*
X19791Y32318D01*
X19824Y32320D01*
X19852Y32322D01*
X19863Y32324D01*
X19889D01*
X19952Y32322D01*
D02*
G37*
G36*
X23846Y32257D02*
X23865Y32226D01*
X23907Y32165D01*
X23953Y32107D01*
X23977Y32079D01*
X24000Y32054D01*
X24022Y32031D01*
X24042Y32009D01*
X24061Y31991D01*
X24077Y31974D01*
X24090Y31961D01*
X24100Y31952D01*
X24107Y31946D01*
X24109Y31944D01*
X24185Y31881D01*
X24264Y31824D01*
X24342Y31772D01*
X24379Y31750D01*
X24414Y31728D01*
X24445Y31710D01*
X24475Y31693D01*
X24503Y31678D01*
X24525Y31667D01*
X24543Y31658D01*
X24558Y31650D01*
X24566Y31647D01*
X24569Y31645D01*
Y31341D01*
X24514Y31363D01*
X24456Y31389D01*
X24401Y31415D01*
X24349Y31441D01*
X24327Y31454D01*
X24305Y31465D01*
X24286Y31476D01*
X24272Y31486D01*
X24259Y31491D01*
X24248Y31497D01*
X24242Y31500D01*
X24240Y31502D01*
X24173Y31543D01*
X24144Y31563D01*
X24114Y31582D01*
X24088Y31602D01*
X24064Y31619D01*
X24042Y31637D01*
X24020Y31652D01*
X24003Y31667D01*
X23987Y31680D01*
X23972Y31693D01*
X23961Y31702D01*
X23952Y31710D01*
X23946Y31715D01*
X23942Y31719D01*
X23940Y31721D01*
Y29719D01*
X23626D01*
Y32289D01*
X23829D01*
X23846Y32257D01*
D02*
G37*
G36*
X21857D02*
X21876Y32226D01*
X21918Y32165D01*
X21965Y32107D01*
X21989Y32079D01*
X22011Y32054D01*
X22033Y32031D01*
X22053Y32009D01*
X22072Y31991D01*
X22088Y31974D01*
X22102Y31961D01*
X22111Y31952D01*
X22118Y31946D01*
X22120Y31944D01*
X22196Y31881D01*
X22275Y31824D01*
X22353Y31772D01*
X22390Y31750D01*
X22425Y31728D01*
X22457Y31710D01*
X22486Y31693D01*
X22514Y31678D01*
X22536Y31667D01*
X22555Y31658D01*
X22569Y31650D01*
X22577Y31647D01*
X22581Y31645D01*
Y31341D01*
X22525Y31363D01*
X22468Y31389D01*
X22412Y31415D01*
X22361Y31441D01*
X22338Y31454D01*
X22316Y31465D01*
X22298Y31476D01*
X22283Y31486D01*
X22270Y31491D01*
X22259Y31497D01*
X22253Y31500D01*
X22251Y31502D01*
X22185Y31543D01*
X22155Y31563D01*
X22126Y31582D01*
X22100Y31602D01*
X22076Y31619D01*
X22053Y31637D01*
X22031Y31652D01*
X22015Y31667D01*
X21998Y31680D01*
X21983Y31693D01*
X21972Y31702D01*
X21963Y31710D01*
X21957Y31715D01*
X21953Y31719D01*
X21952Y31721D01*
Y29719D01*
X21637D01*
Y32289D01*
X21841D01*
X21857Y32257D01*
D02*
G37*
G36*
X26218Y32322D02*
X26279Y32316D01*
X26338Y32309D01*
X26395Y32300D01*
X26449Y32289D01*
X26501Y32274D01*
X26549Y32261D01*
X26593Y32246D01*
X26632Y32231D01*
X26669Y32218D01*
X26701Y32205D01*
X26726Y32192D01*
X26749Y32183D01*
X26763Y32176D01*
X26773Y32170D01*
X26776Y32168D01*
X26828Y32137D01*
X26876Y32103D01*
X26921Y32068D01*
X26963Y32031D01*
X27002Y31994D01*
X27037Y31957D01*
X27071Y31918D01*
X27098Y31883D01*
X27124Y31850D01*
X27148Y31817D01*
X27167Y31789D01*
X27183Y31765D01*
X27194Y31743D01*
X27204Y31728D01*
X27209Y31719D01*
X27211Y31715D01*
X27237Y31658D01*
X27261Y31600D01*
X27281Y31541D01*
X27298Y31482D01*
X27313Y31423D01*
X27326Y31363D01*
X27335Y31308D01*
X27344Y31256D01*
X27350Y31206D01*
X27356Y31160D01*
X27357Y31119D01*
X27361Y31084D01*
Y31056D01*
X27363Y31045D01*
Y31036D01*
Y31029D01*
Y31023D01*
Y31019D01*
Y31018D01*
X27361Y30949D01*
X27357Y30882D01*
X27350Y30818D01*
X27343Y30757D01*
X27331Y30696D01*
X27320Y30640D01*
X27307Y30586D01*
X27294Y30537D01*
X27283Y30492D01*
X27270Y30452D01*
X27259Y30416D01*
X27248Y30387D01*
X27241Y30363D01*
X27233Y30346D01*
X27230Y30335D01*
X27228Y30333D01*
Y30331D01*
X27202Y30274D01*
X27172Y30218D01*
X27141Y30168D01*
X27109Y30120D01*
X27076Y30078D01*
X27043Y30037D01*
X27011Y30002D01*
X26980Y29969D01*
X26950Y29939D01*
X26923Y29915D01*
X26899Y29893D01*
X26876Y29876D01*
X26858Y29863D01*
X26845Y29852D01*
X26838Y29847D01*
X26834Y29845D01*
X26784Y29815D01*
X26730Y29789D01*
X26675Y29767D01*
X26619Y29747D01*
X26564Y29732D01*
X26506Y29717D01*
X26453Y29706D01*
X26399Y29697D01*
X26351Y29691D01*
X26305Y29686D01*
X26264Y29682D01*
X26229Y29678D01*
X26201D01*
X26188Y29676D01*
X26160D01*
X26086Y29678D01*
X26016Y29686D01*
X25949Y29697D01*
X25885Y29710D01*
X25826Y29726D01*
X25770Y29745D01*
X25718Y29765D01*
X25672Y29785D01*
X25629Y29806D01*
X25592Y29826D01*
X25559Y29845D01*
X25533Y29861D01*
X25511Y29874D01*
X25496Y29885D01*
X25487Y29893D01*
X25483Y29895D01*
X25433Y29939D01*
X25387Y29985D01*
X25344Y30035D01*
X25306Y30087D01*
X25271Y30141D01*
X25239Y30193D01*
X25211Y30244D01*
X25187Y30296D01*
X25165Y30344D01*
X25147Y30389D01*
X25132Y30427D01*
X25119Y30463D01*
X25110Y30490D01*
X25106Y30503D01*
X25104Y30512D01*
X25102Y30520D01*
X25100Y30525D01*
X25098Y30529D01*
Y30531D01*
X25437Y30616D01*
X25452Y30557D01*
X25469Y30503D01*
X25487Y30452D01*
X25509Y30405D01*
X25530Y30361D01*
X25554Y30320D01*
X25576Y30285D01*
X25598Y30252D01*
X25618Y30224D01*
X25639Y30198D01*
X25657Y30178D01*
X25674Y30161D01*
X25687Y30146D01*
X25696Y30137D01*
X25703Y30131D01*
X25705Y30130D01*
X25744Y30102D01*
X25783Y30076D01*
X25824Y30054D01*
X25864Y30035D01*
X25905Y30020D01*
X25946Y30007D01*
X25985Y29996D01*
X26022Y29987D01*
X26055Y29980D01*
X26088Y29976D01*
X26116Y29972D01*
X26140Y29969D01*
X26160D01*
X26175Y29967D01*
X26188D01*
X26231Y29969D01*
X26273Y29972D01*
X26314Y29978D01*
X26355Y29985D01*
X26392Y29994D01*
X26429Y30006D01*
X26462Y30015D01*
X26493Y30028D01*
X26521Y30039D01*
X26547Y30048D01*
X26569Y30059D01*
X26588Y30068D01*
X26603Y30076D01*
X26614Y30081D01*
X26621Y30085D01*
X26623Y30087D01*
X26660Y30111D01*
X26693Y30137D01*
X26725Y30165D01*
X26754Y30194D01*
X26780Y30224D01*
X26804Y30255D01*
X26826Y30285D01*
X26847Y30313D01*
X26863Y30340D01*
X26878Y30366D01*
X26891Y30390D01*
X26900Y30411D01*
X26910Y30427D01*
X26915Y30439D01*
X26917Y30448D01*
X26919Y30450D01*
X26935Y30496D01*
X26950Y30544D01*
X26963Y30592D01*
X26972Y30642D01*
X26991Y30736D01*
X26997Y30783D01*
X27002Y30827D01*
X27006Y30866D01*
X27008Y30903D01*
X27009Y30936D01*
X27011Y30964D01*
X27013Y30988D01*
Y31005D01*
Y31016D01*
Y31019D01*
X27011Y31067D01*
X27009Y31114D01*
X27000Y31203D01*
X26995Y31245D01*
X26987Y31286D01*
X26980Y31325D01*
X26972Y31360D01*
X26965Y31393D01*
X26960Y31423D01*
X26952Y31449D01*
X26947Y31471D01*
X26941Y31488D01*
X26937Y31500D01*
X26934Y31510D01*
Y31512D01*
X26917Y31556D01*
X26899Y31597D01*
X26878Y31635D01*
X26856Y31671D01*
X26834Y31706D01*
X26812Y31737D01*
X26787Y31765D01*
X26765Y31791D01*
X26743Y31813D01*
X26723Y31833D01*
X26704Y31850D01*
X26688Y31865D01*
X26675Y31876D01*
X26665Y31885D01*
X26658Y31889D01*
X26656Y31891D01*
X26617Y31917D01*
X26577Y31937D01*
X26536Y31957D01*
X26495Y31974D01*
X26453Y31987D01*
X26412Y31998D01*
X26373Y32007D01*
X26334Y32015D01*
X26299Y32022D01*
X26266Y32026D01*
X26236Y32030D01*
X26210Y32031D01*
X26190Y32033D01*
X26162D01*
X26114Y32031D01*
X26070Y32028D01*
X26027Y32022D01*
X25986Y32013D01*
X25949Y32004D01*
X25914Y31993D01*
X25883Y31981D01*
X25853Y31970D01*
X25827Y31957D01*
X25803Y31946D01*
X25783Y31935D01*
X25766Y31926D01*
X25753Y31917D01*
X25744Y31911D01*
X25739Y31907D01*
X25737Y31906D01*
X25705Y31880D01*
X25676Y31852D01*
X25650Y31820D01*
X25624Y31789D01*
X25600Y31754D01*
X25580Y31721D01*
X25559Y31687D01*
X25543Y31654D01*
X25528Y31622D01*
X25513Y31593D01*
X25502Y31567D01*
X25493Y31545D01*
X25485Y31525D01*
X25480Y31512D01*
X25478Y31502D01*
X25476Y31499D01*
X25143Y31576D01*
X25163Y31641D01*
X25189Y31702D01*
X25215Y31759D01*
X25245Y31813D01*
X25274Y31861D01*
X25304Y31907D01*
X25335Y31948D01*
X25365Y31985D01*
X25394Y32018D01*
X25420Y32046D01*
X25444Y32072D01*
X25467Y32091D01*
X25483Y32107D01*
X25498Y32118D01*
X25506Y32126D01*
X25509Y32128D01*
X25559Y32163D01*
X25611Y32192D01*
X25666Y32218D01*
X25720Y32240D01*
X25774Y32261D01*
X25827Y32276D01*
X25879Y32289D01*
X25929Y32300D01*
X25977Y32307D01*
X26020Y32313D01*
X26057Y32318D01*
X26090Y32320D01*
X26118Y32322D01*
X26129Y32324D01*
X26155D01*
X26218Y32322D01*
D02*
G37*
G36*
X30588Y32257D02*
X30607Y32226D01*
X30649Y32165D01*
X30696Y32107D01*
X30720Y32079D01*
X30742Y32054D01*
X30764Y32031D01*
X30784Y32009D01*
X30803Y31991D01*
X30820Y31974D01*
X30833Y31961D01*
X30842Y31952D01*
X30849Y31946D01*
X30851Y31944D01*
X30927Y31881D01*
X31007Y31824D01*
X31084Y31772D01*
X31121Y31750D01*
X31156Y31728D01*
X31188Y31710D01*
X31217Y31693D01*
X31245Y31678D01*
X31267Y31667D01*
X31286Y31658D01*
X31301Y31650D01*
X31308Y31647D01*
X31312Y31645D01*
Y31341D01*
X31256Y31363D01*
X31199Y31389D01*
X31143Y31415D01*
X31092Y31441D01*
X31069Y31454D01*
X31047Y31465D01*
X31029Y31476D01*
X31014Y31486D01*
X31001Y31491D01*
X30990Y31497D01*
X30984Y31500D01*
X30982Y31502D01*
X30916Y31543D01*
X30886Y31563D01*
X30857Y31582D01*
X30831Y31602D01*
X30807Y31619D01*
X30784Y31637D01*
X30762Y31652D01*
X30746Y31667D01*
X30729Y31680D01*
X30714Y31693D01*
X30703Y31702D01*
X30694Y31710D01*
X30688Y31715D01*
X30685Y31719D01*
X30683Y31721D01*
Y29719D01*
X30368D01*
Y32289D01*
X30572D01*
X30588Y32257D01*
D02*
G37*
G36*
X32960Y32322D02*
X33021Y32316D01*
X33080Y32309D01*
X33138Y32300D01*
X33191Y32289D01*
X33243Y32274D01*
X33291Y32261D01*
X33336Y32246D01*
X33375Y32231D01*
X33411Y32218D01*
X33443Y32205D01*
X33469Y32192D01*
X33491Y32183D01*
X33506Y32176D01*
X33515Y32170D01*
X33519Y32168D01*
X33571Y32137D01*
X33619Y32103D01*
X33663Y32068D01*
X33706Y32031D01*
X33744Y31994D01*
X33780Y31957D01*
X33813Y31918D01*
X33841Y31883D01*
X33867Y31850D01*
X33891Y31817D01*
X33909Y31789D01*
X33926Y31765D01*
X33937Y31743D01*
X33946Y31728D01*
X33952Y31719D01*
X33953Y31715D01*
X33979Y31658D01*
X34003Y31600D01*
X34024Y31541D01*
X34040Y31482D01*
X34055Y31423D01*
X34068Y31363D01*
X34078Y31308D01*
X34087Y31256D01*
X34092Y31206D01*
X34098Y31160D01*
X34100Y31119D01*
X34103Y31084D01*
Y31056D01*
X34105Y31045D01*
Y31036D01*
Y31029D01*
Y31023D01*
Y31019D01*
Y31018D01*
X34103Y30949D01*
X34100Y30882D01*
X34092Y30818D01*
X34085Y30757D01*
X34074Y30696D01*
X34063Y30640D01*
X34050Y30586D01*
X34037Y30537D01*
X34026Y30492D01*
X34013Y30452D01*
X34002Y30416D01*
X33990Y30387D01*
X33983Y30363D01*
X33976Y30346D01*
X33972Y30335D01*
X33970Y30333D01*
Y30331D01*
X33944Y30274D01*
X33915Y30218D01*
X33883Y30168D01*
X33852Y30120D01*
X33819Y30078D01*
X33785Y30037D01*
X33754Y30002D01*
X33722Y29969D01*
X33693Y29939D01*
X33665Y29915D01*
X33641Y29893D01*
X33619Y29876D01*
X33600Y29863D01*
X33587Y29852D01*
X33580Y29847D01*
X33576Y29845D01*
X33526Y29815D01*
X33472Y29789D01*
X33417Y29767D01*
X33362Y29747D01*
X33306Y29732D01*
X33249Y29717D01*
X33195Y29706D01*
X33141Y29697D01*
X33093Y29691D01*
X33047Y29686D01*
X33006Y29682D01*
X32971Y29678D01*
X32943D01*
X32930Y29676D01*
X32903D01*
X32829Y29678D01*
X32758Y29686D01*
X32692Y29697D01*
X32627Y29710D01*
X32568Y29726D01*
X32512Y29745D01*
X32461Y29765D01*
X32414Y29785D01*
X32372Y29806D01*
X32335Y29826D01*
X32302Y29845D01*
X32276Y29861D01*
X32253Y29874D01*
X32239Y29885D01*
X32229Y29893D01*
X32226Y29895D01*
X32176Y29939D01*
X32129Y29985D01*
X32087Y30035D01*
X32048Y30087D01*
X32013Y30141D01*
X31981Y30193D01*
X31954Y30244D01*
X31930Y30296D01*
X31907Y30344D01*
X31889Y30389D01*
X31874Y30427D01*
X31861Y30463D01*
X31852Y30490D01*
X31848Y30503D01*
X31846Y30512D01*
X31844Y30520D01*
X31843Y30525D01*
X31841Y30529D01*
Y30531D01*
X32179Y30616D01*
X32194Y30557D01*
X32211Y30503D01*
X32229Y30452D01*
X32252Y30405D01*
X32272Y30361D01*
X32296Y30320D01*
X32318Y30285D01*
X32340Y30252D01*
X32361Y30224D01*
X32381Y30198D01*
X32399Y30178D01*
X32416Y30161D01*
X32429Y30146D01*
X32438Y30137D01*
X32446Y30131D01*
X32448Y30130D01*
X32487Y30102D01*
X32525Y30076D01*
X32566Y30054D01*
X32607Y30035D01*
X32647Y30020D01*
X32688Y30007D01*
X32727Y29996D01*
X32764Y29987D01*
X32797Y29980D01*
X32831Y29976D01*
X32858Y29972D01*
X32882Y29969D01*
X32903D01*
X32917Y29967D01*
X32930D01*
X32973Y29969D01*
X33016Y29972D01*
X33056Y29978D01*
X33097Y29985D01*
X33134Y29994D01*
X33171Y30006D01*
X33204Y30015D01*
X33236Y30028D01*
X33263Y30039D01*
X33289Y30048D01*
X33312Y30059D01*
X33330Y30068D01*
X33345Y30076D01*
X33356Y30081D01*
X33363Y30085D01*
X33365Y30087D01*
X33402Y30111D01*
X33435Y30137D01*
X33467Y30165D01*
X33497Y30194D01*
X33522Y30224D01*
X33547Y30255D01*
X33569Y30285D01*
X33589Y30313D01*
X33606Y30340D01*
X33621Y30366D01*
X33634Y30390D01*
X33643Y30411D01*
X33652Y30427D01*
X33658Y30439D01*
X33659Y30448D01*
X33661Y30450D01*
X33678Y30496D01*
X33693Y30544D01*
X33706Y30592D01*
X33715Y30642D01*
X33733Y30736D01*
X33739Y30783D01*
X33744Y30827D01*
X33748Y30866D01*
X33750Y30903D01*
X33752Y30936D01*
X33754Y30964D01*
X33756Y30988D01*
Y31005D01*
Y31016D01*
Y31019D01*
X33754Y31067D01*
X33752Y31114D01*
X33743Y31203D01*
X33737Y31245D01*
X33730Y31286D01*
X33722Y31325D01*
X33715Y31360D01*
X33707Y31393D01*
X33702Y31423D01*
X33694Y31449D01*
X33689Y31471D01*
X33683Y31488D01*
X33680Y31500D01*
X33676Y31510D01*
Y31512D01*
X33659Y31556D01*
X33641Y31597D01*
X33621Y31635D01*
X33598Y31671D01*
X33576Y31706D01*
X33554Y31737D01*
X33530Y31765D01*
X33508Y31791D01*
X33485Y31813D01*
X33465Y31833D01*
X33447Y31850D01*
X33430Y31865D01*
X33417Y31876D01*
X33408Y31885D01*
X33400Y31889D01*
X33399Y31891D01*
X33360Y31917D01*
X33319Y31937D01*
X33278Y31957D01*
X33238Y31974D01*
X33195Y31987D01*
X33154Y31998D01*
X33116Y32007D01*
X33077Y32015D01*
X33042Y32022D01*
X33008Y32026D01*
X32979Y32030D01*
X32953Y32031D01*
X32932Y32033D01*
X32905D01*
X32857Y32031D01*
X32812Y32028D01*
X32770Y32022D01*
X32729Y32013D01*
X32692Y32004D01*
X32657Y31993D01*
X32625Y31981D01*
X32596Y31970D01*
X32570Y31957D01*
X32546Y31946D01*
X32525Y31935D01*
X32509Y31926D01*
X32496Y31917D01*
X32487Y31911D01*
X32481Y31907D01*
X32479Y31906D01*
X32448Y31880D01*
X32418Y31852D01*
X32392Y31820D01*
X32366Y31789D01*
X32342Y31754D01*
X32322Y31721D01*
X32302Y31687D01*
X32285Y31654D01*
X32270Y31622D01*
X32255Y31593D01*
X32244Y31567D01*
X32235Y31545D01*
X32228Y31525D01*
X32222Y31512D01*
X32220Y31502D01*
X32218Y31499D01*
X31885Y31576D01*
X31906Y31641D01*
X31931Y31702D01*
X31957Y31759D01*
X31987Y31813D01*
X32017Y31861D01*
X32046Y31907D01*
X32078Y31948D01*
X32107Y31985D01*
X32137Y32018D01*
X32163Y32046D01*
X32187Y32072D01*
X32209Y32091D01*
X32226Y32107D01*
X32240Y32118D01*
X32248Y32126D01*
X32252Y32128D01*
X32302Y32163D01*
X32353Y32192D01*
X32409Y32218D01*
X32462Y32240D01*
X32516Y32261D01*
X32570Y32276D01*
X32621Y32289D01*
X32671Y32300D01*
X32720Y32307D01*
X32762Y32313D01*
X32799Y32318D01*
X32832Y32320D01*
X32860Y32322D01*
X32871Y32324D01*
X32897D01*
X32960Y32322D01*
D02*
G37*
G36*
X28781Y32287D02*
X28829Y32283D01*
X28875Y32276D01*
X28920Y32265D01*
X28960Y32253D01*
X28999Y32240D01*
X29034Y32228D01*
X29066Y32214D01*
X29095Y32200D01*
X29120Y32187D01*
X29142Y32174D01*
X29160Y32163D01*
X29175Y32153D01*
X29184Y32146D01*
X29192Y32140D01*
X29193Y32139D01*
X29227Y32109D01*
X29258Y32078D01*
X29288Y32044D01*
X29316Y32009D01*
X29340Y31974D01*
X29362Y31937D01*
X29384Y31902D01*
X29401Y31869D01*
X29417Y31837D01*
X29432Y31808D01*
X29443Y31780D01*
X29454Y31758D01*
X29462Y31737D01*
X29467Y31724D01*
X29469Y31715D01*
X29471Y31711D01*
X29488Y31658D01*
X29501Y31600D01*
X29513Y31541D01*
X29525Y31480D01*
X29541Y31358D01*
X29547Y31299D01*
X29552Y31241D01*
X29556Y31188D01*
X29558Y31138D01*
X29560Y31093D01*
X29562Y31056D01*
Y31040D01*
X29564Y31025D01*
Y31012D01*
Y31001D01*
Y30992D01*
Y30986D01*
Y30982D01*
Y30981D01*
Y30914D01*
X29560Y30849D01*
X29558Y30788D01*
X29552Y30729D01*
X29547Y30672D01*
X29539Y30616D01*
X29532Y30564D01*
X29525Y30514D01*
X29515Y30464D01*
X29504Y30420D01*
X29495Y30376D01*
X29484Y30335D01*
X29473Y30294D01*
X29462Y30257D01*
X29449Y30222D01*
X29438Y30189D01*
X29427Y30159D01*
X29414Y30130D01*
X29403Y30104D01*
X29391Y30078D01*
X29380Y30056D01*
X29371Y30035D01*
X29360Y30017D01*
X29351Y30000D01*
X29343Y29985D01*
X29336Y29974D01*
X29329Y29963D01*
X29323Y29954D01*
X29317Y29948D01*
X29314Y29943D01*
X29312Y29941D01*
Y29939D01*
X29271Y29893D01*
X29227Y29852D01*
X29180Y29817D01*
X29132Y29787D01*
X29083Y29761D01*
X29034Y29741D01*
X28988Y29723D01*
X28942Y29710D01*
X28898Y29699D01*
X28859Y29691D01*
X28822Y29684D01*
X28790Y29680D01*
X28764Y29678D01*
X28746Y29676D01*
X28729D01*
X28677Y29678D01*
X28629Y29684D01*
X28583Y29691D01*
X28539Y29700D01*
X28498Y29711D01*
X28461Y29724D01*
X28426Y29737D01*
X28392Y29752D01*
X28365Y29765D01*
X28339Y29778D01*
X28318Y29791D01*
X28300Y29802D01*
X28285Y29813D01*
X28276Y29821D01*
X28269Y29824D01*
X28267Y29826D01*
X28233Y29856D01*
X28202Y29887D01*
X28172Y29921D01*
X28144Y29956D01*
X28120Y29993D01*
X28098Y30028D01*
X28076Y30063D01*
X28058Y30096D01*
X28043Y30128D01*
X28028Y30157D01*
X28017Y30185D01*
X28006Y30207D01*
X27998Y30228D01*
X27993Y30241D01*
X27991Y30250D01*
X27989Y30253D01*
X27972Y30307D01*
X27958Y30365D01*
X27945Y30424D01*
X27934Y30485D01*
X27917Y30605D01*
X27911Y30664D01*
X27906Y30722D01*
X27902Y30775D01*
X27900Y30823D01*
X27898Y30868D01*
X27897Y30907D01*
Y30923D01*
X27895Y30938D01*
Y30951D01*
Y30960D01*
Y30970D01*
Y30975D01*
Y30979D01*
Y30981D01*
Y31051D01*
X27897Y31116D01*
X27900Y31179D01*
X27904Y31236D01*
X27908Y31289D01*
X27913Y31339D01*
X27919Y31386D01*
X27924Y31426D01*
X27930Y31463D01*
X27935Y31495D01*
X27941Y31523D01*
X27945Y31545D01*
X27948Y31563D01*
X27952Y31574D01*
X27954Y31584D01*
Y31585D01*
X27965Y31626D01*
X27978Y31667D01*
X27989Y31704D01*
X28002Y31739D01*
X28017Y31772D01*
X28030Y31804D01*
X28043Y31833D01*
X28056Y31859D01*
X28067Y31883D01*
X28078Y31904D01*
X28087Y31922D01*
X28096Y31937D01*
X28104Y31948D01*
X28109Y31957D01*
X28111Y31963D01*
X28113Y31965D01*
X28152Y32020D01*
X28194Y32068D01*
X28237Y32111D01*
X28278Y32144D01*
X28296Y32159D01*
X28315Y32170D01*
X28330Y32181D01*
X28343Y32190D01*
X28354Y32196D01*
X28361Y32202D01*
X28367Y32205D01*
X28368D01*
X28398Y32220D01*
X28428Y32233D01*
X28490Y32253D01*
X28552Y32268D01*
X28607Y32277D01*
X28633Y32281D01*
X28655Y32285D01*
X28677Y32287D01*
X28694D01*
X28709Y32289D01*
X28729D01*
X28781Y32287D01*
D02*
G37*
G36*
X35823D02*
X35884Y32277D01*
X35942Y32266D01*
X35995Y32252D01*
X36047Y32233D01*
X36095Y32213D01*
X36138Y32192D01*
X36179Y32170D01*
X36214Y32148D01*
X36245Y32126D01*
X36273Y32105D01*
X36295Y32087D01*
X36312Y32072D01*
X36325Y32061D01*
X36334Y32052D01*
X36336Y32050D01*
X36377Y32004D01*
X36412Y31956D01*
X36441Y31904D01*
X36469Y31852D01*
X36491Y31800D01*
X36510Y31748D01*
X36525Y31697D01*
X36536Y31648D01*
X36547Y31602D01*
X36552Y31560D01*
X36558Y31521D01*
X36562Y31488D01*
X36563Y31460D01*
Y31449D01*
X36565Y31439D01*
Y31432D01*
Y31426D01*
Y31425D01*
Y31423D01*
X36563Y31354D01*
X36556Y31289D01*
X36545Y31227D01*
X36532Y31169D01*
X36515Y31116D01*
X36497Y31066D01*
X36476Y31019D01*
X36456Y30979D01*
X36436Y30942D01*
X36415Y30908D01*
X36397Y30881D01*
X36380Y30858D01*
X36367Y30840D01*
X36356Y30827D01*
X36349Y30818D01*
X36347Y30816D01*
X36304Y30775D01*
X36260Y30740D01*
X36216Y30711D01*
X36169Y30683D01*
X36125Y30661D01*
X36081Y30642D01*
X36036Y30627D01*
X35995Y30616D01*
X35957Y30605D01*
X35921Y30599D01*
X35888Y30594D01*
X35862Y30590D01*
X35840Y30588D01*
X35823Y30586D01*
X35809D01*
X35774Y30588D01*
X35738Y30590D01*
X35674Y30601D01*
X35612Y30616D01*
X35587Y30623D01*
X35561Y30633D01*
X35537Y30642D01*
X35516Y30649D01*
X35500Y30657D01*
X35483Y30664D01*
X35472Y30670D01*
X35463Y30675D01*
X35457Y30677D01*
X35455Y30679D01*
X35396Y30716D01*
X35346Y30757D01*
X35322Y30777D01*
X35302Y30797D01*
X35281Y30816D01*
X35265Y30836D01*
X35248Y30853D01*
X35235Y30870D01*
X35224Y30884D01*
X35213Y30897D01*
X35206Y30908D01*
X35200Y30916D01*
X35198Y30921D01*
X35196Y30923D01*
Y30908D01*
Y30896D01*
Y30884D01*
Y30875D01*
Y30870D01*
Y30864D01*
Y30862D01*
Y30860D01*
X35198Y30788D01*
X35204Y30718D01*
X35211Y30653D01*
X35217Y30622D01*
X35220Y30594D01*
X35224Y30568D01*
X35230Y30546D01*
X35233Y30525D01*
X35237Y30509D01*
X35241Y30494D01*
X35243Y30485D01*
X35244Y30477D01*
Y30476D01*
X35254Y30442D01*
X35263Y30409D01*
X35272Y30379D01*
X35281Y30350D01*
X35293Y30324D01*
X35302Y30300D01*
X35311Y30278D01*
X35320Y30257D01*
X35328Y30239D01*
X35337Y30222D01*
X35342Y30209D01*
X35350Y30198D01*
X35353Y30189D01*
X35357Y30183D01*
X35361Y30180D01*
Y30178D01*
X35389Y30139D01*
X35418Y30104D01*
X35448Y30072D01*
X35476Y30048D01*
X35500Y30028D01*
X35520Y30013D01*
X35527Y30007D01*
X35533Y30004D01*
X35537Y30000D01*
X35539D01*
X35581Y29978D01*
X35624Y29963D01*
X35668Y29952D01*
X35707Y29943D01*
X35742Y29939D01*
X35757Y29937D01*
X35770D01*
X35779Y29935D01*
X35794D01*
X35825Y29937D01*
X35855Y29939D01*
X35908Y29950D01*
X35955Y29965D01*
X35977Y29974D01*
X35995Y29983D01*
X36012Y29991D01*
X36029Y30000D01*
X36042Y30007D01*
X36051Y30015D01*
X36060Y30020D01*
X36066Y30026D01*
X36070Y30028D01*
X36071Y30030D01*
X36092Y30048D01*
X36108Y30070D01*
X36140Y30119D01*
X36166Y30170D01*
X36186Y30222D01*
X36193Y30244D01*
X36201Y30268D01*
X36206Y30289D01*
X36210Y30305D01*
X36214Y30320D01*
X36216Y30331D01*
X36217Y30339D01*
Y30340D01*
X36519Y30313D01*
X36510Y30257D01*
X36499Y30205D01*
X36484Y30157D01*
X36467Y30111D01*
X36450Y30068D01*
X36430Y30031D01*
X36412Y29996D01*
X36391Y29965D01*
X36373Y29935D01*
X36354Y29911D01*
X36336Y29891D01*
X36321Y29874D01*
X36310Y29860D01*
X36299Y29850D01*
X36293Y29845D01*
X36291Y29843D01*
X36255Y29813D01*
X36216Y29787D01*
X36175Y29765D01*
X36134Y29747D01*
X36094Y29730D01*
X36053Y29717D01*
X36012Y29706D01*
X35973Y29697D01*
X35938Y29691D01*
X35905Y29686D01*
X35875Y29682D01*
X35849Y29678D01*
X35829D01*
X35812Y29676D01*
X35799D01*
X35748Y29678D01*
X35698Y29684D01*
X35649Y29691D01*
X35603Y29700D01*
X35559Y29711D01*
X35520Y29724D01*
X35481Y29737D01*
X35448Y29752D01*
X35416Y29767D01*
X35389Y29780D01*
X35365Y29793D01*
X35344Y29804D01*
X35328Y29813D01*
X35317Y29822D01*
X35309Y29826D01*
X35307Y29828D01*
X35268Y29858D01*
X35233Y29891D01*
X35200Y29926D01*
X35168Y29961D01*
X35141Y29998D01*
X35113Y30035D01*
X35091Y30070D01*
X35069Y30106D01*
X35050Y30139D01*
X35033Y30170D01*
X35021Y30198D01*
X35009Y30222D01*
X35000Y30242D01*
X34995Y30257D01*
X34991Y30266D01*
X34989Y30270D01*
X34971Y30327D01*
X34954Y30387D01*
X34939Y30450D01*
X34926Y30514D01*
X34917Y30579D01*
X34908Y30646D01*
X34900Y30709D01*
X34895Y30770D01*
X34891Y30827D01*
X34887Y30881D01*
X34885Y30929D01*
X34884Y30949D01*
Y30970D01*
Y30988D01*
X34882Y31005D01*
Y31018D01*
Y31029D01*
Y31038D01*
Y31045D01*
Y31049D01*
Y31051D01*
X34884Y31136D01*
X34887Y31217D01*
X34891Y31291D01*
X34898Y31362D01*
X34908Y31426D01*
X34917Y31484D01*
X34926Y31537D01*
X34935Y31585D01*
X34947Y31628D01*
X34956Y31665D01*
X34965Y31697D01*
X34974Y31722D01*
X34982Y31743D01*
X34985Y31758D01*
X34989Y31765D01*
X34991Y31769D01*
X35011Y31815D01*
X35035Y31857D01*
X35059Y31896D01*
X35085Y31933D01*
X35111Y31969D01*
X35137Y32000D01*
X35163Y32030D01*
X35189Y32055D01*
X35213Y32078D01*
X35233Y32098D01*
X35254Y32115D01*
X35272Y32129D01*
X35285Y32139D01*
X35296Y32148D01*
X35304Y32152D01*
X35305Y32153D01*
X35344Y32177D01*
X35383Y32198D01*
X35424Y32216D01*
X35463Y32231D01*
X35502Y32244D01*
X35540Y32255D01*
X35576Y32265D01*
X35611Y32272D01*
X35642Y32277D01*
X35670Y32281D01*
X35696Y32285D01*
X35718Y32287D01*
X35737Y32289D01*
X35761D01*
X35823Y32287D01*
D02*
G37*
G36*
X37973Y32322D02*
X38034Y32316D01*
X38093Y32309D01*
X38151Y32300D01*
X38204Y32289D01*
X38256Y32274D01*
X38304Y32261D01*
X38349Y32246D01*
X38388Y32231D01*
X38425Y32218D01*
X38456Y32205D01*
X38482Y32192D01*
X38504Y32183D01*
X38519Y32176D01*
X38528Y32170D01*
X38532Y32168D01*
X38584Y32137D01*
X38632Y32103D01*
X38676Y32068D01*
X38719Y32031D01*
X38758Y31994D01*
X38793Y31957D01*
X38826Y31918D01*
X38854Y31883D01*
X38880Y31850D01*
X38904Y31817D01*
X38922Y31789D01*
X38939Y31765D01*
X38950Y31743D01*
X38959Y31728D01*
X38965Y31719D01*
X38967Y31715D01*
X38993Y31658D01*
X39017Y31600D01*
X39037Y31541D01*
X39053Y31482D01*
X39068Y31423D01*
X39081Y31363D01*
X39090Y31308D01*
X39100Y31256D01*
X39105Y31206D01*
X39111Y31160D01*
X39113Y31119D01*
X39116Y31084D01*
Y31056D01*
X39118Y31045D01*
Y31036D01*
Y31029D01*
Y31023D01*
Y31019D01*
Y31018D01*
X39116Y30949D01*
X39113Y30882D01*
X39105Y30818D01*
X39098Y30757D01*
X39087Y30696D01*
X39076Y30640D01*
X39063Y30586D01*
X39050Y30537D01*
X39039Y30492D01*
X39026Y30452D01*
X39015Y30416D01*
X39004Y30387D01*
X38996Y30363D01*
X38989Y30346D01*
X38985Y30335D01*
X38983Y30333D01*
Y30331D01*
X38957Y30274D01*
X38928Y30218D01*
X38896Y30168D01*
X38865Y30120D01*
X38831Y30078D01*
X38798Y30037D01*
X38767Y30002D01*
X38735Y29969D01*
X38706Y29939D01*
X38678Y29915D01*
X38654Y29893D01*
X38632Y29876D01*
X38613Y29863D01*
X38600Y29852D01*
X38593Y29847D01*
X38589Y29845D01*
X38539Y29815D01*
X38486Y29789D01*
X38430Y29767D01*
X38375Y29747D01*
X38319Y29732D01*
X38262Y29717D01*
X38208Y29706D01*
X38154Y29697D01*
X38106Y29691D01*
X38060Y29686D01*
X38019Y29682D01*
X37984Y29678D01*
X37957D01*
X37944Y29676D01*
X37916D01*
X37842Y29678D01*
X37771Y29686D01*
X37705Y29697D01*
X37640Y29710D01*
X37581Y29726D01*
X37525Y29745D01*
X37474Y29765D01*
X37427Y29785D01*
X37385Y29806D01*
X37348Y29826D01*
X37315Y29845D01*
X37289Y29861D01*
X37266Y29874D01*
X37252Y29885D01*
X37242Y29893D01*
X37239Y29895D01*
X37189Y29939D01*
X37143Y29985D01*
X37100Y30035D01*
X37061Y30087D01*
X37026Y30141D01*
X36994Y30193D01*
X36967Y30244D01*
X36943Y30296D01*
X36920Y30344D01*
X36902Y30389D01*
X36887Y30427D01*
X36874Y30463D01*
X36865Y30490D01*
X36861Y30503D01*
X36859Y30512D01*
X36858Y30520D01*
X36856Y30525D01*
X36854Y30529D01*
Y30531D01*
X37192Y30616D01*
X37207Y30557D01*
X37224Y30503D01*
X37242Y30452D01*
X37265Y30405D01*
X37285Y30361D01*
X37309Y30320D01*
X37331Y30285D01*
X37353Y30252D01*
X37374Y30224D01*
X37394Y30198D01*
X37413Y30178D01*
X37429Y30161D01*
X37442Y30146D01*
X37451Y30137D01*
X37459Y30131D01*
X37461Y30130D01*
X37499Y30102D01*
X37538Y30076D01*
X37579Y30054D01*
X37620Y30035D01*
X37660Y30020D01*
X37701Y30007D01*
X37740Y29996D01*
X37777Y29987D01*
X37810Y29980D01*
X37844Y29976D01*
X37871Y29972D01*
X37895Y29969D01*
X37916D01*
X37931Y29967D01*
X37944D01*
X37986Y29969D01*
X38029Y29972D01*
X38069Y29978D01*
X38110Y29985D01*
X38147Y29994D01*
X38184Y30006D01*
X38217Y30015D01*
X38249Y30028D01*
X38276Y30039D01*
X38302Y30048D01*
X38325Y30059D01*
X38343Y30068D01*
X38358Y30076D01*
X38369Y30081D01*
X38376Y30085D01*
X38378Y30087D01*
X38415Y30111D01*
X38449Y30137D01*
X38480Y30165D01*
X38510Y30194D01*
X38535Y30224D01*
X38560Y30255D01*
X38582Y30285D01*
X38602Y30313D01*
X38619Y30340D01*
X38634Y30366D01*
X38647Y30390D01*
X38656Y30411D01*
X38665Y30427D01*
X38671Y30439D01*
X38672Y30448D01*
X38674Y30450D01*
X38691Y30496D01*
X38706Y30544D01*
X38719Y30592D01*
X38728Y30642D01*
X38746Y30736D01*
X38752Y30783D01*
X38758Y30827D01*
X38761Y30866D01*
X38763Y30903D01*
X38765Y30936D01*
X38767Y30964D01*
X38769Y30988D01*
Y31005D01*
Y31016D01*
Y31019D01*
X38767Y31067D01*
X38765Y31114D01*
X38756Y31203D01*
X38750Y31245D01*
X38743Y31286D01*
X38735Y31325D01*
X38728Y31360D01*
X38721Y31393D01*
X38715Y31423D01*
X38708Y31449D01*
X38702Y31471D01*
X38696Y31488D01*
X38693Y31500D01*
X38689Y31510D01*
Y31512D01*
X38672Y31556D01*
X38654Y31597D01*
X38634Y31635D01*
X38611Y31671D01*
X38589Y31706D01*
X38567Y31737D01*
X38543Y31765D01*
X38521Y31791D01*
X38498Y31813D01*
X38478Y31833D01*
X38460Y31850D01*
X38443Y31865D01*
X38430Y31876D01*
X38421Y31885D01*
X38413Y31889D01*
X38412Y31891D01*
X38373Y31917D01*
X38332Y31937D01*
X38291Y31957D01*
X38251Y31974D01*
X38208Y31987D01*
X38167Y31998D01*
X38129Y32007D01*
X38090Y32015D01*
X38054Y32022D01*
X38021Y32026D01*
X37992Y32030D01*
X37966Y32031D01*
X37945Y32033D01*
X37918D01*
X37870Y32031D01*
X37825Y32028D01*
X37782Y32022D01*
X37742Y32013D01*
X37705Y32004D01*
X37670Y31993D01*
X37638Y31981D01*
X37609Y31970D01*
X37583Y31957D01*
X37559Y31946D01*
X37538Y31935D01*
X37522Y31926D01*
X37509Y31917D01*
X37499Y31911D01*
X37494Y31907D01*
X37492Y31906D01*
X37461Y31880D01*
X37431Y31852D01*
X37405Y31820D01*
X37379Y31789D01*
X37355Y31754D01*
X37335Y31721D01*
X37315Y31687D01*
X37298Y31654D01*
X37283Y31622D01*
X37268Y31593D01*
X37257Y31567D01*
X37248Y31545D01*
X37240Y31525D01*
X37235Y31512D01*
X37233Y31502D01*
X37231Y31499D01*
X36898Y31576D01*
X36919Y31641D01*
X36944Y31702D01*
X36970Y31759D01*
X37000Y31813D01*
X37030Y31861D01*
X37059Y31907D01*
X37091Y31948D01*
X37120Y31985D01*
X37150Y32018D01*
X37176Y32046D01*
X37200Y32072D01*
X37222Y32091D01*
X37239Y32107D01*
X37253Y32118D01*
X37261Y32126D01*
X37265Y32128D01*
X37315Y32163D01*
X37366Y32192D01*
X37422Y32218D01*
X37475Y32240D01*
X37529Y32261D01*
X37583Y32276D01*
X37635Y32289D01*
X37685Y32300D01*
X37733Y32307D01*
X37775Y32313D01*
X37812Y32318D01*
X37845Y32320D01*
X37873Y32322D01*
X37884Y32324D01*
X37910D01*
X37973Y32322D01*
D02*
G37*
G36*
X42973Y25322D02*
X43034Y25316D01*
X43093Y25309D01*
X43151Y25300D01*
X43204Y25289D01*
X43256Y25274D01*
X43304Y25261D01*
X43349Y25246D01*
X43387Y25231D01*
X43424Y25218D01*
X43456Y25205D01*
X43482Y25192D01*
X43504Y25183D01*
X43519Y25176D01*
X43528Y25170D01*
X43532Y25168D01*
X43584Y25137D01*
X43632Y25104D01*
X43676Y25068D01*
X43719Y25031D01*
X43758Y24994D01*
X43793Y24957D01*
X43826Y24918D01*
X43854Y24883D01*
X43880Y24850D01*
X43904Y24817D01*
X43922Y24789D01*
X43939Y24765D01*
X43950Y24743D01*
X43959Y24728D01*
X43965Y24719D01*
X43967Y24715D01*
X43992Y24658D01*
X44017Y24600D01*
X44037Y24541D01*
X44054Y24482D01*
X44068Y24423D01*
X44081Y24363D01*
X44091Y24308D01*
X44100Y24256D01*
X44105Y24206D01*
X44111Y24160D01*
X44113Y24119D01*
X44116Y24084D01*
Y24056D01*
X44118Y24045D01*
Y24036D01*
Y24029D01*
Y24023D01*
Y24019D01*
Y24018D01*
X44116Y23949D01*
X44113Y23882D01*
X44105Y23818D01*
X44098Y23757D01*
X44087Y23696D01*
X44076Y23640D01*
X44063Y23586D01*
X44050Y23537D01*
X44039Y23492D01*
X44026Y23451D01*
X44015Y23416D01*
X44004Y23387D01*
X43996Y23363D01*
X43989Y23346D01*
X43985Y23335D01*
X43983Y23333D01*
Y23331D01*
X43957Y23274D01*
X43928Y23218D01*
X43896Y23168D01*
X43865Y23120D01*
X43832Y23078D01*
X43798Y23037D01*
X43767Y23002D01*
X43735Y22969D01*
X43706Y22939D01*
X43678Y22915D01*
X43654Y22893D01*
X43632Y22876D01*
X43613Y22863D01*
X43600Y22852D01*
X43593Y22847D01*
X43589Y22845D01*
X43539Y22815D01*
X43486Y22789D01*
X43430Y22767D01*
X43374Y22747D01*
X43319Y22732D01*
X43262Y22717D01*
X43208Y22706D01*
X43154Y22697D01*
X43106Y22691D01*
X43060Y22686D01*
X43019Y22682D01*
X42984Y22678D01*
X42957D01*
X42944Y22676D01*
X42916D01*
X42842Y22678D01*
X42771Y22686D01*
X42705Y22697D01*
X42640Y22710D01*
X42581Y22726D01*
X42525Y22745D01*
X42474Y22765D01*
X42427Y22785D01*
X42385Y22806D01*
X42348Y22826D01*
X42314Y22845D01*
X42289Y22861D01*
X42266Y22874D01*
X42252Y22885D01*
X42242Y22893D01*
X42239Y22895D01*
X42189Y22939D01*
X42143Y22985D01*
X42100Y23035D01*
X42061Y23087D01*
X42026Y23141D01*
X41995Y23192D01*
X41967Y23244D01*
X41943Y23296D01*
X41920Y23344D01*
X41902Y23389D01*
X41887Y23427D01*
X41874Y23463D01*
X41865Y23490D01*
X41861Y23503D01*
X41859Y23513D01*
X41857Y23520D01*
X41856Y23526D01*
X41854Y23529D01*
Y23531D01*
X42192Y23616D01*
X42207Y23557D01*
X42224Y23503D01*
X42242Y23451D01*
X42265Y23405D01*
X42285Y23361D01*
X42309Y23320D01*
X42331Y23285D01*
X42353Y23252D01*
X42374Y23224D01*
X42394Y23198D01*
X42412Y23178D01*
X42429Y23161D01*
X42442Y23146D01*
X42451Y23137D01*
X42459Y23131D01*
X42461Y23130D01*
X42500Y23102D01*
X42538Y23076D01*
X42579Y23054D01*
X42620Y23035D01*
X42660Y23020D01*
X42701Y23008D01*
X42740Y22996D01*
X42777Y22987D01*
X42810Y22980D01*
X42844Y22976D01*
X42871Y22972D01*
X42895Y22969D01*
X42916D01*
X42930Y22967D01*
X42944D01*
X42986Y22969D01*
X43029Y22972D01*
X43069Y22978D01*
X43110Y22985D01*
X43147Y22995D01*
X43184Y23006D01*
X43217Y23015D01*
X43249Y23028D01*
X43277Y23039D01*
X43302Y23048D01*
X43325Y23059D01*
X43343Y23068D01*
X43358Y23076D01*
X43369Y23081D01*
X43376Y23085D01*
X43378Y23087D01*
X43415Y23111D01*
X43449Y23137D01*
X43480Y23165D01*
X43510Y23194D01*
X43536Y23224D01*
X43560Y23255D01*
X43582Y23285D01*
X43602Y23313D01*
X43619Y23340D01*
X43634Y23366D01*
X43646Y23390D01*
X43656Y23411D01*
X43665Y23427D01*
X43670Y23438D01*
X43672Y23448D01*
X43674Y23450D01*
X43691Y23496D01*
X43706Y23544D01*
X43719Y23592D01*
X43728Y23642D01*
X43746Y23736D01*
X43752Y23783D01*
X43758Y23827D01*
X43761Y23866D01*
X43763Y23903D01*
X43765Y23936D01*
X43767Y23964D01*
X43769Y23988D01*
Y24005D01*
Y24016D01*
Y24019D01*
X43767Y24068D01*
X43765Y24114D01*
X43756Y24203D01*
X43750Y24245D01*
X43743Y24286D01*
X43735Y24325D01*
X43728Y24360D01*
X43720Y24393D01*
X43715Y24423D01*
X43707Y24449D01*
X43702Y24471D01*
X43696Y24487D01*
X43693Y24500D01*
X43689Y24510D01*
Y24511D01*
X43672Y24556D01*
X43654Y24597D01*
X43634Y24635D01*
X43611Y24671D01*
X43589Y24706D01*
X43567Y24737D01*
X43543Y24765D01*
X43521Y24791D01*
X43499Y24813D01*
X43478Y24833D01*
X43460Y24850D01*
X43443Y24865D01*
X43430Y24876D01*
X43421Y24885D01*
X43413Y24889D01*
X43411Y24891D01*
X43373Y24917D01*
X43332Y24937D01*
X43291Y24957D01*
X43251Y24974D01*
X43208Y24987D01*
X43167Y24998D01*
X43128Y25007D01*
X43090Y25015D01*
X43055Y25022D01*
X43021Y25026D01*
X42992Y25030D01*
X42966Y25031D01*
X42945Y25033D01*
X42918D01*
X42869Y25031D01*
X42825Y25028D01*
X42783Y25022D01*
X42742Y25013D01*
X42705Y25004D01*
X42670Y24993D01*
X42638Y24981D01*
X42609Y24970D01*
X42583Y24957D01*
X42559Y24946D01*
X42538Y24935D01*
X42522Y24926D01*
X42509Y24917D01*
X42500Y24911D01*
X42494Y24907D01*
X42492Y24906D01*
X42461Y24880D01*
X42431Y24852D01*
X42405Y24821D01*
X42379Y24789D01*
X42355Y24754D01*
X42335Y24721D01*
X42314Y24687D01*
X42298Y24654D01*
X42283Y24622D01*
X42268Y24593D01*
X42257Y24567D01*
X42248Y24545D01*
X42241Y24524D01*
X42235Y24511D01*
X42233Y24502D01*
X42231Y24499D01*
X41898Y24576D01*
X41919Y24641D01*
X41945Y24702D01*
X41970Y24759D01*
X42000Y24813D01*
X42030Y24861D01*
X42059Y24907D01*
X42091Y24948D01*
X42120Y24985D01*
X42150Y25018D01*
X42176Y25046D01*
X42200Y25072D01*
X42222Y25091D01*
X42239Y25107D01*
X42253Y25118D01*
X42261Y25126D01*
X42265Y25128D01*
X42314Y25163D01*
X42366Y25192D01*
X42422Y25218D01*
X42476Y25240D01*
X42529Y25261D01*
X42583Y25276D01*
X42635Y25289D01*
X42685Y25300D01*
X42733Y25307D01*
X42775Y25313D01*
X42812Y25318D01*
X42845Y25320D01*
X42873Y25322D01*
X42884Y25324D01*
X42910D01*
X42973Y25322D01*
D02*
G37*
G36*
X40792Y25287D02*
X40849Y25281D01*
X40905Y25272D01*
X40955Y25259D01*
X41003Y25244D01*
X41047Y25227D01*
X41088Y25211D01*
X41123Y25194D01*
X41156Y25176D01*
X41184Y25159D01*
X41208Y25142D01*
X41229Y25128D01*
X41245Y25117D01*
X41256Y25105D01*
X41264Y25100D01*
X41266Y25098D01*
X41301Y25061D01*
X41332Y25024D01*
X41358Y24983D01*
X41380Y24944D01*
X41401Y24904D01*
X41417Y24865D01*
X41430Y24828D01*
X41439Y24791D01*
X41449Y24758D01*
X41454Y24726D01*
X41460Y24698D01*
X41462Y24674D01*
X41464Y24656D01*
X41465Y24641D01*
Y24632D01*
Y24628D01*
X41464Y24595D01*
X41462Y24562D01*
X41451Y24500D01*
X41443Y24473D01*
X41436Y24447D01*
X41427Y24423D01*
X41417Y24400D01*
X41410Y24380D01*
X41401Y24362D01*
X41393Y24347D01*
X41386Y24334D01*
X41380Y24323D01*
X41375Y24315D01*
X41373Y24312D01*
X41371Y24310D01*
X41352Y24286D01*
X41332Y24264D01*
X41286Y24223D01*
X41238Y24188D01*
X41190Y24158D01*
X41168Y24147D01*
X41147Y24136D01*
X41129Y24127D01*
X41112Y24119D01*
X41099Y24114D01*
X41090Y24110D01*
X41082Y24106D01*
X41080D01*
X41123Y24093D01*
X41164Y24079D01*
X41201Y24062D01*
X41236Y24045D01*
X41269Y24027D01*
X41299Y24006D01*
X41325Y23988D01*
X41351Y23969D01*
X41371Y23951D01*
X41390Y23934D01*
X41406Y23918D01*
X41419Y23905D01*
X41430Y23894D01*
X41438Y23884D01*
X41441Y23879D01*
X41443Y23877D01*
X41465Y23844D01*
X41484Y23810D01*
X41500Y23775D01*
X41515Y23740D01*
X41528Y23705D01*
X41537Y23672D01*
X41547Y23637D01*
X41552Y23605D01*
X41558Y23575D01*
X41561Y23548D01*
X41565Y23522D01*
X41567Y23501D01*
X41569Y23483D01*
Y23470D01*
Y23463D01*
Y23459D01*
X41567Y23398D01*
X41560Y23339D01*
X41547Y23283D01*
X41532Y23230D01*
X41515Y23181D01*
X41495Y23135D01*
X41475Y23093D01*
X41452Y23054D01*
X41432Y23019D01*
X41412Y22989D01*
X41391Y22963D01*
X41373Y22941D01*
X41360Y22922D01*
X41347Y22911D01*
X41340Y22902D01*
X41338Y22900D01*
X41291Y22861D01*
X41245Y22826D01*
X41195Y22797D01*
X41144Y22771D01*
X41092Y22749D01*
X41042Y22732D01*
X40992Y22717D01*
X40944Y22704D01*
X40899Y22695D01*
X40857Y22687D01*
X40820Y22684D01*
X40788Y22680D01*
X40762Y22678D01*
X40742Y22676D01*
X40725D01*
X40657Y22678D01*
X40590Y22686D01*
X40529Y22697D01*
X40470Y22712D01*
X40416Y22728D01*
X40366Y22747D01*
X40320Y22767D01*
X40278Y22787D01*
X40241Y22808D01*
X40209Y22828D01*
X40180Y22847D01*
X40157Y22863D01*
X40139Y22878D01*
X40126Y22889D01*
X40117Y22896D01*
X40115Y22898D01*
X40074Y22941D01*
X40037Y22987D01*
X40007Y23031D01*
X39980Y23080D01*
X39958Y23126D01*
X39939Y23170D01*
X39922Y23215D01*
X39911Y23257D01*
X39902Y23298D01*
X39895Y23335D01*
X39889Y23366D01*
X39885Y23394D01*
X39884Y23418D01*
X39882Y23435D01*
Y23446D01*
Y23450D01*
X39884Y23494D01*
X39887Y23537D01*
X39893Y23575D01*
X39900Y23614D01*
X39911Y23649D01*
X39921Y23685D01*
X39932Y23714D01*
X39943Y23744D01*
X39956Y23770D01*
X39967Y23792D01*
X39976Y23812D01*
X39985Y23829D01*
X39995Y23842D01*
X40000Y23851D01*
X40004Y23857D01*
X40006Y23858D01*
X40030Y23890D01*
X40058Y23918D01*
X40085Y23945D01*
X40115Y23969D01*
X40145Y23992D01*
X40174Y24012D01*
X40204Y24031D01*
X40233Y24047D01*
X40259Y24062D01*
X40285Y24073D01*
X40307Y24084D01*
X40328Y24092D01*
X40344Y24099D01*
X40355Y24103D01*
X40365Y24106D01*
X40366D01*
X40331Y24121D01*
X40300Y24136D01*
X40270Y24153D01*
X40241Y24169D01*
X40217Y24186D01*
X40192Y24203D01*
X40172Y24219D01*
X40152Y24236D01*
X40135Y24251D01*
X40122Y24265D01*
X40109Y24277D01*
X40100Y24288D01*
X40091Y24297D01*
X40085Y24304D01*
X40083Y24308D01*
X40082Y24310D01*
X40065Y24336D01*
X40050Y24362D01*
X40037Y24388D01*
X40026Y24414D01*
X40009Y24465D01*
X39998Y24513D01*
X39995Y24536D01*
X39993Y24556D01*
X39991Y24574D01*
X39989Y24589D01*
X39987Y24602D01*
Y24611D01*
Y24617D01*
Y24619D01*
X39989Y24671D01*
X39996Y24719D01*
X40006Y24767D01*
X40019Y24811D01*
X40035Y24852D01*
X40052Y24891D01*
X40070Y24928D01*
X40089Y24961D01*
X40109Y24991D01*
X40128Y25017D01*
X40145Y25039D01*
X40161Y25057D01*
X40174Y25072D01*
X40183Y25083D01*
X40191Y25091D01*
X40192Y25092D01*
X40231Y25128D01*
X40274Y25157D01*
X40318Y25183D01*
X40363Y25205D01*
X40407Y25226D01*
X40451Y25240D01*
X40496Y25253D01*
X40538Y25264D01*
X40577Y25272D01*
X40614Y25277D01*
X40648Y25283D01*
X40675Y25285D01*
X40699Y25287D01*
X40716Y25289D01*
X40731D01*
X40792Y25287D01*
D02*
G37*
G36*
X42970Y28322D02*
X43031Y28316D01*
X43091Y28309D01*
X43148Y28300D01*
X43202Y28288D01*
X43253Y28274D01*
X43301Y28261D01*
X43346Y28246D01*
X43385Y28231D01*
X43422Y28218D01*
X43453Y28205D01*
X43479Y28192D01*
X43501Y28183D01*
X43516Y28176D01*
X43525Y28170D01*
X43529Y28168D01*
X43581Y28137D01*
X43629Y28104D01*
X43673Y28068D01*
X43716Y28031D01*
X43755Y27994D01*
X43790Y27957D01*
X43823Y27918D01*
X43851Y27883D01*
X43877Y27850D01*
X43901Y27817D01*
X43919Y27789D01*
X43936Y27765D01*
X43947Y27743D01*
X43956Y27728D01*
X43962Y27719D01*
X43964Y27715D01*
X43990Y27658D01*
X44014Y27600D01*
X44034Y27541D01*
X44051Y27482D01*
X44065Y27423D01*
X44078Y27363D01*
X44088Y27308D01*
X44097Y27256D01*
X44102Y27206D01*
X44108Y27160D01*
X44110Y27119D01*
X44114Y27084D01*
Y27056D01*
X44115Y27045D01*
Y27036D01*
Y27029D01*
Y27023D01*
Y27019D01*
Y27018D01*
X44114Y26949D01*
X44110Y26882D01*
X44102Y26818D01*
X44095Y26757D01*
X44084Y26696D01*
X44073Y26640D01*
X44060Y26586D01*
X44047Y26537D01*
X44036Y26492D01*
X44023Y26452D01*
X44012Y26416D01*
X44001Y26387D01*
X43993Y26363D01*
X43986Y26346D01*
X43982Y26335D01*
X43980Y26333D01*
Y26331D01*
X43955Y26274D01*
X43925Y26218D01*
X43894Y26168D01*
X43862Y26120D01*
X43829Y26078D01*
X43795Y26037D01*
X43764Y26002D01*
X43733Y25969D01*
X43703Y25939D01*
X43675Y25915D01*
X43651Y25893D01*
X43629Y25876D01*
X43610Y25863D01*
X43597Y25852D01*
X43590Y25846D01*
X43586Y25845D01*
X43536Y25815D01*
X43483Y25789D01*
X43427Y25767D01*
X43372Y25747D01*
X43316Y25732D01*
X43259Y25717D01*
X43205Y25706D01*
X43152Y25697D01*
X43104Y25691D01*
X43057Y25686D01*
X43017Y25682D01*
X42981Y25678D01*
X42954D01*
X42941Y25676D01*
X42913D01*
X42839Y25678D01*
X42769Y25686D01*
X42702Y25697D01*
X42637Y25710D01*
X42578Y25726D01*
X42523Y25745D01*
X42471Y25765D01*
X42425Y25785D01*
X42382Y25806D01*
X42345Y25826D01*
X42312Y25845D01*
X42286Y25861D01*
X42264Y25874D01*
X42249Y25885D01*
X42240Y25893D01*
X42236Y25895D01*
X42186Y25939D01*
X42140Y25985D01*
X42097Y26035D01*
X42058Y26087D01*
X42023Y26141D01*
X41992Y26193D01*
X41964Y26244D01*
X41940Y26296D01*
X41918Y26344D01*
X41899Y26389D01*
X41884Y26427D01*
X41871Y26463D01*
X41862Y26490D01*
X41859Y26503D01*
X41857Y26513D01*
X41855Y26520D01*
X41853Y26526D01*
X41851Y26529D01*
Y26531D01*
X42190Y26616D01*
X42204Y26557D01*
X42221Y26503D01*
X42240Y26452D01*
X42262Y26405D01*
X42282Y26361D01*
X42306Y26320D01*
X42328Y26285D01*
X42351Y26252D01*
X42371Y26224D01*
X42391Y26198D01*
X42410Y26178D01*
X42426Y26161D01*
X42439Y26146D01*
X42449Y26137D01*
X42456Y26131D01*
X42458Y26130D01*
X42497Y26102D01*
X42536Y26076D01*
X42576Y26054D01*
X42617Y26035D01*
X42658Y26020D01*
X42698Y26008D01*
X42737Y25996D01*
X42774Y25987D01*
X42807Y25980D01*
X42841Y25976D01*
X42869Y25972D01*
X42893Y25969D01*
X42913D01*
X42928Y25967D01*
X42941D01*
X42983Y25969D01*
X43026Y25972D01*
X43066Y25978D01*
X43107Y25985D01*
X43144Y25995D01*
X43181Y26006D01*
X43214Y26015D01*
X43246Y26028D01*
X43274Y26039D01*
X43300Y26048D01*
X43322Y26059D01*
X43340Y26068D01*
X43355Y26076D01*
X43366Y26081D01*
X43374Y26085D01*
X43376Y26087D01*
X43413Y26111D01*
X43446Y26137D01*
X43477Y26165D01*
X43507Y26194D01*
X43533Y26224D01*
X43557Y26255D01*
X43579Y26285D01*
X43599Y26313D01*
X43616Y26340D01*
X43631Y26366D01*
X43644Y26390D01*
X43653Y26411D01*
X43662Y26427D01*
X43668Y26439D01*
X43670Y26448D01*
X43672Y26450D01*
X43688Y26496D01*
X43703Y26544D01*
X43716Y26592D01*
X43725Y26642D01*
X43744Y26736D01*
X43749Y26783D01*
X43755Y26827D01*
X43758Y26866D01*
X43760Y26903D01*
X43762Y26936D01*
X43764Y26964D01*
X43766Y26988D01*
Y27005D01*
Y27016D01*
Y27019D01*
X43764Y27068D01*
X43762Y27114D01*
X43753Y27203D01*
X43747Y27245D01*
X43740Y27286D01*
X43733Y27325D01*
X43725Y27360D01*
X43718Y27393D01*
X43712Y27423D01*
X43705Y27449D01*
X43699Y27471D01*
X43694Y27487D01*
X43690Y27500D01*
X43686Y27510D01*
Y27512D01*
X43670Y27556D01*
X43651Y27597D01*
X43631Y27635D01*
X43609Y27671D01*
X43586Y27706D01*
X43564Y27737D01*
X43540Y27765D01*
X43518Y27791D01*
X43496Y27813D01*
X43475Y27833D01*
X43457Y27850D01*
X43440Y27865D01*
X43427Y27876D01*
X43418Y27885D01*
X43411Y27889D01*
X43409Y27891D01*
X43370Y27917D01*
X43329Y27937D01*
X43288Y27957D01*
X43248Y27974D01*
X43205Y27987D01*
X43165Y27998D01*
X43126Y28007D01*
X43087Y28015D01*
X43052Y28022D01*
X43018Y28026D01*
X42989Y28030D01*
X42963Y28031D01*
X42943Y28033D01*
X42915D01*
X42867Y28031D01*
X42822Y28028D01*
X42780Y28022D01*
X42739Y28013D01*
X42702Y28004D01*
X42667Y27992D01*
X42636Y27981D01*
X42606Y27970D01*
X42580Y27957D01*
X42556Y27946D01*
X42536Y27935D01*
X42519Y27926D01*
X42506Y27917D01*
X42497Y27911D01*
X42491Y27907D01*
X42489Y27906D01*
X42458Y27880D01*
X42428Y27852D01*
X42402Y27821D01*
X42377Y27789D01*
X42352Y27754D01*
X42332Y27721D01*
X42312Y27687D01*
X42295Y27654D01*
X42280Y27623D01*
X42265Y27593D01*
X42254Y27567D01*
X42245Y27545D01*
X42238Y27525D01*
X42232Y27512D01*
X42230Y27502D01*
X42228Y27499D01*
X41895Y27576D01*
X41916Y27641D01*
X41942Y27702D01*
X41968Y27759D01*
X41997Y27813D01*
X42027Y27861D01*
X42056Y27907D01*
X42088Y27948D01*
X42118Y27985D01*
X42147Y28018D01*
X42173Y28046D01*
X42197Y28072D01*
X42219Y28091D01*
X42236Y28107D01*
X42251Y28118D01*
X42258Y28126D01*
X42262Y28128D01*
X42312Y28163D01*
X42364Y28192D01*
X42419Y28218D01*
X42473Y28240D01*
X42526Y28261D01*
X42580Y28276D01*
X42632Y28288D01*
X42682Y28300D01*
X42730Y28307D01*
X42772Y28313D01*
X42809Y28318D01*
X42843Y28320D01*
X42870Y28322D01*
X42882Y28324D01*
X42907D01*
X42970Y28322D01*
D02*
G37*
G36*
X41542Y27944D02*
X40288D01*
X40332Y27893D01*
X40377Y27837D01*
X40460Y27724D01*
X40499Y27667D01*
X40538Y27611D01*
X40573Y27558D01*
X40604Y27506D01*
X40634Y27458D01*
X40661Y27413D01*
X40684Y27373D01*
X40704Y27340D01*
X40719Y27312D01*
X40726Y27301D01*
X40732Y27291D01*
X40736Y27282D01*
X40739Y27277D01*
X40741Y27275D01*
Y27273D01*
X40780Y27199D01*
X40815Y27123D01*
X40850Y27049D01*
X40882Y26977D01*
X40909Y26907D01*
X40937Y26838D01*
X40961Y26773D01*
X40983Y26712D01*
X41002Y26655D01*
X41019Y26605D01*
X41033Y26559D01*
X41045Y26522D01*
X41050Y26505D01*
X41054Y26490D01*
X41057Y26477D01*
X41061Y26466D01*
X41063Y26459D01*
X41065Y26453D01*
X41067Y26450D01*
Y26448D01*
X41087Y26370D01*
X41104Y26294D01*
X41118Y26222D01*
X41133Y26154D01*
X41144Y26089D01*
X41154Y26030D01*
X41161Y25974D01*
X41167Y25922D01*
X41172Y25878D01*
X41176Y25837D01*
X41179Y25802D01*
X41181Y25773D01*
Y25750D01*
X41183Y25732D01*
Y25723D01*
Y25719D01*
X40859D01*
X40854Y25789D01*
X40846Y25859D01*
X40839Y25926D01*
X40830Y25989D01*
X40821Y26050D01*
X40810Y26109D01*
X40800Y26163D01*
X40789Y26213D01*
X40780Y26259D01*
X40771Y26300D01*
X40761Y26335D01*
X40754Y26366D01*
X40749Y26390D01*
X40743Y26407D01*
X40741Y26418D01*
X40739Y26422D01*
X40713Y26507D01*
X40686Y26592D01*
X40658Y26673D01*
X40626Y26753D01*
X40597Y26831D01*
X40565Y26903D01*
X40536Y26973D01*
X40506Y27038D01*
X40478Y27097D01*
X40453Y27149D01*
X40428Y27195D01*
X40419Y27217D01*
X40408Y27236D01*
X40401Y27253D01*
X40391Y27267D01*
X40386Y27280D01*
X40380Y27291D01*
X40375Y27299D01*
X40371Y27304D01*
X40369Y27308D01*
Y27310D01*
X40325Y27389D01*
X40279Y27463D01*
X40236Y27534D01*
X40192Y27600D01*
X40151Y27661D01*
X40110Y27719D01*
X40071Y27771D01*
X40036Y27817D01*
X40005Y27859D01*
X39975Y27896D01*
X39949Y27928D01*
X39927Y27954D01*
X39909Y27974D01*
X39896Y27991D01*
X39886Y27998D01*
X39884Y28002D01*
Y28246D01*
X41542D01*
Y27944D01*
D02*
G37*
G36*
X40732Y31285D02*
X40802Y31276D01*
X40867Y31261D01*
X40930Y31242D01*
X40987Y31220D01*
X41039Y31196D01*
X41087Y31168D01*
X41131Y31142D01*
X41170Y31115D01*
X41205Y31087D01*
X41233Y31063D01*
X41257Y31041D01*
X41278Y31022D01*
X41291Y31007D01*
X41298Y30998D01*
X41302Y30994D01*
X41326Y30961D01*
X41350Y30926D01*
X41372Y30891D01*
X41392Y30852D01*
X41429Y30770D01*
X41461Y30684D01*
X41487Y30595D01*
X41509Y30506D01*
X41527Y30415D01*
X41540Y30328D01*
X41553Y30245D01*
X41561Y30169D01*
X41564Y30132D01*
X41566Y30099D01*
X41570Y30066D01*
X41572Y30038D01*
Y30010D01*
X41574Y29986D01*
Y29966D01*
X41575Y29949D01*
Y29934D01*
Y29925D01*
Y29918D01*
Y29916D01*
Y29855D01*
X41572Y29796D01*
X41570Y29740D01*
X41564Y29685D01*
X41559Y29633D01*
X41553Y29583D01*
X41546Y29535D01*
X41537Y29489D01*
X41527Y29444D01*
X41518Y29401D01*
X41507Y29363D01*
X41498Y29324D01*
X41487Y29289D01*
X41474Y29254D01*
X41463Y29222D01*
X41451Y29193D01*
X41440Y29165D01*
X41427Y29137D01*
X41416Y29113D01*
X41405Y29091D01*
X41396Y29070D01*
X41385Y29052D01*
X41366Y29020D01*
X41350Y28996D01*
X41339Y28978D01*
X41329Y28969D01*
X41328Y28965D01*
X41279Y28915D01*
X41230Y28871D01*
X41176Y28832D01*
X41122Y28798D01*
X41069Y28771D01*
X41017Y28747D01*
X40965Y28728D01*
X40915Y28713D01*
X40867Y28700D01*
X40824Y28691D01*
X40786Y28686D01*
X40752Y28680D01*
X40724Y28678D01*
X40713D01*
X40704Y28676D01*
X40687D01*
X40645Y28678D01*
X40602Y28682D01*
X40563Y28686D01*
X40525Y28693D01*
X40490Y28702D01*
X40454Y28712D01*
X40423Y28721D01*
X40395Y28732D01*
X40367Y28741D01*
X40345Y28750D01*
X40325Y28760D01*
X40306Y28769D01*
X40293Y28776D01*
X40282Y28780D01*
X40277Y28784D01*
X40275Y28785D01*
X40242Y28808D01*
X40210Y28830D01*
X40181Y28856D01*
X40155Y28882D01*
X40129Y28908D01*
X40105Y28934D01*
X40084Y28959D01*
X40064Y28985D01*
X40047Y29009D01*
X40033Y29030D01*
X40020Y29050D01*
X40009Y29068D01*
X40001Y29081D01*
X39996Y29093D01*
X39992Y29100D01*
X39990Y29102D01*
X39972Y29141D01*
X39955Y29181D01*
X39942Y29220D01*
X39929Y29259D01*
X39918Y29298D01*
X39910Y29335D01*
X39903Y29370D01*
X39898Y29403D01*
X39894Y29435D01*
X39890Y29463D01*
X39888Y29487D01*
X39886Y29509D01*
X39884Y29526D01*
Y29538D01*
Y29548D01*
Y29550D01*
X39886Y29616D01*
X39894Y29681D01*
X39905Y29740D01*
X39920Y29797D01*
X39936Y29851D01*
X39955Y29899D01*
X39975Y29945D01*
X39996Y29986D01*
X40016Y30023D01*
X40036Y30055D01*
X40055Y30082D01*
X40071Y30105D01*
X40086Y30123D01*
X40097Y30136D01*
X40105Y30145D01*
X40106Y30147D01*
X40149Y30188D01*
X40194Y30225D01*
X40238Y30254D01*
X40282Y30282D01*
X40328Y30304D01*
X40373Y30323D01*
X40415Y30340D01*
X40456Y30351D01*
X40495Y30360D01*
X40530Y30367D01*
X40562Y30373D01*
X40589Y30376D01*
X40610Y30378D01*
X40626Y30380D01*
X40674D01*
X40708Y30376D01*
X40773Y30367D01*
X40830Y30352D01*
X40858Y30345D01*
X40882Y30338D01*
X40906Y30330D01*
X40926Y30323D01*
X40943Y30315D01*
X40959Y30308D01*
X40971Y30303D01*
X40980Y30299D01*
X40985Y30297D01*
X40987Y30295D01*
X41017Y30278D01*
X41046Y30260D01*
X41098Y30219D01*
X41146Y30177D01*
X41167Y30156D01*
X41185Y30136D01*
X41204Y30116D01*
X41218Y30097D01*
X41231Y30081D01*
X41242Y30066D01*
X41252Y30055D01*
X41257Y30045D01*
X41261Y30040D01*
X41263Y30038D01*
X41261Y30108D01*
X41259Y30175D01*
X41254Y30236D01*
X41248Y30293D01*
X41242Y30345D01*
X41235Y30395D01*
X41226Y30439D01*
X41218Y30478D01*
X41211Y30513D01*
X41204Y30545D01*
X41196Y30571D01*
X41189Y30591D01*
X41183Y30608D01*
X41179Y30621D01*
X41176Y30628D01*
Y30630D01*
X41159Y30667D01*
X41141Y30702D01*
X41122Y30735D01*
X41102Y30767D01*
X41083Y30795D01*
X41063Y30821D01*
X41045Y30845D01*
X41026Y30865D01*
X41008Y30883D01*
X40993Y30900D01*
X40978Y30913D01*
X40965Y30924D01*
X40956Y30933D01*
X40946Y30939D01*
X40943Y30943D01*
X40941Y30944D01*
X40919Y30959D01*
X40896Y30972D01*
X40852Y30994D01*
X40808Y31009D01*
X40767Y31018D01*
X40747Y31022D01*
X40730Y31026D01*
X40715Y31028D01*
X40702D01*
X40691Y31029D01*
X40676D01*
X40643Y31028D01*
X40610Y31024D01*
X40578Y31017D01*
X40549Y31009D01*
X40521Y30998D01*
X40497Y30987D01*
X40473Y30974D01*
X40451Y30963D01*
X40430Y30950D01*
X40414Y30937D01*
X40399Y30926D01*
X40386Y30915D01*
X40377Y30907D01*
X40369Y30900D01*
X40365Y30896D01*
X40364Y30895D01*
X40349Y30878D01*
X40336Y30859D01*
X40312Y30817D01*
X40292Y30772D01*
X40275Y30730D01*
X40260Y30689D01*
X40256Y30672D01*
X40251Y30656D01*
X40247Y30645D01*
X40245Y30634D01*
X40243Y30628D01*
Y30626D01*
X39931Y30650D01*
X39940Y30704D01*
X39951Y30756D01*
X39966Y30804D01*
X39984Y30848D01*
X40001Y30891D01*
X40021Y30930D01*
X40042Y30965D01*
X40062Y30996D01*
X40082Y31024D01*
X40101Y31048D01*
X40118Y31070D01*
X40132Y31087D01*
X40145Y31100D01*
X40155Y31111D01*
X40162Y31117D01*
X40164Y31118D01*
X40201Y31148D01*
X40240Y31174D01*
X40280Y31198D01*
X40323Y31216D01*
X40364Y31233D01*
X40404Y31248D01*
X40445Y31259D01*
X40482Y31268D01*
X40519Y31274D01*
X40552Y31279D01*
X40582Y31283D01*
X40608Y31287D01*
X40628D01*
X40645Y31288D01*
X40658D01*
X40732Y31285D01*
D02*
G37*
G36*
X42970Y31322D02*
X43031Y31316D01*
X43091Y31309D01*
X43148Y31300D01*
X43202Y31288D01*
X43253Y31274D01*
X43301Y31261D01*
X43346Y31246D01*
X43385Y31231D01*
X43422Y31218D01*
X43453Y31205D01*
X43479Y31192D01*
X43501Y31183D01*
X43516Y31176D01*
X43525Y31170D01*
X43529Y31168D01*
X43581Y31137D01*
X43629Y31104D01*
X43673Y31068D01*
X43716Y31031D01*
X43755Y30994D01*
X43790Y30957D01*
X43823Y30918D01*
X43851Y30883D01*
X43877Y30850D01*
X43901Y30817D01*
X43919Y30789D01*
X43936Y30765D01*
X43947Y30743D01*
X43956Y30728D01*
X43962Y30719D01*
X43964Y30715D01*
X43990Y30658D01*
X44014Y30600D01*
X44034Y30541D01*
X44051Y30482D01*
X44065Y30423D01*
X44078Y30364D01*
X44088Y30308D01*
X44097Y30256D01*
X44102Y30206D01*
X44108Y30160D01*
X44110Y30119D01*
X44114Y30084D01*
Y30056D01*
X44115Y30045D01*
Y30036D01*
Y30029D01*
Y30023D01*
Y30019D01*
Y30018D01*
X44114Y29949D01*
X44110Y29882D01*
X44102Y29818D01*
X44095Y29757D01*
X44084Y29696D01*
X44073Y29640D01*
X44060Y29586D01*
X44047Y29537D01*
X44036Y29492D01*
X44023Y29452D01*
X44012Y29416D01*
X44001Y29387D01*
X43993Y29363D01*
X43986Y29346D01*
X43982Y29335D01*
X43980Y29333D01*
Y29331D01*
X43955Y29274D01*
X43925Y29218D01*
X43894Y29168D01*
X43862Y29120D01*
X43829Y29078D01*
X43795Y29037D01*
X43764Y29002D01*
X43733Y28969D01*
X43703Y28939D01*
X43675Y28915D01*
X43651Y28893D01*
X43629Y28876D01*
X43610Y28863D01*
X43597Y28852D01*
X43590Y28846D01*
X43586Y28845D01*
X43536Y28815D01*
X43483Y28789D01*
X43427Y28767D01*
X43372Y28747D01*
X43316Y28732D01*
X43259Y28717D01*
X43205Y28706D01*
X43152Y28697D01*
X43104Y28691D01*
X43057Y28686D01*
X43017Y28682D01*
X42981Y28678D01*
X42954D01*
X42941Y28676D01*
X42913D01*
X42839Y28678D01*
X42769Y28686D01*
X42702Y28697D01*
X42637Y28710D01*
X42578Y28726D01*
X42523Y28745D01*
X42471Y28765D01*
X42425Y28785D01*
X42382Y28806D01*
X42345Y28826D01*
X42312Y28845D01*
X42286Y28861D01*
X42264Y28874D01*
X42249Y28885D01*
X42240Y28893D01*
X42236Y28895D01*
X42186Y28939D01*
X42140Y28985D01*
X42097Y29035D01*
X42058Y29087D01*
X42023Y29141D01*
X41992Y29193D01*
X41964Y29244D01*
X41940Y29296D01*
X41918Y29344D01*
X41899Y29389D01*
X41884Y29427D01*
X41871Y29463D01*
X41862Y29490D01*
X41859Y29503D01*
X41857Y29513D01*
X41855Y29520D01*
X41853Y29526D01*
X41851Y29529D01*
Y29531D01*
X42190Y29616D01*
X42204Y29557D01*
X42221Y29503D01*
X42240Y29452D01*
X42262Y29405D01*
X42282Y29361D01*
X42306Y29320D01*
X42328Y29285D01*
X42351Y29252D01*
X42371Y29224D01*
X42391Y29198D01*
X42410Y29178D01*
X42426Y29161D01*
X42439Y29146D01*
X42449Y29137D01*
X42456Y29131D01*
X42458Y29130D01*
X42497Y29102D01*
X42536Y29076D01*
X42576Y29054D01*
X42617Y29035D01*
X42658Y29020D01*
X42698Y29008D01*
X42737Y28996D01*
X42774Y28987D01*
X42807Y28980D01*
X42841Y28976D01*
X42869Y28972D01*
X42893Y28969D01*
X42913D01*
X42928Y28967D01*
X42941D01*
X42983Y28969D01*
X43026Y28972D01*
X43066Y28978D01*
X43107Y28985D01*
X43144Y28995D01*
X43181Y29006D01*
X43214Y29015D01*
X43246Y29028D01*
X43274Y29039D01*
X43300Y29048D01*
X43322Y29059D01*
X43340Y29068D01*
X43355Y29076D01*
X43366Y29081D01*
X43374Y29085D01*
X43376Y29087D01*
X43413Y29111D01*
X43446Y29137D01*
X43477Y29165D01*
X43507Y29194D01*
X43533Y29224D01*
X43557Y29255D01*
X43579Y29285D01*
X43599Y29313D01*
X43616Y29340D01*
X43631Y29366D01*
X43644Y29390D01*
X43653Y29411D01*
X43662Y29427D01*
X43668Y29438D01*
X43670Y29448D01*
X43672Y29450D01*
X43688Y29496D01*
X43703Y29544D01*
X43716Y29592D01*
X43725Y29642D01*
X43744Y29736D01*
X43749Y29783D01*
X43755Y29827D01*
X43758Y29866D01*
X43760Y29903D01*
X43762Y29936D01*
X43764Y29964D01*
X43766Y29988D01*
Y30005D01*
Y30016D01*
Y30019D01*
X43764Y30068D01*
X43762Y30114D01*
X43753Y30203D01*
X43747Y30245D01*
X43740Y30286D01*
X43733Y30325D01*
X43725Y30360D01*
X43718Y30393D01*
X43712Y30423D01*
X43705Y30449D01*
X43699Y30471D01*
X43694Y30487D01*
X43690Y30500D01*
X43686Y30510D01*
Y30512D01*
X43670Y30556D01*
X43651Y30597D01*
X43631Y30635D01*
X43609Y30671D01*
X43586Y30706D01*
X43564Y30737D01*
X43540Y30765D01*
X43518Y30791D01*
X43496Y30813D01*
X43475Y30833D01*
X43457Y30850D01*
X43440Y30865D01*
X43427Y30876D01*
X43418Y30885D01*
X43411Y30889D01*
X43409Y30891D01*
X43370Y30917D01*
X43329Y30937D01*
X43288Y30957D01*
X43248Y30974D01*
X43205Y30987D01*
X43165Y30998D01*
X43126Y31007D01*
X43087Y31015D01*
X43052Y31022D01*
X43018Y31026D01*
X42989Y31029D01*
X42963Y31031D01*
X42943Y31033D01*
X42915D01*
X42867Y31031D01*
X42822Y31028D01*
X42780Y31022D01*
X42739Y31013D01*
X42702Y31004D01*
X42667Y30992D01*
X42636Y30981D01*
X42606Y30970D01*
X42580Y30957D01*
X42556Y30946D01*
X42536Y30935D01*
X42519Y30926D01*
X42506Y30917D01*
X42497Y30911D01*
X42491Y30907D01*
X42489Y30906D01*
X42458Y30880D01*
X42428Y30852D01*
X42402Y30821D01*
X42377Y30789D01*
X42352Y30754D01*
X42332Y30721D01*
X42312Y30687D01*
X42295Y30654D01*
X42280Y30623D01*
X42265Y30593D01*
X42254Y30567D01*
X42245Y30545D01*
X42238Y30525D01*
X42232Y30512D01*
X42230Y30502D01*
X42228Y30499D01*
X41895Y30576D01*
X41916Y30641D01*
X41942Y30702D01*
X41968Y30759D01*
X41997Y30813D01*
X42027Y30861D01*
X42056Y30907D01*
X42088Y30948D01*
X42118Y30985D01*
X42147Y31018D01*
X42173Y31046D01*
X42197Y31072D01*
X42219Y31091D01*
X42236Y31107D01*
X42251Y31118D01*
X42258Y31126D01*
X42262Y31128D01*
X42312Y31163D01*
X42364Y31192D01*
X42419Y31218D01*
X42473Y31240D01*
X42526Y31261D01*
X42580Y31276D01*
X42632Y31288D01*
X42682Y31300D01*
X42730Y31307D01*
X42772Y31313D01*
X42809Y31318D01*
X42843Y31320D01*
X42870Y31322D01*
X42882Y31324D01*
X42907D01*
X42970Y31322D01*
D02*
G37*
G36*
X41517Y32931D02*
X41221Y32892D01*
X41193Y32931D01*
X41162Y32966D01*
X41131Y32995D01*
X41101Y33021D01*
X41073Y33042D01*
X41051Y33056D01*
X41042Y33062D01*
X41036Y33066D01*
X41032Y33069D01*
X41031D01*
X40984Y33093D01*
X40936Y33110D01*
X40890Y33123D01*
X40847Y33130D01*
X40827Y33134D01*
X40810Y33136D01*
X40794Y33138D01*
X40781D01*
X40770Y33140D01*
X40755D01*
X40711Y33138D01*
X40668Y33132D01*
X40627Y33125D01*
X40589Y33116D01*
X40553Y33105D01*
X40522Y33090D01*
X40492Y33077D01*
X40464Y33062D01*
X40440Y33047D01*
X40420Y33034D01*
X40402Y33021D01*
X40387Y33008D01*
X40374Y32999D01*
X40366Y32992D01*
X40361Y32986D01*
X40359Y32984D01*
X40333Y32955D01*
X40309Y32921D01*
X40289Y32888D01*
X40272Y32853D01*
X40257Y32816D01*
X40244Y32781D01*
X40235Y32748D01*
X40226Y32714D01*
X40220Y32681D01*
X40215Y32653D01*
X40211Y32625D01*
X40209Y32603D01*
Y32585D01*
X40207Y32570D01*
Y32563D01*
Y32559D01*
X40209Y32507D01*
X40215Y32459D01*
X40222Y32413D01*
X40231Y32368D01*
X40244Y32327D01*
X40257Y32291D01*
X40272Y32257D01*
X40285Y32226D01*
X40300Y32198D01*
X40315Y32174D01*
X40328Y32154D01*
X40341Y32137D01*
X40350Y32124D01*
X40357Y32113D01*
X40363Y32107D01*
X40365Y32105D01*
X40394Y32076D01*
X40426Y32050D01*
X40459Y32026D01*
X40490Y32008D01*
X40524Y31991D01*
X40555Y31976D01*
X40587Y31965D01*
X40616Y31958D01*
X40644Y31950D01*
X40670Y31945D01*
X40694Y31941D01*
X40712Y31937D01*
X40729D01*
X40740Y31935D01*
X40751D01*
X40786Y31937D01*
X40820Y31941D01*
X40851Y31946D01*
X40881Y31954D01*
X40910Y31963D01*
X40936Y31974D01*
X40962Y31983D01*
X40984Y31996D01*
X41005Y32008D01*
X41021Y32017D01*
X41038Y32028D01*
X41051Y32037D01*
X41062Y32045D01*
X41069Y32050D01*
X41073Y32054D01*
X41075Y32056D01*
X41099Y32080D01*
X41121Y32105D01*
X41140Y32133D01*
X41158Y32163D01*
X41173Y32193D01*
X41186Y32224D01*
X41208Y32281D01*
X41217Y32309D01*
X41225Y32335D01*
X41230Y32359D01*
X41236Y32379D01*
X41240Y32396D01*
X41241Y32407D01*
X41243Y32416D01*
Y32418D01*
X41573Y32390D01*
X41565Y32331D01*
X41552Y32276D01*
X41537Y32222D01*
X41521Y32172D01*
X41500Y32126D01*
X41478Y32083D01*
X41458Y32045D01*
X41436Y32009D01*
X41414Y31978D01*
X41393Y31950D01*
X41373Y31926D01*
X41356Y31906D01*
X41341Y31891D01*
X41330Y31880D01*
X41323Y31872D01*
X41321Y31871D01*
X41278Y31837D01*
X41234Y31806D01*
X41186Y31780D01*
X41140Y31758D01*
X41092Y31739D01*
X41043Y31724D01*
X40997Y31712D01*
X40953Y31700D01*
X40912Y31693D01*
X40873Y31687D01*
X40838Y31682D01*
X40809Y31680D01*
X40785Y31678D01*
X40766Y31676D01*
X40751D01*
X40674Y31680D01*
X40600Y31689D01*
X40531Y31706D01*
X40466Y31724D01*
X40405Y31749D01*
X40350Y31774D01*
X40300Y31802D01*
X40254Y31832D01*
X40213Y31861D01*
X40178Y31889D01*
X40148Y31915D01*
X40122Y31939D01*
X40104Y31959D01*
X40089Y31974D01*
X40082Y31983D01*
X40078Y31987D01*
X40043Y32035D01*
X40011Y32085D01*
X39983Y32135D01*
X39959Y32187D01*
X39941Y32237D01*
X39924Y32287D01*
X39911Y32335D01*
X39900Y32381D01*
X39891Y32424D01*
X39885Y32463D01*
X39880Y32498D01*
X39878Y32529D01*
X39876Y32553D01*
X39874Y32572D01*
Y32577D01*
Y32583D01*
Y32585D01*
Y32587D01*
X39876Y32653D01*
X39884Y32716D01*
X39897Y32777D01*
X39909Y32834D01*
X39928Y32886D01*
X39948Y32936D01*
X39969Y32981D01*
X39989Y33021D01*
X40011Y33058D01*
X40032Y33092D01*
X40052Y33119D01*
X40069Y33141D01*
X40083Y33160D01*
X40096Y33173D01*
X40104Y33182D01*
X40106Y33184D01*
X40150Y33225D01*
X40196Y33262D01*
X40244Y33291D01*
X40293Y33319D01*
X40341Y33341D01*
X40387Y33360D01*
X40433Y33377D01*
X40476Y33388D01*
X40516Y33397D01*
X40555Y33404D01*
X40589Y33410D01*
X40618Y33413D01*
X40640Y33415D01*
X40659Y33417D01*
X40674D01*
X40720Y33415D01*
X40768Y33410D01*
X40812Y33402D01*
X40857Y33391D01*
X40897Y33380D01*
X40938Y33367D01*
X40975Y33352D01*
X41010Y33338D01*
X41042Y33321D01*
X41071Y33308D01*
X41095Y33293D01*
X41116Y33282D01*
X41134Y33271D01*
X41145Y33264D01*
X41155Y33258D01*
X41156Y33256D01*
X41019Y33946D01*
X39995D01*
Y34246D01*
X41269D01*
X41517Y32931D01*
D02*
G37*
G36*
X42981Y34322D02*
X43042Y34316D01*
X43101Y34309D01*
X43158Y34300D01*
X43212Y34288D01*
X43264Y34274D01*
X43312Y34261D01*
X43356Y34246D01*
X43395Y34231D01*
X43432Y34218D01*
X43463Y34205D01*
X43489Y34192D01*
X43512Y34183D01*
X43526Y34176D01*
X43536Y34170D01*
X43539Y34168D01*
X43591Y34137D01*
X43639Y34104D01*
X43683Y34068D01*
X43726Y34031D01*
X43765Y33994D01*
X43800Y33957D01*
X43833Y33918D01*
X43861Y33883D01*
X43887Y33850D01*
X43911Y33817D01*
X43930Y33789D01*
X43946Y33765D01*
X43957Y33743D01*
X43967Y33728D01*
X43972Y33719D01*
X43974Y33715D01*
X44000Y33658D01*
X44024Y33600D01*
X44044Y33541D01*
X44061Y33482D01*
X44076Y33423D01*
X44089Y33364D01*
X44098Y33308D01*
X44107Y33256D01*
X44113Y33206D01*
X44118Y33160D01*
X44120Y33119D01*
X44124Y33084D01*
Y33056D01*
X44126Y33045D01*
Y33036D01*
Y33029D01*
Y33023D01*
Y33019D01*
Y33018D01*
X44124Y32949D01*
X44120Y32882D01*
X44113Y32818D01*
X44105Y32757D01*
X44094Y32696D01*
X44083Y32640D01*
X44070Y32587D01*
X44057Y32537D01*
X44046Y32492D01*
X44033Y32452D01*
X44022Y32416D01*
X44011Y32387D01*
X44004Y32363D01*
X43996Y32346D01*
X43992Y32335D01*
X43991Y32333D01*
Y32331D01*
X43965Y32274D01*
X43935Y32218D01*
X43904Y32168D01*
X43872Y32120D01*
X43839Y32078D01*
X43806Y32037D01*
X43774Y32002D01*
X43743Y31969D01*
X43713Y31939D01*
X43685Y31915D01*
X43661Y31893D01*
X43639Y31876D01*
X43621Y31863D01*
X43608Y31852D01*
X43600Y31846D01*
X43597Y31845D01*
X43547Y31815D01*
X43493Y31789D01*
X43437Y31767D01*
X43382Y31747D01*
X43326Y31732D01*
X43269Y31717D01*
X43215Y31706D01*
X43162Y31697D01*
X43114Y31691D01*
X43067Y31686D01*
X43027Y31682D01*
X42992Y31678D01*
X42964D01*
X42951Y31676D01*
X42923D01*
X42849Y31678D01*
X42779Y31686D01*
X42712Y31697D01*
X42647Y31710D01*
X42588Y31726D01*
X42533Y31745D01*
X42481Y31765D01*
X42435Y31786D01*
X42392Y31806D01*
X42355Y31826D01*
X42322Y31845D01*
X42296Y31861D01*
X42274Y31874D01*
X42259Y31885D01*
X42250Y31893D01*
X42246Y31895D01*
X42196Y31939D01*
X42150Y31985D01*
X42107Y32035D01*
X42068Y32087D01*
X42033Y32141D01*
X42002Y32193D01*
X41974Y32244D01*
X41950Y32296D01*
X41928Y32344D01*
X41909Y32389D01*
X41895Y32427D01*
X41882Y32463D01*
X41872Y32490D01*
X41869Y32503D01*
X41867Y32513D01*
X41865Y32520D01*
X41863Y32526D01*
X41861Y32529D01*
Y32531D01*
X42200Y32616D01*
X42215Y32557D01*
X42231Y32503D01*
X42250Y32452D01*
X42272Y32405D01*
X42292Y32361D01*
X42316Y32320D01*
X42338Y32285D01*
X42361Y32252D01*
X42381Y32224D01*
X42401Y32198D01*
X42420Y32178D01*
X42437Y32161D01*
X42450Y32146D01*
X42459Y32137D01*
X42466Y32131D01*
X42468Y32130D01*
X42507Y32102D01*
X42546Y32076D01*
X42586Y32054D01*
X42627Y32035D01*
X42668Y32020D01*
X42709Y32008D01*
X42747Y31996D01*
X42784Y31987D01*
X42818Y31980D01*
X42851Y31976D01*
X42879Y31972D01*
X42903Y31969D01*
X42923D01*
X42938Y31967D01*
X42951D01*
X42994Y31969D01*
X43036Y31972D01*
X43077Y31978D01*
X43117Y31985D01*
X43154Y31995D01*
X43191Y32006D01*
X43225Y32015D01*
X43256Y32028D01*
X43284Y32039D01*
X43310Y32048D01*
X43332Y32059D01*
X43350Y32068D01*
X43365Y32076D01*
X43376Y32081D01*
X43384Y32085D01*
X43386Y32087D01*
X43423Y32111D01*
X43456Y32137D01*
X43487Y32165D01*
X43517Y32194D01*
X43543Y32224D01*
X43567Y32255D01*
X43589Y32285D01*
X43609Y32313D01*
X43626Y32340D01*
X43641Y32366D01*
X43654Y32390D01*
X43663Y32411D01*
X43672Y32427D01*
X43678Y32438D01*
X43680Y32448D01*
X43682Y32450D01*
X43698Y32496D01*
X43713Y32544D01*
X43726Y32592D01*
X43735Y32642D01*
X43754Y32736D01*
X43759Y32783D01*
X43765Y32827D01*
X43769Y32866D01*
X43770Y32903D01*
X43772Y32936D01*
X43774Y32964D01*
X43776Y32988D01*
Y33005D01*
Y33016D01*
Y33019D01*
X43774Y33068D01*
X43772Y33114D01*
X43763Y33203D01*
X43758Y33245D01*
X43750Y33286D01*
X43743Y33325D01*
X43735Y33360D01*
X43728Y33393D01*
X43722Y33423D01*
X43715Y33449D01*
X43709Y33471D01*
X43704Y33487D01*
X43700Y33500D01*
X43696Y33510D01*
Y33511D01*
X43680Y33556D01*
X43661Y33597D01*
X43641Y33636D01*
X43619Y33671D01*
X43597Y33706D01*
X43574Y33737D01*
X43550Y33765D01*
X43528Y33791D01*
X43506Y33813D01*
X43486Y33833D01*
X43467Y33850D01*
X43450Y33865D01*
X43437Y33876D01*
X43428Y33885D01*
X43421Y33889D01*
X43419Y33891D01*
X43380Y33917D01*
X43339Y33937D01*
X43299Y33957D01*
X43258Y33974D01*
X43215Y33987D01*
X43175Y33998D01*
X43136Y34007D01*
X43097Y34015D01*
X43062Y34022D01*
X43029Y34026D01*
X42999Y34029D01*
X42973Y34031D01*
X42953Y34033D01*
X42925D01*
X42877Y34031D01*
X42832Y34028D01*
X42790Y34022D01*
X42749Y34013D01*
X42712Y34004D01*
X42677Y33992D01*
X42646Y33981D01*
X42616Y33970D01*
X42590Y33957D01*
X42566Y33946D01*
X42546Y33935D01*
X42529Y33926D01*
X42516Y33917D01*
X42507Y33911D01*
X42501Y33907D01*
X42500Y33906D01*
X42468Y33880D01*
X42439Y33852D01*
X42412Y33821D01*
X42387Y33789D01*
X42363Y33754D01*
X42342Y33721D01*
X42322Y33687D01*
X42305Y33654D01*
X42290Y33623D01*
X42276Y33593D01*
X42265Y33567D01*
X42255Y33545D01*
X42248Y33525D01*
X42242Y33511D01*
X42241Y33502D01*
X42239Y33499D01*
X41906Y33576D01*
X41926Y33641D01*
X41952Y33702D01*
X41978Y33759D01*
X42007Y33813D01*
X42037Y33861D01*
X42067Y33907D01*
X42098Y33948D01*
X42128Y33985D01*
X42157Y34018D01*
X42183Y34046D01*
X42207Y34072D01*
X42229Y34091D01*
X42246Y34107D01*
X42261Y34118D01*
X42268Y34126D01*
X42272Y34128D01*
X42322Y34163D01*
X42374Y34192D01*
X42429Y34218D01*
X42483Y34240D01*
X42537Y34261D01*
X42590Y34276D01*
X42642Y34288D01*
X42692Y34300D01*
X42740Y34307D01*
X42783Y34313D01*
X42819Y34318D01*
X42853Y34320D01*
X42881Y34322D01*
X42892Y34324D01*
X42918D01*
X42981Y34322D01*
D02*
G37*
G36*
X18966Y24322D02*
X19027Y24316D01*
X19086Y24309D01*
X19143Y24300D01*
X19197Y24288D01*
X19249Y24274D01*
X19297Y24261D01*
X19341Y24246D01*
X19380Y24231D01*
X19417Y24218D01*
X19449Y24205D01*
X19474Y24192D01*
X19497Y24183D01*
X19511Y24176D01*
X19521Y24170D01*
X19524Y24168D01*
X19576Y24137D01*
X19624Y24103D01*
X19669Y24068D01*
X19711Y24031D01*
X19750Y23994D01*
X19785Y23957D01*
X19818Y23919D01*
X19846Y23883D01*
X19872Y23850D01*
X19896Y23817D01*
X19915Y23789D01*
X19931Y23765D01*
X19942Y23743D01*
X19952Y23728D01*
X19957Y23719D01*
X19959Y23715D01*
X19985Y23658D01*
X20009Y23600D01*
X20029Y23541D01*
X20046Y23482D01*
X20061Y23423D01*
X20074Y23363D01*
X20083Y23308D01*
X20092Y23256D01*
X20098Y23206D01*
X20103Y23160D01*
X20105Y23119D01*
X20109Y23084D01*
Y23056D01*
X20111Y23045D01*
Y23036D01*
Y23029D01*
Y23023D01*
Y23019D01*
Y23018D01*
X20109Y22949D01*
X20105Y22883D01*
X20098Y22818D01*
X20090Y22757D01*
X20079Y22696D01*
X20068Y22640D01*
X20055Y22587D01*
X20042Y22537D01*
X20031Y22492D01*
X20018Y22452D01*
X20007Y22416D01*
X19996Y22387D01*
X19989Y22363D01*
X19981Y22346D01*
X19978Y22335D01*
X19976Y22333D01*
Y22331D01*
X19950Y22274D01*
X19920Y22218D01*
X19889Y22168D01*
X19857Y22120D01*
X19824Y22078D01*
X19791Y22037D01*
X19759Y22002D01*
X19728Y21969D01*
X19698Y21939D01*
X19671Y21915D01*
X19647Y21893D01*
X19624Y21876D01*
X19606Y21863D01*
X19593Y21852D01*
X19586Y21847D01*
X19582Y21845D01*
X19532Y21815D01*
X19478Y21789D01*
X19423Y21767D01*
X19367Y21747D01*
X19312Y21732D01*
X19254Y21717D01*
X19201Y21706D01*
X19147Y21697D01*
X19099Y21691D01*
X19053Y21686D01*
X19012Y21682D01*
X18977Y21678D01*
X18949D01*
X18936Y21676D01*
X18908D01*
X18834Y21678D01*
X18764Y21686D01*
X18698Y21697D01*
X18633Y21710D01*
X18574Y21726D01*
X18518Y21745D01*
X18466Y21765D01*
X18420Y21786D01*
X18377Y21806D01*
X18340Y21826D01*
X18307Y21845D01*
X18281Y21861D01*
X18259Y21874D01*
X18244Y21885D01*
X18235Y21893D01*
X18231Y21895D01*
X18181Y21939D01*
X18135Y21985D01*
X18092Y22035D01*
X18054Y22087D01*
X18019Y22141D01*
X17987Y22193D01*
X17959Y22244D01*
X17935Y22296D01*
X17913Y22344D01*
X17895Y22389D01*
X17880Y22427D01*
X17867Y22463D01*
X17858Y22490D01*
X17854Y22503D01*
X17852Y22512D01*
X17850Y22520D01*
X17848Y22525D01*
X17846Y22529D01*
Y22531D01*
X18185Y22616D01*
X18200Y22557D01*
X18216Y22503D01*
X18235Y22452D01*
X18257Y22405D01*
X18278Y22361D01*
X18302Y22320D01*
X18324Y22285D01*
X18346Y22252D01*
X18366Y22224D01*
X18387Y22198D01*
X18405Y22178D01*
X18422Y22161D01*
X18435Y22146D01*
X18444Y22137D01*
X18451Y22131D01*
X18453Y22130D01*
X18492Y22102D01*
X18531Y22076D01*
X18572Y22054D01*
X18612Y22035D01*
X18653Y22020D01*
X18694Y22007D01*
X18733Y21996D01*
X18770Y21987D01*
X18803Y21980D01*
X18836Y21976D01*
X18864Y21972D01*
X18888Y21969D01*
X18908D01*
X18923Y21967D01*
X18936D01*
X18979Y21969D01*
X19021Y21972D01*
X19062Y21978D01*
X19103Y21985D01*
X19140Y21994D01*
X19177Y22006D01*
X19210Y22015D01*
X19241Y22028D01*
X19269Y22039D01*
X19295Y22048D01*
X19317Y22059D01*
X19336Y22069D01*
X19351Y22076D01*
X19362Y22082D01*
X19369Y22085D01*
X19371Y22087D01*
X19408Y22111D01*
X19441Y22137D01*
X19473Y22165D01*
X19502Y22194D01*
X19528Y22224D01*
X19552Y22255D01*
X19574Y22285D01*
X19595Y22313D01*
X19611Y22341D01*
X19626Y22366D01*
X19639Y22390D01*
X19648Y22411D01*
X19658Y22427D01*
X19663Y22438D01*
X19665Y22448D01*
X19667Y22450D01*
X19683Y22496D01*
X19698Y22544D01*
X19711Y22592D01*
X19721Y22642D01*
X19739Y22736D01*
X19745Y22783D01*
X19750Y22827D01*
X19754Y22866D01*
X19756Y22903D01*
X19758Y22936D01*
X19759Y22964D01*
X19761Y22988D01*
Y23005D01*
Y23016D01*
Y23019D01*
X19759Y23067D01*
X19758Y23114D01*
X19748Y23203D01*
X19743Y23245D01*
X19735Y23286D01*
X19728Y23325D01*
X19721Y23360D01*
X19713Y23393D01*
X19708Y23423D01*
X19700Y23449D01*
X19695Y23471D01*
X19689Y23487D01*
X19685Y23500D01*
X19682Y23510D01*
Y23512D01*
X19665Y23556D01*
X19647Y23597D01*
X19626Y23636D01*
X19604Y23671D01*
X19582Y23706D01*
X19559Y23737D01*
X19535Y23765D01*
X19513Y23791D01*
X19491Y23813D01*
X19471Y23833D01*
X19452Y23850D01*
X19436Y23865D01*
X19423Y23876D01*
X19413Y23885D01*
X19406Y23889D01*
X19404Y23891D01*
X19365Y23917D01*
X19325Y23937D01*
X19284Y23957D01*
X19243Y23974D01*
X19201Y23987D01*
X19160Y23998D01*
X19121Y24007D01*
X19082Y24015D01*
X19047Y24022D01*
X19014Y24026D01*
X18984Y24029D01*
X18958Y24031D01*
X18938Y24033D01*
X18910D01*
X18862Y24031D01*
X18818Y24028D01*
X18775Y24022D01*
X18734Y24013D01*
X18698Y24004D01*
X18662Y23992D01*
X18631Y23981D01*
X18601Y23970D01*
X18575Y23957D01*
X18551Y23946D01*
X18531Y23935D01*
X18514Y23926D01*
X18501Y23917D01*
X18492Y23911D01*
X18486Y23907D01*
X18485Y23906D01*
X18453Y23880D01*
X18424Y23852D01*
X18398Y23821D01*
X18372Y23789D01*
X18348Y23754D01*
X18327Y23721D01*
X18307Y23687D01*
X18291Y23654D01*
X18276Y23622D01*
X18261Y23593D01*
X18250Y23567D01*
X18240Y23545D01*
X18233Y23525D01*
X18227Y23512D01*
X18226Y23502D01*
X18224Y23499D01*
X17891Y23576D01*
X17911Y23641D01*
X17937Y23702D01*
X17963Y23759D01*
X17993Y23813D01*
X18022Y23861D01*
X18052Y23907D01*
X18083Y23948D01*
X18113Y23985D01*
X18142Y24018D01*
X18168Y24046D01*
X18192Y24072D01*
X18215Y24091D01*
X18231Y24107D01*
X18246Y24118D01*
X18253Y24126D01*
X18257Y24128D01*
X18307Y24163D01*
X18359Y24192D01*
X18414Y24218D01*
X18468Y24240D01*
X18522Y24261D01*
X18575Y24276D01*
X18627Y24288D01*
X18677Y24300D01*
X18725Y24307D01*
X18768Y24313D01*
X18805Y24318D01*
X18838Y24320D01*
X18866Y24322D01*
X18877Y24324D01*
X18903D01*
X18966Y24322D01*
D02*
G37*
G36*
X17660Y22620D02*
Y22331D01*
X16550D01*
Y21719D01*
X16235D01*
Y22331D01*
X15889D01*
Y22620D01*
X16235D01*
Y24279D01*
X16492D01*
X17660Y22620D01*
D02*
G37*
G36*
X16815Y21289D02*
X16869Y21283D01*
X16920Y21274D01*
X16969Y21263D01*
X17013Y21250D01*
X17054Y21235D01*
X17093Y21220D01*
X17128Y21203D01*
X17159Y21187D01*
X17187Y21172D01*
X17211Y21157D01*
X17231Y21144D01*
X17248Y21133D01*
X17259Y21124D01*
X17266Y21118D01*
X17268Y21116D01*
X17305Y21083D01*
X17339Y21046D01*
X17368Y21007D01*
X17394Y20967D01*
X17418Y20926D01*
X17440Y20885D01*
X17459Y20844D01*
X17476Y20806D01*
X17489Y20769D01*
X17500Y20735D01*
X17509Y20706D01*
X17516Y20678D01*
X17522Y20656D01*
X17526Y20641D01*
X17529Y20630D01*
Y20628D01*
Y20626D01*
X17215Y20571D01*
X17207Y20613D01*
X17198Y20652D01*
X17189Y20687D01*
X17176Y20721D01*
X17165Y20752D01*
X17150Y20780D01*
X17137Y20806D01*
X17124Y20830D01*
X17111Y20848D01*
X17100Y20867D01*
X17089Y20881D01*
X17080Y20893D01*
X17070Y20902D01*
X17065Y20909D01*
X17061Y20913D01*
X17059Y20915D01*
X17035Y20935D01*
X17011Y20954D01*
X16985Y20968D01*
X16959Y20981D01*
X16933Y20994D01*
X16909Y21004D01*
X16861Y21017D01*
X16839Y21022D01*
X16819Y21026D01*
X16800Y21028D01*
X16784Y21030D01*
X16772Y21031D01*
X16754D01*
X16721Y21030D01*
X16687Y21026D01*
X16658Y21020D01*
X16628Y21013D01*
X16602Y21005D01*
X16576Y20994D01*
X16554Y20985D01*
X16534Y20974D01*
X16515Y20963D01*
X16499Y20954D01*
X16486Y20943D01*
X16473Y20935D01*
X16464Y20928D01*
X16458Y20922D01*
X16454Y20919D01*
X16453Y20917D01*
X16432Y20895D01*
X16414Y20872D01*
X16397Y20848D01*
X16384Y20824D01*
X16373Y20800D01*
X16364Y20776D01*
X16349Y20732D01*
X16343Y20711D01*
X16340Y20693D01*
X16338Y20674D01*
X16336Y20661D01*
X16334Y20648D01*
Y20639D01*
Y20634D01*
Y20632D01*
X16336Y20593D01*
X16341Y20556D01*
X16349Y20521D01*
X16360Y20489D01*
X16371Y20460D01*
X16384Y20434D01*
X16399Y20410D01*
X16414Y20388D01*
X16430Y20369D01*
X16443Y20352D01*
X16458Y20339D01*
X16469Y20328D01*
X16480Y20319D01*
X16488Y20314D01*
X16493Y20310D01*
X16495Y20308D01*
X16525Y20290D01*
X16556Y20275D01*
X16588Y20260D01*
X16619Y20249D01*
X16680Y20230D01*
X16708Y20223D01*
X16736Y20217D01*
X16761Y20214D01*
X16784Y20210D01*
X16804Y20208D01*
X16823Y20206D01*
X16835Y20204D01*
X16871D01*
X16887Y20206D01*
X16895D01*
X16900Y20208D01*
X16906D01*
X16941Y19932D01*
X16893Y19944D01*
X16850Y19951D01*
X16813Y19958D01*
X16780Y19962D01*
X16754Y19964D01*
X16736Y19966D01*
X16719D01*
X16678Y19964D01*
X16641Y19960D01*
X16604Y19953D01*
X16571Y19944D01*
X16539Y19932D01*
X16510Y19921D01*
X16482Y19908D01*
X16458Y19895D01*
X16436Y19883D01*
X16416Y19870D01*
X16399Y19859D01*
X16386Y19847D01*
X16375Y19838D01*
X16365Y19831D01*
X16362Y19827D01*
X16360Y19825D01*
X16334Y19797D01*
X16314Y19770D01*
X16293Y19740D01*
X16277Y19711D01*
X16264Y19681D01*
X16253Y19651D01*
X16243Y19622D01*
X16236Y19594D01*
X16229Y19568D01*
X16225Y19544D01*
X16221Y19522D01*
X16219Y19505D01*
X16217Y19489D01*
Y19477D01*
Y19470D01*
Y19468D01*
X16219Y19427D01*
X16225Y19387D01*
X16232Y19350D01*
X16242Y19315D01*
X16253Y19279D01*
X16266Y19250D01*
X16280Y19220D01*
X16293Y19194D01*
X16308Y19170D01*
X16323Y19150D01*
X16336Y19131D01*
X16347Y19117D01*
X16356Y19104D01*
X16364Y19096D01*
X16369Y19091D01*
X16371Y19089D01*
X16401Y19061D01*
X16430Y19039D01*
X16462Y19019D01*
X16493Y19000D01*
X16525Y18985D01*
X16556Y18972D01*
X16588Y18963D01*
X16615Y18954D01*
X16643Y18948D01*
X16667Y18943D01*
X16689Y18941D01*
X16710Y18937D01*
X16724D01*
X16737Y18935D01*
X16747D01*
X16782Y18937D01*
X16813Y18941D01*
X16845Y18946D01*
X16874Y18954D01*
X16902Y18963D01*
X16928Y18972D01*
X16952Y18983D01*
X16974Y18994D01*
X16995Y19004D01*
X17011Y19015D01*
X17028Y19024D01*
X17039Y19033D01*
X17050Y19041D01*
X17057Y19046D01*
X17061Y19050D01*
X17063Y19052D01*
X17087Y19076D01*
X17107Y19102D01*
X17128Y19131D01*
X17146Y19163D01*
X17178Y19226D01*
X17204Y19290D01*
X17213Y19320D01*
X17222Y19348D01*
X17230Y19372D01*
X17235Y19394D01*
X17241Y19413D01*
X17244Y19427D01*
X17246Y19435D01*
Y19439D01*
X17561Y19396D01*
X17553Y19337D01*
X17542Y19281D01*
X17526Y19229D01*
X17509Y19180D01*
X17489Y19133D01*
X17468Y19091D01*
X17446Y19050D01*
X17424Y19015D01*
X17402Y18983D01*
X17381Y18956D01*
X17361Y18932D01*
X17344Y18911D01*
X17329Y18895D01*
X17318Y18883D01*
X17311Y18876D01*
X17309Y18874D01*
X17266Y18839D01*
X17220Y18808D01*
X17174Y18782D01*
X17128Y18760D01*
X17080Y18739D01*
X17033Y18723D01*
X16987Y18710D01*
X16945Y18700D01*
X16904Y18691D01*
X16867Y18686D01*
X16834Y18680D01*
X16804Y18678D01*
X16782Y18676D01*
X16763Y18675D01*
X16748D01*
X16680Y18676D01*
X16615Y18684D01*
X16552Y18697D01*
X16495Y18711D01*
X16440Y18728D01*
X16390Y18748D01*
X16341Y18769D01*
X16299Y18791D01*
X16262Y18813D01*
X16227Y18834D01*
X16199Y18854D01*
X16175Y18871D01*
X16155Y18885D01*
X16142Y18898D01*
X16134Y18906D01*
X16131Y18908D01*
X16088Y18952D01*
X16049Y18998D01*
X16016Y19046D01*
X15988Y19094D01*
X15964Y19142D01*
X15944Y19191D01*
X15929Y19235D01*
X15916Y19279D01*
X15905Y19320D01*
X15898Y19357D01*
X15892Y19390D01*
X15888Y19420D01*
X15886Y19442D01*
X15885Y19461D01*
Y19472D01*
Y19476D01*
X15886Y19522D01*
X15890Y19564D01*
X15896Y19605D01*
X15905Y19644D01*
X15914Y19681D01*
X15923Y19714D01*
X15936Y19746D01*
X15947Y19775D01*
X15958Y19801D01*
X15970Y19823D01*
X15981Y19842D01*
X15990Y19859D01*
X15999Y19871D01*
X16005Y19881D01*
X16008Y19886D01*
X16010Y19888D01*
X16034Y19918D01*
X16062Y19945D01*
X16090Y19970D01*
X16118Y19992D01*
X16147Y20012D01*
X16177Y20029D01*
X16206Y20045D01*
X16234Y20058D01*
X16260Y20071D01*
X16284Y20080D01*
X16306Y20090D01*
X16327Y20095D01*
X16341Y20101D01*
X16354Y20105D01*
X16362Y20106D01*
X16364D01*
X16332Y20121D01*
X16303Y20138D01*
X16275Y20156D01*
X16249Y20173D01*
X16225Y20191D01*
X16205Y20210D01*
X16184Y20227D01*
X16168Y20243D01*
X16151Y20260D01*
X16138Y20275D01*
X16127Y20288D01*
X16118Y20299D01*
X16110Y20308D01*
X16105Y20315D01*
X16103Y20319D01*
X16101Y20321D01*
X16084Y20347D01*
X16071Y20373D01*
X16058Y20401D01*
X16049Y20426D01*
X16033Y20476D01*
X16021Y20525D01*
X16018Y20545D01*
X16016Y20565D01*
X16012Y20582D01*
Y20597D01*
X16010Y20608D01*
Y20617D01*
Y20622D01*
Y20624D01*
X16012Y20658D01*
X16014Y20689D01*
X16025Y20750D01*
X16040Y20806D01*
X16049Y20830D01*
X16057Y20854D01*
X16066Y20876D01*
X16075Y20895D01*
X16082Y20913D01*
X16090Y20926D01*
X16095Y20939D01*
X16101Y20946D01*
X16103Y20952D01*
X16105Y20954D01*
X16123Y20981D01*
X16143Y21009D01*
X16186Y21057D01*
X16230Y21100D01*
X16275Y21135D01*
X16295Y21150D01*
X16314Y21163D01*
X16330Y21174D01*
X16345Y21183D01*
X16358Y21191D01*
X16367Y21196D01*
X16373Y21198D01*
X16375Y21200D01*
X16408Y21216D01*
X16441Y21229D01*
X16475Y21242D01*
X16510Y21251D01*
X16575Y21268D01*
X16604Y21274D01*
X16634Y21279D01*
X16660Y21283D01*
X16684Y21285D01*
X16706Y21289D01*
X16724D01*
X16739Y21290D01*
X16760D01*
X16815Y21289D01*
D02*
G37*
G36*
X18970Y21324D02*
X19031Y21318D01*
X19091Y21311D01*
X19148Y21302D01*
X19202Y21290D01*
X19253Y21276D01*
X19301Y21263D01*
X19346Y21248D01*
X19385Y21233D01*
X19422Y21220D01*
X19453Y21207D01*
X19479Y21194D01*
X19501Y21185D01*
X19516Y21178D01*
X19525Y21172D01*
X19529Y21170D01*
X19581Y21139D01*
X19629Y21105D01*
X19673Y21070D01*
X19716Y21033D01*
X19755Y20996D01*
X19790Y20959D01*
X19823Y20920D01*
X19851Y20885D01*
X19877Y20852D01*
X19901Y20819D01*
X19919Y20791D01*
X19936Y20767D01*
X19947Y20745D01*
X19956Y20730D01*
X19962Y20721D01*
X19964Y20717D01*
X19990Y20660D01*
X20014Y20602D01*
X20034Y20543D01*
X20051Y20484D01*
X20065Y20425D01*
X20078Y20365D01*
X20088Y20310D01*
X20097Y20258D01*
X20102Y20208D01*
X20108Y20162D01*
X20110Y20121D01*
X20114Y20086D01*
Y20058D01*
X20116Y20047D01*
Y20038D01*
Y20030D01*
Y20025D01*
Y20021D01*
Y20019D01*
X20114Y19951D01*
X20110Y19884D01*
X20102Y19820D01*
X20095Y19759D01*
X20084Y19697D01*
X20073Y19642D01*
X20060Y19588D01*
X20047Y19538D01*
X20036Y19494D01*
X20023Y19453D01*
X20012Y19418D01*
X20001Y19389D01*
X19993Y19365D01*
X19986Y19348D01*
X19982Y19337D01*
X19980Y19335D01*
Y19333D01*
X19954Y19276D01*
X19925Y19220D01*
X19894Y19170D01*
X19862Y19122D01*
X19829Y19080D01*
X19795Y19039D01*
X19764Y19004D01*
X19733Y18970D01*
X19703Y18941D01*
X19675Y18917D01*
X19651Y18895D01*
X19629Y18878D01*
X19610Y18865D01*
X19598Y18854D01*
X19590Y18848D01*
X19586Y18846D01*
X19536Y18817D01*
X19483Y18791D01*
X19427Y18769D01*
X19372Y18748D01*
X19316Y18734D01*
X19259Y18719D01*
X19205Y18708D01*
X19152Y18699D01*
X19104Y18693D01*
X19057Y18687D01*
X19017Y18684D01*
X18981Y18680D01*
X18954D01*
X18941Y18678D01*
X18913D01*
X18839Y18680D01*
X18769Y18687D01*
X18702Y18699D01*
X18637Y18711D01*
X18578Y18728D01*
X18523Y18747D01*
X18471Y18767D01*
X18425Y18787D01*
X18382Y18808D01*
X18345Y18828D01*
X18312Y18846D01*
X18286Y18863D01*
X18264Y18876D01*
X18249Y18887D01*
X18240Y18895D01*
X18236Y18896D01*
X18186Y18941D01*
X18140Y18987D01*
X18097Y19037D01*
X18058Y19089D01*
X18023Y19142D01*
X17992Y19194D01*
X17964Y19246D01*
X17940Y19298D01*
X17918Y19346D01*
X17899Y19390D01*
X17884Y19429D01*
X17871Y19464D01*
X17862Y19492D01*
X17858Y19505D01*
X17857Y19514D01*
X17855Y19522D01*
X17853Y19527D01*
X17851Y19531D01*
Y19533D01*
X18190Y19618D01*
X18204Y19559D01*
X18221Y19505D01*
X18240Y19453D01*
X18262Y19407D01*
X18282Y19363D01*
X18306Y19322D01*
X18328Y19287D01*
X18351Y19253D01*
X18371Y19226D01*
X18391Y19200D01*
X18410Y19180D01*
X18426Y19163D01*
X18439Y19148D01*
X18449Y19139D01*
X18456Y19133D01*
X18458Y19131D01*
X18497Y19104D01*
X18536Y19078D01*
X18576Y19056D01*
X18617Y19037D01*
X18658Y19022D01*
X18698Y19009D01*
X18737Y18998D01*
X18774Y18989D01*
X18808Y18982D01*
X18841Y18978D01*
X18869Y18974D01*
X18893Y18970D01*
X18913D01*
X18928Y18969D01*
X18941D01*
X18983Y18970D01*
X19026Y18974D01*
X19067Y18980D01*
X19107Y18987D01*
X19144Y18996D01*
X19181Y19007D01*
X19215Y19017D01*
X19246Y19030D01*
X19274Y19041D01*
X19300Y19050D01*
X19322Y19061D01*
X19340Y19070D01*
X19355Y19078D01*
X19366Y19083D01*
X19374Y19087D01*
X19376Y19089D01*
X19412Y19113D01*
X19446Y19139D01*
X19477Y19167D01*
X19507Y19196D01*
X19533Y19226D01*
X19557Y19257D01*
X19579Y19287D01*
X19599Y19315D01*
X19616Y19342D01*
X19631Y19368D01*
X19644Y19392D01*
X19653Y19413D01*
X19662Y19429D01*
X19668Y19440D01*
X19670Y19450D01*
X19671Y19452D01*
X19688Y19498D01*
X19703Y19546D01*
X19716Y19594D01*
X19725Y19644D01*
X19744Y19738D01*
X19749Y19784D01*
X19755Y19829D01*
X19758Y19868D01*
X19760Y19905D01*
X19762Y19938D01*
X19764Y19966D01*
X19766Y19990D01*
Y20007D01*
Y20018D01*
Y20021D01*
X19764Y20069D01*
X19762Y20116D01*
X19753Y20204D01*
X19747Y20247D01*
X19740Y20288D01*
X19733Y20326D01*
X19725Y20362D01*
X19718Y20395D01*
X19712Y20425D01*
X19705Y20450D01*
X19699Y20473D01*
X19694Y20489D01*
X19690Y20502D01*
X19686Y20512D01*
Y20513D01*
X19670Y20558D01*
X19651Y20598D01*
X19631Y20637D01*
X19609Y20673D01*
X19586Y20708D01*
X19564Y20739D01*
X19540Y20767D01*
X19518Y20793D01*
X19496Y20815D01*
X19475Y20835D01*
X19457Y20852D01*
X19440Y20867D01*
X19427Y20878D01*
X19418Y20887D01*
X19411Y20891D01*
X19409Y20893D01*
X19370Y20919D01*
X19329Y20939D01*
X19288Y20959D01*
X19248Y20976D01*
X19205Y20989D01*
X19165Y21000D01*
X19126Y21009D01*
X19087Y21017D01*
X19052Y21024D01*
X19018Y21028D01*
X18989Y21031D01*
X18963Y21033D01*
X18943Y21035D01*
X18915D01*
X18867Y21033D01*
X18822Y21030D01*
X18780Y21024D01*
X18739Y21015D01*
X18702Y21005D01*
X18667Y20994D01*
X18635Y20983D01*
X18606Y20972D01*
X18580Y20959D01*
X18556Y20948D01*
X18536Y20937D01*
X18519Y20928D01*
X18506Y20919D01*
X18497Y20913D01*
X18491Y20909D01*
X18489Y20907D01*
X18458Y20881D01*
X18428Y20854D01*
X18402Y20822D01*
X18376Y20791D01*
X18352Y20756D01*
X18332Y20722D01*
X18312Y20689D01*
X18295Y20656D01*
X18280Y20624D01*
X18266Y20595D01*
X18254Y20569D01*
X18245Y20547D01*
X18238Y20526D01*
X18232Y20513D01*
X18230Y20504D01*
X18228Y20500D01*
X17896Y20578D01*
X17916Y20643D01*
X17942Y20704D01*
X17968Y20761D01*
X17997Y20815D01*
X18027Y20863D01*
X18056Y20909D01*
X18088Y20950D01*
X18117Y20987D01*
X18147Y21020D01*
X18173Y21048D01*
X18197Y21074D01*
X18219Y21092D01*
X18236Y21109D01*
X18251Y21120D01*
X18258Y21128D01*
X18262Y21129D01*
X18312Y21165D01*
X18363Y21194D01*
X18419Y21220D01*
X18473Y21242D01*
X18526Y21263D01*
X18580Y21277D01*
X18632Y21290D01*
X18682Y21302D01*
X18730Y21309D01*
X18772Y21314D01*
X18809Y21320D01*
X18843Y21322D01*
X18870Y21324D01*
X18881Y21326D01*
X18907D01*
X18970Y21324D01*
D02*
G37*
G36*
X16767Y18287D02*
X16830Y18281D01*
X16889Y18272D01*
X16945Y18259D01*
X16996Y18244D01*
X17044Y18227D01*
X17087Y18211D01*
X17128Y18194D01*
X17163Y18176D01*
X17194Y18159D01*
X17220Y18142D01*
X17242Y18128D01*
X17259Y18116D01*
X17272Y18105D01*
X17279Y18100D01*
X17281Y18098D01*
X17320Y18061D01*
X17353Y18020D01*
X17385Y17978D01*
X17411Y17933D01*
X17435Y17887D01*
X17455Y17841D01*
X17472Y17796D01*
X17487Y17752D01*
X17498Y17711D01*
X17507Y17673D01*
X17514Y17637D01*
X17520Y17608D01*
X17526Y17584D01*
X17527Y17565D01*
Y17558D01*
X17529Y17552D01*
Y17550D01*
Y17549D01*
X17205Y17515D01*
X17204Y17560D01*
X17200Y17600D01*
X17192Y17639D01*
X17185Y17676D01*
X17174Y17709D01*
X17163Y17739D01*
X17150Y17769D01*
X17137Y17793D01*
X17126Y17815D01*
X17113Y17835D01*
X17102Y17852D01*
X17091Y17867D01*
X17083Y17876D01*
X17076Y17885D01*
X17072Y17889D01*
X17070Y17891D01*
X17044Y17915D01*
X17015Y17935D01*
X16985Y17954D01*
X16956Y17970D01*
X16924Y17983D01*
X16895Y17994D01*
X16865Y18004D01*
X16837Y18011D01*
X16809Y18017D01*
X16785Y18020D01*
X16763Y18024D01*
X16743Y18026D01*
X16728Y18028D01*
X16706D01*
X16667Y18026D01*
X16630Y18022D01*
X16595Y18017D01*
X16562Y18007D01*
X16532Y17998D01*
X16502Y17987D01*
X16477Y17976D01*
X16453Y17963D01*
X16432Y17952D01*
X16414Y17939D01*
X16397Y17928D01*
X16384Y17919D01*
X16373Y17909D01*
X16365Y17904D01*
X16362Y17900D01*
X16360Y17898D01*
X16336Y17874D01*
X16316Y17848D01*
X16297Y17822D01*
X16282Y17795D01*
X16269Y17769D01*
X16258Y17743D01*
X16249Y17717D01*
X16242Y17693D01*
X16236Y17671D01*
X16232Y17650D01*
X16229Y17632D01*
X16227Y17615D01*
X16225Y17602D01*
Y17593D01*
Y17585D01*
Y17584D01*
X16227Y17550D01*
X16230Y17517D01*
X16238Y17484D01*
X16247Y17450D01*
X16271Y17386D01*
X16286Y17356D01*
X16299Y17328D01*
X16312Y17302D01*
X16327Y17278D01*
X16338Y17258D01*
X16349Y17240D01*
X16360Y17227D01*
X16367Y17215D01*
X16371Y17208D01*
X16373Y17206D01*
X16402Y17167D01*
X16440Y17125D01*
X16478Y17082D01*
X16523Y17038D01*
X16567Y16992D01*
X16615Y16947D01*
X16661Y16903D01*
X16710Y16860D01*
X16754Y16820D01*
X16797Y16783D01*
X16834Y16748D01*
X16869Y16720D01*
X16896Y16696D01*
X16908Y16686D01*
X16917Y16677D01*
X16924Y16672D01*
X16930Y16666D01*
X16933Y16664D01*
X16935Y16662D01*
X16983Y16622D01*
X17030Y16583D01*
X17072Y16546D01*
X17113Y16511D01*
X17150Y16476D01*
X17183Y16444D01*
X17213Y16414D01*
X17241Y16387D01*
X17266Y16363D01*
X17287Y16341D01*
X17305Y16322D01*
X17320Y16305D01*
X17331Y16292D01*
X17339Y16283D01*
X17344Y16278D01*
X17346Y16276D01*
X17396Y16213D01*
X17438Y16152D01*
X17474Y16094D01*
X17490Y16069D01*
X17503Y16043D01*
X17514Y16020D01*
X17526Y16000D01*
X17535Y15982D01*
X17540Y15965D01*
X17546Y15952D01*
X17549Y15943D01*
X17553Y15937D01*
Y15935D01*
X17566Y15897D01*
X17575Y15858D01*
X17581Y15821D01*
X17585Y15789D01*
X17586Y15760D01*
X17588Y15748D01*
Y15737D01*
Y15730D01*
Y15724D01*
Y15721D01*
Y15719D01*
X15898D01*
Y16020D01*
X17152D01*
X17131Y16052D01*
X17109Y16083D01*
X17087Y16111D01*
X17067Y16137D01*
X17048Y16157D01*
X17033Y16174D01*
X17024Y16185D01*
X17020Y16189D01*
X17004Y16207D01*
X16982Y16228D01*
X16958Y16250D01*
X16930Y16276D01*
X16900Y16302D01*
X16871Y16329D01*
X16808Y16383D01*
X16778Y16409D01*
X16750Y16433D01*
X16726Y16455D01*
X16702Y16474D01*
X16684Y16490D01*
X16671Y16501D01*
X16661Y16511D01*
X16658Y16512D01*
X16597Y16564D01*
X16539Y16614D01*
X16488Y16660D01*
X16440Y16703D01*
X16395Y16744D01*
X16356Y16781D01*
X16319Y16814D01*
X16288Y16844D01*
X16260Y16871D01*
X16238Y16895D01*
X16217Y16916D01*
X16201Y16932D01*
X16188Y16945D01*
X16181Y16955D01*
X16175Y16960D01*
X16173Y16962D01*
X16147Y16994D01*
X16121Y17023D01*
X16099Y17053D01*
X16079Y17081D01*
X16042Y17134D01*
X16027Y17158D01*
X16014Y17180D01*
X16001Y17201D01*
X15992Y17219D01*
X15983Y17236D01*
X15977Y17249D01*
X15971Y17260D01*
X15968Y17267D01*
X15964Y17273D01*
Y17275D01*
X15944Y17330D01*
X15927Y17384D01*
X15916Y17436D01*
X15909Y17482D01*
X15907Y17502D01*
X15905Y17521D01*
X15903Y17536D01*
X15901Y17550D01*
Y17561D01*
Y17569D01*
Y17574D01*
Y17576D01*
X15903Y17632D01*
X15910Y17685D01*
X15922Y17735D01*
X15935Y17784D01*
X15951Y17828D01*
X15970Y17870D01*
X15990Y17909D01*
X16008Y17944D01*
X16029Y17976D01*
X16049Y18004D01*
X16068Y18028D01*
X16084Y18046D01*
X16097Y18063D01*
X16108Y18074D01*
X16116Y18081D01*
X16118Y18083D01*
X16160Y18120D01*
X16205Y18152D01*
X16251Y18178D01*
X16299Y18202D01*
X16347Y18222D01*
X16397Y18239D01*
X16443Y18251D01*
X16489Y18263D01*
X16532Y18272D01*
X16573Y18277D01*
X16608Y18283D01*
X16639Y18285D01*
X16665Y18287D01*
X16684Y18289D01*
X16700D01*
X16767Y18287D01*
D02*
G37*
G36*
X18957Y18322D02*
X19018Y18316D01*
X19078Y18309D01*
X19135Y18300D01*
X19189Y18289D01*
X19240Y18274D01*
X19288Y18261D01*
X19333Y18246D01*
X19372Y18231D01*
X19409Y18218D01*
X19440Y18205D01*
X19466Y18192D01*
X19488Y18183D01*
X19503Y18176D01*
X19512Y18170D01*
X19516Y18168D01*
X19568Y18137D01*
X19616Y18103D01*
X19660Y18068D01*
X19703Y18031D01*
X19742Y17994D01*
X19777Y17957D01*
X19810Y17919D01*
X19838Y17883D01*
X19864Y17850D01*
X19888Y17817D01*
X19906Y17789D01*
X19923Y17765D01*
X19934Y17743D01*
X19943Y17728D01*
X19949Y17719D01*
X19951Y17715D01*
X19977Y17658D01*
X20001Y17600D01*
X20021Y17541D01*
X20038Y17482D01*
X20053Y17423D01*
X20065Y17364D01*
X20075Y17308D01*
X20084Y17256D01*
X20090Y17206D01*
X20095Y17160D01*
X20097Y17119D01*
X20101Y17084D01*
Y17056D01*
X20102Y17045D01*
Y17036D01*
Y17029D01*
Y17023D01*
Y17019D01*
Y17018D01*
X20101Y16949D01*
X20097Y16883D01*
X20090Y16818D01*
X20082Y16757D01*
X20071Y16696D01*
X20060Y16640D01*
X20047Y16587D01*
X20034Y16537D01*
X20023Y16492D01*
X20010Y16452D01*
X19999Y16416D01*
X19988Y16387D01*
X19980Y16363D01*
X19973Y16346D01*
X19969Y16335D01*
X19967Y16333D01*
Y16331D01*
X19942Y16274D01*
X19912Y16218D01*
X19881Y16168D01*
X19849Y16120D01*
X19816Y16078D01*
X19782Y16037D01*
X19751Y16002D01*
X19720Y15969D01*
X19690Y15939D01*
X19662Y15915D01*
X19638Y15893D01*
X19616Y15876D01*
X19598Y15863D01*
X19584Y15852D01*
X19577Y15846D01*
X19573Y15845D01*
X19523Y15815D01*
X19470Y15789D01*
X19414Y15767D01*
X19359Y15747D01*
X19303Y15732D01*
X19246Y15717D01*
X19192Y15706D01*
X19139Y15697D01*
X19091Y15691D01*
X19044Y15686D01*
X19004Y15682D01*
X18969Y15678D01*
X18941D01*
X18928Y15676D01*
X18900D01*
X18826Y15678D01*
X18756Y15686D01*
X18689Y15697D01*
X18624Y15710D01*
X18565Y15726D01*
X18510Y15745D01*
X18458Y15765D01*
X18412Y15786D01*
X18369Y15806D01*
X18332Y15826D01*
X18299Y15845D01*
X18273Y15861D01*
X18251Y15874D01*
X18236Y15885D01*
X18227Y15893D01*
X18223Y15895D01*
X18173Y15939D01*
X18127Y15985D01*
X18084Y16035D01*
X18045Y16087D01*
X18010Y16141D01*
X17979Y16193D01*
X17951Y16244D01*
X17927Y16296D01*
X17905Y16344D01*
X17886Y16389D01*
X17871Y16427D01*
X17858Y16463D01*
X17849Y16490D01*
X17845Y16503D01*
X17844Y16512D01*
X17842Y16520D01*
X17840Y16525D01*
X17838Y16529D01*
Y16531D01*
X18177Y16616D01*
X18192Y16557D01*
X18208Y16503D01*
X18227Y16452D01*
X18249Y16405D01*
X18269Y16361D01*
X18293Y16320D01*
X18315Y16285D01*
X18338Y16252D01*
X18358Y16224D01*
X18378Y16198D01*
X18397Y16178D01*
X18414Y16161D01*
X18426Y16146D01*
X18436Y16137D01*
X18443Y16131D01*
X18445Y16130D01*
X18484Y16102D01*
X18523Y16076D01*
X18563Y16054D01*
X18604Y16035D01*
X18645Y16020D01*
X18685Y16007D01*
X18724Y15996D01*
X18761Y15987D01*
X18795Y15980D01*
X18828Y15976D01*
X18856Y15972D01*
X18880Y15969D01*
X18900D01*
X18915Y15967D01*
X18928D01*
X18970Y15969D01*
X19013Y15972D01*
X19054Y15978D01*
X19094Y15985D01*
X19131Y15994D01*
X19168Y16006D01*
X19202Y16015D01*
X19233Y16028D01*
X19261Y16039D01*
X19287Y16048D01*
X19309Y16059D01*
X19327Y16069D01*
X19342Y16076D01*
X19353Y16082D01*
X19361Y16085D01*
X19363Y16087D01*
X19399Y16111D01*
X19433Y16137D01*
X19464Y16165D01*
X19494Y16194D01*
X19520Y16224D01*
X19544Y16255D01*
X19566Y16285D01*
X19586Y16313D01*
X19603Y16341D01*
X19618Y16366D01*
X19631Y16390D01*
X19640Y16411D01*
X19649Y16427D01*
X19655Y16439D01*
X19657Y16448D01*
X19658Y16450D01*
X19675Y16496D01*
X19690Y16544D01*
X19703Y16592D01*
X19712Y16642D01*
X19731Y16736D01*
X19736Y16783D01*
X19742Y16827D01*
X19746Y16866D01*
X19747Y16903D01*
X19749Y16936D01*
X19751Y16964D01*
X19753Y16988D01*
Y17005D01*
Y17016D01*
Y17019D01*
X19751Y17067D01*
X19749Y17114D01*
X19740Y17203D01*
X19734Y17245D01*
X19727Y17286D01*
X19720Y17325D01*
X19712Y17360D01*
X19705Y17393D01*
X19699Y17423D01*
X19692Y17449D01*
X19686Y17471D01*
X19681Y17488D01*
X19677Y17500D01*
X19673Y17510D01*
Y17512D01*
X19657Y17556D01*
X19638Y17597D01*
X19618Y17636D01*
X19596Y17671D01*
X19573Y17706D01*
X19551Y17737D01*
X19527Y17765D01*
X19505Y17791D01*
X19483Y17813D01*
X19462Y17833D01*
X19444Y17850D01*
X19427Y17865D01*
X19414Y17876D01*
X19405Y17885D01*
X19398Y17889D01*
X19396Y17891D01*
X19357Y17917D01*
X19316Y17937D01*
X19276Y17957D01*
X19235Y17974D01*
X19192Y17987D01*
X19152Y17998D01*
X19113Y18007D01*
X19074Y18015D01*
X19039Y18022D01*
X19005Y18026D01*
X18976Y18030D01*
X18950Y18031D01*
X18930Y18033D01*
X18902D01*
X18854Y18031D01*
X18809Y18028D01*
X18767Y18022D01*
X18726Y18013D01*
X18689Y18004D01*
X18654Y17992D01*
X18622Y17981D01*
X18593Y17970D01*
X18567Y17957D01*
X18543Y17946D01*
X18523Y17935D01*
X18506Y17926D01*
X18493Y17917D01*
X18484Y17911D01*
X18478Y17907D01*
X18476Y17906D01*
X18445Y17880D01*
X18415Y17852D01*
X18389Y17820D01*
X18363Y17789D01*
X18339Y17754D01*
X18319Y17721D01*
X18299Y17687D01*
X18282Y17654D01*
X18267Y17623D01*
X18252Y17593D01*
X18241Y17567D01*
X18232Y17545D01*
X18225Y17525D01*
X18219Y17512D01*
X18217Y17502D01*
X18215Y17499D01*
X17883Y17576D01*
X17903Y17641D01*
X17929Y17702D01*
X17955Y17759D01*
X17984Y17813D01*
X18014Y17861D01*
X18044Y17907D01*
X18075Y17948D01*
X18104Y17985D01*
X18134Y18018D01*
X18160Y18046D01*
X18184Y18072D01*
X18206Y18091D01*
X18223Y18107D01*
X18238Y18118D01*
X18245Y18126D01*
X18249Y18128D01*
X18299Y18163D01*
X18351Y18192D01*
X18406Y18218D01*
X18460Y18240D01*
X18513Y18261D01*
X18567Y18276D01*
X18619Y18289D01*
X18669Y18300D01*
X18717Y18307D01*
X18759Y18313D01*
X18796Y18318D01*
X18830Y18320D01*
X18857Y18322D01*
X18869Y18324D01*
X18894D01*
X18957Y18322D01*
D02*
G37*
G36*
X16352Y15257D02*
X16370Y15226D01*
X16413Y15165D01*
X16459Y15107D01*
X16483Y15079D01*
X16505Y15054D01*
X16527Y15031D01*
X16548Y15009D01*
X16566Y14991D01*
X16583Y14974D01*
X16596Y14961D01*
X16605Y14952D01*
X16612Y14946D01*
X16614Y14944D01*
X16690Y14882D01*
X16770Y14824D01*
X16848Y14772D01*
X16884Y14750D01*
X16920Y14728D01*
X16951Y14709D01*
X16981Y14693D01*
X17008Y14678D01*
X17031Y14667D01*
X17049Y14658D01*
X17064Y14650D01*
X17071Y14647D01*
X17075Y14645D01*
Y14341D01*
X17019Y14364D01*
X16962Y14389D01*
X16907Y14415D01*
X16855Y14441D01*
X16833Y14454D01*
X16811Y14465D01*
X16792Y14476D01*
X16777Y14486D01*
X16764Y14491D01*
X16753Y14497D01*
X16748Y14500D01*
X16746Y14502D01*
X16679Y14543D01*
X16649Y14563D01*
X16620Y14582D01*
X16594Y14602D01*
X16570Y14619D01*
X16548Y14637D01*
X16526Y14652D01*
X16509Y14667D01*
X16492Y14680D01*
X16477Y14693D01*
X16466Y14702D01*
X16457Y14709D01*
X16452Y14715D01*
X16448Y14719D01*
X16446Y14721D01*
Y12719D01*
X16131D01*
Y15289D01*
X16335D01*
X16352Y15257D01*
D02*
G37*
G36*
X18723Y15322D02*
X18784Y15316D01*
X18844Y15309D01*
X18901Y15300D01*
X18955Y15289D01*
X19006Y15274D01*
X19054Y15261D01*
X19099Y15246D01*
X19138Y15231D01*
X19175Y15218D01*
X19206Y15205D01*
X19232Y15192D01*
X19254Y15183D01*
X19269Y15176D01*
X19278Y15170D01*
X19282Y15168D01*
X19334Y15137D01*
X19382Y15103D01*
X19426Y15068D01*
X19469Y15031D01*
X19508Y14994D01*
X19543Y14957D01*
X19576Y14919D01*
X19604Y14883D01*
X19630Y14850D01*
X19654Y14817D01*
X19672Y14789D01*
X19689Y14765D01*
X19700Y14743D01*
X19709Y14728D01*
X19715Y14719D01*
X19717Y14715D01*
X19743Y14658D01*
X19767Y14600D01*
X19787Y14541D01*
X19804Y14482D01*
X19818Y14423D01*
X19831Y14364D01*
X19841Y14308D01*
X19850Y14256D01*
X19855Y14206D01*
X19861Y14160D01*
X19863Y14119D01*
X19867Y14084D01*
Y14056D01*
X19869Y14045D01*
Y14036D01*
Y14029D01*
Y14023D01*
Y14019D01*
Y14018D01*
X19867Y13949D01*
X19863Y13882D01*
X19855Y13818D01*
X19848Y13757D01*
X19837Y13696D01*
X19826Y13640D01*
X19813Y13587D01*
X19800Y13537D01*
X19789Y13492D01*
X19776Y13452D01*
X19765Y13416D01*
X19754Y13387D01*
X19746Y13363D01*
X19739Y13346D01*
X19735Y13335D01*
X19733Y13333D01*
Y13331D01*
X19708Y13274D01*
X19678Y13218D01*
X19647Y13168D01*
X19615Y13120D01*
X19582Y13078D01*
X19548Y13037D01*
X19517Y13002D01*
X19486Y12969D01*
X19456Y12939D01*
X19428Y12915D01*
X19404Y12893D01*
X19382Y12876D01*
X19364Y12863D01*
X19351Y12852D01*
X19343Y12846D01*
X19339Y12845D01*
X19289Y12815D01*
X19236Y12789D01*
X19180Y12767D01*
X19125Y12747D01*
X19069Y12732D01*
X19012Y12717D01*
X18958Y12706D01*
X18905Y12697D01*
X18857Y12691D01*
X18810Y12686D01*
X18770Y12682D01*
X18734Y12678D01*
X18707D01*
X18694Y12676D01*
X18666D01*
X18592Y12678D01*
X18522Y12686D01*
X18455Y12697D01*
X18390Y12710D01*
X18331Y12726D01*
X18276Y12745D01*
X18224Y12765D01*
X18178Y12786D01*
X18135Y12806D01*
X18098Y12826D01*
X18065Y12845D01*
X18039Y12861D01*
X18017Y12874D01*
X18002Y12885D01*
X17993Y12893D01*
X17989Y12895D01*
X17939Y12939D01*
X17893Y12985D01*
X17850Y13035D01*
X17811Y13087D01*
X17776Y13141D01*
X17745Y13193D01*
X17717Y13244D01*
X17693Y13296D01*
X17671Y13344D01*
X17652Y13389D01*
X17637Y13427D01*
X17624Y13463D01*
X17615Y13490D01*
X17612Y13503D01*
X17610Y13512D01*
X17608Y13520D01*
X17606Y13525D01*
X17604Y13529D01*
Y13531D01*
X17943Y13616D01*
X17957Y13557D01*
X17974Y13503D01*
X17993Y13452D01*
X18015Y13405D01*
X18035Y13361D01*
X18059Y13320D01*
X18081Y13285D01*
X18104Y13252D01*
X18124Y13224D01*
X18144Y13198D01*
X18163Y13178D01*
X18179Y13161D01*
X18192Y13146D01*
X18202Y13137D01*
X18209Y13131D01*
X18211Y13130D01*
X18250Y13102D01*
X18289Y13076D01*
X18329Y13054D01*
X18370Y13035D01*
X18411Y13020D01*
X18451Y13007D01*
X18490Y12996D01*
X18527Y12987D01*
X18561Y12980D01*
X18594Y12976D01*
X18622Y12972D01*
X18646Y12969D01*
X18666D01*
X18681Y12967D01*
X18694D01*
X18736Y12969D01*
X18779Y12972D01*
X18820Y12978D01*
X18860Y12985D01*
X18897Y12994D01*
X18934Y13006D01*
X18968Y13015D01*
X18999Y13028D01*
X19027Y13039D01*
X19053Y13048D01*
X19075Y13059D01*
X19093Y13069D01*
X19108Y13076D01*
X19119Y13081D01*
X19127Y13085D01*
X19128Y13087D01*
X19165Y13111D01*
X19199Y13137D01*
X19230Y13165D01*
X19260Y13194D01*
X19286Y13224D01*
X19310Y13255D01*
X19332Y13285D01*
X19352Y13313D01*
X19369Y13340D01*
X19384Y13366D01*
X19397Y13390D01*
X19406Y13411D01*
X19415Y13427D01*
X19421Y13439D01*
X19423Y13448D01*
X19424Y13450D01*
X19441Y13496D01*
X19456Y13544D01*
X19469Y13592D01*
X19478Y13642D01*
X19497Y13736D01*
X19502Y13783D01*
X19508Y13827D01*
X19511Y13866D01*
X19513Y13903D01*
X19515Y13936D01*
X19517Y13964D01*
X19519Y13988D01*
Y14005D01*
Y14016D01*
Y14019D01*
X19517Y14067D01*
X19515Y14114D01*
X19506Y14203D01*
X19500Y14245D01*
X19493Y14286D01*
X19486Y14325D01*
X19478Y14360D01*
X19471Y14393D01*
X19465Y14423D01*
X19458Y14449D01*
X19452Y14471D01*
X19447Y14488D01*
X19443Y14500D01*
X19439Y14510D01*
Y14512D01*
X19423Y14556D01*
X19404Y14597D01*
X19384Y14636D01*
X19362Y14671D01*
X19339Y14706D01*
X19317Y14737D01*
X19293Y14765D01*
X19271Y14791D01*
X19249Y14813D01*
X19228Y14833D01*
X19210Y14850D01*
X19193Y14865D01*
X19180Y14876D01*
X19171Y14885D01*
X19164Y14889D01*
X19162Y14891D01*
X19123Y14917D01*
X19082Y14937D01*
X19042Y14957D01*
X19001Y14974D01*
X18958Y14987D01*
X18918Y14998D01*
X18879Y15007D01*
X18840Y15015D01*
X18805Y15022D01*
X18771Y15026D01*
X18742Y15030D01*
X18716Y15031D01*
X18696Y15033D01*
X18668D01*
X18620Y15031D01*
X18575Y15028D01*
X18533Y15022D01*
X18492Y15013D01*
X18455Y15004D01*
X18420Y14992D01*
X18388Y14981D01*
X18359Y14970D01*
X18333Y14957D01*
X18309Y14946D01*
X18289Y14935D01*
X18272Y14926D01*
X18259Y14917D01*
X18250Y14911D01*
X18244Y14907D01*
X18242Y14906D01*
X18211Y14880D01*
X18181Y14852D01*
X18155Y14820D01*
X18129Y14789D01*
X18105Y14754D01*
X18085Y14721D01*
X18065Y14687D01*
X18048Y14654D01*
X18033Y14623D01*
X18019Y14593D01*
X18007Y14567D01*
X17998Y14545D01*
X17991Y14525D01*
X17985Y14512D01*
X17983Y14502D01*
X17981Y14499D01*
X17649Y14576D01*
X17669Y14641D01*
X17695Y14702D01*
X17721Y14759D01*
X17750Y14813D01*
X17780Y14861D01*
X17809Y14907D01*
X17841Y14948D01*
X17871Y14985D01*
X17900Y15018D01*
X17926Y15046D01*
X17950Y15072D01*
X17972Y15091D01*
X17989Y15107D01*
X18004Y15118D01*
X18011Y15126D01*
X18015Y15128D01*
X18065Y15163D01*
X18117Y15192D01*
X18172Y15218D01*
X18226Y15240D01*
X18279Y15261D01*
X18333Y15276D01*
X18385Y15289D01*
X18435Y15300D01*
X18483Y15307D01*
X18525Y15313D01*
X18562Y15318D01*
X18596Y15320D01*
X18623Y15322D01*
X18634Y15324D01*
X18661D01*
X18723Y15322D01*
D02*
G37*
%LPC*%
G36*
X45882Y63974D02*
X45186D01*
X45149Y63972D01*
X45114D01*
X45083Y63970D01*
X45053Y63968D01*
X45027Y63967D01*
X45005Y63965D01*
X44985Y63963D01*
X44966Y63959D01*
X44951Y63957D01*
X44938Y63955D01*
X44929Y63954D01*
X44922Y63952D01*
X44916D01*
X44914Y63950D01*
X44912D01*
X44864Y63933D01*
X44822Y63911D01*
X44787Y63885D01*
X44755Y63861D01*
X44731Y63837D01*
X44713Y63817D01*
X44707Y63809D01*
X44702Y63804D01*
X44698Y63800D01*
Y63798D01*
X44683Y63776D01*
X44670Y63754D01*
X44652Y63708D01*
X44637Y63661D01*
X44626Y63619D01*
X44624Y63600D01*
X44620Y63582D01*
X44618Y63565D01*
Y63552D01*
X44617Y63539D01*
Y63532D01*
Y63526D01*
Y63525D01*
X44618Y63484D01*
X44622Y63447D01*
X44629Y63410D01*
X44639Y63376D01*
X44648Y63347D01*
X44661Y63317D01*
X44672Y63293D01*
X44685Y63269D01*
X44698Y63249D01*
X44711Y63230D01*
X44724Y63216D01*
X44733Y63203D01*
X44742Y63193D01*
X44750Y63186D01*
X44753Y63182D01*
X44755Y63180D01*
X44783Y63158D01*
X44815Y63140D01*
X44850Y63123D01*
X44887Y63110D01*
X44925Y63097D01*
X44964Y63088D01*
X45040Y63073D01*
X45077Y63069D01*
X45110Y63066D01*
X45142Y63062D01*
X45168Y63060D01*
X45190Y63058D01*
X45882D01*
Y63974D01*
D02*
G37*
G36*
X28742Y32028D02*
X28733D01*
X28692Y32026D01*
X28653Y32018D01*
X28618Y32009D01*
X28583Y31994D01*
X28550Y31980D01*
X28520Y31961D01*
X28492Y31943D01*
X28466Y31924D01*
X28444Y31904D01*
X28424Y31885D01*
X28407Y31867D01*
X28392Y31852D01*
X28381Y31837D01*
X28374Y31828D01*
X28368Y31820D01*
X28367Y31819D01*
X28354Y31798D01*
X28341Y31774D01*
X28330Y31750D01*
X28318Y31722D01*
X28298Y31665D01*
X28281Y31600D01*
X28267Y31532D01*
X28254Y31462D01*
X28244Y31391D01*
X28237Y31323D01*
X28231Y31254D01*
X28226Y31192D01*
X28222Y31134D01*
Y31106D01*
X28220Y31082D01*
Y31060D01*
X28218Y31040D01*
Y31023D01*
Y31008D01*
Y30997D01*
Y30988D01*
Y30982D01*
Y30981D01*
Y30923D01*
X28220Y30868D01*
X28222Y30814D01*
X28224Y30764D01*
X28228Y30716D01*
X28231Y30670D01*
X28237Y30625D01*
X28241Y30585D01*
X28246Y30544D01*
X28254Y30507D01*
X28259Y30472D01*
X28265Y30439D01*
X28272Y30407D01*
X28280Y30379D01*
X28285Y30352D01*
X28293Y30326D01*
X28306Y30279D01*
X28320Y30242D01*
X28331Y30211D01*
X28343Y30185D01*
X28354Y30167D01*
X28361Y30154D01*
X28365Y30144D01*
X28367Y30143D01*
X28394Y30106D01*
X28424Y30074D01*
X28455Y30046D01*
X28485Y30022D01*
X28516Y30002D01*
X28546Y29985D01*
X28576Y29972D01*
X28603Y29961D01*
X28629Y29952D01*
X28653Y29946D01*
X28675Y29941D01*
X28694Y29939D01*
X28709Y29937D01*
X28720Y29935D01*
X28729D01*
X28768Y29937D01*
X28807Y29945D01*
X28844Y29954D01*
X28877Y29969D01*
X28910Y29983D01*
X28940Y30000D01*
X28968Y30020D01*
X28992Y30039D01*
X29016Y30057D01*
X29034Y30078D01*
X29053Y30094D01*
X29068Y30111D01*
X29079Y30124D01*
X29086Y30133D01*
X29092Y30141D01*
X29094Y30143D01*
X29107Y30163D01*
X29120Y30187D01*
X29131Y30211D01*
X29142Y30239D01*
X29162Y30296D01*
X29179Y30361D01*
X29192Y30429D01*
X29205Y30500D01*
X29214Y30570D01*
X29221Y30640D01*
X29227Y30707D01*
X29232Y30770D01*
X29236Y30829D01*
Y30855D01*
X29238Y30879D01*
Y30901D01*
Y30921D01*
X29240Y30938D01*
Y30953D01*
Y30966D01*
Y30973D01*
Y30979D01*
Y30981D01*
Y31038D01*
X29238Y31093D01*
X29236Y31147D01*
X29232Y31199D01*
X29229Y31247D01*
X29225Y31293D01*
X29219Y31338D01*
X29214Y31380D01*
X29208Y31421D01*
X29203Y31460D01*
X29195Y31497D01*
X29188Y31530D01*
X29182Y31563D01*
X29175Y31593D01*
X29168Y31622D01*
X29158Y31648D01*
X29144Y31697D01*
X29129Y31737D01*
X29116Y31771D01*
X29105Y31798D01*
X29094Y31819D01*
X29086Y31833D01*
X29081Y31843D01*
X29079Y31844D01*
X29053Y31876D01*
X29027Y31906D01*
X28999Y31930D01*
X28970Y31950D01*
X28942Y31969D01*
X28912Y31983D01*
X28885Y31994D01*
X28857Y32006D01*
X28831Y32013D01*
X28809Y32018D01*
X28787Y32022D01*
X28768Y32024D01*
X28753Y32026D01*
X28742Y32028D01*
D02*
G37*
G36*
X35731D02*
X35722D01*
X35685Y32026D01*
X35649Y32020D01*
X35614Y32013D01*
X35583Y32004D01*
X35551Y31991D01*
X35524Y31978D01*
X35498Y31963D01*
X35474Y31948D01*
X35451Y31933D01*
X35431Y31918D01*
X35415Y31906D01*
X35402Y31893D01*
X35390Y31883D01*
X35383Y31876D01*
X35378Y31870D01*
X35376Y31869D01*
X35350Y31837D01*
X35328Y31804D01*
X35309Y31771D01*
X35293Y31735D01*
X35278Y31698D01*
X35267Y31663D01*
X35257Y31628D01*
X35250Y31595D01*
X35244Y31563D01*
X35239Y31534D01*
X35235Y31508D01*
X35233Y31484D01*
X35231Y31465D01*
Y31451D01*
Y31443D01*
Y31439D01*
X35233Y31389D01*
X35237Y31343D01*
X35244Y31301D01*
X35254Y31260D01*
X35265Y31221D01*
X35276Y31186D01*
X35289Y31155D01*
X35302Y31127D01*
X35315Y31101D01*
X35328Y31079D01*
X35339Y31060D01*
X35350Y31043D01*
X35359Y31032D01*
X35366Y31023D01*
X35370Y31018D01*
X35372Y31016D01*
X35400Y30990D01*
X35427Y30966D01*
X35457Y30945D01*
X35487Y30929D01*
X35518Y30914D01*
X35548Y30901D01*
X35576Y30892D01*
X35603Y30882D01*
X35631Y30877D01*
X35655Y30871D01*
X35675Y30870D01*
X35694Y30866D01*
X35711D01*
X35722Y30864D01*
X35731D01*
X35772Y30866D01*
X35809Y30871D01*
X35846Y30879D01*
X35881Y30888D01*
X35912Y30899D01*
X35942Y30912D01*
X35969Y30925D01*
X35995Y30940D01*
X36018Y30955D01*
X36038Y30968D01*
X36055Y30981D01*
X36070Y30992D01*
X36081Y31001D01*
X36088Y31010D01*
X36094Y31014D01*
X36095Y31016D01*
X36121Y31045D01*
X36143Y31077D01*
X36164Y31110D01*
X36180Y31143D01*
X36193Y31177D01*
X36206Y31210D01*
X36216Y31241D01*
X36223Y31273D01*
X36229Y31301D01*
X36234Y31328D01*
X36238Y31352D01*
X36240Y31373D01*
Y31389D01*
X36241Y31402D01*
Y31412D01*
Y31413D01*
X36240Y31463D01*
X36234Y31512D01*
X36227Y31556D01*
X36217Y31597D01*
X36206Y31637D01*
X36193Y31672D01*
X36179Y31706D01*
X36164Y31737D01*
X36151Y31763D01*
X36136Y31787D01*
X36123Y31808D01*
X36112Y31824D01*
X36103Y31839D01*
X36095Y31848D01*
X36090Y31854D01*
X36088Y31856D01*
X36058Y31885D01*
X36027Y31913D01*
X35997Y31935D01*
X35966Y31956D01*
X35934Y31972D01*
X35903Y31985D01*
X35875Y31996D01*
X35846Y32006D01*
X35820Y32013D01*
X35796Y32018D01*
X35775Y32022D01*
X35757Y32026D01*
X35742D01*
X35731Y32028D01*
D02*
G37*
G36*
X40744Y25030D02*
X40727D01*
X40694Y25028D01*
X40664Y25024D01*
X40635Y25018D01*
X40605Y25011D01*
X40579Y25002D01*
X40555Y24993D01*
X40533Y24981D01*
X40513Y24970D01*
X40494Y24959D01*
X40477Y24948D01*
X40464Y24939D01*
X40451Y24930D01*
X40444Y24922D01*
X40437Y24917D01*
X40433Y24913D01*
X40431Y24911D01*
X40411Y24889D01*
X40392Y24865D01*
X40376Y24841D01*
X40361Y24817D01*
X40350Y24791D01*
X40341Y24767D01*
X40326Y24722D01*
X40320Y24700D01*
X40317Y24682D01*
X40315Y24665D01*
X40313Y24650D01*
X40311Y24637D01*
Y24628D01*
Y24622D01*
Y24621D01*
X40313Y24591D01*
X40317Y24562D01*
X40322Y24534D01*
X40330Y24508D01*
X40348Y24460D01*
X40359Y24439D01*
X40368Y24419D01*
X40379Y24402D01*
X40391Y24386D01*
X40400Y24373D01*
X40409Y24362D01*
X40416Y24352D01*
X40422Y24347D01*
X40426Y24343D01*
X40428Y24341D01*
X40450Y24321D01*
X40474Y24304D01*
X40498Y24290D01*
X40522Y24277D01*
X40548Y24265D01*
X40572Y24256D01*
X40618Y24243D01*
X40640Y24238D01*
X40661Y24234D01*
X40677Y24232D01*
X40694Y24230D01*
X40707Y24228D01*
X40723D01*
X40757Y24230D01*
X40790Y24234D01*
X40822Y24240D01*
X40849Y24247D01*
X40877Y24254D01*
X40901Y24265D01*
X40925Y24275D01*
X40946Y24286D01*
X40964Y24297D01*
X40981Y24306D01*
X40994Y24317D01*
X41006Y24325D01*
X41014Y24332D01*
X41021Y24338D01*
X41025Y24341D01*
X41027Y24343D01*
X41047Y24365D01*
X41064Y24389D01*
X41080Y24414D01*
X41094Y24438D01*
X41105Y24463D01*
X41114Y24487D01*
X41127Y24534D01*
X41132Y24556D01*
X41136Y24576D01*
X41138Y24593D01*
X41140Y24610D01*
X41142Y24622D01*
Y24632D01*
Y24637D01*
Y24639D01*
X41140Y24669D01*
X41136Y24697D01*
X41131Y24724D01*
X41123Y24748D01*
X41105Y24796D01*
X41094Y24817D01*
X41082Y24835D01*
X41073Y24854D01*
X41062Y24869D01*
X41053Y24882D01*
X41043Y24893D01*
X41036Y24902D01*
X41031Y24907D01*
X41027Y24911D01*
X41025Y24913D01*
X41003Y24933D01*
X40979Y24952D01*
X40953Y24967D01*
X40929Y24980D01*
X40903Y24993D01*
X40879Y25002D01*
X40831Y25015D01*
X40810Y25020D01*
X40790Y25024D01*
X40772Y25026D01*
X40757Y25028D01*
X40744Y25030D01*
D02*
G37*
G36*
X40757Y23971D02*
X40735D01*
X40692Y23969D01*
X40653Y23966D01*
X40614Y23958D01*
X40579Y23947D01*
X40546Y23936D01*
X40514Y23923D01*
X40487Y23910D01*
X40461Y23897D01*
X40437Y23882D01*
X40416Y23870D01*
X40400Y23857D01*
X40385Y23845D01*
X40372Y23836D01*
X40365Y23829D01*
X40359Y23823D01*
X40357Y23821D01*
X40331Y23794D01*
X40307Y23762D01*
X40287Y23733D01*
X40270Y23701D01*
X40255Y23670D01*
X40242Y23638D01*
X40233Y23609D01*
X40224Y23579D01*
X40218Y23551D01*
X40213Y23527D01*
X40209Y23505D01*
X40207Y23485D01*
Y23470D01*
X40205Y23457D01*
Y23450D01*
Y23448D01*
X40207Y23407D01*
X40211Y23368D01*
X40218Y23331D01*
X40228Y23296D01*
X40239Y23263D01*
X40252Y23233D01*
X40265Y23205D01*
X40278Y23179D01*
X40293Y23157D01*
X40305Y23137D01*
X40318Y23120D01*
X40330Y23106D01*
X40339Y23094D01*
X40346Y23087D01*
X40350Y23081D01*
X40352Y23080D01*
X40379Y23054D01*
X40409Y23031D01*
X40440Y23013D01*
X40472Y22996D01*
X40503Y22982D01*
X40533Y22971D01*
X40564Y22961D01*
X40592Y22954D01*
X40620Y22948D01*
X40644Y22943D01*
X40666Y22939D01*
X40687Y22937D01*
X40701D01*
X40714Y22935D01*
X40723D01*
X40777Y22939D01*
X40827Y22946D01*
X40872Y22957D01*
X40912Y22971D01*
X40931Y22976D01*
X40946Y22982D01*
X40960Y22987D01*
X40971Y22993D01*
X40981Y22998D01*
X40988Y23000D01*
X40992Y23004D01*
X40994D01*
X41038Y23031D01*
X41077Y23063D01*
X41108Y23096D01*
X41134Y23126D01*
X41156Y23155D01*
X41164Y23167D01*
X41171Y23178D01*
X41175Y23187D01*
X41179Y23192D01*
X41182Y23196D01*
Y23198D01*
X41203Y23246D01*
X41219Y23292D01*
X41230Y23335D01*
X41238Y23376D01*
X41240Y23392D01*
X41241Y23409D01*
X41243Y23422D01*
Y23435D01*
X41245Y23444D01*
Y23451D01*
Y23455D01*
Y23457D01*
X41243Y23498D01*
X41240Y23537D01*
X41232Y23572D01*
X41223Y23607D01*
X41212Y23640D01*
X41199Y23670D01*
X41186Y23697D01*
X41173Y23723D01*
X41160Y23746D01*
X41147Y23766D01*
X41134Y23783D01*
X41123Y23797D01*
X41114Y23809D01*
X41107Y23816D01*
X41103Y23821D01*
X41101Y23823D01*
X41073Y23849D01*
X41043Y23871D01*
X41014Y23892D01*
X40982Y23908D01*
X40951Y23923D01*
X40921Y23936D01*
X40892Y23945D01*
X40864Y23953D01*
X40836Y23958D01*
X40812Y23964D01*
X40790Y23968D01*
X40772Y23969D01*
X40757Y23971D01*
D02*
G37*
G36*
X40715Y30103D02*
X40706D01*
X40667Y30101D01*
X40628Y30095D01*
X40593Y30088D01*
X40560Y30079D01*
X40528Y30068D01*
X40499Y30055D01*
X40473Y30040D01*
X40447Y30027D01*
X40427Y30012D01*
X40406Y29997D01*
X40390Y29984D01*
X40377Y29973D01*
X40365Y29964D01*
X40356Y29956D01*
X40353Y29951D01*
X40351Y29949D01*
X40325Y29919D01*
X40304Y29886D01*
X40284Y29853D01*
X40268Y29820D01*
X40255Y29785D01*
X40243Y29749D01*
X40234Y29716D01*
X40227Y29683D01*
X40219Y29651D01*
X40216Y29623D01*
X40212Y29598D01*
X40210Y29575D01*
X40208Y29557D01*
Y29542D01*
Y29535D01*
Y29531D01*
X40210Y29481D01*
X40214Y29433D01*
X40221Y29389D01*
X40231Y29346D01*
X40242Y29307D01*
X40255Y29272D01*
X40268Y29239D01*
X40280Y29209D01*
X40293Y29183D01*
X40306Y29159D01*
X40319Y29141D01*
X40330Y29124D01*
X40340Y29111D01*
X40347Y29102D01*
X40351Y29096D01*
X40353Y29094D01*
X40380Y29067D01*
X40408Y29043D01*
X40438Y29020D01*
X40465Y29002D01*
X40495Y28987D01*
X40523Y28974D01*
X40551Y28963D01*
X40576Y28956D01*
X40602Y28948D01*
X40624Y28945D01*
X40645Y28941D01*
X40661Y28937D01*
X40674D01*
X40686Y28935D01*
X40695D01*
X40745Y28939D01*
X40793Y28946D01*
X40837Y28959D01*
X40876Y28974D01*
X40895Y28980D01*
X40909Y28987D01*
X40922Y28995D01*
X40933Y29000D01*
X40943Y29004D01*
X40950Y29008D01*
X40954Y29011D01*
X40956D01*
X40998Y29043D01*
X41037Y29080D01*
X41070Y29117D01*
X41096Y29154D01*
X41118Y29187D01*
X41126Y29200D01*
X41133Y29213D01*
X41139Y29222D01*
X41142Y29231D01*
X41146Y29235D01*
Y29237D01*
X41168Y29294D01*
X41185Y29350D01*
X41198Y29401D01*
X41205Y29450D01*
X41209Y29470D01*
X41211Y29490D01*
X41213Y29507D01*
Y29522D01*
X41215Y29533D01*
Y29542D01*
Y29548D01*
Y29550D01*
X41213Y29594D01*
X41209Y29636D01*
X41202Y29677D01*
X41191Y29716D01*
X41179Y29751D01*
X41168Y29785D01*
X41154Y29814D01*
X41141Y29842D01*
X41128Y29866D01*
X41113Y29888D01*
X41102Y29907D01*
X41089Y29921D01*
X41080Y29932D01*
X41072Y29942D01*
X41069Y29947D01*
X41067Y29949D01*
X41039Y29977D01*
X41009Y29999D01*
X40978Y30021D01*
X40948Y30038D01*
X40917Y30053D01*
X40887Y30066D01*
X40858Y30075D01*
X40830Y30084D01*
X40804Y30090D01*
X40782Y30095D01*
X40760Y30097D01*
X40741Y30101D01*
X40726D01*
X40715Y30103D01*
D02*
G37*
G36*
X16550Y23774D02*
Y22620D01*
X17353D01*
X16550Y23774D01*
D02*
G37*
%LPD*%
D10*
X10902Y55500D02*
X14402D01*
X13402Y54500D02*
X14402Y55500D01*
X13402Y56500D02*
X14402Y55500D01*
X15902Y49000D02*
Y52500D01*
X16902Y51500D01*
X14902D02*
X15902Y52500D01*
X47004Y53531D02*
Y71248D01*
X9996Y53531D02*
Y71248D01*
D12*
X4000Y37610D02*
X2886Y37149D01*
X2425Y36035D01*
X2425Y32965D02*
X2886Y31851D01*
X4000Y31390D01*
X12937Y31390D02*
X14051Y31851D01*
X14512Y32965D01*
Y36035D02*
X14051Y37149D01*
X12937Y37610D01*
X4000Y31610D02*
X2886Y31149D01*
X2425Y30035D01*
X2425Y26965D02*
X2886Y25851D01*
X4000Y25390D01*
X12937Y25390D02*
X14051Y25851D01*
X14512Y26965D01*
Y30035D02*
X14051Y31149D01*
X12937Y31610D01*
X3968Y25610D02*
X2855Y25149D01*
X2394Y24035D01*
X2394Y20965D02*
X2855Y19851D01*
X3968Y19390D01*
X12905Y19390D02*
X14019Y19851D01*
X14480Y20965D01*
Y24035D02*
X14019Y25149D01*
X12905Y25610D01*
X4031Y19610D02*
X2918Y19149D01*
X2457Y18035D01*
X2457Y14965D02*
X2918Y13851D01*
X4031Y13390D01*
X12968Y13390D02*
X14082Y13851D01*
X14543Y14965D01*
Y18035D02*
X14082Y19149D01*
X12968Y19610D01*
X33890Y35531D02*
X34351Y34418D01*
X35465Y33957D01*
X38535Y33957D02*
X39649Y34418D01*
X40110Y35531D01*
X40110Y44469D02*
X39649Y45582D01*
X38535Y46043D01*
X35465D02*
X34351Y45582D01*
X33890Y44469D01*
X15890Y35531D02*
X16351Y34418D01*
X17465Y33957D01*
X20535Y33957D02*
X21649Y34418D01*
X22110Y35531D01*
X22110Y44469D02*
X21649Y45582D01*
X20535Y46043D01*
X17465D02*
X16351Y45582D01*
X15890Y44469D01*
X21890Y35563D02*
X22351Y34449D01*
X23465Y33988D01*
X26535Y33988D02*
X27649Y34449D01*
X28110Y35563D01*
X28110Y44500D02*
X27649Y45614D01*
X26535Y46075D01*
X23465D02*
X22351Y45614D01*
X21890Y44500D01*
X27890Y35563D02*
X28351Y34449D01*
X29465Y33988D01*
X32535Y33988D02*
X33649Y34449D01*
X34110Y35563D01*
X34110Y44500D02*
X33649Y45614D01*
X32535Y46075D01*
X29465D02*
X28351Y45614D01*
X27890Y44500D01*
X46500Y31110D02*
X45386Y30649D01*
X44925Y29535D01*
X44925Y26465D02*
X45386Y25351D01*
X46500Y24890D01*
X55437Y24890D02*
X56551Y25351D01*
X57012Y26465D01*
Y29535D02*
X56551Y30649D01*
X55437Y31110D01*
X46500Y37110D02*
X45386Y36649D01*
X44925Y35535D01*
X44925Y32465D02*
X45386Y31351D01*
X46500Y30890D01*
X55437Y30890D02*
X56551Y31351D01*
X57012Y32465D01*
Y35535D02*
X56551Y36649D01*
X55437Y37110D01*
X46500Y43110D02*
X45386Y42649D01*
X44925Y41535D01*
X44925Y38465D02*
X45386Y37351D01*
X46500Y36890D01*
X55437Y36890D02*
X56551Y37351D01*
X57012Y38465D01*
Y41535D02*
X56551Y42649D01*
X55437Y43110D01*
X46468Y49110D02*
X45355Y48649D01*
X44894Y47535D01*
X44894Y44465D02*
X45355Y43351D01*
X46468Y42890D01*
X55405Y42890D02*
X56519Y43351D01*
X56980Y44465D01*
Y47535D02*
X56519Y48649D01*
X55405Y49110D01*
X10043Y37610D02*
X12937D01*
X2425Y32965D02*
Y36035D01*
X14512Y32965D02*
Y36035D01*
X4000Y37610D02*
X6894D01*
X4000Y31390D02*
X6894D01*
X10043Y31390D02*
X12937D01*
X10043Y31610D02*
X12937D01*
X2425Y26965D02*
Y30035D01*
X14512Y26965D02*
Y30035D01*
X4000Y31610D02*
X6894D01*
X4000Y25390D02*
X6894D01*
X10043Y25390D02*
X12937D01*
X10012Y25610D02*
X12905D01*
X2394Y20965D02*
Y24035D01*
X14480Y20965D02*
Y24035D01*
X3968Y25610D02*
X6862D01*
X3968Y19390D02*
X6862D01*
X10012Y19390D02*
X12905D01*
X10075Y19610D02*
X12968D01*
X2457Y14965D02*
Y18035D01*
X14543Y14965D02*
Y18035D01*
X4031Y19610D02*
X6925D01*
X4031Y13390D02*
X6925D01*
X10075Y13390D02*
X12968D01*
X33890Y41575D02*
Y44469D01*
X35465Y33957D02*
X38535D01*
X35465Y46043D02*
X38535D01*
X33890Y35531D02*
Y38425D01*
X40110Y35531D02*
Y38425D01*
X40110Y41575D02*
Y44469D01*
X15890Y41575D02*
Y44469D01*
X17465Y33957D02*
X20535D01*
X17465Y46043D02*
X20535D01*
X15890Y35531D02*
Y38425D01*
X22110Y35531D02*
Y38425D01*
X22110Y41575D02*
Y44469D01*
X21890Y41606D02*
Y44500D01*
X23465Y33988D02*
X26535D01*
X23465Y46075D02*
X26535D01*
X21890Y35563D02*
Y38457D01*
X28110Y35563D02*
Y38457D01*
X28110Y41606D02*
Y44500D01*
X27890Y41606D02*
Y44500D01*
X29465Y33988D02*
X32535D01*
X29465Y46075D02*
X32535D01*
X27890Y35563D02*
Y38457D01*
X34110Y35563D02*
Y38457D01*
X34110Y41606D02*
Y44500D01*
X52543Y31110D02*
X55437D01*
X44925Y26465D02*
Y29535D01*
X57012Y26465D02*
Y29535D01*
X46500Y31110D02*
X49394D01*
X46500Y24890D02*
X49394D01*
X52543Y24890D02*
X55437D01*
X52543Y37110D02*
X55437D01*
X44925Y32465D02*
Y35535D01*
X57012Y32465D02*
Y35535D01*
X46500Y37110D02*
X49394D01*
X46500Y30890D02*
X49394D01*
X52543Y30890D02*
X55437D01*
X52543Y43110D02*
X55437D01*
X44925Y38465D02*
Y41535D01*
X57012Y38465D02*
Y41535D01*
X46500Y43110D02*
X49394D01*
X46500Y36890D02*
X49394D01*
X52543Y36890D02*
X55437D01*
X52512Y49110D02*
X55405D01*
X44894Y44465D02*
Y47535D01*
X56980Y44465D02*
Y47535D01*
X46468Y49110D02*
X49362D01*
X46468Y42890D02*
X49362D01*
X52512Y42890D02*
X55405D01*
M02*
