G04*
G04 #@! TF.GenerationSoftware,Altium Limited,Altium Designer,22.2.1 (43)*
G04*
G04 Layer_Color=8388736*
%FSLAX25Y25*%
%MOIN*%
G70*
G04*
G04 #@! TF.SameCoordinates,4B28361B-3754-4690-972C-136B69916877*
G04*
G04*
G04 #@! TF.FilePolarity,Negative*
G04*
G01*
G75*
%ADD13C,0.00709*%
%ADD14C,0.00984*%
%ADD16R,0.04658X0.04461*%
D13*
X35094Y33217D02*
D03*
X17378Y19437D02*
D03*
Y21406D02*
D03*
Y23374D02*
D03*
Y25343D02*
D03*
Y27311D02*
D03*
X19346Y17469D02*
D03*
Y19437D02*
D03*
Y21406D02*
D03*
Y23374D02*
D03*
Y25343D02*
D03*
Y29280D02*
D03*
X21315Y17469D02*
D03*
Y21406D02*
D03*
Y25343D02*
D03*
Y29280D02*
D03*
X23283Y15500D02*
D03*
X25252Y17469D02*
D03*
Y25343D02*
D03*
Y27311D02*
D03*
Y29280D02*
D03*
X27220Y17469D02*
D03*
Y23374D02*
D03*
X29189Y17469D02*
D03*
Y23374D02*
D03*
X31157Y19437D02*
D03*
Y23374D02*
D03*
Y33217D02*
D03*
X33126Y19437D02*
D03*
Y23374D02*
D03*
X35094D02*
D03*
Y25343D02*
D03*
Y27311D02*
D03*
Y29280D02*
D03*
Y31248D02*
D03*
X37063Y19437D02*
D03*
X39031Y21406D02*
D03*
Y23374D02*
D03*
Y25343D02*
D03*
Y27311D02*
D03*
Y29280D02*
D03*
X41000Y17469D02*
D03*
Y25343D02*
D03*
D14*
X17378Y15500D02*
D03*
Y17469D02*
D03*
Y29280D02*
D03*
Y31248D02*
D03*
Y33217D02*
D03*
Y35185D02*
D03*
Y37154D02*
D03*
Y39122D02*
D03*
Y41091D02*
D03*
X19346Y15500D02*
D03*
Y31248D02*
D03*
Y33217D02*
D03*
Y35185D02*
D03*
Y37154D02*
D03*
Y39122D02*
D03*
Y41091D02*
D03*
X21315Y15500D02*
D03*
Y31248D02*
D03*
Y33217D02*
D03*
Y35185D02*
D03*
Y37154D02*
D03*
Y39122D02*
D03*
Y41091D02*
D03*
X23283Y37154D02*
D03*
Y39122D02*
D03*
Y41091D02*
D03*
X25252Y15500D02*
D03*
Y33217D02*
D03*
Y37154D02*
D03*
Y39122D02*
D03*
Y41091D02*
D03*
X27220Y15500D02*
D03*
Y33217D02*
D03*
Y37154D02*
D03*
Y39122D02*
D03*
Y41091D02*
D03*
X29189Y15500D02*
D03*
Y33217D02*
D03*
Y37154D02*
D03*
Y39122D02*
D03*
Y41091D02*
D03*
X31157Y15500D02*
D03*
Y17469D02*
D03*
Y37154D02*
D03*
Y39122D02*
D03*
Y41091D02*
D03*
X33126Y15500D02*
D03*
Y17469D02*
D03*
Y33217D02*
D03*
Y37154D02*
D03*
Y39122D02*
D03*
Y41091D02*
D03*
X35094Y15500D02*
D03*
Y17469D02*
D03*
Y19437D02*
D03*
Y37154D02*
D03*
Y39122D02*
D03*
Y41091D02*
D03*
X37063Y15500D02*
D03*
Y17469D02*
D03*
Y37154D02*
D03*
Y39122D02*
D03*
Y41091D02*
D03*
X39031Y15500D02*
D03*
Y17469D02*
D03*
Y19437D02*
D03*
Y31248D02*
D03*
Y33217D02*
D03*
Y35185D02*
D03*
Y37154D02*
D03*
Y39122D02*
D03*
Y41091D02*
D03*
X41000Y15500D02*
D03*
Y21406D02*
D03*
Y23374D02*
D03*
Y27311D02*
D03*
Y29280D02*
D03*
Y31248D02*
D03*
Y33217D02*
D03*
Y35185D02*
D03*
Y37154D02*
D03*
Y39122D02*
D03*
Y41091D02*
D03*
X42968Y15500D02*
D03*
Y19437D02*
D03*
Y21406D02*
D03*
Y23374D02*
D03*
Y25343D02*
D03*
Y27311D02*
D03*
Y29280D02*
D03*
Y31248D02*
D03*
Y33217D02*
D03*
Y35185D02*
D03*
Y37154D02*
D03*
Y39122D02*
D03*
Y41091D02*
D03*
D16*
X37000Y54969D02*
D03*
Y61032D02*
D03*
X31000Y54969D02*
D03*
Y61032D02*
D03*
M02*
