G04*
G04 #@! TF.GenerationSoftware,Altium Limited,Altium Designer,22.2.1 (43)*
G04*
G04 Layer_Physical_Order=3*
G04 Layer_Color=16440176*
%FSLAX25Y25*%
%MOIN*%
G70*
G04*
G04 #@! TF.SameCoordinates,4B28361B-3754-4690-972C-136B69916877*
G04*
G04*
G04 #@! TF.FilePolarity,Positive*
G04*
G01*
G75*
%ADD11C,0.00600*%
%ADD17C,0.01772*%
G36*
X57000Y74500D02*
Y47500D01*
Y8000D01*
X55000Y6000D01*
X6500D01*
X4000Y8500D01*
Y47500D01*
Y49500D01*
D01*
Y74500D01*
X6500Y77000D01*
X54500D01*
X57000Y74500D01*
D02*
G37*
%LPC*%
G36*
X24000Y75449D02*
Y75418D01*
X19000D01*
Y75447D01*
X18064Y75261D01*
X17270Y74730D01*
X17069Y74430D01*
X16658Y74260D01*
X16240Y73842D01*
X16014Y73296D01*
Y72704D01*
X16240Y72158D01*
X16658Y71740D01*
X17204Y71514D01*
X17796D01*
X18342Y71740D01*
X18514Y71913D01*
X19014Y71706D01*
Y71704D01*
X19240Y71158D01*
X19658Y70740D01*
X20204Y70514D01*
X20796D01*
X21342Y70740D01*
X21760Y71158D01*
X21986Y71704D01*
Y72296D01*
X21760Y72842D01*
X21519Y73082D01*
X21726Y73582D01*
X24000D01*
Y73563D01*
X24257Y73512D01*
X24474Y73366D01*
X24620Y73149D01*
X24671Y72892D01*
X24690D01*
Y53902D01*
X24190Y53568D01*
X24117Y53598D01*
X23526D01*
X22980Y53372D01*
X22562Y52954D01*
X22477Y52747D01*
X21936D01*
X21896Y52842D01*
X21478Y53260D01*
X20932Y53486D01*
X20341D01*
X19795Y53260D01*
X19377Y52842D01*
X19151Y52296D01*
Y51704D01*
X19377Y51158D01*
X19719Y50816D01*
Y49118D01*
X18677D01*
Y49133D01*
X18013Y49001D01*
X17451Y48626D01*
X17075Y48063D01*
X16943Y47400D01*
X17075Y46737D01*
X17451Y46174D01*
X18013Y45799D01*
X18677Y45667D01*
Y45682D01*
X19719D01*
Y38248D01*
X19789Y37896D01*
X19988Y37599D01*
X21582Y36004D01*
Y29228D01*
X21082Y29022D01*
X20626Y29210D01*
X20035D01*
X19489Y28984D01*
X19071Y28566D01*
X18845Y28020D01*
Y27429D01*
X19071Y26883D01*
X19489Y26465D01*
X20035Y26239D01*
X20046D01*
X20445Y25929D01*
Y22637D01*
X20515Y22286D01*
X20714Y21988D01*
X26351Y16351D01*
X26500Y16252D01*
X26649Y16152D01*
X27000Y16082D01*
X30500D01*
Y16063D01*
X31241Y16210D01*
X31870Y16630D01*
X32290Y17259D01*
X32437Y18000D01*
X32418D01*
Y19733D01*
X32443Y19750D01*
X33034D01*
X33580Y19976D01*
X33998Y20394D01*
X34224Y20940D01*
Y21531D01*
X33998Y22078D01*
X33580Y22496D01*
X33034Y22722D01*
X32443D01*
X31897Y22496D01*
X31583Y22182D01*
X31209Y22556D01*
X30663Y22782D01*
X30072D01*
X29526Y22556D01*
X29108Y22138D01*
X28882Y21591D01*
Y21000D01*
X28923Y20901D01*
X28540Y20519D01*
X28314Y20613D01*
X27723D01*
X27176Y20386D01*
X26759Y19968D01*
X26532Y19422D01*
X26032Y19265D01*
X23559Y21739D01*
X23849Y22118D01*
X24395Y21892D01*
X24986D01*
X25532Y22118D01*
X25951Y22536D01*
X26169Y23063D01*
X26305Y23315D01*
X26520Y23459D01*
X27111D01*
X27657Y23685D01*
X28075Y24103D01*
X28301Y24649D01*
Y25240D01*
X28075Y25786D01*
X27657Y26204D01*
X27111Y26430D01*
X26520D01*
X26306Y26342D01*
X26023Y26765D01*
X26262Y27005D01*
X26302Y27065D01*
D01*
X26461Y27302D01*
X26531Y27654D01*
Y30165D01*
X27014Y30204D01*
X27240Y29658D01*
X27658Y29240D01*
X28205Y29014D01*
X28795D01*
X29342Y29240D01*
X29760Y29658D01*
X29986Y30204D01*
Y30795D01*
X29760Y31342D01*
X29342Y31760D01*
X28795Y31986D01*
X28205D01*
X27658Y31760D01*
X27240Y31342D01*
X27014Y30796D01*
X26531Y30835D01*
Y34968D01*
X26525Y34995D01*
Y48786D01*
Y48937D01*
X27025Y48938D01*
X27026Y48937D01*
X27068Y48875D01*
X27688Y48460D01*
X28355Y48327D01*
X28481Y48221D01*
X28692Y47834D01*
X28662Y47761D01*
Y47170D01*
X28888Y46624D01*
X29306Y46206D01*
X29852Y45980D01*
X30443D01*
X30989Y46206D01*
X31260Y46477D01*
X31574Y46573D01*
X31888Y46477D01*
X32158Y46206D01*
X32704Y45980D01*
X33296D01*
X33842Y46206D01*
X34260Y46624D01*
X34318Y46765D01*
D01*
X34486Y47170D01*
Y47761D01*
X34456Y47834D01*
X34790Y48334D01*
X36659D01*
Y48324D01*
X37118Y48233D01*
X37507Y47973D01*
X37767Y47584D01*
X37833Y47254D01*
X37852Y46762D01*
X37852D01*
X37984Y46099D01*
X38198Y45780D01*
X37930Y45280D01*
X36636D01*
Y45296D01*
X35972Y45164D01*
X35410Y44788D01*
X35034Y44225D01*
X34903Y43562D01*
X35034Y42899D01*
X35410Y42336D01*
X35596Y42212D01*
Y41712D01*
X35410Y41588D01*
X35034Y41026D01*
X34903Y40362D01*
X35034Y39699D01*
X35410Y39136D01*
X35972Y38761D01*
X36636Y38629D01*
Y38644D01*
X37930D01*
X38198Y38144D01*
X37984Y37826D01*
X37852Y37162D01*
X37868D01*
Y35348D01*
Y30666D01*
X37188Y29986D01*
X36704D01*
X36158Y29760D01*
X35740Y29342D01*
X35514Y28795D01*
Y28205D01*
X35740Y27658D01*
X36158Y27240D01*
X36704Y27014D01*
X37295D01*
X37842Y27240D01*
X38260Y27658D01*
D01*
X38486Y28205D01*
Y28688D01*
X39435Y29637D01*
X39634Y29935D01*
X39704Y30286D01*
Y32300D01*
Y37045D01*
X40936D01*
Y37029D01*
X41599Y37161D01*
X42162Y37536D01*
X42537Y38099D01*
X42669Y38762D01*
X42537Y39426D01*
X42162Y39988D01*
X41975Y40112D01*
Y40612D01*
X42162Y40736D01*
X42537Y41299D01*
X42669Y41962D01*
X42537Y42625D01*
X42162Y43188D01*
X41975Y43312D01*
Y43812D01*
X42162Y43936D01*
X42537Y44499D01*
X42669Y45162D01*
X42537Y45825D01*
X42162Y46388D01*
X41972Y46514D01*
X42124Y47014D01*
X42296D01*
X42842Y47240D01*
X43260Y47658D01*
X43486Y48204D01*
Y48796D01*
X43260Y49342D01*
X42842Y49760D01*
X42296Y49986D01*
X41704D01*
X41158Y49760D01*
X40740Y49342D01*
X40514Y48796D01*
Y48204D01*
X40740Y47658D01*
X41016Y47383D01*
X40978Y47148D01*
X40822Y46880D01*
X40111D01*
X39712Y47124D01*
X39663Y47500D01*
X39608Y47915D01*
X39303Y48651D01*
X38818Y49283D01*
X38570Y49474D01*
X38645Y50046D01*
X38707Y50071D01*
X39125Y50489D01*
X39351Y51035D01*
Y51191D01*
Y51627D01*
X39125Y52173D01*
X38707Y52591D01*
X38161Y52817D01*
X37570D01*
X37024Y52591D01*
X36606Y52173D01*
X36379Y51627D01*
Y51035D01*
X36531Y50669D01*
X36301Y50224D01*
X36238Y50169D01*
X28871D01*
X28653Y50658D01*
X28879Y51204D01*
Y51796D01*
X28653Y52342D01*
X28235Y52760D01*
X27689Y52986D01*
X27098D01*
X27025Y52956D01*
X26525Y53290D01*
Y72892D01*
X26557D01*
X26362Y73871D01*
X25808Y74700D01*
X24979Y75254D01*
X24000Y75449D01*
D02*
G37*
G36*
X22670Y64961D02*
X22079D01*
X21533Y64734D01*
X21115Y64316D01*
X20910Y63821D01*
X13203D01*
Y63826D01*
X12523Y63736D01*
X11890Y63474D01*
X11347Y63057D01*
X10929Y62513D01*
X10667Y61880D01*
X10577Y61201D01*
X10582D01*
Y59310D01*
X9977Y59190D01*
X9414Y58814D01*
X9039Y58252D01*
X8907Y57588D01*
X9039Y56925D01*
X9414Y56363D01*
X9601Y56238D01*
Y55738D01*
X9414Y55614D01*
X9039Y55052D01*
X8907Y54388D01*
X9039Y53725D01*
X9414Y53163D01*
X9977Y52787D01*
X10582Y52667D01*
Y47500D01*
Y25974D01*
X10652Y25623D01*
X10851Y25325D01*
X13841Y22335D01*
Y21954D01*
X14067Y21408D01*
X14170Y21306D01*
X14158Y20760D01*
X13740Y20342D01*
X13514Y19796D01*
Y19204D01*
X13740Y18658D01*
X14158Y18240D01*
X14704Y18014D01*
X15296D01*
X15842Y18240D01*
X16260Y18658D01*
X16486Y19204D01*
Y19796D01*
X16260Y20342D01*
X16157Y20444D01*
X16169Y20990D01*
X16587Y21408D01*
X16813Y21954D01*
Y22546D01*
X16587Y23092D01*
X16169Y23510D01*
X16362Y23969D01*
X16405Y24012D01*
X16632Y24558D01*
Y25150D01*
X16405Y25696D01*
X15987Y26114D01*
X15441Y26340D01*
X14958D01*
X13918Y27380D01*
Y47500D01*
Y52782D01*
X14520D01*
Y52767D01*
X15183Y52899D01*
X15746Y53274D01*
X16121Y53837D01*
X16253Y54500D01*
X16121Y55163D01*
X15746Y55726D01*
X15596Y55826D01*
Y56427D01*
X15667Y56474D01*
X16042Y57037D01*
X16174Y57700D01*
X16042Y58363D01*
X15667Y58926D01*
X15104Y59301D01*
X14441Y59433D01*
Y59418D01*
X13918D01*
Y60579D01*
X13944D01*
X13967Y60636D01*
X14024Y60659D01*
Y60686D01*
X20875D01*
X21079Y60194D01*
X21497Y59776D01*
X22043Y59550D01*
X22634D01*
X23180Y59776D01*
X23598Y60194D01*
X23824Y60740D01*
Y61331D01*
X23598Y61878D01*
X23238Y62237D01*
X23634Y62633D01*
X23861Y63179D01*
Y63770D01*
X23634Y64316D01*
X23216Y64734D01*
X22670Y64961D01*
D02*
G37*
G36*
X30375Y65812D02*
X29784D01*
X29238Y65586D01*
X28820Y65168D01*
X28594Y64622D01*
Y64030D01*
X28820Y63484D01*
X29238Y63066D01*
X29784Y62840D01*
X30375D01*
X30921Y63066D01*
X31339Y63484D01*
X31566Y64030D01*
Y64622D01*
X31339Y65168D01*
X30921Y65586D01*
X30375Y65812D01*
D02*
G37*
G36*
X40795Y62986D02*
X40205D01*
X39658Y62760D01*
X39240Y62342D01*
X39014Y61796D01*
Y61204D01*
X39240Y60658D01*
X39658Y60240D01*
X40205Y60014D01*
X40795D01*
X41342Y60240D01*
X41760Y60658D01*
X41986Y61204D01*
Y61796D01*
X41760Y62342D01*
X41342Y62760D01*
X40795Y62986D01*
D02*
G37*
G36*
X34655Y33015D02*
X34064D01*
X33518Y32789D01*
X33100Y32371D01*
X32874Y31825D01*
Y31234D01*
X33100Y30688D01*
X33518Y30270D01*
X34064Y30044D01*
X34655D01*
X35201Y30270D01*
X35619Y30688D01*
X35845Y31234D01*
Y31825D01*
X35619Y32371D01*
X35201Y32789D01*
X34655Y33015D01*
D02*
G37*
G36*
X33584Y28444D02*
X32993D01*
X32447Y28218D01*
X32029Y27800D01*
X31803Y27254D01*
Y26663D01*
X32029Y26117D01*
X32447Y25699D01*
X32993Y25473D01*
X33584D01*
X34130Y25699D01*
X34548Y26117D01*
X34774Y26663D01*
Y27254D01*
X34548Y27800D01*
X34130Y28218D01*
X33584Y28444D01*
D02*
G37*
G36*
X37367Y26263D02*
X36776D01*
X36230Y26037D01*
X35812Y25618D01*
X35586Y25072D01*
Y24481D01*
X35812Y23935D01*
X36230Y23517D01*
X36776Y23291D01*
X37367D01*
X37913Y23517D01*
X38331Y23935D01*
X38557Y24481D01*
Y25072D01*
X38331Y25618D01*
X38286Y25664D01*
X37913Y26037D01*
X37367Y26263D01*
D02*
G37*
G36*
X45595Y22286D02*
X45004D01*
X44458Y22060D01*
X44040Y21642D01*
X43814Y21096D01*
Y20504D01*
X44040Y19958D01*
X44458Y19540D01*
X45004Y19314D01*
X45595D01*
X46142Y19540D01*
X46560Y19958D01*
X46786Y20504D01*
Y21096D01*
X46560Y21642D01*
X46142Y22060D01*
X45595Y22286D01*
D02*
G37*
G36*
X22796Y18651D02*
X22205D01*
X21659Y18425D01*
X21241Y18007D01*
X21015Y17461D01*
Y16870D01*
X21241Y16324D01*
X21659Y15906D01*
X22205Y15679D01*
X22796D01*
X23342Y15906D01*
X23760Y16324D01*
X23987Y16870D01*
Y17461D01*
X23760Y18007D01*
X23342Y18425D01*
X22796Y18651D01*
D02*
G37*
G36*
X35131Y12747D02*
X18900D01*
Y8900D01*
X35131D01*
Y12747D01*
D02*
G37*
%LPD*%
G36*
X31240Y12145D02*
X31264D01*
X31294Y12142D01*
X31325Y12140D01*
X31362Y12136D01*
X31399Y12131D01*
X31440Y12125D01*
X31523Y12109D01*
X31567Y12097D01*
X31610Y12086D01*
X31653Y12071D01*
X31693Y12055D01*
X31695Y12053D01*
X31703Y12051D01*
X31714Y12046D01*
X31729Y12038D01*
X31747Y12029D01*
X31767Y12016D01*
X31791Y12003D01*
X31815Y11986D01*
X31843Y11970D01*
X31869Y11949D01*
X31897Y11927D01*
X31925Y11903D01*
X31952Y11877D01*
X31978Y11848D01*
X32004Y11818D01*
X32026Y11785D01*
X32028Y11783D01*
X32032Y11777D01*
X32037Y11766D01*
X32045Y11753D01*
X32054Y11737D01*
X32065Y11716D01*
X32074Y11694D01*
X32087Y11668D01*
X32098Y11640D01*
X32110Y11609D01*
X32121Y11576D01*
X32130Y11541D01*
X32139Y11503D01*
X32147Y11465D01*
X32150Y11424D01*
X32154Y11383D01*
X31828Y11359D01*
Y11363D01*
X31826Y11370D01*
X31825Y11383D01*
X31821Y11400D01*
X31817Y11418D01*
X31812Y11443D01*
X31804Y11468D01*
X31795Y11496D01*
X31786Y11526D01*
X31773Y11555D01*
X31758Y11585D01*
X31741Y11616D01*
X31723Y11646D01*
X31701Y11674D01*
X31677Y11701D01*
X31651Y11726D01*
X31649Y11727D01*
X31643Y11731D01*
X31636Y11737D01*
X31623Y11746D01*
X31606Y11755D01*
X31588Y11764D01*
X31566Y11776D01*
X31540Y11789D01*
X31510Y11800D01*
X31477Y11811D01*
X31440Y11820D01*
X31401Y11831D01*
X31357Y11838D01*
X31310Y11844D01*
X31260Y11848D01*
X31207Y11850D01*
X31177D01*
X31157Y11848D01*
X31131Y11846D01*
X31103Y11844D01*
X31070Y11840D01*
X31037Y11835D01*
X30963Y11822D01*
X30926Y11812D01*
X30889Y11801D01*
X30853Y11789D01*
X30818Y11774D01*
X30787Y11757D01*
X30759Y11737D01*
X30757Y11735D01*
X30754Y11731D01*
X30746Y11726D01*
X30737Y11716D01*
X30728Y11705D01*
X30715Y11692D01*
X30704Y11677D01*
X30691Y11661D01*
X30678Y11642D01*
X30665Y11620D01*
X30643Y11574D01*
X30633Y11550D01*
X30626Y11522D01*
X30622Y11494D01*
X30620Y11465D01*
Y11463D01*
Y11459D01*
Y11452D01*
X30622Y11443D01*
X30624Y11430D01*
X30626Y11417D01*
X30633Y11385D01*
X30644Y11348D01*
X30661Y11311D01*
X30672Y11291D01*
X30687Y11272D01*
X30702Y11254D01*
X30718Y11237D01*
X30720Y11235D01*
X30724Y11233D01*
X30729Y11228D01*
X30741Y11222D01*
X30754Y11213D01*
X30772Y11204D01*
X30792Y11193D01*
X30818Y11180D01*
X30850Y11167D01*
X30885Y11152D01*
X30927Y11137D01*
X30974Y11121D01*
X31027Y11104D01*
X31087Y11087D01*
X31153Y11071D01*
X31227Y11052D01*
X31229D01*
X31233Y11050D01*
X31238D01*
X31246Y11048D01*
X31255Y11047D01*
X31266Y11043D01*
X31294Y11037D01*
X31327Y11028D01*
X31366Y11019D01*
X31408Y11010D01*
X31453Y10997D01*
X31547Y10973D01*
X31593Y10960D01*
X31640Y10945D01*
X31684Y10932D01*
X31725Y10917D01*
X31762Y10904D01*
X31793Y10891D01*
X31795Y10889D01*
X31802Y10886D01*
X31815Y10880D01*
X31830Y10873D01*
X31849Y10862D01*
X31869Y10851D01*
X31893Y10836D01*
X31919Y10819D01*
X31945Y10802D01*
X31973Y10782D01*
X32028Y10738D01*
X32080Y10686D01*
X32102Y10658D01*
X32124Y10628D01*
X32126Y10627D01*
X32130Y10621D01*
X32134Y10612D01*
X32141Y10601D01*
X32149Y10586D01*
X32158Y10567D01*
X32169Y10547D01*
X32178Y10525D01*
X32187Y10499D01*
X32198Y10471D01*
X32208Y10442D01*
X32215Y10408D01*
X32222Y10375D01*
X32228Y10340D01*
X32230Y10305D01*
X32232Y10266D01*
Y10264D01*
Y10257D01*
Y10246D01*
X32230Y10231D01*
X32228Y10212D01*
X32226Y10192D01*
X32222Y10168D01*
X32217Y10140D01*
X32211Y10112D01*
X32202Y10081D01*
X32193Y10050D01*
X32182Y10016D01*
X32169Y9983D01*
X32152Y9948D01*
X32134Y9914D01*
X32113Y9879D01*
X32111Y9877D01*
X32108Y9872D01*
X32100Y9863D01*
X32091Y9850D01*
X32080Y9835D01*
X32065Y9816D01*
X32049Y9798D01*
X32028Y9777D01*
X32006Y9755D01*
X31980Y9733D01*
X31952Y9709D01*
X31923Y9685D01*
X31891Y9663D01*
X31856Y9641D01*
X31819Y9620D01*
X31778Y9600D01*
X31777Y9598D01*
X31769Y9596D01*
X31756Y9591D01*
X31740Y9585D01*
X31719Y9578D01*
X31695Y9568D01*
X31668Y9559D01*
X31636Y9550D01*
X31601Y9541D01*
X31562Y9531D01*
X31521Y9524D01*
X31479Y9515D01*
X31434Y9509D01*
X31386Y9504D01*
X31336Y9502D01*
X31286Y9500D01*
X31253D01*
X31229Y9502D01*
X31199Y9504D01*
X31164Y9505D01*
X31125Y9509D01*
X31083Y9513D01*
X31038Y9518D01*
X30992Y9524D01*
X30894Y9543D01*
X30844Y9554D01*
X30796Y9567D01*
X30748Y9583D01*
X30704Y9600D01*
X30702Y9602D01*
X30692Y9606D01*
X30681Y9611D01*
X30665Y9618D01*
X30644Y9629D01*
X30622Y9642D01*
X30596Y9659D01*
X30570Y9676D01*
X30541Y9696D01*
X30511Y9718D01*
X30480Y9744D01*
X30450Y9772D01*
X30419Y9802D01*
X30389Y9833D01*
X30361Y9868D01*
X30335Y9905D01*
X30334Y9907D01*
X30330Y9914D01*
X30323Y9926D01*
X30315Y9940D01*
X30304Y9961D01*
X30293Y9983D01*
X30280Y10009D01*
X30269Y10038D01*
X30256Y10072D01*
X30243Y10107D01*
X30232Y10146D01*
X30221Y10185D01*
X30211Y10227D01*
X30204Y10272D01*
X30199Y10318D01*
X30197Y10366D01*
X30517Y10394D01*
Y10392D01*
X30519Y10384D01*
Y10375D01*
X30522Y10362D01*
X30524Y10345D01*
X30528Y10325D01*
X30533Y10305D01*
X30539Y10281D01*
X30552Y10231D01*
X30570Y10177D01*
X30593Y10125D01*
X30620Y10075D01*
X30622Y10074D01*
X30624Y10070D01*
X30630Y10064D01*
X30637Y10055D01*
X30644Y10044D01*
X30656Y10033D01*
X30669Y10020D01*
X30683Y10005D01*
X30700Y9990D01*
X30720Y9974D01*
X30741Y9957D01*
X30765Y9940D01*
X30789Y9924D01*
X30816Y9907D01*
X30846Y9892D01*
X30878Y9877D01*
X30879D01*
X30885Y9874D01*
X30896Y9870D01*
X30909Y9866D01*
X30926Y9861D01*
X30944Y9853D01*
X30968Y9846D01*
X30992Y9840D01*
X31020Y9833D01*
X31051Y9826D01*
X31083Y9820D01*
X31118Y9813D01*
X31192Y9805D01*
X31272Y9802D01*
X31290D01*
X31305Y9803D01*
X31321D01*
X31340Y9805D01*
X31362Y9807D01*
X31386Y9809D01*
X31440Y9816D01*
X31497Y9826D01*
X31555Y9840D01*
X31612Y9859D01*
X31614D01*
X31619Y9861D01*
X31627Y9864D01*
X31636Y9870D01*
X31649Y9876D01*
X31662Y9883D01*
X31695Y9900D01*
X31730Y9922D01*
X31767Y9950D01*
X31802Y9981D01*
X31832Y10016D01*
Y10018D01*
X31836Y10022D01*
X31839Y10027D01*
X31843Y10035D01*
X31849Y10044D01*
X31856Y10055D01*
X31869Y10083D01*
X31882Y10114D01*
X31895Y10151D01*
X31902Y10194D01*
X31906Y10236D01*
Y10238D01*
Y10242D01*
Y10247D01*
X31904Y10257D01*
Y10268D01*
X31902Y10279D01*
X31897Y10308D01*
X31889Y10340D01*
X31877Y10375D01*
X31858Y10410D01*
X31834Y10445D01*
Y10447D01*
X31830Y10449D01*
X31821Y10460D01*
X31802Y10477D01*
X31791Y10488D01*
X31778Y10499D01*
X31764Y10510D01*
X31747Y10523D01*
X31729Y10536D01*
X31706Y10549D01*
X31684Y10562D01*
X31658Y10575D01*
X31632Y10586D01*
X31603Y10599D01*
X31601D01*
X31597Y10601D01*
X31592Y10603D01*
X31580Y10606D01*
X31567Y10610D01*
X31553Y10616D01*
X31532Y10621D01*
X31508Y10628D01*
X31479Y10638D01*
X31447Y10647D01*
X31410Y10656D01*
X31368Y10667D01*
X31321Y10680D01*
X31268Y10693D01*
X31211Y10708D01*
X31148Y10723D01*
X31146D01*
X31144Y10725D01*
X31138D01*
X31133Y10727D01*
X31114Y10732D01*
X31090Y10738D01*
X31062Y10745D01*
X31029Y10754D01*
X30992Y10763D01*
X30955Y10775D01*
X30874Y10799D01*
X30792Y10826D01*
X30754Y10841D01*
X30717Y10856D01*
X30685Y10869D01*
X30656Y10884D01*
X30654Y10886D01*
X30648Y10887D01*
X30639Y10893D01*
X30626Y10900D01*
X30611Y10910D01*
X30593Y10923D01*
X30574Y10936D01*
X30552Y10950D01*
X30507Y10984D01*
X30463Y11024D01*
X30419Y11071D01*
X30400Y11097D01*
X30382Y11123D01*
X30380Y11124D01*
X30378Y11130D01*
X30374Y11137D01*
X30369Y11148D01*
X30361Y11161D01*
X30354Y11176D01*
X30347Y11195D01*
X30337Y11215D01*
X30330Y11239D01*
X30321Y11263D01*
X30308Y11317D01*
X30297Y11376D01*
X30295Y11407D01*
X30293Y11441D01*
Y11443D01*
Y11450D01*
Y11459D01*
X30295Y11474D01*
X30297Y11491D01*
X30299Y11511D01*
X30302Y11533D01*
X30306Y11559D01*
X30313Y11587D01*
X30319Y11614D01*
X30328Y11644D01*
X30339Y11676D01*
X30352Y11707D01*
X30367Y11738D01*
X30384Y11772D01*
X30402Y11803D01*
X30404Y11805D01*
X30408Y11811D01*
X30413Y11820D01*
X30422Y11831D01*
X30433Y11846D01*
X30448Y11861D01*
X30465Y11879D01*
X30483Y11898D01*
X30504Y11918D01*
X30528Y11940D01*
X30554Y11960D01*
X30583Y11983D01*
X30615Y12003D01*
X30648Y12023D01*
X30683Y12042D01*
X30722Y12059D01*
X30724Y12060D01*
X30731Y12062D01*
X30742Y12066D01*
X30759Y12073D01*
X30779Y12079D01*
X30802Y12086D01*
X30829Y12096D01*
X30861Y12103D01*
X30894Y12112D01*
X30929Y12120D01*
X30968Y12127D01*
X31009Y12134D01*
X31053Y12140D01*
X31098Y12144D01*
X31144Y12145D01*
X31192Y12147D01*
X31220D01*
X31240Y12145D01*
D02*
G37*
G36*
X23404D02*
X23429D01*
X23457Y12142D01*
X23489Y12140D01*
X23524Y12136D01*
X23563Y12131D01*
X23601Y12125D01*
X23686Y12109D01*
X23729Y12099D01*
X23774Y12086D01*
X23816Y12073D01*
X23859Y12057D01*
X23860Y12055D01*
X23868Y12053D01*
X23881Y12048D01*
X23896Y12040D01*
X23914Y12031D01*
X23936Y12020D01*
X23960Y12007D01*
X23988Y11992D01*
X24016Y11973D01*
X24044Y11955D01*
X24103Y11912D01*
X24160Y11862D01*
X24188Y11835D01*
X24212Y11805D01*
X24214Y11803D01*
X24217Y11798D01*
X24225Y11789D01*
X24232Y11776D01*
X24243Y11761D01*
X24256Y11740D01*
X24269Y11718D01*
X24284Y11692D01*
X24299Y11665D01*
X24316Y11631D01*
X24332Y11598D01*
X24347Y11561D01*
X24364Y11520D01*
X24378Y11478D01*
X24393Y11433D01*
X24406Y11385D01*
X24101Y11302D01*
Y11304D01*
X24099Y11311D01*
X24095Y11320D01*
X24090Y11335D01*
X24084Y11350D01*
X24079Y11370D01*
X24069Y11391D01*
X24062Y11415D01*
X24040Y11463D01*
X24016Y11515D01*
X23988Y11565D01*
X23973Y11587D01*
X23957Y11609D01*
X23955Y11611D01*
X23953Y11614D01*
X23947Y11620D01*
X23942Y11627D01*
X23933Y11637D01*
X23922Y11648D01*
X23909Y11661D01*
X23894Y11674D01*
X23877Y11688D01*
X23860Y11703D01*
X23818Y11733D01*
X23768Y11763D01*
X23712Y11789D01*
X23711D01*
X23705Y11792D01*
X23696Y11794D01*
X23685Y11800D01*
X23670Y11805D01*
X23651Y11811D01*
X23631Y11816D01*
X23609Y11824D01*
X23585Y11829D01*
X23557Y11835D01*
X23527Y11840D01*
X23498Y11846D01*
X23431Y11853D01*
X23361Y11857D01*
X23339D01*
X23322Y11855D01*
X23302D01*
X23278Y11853D01*
X23252Y11851D01*
X23224Y11848D01*
X23193Y11844D01*
X23159Y11840D01*
X23093Y11827D01*
X23024Y11809D01*
X22958Y11785D01*
X22956D01*
X22950Y11781D01*
X22941Y11777D01*
X22930Y11772D01*
X22915Y11764D01*
X22898Y11757D01*
X22880Y11746D01*
X22861Y11735D01*
X22817Y11709D01*
X22773Y11676D01*
X22726Y11639D01*
X22686Y11598D01*
X22684Y11596D01*
X22682Y11592D01*
X22676Y11587D01*
X22669Y11577D01*
X22660Y11567D01*
X22651Y11555D01*
X22639Y11541D01*
X22626Y11524D01*
X22601Y11487D01*
X22573Y11444D01*
X22547Y11396D01*
X22523Y11346D01*
X22521Y11344D01*
X22519Y11335D01*
X22514Y11322D01*
X22508Y11306D01*
X22501Y11283D01*
X22493Y11258D01*
X22484Y11226D01*
X22475Y11193D01*
X22466Y11156D01*
X22456Y11117D01*
X22449Y11074D01*
X22442Y11028D01*
X22436Y10982D01*
X22430Y10932D01*
X22429Y10882D01*
X22427Y10830D01*
Y10828D01*
Y10826D01*
Y10815D01*
Y10797D01*
X22429Y10773D01*
X22430Y10743D01*
X22432Y10710D01*
X22436Y10671D01*
X22442Y10630D01*
X22447Y10586D01*
X22454Y10540D01*
X22466Y10492D01*
X22477Y10443D01*
X22490Y10395D01*
X22504Y10347D01*
X22523Y10301D01*
X22543Y10257D01*
X22545Y10255D01*
X22549Y10247D01*
X22556Y10234D01*
X22566Y10220D01*
X22578Y10199D01*
X22593Y10179D01*
X22610Y10155D01*
X22630Y10129D01*
X22654Y10101D01*
X22680Y10074D01*
X22708Y10044D01*
X22739Y10016D01*
X22773Y9988D01*
X22808Y9962D01*
X22847Y9939D01*
X22887Y9916D01*
X22889Y9914D01*
X22898Y9911D01*
X22909Y9905D01*
X22926Y9900D01*
X22946Y9890D01*
X22973Y9881D01*
X23000Y9872D01*
X23032Y9861D01*
X23067Y9850D01*
X23104Y9840D01*
X23143Y9831D01*
X23183Y9822D01*
X23228Y9816D01*
X23272Y9811D01*
X23318Y9807D01*
X23365Y9805D01*
X23387D01*
X23402Y9807D01*
X23422D01*
X23446Y9809D01*
X23472Y9813D01*
X23502Y9816D01*
X23533Y9820D01*
X23566Y9826D01*
X23639Y9840D01*
X23716Y9861D01*
X23755Y9874D01*
X23794Y9888D01*
X23796Y9890D01*
X23803Y9892D01*
X23814Y9898D01*
X23829Y9903D01*
X23846Y9911D01*
X23866Y9920D01*
X23888Y9931D01*
X23912Y9944D01*
X23964Y9970D01*
X24018Y10001D01*
X24069Y10035D01*
X24092Y10051D01*
X24114Y10070D01*
Y10547D01*
X23361D01*
Y10849D01*
X24445D01*
Y9898D01*
X24441Y9896D01*
X24434Y9888D01*
X24421Y9879D01*
X24403Y9864D01*
X24378Y9850D01*
X24352Y9829D01*
X24321Y9809D01*
X24288Y9787D01*
X24249Y9763D01*
X24210Y9739D01*
X24168Y9713D01*
X24121Y9689D01*
X24027Y9641D01*
X23979Y9620D01*
X23929Y9600D01*
X23925Y9598D01*
X23918Y9596D01*
X23903Y9591D01*
X23883Y9585D01*
X23859Y9578D01*
X23831Y9568D01*
X23798Y9559D01*
X23762Y9550D01*
X23722Y9541D01*
X23679Y9531D01*
X23635Y9524D01*
X23588Y9515D01*
X23489Y9504D01*
X23437Y9502D01*
X23385Y9500D01*
X23359D01*
X23348Y9502D01*
X23322D01*
X23289Y9505D01*
X23250Y9509D01*
X23205Y9513D01*
X23157Y9520D01*
X23106Y9530D01*
X23052Y9539D01*
X22995Y9552D01*
X22936Y9568D01*
X22876Y9587D01*
X22817Y9607D01*
X22758Y9633D01*
X22699Y9661D01*
X22695Y9663D01*
X22686Y9668D01*
X22669Y9678D01*
X22649Y9691D01*
X22623Y9707D01*
X22593Y9727D01*
X22560Y9752D01*
X22525Y9779D01*
X22488Y9811D01*
X22449Y9846D01*
X22410Y9883D01*
X22371Y9926D01*
X22334Y9972D01*
X22297Y10020D01*
X22264Y10072D01*
X22232Y10127D01*
X22231Y10131D01*
X22225Y10142D01*
X22218Y10159D01*
X22208Y10181D01*
X22197Y10210D01*
X22183Y10244D01*
X22170Y10284D01*
X22155Y10327D01*
X22140Y10377D01*
X22127Y10429D01*
X22114Y10484D01*
X22101Y10545D01*
X22092Y10608D01*
X22084Y10673D01*
X22079Y10740D01*
X22077Y10810D01*
Y10812D01*
Y10813D01*
Y10819D01*
Y10826D01*
Y10836D01*
X22079Y10847D01*
Y10873D01*
X22083Y10906D01*
X22084Y10945D01*
X22090Y10989D01*
X22097Y11037D01*
X22105Y11089D01*
X22116Y11145D01*
X22127Y11202D01*
X22142Y11261D01*
X22160Y11322D01*
X22181Y11385D01*
X22205Y11446D01*
X22232Y11507D01*
Y11509D01*
X22234Y11511D01*
X22240Y11522D01*
X22249Y11539D01*
X22262Y11561D01*
X22277Y11587D01*
X22297Y11618D01*
X22321Y11653D01*
X22347Y11690D01*
X22377Y11729D01*
X22410Y11768D01*
X22447Y11809D01*
X22488Y11848D01*
X22532Y11886D01*
X22578Y11924D01*
X22628Y11959D01*
X22682Y11990D01*
X22686Y11992D01*
X22695Y11998D01*
X22712Y12005D01*
X22734Y12014D01*
X22761Y12027D01*
X22795Y12040D01*
X22834Y12055D01*
X22876Y12070D01*
X22924Y12083D01*
X22976Y12097D01*
X23032Y12110D01*
X23091Y12123D01*
X23154Y12133D01*
X23219Y12140D01*
X23287Y12145D01*
X23357Y12147D01*
X23385D01*
X23404Y12145D01*
D02*
G37*
G36*
X26963Y9543D02*
X26624D01*
Y10749D01*
X25296D01*
Y9543D01*
X24958D01*
Y12103D01*
X25296D01*
Y11050D01*
X26624D01*
Y12103D01*
X26963D01*
Y9543D01*
D02*
G37*
G36*
X34531Y11801D02*
X33684D01*
Y9543D01*
X33345D01*
Y11801D01*
X32502D01*
Y12103D01*
X34531D01*
Y11801D01*
D02*
G37*
G36*
X21892Y9543D02*
X21507D01*
X21211Y10318D01*
X20136D01*
X19857Y9543D01*
X19500D01*
X20482Y12103D01*
X20845D01*
X21892Y9543D01*
D02*
G37*
G36*
X28683Y12145D02*
X28708D01*
X28739Y12142D01*
X28776Y12138D01*
X28817Y12133D01*
X28861Y12127D01*
X28909Y12118D01*
X28961Y12107D01*
X29015Y12092D01*
X29068Y12075D01*
X29124Y12057D01*
X29179Y12033D01*
X29235Y12007D01*
X29288Y11977D01*
X29292Y11975D01*
X29301Y11970D01*
X29316Y11960D01*
X29335Y11946D01*
X29359Y11929D01*
X29386Y11909D01*
X29416Y11883D01*
X29449Y11855D01*
X29484Y11824D01*
X29520Y11789D01*
X29557Y11750D01*
X29592Y11707D01*
X29627Y11661D01*
X29662Y11613D01*
X29693Y11561D01*
X29723Y11505D01*
X29725Y11502D01*
X29730Y11492D01*
X29738Y11476D01*
X29747Y11452D01*
X29758Y11424D01*
X29771Y11389D01*
X29784Y11350D01*
X29799Y11306D01*
X29812Y11258D01*
X29825Y11204D01*
X29838Y11148D01*
X29849Y11087D01*
X29860Y11024D01*
X29867Y10958D01*
X29871Y10889D01*
X29873Y10819D01*
Y10817D01*
Y10815D01*
Y10810D01*
Y10802D01*
Y10793D01*
X29871Y10780D01*
Y10752D01*
X29867Y10719D01*
X29866Y10680D01*
X29860Y10634D01*
X29853Y10586D01*
X29845Y10532D01*
X29834Y10477D01*
X29821Y10419D01*
X29806Y10360D01*
X29788Y10299D01*
X29768Y10240D01*
X29743Y10181D01*
X29716Y10122D01*
X29714Y10118D01*
X29708Y10109D01*
X29699Y10092D01*
X29686Y10072D01*
X29671Y10046D01*
X29651Y10016D01*
X29627Y9983D01*
X29601Y9948D01*
X29571Y9911D01*
X29538Y9874D01*
X29501Y9835D01*
X29462Y9796D01*
X29418Y9759D01*
X29372Y9722D01*
X29322Y9689D01*
X29270Y9657D01*
X29266Y9655D01*
X29257Y9650D01*
X29240Y9642D01*
X29220Y9633D01*
X29192Y9620D01*
X29161Y9607D01*
X29125Y9593D01*
X29085Y9580D01*
X29039Y9565D01*
X28991Y9550D01*
X28941Y9537D01*
X28885Y9524D01*
X28830Y9515D01*
X28770Y9507D01*
X28709Y9502D01*
X28648Y9500D01*
X28632D01*
X28613Y9502D01*
X28587Y9504D01*
X28556Y9505D01*
X28519Y9509D01*
X28476Y9515D01*
X28432Y9522D01*
X28382Y9531D01*
X28330Y9543D01*
X28276Y9557D01*
X28223Y9574D01*
X28167Y9593D01*
X28110Y9617D01*
X28054Y9642D01*
X28001Y9674D01*
X27997Y9676D01*
X27988Y9681D01*
X27973Y9692D01*
X27955Y9705D01*
X27931Y9724D01*
X27903Y9744D01*
X27873Y9770D01*
X27840Y9798D01*
X27806Y9831D01*
X27770Y9866D01*
X27734Y9905D01*
X27699Y9948D01*
X27664Y9994D01*
X27631Y10042D01*
X27599Y10094D01*
X27570Y10149D01*
X27568Y10153D01*
X27564Y10162D01*
X27557Y10179D01*
X27547Y10203D01*
X27536Y10231D01*
X27523Y10264D01*
X27510Y10301D01*
X27498Y10344D01*
X27483Y10390D01*
X27470Y10440D01*
X27457Y10492D01*
X27446Y10547D01*
X27437Y10606D01*
X27429Y10666D01*
X27425Y10727D01*
X27424Y10789D01*
Y10791D01*
Y10797D01*
Y10806D01*
Y10817D01*
X27425Y10832D01*
Y10851D01*
X27427Y10871D01*
X27429Y10895D01*
X27431Y10921D01*
X27435Y10949D01*
X27438Y10978D01*
X27442Y11010D01*
X27453Y11078D01*
X27466Y11152D01*
X27485Y11232D01*
X27507Y11313D01*
X27535Y11396D01*
X27568Y11479D01*
X27607Y11561D01*
X27653Y11640D01*
X27679Y11679D01*
X27705Y11716D01*
X27734Y11751D01*
X27766Y11787D01*
X27768Y11789D01*
X27770Y11790D01*
X27775Y11796D01*
X27782Y11801D01*
X27790Y11811D01*
X27801Y11820D01*
X27829Y11844D01*
X27862Y11870D01*
X27903Y11901D01*
X27951Y11933D01*
X28005Y11968D01*
X28065Y12001D01*
X28132Y12033D01*
X28204Y12064D01*
X28282Y12092D01*
X28367Y12114D01*
X28456Y12133D01*
X28502Y12138D01*
X28550Y12144D01*
X28598Y12145D01*
X28648Y12147D01*
X28665D01*
X28683Y12145D01*
D02*
G37*
%LPC*%
G36*
X20654Y11835D02*
Y11831D01*
X20652Y11824D01*
X20649Y11811D01*
X20645Y11792D01*
X20640Y11770D01*
X20634Y11744D01*
X20627Y11714D01*
X20619Y11681D01*
X20608Y11644D01*
X20599Y11605D01*
X20588Y11567D01*
X20575Y11524D01*
X20547Y11435D01*
X20516Y11344D01*
X20234Y10593D01*
X21104D01*
X20836Y11302D01*
Y11304D01*
X20834Y11306D01*
X20830Y11317D01*
X20825Y11333D01*
X20815Y11355D01*
X20806Y11383D01*
X20793Y11415D01*
X20782Y11452D01*
X20767Y11491D01*
X20752Y11531D01*
X20738Y11574D01*
X20708Y11663D01*
X20678Y11751D01*
X20665Y11794D01*
X20654Y11835D01*
D02*
G37*
G36*
X28650Y11855D02*
X28633D01*
X28615Y11853D01*
X28591Y11851D01*
X28559Y11848D01*
X28522Y11842D01*
X28482Y11835D01*
X28439Y11824D01*
X28391Y11811D01*
X28341Y11794D01*
X28291Y11774D01*
X28238Y11751D01*
X28186Y11722D01*
X28134Y11688D01*
X28082Y11652D01*
X28032Y11607D01*
X28029Y11603D01*
X28021Y11596D01*
X28008Y11581D01*
X27992Y11559D01*
X27973Y11533D01*
X27951Y11498D01*
X27927Y11459D01*
X27903Y11413D01*
X27879Y11359D01*
X27855Y11298D01*
X27834Y11230D01*
X27814Y11156D01*
X27797Y11074D01*
X27790Y11030D01*
X27784Y10986D01*
X27779Y10937D01*
X27777Y10887D01*
X27773Y10838D01*
Y10784D01*
Y10782D01*
Y10778D01*
Y10773D01*
Y10763D01*
X27775Y10752D01*
Y10740D01*
Y10725D01*
X27777Y10708D01*
X27781Y10669D01*
X27786Y10623D01*
X27793Y10573D01*
X27805Y10519D01*
X27818Y10462D01*
X27834Y10403D01*
X27855Y10342D01*
X27879Y10281D01*
X27906Y10221D01*
X27940Y10162D01*
X27977Y10107D01*
X28021Y10055D01*
X28025Y10051D01*
X28032Y10044D01*
X28047Y10031D01*
X28065Y10014D01*
X28091Y9994D01*
X28119Y9972D01*
X28154Y9948D01*
X28193Y9924D01*
X28236Y9898D01*
X28284Y9874D01*
X28336Y9851D01*
X28391Y9831D01*
X28449Y9815D01*
X28511Y9802D01*
X28578Y9794D01*
X28646Y9790D01*
X28663D01*
X28672Y9792D01*
X28683D01*
X28709Y9794D01*
X28743Y9798D01*
X28780Y9805D01*
X28822Y9813D01*
X28868Y9824D01*
X28916Y9838D01*
X28968Y9855D01*
X29020Y9877D01*
X29072Y9903D01*
X29125Y9935D01*
X29177Y9970D01*
X29227Y10012D01*
X29275Y10059D01*
X29279Y10062D01*
X29287Y10072D01*
X29298Y10086D01*
X29314Y10109D01*
X29333Y10136D01*
X29353Y10170D01*
X29377Y10209D01*
X29399Y10255D01*
X29423Y10307D01*
X29446Y10362D01*
X29466Y10425D01*
X29484Y10493D01*
X29501Y10567D01*
X29512Y10647D01*
X29521Y10730D01*
X29523Y10821D01*
Y10825D01*
Y10834D01*
Y10851D01*
X29521Y10873D01*
X29520Y10900D01*
X29518Y10932D01*
X29514Y10967D01*
X29510Y11006D01*
X29505Y11047D01*
X29497Y11091D01*
X29488Y11135D01*
X29479Y11182D01*
X29466Y11228D01*
X29451Y11274D01*
X29434Y11320D01*
X29416Y11365D01*
X29414Y11367D01*
X29410Y11376D01*
X29405Y11387D01*
X29396Y11404D01*
X29385Y11422D01*
X29372Y11446D01*
X29357Y11470D01*
X29338Y11498D01*
X29318Y11526D01*
X29294Y11555D01*
X29270Y11585D01*
X29242Y11614D01*
X29211Y11644D01*
X29179Y11674D01*
X29144Y11700D01*
X29107Y11726D01*
X29105Y11727D01*
X29098Y11731D01*
X29087Y11737D01*
X29072Y11746D01*
X29052Y11755D01*
X29029Y11766D01*
X29003Y11779D01*
X28974Y11790D01*
X28941Y11803D01*
X28905Y11814D01*
X28868Y11825D01*
X28828Y11835D01*
X28787Y11844D01*
X28743Y11850D01*
X28696Y11853D01*
X28650Y11855D01*
D02*
G37*
%LPD*%
D11*
X19837Y48200D02*
X20637Y49000D01*
X18677Y48200D02*
X17984Y47800D01*
Y47000D01*
X18677Y46600D01*
X20637Y45800D02*
X19837Y46600D01*
X10700Y58388D02*
X11500Y59188D01*
X10640Y58388D02*
X9947Y57988D01*
Y57188D01*
X10640Y56788D01*
X11000Y55188D02*
X11693Y55588D01*
Y56388D01*
X11000Y56788D01*
X10640Y55188D02*
X9947Y54788D01*
Y53988D01*
X10640Y53588D01*
X11500Y52788D02*
X10700Y53588D01*
X13000Y59300D02*
X13800Y58500D01*
X14441Y56900D02*
X15134Y57300D01*
Y58100D01*
X14441Y58500D01*
X13800Y56900D02*
X13107Y56500D01*
Y55700D01*
X13800Y55300D01*
X14520Y53700D02*
X15213Y54100D01*
Y54900D01*
X14520Y55300D01*
X13800Y53700D02*
X13000Y52900D01*
X39586Y37962D02*
X38786Y37162D01*
X40936Y37962D02*
X41629Y38362D01*
Y39162D01*
X40936Y39562D01*
X36636Y41162D02*
X35943Y40762D01*
Y39962D01*
X36636Y39562D01*
X40936Y41162D02*
X41629Y41562D01*
Y42362D01*
X40936Y42762D01*
X36636Y44362D02*
X35943Y43962D01*
Y43162D01*
X36636Y42762D01*
X40936Y44362D02*
X41629Y44762D01*
Y45562D01*
X40936Y45962D01*
X38786Y46762D02*
X39586Y45962D01*
X13203Y62903D02*
X12351Y62675D01*
X11728Y62052D01*
X11500Y61201D01*
X14024Y61603D02*
X13300Y61303D01*
X13000Y60579D01*
X30500Y17000D02*
X31207Y17293D01*
X31500Y18000D01*
X25608Y72892D02*
X25392Y73696D01*
X24804Y74285D01*
X24000Y74500D01*
X38786Y47124D02*
X38501Y48188D01*
X37722Y48967D01*
X36659Y49251D01*
X27445Y50226D02*
X27730Y49537D01*
X28419Y49251D01*
X19000Y74500D02*
X17939Y74061D01*
X17500Y73000D01*
X12863Y27137D02*
X15146Y24854D01*
X12863Y27137D02*
Y40986D01*
X13000Y41122D02*
Y51000D01*
X12863Y40986D02*
X13000Y41122D01*
X11500Y25974D02*
X15224Y22250D01*
X11500Y52000D02*
Y52488D01*
Y25974D02*
Y52000D01*
X37000Y28500D02*
X38786Y30286D01*
Y32300D01*
X20637Y49000D02*
Y51000D01*
X18677Y48200D02*
X19837D01*
X18677Y46600D02*
X19837D01*
X20637Y45500D02*
Y45800D01*
Y51000D02*
Y52000D01*
Y38248D02*
Y45500D01*
X11500Y59188D02*
Y60600D01*
X10640Y58388D02*
X10700D01*
X10640Y56788D02*
X11000D01*
X10640Y55188D02*
X11000D01*
X10640Y53588D02*
X10700D01*
X11500Y52488D02*
Y52788D01*
Y60600D02*
Y61201D01*
X13000Y60579D02*
X13000D01*
Y59300D02*
Y60579D01*
X13800Y58500D02*
X14441D01*
X13800Y56900D02*
X14441D01*
X13800Y55300D02*
X14520D01*
X13800Y53700D02*
X14520D01*
X13000Y51000D02*
Y52900D01*
X38786Y35348D02*
Y37162D01*
X39586Y37962D02*
X40936D01*
X36636Y39562D02*
X40936D01*
X36636Y41162D02*
X40936D01*
X36636Y42762D02*
X40936D01*
X36636Y44362D02*
X40936D01*
X39586Y45962D02*
X40936D01*
X38786Y46762D02*
Y47062D01*
Y35000D02*
Y35348D01*
Y47062D02*
Y47124D01*
Y32300D02*
Y35000D01*
X21363Y25929D02*
X22500Y27066D01*
X20637Y38248D02*
X22500Y36384D01*
Y27066D02*
Y36384D01*
X25608Y34974D02*
Y72892D01*
X25613Y27654D02*
Y34968D01*
X25608Y34974D02*
X25613Y34968D01*
X23149Y25189D02*
X25613Y27654D01*
X21363Y22637D02*
Y25929D01*
Y22637D02*
X27000Y17000D01*
X30500D01*
X30368Y21035D02*
X31500Y19903D01*
X30368Y21035D02*
Y21296D01*
X31500Y18000D02*
Y19903D01*
X13203Y62903D02*
X21803D01*
X14024Y61603D02*
X21771D01*
X21803Y62903D02*
X22375Y63475D01*
X21771Y61603D02*
X22338Y61036D01*
X15224Y22250D02*
X15327D01*
X19000Y74500D02*
X24000D01*
X27394Y51500D02*
X27445Y51449D01*
Y50226D02*
Y51449D01*
X28419Y49251D02*
X36659D01*
D17*
X14649Y31848D02*
D03*
X47741Y19405D02*
D03*
X37000Y28500D02*
D03*
X53500Y13500D02*
D03*
Y15500D02*
D03*
Y17500D02*
D03*
X45000Y43000D02*
D03*
X45500Y66500D02*
D03*
X46000Y58000D02*
D03*
X9000Y25500D02*
D03*
X53500Y37000D02*
D03*
Y43000D02*
D03*
Y31000D02*
D03*
X9000Y31500D02*
D03*
Y19500D02*
D03*
X9500Y39000D02*
D03*
X15000Y49000D02*
D03*
X11879Y65001D02*
D03*
X19000Y65000D02*
D03*
Y59500D02*
D03*
X27500Y47000D02*
D03*
X36000D02*
D03*
X55000Y64000D02*
D03*
Y66500D02*
D03*
Y69000D02*
D03*
Y71500D02*
D03*
X42000Y75000D02*
D03*
X39500D02*
D03*
X37000D02*
D03*
X34500D02*
D03*
X13000D02*
D03*
X10500D02*
D03*
X8000D02*
D03*
X7000Y51500D02*
D03*
Y48500D02*
D03*
Y45500D02*
D03*
Y43000D02*
D03*
X15500Y10000D02*
D03*
X13000D02*
D03*
X10500D02*
D03*
X8000D02*
D03*
X37000D02*
D03*
X39500D02*
D03*
X42000D02*
D03*
X44500D02*
D03*
X53500Y19500D02*
D03*
X45000Y31000D02*
D03*
X20637Y52000D02*
D03*
X22375Y63475D02*
D03*
X22338Y61036D02*
D03*
X17500Y73000D02*
D03*
X27394Y51500D02*
D03*
X54628Y52307D02*
D03*
X42586Y52197D02*
D03*
X35417Y51445D02*
D03*
X37000Y33652D02*
D03*
X15146Y24854D02*
D03*
X30368Y21296D02*
D03*
X23149Y25189D02*
D03*
X37194Y21500D02*
D03*
X28559Y26648D02*
D03*
X15327Y22250D02*
D03*
M02*
