M48
;Layer_Color=9474304
;FILE_FORMAT=2:5
INCH,LZ
;TYPE=PLATED
T1F00S00C0.00787
%
T01
X0008Y001
X00105
X0013
X00155
X0015Y00195
X0015327Y002225
X0015146Y0024854
X0009Y00255
Y00315
X0014649Y0031848
X0020331Y0027725
X0023149Y0025189
X0024691Y0023378
X0026815Y0024944
X0028559Y0026648
X00285Y00305
X0034359Y003153
X0037Y0033652
Y00285
X0037072Y0024777
X0037194Y00215
X0032739Y0021236
X0030368Y0021296
X0028018Y0019127
X0022501Y0017165
X0009Y00195
X00095Y0039
X0007Y0043
Y00455
Y00485
Y00515
X0015Y0049
X0020637Y0052
X0023822Y0052112
X0027394Y00515
X00275Y0047
X0030148Y0047466
X0033
X0036Y0047
X0035417Y0051445
X0037865Y0051331
X0042586Y0052197
X0042Y00485
X0045Y0043
X00535
Y0037
Y0031
X0045
X00453Y00208
X0047741Y0019405
X00535Y00195
Y00175
Y00155
Y00135
X00445Y001
X0042
X00395
X0037
X0033288Y0026959
X0023Y00475
X0022338Y0061036
X0022375Y0063475
X0019Y0065
Y00595
X0011879Y0065001
X0013Y0075
X00105
X0008
X00175Y0073
X00205Y0072
X00345Y0075
X0037
X00395
X0042
X00455Y00665
X0046Y0058
X00405Y00615
X003008Y0064326
X0055Y0064
Y00665
Y0069
Y00715
X0054628Y0052307
M30
