M48
;Layer_Color=9474304
;FILE_FORMAT=2:5
INCH,LZ
;TYPE=PLATED
T1F00S00C0.00787
%
T01
X0037933Y0034317
X0042843Y0034283
X004813Y0030104
X0048863Y0038399
X0052261Y0038436
X003787Y0041534
X0038184Y005598
X0040877Y0056316
X0045Y0055
X0052Y00625
X0055Y00755
X00485Y0077
X0050534Y0022063
X0056518Y0021883
X0031774Y0024191
X003177Y0028966
X0034001Y0028108
X00295Y0028
X0025199Y0028575
X0026527Y003054
X0023413Y0030135
X002397Y0033268
X0019687Y0033079
X0017083Y0032923
X0014091Y003153
X0009274Y002923
X0012391Y0023741
X001706Y0023808
X0026Y002
X0031Y0017
X0033Y0032
X003151Y0037759
X0022176Y0035987
X0017317Y0038788
X0009061Y0038239
X0009091Y0047417
X0009228Y0054856
X0009183Y0063973
X001Y0075
X0018Y0074
X00185Y00675
X0025821Y0069195
X00305Y0069
X0031924Y0063522
X0028673Y0063712
X0030304Y0056316
X00255Y00565
X002239Y005671
X0022959Y0051455
X0016537Y0049113
X0035Y0057
X0031876Y0077429
X0028582Y0076951
M30
