G04*
G04 #@! TF.GenerationSoftware,Altium Limited,Altium Designer,22.2.1 (43)*
G04*
G04 Layer_Color=16711935*
%FSLAX25Y25*%
%MOIN*%
G70*
G04*
G04 #@! TF.SameCoordinates,7A19E3BE-6BE7-4922-87A8-EFF1A209D318*
G04*
G04*
G04 #@! TF.FilePolarity,Negative*
G04*
G01*
G75*
%ADD19R,0.00906X0.03937*%
%ADD21R,0.02959X0.02762*%
%ADD22R,0.02762X0.02959*%
D19*
X20827Y60500D02*
D03*
X22402D02*
D03*
X23976D02*
D03*
X25551D02*
D03*
X27126D02*
D03*
X28701D02*
D03*
X30276D02*
D03*
X31850D02*
D03*
X33425D02*
D03*
X35000D02*
D03*
X36575D02*
D03*
X39724D02*
D03*
X41299D02*
D03*
X42874D02*
D03*
X44449D02*
D03*
X46024D02*
D03*
X38150D02*
D03*
X46024Y73886D02*
D03*
X44449D02*
D03*
X42874D02*
D03*
X41299D02*
D03*
X39724D02*
D03*
X38150D02*
D03*
X36575D02*
D03*
X35000D02*
D03*
X33425D02*
D03*
X31850D02*
D03*
X30276D02*
D03*
X28701D02*
D03*
X27126D02*
D03*
X25551D02*
D03*
X23976D02*
D03*
X22402D02*
D03*
X20827D02*
D03*
D21*
X44500Y42500D02*
D03*
Y45847D02*
D03*
X52191Y48484D02*
D03*
Y51831D02*
D03*
X37925Y30303D02*
D03*
Y26956D02*
D03*
X42303Y30303D02*
D03*
Y26956D02*
D03*
X40331Y45847D02*
D03*
Y42500D02*
D03*
X50447Y33373D02*
D03*
Y30026D02*
D03*
X54646Y33373D02*
D03*
Y30026D02*
D03*
D22*
X52201Y40500D02*
D03*
X48854D02*
D03*
X48854Y44543D02*
D03*
X52201D02*
D03*
M02*
