G04*
G04 #@! TF.GenerationSoftware,Altium Limited,Altium Designer,22.2.1 (43)*
G04*
G04 Layer_Color=32896*
%FSLAX25Y25*%
%MOIN*%
G70*
G04*
G04 #@! TF.SameCoordinates,7A19E3BE-6BE7-4922-87A8-EFF1A209D318*
G04*
G04*
G04 #@! TF.FilePolarity,Positive*
G04*
G01*
G75*
%ADD23C,0.00787*%
%ADD24C,0.00500*%
G36*
X57051Y53114D02*
X57117Y53110D01*
X57182Y53102D01*
X57243Y53095D01*
X57304Y53084D01*
X57360Y53073D01*
X57414Y53060D01*
X57463Y53047D01*
X57508Y53036D01*
X57548Y53023D01*
X57584Y53012D01*
X57613Y53001D01*
X57637Y52993D01*
X57654Y52986D01*
X57665Y52982D01*
X57667Y52980D01*
X57669D01*
X57726Y52955D01*
X57782Y52925D01*
X57832Y52894D01*
X57880Y52862D01*
X57922Y52829D01*
X57963Y52795D01*
X57998Y52764D01*
X58031Y52732D01*
X58061Y52703D01*
X58085Y52675D01*
X58107Y52651D01*
X58124Y52629D01*
X58137Y52610D01*
X58148Y52597D01*
X58153Y52590D01*
X58155Y52586D01*
X58185Y52536D01*
X58211Y52483D01*
X58233Y52427D01*
X58253Y52372D01*
X58268Y52316D01*
X58283Y52259D01*
X58294Y52205D01*
X58303Y52152D01*
X58309Y52104D01*
X58314Y52057D01*
X58318Y52017D01*
X58322Y51981D01*
Y51954D01*
X58324Y51941D01*
Y51913D01*
X58322Y51839D01*
X58314Y51769D01*
X58303Y51702D01*
X58290Y51637D01*
X58274Y51578D01*
X58255Y51523D01*
X58235Y51471D01*
X58214Y51425D01*
X58194Y51382D01*
X58174Y51345D01*
X58155Y51312D01*
X58139Y51286D01*
X58126Y51264D01*
X58115Y51249D01*
X58107Y51240D01*
X58105Y51236D01*
X58061Y51186D01*
X58015Y51140D01*
X57965Y51097D01*
X57913Y51058D01*
X57859Y51023D01*
X57807Y50992D01*
X57756Y50964D01*
X57704Y50940D01*
X57656Y50918D01*
X57611Y50899D01*
X57573Y50884D01*
X57537Y50871D01*
X57510Y50862D01*
X57497Y50858D01*
X57487Y50857D01*
X57480Y50855D01*
X57474Y50853D01*
X57471Y50851D01*
X57469D01*
X57384Y51190D01*
X57443Y51204D01*
X57497Y51221D01*
X57548Y51240D01*
X57595Y51262D01*
X57639Y51282D01*
X57680Y51306D01*
X57715Y51328D01*
X57748Y51351D01*
X57776Y51371D01*
X57802Y51391D01*
X57822Y51410D01*
X57839Y51426D01*
X57854Y51439D01*
X57863Y51449D01*
X57869Y51456D01*
X57870Y51458D01*
X57898Y51497D01*
X57924Y51536D01*
X57946Y51576D01*
X57965Y51617D01*
X57980Y51658D01*
X57993Y51698D01*
X58004Y51737D01*
X58013Y51774D01*
X58020Y51807D01*
X58024Y51841D01*
X58028Y51869D01*
X58031Y51893D01*
Y51913D01*
X58033Y51928D01*
Y51941D01*
X58031Y51983D01*
X58028Y52026D01*
X58022Y52066D01*
X58015Y52107D01*
X58005Y52144D01*
X57994Y52181D01*
X57985Y52214D01*
X57972Y52246D01*
X57961Y52274D01*
X57952Y52300D01*
X57941Y52322D01*
X57932Y52340D01*
X57924Y52355D01*
X57919Y52366D01*
X57915Y52374D01*
X57913Y52376D01*
X57889Y52412D01*
X57863Y52446D01*
X57835Y52477D01*
X57806Y52507D01*
X57776Y52533D01*
X57745Y52557D01*
X57715Y52579D01*
X57687Y52599D01*
X57660Y52616D01*
X57634Y52631D01*
X57610Y52644D01*
X57589Y52653D01*
X57573Y52662D01*
X57561Y52668D01*
X57552Y52670D01*
X57550Y52671D01*
X57504Y52688D01*
X57456Y52703D01*
X57408Y52716D01*
X57358Y52725D01*
X57264Y52744D01*
X57217Y52749D01*
X57173Y52755D01*
X57134Y52758D01*
X57097Y52760D01*
X57064Y52762D01*
X57036Y52764D01*
X57012Y52766D01*
X56995D01*
X56984D01*
X56981D01*
X56932Y52764D01*
X56886Y52762D01*
X56797Y52753D01*
X56755Y52747D01*
X56714Y52740D01*
X56675Y52732D01*
X56640Y52725D01*
X56607Y52718D01*
X56577Y52712D01*
X56551Y52705D01*
X56529Y52699D01*
X56512Y52694D01*
X56500Y52690D01*
X56490Y52686D01*
X56489D01*
X56444Y52670D01*
X56403Y52651D01*
X56365Y52631D01*
X56329Y52609D01*
X56294Y52586D01*
X56263Y52564D01*
X56235Y52540D01*
X56209Y52518D01*
X56187Y52496D01*
X56167Y52475D01*
X56150Y52457D01*
X56135Y52440D01*
X56124Y52427D01*
X56115Y52418D01*
X56111Y52411D01*
X56109Y52409D01*
X56083Y52370D01*
X56063Y52329D01*
X56043Y52289D01*
X56026Y52248D01*
X56013Y52205D01*
X56002Y52165D01*
X55993Y52126D01*
X55985Y52087D01*
X55978Y52052D01*
X55974Y52018D01*
X55971Y51989D01*
X55969Y51963D01*
X55967Y51943D01*
Y51915D01*
X55969Y51867D01*
X55972Y51822D01*
X55978Y51780D01*
X55987Y51739D01*
X55996Y51702D01*
X56007Y51667D01*
X56019Y51635D01*
X56030Y51606D01*
X56043Y51580D01*
X56054Y51556D01*
X56065Y51536D01*
X56074Y51519D01*
X56083Y51506D01*
X56089Y51497D01*
X56093Y51491D01*
X56094Y51489D01*
X56120Y51458D01*
X56148Y51428D01*
X56179Y51402D01*
X56211Y51376D01*
X56246Y51352D01*
X56279Y51332D01*
X56313Y51312D01*
X56346Y51295D01*
X56378Y51280D01*
X56407Y51266D01*
X56433Y51254D01*
X56455Y51245D01*
X56476Y51238D01*
X56489Y51232D01*
X56498Y51230D01*
X56501Y51228D01*
X56424Y50896D01*
X56359Y50916D01*
X56298Y50942D01*
X56241Y50968D01*
X56187Y50997D01*
X56139Y51027D01*
X56093Y51056D01*
X56052Y51088D01*
X56015Y51117D01*
X55982Y51147D01*
X55954Y51173D01*
X55928Y51197D01*
X55909Y51219D01*
X55893Y51236D01*
X55882Y51251D01*
X55874Y51258D01*
X55872Y51262D01*
X55837Y51312D01*
X55808Y51363D01*
X55782Y51419D01*
X55760Y51473D01*
X55739Y51526D01*
X55724Y51580D01*
X55712Y51632D01*
X55700Y51682D01*
X55693Y51730D01*
X55687Y51772D01*
X55682Y51809D01*
X55680Y51843D01*
X55678Y51870D01*
X55676Y51881D01*
Y51907D01*
X55678Y51970D01*
X55684Y52031D01*
X55691Y52091D01*
X55700Y52148D01*
X55712Y52202D01*
X55726Y52253D01*
X55739Y52302D01*
X55754Y52346D01*
X55769Y52385D01*
X55782Y52422D01*
X55795Y52453D01*
X55808Y52479D01*
X55817Y52501D01*
X55824Y52516D01*
X55830Y52525D01*
X55832Y52529D01*
X55863Y52581D01*
X55897Y52629D01*
X55932Y52673D01*
X55969Y52716D01*
X56006Y52755D01*
X56043Y52790D01*
X56081Y52823D01*
X56117Y52851D01*
X56150Y52877D01*
X56183Y52901D01*
X56211Y52919D01*
X56235Y52936D01*
X56257Y52947D01*
X56272Y52956D01*
X56281Y52962D01*
X56285Y52964D01*
X56342Y52990D01*
X56400Y53014D01*
X56459Y53034D01*
X56518Y53051D01*
X56577Y53066D01*
X56637Y53079D01*
X56692Y53088D01*
X56744Y53097D01*
X56794Y53102D01*
X56840Y53108D01*
X56881Y53110D01*
X56916Y53114D01*
X56944D01*
X56955Y53115D01*
X56964D01*
X56971D01*
X56977D01*
X56981D01*
X56982D01*
X57051Y53114D01*
D02*
G37*
G36*
X56056Y49288D02*
X56107Y49332D01*
X56163Y49377D01*
X56276Y49460D01*
X56333Y49499D01*
X56389Y49538D01*
X56442Y49573D01*
X56494Y49604D01*
X56542Y49634D01*
X56586Y49661D01*
X56627Y49684D01*
X56660Y49704D01*
X56688Y49719D01*
X56699Y49726D01*
X56709Y49732D01*
X56718Y49736D01*
X56723Y49739D01*
X56725Y49741D01*
X56727D01*
X56801Y49780D01*
X56877Y49815D01*
X56951Y49850D01*
X57023Y49882D01*
X57093Y49909D01*
X57162Y49937D01*
X57227Y49961D01*
X57288Y49983D01*
X57345Y50002D01*
X57395Y50019D01*
X57441Y50033D01*
X57478Y50045D01*
X57495Y50050D01*
X57510Y50054D01*
X57523Y50057D01*
X57534Y50061D01*
X57541Y50063D01*
X57547Y50065D01*
X57550Y50067D01*
X57552D01*
X57630Y50087D01*
X57706Y50104D01*
X57778Y50118D01*
X57846Y50133D01*
X57911Y50144D01*
X57970Y50154D01*
X58026Y50161D01*
X58078Y50167D01*
X58122Y50172D01*
X58163Y50176D01*
X58198Y50179D01*
X58227Y50181D01*
X58250D01*
X58268Y50183D01*
X58277D01*
X58281D01*
Y49859D01*
X58211Y49854D01*
X58140Y49847D01*
X58074Y49839D01*
X58011Y49830D01*
X57950Y49821D01*
X57891Y49810D01*
X57837Y49800D01*
X57787Y49789D01*
X57741Y49780D01*
X57700Y49771D01*
X57665Y49761D01*
X57634Y49754D01*
X57610Y49749D01*
X57593Y49743D01*
X57582Y49741D01*
X57578Y49739D01*
X57493Y49713D01*
X57408Y49686D01*
X57327Y49658D01*
X57247Y49626D01*
X57169Y49597D01*
X57097Y49565D01*
X57027Y49536D01*
X56962Y49506D01*
X56903Y49478D01*
X56851Y49452D01*
X56805Y49428D01*
X56783Y49419D01*
X56764Y49408D01*
X56748Y49401D01*
X56733Y49391D01*
X56720Y49386D01*
X56709Y49380D01*
X56701Y49375D01*
X56696Y49371D01*
X56692Y49369D01*
X56690D01*
X56611Y49325D01*
X56537Y49279D01*
X56466Y49236D01*
X56400Y49192D01*
X56339Y49151D01*
X56281Y49110D01*
X56230Y49071D01*
X56183Y49036D01*
X56141Y49005D01*
X56104Y48975D01*
X56072Y48949D01*
X56046Y48927D01*
X56026Y48909D01*
X56009Y48896D01*
X56002Y48886D01*
X55998Y48884D01*
X55754D01*
Y50542D01*
X56056D01*
Y49288D01*
D02*
G37*
G36*
X58285Y41212D02*
X57147D01*
Y40774D01*
X57149Y40735D01*
X57151Y40702D01*
X57153Y40676D01*
X57156Y40657D01*
X57158Y40642D01*
X57160Y40633D01*
Y40631D01*
X57169Y40602D01*
X57178Y40574D01*
X57191Y40548D01*
X57203Y40526D01*
X57212Y40505D01*
X57221Y40491D01*
X57227Y40481D01*
X57228Y40478D01*
X57249Y40448D01*
X57275Y40418D01*
X57304Y40391D01*
X57332Y40363D01*
X57358Y40341D01*
X57380Y40322D01*
X57389Y40315D01*
X57395Y40309D01*
X57399Y40308D01*
X57401Y40306D01*
X57425Y40287D01*
X57450Y40267D01*
X57506Y40226D01*
X57565Y40185D01*
X57622Y40147D01*
X57648Y40130D01*
X57673Y40113D01*
X57695Y40099D01*
X57715Y40086D01*
X57730Y40076D01*
X57743Y40069D01*
X57750Y40063D01*
X57752Y40062D01*
X58285Y39723D01*
Y39299D01*
X57589Y39741D01*
X57515Y39791D01*
X57482Y39817D01*
X57449Y39841D01*
X57419Y39865D01*
X57391Y39889D01*
X57365Y39912D01*
X57341Y39932D01*
X57319Y39950D01*
X57301Y39969D01*
X57286Y39984D01*
X57271Y39997D01*
X57262Y40008D01*
X57253Y40015D01*
X57249Y40021D01*
X57247Y40023D01*
X57223Y40052D01*
X57201Y40084D01*
X57178Y40117D01*
X57160Y40150D01*
X57143Y40180D01*
X57136Y40193D01*
X57130Y40204D01*
X57125Y40213D01*
X57123Y40221D01*
X57119Y40224D01*
Y40226D01*
X57108Y40159D01*
X57095Y40097D01*
X57079Y40039D01*
X57062Y39986D01*
X57042Y39937D01*
X57023Y39891D01*
X57003Y39852D01*
X56982Y39815D01*
X56962Y39784D01*
X56944Y39758D01*
X56927Y39734D01*
X56912Y39715D01*
X56899Y39701D01*
X56890Y39690D01*
X56884Y39684D01*
X56883Y39682D01*
X56847Y39651D01*
X56809Y39623D01*
X56771Y39599D01*
X56733Y39579D01*
X56694Y39562D01*
X56655Y39547D01*
X56618Y39536D01*
X56583Y39527D01*
X56550Y39519D01*
X56520Y39514D01*
X56492Y39510D01*
X56470Y39507D01*
X56450D01*
X56435Y39505D01*
X56427D01*
X56424D01*
X56385Y39507D01*
X56346Y39508D01*
X56309Y39514D01*
X56274Y39521D01*
X56241Y39529D01*
X56209Y39538D01*
X56179Y39549D01*
X56152Y39558D01*
X56128Y39568D01*
X56106Y39579D01*
X56085Y39588D01*
X56068Y39595D01*
X56056Y39603D01*
X56046Y39606D01*
X56041Y39610D01*
X56039Y39612D01*
X56007Y39632D01*
X55978Y39654D01*
X55952Y39678D01*
X55926Y39701D01*
X55904Y39725D01*
X55884Y39749D01*
X55867Y39773D01*
X55850Y39795D01*
X55837Y39815D01*
X55826Y39836D01*
X55815Y39852D01*
X55808Y39867D01*
X55802Y39880D01*
X55798Y39889D01*
X55795Y39895D01*
Y39897D01*
X55782Y39932D01*
X55771Y39971D01*
X55761Y40012D01*
X55754Y40052D01*
X55741Y40139D01*
X55737Y40182D01*
X55734Y40222D01*
X55730Y40263D01*
X55728Y40298D01*
X55726Y40332D01*
Y40361D01*
X55724Y40383D01*
Y41551D01*
X58285D01*
Y41212D01*
D02*
G37*
G36*
Y37449D02*
X57983D01*
Y38704D01*
X57952Y38683D01*
X57920Y38661D01*
X57893Y38639D01*
X57867Y38618D01*
X57846Y38600D01*
X57830Y38585D01*
X57819Y38576D01*
X57815Y38572D01*
X57796Y38556D01*
X57776Y38533D01*
X57754Y38509D01*
X57728Y38482D01*
X57702Y38452D01*
X57674Y38422D01*
X57621Y38359D01*
X57595Y38330D01*
X57571Y38302D01*
X57548Y38278D01*
X57530Y38254D01*
X57513Y38236D01*
X57502Y38223D01*
X57493Y38213D01*
X57491Y38210D01*
X57439Y38149D01*
X57389Y38091D01*
X57343Y38039D01*
X57301Y37991D01*
X57260Y37947D01*
X57223Y37908D01*
X57190Y37871D01*
X57160Y37840D01*
X57132Y37812D01*
X57108Y37790D01*
X57088Y37769D01*
X57071Y37753D01*
X57058Y37740D01*
X57049Y37732D01*
X57043Y37727D01*
X57042Y37725D01*
X57010Y37699D01*
X56981Y37673D01*
X56951Y37651D01*
X56923Y37631D01*
X56870Y37594D01*
X56845Y37579D01*
X56823Y37566D01*
X56803Y37553D01*
X56784Y37544D01*
X56768Y37534D01*
X56755Y37529D01*
X56744Y37523D01*
X56736Y37520D01*
X56731Y37516D01*
X56729D01*
X56674Y37495D01*
X56620Y37479D01*
X56568Y37468D01*
X56522Y37460D01*
X56501Y37459D01*
X56483Y37457D01*
X56468Y37455D01*
X56453Y37453D01*
X56442D01*
X56435D01*
X56429D01*
X56427D01*
X56372Y37455D01*
X56318Y37462D01*
X56268Y37473D01*
X56220Y37486D01*
X56176Y37503D01*
X56133Y37521D01*
X56094Y37542D01*
X56059Y37560D01*
X56028Y37581D01*
X56000Y37601D01*
X55976Y37620D01*
X55958Y37636D01*
X55941Y37649D01*
X55930Y37660D01*
X55922Y37668D01*
X55920Y37669D01*
X55884Y37712D01*
X55852Y37756D01*
X55826Y37803D01*
X55802Y37851D01*
X55782Y37899D01*
X55765Y37949D01*
X55752Y37995D01*
X55741Y38041D01*
X55732Y38084D01*
X55726Y38124D01*
X55721Y38160D01*
X55719Y38191D01*
X55717Y38217D01*
X55715Y38236D01*
Y38252D01*
X55717Y38319D01*
X55723Y38382D01*
X55732Y38441D01*
X55745Y38496D01*
X55760Y38548D01*
X55776Y38596D01*
X55793Y38639D01*
X55809Y38680D01*
X55828Y38715D01*
X55845Y38746D01*
X55861Y38772D01*
X55876Y38794D01*
X55887Y38811D01*
X55898Y38824D01*
X55904Y38831D01*
X55906Y38833D01*
X55943Y38872D01*
X55983Y38905D01*
X56026Y38937D01*
X56070Y38963D01*
X56117Y38987D01*
X56163Y39007D01*
X56207Y39024D01*
X56252Y39038D01*
X56292Y39050D01*
X56331Y39059D01*
X56366Y39066D01*
X56396Y39072D01*
X56420Y39077D01*
X56438Y39079D01*
X56446D01*
X56451Y39081D01*
X56453D01*
X56455D01*
X56489Y38757D01*
X56444Y38755D01*
X56403Y38752D01*
X56365Y38744D01*
X56327Y38737D01*
X56294Y38726D01*
X56265Y38715D01*
X56235Y38702D01*
X56211Y38689D01*
X56189Y38678D01*
X56168Y38665D01*
X56152Y38654D01*
X56137Y38642D01*
X56128Y38635D01*
X56119Y38628D01*
X56115Y38624D01*
X56113Y38622D01*
X56089Y38596D01*
X56068Y38567D01*
X56050Y38537D01*
X56033Y38508D01*
X56020Y38476D01*
X56009Y38446D01*
X56000Y38417D01*
X55993Y38389D01*
X55987Y38361D01*
X55983Y38337D01*
X55980Y38315D01*
X55978Y38295D01*
X55976Y38280D01*
Y38258D01*
X55978Y38219D01*
X55982Y38182D01*
X55987Y38147D01*
X55996Y38113D01*
X56006Y38084D01*
X56017Y38054D01*
X56028Y38028D01*
X56041Y38004D01*
X56052Y37984D01*
X56065Y37965D01*
X56076Y37949D01*
X56085Y37936D01*
X56094Y37925D01*
X56100Y37917D01*
X56104Y37914D01*
X56106Y37912D01*
X56130Y37888D01*
X56156Y37867D01*
X56181Y37849D01*
X56209Y37834D01*
X56235Y37821D01*
X56261Y37810D01*
X56287Y37801D01*
X56311Y37793D01*
X56333Y37788D01*
X56353Y37784D01*
X56372Y37780D01*
X56389Y37779D01*
X56401Y37777D01*
X56411D01*
X56418D01*
X56420D01*
X56453Y37779D01*
X56487Y37782D01*
X56520Y37790D01*
X56553Y37799D01*
X56618Y37823D01*
X56648Y37838D01*
X56675Y37851D01*
X56701Y37864D01*
X56725Y37879D01*
X56746Y37890D01*
X56764Y37901D01*
X56777Y37912D01*
X56788Y37919D01*
X56796Y37923D01*
X56797Y37925D01*
X56836Y37954D01*
X56879Y37991D01*
X56921Y38030D01*
X56966Y38075D01*
X57012Y38119D01*
X57056Y38167D01*
X57101Y38213D01*
X57143Y38261D01*
X57184Y38306D01*
X57221Y38348D01*
X57256Y38385D01*
X57284Y38421D01*
X57308Y38448D01*
X57317Y38459D01*
X57327Y38469D01*
X57332Y38476D01*
X57338Y38482D01*
X57340Y38485D01*
X57341Y38487D01*
X57382Y38535D01*
X57421Y38581D01*
X57458Y38624D01*
X57493Y38665D01*
X57528Y38702D01*
X57560Y38735D01*
X57589Y38765D01*
X57617Y38792D01*
X57641Y38818D01*
X57663Y38839D01*
X57682Y38857D01*
X57698Y38872D01*
X57711Y38883D01*
X57721Y38890D01*
X57726Y38896D01*
X57728Y38898D01*
X57791Y38948D01*
X57852Y38990D01*
X57909Y39026D01*
X57935Y39042D01*
X57961Y39055D01*
X57983Y39066D01*
X58004Y39077D01*
X58022Y39086D01*
X58039Y39092D01*
X58052Y39098D01*
X58061Y39101D01*
X58066Y39105D01*
X58068D01*
X58107Y39118D01*
X58146Y39127D01*
X58183Y39133D01*
X58214Y39136D01*
X58244Y39138D01*
X58255Y39140D01*
X58266D01*
X58274D01*
X58279D01*
X58283D01*
X58285D01*
Y37449D01*
D02*
G37*
G36*
Y46478D02*
X57147D01*
Y46040D01*
X57149Y46001D01*
X57151Y45968D01*
X57153Y45942D01*
X57156Y45923D01*
X57158Y45908D01*
X57160Y45899D01*
Y45897D01*
X57169Y45868D01*
X57178Y45840D01*
X57191Y45814D01*
X57203Y45792D01*
X57212Y45771D01*
X57221Y45757D01*
X57227Y45747D01*
X57228Y45744D01*
X57249Y45714D01*
X57275Y45684D01*
X57304Y45657D01*
X57332Y45629D01*
X57358Y45607D01*
X57380Y45588D01*
X57389Y45581D01*
X57395Y45575D01*
X57399Y45573D01*
X57401Y45572D01*
X57425Y45553D01*
X57450Y45533D01*
X57506Y45492D01*
X57565Y45451D01*
X57622Y45412D01*
X57648Y45396D01*
X57673Y45379D01*
X57695Y45364D01*
X57715Y45351D01*
X57730Y45342D01*
X57743Y45335D01*
X57750Y45329D01*
X57752Y45327D01*
X58285Y44989D01*
Y44565D01*
X57589Y45007D01*
X57515Y45057D01*
X57482Y45083D01*
X57449Y45107D01*
X57419Y45131D01*
X57391Y45155D01*
X57365Y45178D01*
X57341Y45198D01*
X57319Y45216D01*
X57301Y45235D01*
X57286Y45250D01*
X57271Y45263D01*
X57262Y45274D01*
X57253Y45281D01*
X57249Y45287D01*
X57247Y45289D01*
X57223Y45318D01*
X57201Y45350D01*
X57178Y45383D01*
X57160Y45416D01*
X57143Y45446D01*
X57136Y45459D01*
X57130Y45470D01*
X57125Y45479D01*
X57123Y45487D01*
X57119Y45490D01*
Y45492D01*
X57108Y45426D01*
X57095Y45363D01*
X57079Y45305D01*
X57062Y45252D01*
X57042Y45204D01*
X57023Y45157D01*
X57003Y45118D01*
X56982Y45081D01*
X56962Y45050D01*
X56944Y45024D01*
X56927Y45000D01*
X56912Y44982D01*
X56899Y44967D01*
X56890Y44956D01*
X56884Y44950D01*
X56883Y44948D01*
X56847Y44917D01*
X56809Y44889D01*
X56771Y44865D01*
X56733Y44845D01*
X56694Y44828D01*
X56655Y44813D01*
X56618Y44802D01*
X56583Y44793D01*
X56550Y44785D01*
X56520Y44780D01*
X56492Y44776D01*
X56470Y44772D01*
X56450D01*
X56435Y44771D01*
X56427D01*
X56424D01*
X56385Y44772D01*
X56346Y44774D01*
X56309Y44780D01*
X56274Y44787D01*
X56241Y44795D01*
X56209Y44804D01*
X56179Y44815D01*
X56152Y44824D01*
X56128Y44833D01*
X56106Y44845D01*
X56085Y44854D01*
X56068Y44861D01*
X56056Y44869D01*
X56046Y44872D01*
X56041Y44876D01*
X56039Y44878D01*
X56007Y44898D01*
X55978Y44920D01*
X55952Y44945D01*
X55926Y44967D01*
X55904Y44991D01*
X55884Y45015D01*
X55867Y45039D01*
X55850Y45061D01*
X55837Y45081D01*
X55826Y45102D01*
X55815Y45118D01*
X55808Y45133D01*
X55802Y45146D01*
X55798Y45155D01*
X55795Y45161D01*
Y45163D01*
X55782Y45198D01*
X55771Y45237D01*
X55761Y45278D01*
X55754Y45318D01*
X55741Y45405D01*
X55737Y45448D01*
X55734Y45488D01*
X55730Y45529D01*
X55728Y45564D01*
X55726Y45598D01*
Y45627D01*
X55724Y45649D01*
Y46817D01*
X58285D01*
Y46478D01*
D02*
G37*
G36*
X56640Y44071D02*
X56614Y44014D01*
X56588Y43958D01*
X56563Y43907D01*
X56550Y43884D01*
X56538Y43862D01*
X56527Y43844D01*
X56518Y43829D01*
X56512Y43816D01*
X56507Y43805D01*
X56503Y43799D01*
X56501Y43797D01*
X56461Y43731D01*
X56440Y43701D01*
X56422Y43672D01*
X56401Y43646D01*
X56385Y43622D01*
X56366Y43600D01*
X56352Y43577D01*
X56337Y43561D01*
X56324Y43544D01*
X56311Y43529D01*
X56302Y43518D01*
X56294Y43509D01*
X56289Y43503D01*
X56285Y43500D01*
X56283Y43498D01*
X58285D01*
Y43183D01*
X55715D01*
Y43387D01*
X55747Y43403D01*
X55778Y43422D01*
X55839Y43464D01*
X55897Y43511D01*
X55924Y43535D01*
X55950Y43557D01*
X55972Y43579D01*
X55994Y43600D01*
X56013Y43618D01*
X56030Y43635D01*
X56043Y43648D01*
X56052Y43657D01*
X56057Y43664D01*
X56059Y43666D01*
X56122Y43742D01*
X56179Y43822D01*
X56231Y43899D01*
X56253Y43936D01*
X56276Y43971D01*
X56294Y44003D01*
X56311Y44032D01*
X56326Y44060D01*
X56337Y44082D01*
X56346Y44101D01*
X56353Y44116D01*
X56357Y44123D01*
X56359Y44127D01*
X56662D01*
X56640Y44071D01*
D02*
G37*
G36*
X19135Y69268D02*
X18094D01*
Y68563D01*
X18092Y68515D01*
X18088Y68469D01*
X18084Y68424D01*
X18079Y68382D01*
X18073Y68341D01*
X18058Y68265D01*
X18042Y68199D01*
X18022Y68136D01*
X18001Y68082D01*
X17981Y68034D01*
X17961Y67991D01*
X17940Y67956D01*
X17920Y67927D01*
X17903Y67902D01*
X17888Y67884D01*
X17877Y67871D01*
X17870Y67864D01*
X17868Y67862D01*
X17825Y67825D01*
X17779Y67793D01*
X17733Y67766D01*
X17687Y67742D01*
X17640Y67721D01*
X17594Y67704D01*
X17550Y67690D01*
X17507Y67679D01*
X17468Y67669D01*
X17431Y67664D01*
X17400Y67658D01*
X17370Y67656D01*
X17348Y67655D01*
X17332Y67653D01*
X17320D01*
X17317D01*
X17246Y67656D01*
X17182Y67666D01*
X17150Y67671D01*
X17122Y67677D01*
X17095Y67684D01*
X17071Y67692D01*
X17048Y67699D01*
X17028Y67706D01*
X17010Y67712D01*
X16995Y67717D01*
X16984Y67723D01*
X16974Y67727D01*
X16969Y67729D01*
X16967Y67730D01*
X16912Y67762D01*
X16862Y67795D01*
X16819Y67830D01*
X16801Y67847D01*
X16784Y67862D01*
X16769Y67877D01*
X16756Y67891D01*
X16745Y67904D01*
X16738Y67915D01*
X16730Y67923D01*
X16725Y67930D01*
X16723Y67934D01*
X16721Y67936D01*
X16690Y67986D01*
X16666Y68039D01*
X16643Y68091D01*
X16627Y68141D01*
X16621Y68165D01*
X16615Y68186D01*
X16610Y68204D01*
X16606Y68221D01*
X16604Y68234D01*
X16603Y68243D01*
X16601Y68250D01*
Y68252D01*
X16597Y68278D01*
X16591Y68308D01*
X16586Y68370D01*
X16580Y68435D01*
X16578Y68498D01*
X16577Y68528D01*
Y68554D01*
X16575Y68580D01*
Y69606D01*
X19135D01*
Y69268D01*
D02*
G37*
G36*
X17491Y67053D02*
X17465Y66996D01*
X17439Y66940D01*
X17413Y66889D01*
X17400Y66866D01*
X17389Y66844D01*
X17378Y66826D01*
X17368Y66811D01*
X17363Y66798D01*
X17357Y66787D01*
X17354Y66781D01*
X17352Y66780D01*
X17311Y66713D01*
X17291Y66683D01*
X17272Y66654D01*
X17252Y66628D01*
X17235Y66604D01*
X17217Y66582D01*
X17202Y66559D01*
X17187Y66543D01*
X17174Y66526D01*
X17161Y66511D01*
X17152Y66500D01*
X17145Y66491D01*
X17139Y66485D01*
X17135Y66482D01*
X17133Y66480D01*
X19135D01*
Y66165D01*
X16566D01*
Y66369D01*
X16597Y66386D01*
X16628Y66404D01*
X16690Y66447D01*
X16747Y66493D01*
X16775Y66517D01*
X16801Y66539D01*
X16823Y66561D01*
X16845Y66582D01*
X16863Y66600D01*
X16880Y66617D01*
X16893Y66630D01*
X16902Y66639D01*
X16908Y66646D01*
X16910Y66648D01*
X16973Y66724D01*
X17030Y66804D01*
X17082Y66881D01*
X17104Y66918D01*
X17126Y66953D01*
X17145Y66985D01*
X17161Y67014D01*
X17176Y67042D01*
X17187Y67064D01*
X17196Y67083D01*
X17204Y67098D01*
X17208Y67105D01*
X17209Y67109D01*
X17513D01*
X17491Y67053D01*
D02*
G37*
G36*
X38051Y23114D02*
X38118Y23110D01*
X38182Y23102D01*
X38243Y23095D01*
X38304Y23084D01*
X38360Y23073D01*
X38414Y23060D01*
X38463Y23047D01*
X38508Y23036D01*
X38548Y23023D01*
X38584Y23012D01*
X38613Y23001D01*
X38637Y22993D01*
X38654Y22986D01*
X38665Y22982D01*
X38667Y22980D01*
X38669D01*
X38726Y22954D01*
X38782Y22925D01*
X38832Y22894D01*
X38880Y22862D01*
X38922Y22829D01*
X38963Y22795D01*
X38998Y22764D01*
X39031Y22733D01*
X39061Y22703D01*
X39085Y22675D01*
X39107Y22651D01*
X39124Y22629D01*
X39137Y22610D01*
X39148Y22598D01*
X39154Y22590D01*
X39155Y22586D01*
X39185Y22536D01*
X39211Y22483D01*
X39233Y22427D01*
X39253Y22372D01*
X39268Y22316D01*
X39283Y22259D01*
X39294Y22205D01*
X39303Y22152D01*
X39309Y22104D01*
X39314Y22057D01*
X39318Y22017D01*
X39322Y21981D01*
Y21954D01*
X39324Y21941D01*
Y21913D01*
X39322Y21839D01*
X39314Y21769D01*
X39303Y21702D01*
X39290Y21637D01*
X39274Y21578D01*
X39255Y21523D01*
X39235Y21471D01*
X39215Y21425D01*
X39194Y21382D01*
X39174Y21345D01*
X39155Y21312D01*
X39139Y21286D01*
X39126Y21264D01*
X39115Y21249D01*
X39107Y21240D01*
X39105Y21236D01*
X39061Y21186D01*
X39015Y21140D01*
X38965Y21097D01*
X38913Y21058D01*
X38859Y21023D01*
X38807Y20992D01*
X38756Y20964D01*
X38704Y20940D01*
X38656Y20918D01*
X38611Y20899D01*
X38573Y20884D01*
X38537Y20871D01*
X38510Y20862D01*
X38497Y20858D01*
X38487Y20857D01*
X38480Y20855D01*
X38475Y20853D01*
X38471Y20851D01*
X38469D01*
X38384Y21190D01*
X38443Y21204D01*
X38497Y21221D01*
X38548Y21240D01*
X38595Y21262D01*
X38639Y21282D01*
X38680Y21306D01*
X38715Y21328D01*
X38748Y21351D01*
X38776Y21371D01*
X38802Y21391D01*
X38822Y21410D01*
X38839Y21426D01*
X38854Y21439D01*
X38863Y21449D01*
X38869Y21456D01*
X38870Y21458D01*
X38898Y21497D01*
X38924Y21536D01*
X38946Y21576D01*
X38965Y21617D01*
X38980Y21658D01*
X38993Y21698D01*
X39004Y21737D01*
X39013Y21774D01*
X39020Y21808D01*
X39024Y21841D01*
X39028Y21869D01*
X39031Y21893D01*
Y21913D01*
X39033Y21928D01*
Y21941D01*
X39031Y21983D01*
X39028Y22026D01*
X39022Y22066D01*
X39015Y22107D01*
X39006Y22144D01*
X38994Y22181D01*
X38985Y22215D01*
X38972Y22246D01*
X38961Y22274D01*
X38952Y22300D01*
X38941Y22322D01*
X38932Y22340D01*
X38924Y22355D01*
X38919Y22366D01*
X38915Y22374D01*
X38913Y22376D01*
X38889Y22412D01*
X38863Y22446D01*
X38835Y22477D01*
X38806Y22507D01*
X38776Y22533D01*
X38745Y22557D01*
X38715Y22579D01*
X38687Y22599D01*
X38660Y22616D01*
X38634Y22631D01*
X38610Y22644D01*
X38589Y22653D01*
X38573Y22662D01*
X38561Y22668D01*
X38552Y22670D01*
X38550Y22671D01*
X38504Y22688D01*
X38456Y22703D01*
X38408Y22716D01*
X38358Y22725D01*
X38264Y22744D01*
X38217Y22749D01*
X38173Y22755D01*
X38134Y22758D01*
X38097Y22760D01*
X38064Y22762D01*
X38036Y22764D01*
X38012Y22766D01*
X37995D01*
X37984D01*
X37981D01*
X37933Y22764D01*
X37886Y22762D01*
X37797Y22753D01*
X37755Y22747D01*
X37714Y22740D01*
X37675Y22733D01*
X37640Y22725D01*
X37607Y22718D01*
X37577Y22712D01*
X37551Y22705D01*
X37529Y22699D01*
X37512Y22694D01*
X37500Y22690D01*
X37490Y22686D01*
X37488D01*
X37444Y22670D01*
X37403Y22651D01*
X37365Y22631D01*
X37329Y22609D01*
X37294Y22586D01*
X37263Y22564D01*
X37235Y22540D01*
X37209Y22518D01*
X37187Y22496D01*
X37167Y22475D01*
X37150Y22457D01*
X37135Y22440D01*
X37124Y22427D01*
X37115Y22418D01*
X37111Y22411D01*
X37109Y22409D01*
X37083Y22370D01*
X37063Y22329D01*
X37043Y22288D01*
X37026Y22248D01*
X37013Y22205D01*
X37002Y22165D01*
X36993Y22126D01*
X36985Y22087D01*
X36978Y22052D01*
X36974Y22018D01*
X36970Y21989D01*
X36969Y21963D01*
X36967Y21943D01*
Y21915D01*
X36969Y21867D01*
X36972Y21822D01*
X36978Y21780D01*
X36987Y21739D01*
X36996Y21702D01*
X37007Y21667D01*
X37019Y21635D01*
X37030Y21606D01*
X37043Y21580D01*
X37054Y21556D01*
X37065Y21536D01*
X37074Y21519D01*
X37083Y21506D01*
X37089Y21497D01*
X37093Y21491D01*
X37094Y21489D01*
X37120Y21458D01*
X37148Y21428D01*
X37179Y21402D01*
X37211Y21376D01*
X37246Y21352D01*
X37279Y21332D01*
X37313Y21312D01*
X37346Y21295D01*
X37378Y21280D01*
X37407Y21265D01*
X37433Y21254D01*
X37455Y21245D01*
X37475Y21238D01*
X37488Y21232D01*
X37498Y21230D01*
X37501Y21228D01*
X37424Y20896D01*
X37359Y20916D01*
X37298Y20942D01*
X37241Y20968D01*
X37187Y20997D01*
X37139Y21027D01*
X37093Y21056D01*
X37052Y21088D01*
X37015Y21117D01*
X36982Y21147D01*
X36954Y21173D01*
X36928Y21197D01*
X36909Y21219D01*
X36893Y21236D01*
X36882Y21251D01*
X36874Y21258D01*
X36872Y21262D01*
X36837Y21312D01*
X36808Y21363D01*
X36782Y21419D01*
X36760Y21473D01*
X36739Y21526D01*
X36724Y21580D01*
X36711Y21632D01*
X36700Y21682D01*
X36693Y21730D01*
X36687Y21772D01*
X36682Y21809D01*
X36680Y21843D01*
X36678Y21870D01*
X36676Y21881D01*
Y21907D01*
X36678Y21970D01*
X36684Y22031D01*
X36691Y22091D01*
X36700Y22148D01*
X36711Y22202D01*
X36726Y22253D01*
X36739Y22301D01*
X36754Y22346D01*
X36769Y22385D01*
X36782Y22422D01*
X36795Y22453D01*
X36808Y22479D01*
X36817Y22501D01*
X36824Y22516D01*
X36830Y22525D01*
X36832Y22529D01*
X36863Y22581D01*
X36896Y22629D01*
X36932Y22673D01*
X36969Y22716D01*
X37006Y22755D01*
X37043Y22790D01*
X37082Y22823D01*
X37117Y22851D01*
X37150Y22877D01*
X37183Y22901D01*
X37211Y22919D01*
X37235Y22936D01*
X37257Y22947D01*
X37272Y22956D01*
X37281Y22962D01*
X37285Y22964D01*
X37342Y22990D01*
X37400Y23014D01*
X37459Y23034D01*
X37518Y23051D01*
X37577Y23065D01*
X37637Y23078D01*
X37692Y23088D01*
X37744Y23097D01*
X37794Y23102D01*
X37840Y23108D01*
X37881Y23110D01*
X37916Y23114D01*
X37944D01*
X37955Y23115D01*
X37964D01*
X37971D01*
X37977D01*
X37981D01*
X37982D01*
X38051Y23114D01*
D02*
G37*
G36*
X38204Y20572D02*
X38260Y20570D01*
X38315Y20564D01*
X38367Y20559D01*
X38417Y20553D01*
X38465Y20546D01*
X38511Y20537D01*
X38556Y20527D01*
X38598Y20518D01*
X38637Y20507D01*
X38676Y20498D01*
X38711Y20487D01*
X38747Y20474D01*
X38778Y20463D01*
X38807Y20451D01*
X38835Y20440D01*
X38863Y20427D01*
X38887Y20416D01*
X38909Y20405D01*
X38930Y20396D01*
X38948Y20385D01*
X38980Y20366D01*
X39004Y20350D01*
X39022Y20339D01*
X39031Y20329D01*
X39035Y20327D01*
X39085Y20279D01*
X39129Y20230D01*
X39168Y20176D01*
X39202Y20122D01*
X39229Y20068D01*
X39253Y20017D01*
X39272Y19965D01*
X39287Y19915D01*
X39300Y19867D01*
X39309Y19824D01*
X39314Y19785D01*
X39320Y19752D01*
X39322Y19724D01*
Y19713D01*
X39324Y19704D01*
Y19687D01*
X39322Y19645D01*
X39318Y19602D01*
X39314Y19564D01*
X39307Y19525D01*
X39298Y19489D01*
X39288Y19454D01*
X39279Y19423D01*
X39268Y19395D01*
X39259Y19367D01*
X39250Y19345D01*
X39240Y19325D01*
X39231Y19306D01*
X39224Y19293D01*
X39220Y19282D01*
X39216Y19277D01*
X39215Y19275D01*
X39192Y19242D01*
X39170Y19210D01*
X39144Y19181D01*
X39118Y19155D01*
X39092Y19129D01*
X39066Y19105D01*
X39041Y19084D01*
X39015Y19064D01*
X38991Y19047D01*
X38970Y19033D01*
X38950Y19020D01*
X38932Y19008D01*
X38919Y19001D01*
X38907Y18995D01*
X38900Y18992D01*
X38898Y18990D01*
X38859Y18971D01*
X38819Y18955D01*
X38780Y18942D01*
X38741Y18929D01*
X38702Y18918D01*
X38665Y18910D01*
X38630Y18903D01*
X38597Y18898D01*
X38565Y18894D01*
X38537Y18890D01*
X38513Y18888D01*
X38491Y18886D01*
X38475Y18884D01*
X38462D01*
X38452D01*
X38451D01*
X38384Y18886D01*
X38319Y18894D01*
X38260Y18905D01*
X38203Y18920D01*
X38149Y18936D01*
X38101Y18955D01*
X38055Y18975D01*
X38014Y18995D01*
X37977Y19016D01*
X37945Y19036D01*
X37918Y19055D01*
X37896Y19071D01*
X37877Y19086D01*
X37864Y19097D01*
X37855Y19105D01*
X37853Y19106D01*
X37812Y19149D01*
X37775Y19194D01*
X37746Y19238D01*
X37718Y19282D01*
X37696Y19329D01*
X37677Y19373D01*
X37661Y19415D01*
X37649Y19456D01*
X37640Y19495D01*
X37633Y19530D01*
X37627Y19562D01*
X37624Y19589D01*
X37622Y19610D01*
X37620Y19626D01*
Y19674D01*
X37624Y19708D01*
X37633Y19772D01*
X37648Y19830D01*
X37655Y19858D01*
X37662Y19882D01*
X37670Y19906D01*
X37677Y19926D01*
X37685Y19943D01*
X37692Y19959D01*
X37697Y19971D01*
X37701Y19980D01*
X37703Y19985D01*
X37705Y19987D01*
X37722Y20017D01*
X37740Y20046D01*
X37781Y20098D01*
X37823Y20146D01*
X37844Y20167D01*
X37864Y20185D01*
X37884Y20204D01*
X37903Y20218D01*
X37920Y20231D01*
X37934Y20242D01*
X37945Y20252D01*
X37955Y20257D01*
X37960Y20261D01*
X37962Y20263D01*
X37892Y20261D01*
X37825Y20259D01*
X37764Y20254D01*
X37707Y20248D01*
X37655Y20242D01*
X37605Y20235D01*
X37561Y20226D01*
X37522Y20218D01*
X37487Y20211D01*
X37455Y20204D01*
X37429Y20196D01*
X37409Y20189D01*
X37392Y20183D01*
X37379Y20179D01*
X37372Y20176D01*
X37370D01*
X37333Y20159D01*
X37298Y20141D01*
X37265Y20122D01*
X37233Y20102D01*
X37205Y20083D01*
X37179Y20063D01*
X37156Y20044D01*
X37135Y20026D01*
X37117Y20008D01*
X37100Y19993D01*
X37087Y19978D01*
X37076Y19965D01*
X37067Y19956D01*
X37061Y19946D01*
X37057Y19943D01*
X37056Y19941D01*
X37041Y19919D01*
X37028Y19896D01*
X37006Y19852D01*
X36991Y19808D01*
X36982Y19767D01*
X36978Y19747D01*
X36974Y19730D01*
X36972Y19715D01*
Y19702D01*
X36970Y19691D01*
Y19676D01*
X36972Y19643D01*
X36976Y19610D01*
X36983Y19578D01*
X36991Y19549D01*
X37002Y19521D01*
X37013Y19497D01*
X37026Y19473D01*
X37037Y19451D01*
X37050Y19430D01*
X37063Y19414D01*
X37074Y19399D01*
X37085Y19386D01*
X37093Y19377D01*
X37100Y19369D01*
X37104Y19365D01*
X37106Y19364D01*
X37122Y19349D01*
X37141Y19336D01*
X37183Y19312D01*
X37228Y19291D01*
X37270Y19275D01*
X37311Y19260D01*
X37328Y19256D01*
X37344Y19251D01*
X37355Y19247D01*
X37366Y19245D01*
X37372Y19243D01*
X37374D01*
X37350Y18931D01*
X37296Y18940D01*
X37244Y18951D01*
X37196Y18966D01*
X37152Y18984D01*
X37109Y19001D01*
X37070Y19021D01*
X37035Y19042D01*
X37004Y19062D01*
X36976Y19083D01*
X36952Y19101D01*
X36930Y19118D01*
X36913Y19132D01*
X36900Y19145D01*
X36889Y19155D01*
X36884Y19162D01*
X36882Y19164D01*
X36852Y19201D01*
X36826Y19240D01*
X36802Y19280D01*
X36784Y19323D01*
X36767Y19364D01*
X36752Y19404D01*
X36741Y19445D01*
X36732Y19482D01*
X36726Y19519D01*
X36721Y19552D01*
X36717Y19582D01*
X36713Y19608D01*
Y19628D01*
X36711Y19645D01*
Y19658D01*
X36715Y19732D01*
X36724Y19802D01*
X36739Y19867D01*
X36758Y19930D01*
X36780Y19987D01*
X36804Y20039D01*
X36832Y20087D01*
X36858Y20131D01*
X36885Y20170D01*
X36913Y20205D01*
X36937Y20233D01*
X36959Y20257D01*
X36978Y20278D01*
X36993Y20290D01*
X37002Y20298D01*
X37006Y20302D01*
X37039Y20326D01*
X37074Y20350D01*
X37109Y20372D01*
X37148Y20392D01*
X37229Y20429D01*
X37316Y20461D01*
X37405Y20487D01*
X37494Y20509D01*
X37585Y20527D01*
X37672Y20540D01*
X37755Y20553D01*
X37831Y20561D01*
X37868Y20564D01*
X37901Y20566D01*
X37934Y20570D01*
X37962Y20572D01*
X37990D01*
X38014Y20574D01*
X38034D01*
X38051Y20575D01*
X38066D01*
X38075D01*
X38082D01*
X38084D01*
X38145D01*
X38204Y20572D01*
D02*
G37*
G36*
X42551Y23124D02*
X42617Y23120D01*
X42682Y23113D01*
X42743Y23105D01*
X42804Y23094D01*
X42860Y23083D01*
X42913Y23070D01*
X42963Y23057D01*
X43008Y23046D01*
X43049Y23033D01*
X43084Y23022D01*
X43113Y23011D01*
X43137Y23004D01*
X43154Y22996D01*
X43165Y22992D01*
X43167Y22991D01*
X43169D01*
X43226Y22965D01*
X43282Y22935D01*
X43332Y22904D01*
X43380Y22872D01*
X43422Y22839D01*
X43463Y22806D01*
X43498Y22774D01*
X43531Y22743D01*
X43561Y22713D01*
X43585Y22685D01*
X43607Y22661D01*
X43624Y22639D01*
X43637Y22621D01*
X43648Y22608D01*
X43654Y22600D01*
X43655Y22596D01*
X43685Y22547D01*
X43711Y22493D01*
X43733Y22437D01*
X43753Y22382D01*
X43768Y22326D01*
X43783Y22269D01*
X43794Y22216D01*
X43803Y22162D01*
X43809Y22114D01*
X43814Y22067D01*
X43818Y22027D01*
X43822Y21992D01*
Y21964D01*
X43824Y21951D01*
Y21923D01*
X43822Y21849D01*
X43814Y21779D01*
X43803Y21712D01*
X43790Y21647D01*
X43774Y21588D01*
X43755Y21533D01*
X43735Y21481D01*
X43714Y21435D01*
X43694Y21392D01*
X43674Y21355D01*
X43655Y21322D01*
X43639Y21296D01*
X43626Y21274D01*
X43615Y21259D01*
X43607Y21250D01*
X43605Y21246D01*
X43561Y21196D01*
X43515Y21150D01*
X43465Y21107D01*
X43413Y21068D01*
X43359Y21033D01*
X43308Y21002D01*
X43256Y20974D01*
X43204Y20950D01*
X43156Y20928D01*
X43111Y20909D01*
X43073Y20895D01*
X43037Y20882D01*
X43010Y20872D01*
X42997Y20869D01*
X42987Y20867D01*
X42980Y20865D01*
X42974Y20863D01*
X42971Y20861D01*
X42969D01*
X42884Y21200D01*
X42943Y21215D01*
X42997Y21231D01*
X43049Y21250D01*
X43095Y21272D01*
X43139Y21292D01*
X43180Y21316D01*
X43215Y21339D01*
X43248Y21361D01*
X43276Y21381D01*
X43302Y21401D01*
X43322Y21420D01*
X43339Y21437D01*
X43354Y21450D01*
X43363Y21459D01*
X43369Y21466D01*
X43370Y21468D01*
X43398Y21507D01*
X43424Y21546D01*
X43446Y21586D01*
X43465Y21627D01*
X43480Y21668D01*
X43492Y21709D01*
X43504Y21747D01*
X43513Y21784D01*
X43520Y21818D01*
X43524Y21851D01*
X43528Y21879D01*
X43531Y21903D01*
Y21923D01*
X43533Y21938D01*
Y21951D01*
X43531Y21993D01*
X43528Y22036D01*
X43522Y22077D01*
X43515Y22117D01*
X43505Y22154D01*
X43494Y22191D01*
X43485Y22225D01*
X43472Y22256D01*
X43461Y22284D01*
X43452Y22310D01*
X43441Y22332D01*
X43431Y22351D01*
X43424Y22365D01*
X43418Y22376D01*
X43415Y22384D01*
X43413Y22386D01*
X43389Y22423D01*
X43363Y22456D01*
X43335Y22487D01*
X43306Y22517D01*
X43276Y22543D01*
X43245Y22567D01*
X43215Y22589D01*
X43187Y22610D01*
X43159Y22626D01*
X43134Y22641D01*
X43110Y22654D01*
X43089Y22663D01*
X43073Y22672D01*
X43062Y22678D01*
X43052Y22680D01*
X43050Y22682D01*
X43004Y22698D01*
X42956Y22713D01*
X42908Y22726D01*
X42858Y22735D01*
X42764Y22754D01*
X42717Y22759D01*
X42673Y22765D01*
X42634Y22769D01*
X42597Y22770D01*
X42564Y22772D01*
X42536Y22774D01*
X42512Y22776D01*
X42495D01*
X42484D01*
X42481D01*
X42432Y22774D01*
X42386Y22772D01*
X42297Y22763D01*
X42255Y22758D01*
X42214Y22750D01*
X42175Y22743D01*
X42140Y22735D01*
X42107Y22728D01*
X42077Y22722D01*
X42051Y22715D01*
X42029Y22709D01*
X42013Y22704D01*
X42000Y22700D01*
X41990Y22696D01*
X41989D01*
X41944Y22680D01*
X41903Y22661D01*
X41864Y22641D01*
X41829Y22619D01*
X41794Y22596D01*
X41763Y22574D01*
X41735Y22550D01*
X41709Y22528D01*
X41687Y22506D01*
X41667Y22486D01*
X41650Y22467D01*
X41635Y22450D01*
X41624Y22437D01*
X41615Y22428D01*
X41611Y22421D01*
X41609Y22419D01*
X41583Y22380D01*
X41563Y22339D01*
X41543Y22299D01*
X41526Y22258D01*
X41513Y22216D01*
X41502Y22175D01*
X41493Y22136D01*
X41485Y22097D01*
X41478Y22062D01*
X41474Y22029D01*
X41471Y21999D01*
X41469Y21973D01*
X41467Y21953D01*
Y21925D01*
X41469Y21877D01*
X41472Y21833D01*
X41478Y21790D01*
X41487Y21749D01*
X41496Y21712D01*
X41508Y21677D01*
X41519Y21646D01*
X41530Y21616D01*
X41543Y21590D01*
X41554Y21566D01*
X41565Y21546D01*
X41574Y21529D01*
X41583Y21516D01*
X41589Y21507D01*
X41593Y21501D01*
X41594Y21499D01*
X41620Y21468D01*
X41648Y21439D01*
X41679Y21413D01*
X41711Y21387D01*
X41746Y21363D01*
X41779Y21342D01*
X41813Y21322D01*
X41846Y21305D01*
X41877Y21291D01*
X41907Y21276D01*
X41933Y21264D01*
X41955Y21255D01*
X41976Y21248D01*
X41989Y21242D01*
X41998Y21240D01*
X42001Y21239D01*
X41924Y20906D01*
X41859Y20926D01*
X41798Y20952D01*
X41741Y20978D01*
X41687Y21007D01*
X41639Y21037D01*
X41593Y21067D01*
X41552Y21098D01*
X41515Y21128D01*
X41482Y21157D01*
X41454Y21183D01*
X41428Y21207D01*
X41409Y21229D01*
X41393Y21246D01*
X41382Y21261D01*
X41374Y21268D01*
X41372Y21272D01*
X41337Y21322D01*
X41308Y21374D01*
X41282Y21429D01*
X41260Y21483D01*
X41239Y21536D01*
X41224Y21590D01*
X41212Y21642D01*
X41200Y21692D01*
X41193Y21740D01*
X41187Y21783D01*
X41182Y21820D01*
X41180Y21853D01*
X41178Y21881D01*
X41176Y21892D01*
Y21918D01*
X41178Y21981D01*
X41184Y22042D01*
X41191Y22101D01*
X41200Y22158D01*
X41212Y22212D01*
X41226Y22264D01*
X41239Y22312D01*
X41254Y22356D01*
X41269Y22395D01*
X41282Y22432D01*
X41295Y22463D01*
X41308Y22489D01*
X41317Y22511D01*
X41324Y22526D01*
X41330Y22535D01*
X41332Y22539D01*
X41363Y22591D01*
X41396Y22639D01*
X41432Y22683D01*
X41469Y22726D01*
X41506Y22765D01*
X41543Y22800D01*
X41581Y22833D01*
X41617Y22861D01*
X41650Y22887D01*
X41683Y22911D01*
X41711Y22930D01*
X41735Y22946D01*
X41757Y22957D01*
X41772Y22967D01*
X41781Y22972D01*
X41785Y22974D01*
X41842Y23000D01*
X41900Y23024D01*
X41959Y23044D01*
X42018Y23061D01*
X42077Y23076D01*
X42136Y23089D01*
X42192Y23098D01*
X42244Y23107D01*
X42294Y23113D01*
X42340Y23118D01*
X42381Y23120D01*
X42416Y23124D01*
X42444D01*
X42455Y23126D01*
X42464D01*
X42471D01*
X42477D01*
X42481D01*
X42482D01*
X42551Y23124D01*
D02*
G37*
G36*
X43169Y20565D02*
X43224Y20552D01*
X43278Y20538D01*
X43328Y20521D01*
X43374Y20501D01*
X43417Y20478D01*
X43455Y20458D01*
X43491Y20436D01*
X43522Y20414D01*
X43550Y20393D01*
X43574Y20373D01*
X43594Y20356D01*
X43609Y20341D01*
X43620Y20330D01*
X43628Y20323D01*
X43629Y20321D01*
X43663Y20279D01*
X43694Y20234D01*
X43720Y20186D01*
X43742Y20140D01*
X43761Y20092D01*
X43776Y20043D01*
X43788Y19997D01*
X43800Y19953D01*
X43807Y19912D01*
X43813Y19873D01*
X43818Y19838D01*
X43820Y19809D01*
X43822Y19784D01*
X43824Y19766D01*
Y19751D01*
X43820Y19674D01*
X43811Y19600D01*
X43794Y19531D01*
X43776Y19466D01*
X43751Y19405D01*
X43726Y19350D01*
X43698Y19300D01*
X43668Y19254D01*
X43639Y19213D01*
X43611Y19178D01*
X43585Y19148D01*
X43561Y19122D01*
X43541Y19104D01*
X43526Y19089D01*
X43517Y19082D01*
X43513Y19078D01*
X43465Y19043D01*
X43415Y19011D01*
X43365Y18983D01*
X43313Y18959D01*
X43263Y18941D01*
X43213Y18924D01*
X43165Y18911D01*
X43119Y18900D01*
X43076Y18891D01*
X43037Y18886D01*
X43002Y18880D01*
X42971Y18878D01*
X42947Y18876D01*
X42928Y18874D01*
X42923D01*
X42917D01*
X42915D01*
X42913D01*
X42847Y18876D01*
X42784Y18884D01*
X42723Y18896D01*
X42666Y18910D01*
X42614Y18928D01*
X42564Y18948D01*
X42519Y18969D01*
X42479Y18989D01*
X42442Y19011D01*
X42408Y19032D01*
X42381Y19052D01*
X42358Y19069D01*
X42340Y19083D01*
X42327Y19096D01*
X42318Y19104D01*
X42316Y19106D01*
X42275Y19150D01*
X42238Y19196D01*
X42209Y19244D01*
X42181Y19292D01*
X42159Y19341D01*
X42140Y19387D01*
X42123Y19433D01*
X42112Y19476D01*
X42103Y19516D01*
X42096Y19555D01*
X42090Y19589D01*
X42086Y19618D01*
X42085Y19640D01*
X42083Y19659D01*
Y19674D01*
X42085Y19720D01*
X42090Y19768D01*
X42098Y19812D01*
X42109Y19857D01*
X42120Y19897D01*
X42133Y19938D01*
X42148Y19975D01*
X42162Y20010D01*
X42179Y20042D01*
X42192Y20071D01*
X42207Y20095D01*
X42218Y20116D01*
X42229Y20134D01*
X42236Y20145D01*
X42242Y20155D01*
X42244Y20156D01*
X41554Y20019D01*
Y18995D01*
X41254D01*
Y20269D01*
X42569Y20517D01*
X42608Y20221D01*
X42569Y20193D01*
X42534Y20162D01*
X42505Y20131D01*
X42479Y20101D01*
X42458Y20073D01*
X42444Y20051D01*
X42438Y20042D01*
X42434Y20036D01*
X42431Y20032D01*
Y20031D01*
X42407Y19984D01*
X42390Y19936D01*
X42377Y19890D01*
X42370Y19848D01*
X42366Y19827D01*
X42364Y19811D01*
X42362Y19794D01*
Y19781D01*
X42360Y19770D01*
Y19755D01*
X42362Y19711D01*
X42368Y19668D01*
X42375Y19627D01*
X42384Y19589D01*
X42395Y19553D01*
X42410Y19522D01*
X42423Y19492D01*
X42438Y19465D01*
X42453Y19441D01*
X42466Y19420D01*
X42479Y19402D01*
X42492Y19387D01*
X42501Y19374D01*
X42508Y19366D01*
X42514Y19361D01*
X42516Y19359D01*
X42545Y19333D01*
X42579Y19309D01*
X42612Y19289D01*
X42647Y19272D01*
X42684Y19257D01*
X42719Y19244D01*
X42753Y19235D01*
X42786Y19226D01*
X42819Y19220D01*
X42847Y19215D01*
X42875Y19211D01*
X42897Y19209D01*
X42915D01*
X42930Y19207D01*
X42937D01*
X42941D01*
X42993Y19209D01*
X43041Y19215D01*
X43087Y19222D01*
X43132Y19231D01*
X43172Y19244D01*
X43209Y19257D01*
X43243Y19272D01*
X43274Y19285D01*
X43302Y19300D01*
X43326Y19315D01*
X43346Y19328D01*
X43363Y19341D01*
X43376Y19350D01*
X43387Y19357D01*
X43393Y19363D01*
X43395Y19365D01*
X43424Y19394D01*
X43450Y19426D01*
X43474Y19459D01*
X43492Y19490D01*
X43509Y19524D01*
X43524Y19555D01*
X43535Y19587D01*
X43543Y19616D01*
X43550Y19644D01*
X43555Y19670D01*
X43559Y19694D01*
X43563Y19712D01*
Y19729D01*
X43565Y19740D01*
Y19751D01*
X43563Y19786D01*
X43559Y19820D01*
X43554Y19851D01*
X43546Y19881D01*
X43537Y19910D01*
X43526Y19936D01*
X43517Y19962D01*
X43504Y19984D01*
X43492Y20005D01*
X43483Y20021D01*
X43472Y20038D01*
X43463Y20051D01*
X43455Y20062D01*
X43450Y20069D01*
X43446Y20073D01*
X43444Y20075D01*
X43420Y20099D01*
X43395Y20121D01*
X43367Y20140D01*
X43337Y20158D01*
X43308Y20173D01*
X43276Y20186D01*
X43219Y20208D01*
X43191Y20217D01*
X43165Y20225D01*
X43141Y20230D01*
X43121Y20236D01*
X43104Y20240D01*
X43093Y20242D01*
X43084Y20243D01*
X43082D01*
X43110Y20573D01*
X43169Y20565D01*
D02*
G37*
G36*
X40466Y52322D02*
X40527Y52316D01*
X40586Y52309D01*
X40643Y52300D01*
X40697Y52289D01*
X40749Y52274D01*
X40797Y52261D01*
X40841Y52246D01*
X40880Y52231D01*
X40917Y52218D01*
X40949Y52205D01*
X40975Y52192D01*
X40997Y52183D01*
X41012Y52176D01*
X41021Y52170D01*
X41024Y52168D01*
X41076Y52137D01*
X41124Y52104D01*
X41169Y52068D01*
X41211Y52031D01*
X41250Y51994D01*
X41285Y51957D01*
X41319Y51919D01*
X41346Y51883D01*
X41372Y51850D01*
X41396Y51817D01*
X41415Y51789D01*
X41431Y51765D01*
X41442Y51743D01*
X41452Y51728D01*
X41457Y51719D01*
X41459Y51715D01*
X41485Y51658D01*
X41509Y51600D01*
X41530Y51541D01*
X41546Y51482D01*
X41561Y51423D01*
X41574Y51363D01*
X41583Y51308D01*
X41592Y51256D01*
X41598Y51206D01*
X41603Y51160D01*
X41605Y51119D01*
X41609Y51084D01*
Y51056D01*
X41611Y51045D01*
Y51036D01*
Y51029D01*
Y51023D01*
Y51019D01*
Y51018D01*
X41609Y50949D01*
X41605Y50883D01*
X41598Y50818D01*
X41590Y50757D01*
X41579Y50696D01*
X41568Y50640D01*
X41555Y50586D01*
X41542Y50537D01*
X41531Y50492D01*
X41518Y50451D01*
X41507Y50416D01*
X41496Y50387D01*
X41489Y50363D01*
X41481Y50346D01*
X41478Y50335D01*
X41476Y50333D01*
Y50331D01*
X41450Y50274D01*
X41420Y50218D01*
X41389Y50168D01*
X41357Y50120D01*
X41324Y50078D01*
X41291Y50037D01*
X41259Y50002D01*
X41228Y49969D01*
X41198Y49939D01*
X41170Y49915D01*
X41146Y49893D01*
X41124Y49876D01*
X41106Y49863D01*
X41093Y49852D01*
X41085Y49847D01*
X41082Y49845D01*
X41032Y49815D01*
X40978Y49789D01*
X40923Y49767D01*
X40867Y49747D01*
X40812Y49732D01*
X40754Y49717D01*
X40701Y49706D01*
X40647Y49697D01*
X40599Y49691D01*
X40553Y49686D01*
X40512Y49682D01*
X40477Y49678D01*
X40449D01*
X40436Y49676D01*
X40408D01*
X40334Y49678D01*
X40264Y49686D01*
X40197Y49697D01*
X40133Y49710D01*
X40073Y49726D01*
X40018Y49745D01*
X39966Y49765D01*
X39920Y49786D01*
X39877Y49806D01*
X39840Y49826D01*
X39807Y49845D01*
X39781Y49861D01*
X39759Y49874D01*
X39744Y49885D01*
X39735Y49893D01*
X39731Y49895D01*
X39681Y49939D01*
X39635Y49985D01*
X39592Y50035D01*
X39554Y50087D01*
X39518Y50141D01*
X39487Y50192D01*
X39459Y50244D01*
X39435Y50296D01*
X39413Y50344D01*
X39395Y50389D01*
X39380Y50427D01*
X39367Y50463D01*
X39358Y50490D01*
X39354Y50503D01*
X39352Y50512D01*
X39350Y50520D01*
X39348Y50525D01*
X39346Y50529D01*
Y50531D01*
X39685Y50616D01*
X39700Y50557D01*
X39716Y50503D01*
X39735Y50451D01*
X39757Y50405D01*
X39777Y50361D01*
X39801Y50320D01*
X39824Y50285D01*
X39846Y50252D01*
X39866Y50224D01*
X39887Y50198D01*
X39905Y50178D01*
X39922Y50161D01*
X39935Y50146D01*
X39944Y50137D01*
X39951Y50131D01*
X39953Y50130D01*
X39992Y50102D01*
X40031Y50076D01*
X40072Y50054D01*
X40112Y50035D01*
X40153Y50020D01*
X40194Y50007D01*
X40233Y49996D01*
X40270Y49987D01*
X40303Y49980D01*
X40336Y49976D01*
X40364Y49972D01*
X40388Y49969D01*
X40408D01*
X40423Y49967D01*
X40436D01*
X40479Y49969D01*
X40521Y49972D01*
X40562Y49978D01*
X40603Y49985D01*
X40640Y49995D01*
X40677Y50006D01*
X40710Y50015D01*
X40741Y50028D01*
X40769Y50039D01*
X40795Y50048D01*
X40817Y50059D01*
X40836Y50068D01*
X40850Y50076D01*
X40862Y50081D01*
X40869Y50085D01*
X40871Y50087D01*
X40908Y50111D01*
X40941Y50137D01*
X40973Y50165D01*
X41002Y50194D01*
X41028Y50224D01*
X41052Y50255D01*
X41074Y50285D01*
X41095Y50313D01*
X41111Y50340D01*
X41126Y50366D01*
X41139Y50390D01*
X41148Y50411D01*
X41158Y50427D01*
X41163Y50438D01*
X41165Y50448D01*
X41167Y50450D01*
X41184Y50496D01*
X41198Y50544D01*
X41211Y50592D01*
X41221Y50642D01*
X41239Y50736D01*
X41245Y50783D01*
X41250Y50827D01*
X41254Y50866D01*
X41256Y50903D01*
X41258Y50936D01*
X41259Y50964D01*
X41261Y50988D01*
Y51005D01*
Y51016D01*
Y51019D01*
X41259Y51068D01*
X41258Y51114D01*
X41248Y51203D01*
X41243Y51245D01*
X41235Y51286D01*
X41228Y51325D01*
X41221Y51360D01*
X41213Y51393D01*
X41208Y51423D01*
X41200Y51449D01*
X41195Y51471D01*
X41189Y51487D01*
X41185Y51500D01*
X41182Y51510D01*
Y51512D01*
X41165Y51556D01*
X41146Y51597D01*
X41126Y51635D01*
X41104Y51671D01*
X41082Y51706D01*
X41060Y51737D01*
X41036Y51765D01*
X41013Y51791D01*
X40991Y51813D01*
X40971Y51833D01*
X40952Y51850D01*
X40936Y51865D01*
X40923Y51876D01*
X40913Y51885D01*
X40906Y51889D01*
X40904Y51891D01*
X40865Y51917D01*
X40825Y51937D01*
X40784Y51957D01*
X40743Y51974D01*
X40701Y51987D01*
X40660Y51998D01*
X40621Y52007D01*
X40582Y52015D01*
X40547Y52022D01*
X40514Y52026D01*
X40484Y52030D01*
X40458Y52031D01*
X40438Y52033D01*
X40410D01*
X40362Y52031D01*
X40318Y52028D01*
X40275Y52022D01*
X40234Y52013D01*
X40197Y52004D01*
X40162Y51992D01*
X40131Y51981D01*
X40101Y51970D01*
X40075Y51957D01*
X40051Y51946D01*
X40031Y51935D01*
X40014Y51926D01*
X40001Y51917D01*
X39992Y51911D01*
X39987Y51907D01*
X39985Y51906D01*
X39953Y51880D01*
X39924Y51852D01*
X39898Y51820D01*
X39872Y51789D01*
X39848Y51754D01*
X39827Y51721D01*
X39807Y51687D01*
X39790Y51654D01*
X39776Y51622D01*
X39761Y51593D01*
X39750Y51567D01*
X39740Y51545D01*
X39733Y51525D01*
X39728Y51512D01*
X39726Y51502D01*
X39724Y51499D01*
X39391Y51576D01*
X39411Y51641D01*
X39437Y51702D01*
X39463Y51759D01*
X39493Y51813D01*
X39522Y51861D01*
X39552Y51907D01*
X39583Y51948D01*
X39613Y51985D01*
X39643Y52018D01*
X39668Y52046D01*
X39692Y52072D01*
X39715Y52091D01*
X39731Y52107D01*
X39746Y52118D01*
X39753Y52126D01*
X39757Y52128D01*
X39807Y52163D01*
X39859Y52192D01*
X39914Y52218D01*
X39968Y52240D01*
X40022Y52261D01*
X40075Y52276D01*
X40127Y52289D01*
X40177Y52300D01*
X40225Y52307D01*
X40268Y52313D01*
X40305Y52318D01*
X40338Y52320D01*
X40366Y52322D01*
X40377Y52324D01*
X40403D01*
X40466Y52322D01*
D02*
G37*
G36*
X39160Y50620D02*
Y50331D01*
X38050D01*
Y49719D01*
X37735D01*
Y50331D01*
X37389D01*
Y50620D01*
X37735D01*
Y52279D01*
X37992D01*
X39160Y50620D01*
D02*
G37*
G36*
X43815Y52289D02*
X43869Y52283D01*
X43920Y52274D01*
X43969Y52263D01*
X44013Y52250D01*
X44054Y52235D01*
X44093Y52220D01*
X44128Y52203D01*
X44159Y52187D01*
X44187Y52172D01*
X44211Y52157D01*
X44231Y52144D01*
X44248Y52133D01*
X44259Y52124D01*
X44267Y52118D01*
X44268Y52117D01*
X44305Y52083D01*
X44339Y52046D01*
X44368Y52007D01*
X44394Y51967D01*
X44418Y51926D01*
X44440Y51885D01*
X44459Y51845D01*
X44475Y51806D01*
X44488Y51769D01*
X44500Y51735D01*
X44509Y51706D01*
X44516Y51678D01*
X44522Y51656D01*
X44526Y51641D01*
X44529Y51630D01*
Y51628D01*
Y51626D01*
X44215Y51571D01*
X44207Y51613D01*
X44198Y51652D01*
X44189Y51687D01*
X44176Y51721D01*
X44165Y51752D01*
X44150Y51780D01*
X44137Y51806D01*
X44124Y51830D01*
X44111Y51848D01*
X44100Y51867D01*
X44089Y51881D01*
X44080Y51893D01*
X44070Y51902D01*
X44065Y51909D01*
X44061Y51913D01*
X44059Y51915D01*
X44035Y51935D01*
X44011Y51954D01*
X43985Y51968D01*
X43959Y51981D01*
X43933Y51994D01*
X43909Y52004D01*
X43861Y52017D01*
X43839Y52022D01*
X43819Y52026D01*
X43800Y52028D01*
X43784Y52030D01*
X43773Y52031D01*
X43754D01*
X43721Y52030D01*
X43687Y52026D01*
X43658Y52020D01*
X43628Y52013D01*
X43602Y52005D01*
X43576Y51994D01*
X43554Y51985D01*
X43534Y51974D01*
X43515Y51963D01*
X43499Y51954D01*
X43486Y51943D01*
X43473Y51935D01*
X43464Y51928D01*
X43458Y51922D01*
X43454Y51919D01*
X43453Y51917D01*
X43432Y51894D01*
X43414Y51872D01*
X43397Y51848D01*
X43384Y51824D01*
X43373Y51800D01*
X43364Y51776D01*
X43349Y51732D01*
X43343Y51711D01*
X43340Y51693D01*
X43338Y51674D01*
X43336Y51661D01*
X43334Y51648D01*
Y51639D01*
Y51634D01*
Y51632D01*
X43336Y51593D01*
X43341Y51556D01*
X43349Y51521D01*
X43360Y51489D01*
X43371Y51460D01*
X43384Y51434D01*
X43399Y51410D01*
X43414Y51388D01*
X43430Y51369D01*
X43443Y51352D01*
X43458Y51340D01*
X43469Y51328D01*
X43480Y51319D01*
X43488Y51314D01*
X43493Y51310D01*
X43495Y51308D01*
X43525Y51289D01*
X43556Y51275D01*
X43587Y51260D01*
X43619Y51249D01*
X43680Y51230D01*
X43708Y51223D01*
X43736Y51217D01*
X43761Y51214D01*
X43784Y51210D01*
X43804Y51208D01*
X43823Y51206D01*
X43835Y51204D01*
X43871D01*
X43887Y51206D01*
X43895D01*
X43900Y51208D01*
X43906D01*
X43941Y50933D01*
X43893Y50944D01*
X43850Y50951D01*
X43813Y50958D01*
X43780Y50962D01*
X43754Y50964D01*
X43736Y50966D01*
X43719D01*
X43678Y50964D01*
X43641Y50960D01*
X43604Y50953D01*
X43571Y50944D01*
X43539Y50933D01*
X43510Y50921D01*
X43482Y50908D01*
X43458Y50896D01*
X43436Y50883D01*
X43415Y50870D01*
X43399Y50858D01*
X43386Y50847D01*
X43375Y50838D01*
X43365Y50831D01*
X43362Y50827D01*
X43360Y50825D01*
X43334Y50797D01*
X43314Y50770D01*
X43293Y50740D01*
X43277Y50710D01*
X43264Y50681D01*
X43253Y50651D01*
X43243Y50622D01*
X43236Y50594D01*
X43229Y50568D01*
X43225Y50544D01*
X43221Y50522D01*
X43219Y50505D01*
X43218Y50489D01*
Y50477D01*
Y50470D01*
Y50468D01*
X43219Y50427D01*
X43225Y50387D01*
X43232Y50350D01*
X43242Y50315D01*
X43253Y50279D01*
X43266Y50250D01*
X43280Y50220D01*
X43293Y50194D01*
X43308Y50170D01*
X43323Y50150D01*
X43336Y50131D01*
X43347Y50117D01*
X43356Y50104D01*
X43364Y50096D01*
X43369Y50091D01*
X43371Y50089D01*
X43401Y50061D01*
X43430Y50039D01*
X43462Y50019D01*
X43493Y50000D01*
X43525Y49985D01*
X43556Y49972D01*
X43587Y49963D01*
X43615Y49954D01*
X43643Y49948D01*
X43667Y49943D01*
X43689Y49941D01*
X43710Y49937D01*
X43724D01*
X43737Y49935D01*
X43747D01*
X43782Y49937D01*
X43813Y49941D01*
X43845Y49946D01*
X43874Y49954D01*
X43902Y49963D01*
X43928Y49972D01*
X43952Y49983D01*
X43974Y49995D01*
X43995Y50004D01*
X44011Y50015D01*
X44028Y50024D01*
X44039Y50033D01*
X44050Y50041D01*
X44057Y50046D01*
X44061Y50050D01*
X44063Y50052D01*
X44087Y50076D01*
X44107Y50102D01*
X44128Y50131D01*
X44146Y50163D01*
X44178Y50226D01*
X44204Y50291D01*
X44213Y50320D01*
X44222Y50348D01*
X44230Y50372D01*
X44235Y50394D01*
X44241Y50413D01*
X44244Y50427D01*
X44246Y50435D01*
Y50438D01*
X44561Y50396D01*
X44553Y50337D01*
X44542Y50281D01*
X44526Y50230D01*
X44509Y50179D01*
X44488Y50133D01*
X44468Y50091D01*
X44446Y50050D01*
X44424Y50015D01*
X44401Y49983D01*
X44381Y49956D01*
X44361Y49932D01*
X44344Y49911D01*
X44329Y49895D01*
X44318Y49883D01*
X44311Y49876D01*
X44309Y49874D01*
X44267Y49839D01*
X44220Y49808D01*
X44174Y49782D01*
X44128Y49760D01*
X44080Y49739D01*
X44033Y49723D01*
X43987Y49710D01*
X43945Y49700D01*
X43904Y49691D01*
X43867Y49686D01*
X43834Y49680D01*
X43804Y49678D01*
X43782Y49676D01*
X43763Y49674D01*
X43749D01*
X43680Y49676D01*
X43615Y49684D01*
X43552Y49697D01*
X43495Y49711D01*
X43439Y49728D01*
X43390Y49749D01*
X43341Y49769D01*
X43299Y49791D01*
X43262Y49813D01*
X43227Y49834D01*
X43199Y49854D01*
X43175Y49871D01*
X43155Y49885D01*
X43142Y49898D01*
X43134Y49906D01*
X43131Y49908D01*
X43088Y49952D01*
X43049Y49998D01*
X43016Y50046D01*
X42988Y50094D01*
X42964Y50143D01*
X42944Y50191D01*
X42929Y50235D01*
X42916Y50279D01*
X42905Y50320D01*
X42897Y50357D01*
X42892Y50390D01*
X42888Y50420D01*
X42886Y50442D01*
X42884Y50461D01*
Y50472D01*
Y50476D01*
X42886Y50522D01*
X42890Y50564D01*
X42896Y50605D01*
X42905Y50644D01*
X42914Y50681D01*
X42923Y50714D01*
X42936Y50746D01*
X42947Y50775D01*
X42959Y50801D01*
X42970Y50823D01*
X42981Y50842D01*
X42990Y50858D01*
X42999Y50871D01*
X43005Y50881D01*
X43009Y50886D01*
X43010Y50888D01*
X43034Y50918D01*
X43062Y50945D01*
X43090Y50969D01*
X43118Y50992D01*
X43147Y51012D01*
X43177Y51029D01*
X43206Y51045D01*
X43234Y51058D01*
X43260Y51071D01*
X43284Y51081D01*
X43306Y51090D01*
X43327Y51095D01*
X43341Y51101D01*
X43354Y51104D01*
X43362Y51106D01*
X43364D01*
X43332Y51121D01*
X43303Y51138D01*
X43275Y51156D01*
X43249Y51173D01*
X43225Y51192D01*
X43205Y51210D01*
X43184Y51227D01*
X43168Y51243D01*
X43151Y51260D01*
X43138Y51275D01*
X43127Y51288D01*
X43118Y51299D01*
X43110Y51308D01*
X43105Y51315D01*
X43103Y51319D01*
X43101Y51321D01*
X43084Y51347D01*
X43071Y51373D01*
X43058Y51401D01*
X43049Y51426D01*
X43033Y51476D01*
X43021Y51525D01*
X43018Y51545D01*
X43016Y51565D01*
X43012Y51582D01*
Y51597D01*
X43010Y51608D01*
Y51617D01*
Y51622D01*
Y51624D01*
X43012Y51658D01*
X43014Y51689D01*
X43025Y51750D01*
X43040Y51806D01*
X43049Y51830D01*
X43057Y51854D01*
X43066Y51876D01*
X43075Y51894D01*
X43082Y51913D01*
X43090Y51926D01*
X43095Y51939D01*
X43101Y51946D01*
X43103Y51952D01*
X43105Y51954D01*
X43123Y51981D01*
X43143Y52009D01*
X43186Y52057D01*
X43231Y52100D01*
X43275Y52135D01*
X43295Y52150D01*
X43314Y52163D01*
X43330Y52174D01*
X43345Y52183D01*
X43358Y52191D01*
X43367Y52196D01*
X43373Y52198D01*
X43375Y52200D01*
X43408Y52216D01*
X43441Y52229D01*
X43475Y52242D01*
X43510Y52251D01*
X43575Y52268D01*
X43604Y52274D01*
X43634Y52279D01*
X43660Y52283D01*
X43684Y52285D01*
X43706Y52289D01*
X43724D01*
X43739Y52290D01*
X43760D01*
X43815Y52289D01*
D02*
G37*
G36*
X45970Y52324D02*
X46031Y52318D01*
X46091Y52311D01*
X46148Y52302D01*
X46202Y52290D01*
X46253Y52276D01*
X46301Y52263D01*
X46346Y52248D01*
X46385Y52233D01*
X46422Y52220D01*
X46453Y52207D01*
X46479Y52194D01*
X46501Y52185D01*
X46516Y52178D01*
X46525Y52172D01*
X46529Y52170D01*
X46581Y52139D01*
X46629Y52105D01*
X46673Y52070D01*
X46716Y52033D01*
X46755Y51996D01*
X46790Y51959D01*
X46823Y51920D01*
X46851Y51885D01*
X46877Y51852D01*
X46901Y51819D01*
X46919Y51791D01*
X46936Y51767D01*
X46947Y51745D01*
X46956Y51730D01*
X46962Y51721D01*
X46964Y51717D01*
X46990Y51660D01*
X47014Y51602D01*
X47034Y51543D01*
X47051Y51484D01*
X47065Y51425D01*
X47078Y51365D01*
X47088Y51310D01*
X47097Y51258D01*
X47102Y51208D01*
X47108Y51162D01*
X47110Y51121D01*
X47114Y51086D01*
Y51058D01*
X47115Y51047D01*
Y51038D01*
Y51030D01*
Y51025D01*
Y51021D01*
Y51019D01*
X47114Y50951D01*
X47110Y50884D01*
X47102Y50820D01*
X47095Y50759D01*
X47084Y50697D01*
X47073Y50642D01*
X47060Y50588D01*
X47047Y50538D01*
X47036Y50494D01*
X47023Y50453D01*
X47012Y50418D01*
X47001Y50389D01*
X46993Y50365D01*
X46986Y50348D01*
X46982Y50337D01*
X46980Y50335D01*
Y50333D01*
X46955Y50276D01*
X46925Y50220D01*
X46894Y50170D01*
X46862Y50122D01*
X46829Y50080D01*
X46795Y50039D01*
X46764Y50004D01*
X46733Y49970D01*
X46703Y49941D01*
X46675Y49917D01*
X46651Y49895D01*
X46629Y49878D01*
X46610Y49865D01*
X46597Y49854D01*
X46590Y49848D01*
X46586Y49847D01*
X46536Y49817D01*
X46483Y49791D01*
X46427Y49769D01*
X46372Y49749D01*
X46316Y49734D01*
X46259Y49719D01*
X46205Y49708D01*
X46152Y49698D01*
X46104Y49693D01*
X46057Y49687D01*
X46017Y49684D01*
X45981Y49680D01*
X45954D01*
X45941Y49678D01*
X45913D01*
X45839Y49680D01*
X45769Y49687D01*
X45702Y49698D01*
X45637Y49711D01*
X45578Y49728D01*
X45523Y49747D01*
X45471Y49767D01*
X45425Y49787D01*
X45382Y49808D01*
X45345Y49828D01*
X45312Y49847D01*
X45286Y49863D01*
X45264Y49876D01*
X45249Y49887D01*
X45240Y49895D01*
X45236Y49896D01*
X45186Y49941D01*
X45140Y49987D01*
X45097Y50037D01*
X45058Y50089D01*
X45023Y50143D01*
X44992Y50194D01*
X44964Y50246D01*
X44940Y50298D01*
X44918Y50346D01*
X44899Y50390D01*
X44884Y50429D01*
X44871Y50464D01*
X44862Y50492D01*
X44859Y50505D01*
X44857Y50514D01*
X44855Y50522D01*
X44853Y50527D01*
X44851Y50531D01*
Y50533D01*
X45190Y50618D01*
X45204Y50559D01*
X45221Y50505D01*
X45240Y50453D01*
X45262Y50407D01*
X45282Y50363D01*
X45306Y50322D01*
X45328Y50287D01*
X45351Y50253D01*
X45371Y50226D01*
X45391Y50200D01*
X45410Y50179D01*
X45426Y50163D01*
X45439Y50148D01*
X45449Y50139D01*
X45456Y50133D01*
X45458Y50131D01*
X45497Y50104D01*
X45536Y50078D01*
X45576Y50056D01*
X45617Y50037D01*
X45658Y50022D01*
X45698Y50009D01*
X45737Y49998D01*
X45774Y49989D01*
X45807Y49982D01*
X45841Y49978D01*
X45869Y49974D01*
X45893Y49970D01*
X45913D01*
X45928Y49969D01*
X45941D01*
X45983Y49970D01*
X46026Y49974D01*
X46066Y49980D01*
X46107Y49987D01*
X46144Y49996D01*
X46181Y50007D01*
X46215Y50017D01*
X46246Y50030D01*
X46274Y50041D01*
X46300Y50050D01*
X46322Y50061D01*
X46340Y50070D01*
X46355Y50078D01*
X46366Y50083D01*
X46374Y50087D01*
X46376Y50089D01*
X46413Y50113D01*
X46446Y50139D01*
X46477Y50167D01*
X46507Y50196D01*
X46533Y50226D01*
X46557Y50257D01*
X46579Y50287D01*
X46599Y50315D01*
X46616Y50342D01*
X46631Y50368D01*
X46644Y50392D01*
X46653Y50413D01*
X46662Y50429D01*
X46668Y50440D01*
X46670Y50450D01*
X46672Y50451D01*
X46688Y50498D01*
X46703Y50546D01*
X46716Y50594D01*
X46725Y50644D01*
X46744Y50738D01*
X46749Y50784D01*
X46755Y50829D01*
X46758Y50868D01*
X46760Y50905D01*
X46762Y50938D01*
X46764Y50966D01*
X46766Y50990D01*
Y51007D01*
Y51018D01*
Y51021D01*
X46764Y51069D01*
X46762Y51116D01*
X46753Y51204D01*
X46747Y51247D01*
X46740Y51288D01*
X46733Y51327D01*
X46725Y51362D01*
X46718Y51395D01*
X46712Y51425D01*
X46705Y51451D01*
X46699Y51473D01*
X46694Y51489D01*
X46690Y51502D01*
X46686Y51512D01*
Y51513D01*
X46670Y51558D01*
X46651Y51599D01*
X46631Y51637D01*
X46609Y51673D01*
X46586Y51708D01*
X46564Y51739D01*
X46540Y51767D01*
X46518Y51793D01*
X46496Y51815D01*
X46475Y51835D01*
X46457Y51852D01*
X46440Y51867D01*
X46427Y51878D01*
X46418Y51887D01*
X46411Y51891D01*
X46409Y51893D01*
X46370Y51919D01*
X46329Y51939D01*
X46288Y51959D01*
X46248Y51976D01*
X46205Y51989D01*
X46165Y52000D01*
X46126Y52009D01*
X46087Y52017D01*
X46052Y52024D01*
X46018Y52028D01*
X45989Y52031D01*
X45963Y52033D01*
X45943Y52035D01*
X45915D01*
X45867Y52033D01*
X45822Y52030D01*
X45780Y52024D01*
X45739Y52015D01*
X45702Y52005D01*
X45667Y51994D01*
X45636Y51983D01*
X45606Y51972D01*
X45580Y51959D01*
X45556Y51948D01*
X45536Y51937D01*
X45519Y51928D01*
X45506Y51919D01*
X45497Y51913D01*
X45491Y51909D01*
X45489Y51907D01*
X45458Y51881D01*
X45428Y51854D01*
X45402Y51822D01*
X45377Y51791D01*
X45352Y51756D01*
X45332Y51722D01*
X45312Y51689D01*
X45295Y51656D01*
X45280Y51624D01*
X45265Y51595D01*
X45254Y51569D01*
X45245Y51547D01*
X45238Y51526D01*
X45232Y51513D01*
X45230Y51504D01*
X45228Y51500D01*
X44895Y51578D01*
X44916Y51643D01*
X44942Y51704D01*
X44968Y51761D01*
X44997Y51815D01*
X45027Y51863D01*
X45056Y51909D01*
X45088Y51950D01*
X45118Y51987D01*
X45147Y52020D01*
X45173Y52048D01*
X45197Y52074D01*
X45219Y52092D01*
X45236Y52109D01*
X45251Y52120D01*
X45258Y52128D01*
X45262Y52129D01*
X45312Y52165D01*
X45364Y52194D01*
X45419Y52220D01*
X45473Y52242D01*
X45526Y52263D01*
X45580Y52277D01*
X45632Y52290D01*
X45682Y52302D01*
X45730Y52309D01*
X45772Y52314D01*
X45809Y52320D01*
X45843Y52322D01*
X45870Y52324D01*
X45882Y52325D01*
X45907D01*
X45970Y52324D01*
D02*
G37*
G36*
X54174Y26322D02*
X54244Y26314D01*
X54311Y26303D01*
X54376Y26290D01*
X54435Y26274D01*
X54490Y26255D01*
X54542Y26235D01*
X54588Y26215D01*
X54631Y26194D01*
X54668Y26174D01*
X54701Y26155D01*
X54727Y26139D01*
X54749Y26126D01*
X54764Y26115D01*
X54773Y26107D01*
X54777Y26105D01*
X54827Y26061D01*
X54873Y26015D01*
X54916Y25965D01*
X54955Y25913D01*
X54990Y25859D01*
X55021Y25807D01*
X55049Y25756D01*
X55073Y25704D01*
X55095Y25656D01*
X55114Y25611D01*
X55129Y25573D01*
X55142Y25537D01*
X55151Y25510D01*
X55155Y25497D01*
X55156Y25488D01*
X55158Y25480D01*
X55160Y25475D01*
X55162Y25471D01*
Y25469D01*
X54823Y25384D01*
X54808Y25443D01*
X54792Y25497D01*
X54773Y25548D01*
X54751Y25595D01*
X54731Y25639D01*
X54707Y25680D01*
X54685Y25715D01*
X54662Y25748D01*
X54642Y25776D01*
X54622Y25802D01*
X54603Y25822D01*
X54586Y25839D01*
X54574Y25854D01*
X54564Y25863D01*
X54557Y25869D01*
X54555Y25870D01*
X54516Y25898D01*
X54477Y25924D01*
X54437Y25946D01*
X54396Y25965D01*
X54355Y25980D01*
X54315Y25993D01*
X54276Y26004D01*
X54239Y26013D01*
X54205Y26020D01*
X54172Y26024D01*
X54144Y26028D01*
X54120Y26031D01*
X54100D01*
X54085Y26033D01*
X54072D01*
X54030Y26031D01*
X53987Y26028D01*
X53946Y26022D01*
X53906Y26015D01*
X53869Y26006D01*
X53832Y25994D01*
X53798Y25985D01*
X53767Y25972D01*
X53739Y25961D01*
X53713Y25952D01*
X53691Y25941D01*
X53673Y25932D01*
X53658Y25924D01*
X53647Y25918D01*
X53639Y25915D01*
X53637Y25913D01*
X53601Y25889D01*
X53567Y25863D01*
X53536Y25835D01*
X53506Y25806D01*
X53480Y25776D01*
X53456Y25745D01*
X53434Y25715D01*
X53414Y25687D01*
X53397Y25659D01*
X53382Y25634D01*
X53369Y25610D01*
X53360Y25589D01*
X53351Y25573D01*
X53345Y25561D01*
X53343Y25552D01*
X53342Y25550D01*
X53325Y25504D01*
X53310Y25456D01*
X53297Y25408D01*
X53288Y25358D01*
X53269Y25264D01*
X53264Y25217D01*
X53258Y25173D01*
X53254Y25134D01*
X53253Y25097D01*
X53251Y25064D01*
X53249Y25036D01*
X53247Y25012D01*
Y24995D01*
Y24984D01*
Y24981D01*
X53249Y24933D01*
X53251Y24886D01*
X53260Y24797D01*
X53266Y24755D01*
X53273Y24714D01*
X53280Y24675D01*
X53288Y24640D01*
X53295Y24607D01*
X53301Y24577D01*
X53308Y24551D01*
X53314Y24529D01*
X53319Y24512D01*
X53323Y24500D01*
X53327Y24490D01*
Y24488D01*
X53343Y24444D01*
X53362Y24403D01*
X53382Y24364D01*
X53404Y24329D01*
X53427Y24294D01*
X53449Y24263D01*
X53473Y24235D01*
X53495Y24209D01*
X53517Y24187D01*
X53538Y24167D01*
X53556Y24150D01*
X53573Y24135D01*
X53586Y24124D01*
X53595Y24115D01*
X53602Y24111D01*
X53604Y24109D01*
X53643Y24083D01*
X53684Y24063D01*
X53724Y24043D01*
X53765Y24026D01*
X53808Y24013D01*
X53848Y24002D01*
X53887Y23993D01*
X53926Y23985D01*
X53961Y23978D01*
X53995Y23974D01*
X54024Y23970D01*
X54050Y23969D01*
X54070Y23967D01*
X54098D01*
X54146Y23969D01*
X54191Y23972D01*
X54233Y23978D01*
X54274Y23987D01*
X54311Y23996D01*
X54346Y24008D01*
X54378Y24019D01*
X54407Y24030D01*
X54433Y24043D01*
X54457Y24054D01*
X54477Y24065D01*
X54494Y24074D01*
X54507Y24083D01*
X54516Y24089D01*
X54522Y24093D01*
X54524Y24094D01*
X54555Y24120D01*
X54585Y24148D01*
X54611Y24180D01*
X54637Y24211D01*
X54660Y24246D01*
X54681Y24279D01*
X54701Y24313D01*
X54718Y24346D01*
X54733Y24377D01*
X54747Y24407D01*
X54759Y24433D01*
X54768Y24455D01*
X54775Y24475D01*
X54781Y24488D01*
X54783Y24498D01*
X54785Y24501D01*
X55117Y24424D01*
X55097Y24359D01*
X55071Y24298D01*
X55045Y24241D01*
X55016Y24187D01*
X54986Y24139D01*
X54957Y24093D01*
X54925Y24052D01*
X54896Y24015D01*
X54866Y23982D01*
X54840Y23954D01*
X54816Y23928D01*
X54794Y23909D01*
X54777Y23893D01*
X54762Y23882D01*
X54755Y23874D01*
X54751Y23872D01*
X54701Y23837D01*
X54649Y23808D01*
X54594Y23782D01*
X54540Y23760D01*
X54487Y23739D01*
X54433Y23724D01*
X54381Y23711D01*
X54331Y23700D01*
X54283Y23693D01*
X54241Y23687D01*
X54204Y23682D01*
X54170Y23680D01*
X54142Y23678D01*
X54131Y23676D01*
X54106D01*
X54043Y23678D01*
X53982Y23684D01*
X53922Y23691D01*
X53865Y23700D01*
X53811Y23711D01*
X53760Y23726D01*
X53711Y23739D01*
X53667Y23754D01*
X53628Y23769D01*
X53591Y23782D01*
X53560Y23795D01*
X53534Y23808D01*
X53512Y23817D01*
X53497Y23824D01*
X53488Y23830D01*
X53484Y23832D01*
X53432Y23863D01*
X53384Y23897D01*
X53340Y23932D01*
X53297Y23969D01*
X53258Y24006D01*
X53223Y24043D01*
X53190Y24081D01*
X53162Y24117D01*
X53136Y24150D01*
X53112Y24183D01*
X53094Y24211D01*
X53077Y24235D01*
X53066Y24257D01*
X53057Y24272D01*
X53051Y24281D01*
X53049Y24285D01*
X53023Y24342D01*
X52999Y24400D01*
X52979Y24459D01*
X52962Y24518D01*
X52947Y24577D01*
X52934Y24636D01*
X52925Y24692D01*
X52916Y24744D01*
X52910Y24794D01*
X52905Y24840D01*
X52903Y24881D01*
X52899Y24916D01*
Y24944D01*
X52898Y24955D01*
Y24964D01*
Y24971D01*
Y24977D01*
Y24981D01*
Y24982D01*
X52899Y25051D01*
X52903Y25117D01*
X52910Y25182D01*
X52918Y25243D01*
X52929Y25304D01*
X52940Y25360D01*
X52953Y25414D01*
X52966Y25463D01*
X52977Y25508D01*
X52990Y25548D01*
X53001Y25584D01*
X53012Y25613D01*
X53020Y25637D01*
X53027Y25654D01*
X53031Y25665D01*
X53032Y25667D01*
Y25669D01*
X53058Y25726D01*
X53088Y25782D01*
X53119Y25832D01*
X53151Y25880D01*
X53184Y25922D01*
X53218Y25963D01*
X53249Y25998D01*
X53280Y26031D01*
X53310Y26061D01*
X53338Y26085D01*
X53362Y26107D01*
X53384Y26124D01*
X53403Y26137D01*
X53416Y26148D01*
X53423Y26153D01*
X53427Y26155D01*
X53477Y26185D01*
X53530Y26211D01*
X53586Y26233D01*
X53641Y26253D01*
X53697Y26268D01*
X53754Y26283D01*
X53808Y26294D01*
X53861Y26303D01*
X53909Y26309D01*
X53956Y26314D01*
X53996Y26318D01*
X54031Y26322D01*
X54059D01*
X54072Y26324D01*
X54100D01*
X54174Y26322D01*
D02*
G37*
G36*
X57103Y25980D02*
X55848D01*
X55869Y25948D01*
X55891Y25917D01*
X55913Y25889D01*
X55933Y25863D01*
X55952Y25843D01*
X55967Y25826D01*
X55976Y25815D01*
X55980Y25811D01*
X55996Y25793D01*
X56018Y25772D01*
X56042Y25750D01*
X56070Y25724D01*
X56100Y25698D01*
X56129Y25671D01*
X56192Y25617D01*
X56222Y25591D01*
X56250Y25567D01*
X56274Y25545D01*
X56298Y25526D01*
X56316Y25510D01*
X56329Y25499D01*
X56339Y25489D01*
X56342Y25488D01*
X56403Y25436D01*
X56461Y25386D01*
X56512Y25339D01*
X56560Y25297D01*
X56605Y25256D01*
X56644Y25219D01*
X56681Y25186D01*
X56712Y25156D01*
X56740Y25129D01*
X56762Y25104D01*
X56783Y25084D01*
X56799Y25067D01*
X56812Y25055D01*
X56819Y25045D01*
X56825Y25040D01*
X56827Y25038D01*
X56853Y25006D01*
X56879Y24977D01*
X56901Y24947D01*
X56921Y24919D01*
X56958Y24866D01*
X56973Y24842D01*
X56986Y24820D01*
X56999Y24799D01*
X57008Y24781D01*
X57017Y24764D01*
X57023Y24751D01*
X57029Y24740D01*
X57032Y24733D01*
X57036Y24727D01*
Y24725D01*
X57056Y24670D01*
X57073Y24616D01*
X57084Y24564D01*
X57091Y24518D01*
X57093Y24498D01*
X57095Y24479D01*
X57097Y24464D01*
X57099Y24450D01*
Y24439D01*
Y24431D01*
Y24426D01*
Y24424D01*
X57097Y24368D01*
X57090Y24315D01*
X57078Y24265D01*
X57065Y24216D01*
X57049Y24172D01*
X57030Y24130D01*
X57010Y24091D01*
X56991Y24056D01*
X56971Y24024D01*
X56951Y23996D01*
X56932Y23972D01*
X56916Y23954D01*
X56903Y23937D01*
X56892Y23926D01*
X56884Y23919D01*
X56882Y23917D01*
X56840Y23880D01*
X56795Y23848D01*
X56749Y23822D01*
X56701Y23798D01*
X56653Y23778D01*
X56603Y23761D01*
X56557Y23749D01*
X56511Y23737D01*
X56468Y23728D01*
X56427Y23723D01*
X56392Y23717D01*
X56361Y23715D01*
X56335Y23713D01*
X56316Y23711D01*
X56300D01*
X56233Y23713D01*
X56170Y23719D01*
X56111Y23728D01*
X56055Y23741D01*
X56004Y23756D01*
X55955Y23773D01*
X55913Y23789D01*
X55872Y23806D01*
X55837Y23824D01*
X55806Y23841D01*
X55780Y23858D01*
X55758Y23872D01*
X55741Y23884D01*
X55728Y23895D01*
X55721Y23900D01*
X55719Y23902D01*
X55680Y23939D01*
X55647Y23980D01*
X55615Y24022D01*
X55589Y24067D01*
X55565Y24113D01*
X55545Y24159D01*
X55528Y24204D01*
X55513Y24248D01*
X55502Y24289D01*
X55493Y24328D01*
X55486Y24363D01*
X55480Y24392D01*
X55475Y24416D01*
X55473Y24435D01*
Y24442D01*
X55471Y24448D01*
Y24450D01*
Y24452D01*
X55795Y24485D01*
X55796Y24440D01*
X55800Y24400D01*
X55808Y24361D01*
X55815Y24324D01*
X55826Y24291D01*
X55837Y24261D01*
X55850Y24231D01*
X55863Y24207D01*
X55874Y24185D01*
X55887Y24165D01*
X55898Y24148D01*
X55909Y24133D01*
X55917Y24124D01*
X55924Y24115D01*
X55928Y24111D01*
X55930Y24109D01*
X55955Y24085D01*
X55985Y24065D01*
X56015Y24046D01*
X56044Y24030D01*
X56076Y24017D01*
X56105Y24006D01*
X56135Y23996D01*
X56163Y23989D01*
X56191Y23983D01*
X56214Y23980D01*
X56237Y23976D01*
X56257Y23974D01*
X56272Y23972D01*
X56294D01*
X56333Y23974D01*
X56370Y23978D01*
X56405Y23983D01*
X56438Y23993D01*
X56468Y24002D01*
X56498Y24013D01*
X56524Y24024D01*
X56547Y24037D01*
X56568Y24048D01*
X56586Y24061D01*
X56603Y24072D01*
X56616Y24081D01*
X56627Y24091D01*
X56634Y24096D01*
X56638Y24100D01*
X56640Y24102D01*
X56664Y24126D01*
X56684Y24152D01*
X56703Y24178D01*
X56718Y24205D01*
X56731Y24231D01*
X56742Y24257D01*
X56751Y24283D01*
X56758Y24307D01*
X56764Y24329D01*
X56768Y24350D01*
X56771Y24368D01*
X56773Y24385D01*
X56775Y24398D01*
Y24407D01*
Y24415D01*
Y24416D01*
X56773Y24450D01*
X56770Y24483D01*
X56762Y24516D01*
X56753Y24550D01*
X56729Y24614D01*
X56714Y24644D01*
X56701Y24672D01*
X56688Y24698D01*
X56673Y24722D01*
X56662Y24742D01*
X56651Y24760D01*
X56640Y24773D01*
X56633Y24784D01*
X56629Y24792D01*
X56627Y24794D01*
X56598Y24833D01*
X56560Y24875D01*
X56522Y24918D01*
X56477Y24962D01*
X56433Y25008D01*
X56385Y25053D01*
X56339Y25097D01*
X56290Y25140D01*
X56246Y25180D01*
X56203Y25217D01*
X56166Y25253D01*
X56131Y25280D01*
X56103Y25304D01*
X56092Y25314D01*
X56083Y25323D01*
X56076Y25328D01*
X56070Y25334D01*
X56067Y25336D01*
X56065Y25338D01*
X56017Y25378D01*
X55970Y25417D01*
X55928Y25454D01*
X55887Y25489D01*
X55850Y25525D01*
X55817Y25556D01*
X55787Y25585D01*
X55759Y25613D01*
X55734Y25637D01*
X55713Y25659D01*
X55695Y25678D01*
X55680Y25695D01*
X55669Y25708D01*
X55661Y25717D01*
X55656Y25722D01*
X55654Y25724D01*
X55604Y25787D01*
X55562Y25848D01*
X55526Y25906D01*
X55510Y25932D01*
X55497Y25957D01*
X55486Y25980D01*
X55475Y26000D01*
X55465Y26018D01*
X55460Y26035D01*
X55454Y26048D01*
X55450Y26057D01*
X55447Y26063D01*
Y26065D01*
X55434Y26103D01*
X55425Y26142D01*
X55419Y26179D01*
X55415Y26211D01*
X55414Y26240D01*
X55412Y26252D01*
Y26263D01*
Y26270D01*
Y26276D01*
Y26279D01*
Y26281D01*
X57103D01*
Y25980D01*
D02*
G37*
G36*
X49408Y26322D02*
X49478Y26314D01*
X49545Y26303D01*
X49610Y26290D01*
X49669Y26274D01*
X49724Y26255D01*
X49776Y26235D01*
X49822Y26215D01*
X49865Y26194D01*
X49902Y26174D01*
X49935Y26155D01*
X49961Y26139D01*
X49983Y26126D01*
X49998Y26115D01*
X50007Y26107D01*
X50011Y26105D01*
X50061Y26061D01*
X50107Y26015D01*
X50150Y25965D01*
X50189Y25913D01*
X50224Y25859D01*
X50255Y25807D01*
X50283Y25756D01*
X50307Y25704D01*
X50329Y25656D01*
X50348Y25611D01*
X50363Y25573D01*
X50375Y25537D01*
X50385Y25510D01*
X50388Y25497D01*
X50390Y25488D01*
X50392Y25480D01*
X50394Y25475D01*
X50396Y25471D01*
Y25469D01*
X50057Y25384D01*
X50042Y25443D01*
X50026Y25497D01*
X50007Y25548D01*
X49985Y25595D01*
X49965Y25639D01*
X49941Y25680D01*
X49919Y25715D01*
X49896Y25748D01*
X49876Y25776D01*
X49856Y25802D01*
X49837Y25822D01*
X49821Y25839D01*
X49808Y25854D01*
X49798Y25863D01*
X49791Y25869D01*
X49789Y25870D01*
X49750Y25898D01*
X49711Y25924D01*
X49671Y25946D01*
X49630Y25965D01*
X49589Y25980D01*
X49549Y25993D01*
X49510Y26004D01*
X49473Y26013D01*
X49439Y26020D01*
X49406Y26024D01*
X49378Y26028D01*
X49354Y26031D01*
X49334D01*
X49319Y26033D01*
X49306D01*
X49264Y26031D01*
X49221Y26028D01*
X49180Y26022D01*
X49140Y26015D01*
X49103Y26006D01*
X49066Y25994D01*
X49033Y25985D01*
X49001Y25972D01*
X48973Y25961D01*
X48947Y25952D01*
X48925Y25941D01*
X48907Y25932D01*
X48892Y25924D01*
X48881Y25918D01*
X48873Y25915D01*
X48871Y25913D01*
X48834Y25889D01*
X48801Y25863D01*
X48770Y25835D01*
X48740Y25806D01*
X48714Y25776D01*
X48690Y25745D01*
X48668Y25715D01*
X48648Y25687D01*
X48631Y25659D01*
X48616Y25634D01*
X48603Y25610D01*
X48594Y25589D01*
X48585Y25573D01*
X48579Y25561D01*
X48577Y25552D01*
X48575Y25550D01*
X48559Y25504D01*
X48544Y25456D01*
X48531Y25408D01*
X48522Y25358D01*
X48503Y25264D01*
X48498Y25217D01*
X48492Y25173D01*
X48489Y25134D01*
X48487Y25097D01*
X48485Y25064D01*
X48483Y25036D01*
X48481Y25012D01*
Y24995D01*
Y24984D01*
Y24981D01*
X48483Y24933D01*
X48485Y24886D01*
X48494Y24797D01*
X48500Y24755D01*
X48507Y24714D01*
X48514Y24675D01*
X48522Y24640D01*
X48529Y24607D01*
X48535Y24577D01*
X48542Y24551D01*
X48548Y24529D01*
X48553Y24512D01*
X48557Y24500D01*
X48561Y24490D01*
Y24488D01*
X48577Y24444D01*
X48596Y24403D01*
X48616Y24364D01*
X48638Y24329D01*
X48661Y24294D01*
X48683Y24263D01*
X48707Y24235D01*
X48729Y24209D01*
X48751Y24187D01*
X48772Y24167D01*
X48790Y24150D01*
X48807Y24135D01*
X48820Y24124D01*
X48829Y24115D01*
X48836Y24111D01*
X48838Y24109D01*
X48877Y24083D01*
X48918Y24063D01*
X48958Y24043D01*
X48999Y24026D01*
X49042Y24013D01*
X49082Y24002D01*
X49121Y23993D01*
X49160Y23985D01*
X49195Y23978D01*
X49229Y23974D01*
X49258Y23970D01*
X49284Y23969D01*
X49304Y23967D01*
X49332D01*
X49380Y23969D01*
X49425Y23972D01*
X49467Y23978D01*
X49508Y23987D01*
X49545Y23996D01*
X49580Y24008D01*
X49611Y24019D01*
X49641Y24030D01*
X49667Y24043D01*
X49691Y24054D01*
X49711Y24065D01*
X49728Y24074D01*
X49741Y24083D01*
X49750Y24089D01*
X49756Y24093D01*
X49758Y24094D01*
X49789Y24120D01*
X49819Y24148D01*
X49845Y24180D01*
X49870Y24211D01*
X49894Y24246D01*
X49915Y24279D01*
X49935Y24313D01*
X49952Y24346D01*
X49967Y24377D01*
X49981Y24407D01*
X49993Y24433D01*
X50002Y24455D01*
X50009Y24475D01*
X50015Y24488D01*
X50017Y24498D01*
X50019Y24501D01*
X50352Y24424D01*
X50331Y24359D01*
X50305Y24298D01*
X50279Y24241D01*
X50250Y24187D01*
X50220Y24139D01*
X50191Y24093D01*
X50159Y24052D01*
X50129Y24015D01*
X50100Y23982D01*
X50074Y23954D01*
X50050Y23928D01*
X50028Y23909D01*
X50011Y23893D01*
X49996Y23882D01*
X49989Y23874D01*
X49985Y23872D01*
X49935Y23837D01*
X49883Y23808D01*
X49828Y23782D01*
X49774Y23760D01*
X49721Y23739D01*
X49667Y23724D01*
X49615Y23711D01*
X49565Y23700D01*
X49517Y23693D01*
X49475Y23687D01*
X49438Y23682D01*
X49404Y23680D01*
X49376Y23678D01*
X49365Y23676D01*
X49340D01*
X49277Y23678D01*
X49216Y23684D01*
X49156Y23691D01*
X49099Y23700D01*
X49045Y23711D01*
X48994Y23726D01*
X48946Y23739D01*
X48901Y23754D01*
X48862Y23769D01*
X48825Y23782D01*
X48794Y23795D01*
X48768Y23808D01*
X48746Y23817D01*
X48731Y23824D01*
X48722Y23830D01*
X48718Y23832D01*
X48666Y23863D01*
X48618Y23897D01*
X48574Y23932D01*
X48531Y23969D01*
X48492Y24006D01*
X48457Y24043D01*
X48424Y24081D01*
X48396Y24117D01*
X48370Y24150D01*
X48346Y24183D01*
X48328Y24211D01*
X48311Y24235D01*
X48300Y24257D01*
X48291Y24272D01*
X48285Y24281D01*
X48283Y24285D01*
X48257Y24342D01*
X48233Y24400D01*
X48213Y24459D01*
X48196Y24518D01*
X48182Y24577D01*
X48169Y24636D01*
X48159Y24692D01*
X48150Y24744D01*
X48145Y24794D01*
X48139Y24840D01*
X48137Y24881D01*
X48133Y24916D01*
Y24944D01*
X48131Y24955D01*
Y24964D01*
Y24971D01*
Y24977D01*
Y24981D01*
Y24982D01*
X48133Y25051D01*
X48137Y25117D01*
X48145Y25182D01*
X48152Y25243D01*
X48163Y25304D01*
X48174Y25360D01*
X48187Y25414D01*
X48200Y25463D01*
X48211Y25508D01*
X48224Y25548D01*
X48235Y25584D01*
X48246Y25613D01*
X48254Y25637D01*
X48261Y25654D01*
X48265Y25665D01*
X48267Y25667D01*
Y25669D01*
X48292Y25726D01*
X48322Y25782D01*
X48353Y25832D01*
X48385Y25880D01*
X48418Y25922D01*
X48452Y25963D01*
X48483Y25998D01*
X48514Y26031D01*
X48544Y26061D01*
X48572Y26085D01*
X48596Y26107D01*
X48618Y26124D01*
X48636Y26137D01*
X48649Y26148D01*
X48657Y26153D01*
X48661Y26155D01*
X48711Y26185D01*
X48764Y26211D01*
X48820Y26233D01*
X48875Y26253D01*
X48931Y26268D01*
X48988Y26283D01*
X49042Y26294D01*
X49095Y26303D01*
X49143Y26309D01*
X49190Y26314D01*
X49230Y26318D01*
X49266Y26322D01*
X49293D01*
X49306Y26324D01*
X49334D01*
X49408Y26322D01*
D02*
G37*
G36*
X51868Y23711D02*
X51665D01*
X51648Y23743D01*
X51630Y23774D01*
X51587Y23835D01*
X51541Y23893D01*
X51517Y23921D01*
X51495Y23946D01*
X51473Y23969D01*
X51452Y23991D01*
X51434Y24009D01*
X51417Y24026D01*
X51404Y24039D01*
X51395Y24048D01*
X51388Y24054D01*
X51386Y24056D01*
X51310Y24118D01*
X51230Y24176D01*
X51153Y24228D01*
X51116Y24250D01*
X51080Y24272D01*
X51049Y24291D01*
X51019Y24307D01*
X50992Y24322D01*
X50969Y24333D01*
X50951Y24342D01*
X50936Y24350D01*
X50929Y24353D01*
X50925Y24355D01*
Y24659D01*
X50981Y24636D01*
X51038Y24611D01*
X51093Y24585D01*
X51145Y24559D01*
X51167Y24546D01*
X51190Y24535D01*
X51208Y24524D01*
X51223Y24514D01*
X51236Y24509D01*
X51247Y24503D01*
X51252Y24500D01*
X51254Y24498D01*
X51321Y24457D01*
X51350Y24437D01*
X51380Y24418D01*
X51406Y24398D01*
X51430Y24381D01*
X51452Y24363D01*
X51474Y24348D01*
X51491Y24333D01*
X51508Y24320D01*
X51523Y24307D01*
X51534Y24298D01*
X51543Y24291D01*
X51548Y24285D01*
X51552Y24281D01*
X51554Y24279D01*
Y26281D01*
X51868D01*
Y23711D01*
D02*
G37*
%LPC*%
G36*
X56853Y41212D02*
X56007D01*
Y40404D01*
X56009Y40352D01*
X56013Y40304D01*
X56019Y40259D01*
X56026Y40219D01*
X56035Y40182D01*
X56045Y40147D01*
X56056Y40115D01*
X56067Y40089D01*
X56078Y40065D01*
X56089Y40045D01*
X56098Y40026D01*
X56107Y40012D01*
X56115Y40002D01*
X56120Y39993D01*
X56124Y39989D01*
X56126Y39987D01*
X56148Y39963D01*
X56172Y39943D01*
X56196Y39926D01*
X56222Y39910D01*
X56246Y39897D01*
X56272Y39888D01*
X56296Y39878D01*
X56318Y39871D01*
X56340Y39865D01*
X56361Y39862D01*
X56378Y39858D01*
X56394Y39856D01*
X56407Y39854D01*
X56416D01*
X56422D01*
X56424D01*
X56470Y39858D01*
X56512Y39865D01*
X56551Y39876D01*
X56585Y39888D01*
X56612Y39900D01*
X56625Y39906D01*
X56635Y39912D01*
X56642Y39917D01*
X56648Y39919D01*
X56651Y39923D01*
X56653D01*
X56690Y39950D01*
X56722Y39982D01*
X56748Y40015D01*
X56770Y40049D01*
X56786Y40078D01*
X56792Y40089D01*
X56797Y40100D01*
X56801Y40110D01*
X56805Y40117D01*
X56807Y40121D01*
Y40123D01*
X56814Y40148D01*
X56822Y40174D01*
X56833Y40233D01*
X56842Y40295D01*
X56847Y40352D01*
X56849Y40380D01*
X56851Y40404D01*
Y40428D01*
X56853Y40446D01*
Y41212D01*
D02*
G37*
G36*
Y46478D02*
X56007D01*
Y45670D01*
X56009Y45618D01*
X56013Y45570D01*
X56019Y45525D01*
X56026Y45485D01*
X56035Y45448D01*
X56045Y45412D01*
X56056Y45381D01*
X56067Y45355D01*
X56078Y45331D01*
X56089Y45311D01*
X56098Y45292D01*
X56107Y45278D01*
X56115Y45268D01*
X56120Y45259D01*
X56124Y45255D01*
X56126Y45253D01*
X56148Y45229D01*
X56172Y45209D01*
X56196Y45192D01*
X56222Y45176D01*
X56246Y45163D01*
X56272Y45154D01*
X56296Y45144D01*
X56318Y45137D01*
X56340Y45131D01*
X56361Y45128D01*
X56378Y45124D01*
X56394Y45122D01*
X56407Y45120D01*
X56416D01*
X56422D01*
X56424D01*
X56470Y45124D01*
X56512Y45131D01*
X56551Y45142D01*
X56585Y45154D01*
X56612Y45167D01*
X56625Y45172D01*
X56635Y45178D01*
X56642Y45183D01*
X56648Y45185D01*
X56651Y45189D01*
X56653D01*
X56690Y45216D01*
X56722Y45248D01*
X56748Y45281D01*
X56770Y45314D01*
X56786Y45344D01*
X56792Y45355D01*
X56797Y45366D01*
X56801Y45375D01*
X56805Y45383D01*
X56807Y45387D01*
Y45388D01*
X56814Y45414D01*
X56822Y45440D01*
X56833Y45500D01*
X56842Y45561D01*
X56847Y45618D01*
X56849Y45646D01*
X56851Y45670D01*
Y45694D01*
X56853Y45712D01*
Y46478D01*
D02*
G37*
G36*
X17792Y69268D02*
X16876D01*
Y68572D01*
X16878Y68535D01*
Y68500D01*
X16880Y68469D01*
X16882Y68439D01*
X16884Y68413D01*
X16886Y68391D01*
X16887Y68370D01*
X16891Y68352D01*
X16893Y68337D01*
X16895Y68324D01*
X16897Y68315D01*
X16899Y68308D01*
Y68302D01*
X16900Y68300D01*
Y68298D01*
X16917Y68250D01*
X16939Y68208D01*
X16965Y68173D01*
X16989Y68141D01*
X17013Y68117D01*
X17034Y68099D01*
X17041Y68093D01*
X17047Y68088D01*
X17050Y68084D01*
X17052D01*
X17074Y68069D01*
X17097Y68056D01*
X17143Y68037D01*
X17189Y68023D01*
X17232Y68012D01*
X17250Y68010D01*
X17269Y68006D01*
X17285Y68004D01*
X17298D01*
X17311Y68002D01*
X17319D01*
X17324D01*
X17326D01*
X17367Y68004D01*
X17404Y68008D01*
X17441Y68015D01*
X17474Y68025D01*
X17503Y68034D01*
X17533Y68047D01*
X17557Y68058D01*
X17581Y68071D01*
X17602Y68084D01*
X17620Y68097D01*
X17635Y68110D01*
X17648Y68119D01*
X17657Y68128D01*
X17664Y68136D01*
X17668Y68139D01*
X17670Y68141D01*
X17692Y68169D01*
X17711Y68200D01*
X17727Y68235D01*
X17740Y68273D01*
X17753Y68311D01*
X17763Y68350D01*
X17777Y68426D01*
X17781Y68463D01*
X17785Y68496D01*
X17788Y68528D01*
X17790Y68554D01*
X17792Y68576D01*
Y69268D01*
D02*
G37*
G36*
X38467Y20215D02*
X38458D01*
X38452D01*
X38451D01*
X38406Y20213D01*
X38364Y20209D01*
X38323Y20202D01*
X38284Y20191D01*
X38249Y20179D01*
X38216Y20168D01*
X38186Y20154D01*
X38158Y20141D01*
X38134Y20128D01*
X38112Y20113D01*
X38093Y20102D01*
X38079Y20089D01*
X38067Y20080D01*
X38058Y20072D01*
X38053Y20068D01*
X38051Y20067D01*
X38023Y20039D01*
X38001Y20009D01*
X37979Y19978D01*
X37962Y19948D01*
X37947Y19917D01*
X37934Y19887D01*
X37925Y19858D01*
X37916Y19830D01*
X37910Y19804D01*
X37905Y19782D01*
X37903Y19760D01*
X37899Y19741D01*
Y19726D01*
X37897Y19715D01*
Y19706D01*
X37899Y19667D01*
X37905Y19628D01*
X37912Y19593D01*
X37921Y19560D01*
X37933Y19528D01*
X37945Y19499D01*
X37960Y19473D01*
X37973Y19447D01*
X37988Y19427D01*
X38003Y19406D01*
X38016Y19390D01*
X38027Y19377D01*
X38036Y19365D01*
X38043Y19356D01*
X38049Y19353D01*
X38051Y19351D01*
X38080Y19325D01*
X38114Y19305D01*
X38147Y19284D01*
X38180Y19267D01*
X38216Y19254D01*
X38251Y19243D01*
X38284Y19234D01*
X38317Y19227D01*
X38349Y19219D01*
X38377Y19216D01*
X38402Y19212D01*
X38425Y19210D01*
X38443Y19208D01*
X38458D01*
X38465D01*
X38469D01*
X38519Y19210D01*
X38567Y19214D01*
X38611Y19221D01*
X38654Y19230D01*
X38693Y19242D01*
X38728Y19254D01*
X38761Y19267D01*
X38791Y19280D01*
X38817Y19293D01*
X38841Y19306D01*
X38859Y19319D01*
X38876Y19330D01*
X38889Y19340D01*
X38898Y19347D01*
X38904Y19351D01*
X38906Y19353D01*
X38933Y19380D01*
X38957Y19408D01*
X38980Y19438D01*
X38998Y19465D01*
X39013Y19495D01*
X39026Y19523D01*
X39037Y19550D01*
X39044Y19576D01*
X39052Y19602D01*
X39055Y19624D01*
X39059Y19645D01*
X39063Y19661D01*
Y19674D01*
X39065Y19686D01*
Y19695D01*
X39061Y19745D01*
X39054Y19793D01*
X39041Y19837D01*
X39026Y19876D01*
X39020Y19895D01*
X39013Y19909D01*
X39006Y19922D01*
X39000Y19933D01*
X38996Y19943D01*
X38993Y19950D01*
X38989Y19954D01*
Y19956D01*
X38957Y19998D01*
X38920Y20037D01*
X38883Y20070D01*
X38846Y20096D01*
X38813Y20119D01*
X38800Y20126D01*
X38787Y20133D01*
X38778Y20139D01*
X38769Y20143D01*
X38765Y20146D01*
X38763D01*
X38706Y20168D01*
X38650Y20185D01*
X38598Y20198D01*
X38550Y20205D01*
X38530Y20209D01*
X38510Y20211D01*
X38493Y20213D01*
X38478D01*
X38467Y20215D01*
D02*
G37*
G36*
X38050Y51774D02*
Y50620D01*
X38853D01*
X38050Y51774D01*
D02*
G37*
%LPD*%
D23*
X42236Y41201D02*
G03*
X43102Y40335I866J0D01*
G01*
X45898D02*
G03*
X46764Y41201I0J866D01*
G01*
X43102Y48012D02*
G03*
X42236Y47146I0J-866D01*
G01*
X46764D02*
G03*
X45898Y48012I-866J0D01*
G01*
X49927Y47185D02*
G03*
X50793Y46319I866J0D01*
G01*
X53589D02*
G03*
X54455Y47185I0J866D01*
G01*
X50793Y53996D02*
G03*
X49927Y53130I0J-866D01*
G01*
X54455D02*
G03*
X53589Y53996I-866J0D01*
G01*
X40189Y31602D02*
G03*
X39323Y32468I-866J0D01*
G01*
X36527D02*
G03*
X35661Y31602I0J-866D01*
G01*
X39323Y24791D02*
G03*
X40189Y25657I0J866D01*
G01*
X35661D02*
G03*
X36528Y24791I866J0D01*
G01*
X44567Y31602D02*
G03*
X43701Y32468I-866J0D01*
G01*
X40905D02*
G03*
X40039Y31602I0J-866D01*
G01*
X43701Y24791D02*
G03*
X44567Y25657I0J866D01*
G01*
X40039D02*
G03*
X40905Y24791I866J0D01*
G01*
X42595Y47146D02*
G03*
X41729Y48012I-866J0D01*
G01*
X38933D02*
G03*
X38067Y47146I0J-866D01*
G01*
X41729Y40335D02*
G03*
X42595Y41201I0J866D01*
G01*
X38067D02*
G03*
X38934Y40335I866J0D01*
G01*
X52711Y34672D02*
G03*
X51845Y35538I-866J0D01*
G01*
X49049D02*
G03*
X48183Y34672I0J-866D01*
G01*
X51845Y27861D02*
G03*
X52711Y28727I0J866D01*
G01*
X48183D02*
G03*
X49049Y27861I866J0D01*
G01*
X56910Y34672D02*
G03*
X56044Y35538I-866J0D01*
G01*
X53248D02*
G03*
X52382Y34672I0J-866D01*
G01*
X56044Y27861D02*
G03*
X56910Y28727I0J866D01*
G01*
X52382D02*
G03*
X53248Y27861I866J0D01*
G01*
X43102Y40335D02*
X45898D01*
X42236Y41221D02*
Y42992D01*
X46764Y41221D02*
Y42992D01*
X42236Y45354D02*
Y47126D01*
X46764Y45354D02*
Y47126D01*
X43102Y48012D02*
X45898D01*
X50793Y46319D02*
X53589D01*
X49927Y47205D02*
Y48976D01*
X54455Y47205D02*
Y48976D01*
X49927Y51338D02*
Y53110D01*
X54455Y51338D02*
Y53110D01*
X50793Y53996D02*
X53589D01*
X46689Y38236D02*
X49347D01*
X51709D02*
X54366D01*
X46689Y42764D02*
X49347D01*
X51709D02*
X54366D01*
X46689Y38236D02*
Y42764D01*
X54366Y38236D02*
Y42764D01*
X51709Y46807D02*
X54366D01*
X46689D02*
X49347D01*
X51709Y42280D02*
X54366D01*
X46689D02*
X49347D01*
X54366D02*
Y46807D01*
X46689Y42280D02*
Y46807D01*
X36527Y32468D02*
X39323D01*
X40189Y29810D02*
Y31582D01*
X35661Y29810D02*
Y31582D01*
X40189Y25677D02*
Y27448D01*
X35661Y25677D02*
Y27448D01*
X36528Y24791D02*
X39323D01*
X40905Y32468D02*
X43701D01*
X44567Y29810D02*
Y31582D01*
X40039Y29810D02*
Y31582D01*
X44567Y25677D02*
Y27448D01*
X40039Y25677D02*
Y27448D01*
X40905Y24791D02*
X43701D01*
X38933Y48012D02*
X41729D01*
X42595Y45354D02*
Y47126D01*
X38067Y45354D02*
Y47126D01*
X42595Y41221D02*
Y42992D01*
X38067Y41221D02*
Y42992D01*
X38934Y40335D02*
X41729D01*
X49049Y35538D02*
X51845D01*
X52711Y32881D02*
Y34652D01*
X48183Y32881D02*
Y34652D01*
X52711Y28747D02*
Y30518D01*
X48183Y28747D02*
Y30519D01*
X49049Y27861D02*
X51845D01*
X53248Y35538D02*
X56044D01*
X56910Y32881D02*
Y34652D01*
X52382Y32881D02*
Y34652D01*
X56910Y28747D02*
Y30518D01*
X52382Y28747D02*
Y30519D01*
X53248Y27861D02*
X56044D01*
D24*
X15827Y60500D02*
X19327D01*
X18327Y59500D02*
X19327Y60500D01*
X18327Y61500D02*
X19327Y60500D01*
X20827Y54000D02*
Y57500D01*
X21827Y56500D01*
X19827D02*
X20827Y57500D01*
X51929Y58531D02*
Y76248D01*
X14921Y58531D02*
Y76248D01*
M02*
