G04*
G04 #@! TF.GenerationSoftware,Altium Limited,Altium Designer,22.2.1 (43)*
G04*
G04 Layer_Physical_Order=3*
G04 Layer_Color=16440176*
%FSLAX25Y25*%
%MOIN*%
G70*
G04*
G04 #@! TF.SameCoordinates,7A19E3BE-6BE7-4922-87A8-EFF1A209D318*
G04*
G04*
G04 #@! TF.FilePolarity,Positive*
G04*
G01*
G75*
%ADD10C,0.00600*%
%ADD17C,0.01772*%
G36*
X59524Y77973D02*
Y12973D01*
X58524Y11973D01*
X8024D01*
X7024Y12973D01*
Y77473D01*
X8524Y78973D01*
X13663D01*
X13815Y78473D01*
X13587Y78321D01*
X13054Y77523D01*
X12867Y76583D01*
X12896D01*
Y32437D01*
X12831Y32372D01*
X12605Y31826D01*
Y31235D01*
X12831Y30689D01*
X13249Y30270D01*
X13795Y30044D01*
X14387D01*
X14933Y30270D01*
X15351Y30689D01*
X15577Y31235D01*
Y31621D01*
X16075Y31830D01*
X16241Y31664D01*
X16788Y31438D01*
X17379D01*
X17925Y31664D01*
X18343Y32082D01*
X18569Y32628D01*
Y33219D01*
X18343Y33765D01*
X17925Y34183D01*
X17379Y34409D01*
X16788D01*
X16241Y34183D01*
X15823Y33765D01*
X15597Y33219D01*
Y32832D01*
X15134Y32638D01*
X14982Y32740D01*
X14933Y32790D01*
X14870Y32816D01*
X14732Y32909D01*
Y57811D01*
X15232Y57963D01*
X15424Y57674D01*
X15987Y57299D01*
X16650Y57167D01*
Y57182D01*
X17582D01*
Y42412D01*
X17566Y41919D01*
X17566Y41919D01*
X17700Y41246D01*
X18081Y40675D01*
X18652Y40294D01*
X19325Y40160D01*
Y40176D01*
X19325Y40176D01*
X24906D01*
Y40156D01*
X25016Y40110D01*
X25062Y40000D01*
X25082D01*
Y34910D01*
X24582Y34622D01*
X24265Y34754D01*
X23751D01*
X23566Y34983D01*
X23461Y35206D01*
X23662Y35691D01*
Y36283D01*
X23436Y36829D01*
X23018Y37247D01*
X22471Y37473D01*
X21880D01*
X21334Y37247D01*
X20916Y36829D01*
X20690Y36283D01*
Y35691D01*
X20916Y35145D01*
X21334Y34727D01*
X21880Y34501D01*
X22395D01*
X22580Y34272D01*
X22685Y34048D01*
X22484Y33564D01*
Y32972D01*
X22710Y32426D01*
X23045Y32091D01*
X23051Y32057D01*
X23006Y31712D01*
X22937Y31546D01*
X22571Y31394D01*
X22153Y30977D01*
X21927Y30430D01*
Y29839D01*
X22153Y29293D01*
X22571Y28875D01*
X23117Y28649D01*
X23708D01*
X24254Y28875D01*
X24672Y29293D01*
X24783Y29561D01*
X24966Y29613D01*
X25348Y29618D01*
X25685Y29280D01*
X26232Y29054D01*
X26823D01*
X27369Y29280D01*
X27787Y29698D01*
X28013Y30244D01*
Y30836D01*
X27787Y31382D01*
X27369Y31800D01*
X27133Y31897D01*
X26858Y32354D01*
X26874Y32504D01*
X26918Y32722D01*
Y40000D01*
X26918Y40000D01*
X26939D01*
X26784Y40778D01*
X26344Y41438D01*
X25684Y41878D01*
X24906Y42033D01*
X24906Y42033D01*
Y42011D01*
X19422D01*
X19421Y42015D01*
X19418Y42016D01*
Y57300D01*
X19433D01*
X19301Y57963D01*
X19088Y58282D01*
X19355Y58782D01*
X20350D01*
Y58767D01*
X21013Y58899D01*
X21576Y59274D01*
X21951Y59837D01*
X22083Y60500D01*
X21951Y61163D01*
X21576Y61726D01*
X21389Y61850D01*
Y62350D01*
X21576Y62474D01*
X21951Y63037D01*
X22083Y63700D01*
X21951Y64363D01*
X21576Y64926D01*
X21013Y65301D01*
X20350Y65433D01*
Y65418D01*
X19418D01*
Y66316D01*
X19760Y66658D01*
X19986Y67204D01*
Y67796D01*
X19760Y68342D01*
X19342Y68760D01*
X18796Y68986D01*
X18204D01*
X17658Y68760D01*
X17240Y68342D01*
X17014Y67796D01*
Y67204D01*
X17240Y66658D01*
X17582Y66316D01*
Y65300D01*
X17567D01*
X17699Y64637D01*
X17912Y64318D01*
X17645Y63818D01*
X16650D01*
Y63833D01*
X15987Y63701D01*
X15424Y63326D01*
X15232Y63037D01*
X14732Y63189D01*
Y76583D01*
X14727Y76605D01*
X14896Y77012D01*
X15302Y77180D01*
X15325Y77176D01*
X27096D01*
Y76655D01*
X27322Y76109D01*
X27740Y75691D01*
X28286Y75465D01*
X28877D01*
X29423Y75691D01*
X29841Y76109D01*
X30057Y76631D01*
X30150Y76663D01*
X30567Y76705D01*
X30616Y76587D01*
X31034Y76169D01*
X31580Y75943D01*
X32172D01*
X32718Y76169D01*
X33136Y76587D01*
X33362Y77133D01*
Y77724D01*
X33136Y78271D01*
X32933Y78473D01*
X33140Y78973D01*
X58524D01*
X59524Y77973D01*
D02*
G37*
%LPC*%
G36*
X26116Y70681D02*
X25525D01*
X24979Y70455D01*
X24561Y70037D01*
X24335Y69491D01*
Y68900D01*
X24561Y68354D01*
X24979Y67936D01*
X25525Y67709D01*
X26116D01*
X26662Y67936D01*
X27080Y68354D01*
X27307Y68900D01*
Y69491D01*
X27080Y70037D01*
X26662Y70455D01*
X26116Y70681D01*
D02*
G37*
G36*
X28969Y65197D02*
X28377D01*
X27831Y64971D01*
X27413Y64553D01*
X27187Y64007D01*
Y63416D01*
X27413Y62870D01*
X27831Y62452D01*
X28377Y62226D01*
X28969D01*
X29515Y62452D01*
X29932Y62870D01*
X29989Y63005D01*
X30530D01*
X30665Y62680D01*
X31083Y62262D01*
X31629Y62036D01*
X32220D01*
X32766Y62262D01*
X33184Y62680D01*
X33410Y63226D01*
Y63817D01*
X33184Y64363D01*
X32766Y64781D01*
X32220Y65007D01*
X31629D01*
X31083Y64781D01*
X30665Y64363D01*
X30609Y64228D01*
X30067D01*
X29932Y64553D01*
X29515Y64971D01*
X28969Y65197D01*
D02*
G37*
G36*
X35296Y58486D02*
X34705D01*
X34158Y58260D01*
X33740Y57842D01*
X33514Y57296D01*
Y56704D01*
X33740Y56158D01*
X34158Y55740D01*
X34705Y55514D01*
X35296D01*
X35842Y55740D01*
X36199Y56097D01*
X36486Y56048D01*
X36699Y55944D01*
Y55684D01*
X36925Y55138D01*
X37343Y54720D01*
X37889Y54494D01*
X38480D01*
X39026Y54720D01*
X39444Y55138D01*
X39670Y55684D01*
Y56275D01*
X39444Y56822D01*
X39026Y57240D01*
X38480Y57466D01*
X37889D01*
X37343Y57240D01*
X36986Y56883D01*
X36699Y56932D01*
X36486Y57036D01*
Y57296D01*
X36260Y57842D01*
X35842Y58260D01*
X35296Y58486D01*
D02*
G37*
G36*
X22686Y58196D02*
X22095D01*
X21549Y57969D01*
X21131Y57551D01*
X20905Y57005D01*
Y56414D01*
X21131Y55868D01*
X21549Y55450D01*
X22095Y55224D01*
X22686D01*
X23232Y55450D01*
X23650Y55868D01*
X24172Y55823D01*
X24240Y55658D01*
X24308Y55591D01*
X24611Y55217D01*
X24736Y54586D01*
X25093Y54051D01*
X25628Y53694D01*
X26259Y53568D01*
Y53582D01*
X28500D01*
Y53554D01*
X28538Y53538D01*
X28554Y53500D01*
X28582D01*
Y52700D01*
X28567D01*
X28699Y52037D01*
X28912Y51718D01*
X28645Y51218D01*
X27830D01*
Y51233D01*
X27167Y51101D01*
X26604Y50726D01*
X26229Y50163D01*
X26097Y49500D01*
X26229Y48837D01*
X26604Y48274D01*
X26790Y48150D01*
Y47650D01*
X26604Y47526D01*
X26229Y46963D01*
X26097Y46300D01*
X26229Y45637D01*
X26604Y45074D01*
X26790Y44950D01*
Y44450D01*
X26604Y44326D01*
X26229Y43763D01*
X26097Y43100D01*
X26229Y42437D01*
X26604Y41874D01*
X27167Y41499D01*
X27830Y41367D01*
Y41382D01*
X28645D01*
X28912Y40882D01*
X28699Y40563D01*
X28567Y39900D01*
X28582D01*
Y38500D01*
Y29184D01*
X28240Y28842D01*
X28014Y28295D01*
Y27705D01*
X28240Y27158D01*
X28658Y26740D01*
X29204Y26514D01*
X29796D01*
X30342Y26740D01*
X30760Y27158D01*
X30986Y27705D01*
Y28295D01*
X30760Y28842D01*
X30418Y29184D01*
Y38500D01*
Y39782D01*
X31170D01*
Y39767D01*
X31833Y39899D01*
X32396Y40274D01*
X32771Y40837D01*
X32903Y41500D01*
X32771Y42163D01*
X32396Y42726D01*
X32210Y42850D01*
Y43350D01*
X32396Y43474D01*
X32771Y44037D01*
X32903Y44700D01*
X32771Y45363D01*
X32396Y45926D01*
X32210Y46050D01*
Y46550D01*
X32396Y46674D01*
X32771Y47237D01*
X32903Y47900D01*
X32771Y48563D01*
X32396Y49126D01*
X32210Y49250D01*
Y49750D01*
X32396Y49874D01*
X32771Y50437D01*
X32903Y51100D01*
X32771Y51763D01*
X32396Y52326D01*
X31833Y52701D01*
X31170Y52833D01*
Y52818D01*
X30418D01*
Y53500D01*
X30437D01*
X30290Y54241D01*
X29870Y54870D01*
X29241Y55290D01*
X28500Y55437D01*
Y55418D01*
X27172D01*
X26867Y55918D01*
X26986Y56204D01*
Y56796D01*
X26760Y57342D01*
X26342Y57760D01*
X25796Y57986D01*
X25204D01*
X24658Y57760D01*
X24240Y57342D01*
X23718Y57387D01*
X23650Y57551D01*
X23232Y57969D01*
X22686Y58196D01*
D02*
G37*
G36*
X45296Y56486D02*
X44704D01*
X44158Y56260D01*
X43740Y55842D01*
X43514Y55296D01*
Y54704D01*
X43740Y54158D01*
X44058Y53841D01*
Y52500D01*
X44043D01*
X44174Y51837D01*
X44388Y51518D01*
X44120Y51018D01*
X43019D01*
Y51033D01*
X42355Y50901D01*
X41793Y50526D01*
X41417Y49963D01*
X41285Y49300D01*
X41417Y48637D01*
X41793Y48074D01*
X41979Y47950D01*
Y47450D01*
X41793Y47326D01*
X41417Y46763D01*
X41285Y46100D01*
X41417Y45437D01*
X41793Y44874D01*
X41979Y44750D01*
Y44250D01*
X41793Y44126D01*
X41417Y43563D01*
X41285Y42900D01*
X41417Y42237D01*
X41793Y41674D01*
X42355Y41299D01*
X43019Y41167D01*
Y41182D01*
X44058D01*
Y38454D01*
X44026D01*
X44025Y38451D01*
X44022Y38450D01*
Y38418D01*
X44022Y38418D01*
X34000D01*
Y38437D01*
X33259Y38290D01*
X32630Y37870D01*
X32210Y37241D01*
X32063Y36500D01*
X32082D01*
Y33184D01*
X31740Y32842D01*
X31514Y32296D01*
Y31705D01*
X31740Y31158D01*
X32158Y30740D01*
X32704Y30514D01*
X33296D01*
X33842Y30740D01*
X34260Y31158D01*
X34486Y31705D01*
Y32296D01*
X34260Y32842D01*
X33918Y33184D01*
Y36500D01*
X33946D01*
X33962Y36538D01*
X34000Y36554D01*
Y36582D01*
X44022D01*
Y36564D01*
X44745Y36708D01*
X45358Y37117D01*
X45768Y37731D01*
X45912Y38454D01*
X45893D01*
Y41300D01*
X45909D01*
X45777Y41963D01*
X45564Y42282D01*
X45831Y42782D01*
X46933D01*
Y42767D01*
X47596Y42899D01*
X48158Y43274D01*
X48534Y43837D01*
X48666Y44500D01*
X48534Y45163D01*
X48158Y45726D01*
X47972Y45850D01*
Y46350D01*
X48158Y46474D01*
X48534Y47037D01*
X48666Y47700D01*
X48534Y48363D01*
X48158Y48926D01*
X47972Y49050D01*
Y49550D01*
X48158Y49674D01*
X48534Y50237D01*
X48666Y50900D01*
X48534Y51563D01*
X48158Y52126D01*
X47596Y52501D01*
X46933Y52633D01*
Y52618D01*
X45893D01*
Y53792D01*
X46260Y54158D01*
X46486Y54704D01*
Y55296D01*
X46260Y55842D01*
X45842Y56260D01*
X45296Y56486D01*
D02*
G37*
G36*
X38166Y43020D02*
X37575D01*
X37029Y42794D01*
X36611Y42376D01*
X36385Y41830D01*
Y41239D01*
X36611Y40692D01*
X37029Y40275D01*
X37575Y40048D01*
X38166D01*
X38712Y40275D01*
X39130Y40692D01*
X39356Y41239D01*
Y41830D01*
X39130Y42376D01*
X38712Y42794D01*
X38166Y43020D01*
D02*
G37*
G36*
X49159Y39884D02*
X48568D01*
X48022Y39658D01*
X47604Y39240D01*
X47377Y38694D01*
Y38103D01*
X47604Y37557D01*
X48022Y37139D01*
X48568Y36913D01*
X49159D01*
X49705Y37139D01*
X50123Y37557D01*
X50349Y38103D01*
Y38694D01*
X50123Y39240D01*
X49705Y39658D01*
X49159Y39884D01*
D02*
G37*
G36*
X43138Y35768D02*
X42547D01*
X42001Y35542D01*
X41583Y35124D01*
X41357Y34578D01*
Y33987D01*
X41583Y33441D01*
X42001Y33023D01*
X42547Y32797D01*
X43138D01*
X43684Y33023D01*
X44102Y33441D01*
X44328Y33987D01*
Y34578D01*
X44102Y35124D01*
X43684Y35542D01*
X43138Y35768D01*
D02*
G37*
G36*
X48425Y31590D02*
X47834D01*
X47288Y31363D01*
X46870Y30945D01*
X46644Y30399D01*
Y29808D01*
X46870Y29262D01*
X47288Y28844D01*
X47834Y28618D01*
X48425D01*
X48971Y28844D01*
X49389Y29262D01*
X49615Y29808D01*
Y30399D01*
X49389Y30945D01*
X48971Y31363D01*
X48425Y31590D01*
D02*
G37*
G36*
X34297Y29593D02*
X33705D01*
X33159Y29367D01*
X32741Y28949D01*
X32515Y28403D01*
Y27812D01*
X32741Y27266D01*
X33159Y26848D01*
X33705Y26622D01*
X34297D01*
X34843Y26848D01*
X35260Y27266D01*
X35487Y27812D01*
Y28403D01*
X35260Y28949D01*
X34843Y29367D01*
X34297Y29593D01*
D02*
G37*
G36*
X32069Y25677D02*
X31478D01*
X30932Y25451D01*
X30514Y25032D01*
X30288Y24486D01*
Y23895D01*
X30514Y23349D01*
X30932Y22931D01*
X31478Y22705D01*
X32069D01*
X32615Y22931D01*
X33033Y23349D01*
X33259Y23895D01*
Y24486D01*
X33033Y25032D01*
X32615Y25451D01*
X32069Y25677D01*
D02*
G37*
G36*
X26296Y21486D02*
X25705D01*
X25158Y21260D01*
X24740Y20842D01*
X24514Y20296D01*
Y19704D01*
X24740Y19158D01*
X25158Y18740D01*
X25705Y18514D01*
X26296D01*
X26842Y18740D01*
X27260Y19158D01*
X27486Y19704D01*
Y20296D01*
X27260Y20842D01*
X26842Y21260D01*
X26296Y21486D01*
D02*
G37*
G36*
X58046Y18222D02*
X38900D01*
Y13900D01*
X58046D01*
Y18222D01*
D02*
G37*
G36*
X22280Y18004D02*
X10400D01*
Y12900D01*
X22280D01*
Y18004D01*
D02*
G37*
%LPD*%
G36*
X53559Y17620D02*
X53576D01*
X53598Y17617D01*
X53646Y17615D01*
X53701Y17609D01*
X53759Y17600D01*
X53825Y17591D01*
X53892Y17578D01*
X53962Y17561D01*
X54034Y17541D01*
X54106Y17517D01*
X54174Y17487D01*
X54241Y17454D01*
X54302Y17415D01*
X54359Y17371D01*
X54363Y17369D01*
X54372Y17360D01*
X54385Y17345D01*
X54405Y17325D01*
X54426Y17301D01*
X54450Y17271D01*
X54477Y17236D01*
X54505Y17195D01*
X54533Y17151D01*
X54559Y17101D01*
X54586Y17046D01*
X54607Y16987D01*
X54629Y16924D01*
X54645Y16857D01*
X54655Y16785D01*
X54662Y16708D01*
X54054Y16682D01*
Y16684D01*
X54052Y16693D01*
X54049Y16704D01*
X54045Y16719D01*
X54041Y16739D01*
X54034Y16761D01*
X54027Y16785D01*
X54019Y16811D01*
X53995Y16865D01*
X53966Y16920D01*
X53929Y16972D01*
X53910Y16996D01*
X53886Y17016D01*
X53884Y17018D01*
X53879Y17020D01*
X53873Y17024D01*
X53862Y17031D01*
X53849Y17040D01*
X53831Y17048D01*
X53812Y17057D01*
X53790Y17068D01*
X53764Y17077D01*
X53735Y17086D01*
X53703Y17094D01*
X53668Y17103D01*
X53631Y17109D01*
X53592Y17114D01*
X53546Y17118D01*
X53474D01*
X53456Y17116D01*
X53435Y17114D01*
X53408Y17112D01*
X53380Y17109D01*
X53347Y17105D01*
X53282Y17092D01*
X53212Y17072D01*
X53177Y17059D01*
X53145Y17044D01*
X53114Y17027D01*
X53084Y17007D01*
X53079Y17005D01*
X53068Y16994D01*
X53053Y16979D01*
X53036Y16957D01*
X53018Y16931D01*
X53003Y16900D01*
X52992Y16863D01*
X52990Y16844D01*
X52988Y16822D01*
Y16819D01*
Y16817D01*
X52990Y16804D01*
X52992Y16785D01*
X52999Y16759D01*
X53009Y16730D01*
X53025Y16700D01*
X53047Y16669D01*
X53077Y16639D01*
X53079D01*
X53084Y16634D01*
X53090Y16630D01*
X53103Y16621D01*
X53118Y16612D01*
X53138Y16601D01*
X53162Y16591D01*
X53190Y16578D01*
X53225Y16562D01*
X53264Y16547D01*
X53310Y16530D01*
X53363Y16512D01*
X53421Y16492D01*
X53485Y16475D01*
X53559Y16455D01*
X53637Y16436D01*
X53640D01*
X53642Y16434D01*
X53648D01*
X53657Y16432D01*
X53679Y16425D01*
X53709Y16418D01*
X53746Y16408D01*
X53790Y16397D01*
X53836Y16384D01*
X53886Y16370D01*
X53938Y16353D01*
X53993Y16338D01*
X54102Y16301D01*
X54154Y16281D01*
X54204Y16259D01*
X54252Y16240D01*
X54294Y16218D01*
X54296Y16216D01*
X54302Y16214D01*
X54313Y16207D01*
X54328Y16198D01*
X54346Y16185D01*
X54368Y16172D01*
X54389Y16157D01*
X54416Y16137D01*
X54442Y16118D01*
X54468Y16094D01*
X54496Y16070D01*
X54525Y16041D01*
X54579Y15980D01*
X54603Y15945D01*
X54627Y15911D01*
X54629Y15908D01*
X54631Y15902D01*
X54638Y15891D01*
X54647Y15876D01*
X54655Y15856D01*
X54666Y15834D01*
X54677Y15808D01*
X54688Y15777D01*
X54699Y15745D01*
X54710Y15708D01*
X54721Y15668D01*
X54729Y15627D01*
X54738Y15581D01*
X54745Y15533D01*
X54747Y15483D01*
X54749Y15431D01*
Y15429D01*
Y15420D01*
Y15405D01*
X54747Y15387D01*
X54745Y15363D01*
X54740Y15337D01*
X54736Y15307D01*
X54732Y15274D01*
X54723Y15237D01*
X54714Y15198D01*
X54701Y15158D01*
X54688Y15117D01*
X54671Y15073D01*
X54651Y15030D01*
X54629Y14988D01*
X54603Y14945D01*
X54601Y14942D01*
X54597Y14936D01*
X54588Y14923D01*
X54577Y14908D01*
X54562Y14890D01*
X54544Y14868D01*
X54522Y14844D01*
X54498Y14818D01*
X54470Y14792D01*
X54440Y14764D01*
X54407Y14735D01*
X54370Y14709D01*
X54330Y14681D01*
X54289Y14655D01*
X54243Y14631D01*
X54195Y14609D01*
X54193Y14607D01*
X54185Y14605D01*
X54169Y14598D01*
X54147Y14592D01*
X54123Y14583D01*
X54093Y14574D01*
X54056Y14565D01*
X54017Y14555D01*
X53971Y14544D01*
X53921Y14535D01*
X53866Y14526D01*
X53809Y14517D01*
X53749Y14511D01*
X53683Y14504D01*
X53613Y14502D01*
X53541Y14500D01*
X53502D01*
X53487Y14502D01*
X53467D01*
X53448Y14504D01*
X53400Y14509D01*
X53343Y14513D01*
X53282Y14522D01*
X53217Y14533D01*
X53147Y14548D01*
X53075Y14565D01*
X53001Y14585D01*
X52929Y14611D01*
X52857Y14642D01*
X52787Y14677D01*
X52722Y14718D01*
X52661Y14764D01*
X52656Y14766D01*
X52648Y14777D01*
X52632Y14792D01*
X52613Y14814D01*
X52589Y14840D01*
X52560Y14875D01*
X52532Y14914D01*
X52501Y14960D01*
X52469Y15010D01*
X52438Y15069D01*
X52408Y15132D01*
X52379Y15200D01*
X52351Y15276D01*
X52329Y15357D01*
X52310Y15444D01*
X52297Y15536D01*
X52890Y15592D01*
Y15588D01*
X52892Y15579D01*
X52896Y15564D01*
X52900Y15544D01*
X52907Y15518D01*
X52916Y15490D01*
X52924Y15459D01*
X52935Y15427D01*
X52966Y15355D01*
X52983Y15317D01*
X53003Y15280D01*
X53025Y15246D01*
X53049Y15213D01*
X53077Y15182D01*
X53105Y15154D01*
X53108Y15152D01*
X53114Y15147D01*
X53123Y15141D01*
X53136Y15132D01*
X53151Y15121D01*
X53173Y15110D01*
X53195Y15097D01*
X53223Y15084D01*
X53251Y15071D01*
X53286Y15058D01*
X53321Y15047D01*
X53360Y15036D01*
X53404Y15028D01*
X53450Y15021D01*
X53498Y15017D01*
X53548Y15014D01*
X53576D01*
X53596Y15017D01*
X53620Y15019D01*
X53648Y15021D01*
X53681Y15025D01*
X53714Y15030D01*
X53786Y15045D01*
X53823Y15056D01*
X53860Y15067D01*
X53895Y15082D01*
X53929Y15097D01*
X53962Y15117D01*
X53991Y15139D01*
X53993Y15141D01*
X53997Y15145D01*
X54004Y15152D01*
X54014Y15160D01*
X54025Y15174D01*
X54038Y15187D01*
X54052Y15204D01*
X54067Y15222D01*
X54093Y15265D01*
X54117Y15313D01*
X54128Y15341D01*
X54134Y15368D01*
X54139Y15398D01*
X54141Y15429D01*
Y15431D01*
Y15433D01*
Y15446D01*
X54139Y15466D01*
X54132Y15492D01*
X54126Y15520D01*
X54115Y15551D01*
X54100Y15581D01*
X54078Y15610D01*
X54075Y15614D01*
X54065Y15623D01*
X54049Y15636D01*
X54027Y15655D01*
X53997Y15675D01*
X53958Y15699D01*
X53912Y15721D01*
X53886Y15732D01*
X53857Y15743D01*
X53855D01*
X53853Y15745D01*
X53844Y15747D01*
X53836Y15749D01*
X53820Y15754D01*
X53803Y15760D01*
X53781Y15767D01*
X53757Y15773D01*
X53727Y15782D01*
X53692Y15791D01*
X53653Y15801D01*
X53607Y15814D01*
X53557Y15828D01*
X53500Y15841D01*
X53437Y15856D01*
X53369Y15873D01*
X53367D01*
X53363Y15876D01*
X53356D01*
X53347Y15880D01*
X53337Y15882D01*
X53323Y15887D01*
X53291Y15895D01*
X53249Y15906D01*
X53203Y15921D01*
X53153Y15939D01*
X53101Y15956D01*
X53044Y15978D01*
X52988Y16000D01*
X52929Y16024D01*
X52874Y16050D01*
X52820Y16078D01*
X52770Y16109D01*
X52724Y16139D01*
X52683Y16172D01*
X52680Y16174D01*
X52672Y16183D01*
X52656Y16198D01*
X52639Y16216D01*
X52619Y16240D01*
X52595Y16270D01*
X52569Y16303D01*
X52545Y16342D01*
X52519Y16384D01*
X52493Y16429D01*
X52469Y16479D01*
X52449Y16532D01*
X52432Y16588D01*
X52416Y16649D01*
X52408Y16713D01*
X52406Y16778D01*
Y16780D01*
Y16789D01*
Y16800D01*
X52408Y16817D01*
X52410Y16837D01*
X52412Y16861D01*
X52416Y16889D01*
X52421Y16920D01*
X52430Y16950D01*
X52436Y16985D01*
X52447Y17020D01*
X52460Y17057D01*
X52475Y17096D01*
X52493Y17133D01*
X52512Y17173D01*
X52534Y17210D01*
X52536Y17212D01*
X52541Y17219D01*
X52547Y17229D01*
X52558Y17242D01*
X52571Y17260D01*
X52589Y17279D01*
X52608Y17299D01*
X52630Y17323D01*
X52656Y17347D01*
X52685Y17373D01*
X52715Y17397D01*
X52748Y17423D01*
X52785Y17447D01*
X52824Y17471D01*
X52866Y17495D01*
X52911Y17515D01*
X52913Y17517D01*
X52922Y17519D01*
X52938Y17526D01*
X52955Y17532D01*
X52979Y17539D01*
X53007Y17550D01*
X53040Y17559D01*
X53077Y17569D01*
X53118Y17578D01*
X53164Y17589D01*
X53212Y17598D01*
X53264Y17604D01*
X53321Y17613D01*
X53380Y17617D01*
X53441Y17620D01*
X53504Y17622D01*
X53544D01*
X53559Y17620D01*
D02*
G37*
G36*
X44298D02*
X44316D01*
X44335Y17617D01*
X44383Y17615D01*
X44438Y17609D01*
X44499Y17602D01*
X44564Y17591D01*
X44632Y17580D01*
X44704Y17563D01*
X44778Y17546D01*
X44850Y17522D01*
X44922Y17495D01*
X44991Y17463D01*
X45059Y17426D01*
X45120Y17384D01*
X45124Y17382D01*
X45133Y17373D01*
X45151Y17360D01*
X45170Y17341D01*
X45196Y17317D01*
X45225Y17288D01*
X45257Y17253D01*
X45290Y17214D01*
X45325Y17170D01*
X45358Y17122D01*
X45393Y17068D01*
X45425Y17011D01*
X45456Y16948D01*
X45484Y16881D01*
X45508Y16811D01*
X45528Y16735D01*
X44924Y16621D01*
Y16623D01*
X44922Y16630D01*
X44917Y16643D01*
X44911Y16658D01*
X44904Y16676D01*
X44893Y16697D01*
X44882Y16721D01*
X44869Y16748D01*
X44854Y16774D01*
X44837Y16802D01*
X44817Y16833D01*
X44795Y16861D01*
X44769Y16889D01*
X44743Y16918D01*
X44715Y16946D01*
X44682Y16970D01*
X44680Y16972D01*
X44673Y16976D01*
X44664Y16983D01*
X44651Y16990D01*
X44634Y17000D01*
X44612Y17011D01*
X44588Y17022D01*
X44562Y17035D01*
X44531Y17048D01*
X44499Y17059D01*
X44462Y17070D01*
X44422Y17081D01*
X44383Y17088D01*
X44337Y17094D01*
X44292Y17099D01*
X44244Y17101D01*
X44226D01*
X44204Y17099D01*
X44178Y17096D01*
X44143Y17092D01*
X44104Y17088D01*
X44063Y17079D01*
X44015Y17068D01*
X43965Y17055D01*
X43914Y17038D01*
X43860Y17018D01*
X43808Y16994D01*
X43755Y16963D01*
X43705Y16931D01*
X43655Y16892D01*
X43609Y16846D01*
X43607Y16844D01*
X43598Y16835D01*
X43587Y16819D01*
X43572Y16798D01*
X43555Y16772D01*
X43535Y16739D01*
X43513Y16702D01*
X43492Y16658D01*
X43470Y16608D01*
X43448Y16551D01*
X43428Y16490D01*
X43411Y16423D01*
X43396Y16349D01*
X43385Y16270D01*
X43376Y16185D01*
X43374Y16096D01*
Y16094D01*
Y16089D01*
Y16083D01*
Y16072D01*
Y16059D01*
X43376Y16046D01*
Y16028D01*
X43378Y16009D01*
X43380Y15963D01*
X43387Y15913D01*
X43393Y15856D01*
X43404Y15795D01*
X43415Y15730D01*
X43433Y15664D01*
X43450Y15597D01*
X43474Y15531D01*
X43500Y15466D01*
X43533Y15403D01*
X43570Y15344D01*
X43611Y15291D01*
X43614Y15289D01*
X43622Y15280D01*
X43635Y15267D01*
X43655Y15250D01*
X43679Y15230D01*
X43707Y15206D01*
X43742Y15182D01*
X43779Y15158D01*
X43823Y15132D01*
X43869Y15108D01*
X43921Y15086D01*
X43978Y15065D01*
X44037Y15047D01*
X44100Y15034D01*
X44167Y15025D01*
X44237Y15023D01*
X44257D01*
X44270Y15025D01*
X44287D01*
X44309Y15028D01*
X44331Y15030D01*
X44357Y15032D01*
X44385Y15036D01*
X44416Y15041D01*
X44479Y15054D01*
X44549Y15073D01*
X44621Y15097D01*
X44623D01*
X44629Y15102D01*
X44640Y15104D01*
X44653Y15110D01*
X44669Y15117D01*
X44688Y15126D01*
X44710Y15137D01*
X44734Y15147D01*
X44787Y15174D01*
X44841Y15204D01*
X44898Y15239D01*
X44952Y15278D01*
Y15662D01*
X44255D01*
Y16172D01*
X45567D01*
Y14969D01*
X45565Y14966D01*
X45558Y14960D01*
X45547Y14951D01*
X45532Y14938D01*
X45512Y14921D01*
X45486Y14903D01*
X45458Y14882D01*
X45425Y14857D01*
X45388Y14833D01*
X45347Y14807D01*
X45301Y14781D01*
X45251Y14753D01*
X45199Y14725D01*
X45140Y14696D01*
X45076Y14668D01*
X45011Y14642D01*
X45007Y14639D01*
X44996Y14635D01*
X44976Y14629D01*
X44948Y14620D01*
X44915Y14609D01*
X44876Y14598D01*
X44832Y14585D01*
X44784Y14572D01*
X44730Y14559D01*
X44673Y14546D01*
X44612Y14535D01*
X44549Y14524D01*
X44484Y14515D01*
X44416Y14509D01*
X44346Y14504D01*
X44276Y14502D01*
X44244D01*
X44231Y14504D01*
X44198D01*
X44157Y14509D01*
X44109Y14513D01*
X44054Y14520D01*
X43995Y14526D01*
X43932Y14537D01*
X43867Y14550D01*
X43799Y14568D01*
X43729Y14585D01*
X43657Y14609D01*
X43587Y14635D01*
X43518Y14666D01*
X43450Y14701D01*
X43446Y14703D01*
X43435Y14709D01*
X43418Y14722D01*
X43393Y14738D01*
X43363Y14757D01*
X43330Y14783D01*
X43293Y14812D01*
X43252Y14847D01*
X43210Y14884D01*
X43167Y14925D01*
X43123Y14973D01*
X43080Y15023D01*
X43036Y15078D01*
X42997Y15137D01*
X42957Y15200D01*
X42923Y15267D01*
X42920Y15272D01*
X42916Y15285D01*
X42907Y15304D01*
X42894Y15333D01*
X42881Y15368D01*
X42866Y15407D01*
X42851Y15455D01*
X42835Y15507D01*
X42818Y15564D01*
X42803Y15627D01*
X42787Y15692D01*
X42774Y15762D01*
X42764Y15836D01*
X42755Y15913D01*
X42748Y15991D01*
X42746Y16072D01*
Y16074D01*
Y16076D01*
Y16085D01*
Y16094D01*
Y16104D01*
X42748Y16118D01*
Y16150D01*
X42753Y16192D01*
X42757Y16240D01*
X42764Y16294D01*
X42770Y16353D01*
X42781Y16416D01*
X42794Y16484D01*
X42809Y16554D01*
X42829Y16623D01*
X42851Y16695D01*
X42877Y16767D01*
X42907Y16839D01*
X42942Y16909D01*
X42944Y16913D01*
X42951Y16924D01*
X42964Y16944D01*
X42979Y16970D01*
X42999Y17000D01*
X43025Y17035D01*
X43056Y17075D01*
X43088Y17116D01*
X43128Y17162D01*
X43171Y17208D01*
X43217Y17253D01*
X43269Y17301D01*
X43326Y17347D01*
X43387Y17391D01*
X43450Y17432D01*
X43520Y17471D01*
X43524Y17473D01*
X43533Y17478D01*
X43550Y17484D01*
X43572Y17495D01*
X43601Y17506D01*
X43635Y17519D01*
X43675Y17532D01*
X43718Y17548D01*
X43768Y17561D01*
X43825Y17574D01*
X43884Y17587D01*
X43947Y17598D01*
X44015Y17609D01*
X44089Y17615D01*
X44165Y17620D01*
X44244Y17622D01*
X44281D01*
X44298Y17620D01*
D02*
G37*
G36*
X48543Y14555D02*
X47934D01*
Y15873D01*
X46740D01*
Y14555D01*
X46132D01*
Y17572D01*
X46740D01*
Y16384D01*
X47934D01*
Y17572D01*
X48543D01*
Y14555D01*
D02*
G37*
G36*
X57446Y17062D02*
X56552D01*
Y14555D01*
X55944D01*
Y17062D01*
X55048D01*
Y17572D01*
X57446D01*
Y17062D01*
D02*
G37*
G36*
X42526Y14555D02*
X41863D01*
X41601Y15239D01*
X40394D01*
X40145Y14555D01*
X39500D01*
X40671Y17572D01*
X41318D01*
X42526Y14555D01*
D02*
G37*
G36*
X50553Y17620D02*
X50570D01*
X50592Y17617D01*
X50618Y17615D01*
X50644Y17613D01*
X50675Y17609D01*
X50705Y17604D01*
X50740Y17600D01*
X50812Y17587D01*
X50890Y17569D01*
X50973Y17548D01*
X51060Y17522D01*
X51150Y17487D01*
X51239Y17447D01*
X51327Y17399D01*
X51414Y17345D01*
X51455Y17314D01*
X51496Y17279D01*
X51536Y17245D01*
X51575Y17208D01*
X51577Y17205D01*
X51579Y17203D01*
X51586Y17197D01*
X51592Y17188D01*
X51601Y17177D01*
X51612Y17164D01*
X51625Y17149D01*
X51638Y17131D01*
X51653Y17112D01*
X51669Y17090D01*
X51684Y17064D01*
X51701Y17038D01*
X51719Y17009D01*
X51739Y16976D01*
X51756Y16944D01*
X51776Y16909D01*
X51813Y16830D01*
X51850Y16745D01*
X51882Y16649D01*
X51913Y16547D01*
X51939Y16436D01*
X51959Y16318D01*
X51972Y16192D01*
X51976Y16124D01*
Y16057D01*
Y16054D01*
Y16048D01*
Y16039D01*
Y16024D01*
X51974Y16006D01*
Y15987D01*
X51972Y15963D01*
X51970Y15937D01*
X51967Y15906D01*
X51963Y15876D01*
X51961Y15841D01*
X51954Y15804D01*
X51943Y15725D01*
X51926Y15640D01*
X51904Y15551D01*
X51878Y15457D01*
X51847Y15361D01*
X51808Y15267D01*
X51762Y15174D01*
X51708Y15082D01*
X51680Y15039D01*
X51647Y14995D01*
X51614Y14953D01*
X51577Y14914D01*
X51575Y14912D01*
X51573Y14910D01*
X51566Y14903D01*
X51560Y14897D01*
X51549Y14888D01*
X51536Y14877D01*
X51523Y14864D01*
X51505Y14851D01*
X51466Y14818D01*
X51416Y14783D01*
X51359Y14746D01*
X51296Y14709D01*
X51224Y14670D01*
X51143Y14633D01*
X51056Y14598D01*
X50962Y14568D01*
X50860Y14539D01*
X50753Y14520D01*
X50638Y14506D01*
X50577Y14504D01*
X50516Y14502D01*
X50485D01*
X50470Y14504D01*
X50450D01*
X50428Y14506D01*
X50404Y14509D01*
X50376Y14511D01*
X50348Y14515D01*
X50315Y14520D01*
X50282Y14524D01*
X50208Y14537D01*
X50130Y14555D01*
X50045Y14574D01*
X49957Y14603D01*
X49870Y14635D01*
X49781Y14674D01*
X49692Y14722D01*
X49604Y14777D01*
X49563Y14807D01*
X49524Y14840D01*
X49482Y14875D01*
X49445Y14912D01*
Y14914D01*
X49441Y14916D01*
X49436Y14923D01*
X49428Y14932D01*
X49419Y14942D01*
X49408Y14956D01*
X49397Y14971D01*
X49384Y14988D01*
X49369Y15008D01*
X49354Y15030D01*
X49336Y15054D01*
X49319Y15080D01*
X49301Y15108D01*
X49284Y15139D01*
X49247Y15206D01*
X49210Y15283D01*
X49175Y15368D01*
X49140Y15461D01*
X49109Y15562D01*
X49086Y15671D01*
X49066Y15788D01*
X49053Y15913D01*
X49051Y15976D01*
X49048Y16043D01*
Y16046D01*
Y16048D01*
Y16054D01*
Y16063D01*
Y16074D01*
Y16087D01*
X49051Y16120D01*
X49053Y16159D01*
X49055Y16205D01*
X49059Y16257D01*
X49066Y16312D01*
X49072Y16373D01*
X49081Y16434D01*
X49094Y16499D01*
X49107Y16562D01*
X49123Y16628D01*
X49140Y16693D01*
X49162Y16754D01*
X49186Y16815D01*
X49188Y16817D01*
X49190Y16826D01*
X49197Y16837D01*
X49205Y16854D01*
X49214Y16874D01*
X49227Y16898D01*
X49242Y16924D01*
X49260Y16955D01*
X49299Y17018D01*
X49347Y17088D01*
X49402Y17160D01*
X49465Y17229D01*
X49467Y17232D01*
X49474Y17238D01*
X49482Y17247D01*
X49495Y17260D01*
X49513Y17275D01*
X49532Y17293D01*
X49556Y17312D01*
X49580Y17332D01*
X49609Y17354D01*
X49639Y17375D01*
X49707Y17421D01*
X49779Y17465D01*
X49818Y17484D01*
X49857Y17502D01*
X49861Y17504D01*
X49870Y17506D01*
X49885Y17513D01*
X49907Y17522D01*
X49933Y17530D01*
X49966Y17539D01*
X50003Y17550D01*
X50045Y17563D01*
X50090Y17574D01*
X50138Y17585D01*
X50193Y17593D01*
X50250Y17602D01*
X50311Y17611D01*
X50374Y17617D01*
X50439Y17620D01*
X50507Y17622D01*
X50537D01*
X50553Y17620D01*
D02*
G37*
%LPC*%
G36*
X40987Y16868D02*
X40579Y15749D01*
X41405D01*
X40987Y16868D01*
D02*
G37*
G36*
X50513Y17101D02*
X50496D01*
X50476Y17099D01*
X50450Y17096D01*
X50420Y17092D01*
X50383Y17088D01*
X50341Y17079D01*
X50295Y17068D01*
X50250Y17055D01*
X50199Y17038D01*
X50149Y17016D01*
X50097Y16992D01*
X50047Y16961D01*
X49997Y16926D01*
X49951Y16887D01*
X49905Y16841D01*
X49903Y16839D01*
X49896Y16828D01*
X49883Y16815D01*
X49870Y16793D01*
X49853Y16765D01*
X49833Y16732D01*
X49811Y16693D01*
X49792Y16647D01*
X49770Y16595D01*
X49748Y16538D01*
X49729Y16475D01*
X49711Y16405D01*
X49698Y16329D01*
X49687Y16246D01*
X49678Y16157D01*
X49676Y16063D01*
Y16061D01*
Y16057D01*
Y16050D01*
Y16041D01*
Y16028D01*
X49678Y16015D01*
X49681Y15978D01*
X49683Y15937D01*
X49689Y15887D01*
X49696Y15832D01*
X49707Y15773D01*
X49718Y15712D01*
X49733Y15649D01*
X49753Y15584D01*
X49777Y15520D01*
X49803Y15457D01*
X49833Y15396D01*
X49870Y15339D01*
X49912Y15287D01*
X49914Y15285D01*
X49923Y15276D01*
X49936Y15263D01*
X49955Y15246D01*
X49977Y15226D01*
X50005Y15204D01*
X50038Y15180D01*
X50075Y15156D01*
X50117Y15130D01*
X50162Y15106D01*
X50213Y15084D01*
X50265Y15065D01*
X50324Y15047D01*
X50383Y15034D01*
X50446Y15025D01*
X50513Y15023D01*
X50529D01*
X50548Y15025D01*
X50574Y15028D01*
X50605Y15032D01*
X50642Y15036D01*
X50681Y15045D01*
X50725Y15056D01*
X50773Y15069D01*
X50821Y15086D01*
X50871Y15108D01*
X50921Y15134D01*
X50971Y15163D01*
X51019Y15198D01*
X51067Y15239D01*
X51113Y15285D01*
X51115Y15287D01*
X51124Y15298D01*
X51135Y15313D01*
X51150Y15335D01*
X51167Y15361D01*
X51187Y15396D01*
X51209Y15435D01*
X51231Y15481D01*
X51252Y15533D01*
X51274Y15592D01*
X51294Y15658D01*
X51311Y15727D01*
X51327Y15804D01*
X51337Y15887D01*
X51346Y15976D01*
X51348Y16072D01*
Y16074D01*
Y16078D01*
Y16085D01*
Y16094D01*
Y16107D01*
X51346Y16122D01*
Y16137D01*
X51344Y16157D01*
X51342Y16200D01*
X51335Y16251D01*
X51329Y16305D01*
X51320Y16364D01*
X51307Y16425D01*
X51292Y16488D01*
X51274Y16554D01*
X51252Y16617D01*
X51226Y16680D01*
X51196Y16739D01*
X51161Y16795D01*
X51119Y16846D01*
X51117Y16848D01*
X51108Y16857D01*
X51095Y16870D01*
X51078Y16885D01*
X51054Y16905D01*
X51028Y16926D01*
X50995Y16950D01*
X50958Y16974D01*
X50917Y16996D01*
X50871Y17020D01*
X50821Y17042D01*
X50766Y17062D01*
X50710Y17077D01*
X50648Y17090D01*
X50583Y17099D01*
X50513Y17101D01*
D02*
G37*
%LPD*%
G36*
X13537Y16620D02*
X13557D01*
X13581Y16617D01*
X13610Y16613D01*
X13638Y16609D01*
X13701Y16598D01*
X13771Y16580D01*
X13838Y16556D01*
X13871Y16541D01*
X13904Y16524D01*
X13906D01*
X13910Y16519D01*
X13919Y16513D01*
X13932Y16506D01*
X13945Y16495D01*
X13960Y16482D01*
X13978Y16467D01*
X13997Y16452D01*
X14017Y16432D01*
X14037Y16410D01*
X14059Y16386D01*
X14078Y16360D01*
X14098Y16334D01*
X14117Y16304D01*
X14152Y16236D01*
Y16234D01*
X14154Y16229D01*
X14159Y16221D01*
X14161Y16210D01*
X14167Y16195D01*
X14172Y16175D01*
X14176Y16153D01*
X14183Y16127D01*
X14189Y16096D01*
X14194Y16064D01*
X14200Y16027D01*
X14205Y15985D01*
X14207Y15942D01*
X14211Y15891D01*
X14213Y15839D01*
Y15782D01*
Y14387D01*
X13636D01*
Y15634D01*
Y15639D01*
Y15650D01*
Y15665D01*
Y15687D01*
X13633Y15713D01*
Y15741D01*
X13631Y15774D01*
X13629Y15809D01*
X13620Y15881D01*
X13610Y15948D01*
X13603Y15981D01*
X13594Y16009D01*
X13586Y16035D01*
X13575Y16055D01*
Y16057D01*
X13570Y16059D01*
X13566Y16066D01*
X13559Y16075D01*
X13540Y16094D01*
X13513Y16118D01*
X13479Y16140D01*
X13437Y16160D01*
X13413Y16168D01*
X13387Y16175D01*
X13359Y16177D01*
X13328Y16179D01*
X13309D01*
X13285Y16175D01*
X13254Y16171D01*
X13219Y16162D01*
X13180Y16149D01*
X13141Y16129D01*
X13099Y16105D01*
X13097D01*
X13095Y16101D01*
X13082Y16092D01*
X13062Y16075D01*
X13040Y16051D01*
X13014Y16020D01*
X12988Y15983D01*
X12964Y15937D01*
X12945Y15887D01*
Y15885D01*
X12942Y15881D01*
X12940Y15872D01*
X12938Y15861D01*
X12934Y15844D01*
X12929Y15826D01*
X12925Y15802D01*
X12923Y15776D01*
X12918Y15748D01*
X12914Y15713D01*
X12910Y15678D01*
X12905Y15636D01*
X12903Y15591D01*
X12901Y15543D01*
X12899Y15493D01*
Y15436D01*
Y14387D01*
X12321D01*
Y15584D01*
Y15588D01*
Y15597D01*
Y15615D01*
Y15636D01*
Y15660D01*
X12319Y15689D01*
Y15721D01*
X12317Y15754D01*
X12312Y15824D01*
X12308Y15891D01*
X12304Y15922D01*
X12299Y15950D01*
X12295Y15974D01*
X12288Y15994D01*
Y15996D01*
X12286Y15998D01*
X12282Y16009D01*
X12275Y16027D01*
X12264Y16046D01*
X12251Y16070D01*
X12236Y16092D01*
X12216Y16114D01*
X12192Y16133D01*
X12190Y16136D01*
X12182Y16140D01*
X12166Y16149D01*
X12147Y16157D01*
X12123Y16164D01*
X12092Y16173D01*
X12057Y16177D01*
X12018Y16179D01*
X11996D01*
X11983Y16177D01*
X11970Y16175D01*
X11937Y16171D01*
X11900Y16162D01*
X11859Y16149D01*
X11817Y16129D01*
X11776Y16105D01*
X11774D01*
X11772Y16101D01*
X11759Y16092D01*
X11739Y16075D01*
X11717Y16053D01*
X11691Y16022D01*
X11667Y15987D01*
X11643Y15946D01*
X11624Y15898D01*
Y15896D01*
X11621Y15891D01*
X11619Y15883D01*
X11617Y15872D01*
X11613Y15857D01*
X11608Y15839D01*
X11604Y15817D01*
X11602Y15791D01*
X11597Y15761D01*
X11593Y15728D01*
X11589Y15691D01*
X11584Y15652D01*
X11582Y15606D01*
X11580Y15558D01*
X11578Y15503D01*
Y15447D01*
Y14387D01*
X11000D01*
Y16574D01*
X11532D01*
Y16275D01*
X11536Y16280D01*
X11545Y16290D01*
X11560Y16308D01*
X11582Y16330D01*
X11610Y16356D01*
X11643Y16384D01*
X11680Y16417D01*
X11724Y16450D01*
X11772Y16480D01*
X11824Y16513D01*
X11879Y16541D01*
X11940Y16567D01*
X12003Y16589D01*
X12070Y16607D01*
X12140Y16617D01*
X12212Y16622D01*
X12232D01*
X12247Y16620D01*
X12264D01*
X12286Y16617D01*
X12310Y16615D01*
X12336Y16611D01*
X12393Y16600D01*
X12454Y16585D01*
X12515Y16563D01*
X12576Y16535D01*
X12578D01*
X12583Y16530D01*
X12591Y16526D01*
X12602Y16519D01*
X12615Y16508D01*
X12631Y16498D01*
X12665Y16469D01*
X12707Y16432D01*
X12748Y16388D01*
X12790Y16334D01*
X12829Y16273D01*
X12831Y16275D01*
X12836Y16282D01*
X12844Y16290D01*
X12855Y16301D01*
X12868Y16317D01*
X12883Y16332D01*
X12901Y16351D01*
X12923Y16371D01*
X12968Y16412D01*
X13021Y16456D01*
X13078Y16498D01*
X13139Y16535D01*
X13141D01*
X13147Y16539D01*
X13156Y16543D01*
X13167Y16548D01*
X13184Y16554D01*
X13202Y16563D01*
X13224Y16569D01*
X13245Y16578D01*
X13272Y16587D01*
X13300Y16593D01*
X13361Y16609D01*
X13426Y16617D01*
X13496Y16622D01*
X13520D01*
X13537Y16620D01*
D02*
G37*
G36*
X20908Y14468D02*
X20769Y14089D01*
Y14086D01*
X20764Y14080D01*
X20762Y14071D01*
X20755Y14058D01*
X20749Y14041D01*
X20740Y14023D01*
X20723Y13980D01*
X20699Y13934D01*
X20675Y13884D01*
X20649Y13838D01*
X20622Y13796D01*
X20620Y13792D01*
X20612Y13779D01*
X20596Y13762D01*
X20577Y13740D01*
X20555Y13714D01*
X20529Y13685D01*
X20498Y13659D01*
X20466Y13635D01*
X20461Y13633D01*
X20450Y13624D01*
X20431Y13613D01*
X20404Y13600D01*
X20372Y13583D01*
X20335Y13568D01*
X20293Y13552D01*
X20245Y13537D01*
X20243D01*
X20239Y13535D01*
X20232Y13533D01*
X20221Y13531D01*
X20211Y13528D01*
X20195Y13526D01*
X20178Y13522D01*
X20160Y13520D01*
X20115Y13511D01*
X20064Y13507D01*
X20010Y13502D01*
X19949Y13500D01*
X19921D01*
X19905Y13502D01*
X19868D01*
X19846Y13504D01*
X19796Y13509D01*
X19742Y13515D01*
X19683Y13524D01*
X19624Y13537D01*
X19572Y13988D01*
X19574D01*
X19578Y13986D01*
X19585D01*
X19596Y13984D01*
X19607Y13982D01*
X19620Y13980D01*
X19652Y13975D01*
X19692Y13969D01*
X19731Y13964D01*
X19774Y13962D01*
X19816Y13960D01*
X19836D01*
X19849Y13962D01*
X19866Y13964D01*
X19884Y13966D01*
X19929Y13975D01*
X19977Y13988D01*
X20025Y14010D01*
X20049Y14025D01*
X20073Y14041D01*
X20093Y14058D01*
X20112Y14080D01*
X20115Y14082D01*
X20117Y14086D01*
X20121Y14093D01*
X20128Y14102D01*
X20136Y14113D01*
X20145Y14128D01*
X20156Y14143D01*
X20167Y14163D01*
X20191Y14204D01*
X20217Y14256D01*
X20241Y14315D01*
X20261Y14381D01*
X19432Y16574D01*
X20047D01*
X20568Y15020D01*
X21080Y16574D01*
X21680D01*
X20908Y14468D01*
D02*
G37*
G36*
X19114Y14387D02*
X18536D01*
Y17404D01*
X19114D01*
Y14387D01*
D02*
G37*
G36*
X17943D02*
X17366D01*
Y17404D01*
X17943D01*
Y14387D01*
D02*
G37*
G36*
X15816Y16620D02*
X15829D01*
X15864Y16617D01*
X15905Y16613D01*
X15955Y16604D01*
X16010Y16596D01*
X16069Y16582D01*
X16132Y16565D01*
X16197Y16543D01*
X16265Y16517D01*
X16334Y16487D01*
X16402Y16450D01*
X16467Y16406D01*
X16533Y16356D01*
X16594Y16299D01*
X16598Y16295D01*
X16607Y16284D01*
X16624Y16266D01*
X16644Y16240D01*
X16668Y16210D01*
X16694Y16171D01*
X16723Y16127D01*
X16753Y16077D01*
X16783Y16020D01*
X16812Y15959D01*
X16838Y15891D01*
X16862Y15820D01*
X16884Y15741D01*
X16899Y15660D01*
X16908Y15573D01*
X16912Y15484D01*
Y15482D01*
Y15477D01*
Y15471D01*
Y15462D01*
X16910Y15451D01*
Y15436D01*
X16908Y15401D01*
X16903Y15360D01*
X16895Y15309D01*
X16886Y15255D01*
X16873Y15196D01*
X16856Y15133D01*
X16834Y15065D01*
X16807Y14998D01*
X16777Y14928D01*
X16740Y14860D01*
X16699Y14791D01*
X16648Y14725D01*
X16592Y14662D01*
X16587Y14658D01*
X16576Y14649D01*
X16559Y14631D01*
X16535Y14612D01*
X16502Y14586D01*
X16465Y14559D01*
X16422Y14529D01*
X16372Y14501D01*
X16315Y14470D01*
X16254Y14440D01*
X16188Y14413D01*
X16116Y14387D01*
X16040Y14368D01*
X15959Y14350D01*
X15875Y14342D01*
X15785Y14337D01*
X15755D01*
X15735Y14339D01*
X15707Y14342D01*
X15676Y14344D01*
X15639Y14348D01*
X15600Y14355D01*
X15558Y14361D01*
X15513Y14370D01*
X15465Y14381D01*
X15417Y14394D01*
X15367Y14409D01*
X15314Y14429D01*
X15264Y14448D01*
X15212Y14472D01*
X15210Y14475D01*
X15201Y14479D01*
X15186Y14488D01*
X15166Y14498D01*
X15144Y14512D01*
X15118Y14529D01*
X15090Y14549D01*
X15057Y14573D01*
X15024Y14599D01*
X14992Y14629D01*
X14957Y14662D01*
X14922Y14697D01*
X14889Y14736D01*
X14856Y14777D01*
X14826Y14821D01*
X14798Y14869D01*
X14795Y14871D01*
X14791Y14882D01*
X14785Y14895D01*
X14776Y14917D01*
X14765Y14941D01*
X14752Y14972D01*
X14741Y15009D01*
X14728Y15048D01*
X14713Y15094D01*
X14702Y15142D01*
X14689Y15194D01*
X14678Y15250D01*
X14669Y15312D01*
X14662Y15375D01*
X14658Y15440D01*
X14656Y15510D01*
Y15514D01*
Y15523D01*
Y15538D01*
X14658Y15560D01*
X14660Y15584D01*
X14662Y15615D01*
X14667Y15650D01*
X14673Y15687D01*
X14682Y15728D01*
X14691Y15772D01*
X14702Y15817D01*
X14715Y15865D01*
X14732Y15915D01*
X14752Y15966D01*
X14774Y16016D01*
X14798Y16066D01*
X14800Y16068D01*
X14804Y16077D01*
X14813Y16092D01*
X14824Y16109D01*
X14839Y16133D01*
X14856Y16160D01*
X14876Y16188D01*
X14900Y16218D01*
X14928Y16251D01*
X14959Y16286D01*
X14992Y16319D01*
X15026Y16354D01*
X15066Y16386D01*
X15107Y16419D01*
X15151Y16450D01*
X15199Y16478D01*
X15201Y16480D01*
X15210Y16484D01*
X15225Y16491D01*
X15245Y16500D01*
X15268Y16511D01*
X15299Y16524D01*
X15332Y16537D01*
X15369Y16550D01*
X15410Y16563D01*
X15456Y16576D01*
X15504Y16589D01*
X15554Y16600D01*
X15608Y16609D01*
X15663Y16615D01*
X15722Y16620D01*
X15781Y16622D01*
X15802D01*
X15816Y16620D01*
D02*
G37*
%LPC*%
G36*
X15783Y16151D02*
X15761D01*
X15746Y16149D01*
X15726Y16147D01*
X15702Y16142D01*
X15678Y16136D01*
X15650Y16129D01*
X15622Y16120D01*
X15591Y16109D01*
X15558Y16094D01*
X15526Y16077D01*
X15495Y16057D01*
X15462Y16033D01*
X15432Y16007D01*
X15401Y15977D01*
X15399Y15974D01*
X15395Y15968D01*
X15388Y15959D01*
X15377Y15944D01*
X15367Y15926D01*
X15353Y15904D01*
X15340Y15878D01*
X15325Y15850D01*
X15312Y15817D01*
X15297Y15780D01*
X15284Y15739D01*
X15273Y15695D01*
X15262Y15645D01*
X15255Y15595D01*
X15251Y15538D01*
X15249Y15479D01*
Y15475D01*
Y15464D01*
Y15449D01*
X15251Y15425D01*
X15253Y15399D01*
X15258Y15366D01*
X15262Y15331D01*
X15268Y15294D01*
X15275Y15255D01*
X15286Y15213D01*
X15299Y15172D01*
X15314Y15131D01*
X15332Y15091D01*
X15351Y15052D01*
X15375Y15015D01*
X15401Y14980D01*
X15404Y14978D01*
X15408Y14974D01*
X15417Y14965D01*
X15430Y14954D01*
X15445Y14941D01*
X15462Y14926D01*
X15484Y14910D01*
X15508Y14895D01*
X15534Y14878D01*
X15563Y14863D01*
X15593Y14847D01*
X15628Y14834D01*
X15663Y14823D01*
X15702Y14815D01*
X15742Y14810D01*
X15783Y14808D01*
X15794D01*
X15805Y14810D01*
X15820D01*
X15840Y14812D01*
X15864Y14817D01*
X15888Y14823D01*
X15916Y14830D01*
X15944Y14839D01*
X15975Y14849D01*
X16007Y14865D01*
X16038Y14880D01*
X16071Y14900D01*
X16101Y14923D01*
X16134Y14950D01*
X16162Y14980D01*
X16164Y14982D01*
X16169Y14989D01*
X16177Y14998D01*
X16186Y15013D01*
X16197Y15030D01*
X16210Y15052D01*
X16226Y15078D01*
X16241Y15107D01*
X16254Y15142D01*
X16269Y15179D01*
X16282Y15220D01*
X16293Y15264D01*
X16302Y15314D01*
X16310Y15366D01*
X16315Y15423D01*
X16317Y15482D01*
Y15486D01*
Y15497D01*
Y15512D01*
X16315Y15534D01*
X16313Y15562D01*
X16308Y15593D01*
X16304Y15628D01*
X16297Y15665D01*
X16289Y15704D01*
X16280Y15743D01*
X16267Y15785D01*
X16252Y15826D01*
X16234Y15868D01*
X16212Y15907D01*
X16191Y15942D01*
X16162Y15977D01*
X16160Y15979D01*
X16156Y15983D01*
X16147Y15992D01*
X16134Y16005D01*
X16121Y16018D01*
X16101Y16031D01*
X16082Y16048D01*
X16058Y16064D01*
X16031Y16079D01*
X16003Y16096D01*
X15970Y16109D01*
X15938Y16125D01*
X15903Y16136D01*
X15864Y16144D01*
X15824Y16149D01*
X15783Y16151D01*
D02*
G37*
%LPD*%
D10*
X44976Y52500D02*
G03*
X45776Y51700I800J0D01*
G01*
X46933Y50100D02*
G03*
X46933Y51700I0J800D01*
G01*
X43019Y50100D02*
G03*
X43019Y48500I0J-800D01*
G01*
X46933Y46900D02*
G03*
X46933Y48500I0J800D01*
G01*
X43019Y46900D02*
G03*
X43019Y45300I0J-800D01*
G01*
X46933Y43700D02*
G03*
X46933Y45300I0J800D01*
G01*
X43019Y43700D02*
G03*
X43019Y42100I0J-800D01*
G01*
X44976Y41300D02*
G03*
X44176Y42100I-800J0D01*
G01*
X18500Y65300D02*
G03*
X19300Y64500I800J0D01*
G01*
X20350Y62900D02*
G03*
X20350Y64500I0J800D01*
G01*
X16650Y62900D02*
G03*
X16650Y61300I0J-800D01*
G01*
X20350Y59700D02*
G03*
X20350Y61300I0J800D01*
G01*
X16650Y59700D02*
G03*
X16650Y58100I0J-800D01*
G01*
X18500Y57300D02*
G03*
X17700Y58100I-800J0D01*
G01*
X30300Y40700D02*
G03*
X29500Y39900I0J-800D01*
G01*
X31170Y40700D02*
G03*
X31170Y42300I0J800D01*
G01*
X27830Y43900D02*
G03*
X27830Y42300I0J-800D01*
G01*
X31170Y43900D02*
G03*
X31170Y45500I0J800D01*
G01*
X27830Y47100D02*
G03*
X27830Y45500I0J-800D01*
G01*
X31170Y47100D02*
G03*
X31170Y48700I0J800D01*
G01*
X27830Y50300D02*
G03*
X27830Y48700I0J-800D01*
G01*
X31170Y50300D02*
G03*
X31170Y51900I0J800D01*
G01*
X29500Y52700D02*
G03*
X30300Y51900I800J0D01*
G01*
X15325Y78094D02*
G03*
X13814Y76583I0J-1511D01*
G01*
X28611Y77179D02*
G03*
X27696Y78094I-914J0D01*
G01*
X44022Y37500D02*
G03*
X44976Y38454I0J954D01*
G01*
X34000Y37500D02*
G03*
X33000Y36500I0J-1000D01*
G01*
X29500Y53500D02*
G03*
X28500Y54500I-1000J0D01*
G01*
X25542Y55217D02*
G03*
X26259Y54500I717J0D01*
G01*
X26000Y40000D02*
G03*
X24906Y41094I-1094J0D01*
G01*
X18500Y41919D02*
G03*
X19325Y41094I825J-0D01*
G01*
X44976Y52500D02*
Y54000D01*
X45776Y51700D02*
X46933D01*
X43019Y50100D02*
X46933D01*
X43019Y48500D02*
X46933D01*
X43019Y46900D02*
X46933D01*
X43019Y45300D02*
X46933D01*
X43019Y43700D02*
X46933D01*
X43019Y42100D02*
X44176D01*
X44976Y41000D02*
Y41300D01*
Y54000D02*
Y54976D01*
Y38454D02*
Y41000D01*
X18500Y65300D02*
Y66500D01*
X19300Y64500D02*
X20350D01*
X16650Y62900D02*
X20350D01*
X16650Y61300D02*
X20350D01*
X16650Y59700D02*
X20350D01*
X16650Y58100D02*
X17700D01*
X18500Y57000D02*
Y57300D01*
Y66500D02*
Y67500D01*
Y41919D02*
Y57000D01*
X29500Y38500D02*
Y39900D01*
X30300Y40700D02*
X31170D01*
X27830Y42300D02*
X31170D01*
X27830Y43900D02*
X31170D01*
X27830Y45500D02*
X31170D01*
X27830Y47100D02*
X31170D01*
X27830Y48700D02*
X31170D01*
X27830Y50300D02*
X31170D01*
X30300Y51900D02*
X31170D01*
X29500Y52700D02*
Y53000D01*
Y28000D02*
Y38500D01*
Y53000D02*
Y53500D01*
X13814Y31807D02*
X14091Y31530D01*
X13814Y31807D02*
Y76583D01*
X15325Y78094D02*
X27696D01*
X23413Y30135D02*
X26000Y32722D01*
Y40000D01*
X19325Y41094D02*
X24906D01*
X34000Y37500D02*
X44022D01*
X44976Y54976D02*
X45000Y55000D01*
X33000Y32000D02*
Y36500D01*
X28611Y76980D02*
Y77179D01*
X25500Y56500D02*
X25542Y56458D01*
Y55217D02*
Y56458D01*
X26259Y54500D02*
X28500D01*
D17*
X37933Y34317D02*
D03*
X52261Y38436D02*
D03*
X31000Y17000D02*
D03*
X9183Y63973D02*
D03*
X9228Y54856D02*
D03*
X9091Y47417D02*
D03*
X9061Y38239D02*
D03*
X9274Y29230D02*
D03*
X12391Y23741D02*
D03*
X17060Y23808D02*
D03*
X50534Y22063D02*
D03*
X31510Y37759D02*
D03*
X17317Y38788D02*
D03*
X16537Y49113D02*
D03*
X22959Y51455D02*
D03*
X30304Y56316D02*
D03*
X40877D02*
D03*
X48500Y77000D02*
D03*
X18000Y74000D02*
D03*
X10000Y75000D02*
D03*
X56518Y21883D02*
D03*
X55000Y75500D02*
D03*
X30500Y69000D02*
D03*
X52000Y62500D02*
D03*
X14091Y31530D02*
D03*
X31770Y28966D02*
D03*
X19687Y33079D02*
D03*
X25199Y28575D02*
D03*
X23413Y30135D02*
D03*
X29500Y28000D02*
D03*
X45000Y55000D02*
D03*
X33000Y32000D02*
D03*
X28582Y76951D02*
D03*
X18500Y67500D02*
D03*
X25500Y56500D02*
D03*
M02*
