M48
;Layer_Color=9474304
;FILE_FORMAT=2:5
INCH,LZ
;TYPE=PLATED
T1F00S00C0.00787
T2F00S00C0.01181
%
T01
X0042Y001
X0041918Y0017143
X0039934Y0021014
X0040031Y0023823
X0037775Y0024555
X0041776Y002652
X0044Y00245
X0049571Y0022446
X0049Y0018
X0056Y00145
X0057Y0034
X0051Y0044
X0058Y005
Y0061
X00575Y00745
Y0077
X0042571Y0077905
X0042893Y0055471
X0045Y00525
X00475Y0057
X0038194Y0051191
X0039Y00335
X0033Y0034657
X0033118Y0030132
X0032887Y0020816
X0037139Y0020656
X0028Y00205
X0026172Y00221
X0024354Y0025793
X0022097Y002652
X0019683Y002652
X0026Y00275
X0023977Y0018677
X0030094Y0017087
X0031006Y0012989
X0029104Y0009775
X0034267Y0009814
X0023746Y0009775
X00105Y0012
Y0018
Y0024
Y003
Y0036
Y0042
Y0048
Y0054
Y006
Y0066
Y0072
Y0078
X0025453Y0077522
X0025513Y0070786
X0026Y0067
X0028724Y0064047
X0031848Y0070403
X0035Y00705
X0032978Y0077604
X0031813Y0056936
X0035016Y0057193
X00255Y0057
X00215Y0056
X00255Y00435
X0016322Y0021873
X0016Y00185
T02
X0052Y0063
M30
