G04*
G04 #@! TF.GenerationSoftware,Altium Limited,Altium Designer,22.2.1 (43)*
G04*
G04 Layer_Physical_Order=4*
G04 Layer_Color=16711680*
%FSLAX25Y25*%
%MOIN*%
G70*
G04*
G04 #@! TF.SameCoordinates,F257658A-247B-4475-9E09-9EFA5F1A57C6*
G04*
G04*
G04 #@! TF.FilePolarity,Positive*
G04*
G01*
G75*
%ADD12C,0.00600*%
%ADD15R,0.02362X0.02559*%
%ADD19C,0.00900*%
%ADD20C,0.01772*%
%ADD21C,0.02756*%
%ADD22C,0.01968*%
%ADD23R,0.02559X0.02362*%
%ADD24R,0.00906X0.03937*%
G36*
X59000Y78000D02*
Y6500D01*
X57000Y4500D01*
X8500D01*
X7000Y6000D01*
Y77000D01*
X9500Y79500D01*
X25139D01*
X25158Y79008D01*
X24611Y78781D01*
X24193Y78363D01*
X23967Y77817D01*
Y77226D01*
X24193Y76680D01*
X24498Y76375D01*
Y71873D01*
X24253Y71627D01*
X24167Y71420D01*
X23565Y71212D01*
X23456Y71282D01*
X23454Y71317D01*
X23454D01*
Y76454D01*
X21349D01*
Y71317D01*
X21484D01*
Y70598D01*
X21554Y70247D01*
X21753Y69950D01*
X24514Y67188D01*
Y66704D01*
X24740Y66158D01*
X25158Y65740D01*
X25705Y65514D01*
X26296D01*
X26842Y65740D01*
X27260Y66158D01*
X27486Y66704D01*
Y67296D01*
X27260Y67842D01*
X26842Y68260D01*
X26296Y68486D01*
X25837D01*
X25526Y68867D01*
X25705Y69300D01*
X25808D01*
X26354Y69526D01*
X26772Y69944D01*
X26999Y70490D01*
Y71081D01*
X26772Y71627D01*
X26604Y71796D01*
Y76454D01*
X27051Y76582D01*
X27201D01*
X27648Y76454D01*
Y71317D01*
X29754D01*
Y76454D01*
X29626D01*
X29484Y77168D01*
X29037Y77836D01*
X28369Y78283D01*
X27581Y78440D01*
Y78418D01*
X26658D01*
X26295Y78781D01*
X25749Y79008D01*
X25767Y79500D01*
X57500D01*
X59000Y78000D01*
D02*
G37*
%LPC*%
G36*
X36053Y76454D02*
X33947D01*
Y71548D01*
X33740Y71342D01*
X33733Y71324D01*
X33212Y71266D01*
X32903Y71587D01*
Y76454D01*
X30798D01*
Y71454D01*
X30588Y71244D01*
X30362Y70698D01*
Y70107D01*
X30588Y69561D01*
X31006Y69143D01*
X31552Y68917D01*
X32143D01*
X32689Y69143D01*
X33107Y69561D01*
X33173Y69720D01*
X33715D01*
X33740Y69658D01*
X34158Y69240D01*
X34705Y69014D01*
X35296D01*
X35842Y69240D01*
X36260Y69658D01*
X36486Y70204D01*
Y70796D01*
X36260Y71342D01*
X36053Y71548D01*
Y76454D01*
D02*
G37*
G36*
X29019Y65532D02*
X28428D01*
X27882Y65306D01*
X27464Y64888D01*
X27238Y64342D01*
Y63751D01*
X27464Y63205D01*
X27648Y63021D01*
Y57932D01*
X29754D01*
Y62975D01*
X29983Y63205D01*
X30210Y63751D01*
Y64342D01*
X29983Y64888D01*
X29565Y65306D01*
X29019Y65532D01*
D02*
G37*
G36*
X36053Y63068D02*
X33947D01*
Y58226D01*
X33756Y58035D01*
X33724Y57956D01*
X33170Y57883D01*
X32903Y58157D01*
Y63068D01*
X30798D01*
Y58022D01*
X30553Y57778D01*
X30327Y57232D01*
Y56640D01*
X30553Y56094D01*
X30971Y55676D01*
X31517Y55450D01*
X32109D01*
X32655Y55676D01*
X33073Y56094D01*
X33197Y56395D01*
X33738D01*
X33756Y56351D01*
X34174Y55933D01*
X34720Y55707D01*
X35311D01*
X35857Y55933D01*
X36275Y56351D01*
X36502Y56897D01*
Y57489D01*
X36275Y58035D01*
X36053Y58257D01*
Y63068D01*
D02*
G37*
G36*
X47796Y58486D02*
X47205D01*
X46658Y58260D01*
X46240Y57842D01*
X46014Y57296D01*
Y56704D01*
X46240Y56158D01*
X46658Y55740D01*
X47205Y55514D01*
X47796D01*
X48342Y55740D01*
X48760Y56158D01*
X48986Y56704D01*
Y57296D01*
X48760Y57842D01*
X48342Y58260D01*
X47796Y58486D01*
D02*
G37*
G36*
X26604Y63068D02*
X24498D01*
Y58100D01*
X24240Y57842D01*
X24014Y57296D01*
Y56704D01*
X24240Y56158D01*
X24658Y55740D01*
X25204Y55514D01*
X25796D01*
X26342Y55740D01*
X26760Y56158D01*
X26986Y56704D01*
Y57296D01*
X26760Y57842D01*
X26604Y57997D01*
Y63068D01*
D02*
G37*
G36*
X23454D02*
X21349D01*
Y57932D01*
X21349Y57932D01*
X21218Y57486D01*
X21204D01*
X20658Y57260D01*
X20240Y56842D01*
X20014Y56296D01*
Y55704D01*
X20240Y55158D01*
X20658Y54740D01*
X21204Y54514D01*
X21796D01*
X22342Y54740D01*
X22760Y55158D01*
X22986Y55704D01*
Y56296D01*
X22924Y56444D01*
X23050Y56570D01*
X23249Y56867D01*
X23319Y57219D01*
Y57932D01*
X23454D01*
Y63068D01*
D02*
G37*
G36*
X43927D02*
X41821D01*
Y57932D01*
X41966D01*
Y56645D01*
X41633Y56312D01*
X41407Y55766D01*
Y55175D01*
X41633Y54629D01*
X42051Y54211D01*
X42597Y53985D01*
X43188D01*
X43734Y54211D01*
X44153Y54629D01*
X44379Y55175D01*
Y55766D01*
X44153Y56312D01*
X43801Y56664D01*
Y57932D01*
X43927D01*
Y63068D01*
D02*
G37*
G36*
X39202D02*
X37097D01*
Y57932D01*
X37254D01*
Y52352D01*
X36934Y52032D01*
X36708Y51486D01*
Y50895D01*
X36934Y50349D01*
X37352Y49931D01*
X37898Y49705D01*
X38489D01*
X39035Y49931D01*
X39453Y50349D01*
X39680Y50895D01*
Y51486D01*
X39453Y52032D01*
X39089Y52397D01*
Y57932D01*
X39202D01*
Y63068D01*
D02*
G37*
G36*
X37182Y29237D02*
X33423D01*
Y28122D01*
X32805D01*
Y29237D01*
X29046D01*
Y25675D01*
X29176D01*
Y18271D01*
X28834Y17929D01*
X28608Y17383D01*
X28108Y17189D01*
X27118Y18180D01*
Y19387D01*
X27048Y19738D01*
X26849Y20036D01*
X26711Y20174D01*
X26828Y20764D01*
X27014Y20841D01*
X27432Y21259D01*
X27658Y21805D01*
Y22396D01*
X27432Y22942D01*
X27014Y23360D01*
X26467Y23586D01*
X25876D01*
X25781Y23547D01*
X25281Y23881D01*
Y24618D01*
X25614Y24951D01*
X25840Y25497D01*
Y26014D01*
X26296D01*
X26842Y26240D01*
X27260Y26658D01*
X27486Y27204D01*
Y27795D01*
X27260Y28342D01*
X26842Y28760D01*
X26296Y28986D01*
X25705D01*
X25158Y28760D01*
X24740Y28342D01*
X24514Y27795D01*
Y27278D01*
X24058D01*
X23950Y27234D01*
X23356Y27362D01*
X22938Y27779D01*
X22392Y28006D01*
X21801D01*
X21255Y27779D01*
X20837Y27362D01*
X20611Y26816D01*
Y26224D01*
X20837Y25678D01*
X21255Y25260D01*
X21801Y25034D01*
X22392D01*
X22500Y25079D01*
X23094Y24951D01*
X23446Y24600D01*
Y21224D01*
X23515Y20873D01*
X23662Y20654D01*
X23666Y20552D01*
X23629Y20383D01*
X23497Y20086D01*
X23135Y19936D01*
X22717Y19518D01*
X22491Y18972D01*
Y18381D01*
X22717Y17835D01*
X23135Y17417D01*
X23682Y17191D01*
X24273D01*
X24819Y17417D01*
X24844Y17442D01*
X24991Y17444D01*
X25435Y17326D01*
X25552Y17151D01*
X28049Y14653D01*
X28347Y14454D01*
X28698Y14384D01*
X29593D01*
X29800Y13884D01*
X29747Y13830D01*
X29520Y13284D01*
Y12693D01*
X29747Y12147D01*
X30165Y11729D01*
X30711Y11503D01*
X31302D01*
X31848Y11729D01*
X32266Y12147D01*
X32492Y12693D01*
Y13284D01*
X32266Y13830D01*
X32212Y13884D01*
X32419Y14384D01*
X40077D01*
X40428Y14454D01*
X40725Y14653D01*
X41730Y15657D01*
X42213D01*
X42760Y15883D01*
X43178Y16301D01*
X43404Y16848D01*
Y17439D01*
X43178Y17985D01*
X42760Y18403D01*
X42213Y18629D01*
X41622D01*
X41076Y18403D01*
X40658Y17985D01*
X40432Y17439D01*
Y16955D01*
X39696Y16219D01*
X31884D01*
X31550Y16719D01*
X31580Y16792D01*
Y17383D01*
X31354Y17929D01*
X31012Y18271D01*
Y25366D01*
X31320Y25675D01*
X32805D01*
Y26287D01*
X33423D01*
Y25675D01*
X36140D01*
X36423Y25175D01*
X36289Y24851D01*
Y24260D01*
X36515Y23714D01*
X36933Y23296D01*
X37479Y23070D01*
X38070D01*
X38181Y23115D01*
X38276Y23125D01*
X38771Y22982D01*
X38857Y22896D01*
X38857Y22896D01*
X38983Y22769D01*
X39075Y22354D01*
X38959Y22140D01*
X38675Y21855D01*
X38449Y21309D01*
Y20718D01*
X38675Y20172D01*
X39093Y19754D01*
X39639Y19528D01*
X40230D01*
X40776Y19754D01*
X41194Y20172D01*
X41420Y20718D01*
Y21309D01*
X41194Y21855D01*
X40982Y22068D01*
X40890Y22484D01*
X41006Y22697D01*
X41290Y22982D01*
X41516Y23528D01*
Y24119D01*
X41329Y24572D01*
X41366Y24685D01*
X41473Y24865D01*
X41628Y25034D01*
X42071D01*
X42617Y25260D01*
X43036Y25679D01*
X43262Y26225D01*
Y26816D01*
X43036Y27362D01*
X42617Y27780D01*
X42071Y28006D01*
X41480D01*
X40934Y27780D01*
X40516Y27362D01*
X40290Y26816D01*
Y26225D01*
X40478Y25771D01*
X40441Y25658D01*
X40334Y25479D01*
X40178Y25309D01*
X39735D01*
X39572Y25242D01*
X39034Y25397D01*
X38948Y25483D01*
X38616Y25815D01*
X38070Y26041D01*
X37479D01*
X37182Y26239D01*
Y29237D01*
D02*
G37*
G36*
X43927Y76454D02*
X37097D01*
Y73975D01*
X37079Y73886D01*
X37082Y73872D01*
Y71120D01*
X37163Y70710D01*
X37395Y70363D01*
X40515Y67243D01*
X40862Y67011D01*
X41272Y66929D01*
X46556D01*
X50043Y63443D01*
X50022Y63393D01*
Y62607D01*
X50323Y61880D01*
X50880Y61323D01*
X50929Y61303D01*
Y52443D01*
X42726Y44240D01*
X35954D01*
Y45048D01*
X32392D01*
Y41289D01*
X32392D01*
Y40879D01*
X32392D01*
Y37190D01*
X32351Y37149D01*
X32152Y36851D01*
X32082Y36500D01*
Y35840D01*
X31740Y35498D01*
X31514Y34952D01*
Y34361D01*
X31740Y33815D01*
X32158Y33397D01*
X32704Y33171D01*
X33296D01*
X33842Y33397D01*
X34260Y33815D01*
X34486Y34361D01*
Y34952D01*
X34260Y35498D01*
X33918Y35840D01*
Y36120D01*
X34321Y36523D01*
X34520Y36821D01*
X34579Y37121D01*
X35954D01*
Y40879D01*
X35954D01*
Y41289D01*
X35954D01*
Y42098D01*
X43169D01*
X43579Y42180D01*
X43926Y42412D01*
X52757Y51243D01*
X52989Y51590D01*
X53071Y52000D01*
X53071Y52000D01*
Y61128D01*
X53325Y61316D01*
X53825Y61080D01*
Y37459D01*
X50433Y34068D01*
X50201Y33721D01*
X50120Y33311D01*
Y31579D01*
X49409D01*
Y27819D01*
X49409D01*
Y27380D01*
X49409D01*
Y24031D01*
X49256D01*
X48673Y23789D01*
X48228Y23344D01*
X47987Y22761D01*
Y22131D01*
X48228Y21549D01*
X48673Y21103D01*
X49256Y20862D01*
X49886D01*
X50468Y21103D01*
X50914Y21549D01*
X50939Y21609D01*
X51016Y21624D01*
X51363Y21856D01*
X51947Y22440D01*
X52179Y22787D01*
X52260Y23197D01*
Y23620D01*
X52971D01*
Y27380D01*
X52971D01*
Y27819D01*
X52971D01*
Y31579D01*
X52261D01*
Y32868D01*
X55652Y36259D01*
X55884Y36606D01*
X55966Y37016D01*
X55966Y37016D01*
Y64933D01*
X55884Y65342D01*
X55652Y65690D01*
X50421Y70921D01*
X50074Y71153D01*
X49664Y71235D01*
X44083D01*
X43945Y71373D01*
Y73886D01*
X43927Y73975D01*
Y76454D01*
D02*
G37*
G36*
X16617Y23358D02*
X16026D01*
X15480Y23132D01*
X15062Y22714D01*
X14836Y22168D01*
Y21577D01*
X15062Y21031D01*
X15480Y20613D01*
X15787Y20486D01*
X15710Y20017D01*
X15696Y19982D01*
X15158Y19760D01*
X14740Y19342D01*
X14514Y18796D01*
Y18204D01*
X14740Y17658D01*
X15158Y17240D01*
X15704Y17014D01*
X16296D01*
X16842Y17240D01*
X17260Y17658D01*
X17486Y18204D01*
Y18796D01*
X17260Y19342D01*
X16842Y19760D01*
X16535Y19887D01*
X16612Y20356D01*
X16626Y20390D01*
X17163Y20613D01*
X17581Y21031D01*
X17807Y21577D01*
Y22168D01*
X17581Y22714D01*
X17163Y23132D01*
X16617Y23358D01*
D02*
G37*
%LPD*%
G36*
X42898Y71386D02*
X43800Y70484D01*
X43480Y70164D01*
X42324D01*
X41276Y71857D01*
X41280Y71861D01*
X42898D01*
Y71386D01*
D02*
G37*
G36*
X39772Y70096D02*
X39434Y69757D01*
X38087Y71105D01*
Y71195D01*
X38075Y71838D01*
X38079Y71842D01*
X39772D01*
Y70096D01*
D02*
G37*
D12*
X28701Y76380D02*
G03*
X27581Y77500I-1120J0D01*
G01*
X31177Y27204D02*
X35051D01*
X30925Y27456D02*
X31177Y27204D01*
X35051D02*
X35303Y27456D01*
X25475Y77500D02*
X27581D01*
X25453Y77522D02*
X25475Y77500D01*
X24363Y21224D02*
X26200Y19387D01*
Y17800D02*
X28698Y15302D01*
X26200Y17800D02*
Y19387D01*
X28698Y15302D02*
X40077D01*
X30094Y17087D02*
Y25746D01*
X30836Y26488D01*
X40077Y15302D02*
X41918Y17143D01*
X33000Y36500D02*
X33672Y37172D01*
Y38499D02*
X34173Y39000D01*
X33672Y37172D02*
Y38499D01*
X33000Y34657D02*
Y36500D01*
X24363Y21224D02*
Y25783D01*
X24354Y25793D02*
X24363Y25783D01*
X22402Y70598D02*
X26000Y67000D01*
X35000Y70500D02*
Y73886D01*
X38172Y51213D02*
Y60478D01*
X38150Y60500D02*
X38172Y60478D01*
Y51213D02*
X38194Y51191D01*
X42883Y55480D02*
X42893Y55471D01*
X42874Y60500D02*
X42883Y60491D01*
Y55480D02*
Y60491D01*
X31832Y60481D02*
X31850Y60500D01*
X31832Y56955D02*
Y60481D01*
X31813Y56936D02*
X31832Y56955D01*
X35008Y57201D02*
Y60492D01*
X35000Y60500D02*
X35008Y60492D01*
Y57201D02*
X35016Y57193D01*
X28712Y60511D02*
Y64035D01*
X28701Y60500D02*
X28712Y60511D01*
Y64035D02*
X28724Y64047D01*
X28701Y73886D02*
X28701Y73886D01*
Y76380D01*
X31849Y70404D02*
Y73884D01*
X31848Y70403D02*
X31849Y70404D01*
Y73884D02*
X31850Y73886D01*
X25532Y70805D02*
Y73867D01*
X25513Y70786D02*
X25532Y70805D01*
X21500Y56000D02*
Y56317D01*
X22402Y57219D02*
Y60500D01*
X21500Y56317D02*
X22402Y57219D01*
X25500Y57000D02*
X25526Y57026D01*
Y60474D02*
X25551Y60500D01*
X25526Y57026D02*
Y60474D01*
X25532Y73867D02*
X25551Y73886D01*
X22402Y70598D02*
Y73886D01*
D15*
X30827Y39000D02*
D03*
X34173D02*
D03*
X30827Y43169D02*
D03*
X34173D02*
D03*
X54536Y29699D02*
D03*
X51190D02*
D03*
X54536Y25500D02*
D03*
X51190D02*
D03*
D19*
X34173Y39000D02*
Y43169D01*
X43169D01*
X52000Y52000D01*
Y63000D01*
X49664Y70164D02*
X54895Y64933D01*
X51190Y33311D02*
X54895Y37016D01*
Y64933D01*
X39724Y73886D02*
X39727Y72892D01*
X47000Y68000D02*
X52000Y63000D01*
X38152Y71120D02*
X41272Y68000D01*
X47000D01*
X51190Y29700D02*
Y33311D01*
X51190Y29699D02*
Y29798D01*
Y25500D02*
Y29699D01*
Y23197D02*
Y25500D01*
X50606Y22613D02*
X51190Y23197D01*
X43640Y70164D02*
X49664D01*
X42324D02*
X43640D01*
X42874Y70930D02*
X43640Y70164D01*
X42874Y70930D02*
Y73886D01*
X41302Y71186D02*
X42324Y70164D01*
X41299Y73886D02*
X41302Y73883D01*
Y71186D02*
Y73883D01*
X39724Y69560D02*
Y73886D01*
X38150D02*
X38152Y73883D01*
Y71120D02*
Y73883D01*
D20*
X33118Y30132D02*
D03*
X10500Y12000D02*
D03*
Y18000D02*
D03*
Y24000D02*
D03*
X23746Y9775D02*
D03*
X29104D02*
D03*
X34267Y9814D02*
D03*
X42000Y10000D02*
D03*
X56000Y14500D02*
D03*
X58000Y50000D02*
D03*
Y61000D02*
D03*
X10500Y78000D02*
D03*
Y72000D02*
D03*
Y66000D02*
D03*
Y60000D02*
D03*
Y54000D02*
D03*
Y48000D02*
D03*
Y42000D02*
D03*
Y36000D02*
D03*
Y30000D02*
D03*
X57000Y34000D02*
D03*
X51000Y44000D02*
D03*
X39000Y33500D02*
D03*
X57500Y74500D02*
D03*
Y77000D02*
D03*
X42571Y77905D02*
D03*
X32978Y77604D02*
D03*
X25453Y77522D02*
D03*
X30094Y17087D02*
D03*
X28000Y20500D02*
D03*
X33000Y34657D02*
D03*
X37139Y20656D02*
D03*
X32887Y20816D02*
D03*
X49000Y18000D02*
D03*
X45000Y52500D02*
D03*
X25500Y43500D02*
D03*
X41918Y17143D02*
D03*
X26172Y22100D02*
D03*
X16000Y18500D02*
D03*
X26000Y67000D02*
D03*
X35000Y70500D02*
D03*
X47500Y57000D02*
D03*
X39934Y21014D02*
D03*
X40031Y23823D02*
D03*
X38194Y51191D02*
D03*
X42893Y55471D02*
D03*
X41776Y26520D02*
D03*
X37775Y24555D02*
D03*
X44000Y24500D02*
D03*
X31813Y56936D02*
D03*
X35016Y57193D02*
D03*
X28724Y64047D02*
D03*
X16322Y21873D02*
D03*
X31848Y70403D02*
D03*
X25513Y70786D02*
D03*
X31006Y12989D02*
D03*
X19683Y26520D02*
D03*
X21500Y56000D02*
D03*
X23977Y18677D02*
D03*
X26000Y27500D02*
D03*
X25500Y57000D02*
D03*
X24354Y25793D02*
D03*
X22097Y26520D02*
D03*
D21*
X52000Y63000D02*
D03*
D22*
X49571Y22446D02*
D03*
D23*
X30925Y30803D02*
D03*
Y27456D02*
D03*
X35303Y30803D02*
D03*
Y27456D02*
D03*
D24*
X20827Y73886D02*
D03*
X22402D02*
D03*
X23976D02*
D03*
X25551D02*
D03*
X27126D02*
D03*
X28701D02*
D03*
X30276D02*
D03*
X31850D02*
D03*
X33425D02*
D03*
X35000D02*
D03*
X36575D02*
D03*
X38150D02*
D03*
X39724D02*
D03*
X41299D02*
D03*
X42874D02*
D03*
X44449D02*
D03*
X46024D02*
D03*
X38150Y60500D02*
D03*
X46024D02*
D03*
X44449D02*
D03*
X42874D02*
D03*
X41299D02*
D03*
X39724D02*
D03*
X36575D02*
D03*
X35000D02*
D03*
X33425D02*
D03*
X31850D02*
D03*
X30276D02*
D03*
X28701D02*
D03*
X27126D02*
D03*
X25551D02*
D03*
X23976D02*
D03*
X22402D02*
D03*
X20827D02*
D03*
M02*
