G04*
G04 #@! TF.GenerationSoftware,Altium Limited,Altium Designer,22.2.1 (43)*
G04*
G04 Layer_Physical_Order=1*
G04 Layer_Color=255*
%FSLAX25Y25*%
%MOIN*%
G70*
G04*
G04 #@! TF.SameCoordinates,F257658A-247B-4475-9E09-9EFA5F1A57C6*
G04*
G04*
G04 #@! TF.FilePolarity,Positive*
G04*
G01*
G75*
%ADD12C,0.00600*%
%ADD13C,0.00960*%
%ADD14O,0.00961X0.00906*%
%ADD15R,0.02362X0.02559*%
%ADD16R,0.03858X0.03661*%
%ADD19C,0.00900*%
%ADD20C,0.01772*%
%ADD21C,0.02756*%
%ADD22C,0.01968*%
G36*
X59000Y78000D02*
Y6500D01*
X57000Y4500D01*
X8500D01*
X7000Y6000D01*
Y77000D01*
X9500Y79500D01*
X25139D01*
X25158Y79008D01*
X24611Y78781D01*
X24193Y78363D01*
X23967Y77817D01*
Y77226D01*
X24193Y76680D01*
X24611Y76262D01*
X25158Y76036D01*
X25749D01*
X26295Y76262D01*
X26713Y76680D01*
X26939Y77226D01*
Y77817D01*
X26713Y78363D01*
X26295Y78781D01*
X25749Y79008D01*
X25767Y79500D01*
X57500D01*
X59000Y78000D01*
D02*
G37*
%LPC*%
G36*
X25808Y72272D02*
X25217D01*
X24671Y72045D01*
X24253Y71627D01*
X24027Y71081D01*
Y70490D01*
X24057Y70418D01*
X23723Y69918D01*
X20000D01*
Y69926D01*
X19216Y69823D01*
X18486Y69520D01*
X17858Y69039D01*
X17377Y68412D01*
X17075Y67681D01*
X16971Y66897D01*
X16980D01*
Y65811D01*
X16532Y65684D01*
Y65684D01*
X15869Y65552D01*
X15307Y65176D01*
X14931Y64614D01*
X14799Y63950D01*
X14931Y63287D01*
X15307Y62725D01*
X15493Y62600D01*
Y62100D01*
X15307Y61976D01*
X14931Y61414D01*
X14799Y60750D01*
X14931Y60087D01*
X15307Y59525D01*
X15869Y59149D01*
X16532Y59017D01*
Y59017D01*
X16980Y58890D01*
Y24886D01*
X16970D01*
X17080Y24049D01*
X17250Y23637D01*
X16868Y23255D01*
X16617Y23358D01*
X16026D01*
X15480Y23132D01*
X15062Y22714D01*
X14836Y22168D01*
Y21577D01*
X15062Y21031D01*
X15480Y20613D01*
X15787Y20486D01*
X15710Y20017D01*
X15698Y19986D01*
X15692Y19981D01*
X15158Y19760D01*
X14740Y19342D01*
X14514Y18796D01*
Y18204D01*
X14740Y17658D01*
X15158Y17240D01*
X15704Y17014D01*
X16296D01*
X16842Y17240D01*
X17256Y17655D01*
X18952D01*
X19061Y17536D01*
X19235Y17155D01*
X19125Y16888D01*
Y16458D01*
X19289Y16061D01*
X19335Y16016D01*
X19548Y15689D01*
X19335Y15362D01*
X19289Y15316D01*
X19125Y14920D01*
Y14490D01*
X19289Y14093D01*
X19593Y13789D01*
X19990Y13625D01*
X20420D01*
X20756Y13764D01*
X20993Y13703D01*
X21293Y13558D01*
X21373Y13153D01*
X21755Y12582D01*
X22326Y12200D01*
X23000Y12066D01*
Y12082D01*
X23000Y12082D01*
X29811D01*
X30165Y11729D01*
X30711Y11503D01*
X31302D01*
X31848Y11729D01*
X32266Y12147D01*
X32492Y12693D01*
Y13284D01*
X32333Y13667D01*
X32627Y13789D01*
X32673Y13835D01*
X33000Y14048D01*
X33327Y13835D01*
X33373Y13789D01*
X33769Y13625D01*
X34199D01*
X34596Y13789D01*
X34642Y13835D01*
X34969Y14048D01*
X35295Y13835D01*
X35341Y13789D01*
X35738Y13625D01*
X36168D01*
X36564Y13789D01*
X36610Y13835D01*
X36937Y14048D01*
X37264Y13835D01*
X37310Y13789D01*
X37706Y13625D01*
X38136D01*
X38533Y13789D01*
X38579Y13835D01*
X38906Y14048D01*
X39232Y13835D01*
X39278Y13789D01*
X39675Y13625D01*
X40105D01*
X40501Y13789D01*
X40547Y13835D01*
X40874Y14048D01*
X41201Y13835D01*
X41247Y13789D01*
X41643Y13625D01*
X42073D01*
X42470Y13789D01*
X42516Y13835D01*
X42843Y14048D01*
X43169Y13835D01*
X43215Y13789D01*
X43612Y13625D01*
X44042D01*
X44438Y13789D01*
X44484Y13835D01*
X44811Y14048D01*
X45138Y13835D01*
X45184Y13789D01*
X45581Y13625D01*
X46010D01*
X46407Y13789D01*
X46711Y14093D01*
X46875Y14490D01*
Y14920D01*
X46711Y15316D01*
X46407Y15620D01*
X46010Y15785D01*
X45581D01*
X45184Y15620D01*
X45138Y15574D01*
X44811Y15361D01*
X44484Y15574D01*
X44438Y15620D01*
X44042Y15785D01*
X43612D01*
X43256Y15637D01*
X43230Y15647D01*
X43076Y16200D01*
X43178Y16301D01*
X43404Y16848D01*
Y17331D01*
X44252Y18180D01*
X44281Y18195D01*
X44848Y18101D01*
X44851Y18099D01*
X44880Y18030D01*
X45184Y17726D01*
X45581Y17562D01*
X46010D01*
X46407Y17726D01*
X46711Y18030D01*
X46875Y18427D01*
Y18857D01*
X46711Y19253D01*
X46407Y19557D01*
X46015Y19720D01*
X45125Y20610D01*
X46011Y21497D01*
X48280D01*
X48673Y21103D01*
X49256Y20862D01*
X49886D01*
X50468Y21103D01*
X50914Y21549D01*
X51155Y22131D01*
Y22761D01*
X50914Y23344D01*
X50468Y23789D01*
X49886Y24031D01*
X49256D01*
X48673Y23789D01*
X48522Y23638D01*
X46061D01*
X46010Y23659D01*
X45581D01*
X45184Y23494D01*
X44880Y23190D01*
X44717Y22798D01*
X43607Y21688D01*
X43357Y21585D01*
X42873Y21834D01*
X42799Y22028D01*
X42938Y22364D01*
Y22794D01*
X42774Y23190D01*
X42728Y23236D01*
X42515Y23563D01*
X42728Y23890D01*
X42774Y23935D01*
X42938Y24332D01*
Y24762D01*
X42774Y25159D01*
X42735Y25198D01*
Y25378D01*
X43036Y25679D01*
X43262Y26225D01*
Y26816D01*
X43165Y27048D01*
X43548Y27431D01*
X43612Y27404D01*
X44042D01*
X44394Y27550D01*
X44605Y27524D01*
X44640Y27515D01*
X44945Y27318D01*
X44967Y27236D01*
X44925Y27173D01*
X44880Y27128D01*
X44715Y26731D01*
Y26301D01*
X44880Y25904D01*
X45184Y25600D01*
X45581Y25436D01*
X46010D01*
X46407Y25600D01*
X46711Y25904D01*
X46875Y26301D01*
Y26731D01*
X46711Y27128D01*
X46665Y27173D01*
X46452Y27500D01*
X46665Y27827D01*
X46711Y27872D01*
X46875Y28269D01*
Y28699D01*
X46711Y29096D01*
X46665Y29142D01*
X46452Y29469D01*
X46665Y29795D01*
X46711Y29841D01*
X46875Y30238D01*
Y30668D01*
X46711Y31065D01*
X46665Y31110D01*
X46452Y31437D01*
X46665Y31764D01*
X46711Y31809D01*
X46875Y32206D01*
Y32636D01*
X46711Y33033D01*
X46665Y33079D01*
X46452Y33406D01*
X46665Y33732D01*
X46711Y33778D01*
X46875Y34175D01*
Y34605D01*
X46711Y35002D01*
X46665Y35047D01*
X46452Y35374D01*
X46665Y35701D01*
X46711Y35746D01*
X46875Y36143D01*
Y36573D01*
X46711Y36970D01*
X46665Y37016D01*
X46452Y37343D01*
X46665Y37669D01*
X46711Y37715D01*
X46875Y38112D01*
Y38542D01*
X46711Y38939D01*
X46665Y38984D01*
X46452Y39311D01*
X46665Y39638D01*
X46711Y39683D01*
X46875Y40080D01*
Y40510D01*
X46711Y40907D01*
X46407Y41211D01*
X46010Y41375D01*
X45581D01*
X45184Y41211D01*
X45138Y41165D01*
X44811Y40952D01*
X44484Y41165D01*
X44438Y41211D01*
X44042Y41375D01*
X43612D01*
X43215Y41211D01*
X43169Y41165D01*
X42843Y40952D01*
X42516Y41165D01*
X42470Y41211D01*
X42073Y41375D01*
X41643D01*
X41247Y41211D01*
X40943Y40907D01*
X40778Y40510D01*
Y40080D01*
X40943Y39683D01*
X40988Y39638D01*
X41202Y39311D01*
X40988Y38984D01*
X40943Y38939D01*
X40778Y38542D01*
Y38112D01*
X40943Y37715D01*
X40988Y37669D01*
X41202Y37343D01*
X40988Y37016D01*
X40943Y36970D01*
X40778Y36573D01*
Y36143D01*
X40943Y35746D01*
X40988Y35701D01*
X41202Y35374D01*
X40988Y35047D01*
X40943Y35002D01*
X40778Y34605D01*
Y34175D01*
X40943Y33778D01*
X40988Y33732D01*
X41202Y33406D01*
X40988Y33079D01*
X40943Y33033D01*
X40778Y32636D01*
Y32206D01*
X40943Y31809D01*
X40988Y31764D01*
X41202Y31437D01*
X40988Y31110D01*
X40943Y31065D01*
X40778Y30668D01*
Y30238D01*
X40943Y29841D01*
X40988Y29795D01*
X41202Y29469D01*
X40988Y29142D01*
X40943Y29096D01*
X40778Y28699D01*
Y28269D01*
X40783Y28258D01*
X40934Y27780D01*
X40516Y27362D01*
X40290Y26816D01*
Y26225D01*
X40478Y25771D01*
X40441Y25658D01*
X40334Y25479D01*
X40178Y25309D01*
X39735D01*
X39572Y25242D01*
X39034Y25397D01*
X38837Y25904D01*
X39001Y26301D01*
Y26731D01*
X38837Y27128D01*
X38533Y27431D01*
X38136Y27596D01*
X37706D01*
X37310Y27431D01*
X37006Y27128D01*
X36841Y26731D01*
Y26301D01*
X36931Y25826D01*
X36660Y25542D01*
X36591Y25473D01*
X35961D01*
X35610Y25403D01*
X35312Y25204D01*
X33764Y23657D01*
X33373Y23494D01*
X33069Y23190D01*
X32904Y22794D01*
Y22364D01*
X33069Y21967D01*
X33373Y21663D01*
X33769Y21499D01*
X34199D01*
X34596Y21663D01*
X34900Y21967D01*
X35062Y22359D01*
X36341Y23638D01*
X36591D01*
X36933Y23296D01*
X36841Y22794D01*
Y22364D01*
X37006Y21967D01*
X37310Y21663D01*
X37706Y21499D01*
X37986D01*
X38204Y21410D01*
X38449Y21087D01*
Y20718D01*
X38675Y20172D01*
X38728Y20119D01*
X38700Y19745D01*
X38599Y19584D01*
X38533Y19557D01*
X38136Y19722D01*
X37706D01*
X37310Y19557D01*
X37264Y19512D01*
X36937Y19298D01*
X36610Y19512D01*
X36564Y19557D01*
X36168Y19722D01*
X35738D01*
X35341Y19557D01*
X35295Y19512D01*
X34969Y19298D01*
X34642Y19512D01*
X34596Y19557D01*
X34199Y19722D01*
X33769D01*
X33373Y19557D01*
X33327Y19512D01*
X33000Y19298D01*
X32673Y19512D01*
X32627Y19557D01*
X32231Y19722D01*
X31801D01*
X31404Y19557D01*
X31100Y19253D01*
X30936Y18857D01*
X30436Y18554D01*
X30390Y18573D01*
X29798D01*
X29252Y18347D01*
X28834Y17929D01*
X28608Y17383D01*
Y17116D01*
X25225D01*
X24941Y17539D01*
X25237Y17835D01*
X25463Y18381D01*
Y18972D01*
X25237Y19518D01*
X24819Y19936D01*
X24273Y20162D01*
X23730D01*
X23626Y20288D01*
X23481Y20621D01*
X23910Y21050D01*
X25122D01*
X25330Y20841D01*
X25876Y20615D01*
X26467D01*
X27014Y20841D01*
X27432Y21259D01*
X27462Y21332D01*
X27864Y21499D01*
X28294D01*
X28690Y21663D01*
X28736Y21709D01*
X29063Y21922D01*
X29390Y21709D01*
X29436Y21663D01*
X29832Y21499D01*
X30262D01*
X30659Y21663D01*
X30963Y21967D01*
X31125Y22359D01*
X36602Y27835D01*
X36801Y28133D01*
X36870Y28484D01*
Y29269D01*
X37102Y29410D01*
X37370Y29512D01*
X37706Y29373D01*
X38136D01*
X38533Y29537D01*
X38837Y29841D01*
X39001Y30238D01*
Y30668D01*
X38837Y31065D01*
X38533Y31368D01*
X38141Y31531D01*
X37031Y32641D01*
X36870Y33028D01*
Y33424D01*
X36801Y33775D01*
X36602Y34073D01*
X36224Y34450D01*
X35926Y34649D01*
X35575Y34719D01*
X34486D01*
Y34952D01*
X34328Y35332D01*
X34596Y35443D01*
X34642Y35489D01*
X34969Y35702D01*
X35295Y35489D01*
X35341Y35443D01*
X35738Y35278D01*
X36168D01*
X36564Y35443D01*
X36610Y35489D01*
X36937Y35702D01*
X37264Y35489D01*
X37310Y35443D01*
X37706Y35278D01*
X38136D01*
X38533Y35443D01*
X38837Y35746D01*
X39001Y36143D01*
Y36573D01*
X38837Y36970D01*
X38791Y37016D01*
X38578Y37343D01*
X38791Y37669D01*
X38837Y37715D01*
X39001Y38112D01*
Y38542D01*
X38837Y38939D01*
X38791Y38984D01*
X38578Y39311D01*
X38791Y39638D01*
X38837Y39683D01*
X39001Y40080D01*
Y40510D01*
X38837Y40907D01*
X38533Y41211D01*
X38136Y41375D01*
X37706D01*
X37310Y41211D01*
X37264Y41165D01*
X36937Y40952D01*
X36610Y41165D01*
X36564Y41211D01*
X36168Y41375D01*
X35738D01*
X35341Y41211D01*
X35295Y41165D01*
X34969Y40952D01*
X34642Y41165D01*
X34596Y41211D01*
X34199Y41375D01*
X33769D01*
X33373Y41211D01*
X33327Y41165D01*
X33000Y40952D01*
X32673Y41165D01*
X32627Y41211D01*
X32231Y41375D01*
X31801D01*
X31404Y41211D01*
X31358Y41165D01*
X31032Y40952D01*
X30705Y41165D01*
X30659Y41211D01*
X30262Y41375D01*
X29832D01*
X29436Y41211D01*
X29390Y41165D01*
X29063Y40952D01*
X28736Y41165D01*
X28690Y41211D01*
X28294Y41375D01*
X27864D01*
X27467Y41211D01*
X27421Y41165D01*
X27095Y40952D01*
X26768Y41165D01*
X26722Y41211D01*
X26325Y41375D01*
X25895D01*
X25499Y41211D01*
X25453Y41165D01*
X25126Y40952D01*
X24799Y41165D01*
X24754Y41211D01*
X24357Y41375D01*
X23927D01*
X23530Y41211D01*
X23484Y41165D01*
X23157Y40952D01*
X22831Y41165D01*
X22785Y41211D01*
X22388Y41375D01*
X21958D01*
X21562Y41211D01*
X21516Y41165D01*
X21189Y40952D01*
X20862Y41165D01*
X20817Y41211D01*
X20420Y41375D01*
X19990D01*
X19593Y41211D01*
X19315Y40933D01*
X19186Y40942D01*
X18815Y41069D01*
Y59150D01*
X18831D01*
X18699Y59814D01*
X18485Y60133D01*
X18753Y60633D01*
X19262D01*
Y60617D01*
X19926Y60749D01*
X20488Y61125D01*
X20864Y61687D01*
X20996Y62350D01*
X20864Y63014D01*
X20488Y63576D01*
X19926Y63952D01*
X19262Y64084D01*
Y64068D01*
X18753D01*
X18485Y64568D01*
X18699Y64887D01*
X18831Y65550D01*
X18815D01*
Y66897D01*
X18825D01*
X18914Y67347D01*
X19169Y67728D01*
X19550Y67983D01*
X20000Y68073D01*
Y68082D01*
X24328D01*
X24633Y67582D01*
X24514Y67296D01*
Y66704D01*
X24740Y66158D01*
X25158Y65740D01*
X25705Y65514D01*
X26296D01*
X26842Y65740D01*
X27260Y66158D01*
X27486Y66704D01*
Y67296D01*
X27367Y67582D01*
X27672Y68082D01*
X29946D01*
X30435Y68056D01*
X30441Y68055D01*
X31341Y68234D01*
X32104Y68743D01*
X32249Y68961D01*
X32689Y69143D01*
X33107Y69561D01*
X33173Y69720D01*
X33715D01*
X33740Y69658D01*
X34082Y69316D01*
Y68993D01*
X34064Y68500D01*
X34064Y68500D01*
X34205Y67791D01*
X34607Y67190D01*
X35208Y66788D01*
X35918Y66647D01*
Y66665D01*
X35918Y66665D01*
X38207D01*
Y63621D01*
X41952D01*
X44471Y61102D01*
Y57538D01*
X45852D01*
X46014Y57296D01*
Y56704D01*
X46240Y56158D01*
X46658Y55740D01*
X47205Y55514D01*
X47796D01*
X48342Y55740D01*
X48760Y56158D01*
X48986Y56704D01*
Y57296D01*
X49148Y57538D01*
X49529D01*
Y62399D01*
X45769D01*
X45029Y63139D01*
X45220Y63601D01*
X49529D01*
Y65429D01*
X50546D01*
Y64621D01*
X50546Y64621D01*
X50546D01*
X50382Y64179D01*
X50323Y64120D01*
X50022Y63393D01*
Y62607D01*
X50323Y61880D01*
X50880Y61323D01*
X51607Y61022D01*
X52393D01*
X53120Y61323D01*
X53677Y61880D01*
X53978Y62607D01*
Y63393D01*
X53677Y64120D01*
X53677Y64121D01*
X53884Y64621D01*
X54108D01*
Y68379D01*
X50546D01*
Y67571D01*
X49529D01*
Y68462D01*
X44471D01*
Y64350D01*
X44009Y64159D01*
X43265Y64903D01*
Y68482D01*
X39294D01*
X39205Y68500D01*
X36453D01*
X36418Y68500D01*
X35950Y68533D01*
X35918Y69000D01*
X35918Y69035D01*
Y69316D01*
X36260Y69658D01*
X36486Y70204D01*
Y70796D01*
X36260Y71342D01*
X35842Y71760D01*
X35296Y71986D01*
X34705D01*
X34158Y71760D01*
X33740Y71342D01*
X33674Y71182D01*
X33133D01*
X33107Y71244D01*
X32689Y71662D01*
X32143Y71888D01*
X31552D01*
X31006Y71662D01*
X30588Y71244D01*
X30362Y70698D01*
X30362Y70107D01*
X29900Y69918D01*
X27303D01*
X26969Y70418D01*
X26999Y70490D01*
Y71081D01*
X26772Y71627D01*
X26354Y72045D01*
X25808Y72272D01*
D02*
G37*
G36*
X29019Y65532D02*
X28428D01*
X27882Y65306D01*
X27464Y64888D01*
X27238Y64342D01*
Y63751D01*
X27464Y63205D01*
X27882Y62787D01*
X28428Y62561D01*
X29019D01*
X29565Y62787D01*
X29983Y63205D01*
X30210Y63751D01*
Y64342D01*
X29983Y64888D01*
X29565Y65306D01*
X29019Y65532D01*
D02*
G37*
G36*
X35311Y58679D02*
X34720D01*
X34174Y58452D01*
X33756Y58035D01*
X33632Y57734D01*
X33091D01*
X33073Y57778D01*
X32655Y58196D01*
X32109Y58422D01*
X31517D01*
X30971Y58196D01*
X30553Y57778D01*
X30327Y57232D01*
Y56640D01*
X30553Y56094D01*
X30971Y55676D01*
X31517Y55450D01*
X32109D01*
X32655Y55676D01*
X33073Y56094D01*
X33197Y56395D01*
X33738D01*
X33756Y56351D01*
X34174Y55933D01*
X34720Y55707D01*
X35311D01*
X35857Y55933D01*
X36275Y56351D01*
X36502Y56897D01*
Y57489D01*
X36275Y58035D01*
X35857Y58452D01*
X35311Y58679D01*
D02*
G37*
G36*
X25796Y58486D02*
X25204D01*
X24658Y58260D01*
X24240Y57842D01*
X24014Y57296D01*
Y56704D01*
X24240Y56158D01*
X24658Y55740D01*
X25204Y55514D01*
X25796D01*
X26342Y55740D01*
X26760Y56158D01*
X26986Y56704D01*
Y57296D01*
X26760Y57842D01*
X26342Y58260D01*
X25796Y58486D01*
D02*
G37*
G36*
X21796Y57486D02*
X21204D01*
X20658Y57260D01*
X20240Y56842D01*
X20014Y56296D01*
Y55704D01*
X20240Y55158D01*
X20658Y54740D01*
X21204Y54514D01*
X21796D01*
X22342Y54740D01*
X22760Y55158D01*
X22986Y55704D01*
Y56296D01*
X22760Y56842D01*
X22342Y57260D01*
X21796Y57486D01*
D02*
G37*
G36*
X43188Y56956D02*
X42597D01*
X42051Y56730D01*
X41633Y56312D01*
X41407Y55766D01*
Y55175D01*
X41633Y54629D01*
X42051Y54211D01*
X42597Y53985D01*
X43188D01*
X43734Y54211D01*
X44153Y54629D01*
X44379Y55175D01*
Y55766D01*
X44153Y56312D01*
X43734Y56730D01*
X43188Y56956D01*
D02*
G37*
G36*
X38489Y52677D02*
X37898D01*
X37352Y52450D01*
X36934Y52032D01*
X36708Y51486D01*
Y50895D01*
X36934Y50349D01*
X37352Y49931D01*
X37898Y49705D01*
X38489D01*
X39035Y49931D01*
X39453Y50349D01*
X39680Y50895D01*
Y51486D01*
X39453Y52032D01*
X39035Y52450D01*
X38489Y52677D01*
D02*
G37*
%LPD*%
G36*
X27421Y35489D02*
X27467Y35443D01*
X27864Y35278D01*
X28294D01*
X28690Y35443D01*
X28736Y35489D01*
X29063Y35702D01*
X29390Y35489D01*
X29436Y35443D01*
X29832Y35278D01*
X30262D01*
X30659Y35443D01*
X30705Y35489D01*
X31032Y35702D01*
X31358Y35489D01*
X31404Y35443D01*
X31672Y35332D01*
X31514Y34952D01*
Y34361D01*
X31683Y33953D01*
X31726Y33790D01*
X31480Y33368D01*
X31404Y33337D01*
X31358Y33291D01*
X31032Y33078D01*
X30705Y33291D01*
X30659Y33337D01*
X30262Y33501D01*
X29832D01*
X29436Y33337D01*
X29390Y33291D01*
X29063Y33078D01*
X28736Y33291D01*
X28690Y33337D01*
X28294Y33501D01*
X27864D01*
X27467Y33337D01*
X27163Y33033D01*
X26999Y32636D01*
Y32206D01*
X27163Y31809D01*
X27467Y31506D01*
X27864Y31341D01*
X28294D01*
X28690Y31506D01*
X28736Y31552D01*
X29063Y31765D01*
X29390Y31552D01*
X29436Y31506D01*
X29832Y31341D01*
X30262D01*
X30659Y31506D01*
X30705Y31552D01*
X31032Y31765D01*
X31358Y31552D01*
X31404Y31506D01*
X31801Y31341D01*
X32231D01*
X32627Y31506D01*
X32931Y31809D01*
X33096Y32206D01*
Y32636D01*
X33081Y32671D01*
X33100Y32721D01*
X33475Y33028D01*
X33586Y32954D01*
X33937Y32884D01*
X34707D01*
X34873Y32636D01*
Y32206D01*
X35035Y31814D01*
Y28864D01*
X30047Y23877D01*
X29157Y24767D01*
X28994Y25159D01*
X28690Y25463D01*
X28294Y25627D01*
X27864D01*
X27558Y25500D01*
X27229Y25636D01*
X27057Y25760D01*
Y26456D01*
X27260Y26658D01*
X27486Y27204D01*
Y27795D01*
X27260Y28342D01*
X26842Y28760D01*
X26296Y28986D01*
X25705D01*
X25191Y28773D01*
X25057Y29096D01*
X25012Y29142D01*
X24798Y29469D01*
X25012Y29795D01*
X25057Y29841D01*
X25222Y30238D01*
Y30668D01*
X25057Y31065D01*
X25012Y31110D01*
X24798Y31437D01*
X25012Y31764D01*
X25057Y31809D01*
X25222Y32206D01*
Y32636D01*
X25057Y33033D01*
X24754Y33337D01*
X24357Y33501D01*
X23927D01*
X23530Y33337D01*
X23226Y33033D01*
X23062Y32636D01*
Y32206D01*
X23226Y31809D01*
X23272Y31764D01*
X23422Y31534D01*
X23296Y31407D01*
X22785Y31368D01*
X22388Y31533D01*
X21958D01*
X21606Y31387D01*
X21395Y31413D01*
X21361Y31422D01*
X21055Y31619D01*
X21033Y31701D01*
X21075Y31764D01*
X21120Y31809D01*
X21285Y32206D01*
Y32636D01*
X21120Y33033D01*
X21075Y33079D01*
X20861Y33406D01*
X21075Y33732D01*
X21120Y33778D01*
X21285Y34175D01*
Y34605D01*
X21139Y34957D01*
X21165Y35168D01*
X21174Y35203D01*
X21317Y35424D01*
X21562Y35443D01*
X21958Y35278D01*
X22388D01*
X22785Y35443D01*
X22831Y35489D01*
X23157Y35702D01*
X23484Y35489D01*
X23530Y35443D01*
X23927Y35278D01*
X24357D01*
X24754Y35443D01*
X24799Y35489D01*
X25126Y35702D01*
X25453Y35489D01*
X25499Y35443D01*
X25895Y35278D01*
X26325D01*
X26722Y35443D01*
X26768Y35489D01*
X27095Y35702D01*
X27421Y35489D01*
D02*
G37*
D12*
X17097Y64750D02*
G03*
X17897Y65550I0J800D01*
G01*
X16532Y64750D02*
G03*
X16532Y63150I0J-800D01*
G01*
X19262Y61550D02*
G03*
X19262Y63150I0J800D01*
G01*
X16532Y61550D02*
G03*
X16532Y59950I0J-800D01*
G01*
X17897Y59150D02*
G03*
X17097Y59950I-800J0D01*
G01*
X17897Y24886D02*
G03*
X20205Y22579I2307J0D01*
G01*
X16322Y21873D02*
G03*
X17585Y20610I1262J0D01*
G01*
X22173Y13827D02*
G03*
X23000Y13000I827J-0D01*
G01*
X20000Y69000D02*
G03*
X17897Y66897I0J-2103D01*
G01*
X30438Y69000D02*
G03*
X31848Y70403I4J1406D01*
G01*
X35000Y68500D02*
G03*
X35918Y67582I918J-0D01*
G01*
X19683Y26203D02*
X20136Y25750D01*
Y24616D02*
X20205Y24547D01*
X20136Y24616D02*
Y25750D01*
X19683Y26203D02*
Y26520D01*
X29157Y16199D02*
X30046Y17087D01*
X30094D01*
X24673Y16199D02*
X29157D01*
X24142Y16673D02*
X24199D01*
X24673Y16199D01*
X33038Y34657D02*
X33082D01*
X33937Y33801D02*
X35575D01*
X33082Y34657D02*
X33937Y33801D01*
X35953Y32421D02*
Y33424D01*
X35575Y33801D02*
X35953Y33424D01*
Y32421D02*
X37921Y30453D01*
X30047Y22579D02*
X35953Y28484D01*
Y32421D01*
X28079Y24547D02*
X30047Y22579D01*
X43827Y19052D02*
Y20610D01*
X41918Y17143D02*
X43827Y19052D01*
X43827Y20610D02*
X45795Y18642D01*
X41858Y20610D02*
X43827D01*
X43827D02*
X45795Y22579D01*
X26039Y21967D02*
X26172Y22100D01*
X23530Y21967D02*
X26039D01*
X17897Y65550D02*
Y66897D01*
X16532Y64750D02*
X17097D01*
X16532Y63150D02*
X19262D01*
X16532Y61550D02*
X19262D01*
X16532Y59950D02*
X17097D01*
X17897Y58850D02*
Y59150D01*
Y24886D02*
Y58850D01*
X20136Y18573D02*
X20205Y18642D01*
X16000Y18500D02*
X16073Y18573D01*
X20136D01*
X20000Y69000D02*
X30438D01*
X35000Y68500D02*
Y70500D01*
X39205Y67582D02*
X40736Y66052D01*
X35918Y67582D02*
X39205D01*
X40834Y66052D02*
X42365Y64521D01*
X46902Y59969D02*
X47000D01*
X42365Y64505D02*
X46902Y59969D01*
X42365Y64505D02*
Y64521D01*
X40736Y66052D02*
X40834D01*
X47500Y57000D02*
Y59469D01*
X47000Y59969D02*
X47500Y59469D01*
X40518Y21238D02*
X41858Y22579D01*
X39856Y23823D02*
X40031D01*
X38681Y22648D02*
X39856Y23823D01*
X37921Y22579D02*
X37990Y22648D01*
X38681D01*
X41776Y26520D02*
X41817Y26479D01*
Y24588D02*
Y26479D01*
Y24588D02*
X41858Y24547D01*
X35961Y24555D02*
X37775D01*
X33984Y22579D02*
X35961Y24555D01*
X17585Y20610D02*
X20205D01*
X16322Y21873D02*
X16322D01*
X23000Y13000D02*
X30995D01*
X31006Y12989D01*
X22173Y13827D02*
Y16673D01*
X22191Y18659D02*
X23960D01*
X22173Y18642D02*
X22191Y18659D01*
X23960D02*
X23977Y18677D01*
X22173Y20610D02*
X23530Y21967D01*
X24713Y23167D02*
X26140Y24594D01*
X22859Y23167D02*
X24713D01*
X22173Y22579D02*
X22271D01*
X22859Y23167D01*
X26140Y24594D02*
Y27360D01*
X26000Y27500D02*
X26140Y27360D01*
X22097Y26520D02*
X22135Y26482D01*
Y24586D02*
X22173Y24547D01*
X24211Y25649D02*
X24354Y25793D01*
X22135Y24586D02*
Y26482D01*
X24142Y24547D02*
X24211Y24616D01*
Y25649D01*
D13*
X20205Y14705D02*
D03*
Y16673D02*
D03*
Y18642D02*
D03*
Y20610D02*
D03*
Y22579D02*
D03*
Y24547D02*
D03*
Y28484D02*
D03*
Y30453D02*
D03*
Y32421D02*
D03*
Y34390D02*
D03*
Y36358D02*
D03*
Y38327D02*
D03*
Y40295D02*
D03*
X22173Y16673D02*
D03*
Y18642D02*
D03*
Y20610D02*
D03*
Y22579D02*
D03*
Y24547D02*
D03*
Y28484D02*
D03*
Y30453D02*
D03*
Y36358D02*
D03*
Y38327D02*
D03*
Y40295D02*
D03*
X24142Y14705D02*
D03*
Y16673D02*
D03*
Y24547D02*
D03*
Y28484D02*
D03*
Y30453D02*
D03*
Y32421D02*
D03*
Y36358D02*
D03*
Y38327D02*
D03*
Y40295D02*
D03*
X26110Y14705D02*
D03*
Y36358D02*
D03*
Y38327D02*
D03*
Y40295D02*
D03*
X28079Y14705D02*
D03*
Y22579D02*
D03*
Y24547D02*
D03*
Y26516D02*
D03*
Y32421D02*
D03*
Y36358D02*
D03*
Y38327D02*
D03*
Y40295D02*
D03*
X30047Y14705D02*
D03*
Y22579D02*
D03*
Y32421D02*
D03*
Y36358D02*
D03*
Y38327D02*
D03*
Y40295D02*
D03*
X32016Y14705D02*
D03*
Y16673D02*
D03*
Y18642D02*
D03*
Y22579D02*
D03*
Y32421D02*
D03*
Y36358D02*
D03*
Y38327D02*
D03*
Y40295D02*
D03*
X33984Y14705D02*
D03*
Y16673D02*
D03*
Y18642D02*
D03*
Y22579D02*
D03*
Y32421D02*
D03*
Y36358D02*
D03*
Y38327D02*
D03*
Y40295D02*
D03*
X35953Y14705D02*
D03*
Y16673D02*
D03*
Y18642D02*
D03*
Y22579D02*
D03*
Y32421D02*
D03*
Y36358D02*
D03*
Y38327D02*
D03*
Y40295D02*
D03*
X37921Y14705D02*
D03*
Y16673D02*
D03*
Y18642D02*
D03*
Y22579D02*
D03*
Y26516D02*
D03*
Y28484D02*
D03*
Y30453D02*
D03*
Y36358D02*
D03*
Y38327D02*
D03*
Y40295D02*
D03*
X39890Y14705D02*
D03*
Y16673D02*
D03*
Y18642D02*
D03*
X41858Y14705D02*
D03*
Y20610D02*
D03*
Y22579D02*
D03*
Y24547D02*
D03*
Y28484D02*
D03*
Y30453D02*
D03*
Y32421D02*
D03*
Y34390D02*
D03*
Y36358D02*
D03*
Y38327D02*
D03*
Y40295D02*
D03*
X43827Y14705D02*
D03*
Y16673D02*
D03*
Y20610D02*
D03*
Y22579D02*
D03*
Y28484D02*
D03*
Y30453D02*
D03*
Y32421D02*
D03*
Y34390D02*
D03*
Y36358D02*
D03*
Y38327D02*
D03*
Y40295D02*
D03*
X45795Y14705D02*
D03*
Y18642D02*
D03*
Y20610D02*
D03*
Y22579D02*
D03*
Y24547D02*
D03*
Y26516D02*
D03*
Y28484D02*
D03*
Y30453D02*
D03*
Y32421D02*
D03*
Y34390D02*
D03*
Y36358D02*
D03*
Y38327D02*
D03*
Y40295D02*
D03*
D14*
X24142Y20610D02*
D03*
D15*
X55673Y66500D02*
D03*
X52327D02*
D03*
D16*
X47000Y59969D02*
D03*
Y66031D02*
D03*
X40736Y59988D02*
D03*
Y66052D02*
D03*
D19*
X47469Y66500D02*
X52327D01*
X47000Y66031D02*
X47469Y66500D01*
X52163Y63163D02*
Y66337D01*
X52327Y66500D01*
X52000Y63000D02*
X52163Y63163D01*
X45795Y22579D02*
X45807Y22567D01*
X49450D02*
X49571Y22446D01*
X45807Y22567D02*
X49450D01*
D20*
X33118Y30132D02*
D03*
X10500Y12000D02*
D03*
Y18000D02*
D03*
Y24000D02*
D03*
X23746Y9775D02*
D03*
X29104D02*
D03*
X34267Y9814D02*
D03*
X42000Y10000D02*
D03*
X56000Y14500D02*
D03*
X58000Y50000D02*
D03*
Y61000D02*
D03*
X10500Y78000D02*
D03*
Y72000D02*
D03*
Y66000D02*
D03*
Y60000D02*
D03*
Y54000D02*
D03*
Y48000D02*
D03*
Y42000D02*
D03*
Y36000D02*
D03*
Y30000D02*
D03*
X57000Y34000D02*
D03*
X51000Y44000D02*
D03*
X39000Y33500D02*
D03*
X57500Y74500D02*
D03*
Y77000D02*
D03*
X42571Y77905D02*
D03*
X32978Y77604D02*
D03*
X25453Y77522D02*
D03*
X30094Y17087D02*
D03*
X28000Y20500D02*
D03*
X33000Y34657D02*
D03*
X37139Y20656D02*
D03*
X32887Y20816D02*
D03*
X49000Y18000D02*
D03*
X45000Y52500D02*
D03*
X25500Y43500D02*
D03*
X41918Y17143D02*
D03*
X26172Y22100D02*
D03*
X16000Y18500D02*
D03*
X26000Y67000D02*
D03*
X35000Y70500D02*
D03*
X47500Y57000D02*
D03*
X39934Y21014D02*
D03*
X40031Y23823D02*
D03*
X38194Y51191D02*
D03*
X42893Y55471D02*
D03*
X41776Y26520D02*
D03*
X37775Y24555D02*
D03*
X44000Y24500D02*
D03*
X31813Y56936D02*
D03*
X35016Y57193D02*
D03*
X28724Y64047D02*
D03*
X16322Y21873D02*
D03*
X31848Y70403D02*
D03*
X25513Y70786D02*
D03*
X31006Y12989D02*
D03*
X19683Y26520D02*
D03*
X21500Y56000D02*
D03*
X23977Y18677D02*
D03*
X26000Y27500D02*
D03*
X25500Y57000D02*
D03*
X24354Y25793D02*
D03*
X22097Y26520D02*
D03*
D21*
X52000Y63000D02*
D03*
D22*
X49571Y22446D02*
D03*
M02*
