G04*
G04 #@! TF.GenerationSoftware,Altium Limited,Altium Designer,22.2.1 (43)*
G04*
G04 Layer_Color=65535*
%FSLAX25Y25*%
%MOIN*%
G70*
G04*
G04 #@! TF.SameCoordinates,F257658A-247B-4475-9E09-9EFA5F1A57C6*
G04*
G04*
G04 #@! TF.FilePolarity,Positive*
G04*
G01*
G75*
%ADD10C,0.00787*%
%ADD11C,0.01000*%
%ADD12C,0.00600*%
G36*
X19589Y12505D02*
X18814Y12209D01*
Y11134D01*
X19589Y10854D01*
Y10497D01*
X17028Y11480D01*
Y11842D01*
X19589Y12889D01*
Y12505D01*
D02*
G37*
G36*
X47186Y13227D02*
X47208Y13225D01*
X47238Y13223D01*
X47269Y13218D01*
X47306Y13212D01*
X47345Y13203D01*
X47388Y13192D01*
X47432Y13177D01*
X47478Y13160D01*
X47525Y13140D01*
X47571Y13116D01*
X47617Y13088D01*
X47663Y13057D01*
X47706Y13020D01*
X47708Y13018D01*
X47715Y13010D01*
X47726Y12997D01*
X47741Y12979D01*
X47758Y12955D01*
X47778Y12925D01*
X47798Y12890D01*
X47819Y12848D01*
X47839Y12799D01*
X47859Y12746D01*
X47880Y12683D01*
X47897Y12616D01*
X47911Y12540D01*
X47917Y12500D01*
X47922Y12457D01*
X47926Y12413D01*
X47930Y12367D01*
X47932Y12319D01*
Y11614D01*
X48973D01*
Y11275D01*
X46413D01*
Y12302D01*
X46415Y12328D01*
Y12354D01*
X46417Y12383D01*
X46418Y12446D01*
X46424Y12511D01*
X46429Y12574D01*
X46435Y12603D01*
X46439Y12629D01*
Y12631D01*
X46441Y12639D01*
X46442Y12648D01*
X46444Y12661D01*
X46448Y12677D01*
X46453Y12696D01*
X46459Y12716D01*
X46465Y12740D01*
X46481Y12790D01*
X46503Y12842D01*
X46527Y12896D01*
X46559Y12946D01*
X46561Y12947D01*
X46563Y12951D01*
X46568Y12959D01*
X46576Y12966D01*
X46583Y12977D01*
X46594Y12990D01*
X46607Y13005D01*
X46622Y13020D01*
X46639Y13034D01*
X46657Y13051D01*
X46700Y13086D01*
X46749Y13119D01*
X46805Y13151D01*
X46807Y13153D01*
X46812Y13155D01*
X46822Y13158D01*
X46833Y13164D01*
X46848Y13170D01*
X46866Y13175D01*
X46886Y13182D01*
X46909Y13190D01*
X46933Y13197D01*
X46960Y13205D01*
X46988Y13210D01*
X47020Y13216D01*
X47084Y13225D01*
X47155Y13229D01*
X47158D01*
X47169D01*
X47186Y13227D01*
D02*
G37*
G36*
X16228Y13783D02*
X15913D01*
Y15785D01*
X15912Y15783D01*
X15908Y15779D01*
X15902Y15774D01*
X15893Y15766D01*
X15882Y15757D01*
X15867Y15744D01*
X15851Y15731D01*
X15834Y15716D01*
X15812Y15701D01*
X15789Y15683D01*
X15766Y15666D01*
X15740Y15646D01*
X15710Y15628D01*
X15680Y15607D01*
X15614Y15566D01*
X15612Y15565D01*
X15606Y15561D01*
X15595Y15555D01*
X15582Y15550D01*
X15567Y15540D01*
X15549Y15529D01*
X15527Y15518D01*
X15505Y15505D01*
X15453Y15480D01*
X15397Y15454D01*
X15340Y15428D01*
X15284Y15405D01*
Y15709D01*
X15288Y15711D01*
X15296Y15714D01*
X15310Y15722D01*
X15329Y15731D01*
X15351Y15742D01*
X15379Y15757D01*
X15408Y15774D01*
X15440Y15792D01*
X15475Y15814D01*
X15512Y15836D01*
X15590Y15888D01*
X15669Y15946D01*
X15745Y16009D01*
X15747Y16010D01*
X15754Y16016D01*
X15764Y16025D01*
X15777Y16038D01*
X15793Y16055D01*
X15812Y16073D01*
X15832Y16095D01*
X15854Y16118D01*
X15877Y16144D01*
X15901Y16171D01*
X15947Y16229D01*
X15989Y16290D01*
X16008Y16321D01*
X16025Y16353D01*
X16228D01*
Y13783D01*
D02*
G37*
G36*
X16356Y41967D02*
X16702D01*
Y41679D01*
X16356D01*
Y41066D01*
X16041D01*
Y41679D01*
X14931D01*
Y41967D01*
X16099Y43626D01*
X16356D01*
Y41967D01*
D02*
G37*
G36*
X14228Y41066D02*
X13914D01*
Y43068D01*
X13912Y43066D01*
X13908Y43062D01*
X13903Y43057D01*
X13893Y43049D01*
X13882Y43040D01*
X13868Y43027D01*
X13851Y43014D01*
X13834Y42999D01*
X13812Y42985D01*
X13790Y42966D01*
X13766Y42949D01*
X13740Y42929D01*
X13710Y42911D01*
X13681Y42890D01*
X13614Y42849D01*
X13612Y42848D01*
X13607Y42844D01*
X13596Y42838D01*
X13583Y42833D01*
X13568Y42824D01*
X13549Y42812D01*
X13527Y42801D01*
X13505Y42788D01*
X13453Y42763D01*
X13398Y42737D01*
X13340Y42711D01*
X13285Y42689D01*
Y42992D01*
X13288Y42994D01*
X13296Y42998D01*
X13311Y43005D01*
X13329Y43014D01*
X13351Y43025D01*
X13379Y43040D01*
X13409Y43057D01*
X13440Y43075D01*
X13475Y43097D01*
X13512Y43120D01*
X13590Y43171D01*
X13670Y43229D01*
X13746Y43292D01*
X13747Y43293D01*
X13755Y43299D01*
X13764Y43308D01*
X13777Y43321D01*
X13794Y43338D01*
X13812Y43356D01*
X13832Y43379D01*
X13855Y43401D01*
X13877Y43427D01*
X13901Y43455D01*
X13947Y43512D01*
X13990Y43573D01*
X14008Y43604D01*
X14025Y43636D01*
X14228D01*
Y41066D01*
D02*
G37*
G36*
X51784Y70243D02*
X51128D01*
X50051Y73260D01*
X50709D01*
X51474Y71027D01*
X52211Y73260D01*
X52859D01*
X51784Y70243D01*
D02*
G37*
G36*
X56085D02*
X55507D01*
Y70820D01*
X56085D01*
Y70243D01*
D02*
G37*
G36*
X54078Y73268D02*
X54108Y73266D01*
X54145Y73264D01*
X54189Y73257D01*
X54237Y73251D01*
X54289Y73240D01*
X54343Y73227D01*
X54402Y73212D01*
X54461Y73192D01*
X54518Y73168D01*
X54577Y73140D01*
X54633Y73109D01*
X54686Y73072D01*
X54736Y73028D01*
X54738Y73026D01*
X54747Y73018D01*
X54760Y73005D01*
X54775Y72985D01*
X54795Y72961D01*
X54817Y72935D01*
X54840Y72900D01*
X54864Y72863D01*
X54888Y72821D01*
X54912Y72778D01*
X54934Y72728D01*
X54954Y72675D01*
X54969Y72619D01*
X54982Y72558D01*
X54991Y72494D01*
X54993Y72429D01*
Y72427D01*
Y72420D01*
Y72409D01*
Y72394D01*
X54991Y72377D01*
X54989Y72355D01*
X54987Y72331D01*
X54984Y72305D01*
X54976Y72246D01*
X54962Y72180D01*
X54943Y72111D01*
X54919Y72041D01*
Y72039D01*
X54915Y72032D01*
X54910Y72023D01*
X54906Y72008D01*
X54897Y71993D01*
X54886Y71973D01*
X54875Y71949D01*
X54862Y71925D01*
X54847Y71897D01*
X54830Y71867D01*
X54790Y71801D01*
X54742Y71731D01*
X54688Y71657D01*
X54686Y71655D01*
X54684Y71651D01*
X54677Y71644D01*
X54668Y71633D01*
X54655Y71618D01*
X54640Y71601D01*
X54623Y71581D01*
X54601Y71559D01*
X54577Y71533D01*
X54548Y71505D01*
X54518Y71472D01*
X54483Y71437D01*
X54446Y71400D01*
X54404Y71361D01*
X54359Y71317D01*
X54308Y71271D01*
X54306Y71269D01*
X54298Y71260D01*
X54282Y71247D01*
X54265Y71230D01*
X54243Y71210D01*
X54217Y71189D01*
X54191Y71162D01*
X54163Y71136D01*
X54104Y71080D01*
X54045Y71025D01*
X54019Y70999D01*
X53997Y70977D01*
X53975Y70955D01*
X53960Y70938D01*
X53958Y70934D01*
X53949Y70925D01*
X53934Y70907D01*
X53918Y70888D01*
X53899Y70864D01*
X53879Y70835D01*
X53860Y70807D01*
X53842Y70779D01*
X54993D01*
Y70243D01*
X52966D01*
Y70247D01*
X52968Y70256D01*
X52970Y70273D01*
X52974Y70295D01*
X52979Y70321D01*
X52985Y70354D01*
X52992Y70389D01*
X53003Y70428D01*
X53014Y70471D01*
X53029Y70517D01*
X53044Y70563D01*
X53062Y70613D01*
X53083Y70663D01*
X53107Y70715D01*
X53133Y70766D01*
X53162Y70818D01*
X53164Y70820D01*
X53171Y70831D01*
X53181Y70846D01*
X53195Y70868D01*
X53214Y70894D01*
X53240Y70927D01*
X53271Y70966D01*
X53306Y71010D01*
X53347Y71060D01*
X53393Y71114D01*
X53447Y71173D01*
X53506Y71239D01*
X53574Y71308D01*
X53646Y71380D01*
X53727Y71459D01*
X53814Y71542D01*
X53816Y71544D01*
X53818Y71546D01*
X53831Y71557D01*
X53851Y71577D01*
X53877Y71601D01*
X53907Y71631D01*
X53942Y71664D01*
X53979Y71701D01*
X54021Y71740D01*
X54101Y71823D01*
X54143Y71862D01*
X54180Y71904D01*
X54217Y71941D01*
X54247Y71976D01*
X54274Y72008D01*
X54293Y72034D01*
X54295Y72037D01*
X54298Y72043D01*
X54304Y72052D01*
X54313Y72065D01*
X54322Y72082D01*
X54330Y72100D01*
X54341Y72122D01*
X54354Y72146D01*
X54376Y72200D01*
X54394Y72259D01*
X54409Y72324D01*
X54411Y72357D01*
X54413Y72390D01*
Y72392D01*
Y72399D01*
Y72407D01*
X54411Y72422D01*
Y72438D01*
X54409Y72455D01*
X54400Y72499D01*
X54387Y72547D01*
X54370Y72597D01*
X54343Y72643D01*
X54326Y72667D01*
X54308Y72686D01*
X54306Y72688D01*
X54304Y72691D01*
X54298Y72695D01*
X54289Y72704D01*
X54278Y72710D01*
X54265Y72719D01*
X54250Y72730D01*
X54234Y72739D01*
X54193Y72758D01*
X54143Y72776D01*
X54086Y72786D01*
X54053Y72789D01*
X54021Y72791D01*
X54003D01*
X53990Y72789D01*
X53975D01*
X53958Y72784D01*
X53916Y72778D01*
X53870Y72765D01*
X53820Y72745D01*
X53798Y72732D01*
X53774Y72719D01*
X53753Y72702D01*
X53731Y72682D01*
X53729Y72680D01*
X53727Y72677D01*
X53720Y72671D01*
X53713Y72660D01*
X53705Y72649D01*
X53696Y72634D01*
X53687Y72616D01*
X53676Y72597D01*
X53665Y72573D01*
X53654Y72547D01*
X53644Y72516D01*
X53635Y72483D01*
X53626Y72446D01*
X53618Y72407D01*
X53613Y72366D01*
X53609Y72320D01*
X53033Y72377D01*
Y72379D01*
Y72383D01*
X53035Y72390D01*
Y72399D01*
X53038Y72409D01*
X53040Y72422D01*
X53046Y72455D01*
X53053Y72494D01*
X53064Y72538D01*
X53077Y72588D01*
X53092Y72641D01*
X53112Y72697D01*
X53133Y72754D01*
X53160Y72811D01*
X53190Y72867D01*
X53223Y72922D01*
X53262Y72972D01*
X53306Y73020D01*
X53354Y73061D01*
X53356Y73063D01*
X53367Y73070D01*
X53382Y73081D01*
X53402Y73094D01*
X53430Y73109D01*
X53461Y73127D01*
X53500Y73146D01*
X53541Y73166D01*
X53587Y73185D01*
X53639Y73205D01*
X53696Y73223D01*
X53755Y73238D01*
X53820Y73251D01*
X53888Y73262D01*
X53960Y73268D01*
X54034Y73270D01*
X54053D01*
X54078Y73268D01*
D02*
G37*
G36*
X57572D02*
X57603Y73266D01*
X57640Y73262D01*
X57683Y73253D01*
X57729Y73244D01*
X57781Y73231D01*
X57834Y73214D01*
X57890Y73194D01*
X57947Y73168D01*
X58004Y73137D01*
X58060Y73103D01*
X58115Y73061D01*
X58167Y73011D01*
X58215Y72957D01*
X58219Y72952D01*
X58222Y72948D01*
X58228Y72939D01*
X58235Y72928D01*
X58243Y72917D01*
X58252Y72902D01*
X58261Y72885D01*
X58272Y72867D01*
X58285Y72845D01*
X58296Y72821D01*
X58309Y72795D01*
X58322Y72765D01*
X58335Y72734D01*
X58350Y72702D01*
X58363Y72664D01*
X58376Y72625D01*
X58392Y72584D01*
X58405Y72540D01*
X58418Y72494D01*
X58431Y72444D01*
X58442Y72394D01*
X58455Y72340D01*
X58466Y72283D01*
X58474Y72222D01*
X58483Y72161D01*
X58492Y72096D01*
X58499Y72028D01*
X58505Y71958D01*
X58509Y71884D01*
X58512Y71808D01*
Y71729D01*
Y71727D01*
Y71720D01*
Y71707D01*
Y71692D01*
Y71672D01*
X58509Y71649D01*
Y71620D01*
X58507Y71590D01*
X58505Y71555D01*
X58503Y71520D01*
X58501Y71481D01*
X58496Y71439D01*
X58488Y71350D01*
X58474Y71254D01*
X58459Y71154D01*
X58440Y71051D01*
X58416Y70949D01*
X58387Y70849D01*
X58352Y70750D01*
X58313Y70659D01*
X58291Y70615D01*
X58267Y70574D01*
X58241Y70535D01*
X58215Y70498D01*
X58213Y70493D01*
X58204Y70484D01*
X58189Y70469D01*
X58169Y70450D01*
X58145Y70426D01*
X58115Y70399D01*
X58078Y70373D01*
X58036Y70345D01*
X57991Y70314D01*
X57940Y70288D01*
X57884Y70262D01*
X57823Y70238D01*
X57757Y70218D01*
X57685Y70203D01*
X57611Y70195D01*
X57531Y70190D01*
X57511D01*
X57489Y70192D01*
X57459Y70195D01*
X57419Y70201D01*
X57378Y70208D01*
X57328Y70218D01*
X57278Y70232D01*
X57221Y70251D01*
X57164Y70273D01*
X57105Y70299D01*
X57044Y70332D01*
X56986Y70371D01*
X56929Y70417D01*
X56872Y70469D01*
X56820Y70528D01*
X56818Y70532D01*
X56809Y70543D01*
X56802Y70554D01*
X56796Y70565D01*
X56787Y70578D01*
X56779Y70593D01*
X56768Y70613D01*
X56759Y70633D01*
X56746Y70657D01*
X56735Y70681D01*
X56724Y70709D01*
X56711Y70737D01*
X56698Y70770D01*
X56687Y70805D01*
X56674Y70842D01*
X56661Y70883D01*
X56648Y70925D01*
X56637Y70971D01*
X56626Y71018D01*
X56615Y71069D01*
X56604Y71123D01*
X56593Y71180D01*
X56585Y71239D01*
X56576Y71300D01*
X56569Y71365D01*
X56563Y71433D01*
X56558Y71503D01*
X56554Y71577D01*
X56552Y71653D01*
Y71734D01*
Y71736D01*
Y71742D01*
Y71755D01*
Y71771D01*
X56554Y71790D01*
Y71814D01*
Y71843D01*
X56556Y71873D01*
X56558Y71906D01*
X56560Y71943D01*
X56565Y71982D01*
X56567Y72023D01*
X56576Y72111D01*
X56589Y72207D01*
X56604Y72307D01*
X56624Y72407D01*
X56648Y72510D01*
X56676Y72612D01*
X56709Y72708D01*
X56748Y72800D01*
X56772Y72843D01*
X56794Y72885D01*
X56820Y72924D01*
X56846Y72961D01*
X56848Y72965D01*
X56857Y72974D01*
X56872Y72989D01*
X56892Y73009D01*
X56916Y73033D01*
X56946Y73059D01*
X56983Y73087D01*
X57025Y73116D01*
X57071Y73144D01*
X57121Y73172D01*
X57177Y73198D01*
X57239Y73223D01*
X57304Y73242D01*
X57376Y73257D01*
X57450Y73266D01*
X57531Y73270D01*
X57550D01*
X57572Y73268D01*
D02*
G37*
G36*
X44584Y73572D02*
X45624Y72000D01*
X44891D01*
X44222Y73020D01*
X43551Y72000D01*
X42820D01*
X43865Y73570D01*
X42916Y75017D01*
X43629D01*
X44226Y74112D01*
X44826Y75017D01*
X45532D01*
X44584Y73572D01*
D02*
G37*
G36*
X48656Y72000D02*
X47993D01*
X47732Y72685D01*
X46524D01*
X46276Y72000D01*
X45630D01*
X46801Y75017D01*
X47448D01*
X48656Y72000D01*
D02*
G37*
G36*
X41288Y75015D02*
X41325D01*
X41364Y75013D01*
X41408Y75011D01*
X41453Y75006D01*
X41499Y75002D01*
X41595Y74993D01*
X41641Y74987D01*
X41687Y74978D01*
X41728Y74969D01*
X41767Y74958D01*
X41769D01*
X41778Y74954D01*
X41794Y74950D01*
X41811Y74943D01*
X41835Y74934D01*
X41861Y74923D01*
X41892Y74910D01*
X41924Y74895D01*
X41959Y74875D01*
X41996Y74856D01*
X42033Y74832D01*
X42072Y74808D01*
X42110Y74779D01*
X42149Y74749D01*
X42186Y74716D01*
X42223Y74679D01*
X42225Y74677D01*
X42232Y74670D01*
X42240Y74660D01*
X42254Y74644D01*
X42271Y74625D01*
X42288Y74601D01*
X42308Y74575D01*
X42330Y74544D01*
X42354Y74509D01*
X42376Y74472D01*
X42399Y74433D01*
X42423Y74389D01*
X42448Y74344D01*
X42469Y74296D01*
X42491Y74243D01*
X42511Y74191D01*
X42513Y74189D01*
X42515Y74178D01*
X42519Y74163D01*
X42526Y74139D01*
X42535Y74110D01*
X42543Y74077D01*
X42552Y74038D01*
X42561Y73995D01*
X42570Y73945D01*
X42578Y73890D01*
X42587Y73831D01*
X42596Y73768D01*
X42602Y73703D01*
X42607Y73631D01*
X42611Y73557D01*
Y73478D01*
Y73474D01*
Y73461D01*
Y73441D01*
X42609Y73415D01*
Y73384D01*
X42607Y73345D01*
X42602Y73304D01*
X42600Y73258D01*
X42594Y73210D01*
X42589Y73158D01*
X42572Y73051D01*
X42548Y72942D01*
X42535Y72889D01*
X42517Y72837D01*
X42515Y72833D01*
X42513Y72822D01*
X42506Y72804D01*
X42496Y72783D01*
X42485Y72754D01*
X42472Y72722D01*
X42454Y72687D01*
X42434Y72648D01*
X42413Y72606D01*
X42389Y72562D01*
X42362Y72519D01*
X42334Y72473D01*
X42301Y72430D01*
X42269Y72386D01*
X42234Y72342D01*
X42195Y72303D01*
X42192Y72301D01*
X42188Y72297D01*
X42177Y72288D01*
X42166Y72277D01*
X42149Y72264D01*
X42129Y72251D01*
X42107Y72233D01*
X42081Y72216D01*
X42053Y72196D01*
X42020Y72177D01*
X41985Y72157D01*
X41948Y72137D01*
X41907Y72118D01*
X41863Y72098D01*
X41818Y72081D01*
X41767Y72063D01*
X41765D01*
X41759Y72061D01*
X41745Y72057D01*
X41730Y72054D01*
X41711Y72048D01*
X41684Y72044D01*
X41656Y72037D01*
X41623Y72033D01*
X41586Y72026D01*
X41547Y72020D01*
X41501Y72015D01*
X41453Y72011D01*
X41401Y72006D01*
X41347Y72002D01*
X41288Y72000D01*
X40082D01*
Y75017D01*
X41255D01*
X41288Y75015D01*
D02*
G37*
G36*
X39760Y72000D02*
X39097D01*
X38835Y72685D01*
X37628D01*
X37379Y72000D01*
X36734D01*
X37904Y75017D01*
X38552D01*
X39760Y72000D01*
D02*
G37*
G36*
X35358Y75015D02*
X35400D01*
X35445Y75013D01*
X35495Y75011D01*
X35550Y75006D01*
X35607Y75002D01*
X35663Y74998D01*
X35781Y74982D01*
X35836Y74973D01*
X35888Y74963D01*
X35938Y74950D01*
X35982Y74934D01*
X35984D01*
X35990Y74930D01*
X36003Y74926D01*
X36019Y74919D01*
X36036Y74910D01*
X36058Y74897D01*
X36082Y74884D01*
X36108Y74869D01*
X36136Y74849D01*
X36165Y74827D01*
X36193Y74804D01*
X36224Y74777D01*
X36252Y74749D01*
X36280Y74716D01*
X36306Y74681D01*
X36333Y74644D01*
X36335Y74642D01*
X36339Y74636D01*
X36346Y74622D01*
X36354Y74607D01*
X36363Y74588D01*
X36374Y74566D01*
X36387Y74537D01*
X36400Y74507D01*
X36411Y74474D01*
X36424Y74437D01*
X36435Y74398D01*
X36446Y74357D01*
X36452Y74313D01*
X36459Y74267D01*
X36463Y74221D01*
X36466Y74171D01*
Y74167D01*
Y74156D01*
X36463Y74139D01*
Y74115D01*
X36459Y74086D01*
X36455Y74051D01*
X36448Y74014D01*
X36442Y73973D01*
X36431Y73929D01*
X36418Y73883D01*
X36400Y73838D01*
X36381Y73790D01*
X36359Y73744D01*
X36330Y73696D01*
X36300Y73652D01*
X36265Y73609D01*
X36263Y73607D01*
X36256Y73600D01*
X36243Y73589D01*
X36228Y73574D01*
X36206Y73557D01*
X36182Y73537D01*
X36152Y73515D01*
X36117Y73491D01*
X36075Y73467D01*
X36032Y73445D01*
X35984Y73421D01*
X35929Y73400D01*
X35870Y73378D01*
X35807Y73360D01*
X35740Y73345D01*
X35668Y73332D01*
X35670Y73330D01*
X35676Y73328D01*
X35687Y73321D01*
X35700Y73312D01*
X35718Y73302D01*
X35737Y73288D01*
X35759Y73273D01*
X35783Y73258D01*
X35836Y73219D01*
X35890Y73175D01*
X35945Y73127D01*
X35995Y73077D01*
X35997Y73075D01*
X36001Y73070D01*
X36008Y73062D01*
X36019Y73051D01*
X36032Y73036D01*
X36047Y73016D01*
X36064Y72992D01*
X36086Y72964D01*
X36110Y72933D01*
X36136Y72898D01*
X36165Y72857D01*
X36195Y72813D01*
X36228Y72763D01*
X36263Y72711D01*
X36302Y72652D01*
X36341Y72589D01*
X36710Y72000D01*
X35979D01*
X35541Y72656D01*
X35539Y72660D01*
X35530Y72671D01*
X35519Y72689D01*
X35504Y72713D01*
X35485Y72741D01*
X35463Y72772D01*
X35439Y72807D01*
X35413Y72844D01*
X35358Y72918D01*
X35332Y72955D01*
X35306Y72992D01*
X35282Y73025D01*
X35258Y73053D01*
X35236Y73079D01*
X35219Y73099D01*
X35214Y73103D01*
X35203Y73114D01*
X35186Y73129D01*
X35164Y73149D01*
X35136Y73171D01*
X35105Y73190D01*
X35073Y73210D01*
X35035Y73225D01*
X35031Y73227D01*
X35025Y73229D01*
X35018Y73232D01*
X35007Y73234D01*
X34994Y73236D01*
X34979Y73240D01*
X34961Y73243D01*
X34942Y73247D01*
X34920Y73249D01*
X34894Y73251D01*
X34865Y73256D01*
X34837Y73258D01*
X34804D01*
X34767Y73260D01*
X34608D01*
Y72000D01*
X34000D01*
Y75017D01*
X35325D01*
X35358Y75015D01*
D02*
G37*
G36*
X28711Y75067D02*
X28753D01*
X28799Y75065D01*
X28849Y75063D01*
X28903Y75059D01*
X28960Y75054D01*
X29017Y75050D01*
X29134Y75035D01*
X29189Y75026D01*
X29241Y75015D01*
X29291Y75002D01*
X29335Y74987D01*
X29337D01*
X29344Y74982D01*
X29357Y74978D01*
X29372Y74971D01*
X29389Y74963D01*
X29411Y74950D01*
X29435Y74936D01*
X29461Y74921D01*
X29490Y74902D01*
X29518Y74880D01*
X29546Y74856D01*
X29577Y74830D01*
X29605Y74801D01*
X29634Y74769D01*
X29660Y74734D01*
X29686Y74697D01*
X29688Y74695D01*
X29692Y74688D01*
X29699Y74675D01*
X29708Y74660D01*
X29716Y74640D01*
X29727Y74618D01*
X29740Y74590D01*
X29754Y74559D01*
X29764Y74527D01*
X29778Y74490D01*
X29788Y74450D01*
X29799Y74409D01*
X29806Y74365D01*
X29812Y74319D01*
X29817Y74274D01*
X29819Y74224D01*
Y74219D01*
Y74208D01*
X29817Y74191D01*
Y74167D01*
X29812Y74139D01*
X29808Y74104D01*
X29801Y74067D01*
X29795Y74025D01*
X29784Y73982D01*
X29771Y73936D01*
X29754Y73890D01*
X29734Y73842D01*
X29712Y73796D01*
X29684Y73748D01*
X29653Y73705D01*
X29618Y73661D01*
X29616Y73659D01*
X29610Y73652D01*
X29596Y73642D01*
X29581Y73626D01*
X29559Y73609D01*
X29535Y73589D01*
X29505Y73567D01*
X29470Y73543D01*
X29429Y73519D01*
X29385Y73498D01*
X29337Y73474D01*
X29283Y73452D01*
X29224Y73430D01*
X29160Y73413D01*
X29093Y73397D01*
X29021Y73384D01*
X29023Y73382D01*
X29030Y73380D01*
X29041Y73373D01*
X29054Y73365D01*
X29071Y73354D01*
X29091Y73341D01*
X29113Y73325D01*
X29136Y73310D01*
X29189Y73271D01*
X29243Y73227D01*
X29298Y73179D01*
X29348Y73129D01*
X29350Y73127D01*
X29355Y73123D01*
X29361Y73114D01*
X29372Y73103D01*
X29385Y73088D01*
X29400Y73068D01*
X29418Y73044D01*
X29440Y73016D01*
X29463Y72985D01*
X29490Y72951D01*
X29518Y72909D01*
X29549Y72865D01*
X29581Y72815D01*
X29616Y72763D01*
X29655Y72704D01*
X29695Y72641D01*
X30063Y72052D01*
X29333D01*
X28895Y72708D01*
X28892Y72713D01*
X28884Y72724D01*
X28873Y72741D01*
X28857Y72765D01*
X28838Y72794D01*
X28816Y72824D01*
X28792Y72859D01*
X28766Y72896D01*
X28711Y72970D01*
X28685Y73007D01*
X28659Y73044D01*
X28635Y73077D01*
X28611Y73105D01*
X28589Y73131D01*
X28572Y73151D01*
X28568Y73155D01*
X28557Y73166D01*
X28539Y73182D01*
X28517Y73201D01*
X28489Y73223D01*
X28459Y73243D01*
X28426Y73262D01*
X28389Y73277D01*
X28384Y73280D01*
X28378Y73282D01*
X28371Y73284D01*
X28361Y73286D01*
X28347Y73288D01*
X28332Y73293D01*
X28315Y73295D01*
X28295Y73299D01*
X28273Y73302D01*
X28247Y73304D01*
X28219Y73308D01*
X28190Y73310D01*
X28158D01*
X28121Y73312D01*
X27962D01*
Y72052D01*
X27353D01*
Y75069D01*
X28679D01*
X28711Y75067D01*
D02*
G37*
G36*
X23569Y74559D02*
X22108D01*
Y73844D01*
X23368D01*
Y73334D01*
X22108D01*
Y72052D01*
X21500D01*
Y75069D01*
X23569D01*
Y74559D01*
D02*
G37*
G36*
X25452Y75117D02*
X25470D01*
X25492Y75115D01*
X25518Y75113D01*
X25544Y75111D01*
X25574Y75107D01*
X25605Y75102D01*
X25640Y75098D01*
X25712Y75085D01*
X25790Y75067D01*
X25873Y75046D01*
X25960Y75019D01*
X26050Y74984D01*
X26139Y74945D01*
X26226Y74897D01*
X26313Y74843D01*
X26355Y74812D01*
X26396Y74777D01*
X26436Y74742D01*
X26475Y74705D01*
X26477Y74703D01*
X26479Y74701D01*
X26486Y74695D01*
X26492Y74686D01*
X26501Y74675D01*
X26512Y74662D01*
X26525Y74647D01*
X26538Y74629D01*
X26553Y74610D01*
X26568Y74588D01*
X26584Y74562D01*
X26601Y74535D01*
X26619Y74507D01*
X26638Y74474D01*
X26656Y74442D01*
X26675Y74407D01*
X26712Y74328D01*
X26749Y74243D01*
X26782Y74147D01*
X26813Y74045D01*
X26839Y73934D01*
X26858Y73816D01*
X26871Y73690D01*
X26876Y73622D01*
Y73554D01*
Y73552D01*
Y73546D01*
Y73537D01*
Y73522D01*
X26874Y73504D01*
Y73485D01*
X26871Y73461D01*
X26869Y73434D01*
X26867Y73404D01*
X26863Y73373D01*
X26861Y73339D01*
X26854Y73302D01*
X26843Y73223D01*
X26826Y73138D01*
X26804Y73049D01*
X26778Y72955D01*
X26747Y72859D01*
X26708Y72765D01*
X26662Y72671D01*
X26608Y72580D01*
X26579Y72536D01*
X26547Y72493D01*
X26514Y72451D01*
X26477Y72412D01*
X26475Y72410D01*
X26473Y72408D01*
X26466Y72401D01*
X26460Y72395D01*
X26449Y72386D01*
X26436Y72375D01*
X26422Y72362D01*
X26405Y72349D01*
X26366Y72316D01*
X26316Y72281D01*
X26259Y72244D01*
X26196Y72207D01*
X26124Y72168D01*
X26043Y72131D01*
X25956Y72096D01*
X25862Y72065D01*
X25760Y72037D01*
X25653Y72017D01*
X25537Y72004D01*
X25476Y72002D01*
X25415Y72000D01*
X25385D01*
X25370Y72002D01*
X25350D01*
X25328Y72004D01*
X25304Y72006D01*
X25276Y72009D01*
X25247Y72013D01*
X25215Y72017D01*
X25182Y72022D01*
X25108Y72035D01*
X25029Y72052D01*
X24944Y72072D01*
X24857Y72100D01*
X24770Y72133D01*
X24681Y72172D01*
X24591Y72220D01*
X24504Y72275D01*
X24463Y72305D01*
X24423Y72338D01*
X24382Y72373D01*
X24345Y72410D01*
Y72412D01*
X24340Y72414D01*
X24336Y72421D01*
X24328Y72430D01*
X24319Y72440D01*
X24308Y72453D01*
X24297Y72469D01*
X24284Y72486D01*
X24269Y72506D01*
X24253Y72528D01*
X24236Y72552D01*
X24218Y72578D01*
X24201Y72606D01*
X24184Y72637D01*
X24147Y72704D01*
X24110Y72780D01*
X24075Y72865D01*
X24040Y72959D01*
X24009Y73059D01*
X23985Y73168D01*
X23966Y73286D01*
X23953Y73410D01*
X23950Y73474D01*
X23948Y73541D01*
Y73543D01*
Y73546D01*
Y73552D01*
Y73561D01*
Y73572D01*
Y73585D01*
X23950Y73618D01*
X23953Y73657D01*
X23955Y73703D01*
X23959Y73755D01*
X23966Y73809D01*
X23972Y73870D01*
X23981Y73931D01*
X23994Y73997D01*
X24007Y74060D01*
X24022Y74125D01*
X24040Y74191D01*
X24061Y74252D01*
X24085Y74313D01*
X24088Y74315D01*
X24090Y74324D01*
X24096Y74335D01*
X24105Y74352D01*
X24114Y74372D01*
X24127Y74396D01*
X24142Y74422D01*
X24160Y74453D01*
X24199Y74516D01*
X24247Y74585D01*
X24301Y74657D01*
X24364Y74727D01*
X24367Y74729D01*
X24373Y74736D01*
X24382Y74745D01*
X24395Y74758D01*
X24412Y74773D01*
X24432Y74790D01*
X24456Y74810D01*
X24480Y74830D01*
X24508Y74851D01*
X24539Y74873D01*
X24607Y74919D01*
X24678Y74963D01*
X24718Y74982D01*
X24757Y75000D01*
X24761Y75002D01*
X24770Y75004D01*
X24785Y75011D01*
X24807Y75019D01*
X24833Y75028D01*
X24866Y75037D01*
X24903Y75048D01*
X24944Y75061D01*
X24990Y75072D01*
X25038Y75082D01*
X25093Y75091D01*
X25149Y75100D01*
X25210Y75109D01*
X25274Y75115D01*
X25339Y75117D01*
X25407Y75120D01*
X25437D01*
X25452Y75117D01*
D02*
G37*
G36*
X25244Y79146D02*
X25260D01*
X25279Y79144D01*
X25299D01*
X25347Y79137D01*
X25399Y79131D01*
X25460Y79120D01*
X25525Y79106D01*
X25595Y79089D01*
X25669Y79067D01*
X25743Y79041D01*
X25820Y79008D01*
X25894Y78971D01*
X25968Y78928D01*
X26038Y78878D01*
X26105Y78819D01*
X26107Y78816D01*
X26114Y78810D01*
X26125Y78799D01*
X26138Y78784D01*
X26155Y78764D01*
X26175Y78738D01*
X26197Y78710D01*
X26221Y78677D01*
X26245Y78640D01*
X26271Y78598D01*
X26297Y78553D01*
X26323Y78505D01*
X26347Y78450D01*
X26371Y78394D01*
X26395Y78330D01*
X26415Y78265D01*
X25811Y78121D01*
Y78123D01*
X25809Y78132D01*
X25804Y78143D01*
X25800Y78160D01*
X25794Y78180D01*
X25785Y78202D01*
X25774Y78228D01*
X25763Y78254D01*
X25732Y78313D01*
X25713Y78343D01*
X25693Y78374D01*
X25671Y78404D01*
X25645Y78435D01*
X25617Y78463D01*
X25587Y78490D01*
X25584Y78492D01*
X25580Y78496D01*
X25569Y78503D01*
X25556Y78511D01*
X25541Y78522D01*
X25521Y78533D01*
X25497Y78546D01*
X25473Y78559D01*
X25443Y78570D01*
X25412Y78583D01*
X25377Y78594D01*
X25342Y78605D01*
X25303Y78614D01*
X25262Y78620D01*
X25220Y78625D01*
X25174Y78627D01*
X25159D01*
X25142Y78625D01*
X25120Y78623D01*
X25092Y78620D01*
X25059Y78614D01*
X25022Y78607D01*
X24983Y78596D01*
X24939Y78583D01*
X24895Y78568D01*
X24850Y78548D01*
X24804Y78524D01*
X24760Y78496D01*
X24714Y78466D01*
X24673Y78429D01*
X24632Y78385D01*
X24629Y78383D01*
X24623Y78374D01*
X24612Y78359D01*
X24599Y78339D01*
X24584Y78313D01*
X24566Y78280D01*
X24547Y78243D01*
X24529Y78197D01*
X24509Y78147D01*
X24490Y78088D01*
X24473Y78025D01*
X24457Y77955D01*
X24444Y77877D01*
X24433Y77794D01*
X24427Y77703D01*
X24424Y77605D01*
Y77602D01*
Y77598D01*
Y77589D01*
Y77580D01*
Y77565D01*
X24427Y77550D01*
Y77533D01*
X24429Y77511D01*
X24431Y77465D01*
X24435Y77410D01*
X24442Y77352D01*
X24451Y77288D01*
X24462Y77223D01*
X24475Y77155D01*
X24492Y77088D01*
X24512Y77020D01*
X24533Y76957D01*
X24562Y76896D01*
X24592Y76841D01*
X24629Y76791D01*
X24632Y76789D01*
X24638Y76780D01*
X24651Y76770D01*
X24667Y76754D01*
X24686Y76735D01*
X24712Y76715D01*
X24741Y76693D01*
X24773Y76671D01*
X24810Y76647D01*
X24850Y76626D01*
X24893Y76606D01*
X24941Y76586D01*
X24991Y76571D01*
X25046Y76560D01*
X25102Y76552D01*
X25163Y76549D01*
X25188D01*
X25205Y76552D01*
X25225Y76554D01*
X25249Y76558D01*
X25277Y76562D01*
X25307Y76569D01*
X25338Y76575D01*
X25371Y76586D01*
X25405Y76600D01*
X25440Y76615D01*
X25477Y76632D01*
X25512Y76652D01*
X25547Y76676D01*
X25580Y76702D01*
X25582Y76704D01*
X25589Y76709D01*
X25597Y76719D01*
X25608Y76732D01*
X25624Y76748D01*
X25641Y76770D01*
X25658Y76793D01*
X25678Y76822D01*
X25698Y76852D01*
X25719Y76889D01*
X25741Y76929D01*
X25761Y76972D01*
X25780Y77022D01*
X25800Y77073D01*
X25817Y77129D01*
X25833Y77190D01*
X26424Y77003D01*
Y77001D01*
X26421Y76996D01*
X26419Y76990D01*
X26417Y76981D01*
X26413Y76970D01*
X26408Y76955D01*
X26397Y76922D01*
X26382Y76881D01*
X26362Y76833D01*
X26341Y76780D01*
X26315Y76726D01*
X26286Y76667D01*
X26254Y76606D01*
X26217Y76545D01*
X26175Y76484D01*
X26129Y76425D01*
X26081Y76368D01*
X26027Y76316D01*
X25970Y76268D01*
X25966Y76266D01*
X25955Y76257D01*
X25937Y76246D01*
X25914Y76231D01*
X25883Y76214D01*
X25846Y76192D01*
X25802Y76170D01*
X25752Y76148D01*
X25698Y76126D01*
X25637Y76105D01*
X25571Y76085D01*
X25499Y76065D01*
X25425Y76050D01*
X25344Y76039D01*
X25260Y76030D01*
X25170Y76028D01*
X25144D01*
X25129Y76030D01*
X25111D01*
X25092Y76033D01*
X25070Y76035D01*
X25046Y76037D01*
X25020Y76041D01*
X24959Y76050D01*
X24893Y76063D01*
X24821Y76081D01*
X24745Y76100D01*
X24664Y76129D01*
X24584Y76161D01*
X24499Y76200D01*
X24418Y76249D01*
X24335Y76303D01*
X24296Y76333D01*
X24257Y76366D01*
X24220Y76401D01*
X24182Y76438D01*
Y76440D01*
X24178Y76442D01*
X24174Y76449D01*
X24165Y76458D01*
X24156Y76469D01*
X24148Y76482D01*
X24135Y76497D01*
X24122Y76515D01*
X24108Y76534D01*
X24093Y76556D01*
X24078Y76580D01*
X24060Y76606D01*
X24026Y76665D01*
X23991Y76732D01*
X23954Y76809D01*
X23919Y76892D01*
X23886Y76985D01*
X23858Y77086D01*
X23832Y77192D01*
X23814Y77308D01*
X23801Y77430D01*
X23799Y77495D01*
X23797Y77561D01*
Y77563D01*
Y77570D01*
Y77580D01*
Y77594D01*
X23799Y77611D01*
Y77633D01*
X23801Y77657D01*
X23803Y77685D01*
X23805Y77716D01*
X23808Y77748D01*
X23812Y77783D01*
X23816Y77820D01*
X23829Y77901D01*
X23845Y77988D01*
X23866Y78082D01*
X23890Y78178D01*
X23923Y78274D01*
X23960Y78372D01*
X24006Y78468D01*
X24056Y78559D01*
X24117Y78649D01*
X24150Y78690D01*
X24185Y78729D01*
X24187Y78732D01*
X24189Y78734D01*
X24196Y78740D01*
X24202Y78747D01*
X24224Y78769D01*
X24254Y78795D01*
X24294Y78827D01*
X24342Y78862D01*
X24396Y78899D01*
X24457Y78939D01*
X24527Y78978D01*
X24606Y79015D01*
X24688Y79052D01*
X24780Y79083D01*
X24878Y79109D01*
X24980Y79131D01*
X25092Y79144D01*
X25148Y79146D01*
X25207Y79148D01*
X25231D01*
X25244Y79146D01*
D02*
G37*
G36*
X31019Y76081D02*
X30454D01*
X30452Y78455D01*
X29855Y76081D01*
X29269D01*
X28673Y78455D01*
Y76081D01*
X28109D01*
Y79098D01*
X29020D01*
X29565Y77038D01*
X30103Y79098D01*
X31019D01*
Y76081D01*
D02*
G37*
G36*
X23295D02*
X22731D01*
X22728Y78455D01*
X22131Y76081D01*
X21545D01*
X20950Y78455D01*
Y76081D01*
X20385D01*
Y79098D01*
X21296D01*
X21841Y77038D01*
X22380Y79098D01*
X23295D01*
Y76081D01*
D02*
G37*
G36*
X19785D02*
X19221D01*
X19219Y78455D01*
X18621Y76081D01*
X18035D01*
X17440Y78455D01*
Y76081D01*
X16875D01*
Y79098D01*
X17786D01*
X18331Y77038D01*
X18870Y79098D01*
X19785D01*
Y76081D01*
D02*
G37*
G36*
X40349Y77511D02*
Y77508D01*
Y77504D01*
Y77498D01*
Y77487D01*
Y77474D01*
Y77458D01*
Y77441D01*
Y77424D01*
X40347Y77378D01*
Y77328D01*
X40345Y77271D01*
X40343Y77212D01*
X40341Y77149D01*
X40336Y77086D01*
X40334Y77020D01*
X40328Y76957D01*
X40323Y76898D01*
X40317Y76841D01*
X40308Y76789D01*
X40299Y76743D01*
Y76741D01*
X40297Y76732D01*
X40295Y76722D01*
X40288Y76706D01*
X40284Y76687D01*
X40277Y76665D01*
X40269Y76639D01*
X40258Y76613D01*
X40232Y76552D01*
X40201Y76488D01*
X40162Y76425D01*
X40116Y76364D01*
X40114Y76362D01*
X40110Y76358D01*
X40103Y76349D01*
X40092Y76338D01*
X40079Y76327D01*
X40064Y76312D01*
X40044Y76294D01*
X40022Y76277D01*
X39998Y76257D01*
X39972Y76238D01*
X39944Y76218D01*
X39911Y76196D01*
X39878Y76177D01*
X39841Y76157D01*
X39804Y76137D01*
X39763Y76120D01*
X39761D01*
X39752Y76116D01*
X39741Y76111D01*
X39724Y76105D01*
X39700Y76098D01*
X39674Y76091D01*
X39643Y76083D01*
X39608Y76074D01*
X39567Y76065D01*
X39523Y76057D01*
X39475Y76050D01*
X39425Y76044D01*
X39368Y76037D01*
X39312Y76033D01*
X39248Y76030D01*
X39183Y76028D01*
X39142D01*
X39111Y76030D01*
X39076D01*
X39035Y76033D01*
X38989Y76037D01*
X38939Y76041D01*
X38887Y76046D01*
X38832Y76052D01*
X38723Y76070D01*
X38671Y76081D01*
X38618Y76094D01*
X38570Y76109D01*
X38527Y76126D01*
X38525Y76129D01*
X38518Y76131D01*
X38505Y76137D01*
X38490Y76144D01*
X38472Y76155D01*
X38451Y76166D01*
X38427Y76181D01*
X38401Y76196D01*
X38344Y76233D01*
X38285Y76279D01*
X38226Y76329D01*
X38174Y76386D01*
X38172Y76388D01*
X38167Y76392D01*
X38161Y76401D01*
X38154Y76414D01*
X38143Y76427D01*
X38130Y76445D01*
X38117Y76467D01*
X38104Y76488D01*
X38076Y76538D01*
X38047Y76595D01*
X38023Y76656D01*
X38004Y76722D01*
Y76724D01*
X38002Y76735D01*
X37999Y76750D01*
X37995Y76770D01*
X37991Y76798D01*
X37984Y76831D01*
X37980Y76870D01*
X37975Y76916D01*
X37969Y76966D01*
X37964Y77022D01*
X37958Y77086D01*
X37954Y77153D01*
X37951Y77227D01*
X37947Y77308D01*
X37945Y77395D01*
Y77487D01*
Y79098D01*
X38553D01*
Y77463D01*
Y77458D01*
Y77445D01*
Y77426D01*
Y77399D01*
Y77369D01*
X38555Y77334D01*
Y77295D01*
Y77254D01*
X38557Y77169D01*
X38560Y77125D01*
X38562Y77086D01*
X38564Y77046D01*
X38568Y77012D01*
X38570Y76981D01*
X38575Y76957D01*
Y76955D01*
X38577Y76948D01*
X38579Y76940D01*
X38584Y76926D01*
X38588Y76911D01*
X38594Y76892D01*
X38612Y76850D01*
X38638Y76802D01*
X38669Y76754D01*
X38688Y76730D01*
X38710Y76706D01*
X38734Y76682D01*
X38760Y76661D01*
X38762Y76658D01*
X38767Y76656D01*
X38776Y76650D01*
X38786Y76643D01*
X38802Y76634D01*
X38821Y76626D01*
X38841Y76615D01*
X38867Y76606D01*
X38893Y76595D01*
X38924Y76584D01*
X38956Y76575D01*
X38993Y76567D01*
X39033Y76560D01*
X39072Y76554D01*
X39118Y76552D01*
X39164Y76549D01*
X39187D01*
X39207Y76552D01*
X39227D01*
X39253Y76556D01*
X39279Y76558D01*
X39310Y76562D01*
X39373Y76575D01*
X39438Y76593D01*
X39499Y76619D01*
X39528Y76636D01*
X39554Y76654D01*
X39556Y76656D01*
X39560Y76658D01*
X39567Y76665D01*
X39575Y76674D01*
X39597Y76695D01*
X39623Y76726D01*
X39652Y76765D01*
X39678Y76809D01*
X39698Y76859D01*
X39706Y76885D01*
X39713Y76913D01*
Y76916D01*
X39715Y76920D01*
Y76931D01*
X39717Y76944D01*
X39719Y76961D01*
X39722Y76981D01*
X39724Y77007D01*
X39728Y77035D01*
X39730Y77070D01*
X39733Y77107D01*
X39735Y77149D01*
X39737Y77197D01*
X39739Y77247D01*
Y77304D01*
X39741Y77363D01*
Y77428D01*
Y79098D01*
X40349D01*
Y77511D01*
D02*
G37*
G36*
X45804Y78588D02*
X44175D01*
Y77918D01*
X45690D01*
Y77408D01*
X44175D01*
Y76591D01*
X45860D01*
Y76081D01*
X43567D01*
Y79098D01*
X45804D01*
Y78588D01*
D02*
G37*
G36*
X41616Y76591D02*
X43131D01*
Y76081D01*
X41008D01*
Y79072D01*
X41616D01*
Y76591D01*
D02*
G37*
G36*
X36109Y79096D02*
X36146D01*
X36186Y79093D01*
X36229Y79091D01*
X36275Y79087D01*
X36321Y79083D01*
X36417Y79074D01*
X36463Y79067D01*
X36508Y79058D01*
X36550Y79050D01*
X36589Y79039D01*
X36591D01*
X36600Y79035D01*
X36615Y79030D01*
X36632Y79024D01*
X36656Y79015D01*
X36683Y79004D01*
X36713Y78991D01*
X36746Y78976D01*
X36781Y78956D01*
X36818Y78936D01*
X36855Y78913D01*
X36894Y78888D01*
X36931Y78860D01*
X36970Y78830D01*
X37007Y78797D01*
X37045Y78760D01*
X37047Y78758D01*
X37053Y78751D01*
X37062Y78740D01*
X37075Y78725D01*
X37093Y78705D01*
X37110Y78681D01*
X37130Y78655D01*
X37151Y78625D01*
X37175Y78590D01*
X37197Y78553D01*
X37221Y78513D01*
X37245Y78470D01*
X37269Y78424D01*
X37291Y78376D01*
X37313Y78324D01*
X37332Y78272D01*
X37334Y78269D01*
X37337Y78259D01*
X37341Y78243D01*
X37348Y78219D01*
X37356Y78191D01*
X37365Y78158D01*
X37374Y78119D01*
X37382Y78075D01*
X37391Y78025D01*
X37400Y77971D01*
X37409Y77912D01*
X37417Y77849D01*
X37424Y77783D01*
X37428Y77711D01*
X37433Y77637D01*
Y77559D01*
Y77554D01*
Y77541D01*
Y77522D01*
X37430Y77495D01*
Y77465D01*
X37428Y77426D01*
X37424Y77384D01*
X37422Y77338D01*
X37415Y77290D01*
X37411Y77238D01*
X37393Y77131D01*
X37369Y77022D01*
X37356Y76970D01*
X37339Y76918D01*
X37337Y76913D01*
X37334Y76903D01*
X37328Y76885D01*
X37317Y76863D01*
X37306Y76835D01*
X37293Y76802D01*
X37276Y76767D01*
X37256Y76728D01*
X37234Y76687D01*
X37210Y76643D01*
X37184Y76600D01*
X37156Y76554D01*
X37123Y76510D01*
X37090Y76467D01*
X37055Y76423D01*
X37016Y76384D01*
X37014Y76381D01*
X37010Y76377D01*
X36999Y76368D01*
X36988Y76358D01*
X36970Y76344D01*
X36951Y76331D01*
X36929Y76314D01*
X36903Y76297D01*
X36874Y76277D01*
X36842Y76257D01*
X36807Y76238D01*
X36770Y76218D01*
X36728Y76198D01*
X36685Y76179D01*
X36639Y76161D01*
X36589Y76144D01*
X36587D01*
X36580Y76142D01*
X36567Y76137D01*
X36552Y76135D01*
X36532Y76129D01*
X36506Y76124D01*
X36478Y76118D01*
X36445Y76113D01*
X36408Y76107D01*
X36369Y76100D01*
X36323Y76096D01*
X36275Y76091D01*
X36223Y76087D01*
X36168Y76083D01*
X36109Y76081D01*
X34904D01*
Y79098D01*
X36077D01*
X36109Y79096D01*
D02*
G37*
G36*
X16311Y78588D02*
X14682D01*
Y77918D01*
X16197D01*
Y77408D01*
X14682D01*
Y76591D01*
X16367D01*
Y76081D01*
X14074D01*
Y79098D01*
X16311D01*
Y78588D01*
D02*
G37*
G36*
X33007Y79146D02*
X33025D01*
X33046Y79144D01*
X33073Y79141D01*
X33099Y79139D01*
X33129Y79135D01*
X33160Y79131D01*
X33195Y79126D01*
X33267Y79113D01*
X33345Y79096D01*
X33428Y79074D01*
X33515Y79048D01*
X33604Y79013D01*
X33694Y78974D01*
X33781Y78926D01*
X33868Y78871D01*
X33910Y78841D01*
X33951Y78806D01*
X33990Y78771D01*
X34030Y78734D01*
X34032Y78732D01*
X34034Y78729D01*
X34040Y78723D01*
X34047Y78714D01*
X34056Y78703D01*
X34067Y78690D01*
X34080Y78675D01*
X34093Y78657D01*
X34108Y78638D01*
X34123Y78616D01*
X34139Y78590D01*
X34156Y78564D01*
X34174Y78535D01*
X34193Y78503D01*
X34211Y78470D01*
X34230Y78435D01*
X34267Y78357D01*
X34304Y78272D01*
X34337Y78176D01*
X34367Y78073D01*
X34394Y77962D01*
X34413Y77844D01*
X34426Y77718D01*
X34431Y77650D01*
Y77583D01*
Y77580D01*
Y77574D01*
Y77565D01*
Y77550D01*
X34429Y77533D01*
Y77513D01*
X34426Y77489D01*
X34424Y77463D01*
X34422Y77432D01*
X34418Y77402D01*
X34416Y77367D01*
X34409Y77330D01*
X34398Y77251D01*
X34381Y77166D01*
X34359Y77077D01*
X34333Y76983D01*
X34302Y76887D01*
X34263Y76793D01*
X34217Y76700D01*
X34163Y76608D01*
X34134Y76565D01*
X34102Y76521D01*
X34069Y76480D01*
X34032Y76440D01*
X34030Y76438D01*
X34027Y76436D01*
X34021Y76429D01*
X34014Y76423D01*
X34003Y76414D01*
X33990Y76403D01*
X33977Y76390D01*
X33960Y76377D01*
X33921Y76344D01*
X33871Y76310D01*
X33814Y76272D01*
X33751Y76235D01*
X33679Y76196D01*
X33598Y76159D01*
X33511Y76124D01*
X33417Y76094D01*
X33315Y76065D01*
X33208Y76046D01*
X33092Y76033D01*
X33031Y76030D01*
X32970Y76028D01*
X32940D01*
X32924Y76030D01*
X32905D01*
X32883Y76033D01*
X32859Y76035D01*
X32831Y76037D01*
X32802Y76041D01*
X32770Y76046D01*
X32737Y76050D01*
X32663Y76063D01*
X32584Y76081D01*
X32499Y76100D01*
X32412Y76129D01*
X32325Y76161D01*
X32236Y76200D01*
X32146Y76249D01*
X32059Y76303D01*
X32017Y76333D01*
X31978Y76366D01*
X31937Y76401D01*
X31900Y76438D01*
Y76440D01*
X31895Y76442D01*
X31891Y76449D01*
X31882Y76458D01*
X31874Y76469D01*
X31863Y76482D01*
X31852Y76497D01*
X31839Y76515D01*
X31823Y76534D01*
X31808Y76556D01*
X31791Y76580D01*
X31773Y76606D01*
X31756Y76634D01*
X31738Y76665D01*
X31701Y76732D01*
X31664Y76809D01*
X31629Y76894D01*
X31594Y76987D01*
X31564Y77088D01*
X31540Y77197D01*
X31520Y77315D01*
X31507Y77439D01*
X31505Y77502D01*
X31503Y77570D01*
Y77572D01*
Y77574D01*
Y77580D01*
Y77589D01*
Y77600D01*
Y77613D01*
X31505Y77646D01*
X31507Y77685D01*
X31510Y77731D01*
X31514Y77783D01*
X31520Y77838D01*
X31527Y77899D01*
X31536Y77960D01*
X31549Y78025D01*
X31562Y78088D01*
X31577Y78154D01*
X31594Y78219D01*
X31616Y78280D01*
X31640Y78341D01*
X31642Y78343D01*
X31645Y78352D01*
X31651Y78363D01*
X31660Y78381D01*
X31669Y78400D01*
X31682Y78424D01*
X31697Y78450D01*
X31714Y78481D01*
X31754Y78544D01*
X31802Y78614D01*
X31856Y78686D01*
X31919Y78755D01*
X31921Y78758D01*
X31928Y78764D01*
X31937Y78773D01*
X31950Y78786D01*
X31967Y78801D01*
X31987Y78819D01*
X32011Y78838D01*
X32035Y78858D01*
X32063Y78880D01*
X32094Y78902D01*
X32161Y78947D01*
X32233Y78991D01*
X32272Y79011D01*
X32312Y79028D01*
X32316Y79030D01*
X32325Y79032D01*
X32340Y79039D01*
X32362Y79048D01*
X32388Y79056D01*
X32421Y79065D01*
X32458Y79076D01*
X32499Y79089D01*
X32545Y79100D01*
X32593Y79111D01*
X32647Y79120D01*
X32704Y79128D01*
X32765Y79137D01*
X32828Y79144D01*
X32894Y79146D01*
X32961Y79148D01*
X32992D01*
X33007Y79146D01*
D02*
G37*
G36*
X50678Y8620D02*
X50698Y8617D01*
X50720Y8615D01*
X50744Y8613D01*
X50798Y8604D01*
X50857Y8593D01*
X50916Y8576D01*
X50977Y8552D01*
X50979D01*
X50983Y8550D01*
X50992Y8546D01*
X51003Y8539D01*
X51016Y8532D01*
X51031Y8524D01*
X51066Y8504D01*
X51105Y8478D01*
X51145Y8447D01*
X51184Y8415D01*
X51217Y8375D01*
Y8373D01*
X51221Y8371D01*
X51225Y8365D01*
X51230Y8356D01*
X51245Y8334D01*
X51262Y8306D01*
X51282Y8269D01*
X51300Y8229D01*
X51317Y8184D01*
X51332Y8133D01*
Y8131D01*
X51334Y8127D01*
Y8120D01*
X51337Y8110D01*
X51341Y8094D01*
X51343Y8077D01*
X51345Y8057D01*
X51350Y8033D01*
X51352Y8007D01*
X51354Y7979D01*
X51358Y7946D01*
X51360Y7911D01*
X51363Y7874D01*
Y7833D01*
X51365Y7789D01*
Y7743D01*
Y6387D01*
X50787D01*
Y7501D01*
Y7506D01*
Y7517D01*
Y7534D01*
Y7558D01*
X50785Y7586D01*
Y7619D01*
Y7654D01*
X50783Y7691D01*
X50779Y7767D01*
X50774Y7806D01*
X50770Y7843D01*
X50765Y7878D01*
X50761Y7909D01*
X50754Y7937D01*
X50748Y7959D01*
Y7961D01*
X50746Y7963D01*
X50741Y7976D01*
X50733Y7996D01*
X50720Y8018D01*
X50702Y8044D01*
X50683Y8072D01*
X50656Y8096D01*
X50628Y8120D01*
X50624Y8123D01*
X50613Y8129D01*
X50595Y8140D01*
X50571Y8151D01*
X50543Y8160D01*
X50508Y8170D01*
X50469Y8177D01*
X50428Y8179D01*
X50412D01*
X50401Y8177D01*
X50388D01*
X50373Y8175D01*
X50336Y8168D01*
X50295Y8160D01*
X50249Y8144D01*
X50201Y8125D01*
X50155Y8096D01*
X50153D01*
X50151Y8092D01*
X50144Y8088D01*
X50135Y8081D01*
X50116Y8064D01*
X50090Y8038D01*
X50063Y8007D01*
X50035Y7968D01*
X50011Y7924D01*
X49992Y7876D01*
Y7874D01*
X49989Y7870D01*
X49987Y7861D01*
X49985Y7850D01*
X49981Y7835D01*
X49978Y7815D01*
X49974Y7791D01*
X49970Y7763D01*
X49965Y7730D01*
X49961Y7695D01*
X49959Y7654D01*
X49954Y7608D01*
X49952Y7558D01*
X49950Y7501D01*
X49948Y7440D01*
Y7375D01*
Y6387D01*
X49370D01*
Y8574D01*
X49907D01*
Y8251D01*
X49911Y8256D01*
X49920Y8266D01*
X49935Y8286D01*
X49959Y8310D01*
X49987Y8336D01*
X50020Y8369D01*
X50059Y8402D01*
X50105Y8437D01*
X50153Y8471D01*
X50207Y8504D01*
X50268Y8537D01*
X50332Y8563D01*
X50399Y8587D01*
X50471Y8607D01*
X50547Y8617D01*
X50628Y8622D01*
X50661D01*
X50678Y8620D01*
D02*
G37*
G36*
X24625D02*
X24651Y8617D01*
X24684Y8613D01*
X24723Y8607D01*
X24765Y8598D01*
X24813Y8585D01*
X24863Y8569D01*
X24913Y8550D01*
X24967Y8526D01*
X25022Y8495D01*
X25076Y8463D01*
X25131Y8421D01*
X25185Y8375D01*
X25235Y8323D01*
X25238Y8319D01*
X25246Y8310D01*
X25259Y8293D01*
X25277Y8269D01*
X25297Y8238D01*
X25320Y8201D01*
X25344Y8157D01*
X25368Y8107D01*
X25392Y8051D01*
X25416Y7990D01*
X25440Y7920D01*
X25460Y7846D01*
X25477Y7765D01*
X25490Y7680D01*
X25499Y7588D01*
X25501Y7490D01*
Y7488D01*
Y7484D01*
Y7477D01*
Y7466D01*
Y7453D01*
X25499Y7438D01*
Y7421D01*
X25497Y7401D01*
X25493Y7355D01*
X25488Y7301D01*
X25480Y7242D01*
X25469Y7179D01*
X25453Y7111D01*
X25436Y7043D01*
X25414Y6972D01*
X25388Y6902D01*
X25357Y6832D01*
X25323Y6764D01*
X25281Y6699D01*
X25233Y6640D01*
X25231Y6636D01*
X25220Y6627D01*
X25207Y6612D01*
X25185Y6592D01*
X25159Y6570D01*
X25129Y6544D01*
X25091Y6516D01*
X25052Y6490D01*
X25006Y6461D01*
X24956Y6433D01*
X24904Y6407D01*
X24845Y6385D01*
X24786Y6365D01*
X24721Y6350D01*
X24653Y6341D01*
X24584Y6337D01*
X24566D01*
X24553Y6339D01*
X24536D01*
X24518Y6341D01*
X24496Y6344D01*
X24475Y6346D01*
X24422Y6355D01*
X24366Y6368D01*
X24309Y6385D01*
X24252Y6409D01*
X24250D01*
X24246Y6413D01*
X24237Y6418D01*
X24226Y6422D01*
X24213Y6431D01*
X24198Y6442D01*
X24180Y6453D01*
X24159Y6468D01*
X24113Y6501D01*
X24089Y6520D01*
X24060Y6544D01*
X24034Y6568D01*
X24004Y6594D01*
X23975Y6625D01*
X23945Y6655D01*
Y5557D01*
X23367D01*
Y8574D01*
X23906D01*
Y8251D01*
X23908Y8253D01*
X23910Y8258D01*
X23916Y8266D01*
X23925Y8280D01*
X23936Y8293D01*
X23949Y8310D01*
X23962Y8327D01*
X23980Y8347D01*
X24021Y8388D01*
X24069Y8434D01*
X24126Y8478D01*
X24189Y8519D01*
X24191Y8522D01*
X24198Y8524D01*
X24206Y8528D01*
X24219Y8535D01*
X24237Y8543D01*
X24257Y8552D01*
X24281Y8561D01*
X24307Y8572D01*
X24335Y8580D01*
X24366Y8589D01*
X24433Y8607D01*
X24507Y8617D01*
X24546Y8622D01*
X24605D01*
X24625Y8620D01*
D02*
G37*
G36*
X28989Y7996D02*
X28412D01*
Y8574D01*
X28989D01*
Y7996D01*
D02*
G37*
G36*
X42983Y8620D02*
X43020Y8617D01*
X43061Y8613D01*
X43109Y8609D01*
X43162Y8604D01*
X43214Y8596D01*
X43268Y8585D01*
X43325Y8574D01*
X43380Y8558D01*
X43434Y8543D01*
X43484Y8522D01*
X43532Y8500D01*
X43576Y8473D01*
X43578Y8471D01*
X43584Y8467D01*
X43598Y8458D01*
X43611Y8447D01*
X43628Y8430D01*
X43650Y8412D01*
X43672Y8391D01*
X43696Y8365D01*
X43720Y8336D01*
X43746Y8303D01*
X43770Y8269D01*
X43794Y8229D01*
X43818Y8188D01*
X43839Y8142D01*
X43859Y8094D01*
X43877Y8042D01*
X43332Y7942D01*
Y7944D01*
X43329Y7948D01*
X43327Y7955D01*
X43325Y7963D01*
X43314Y7985D01*
X43301Y8014D01*
X43281Y8044D01*
X43260Y8077D01*
X43231Y8107D01*
X43196Y8136D01*
X43192Y8138D01*
X43185Y8142D01*
X43179Y8146D01*
X43168Y8151D01*
X43157Y8157D01*
X43127Y8170D01*
X43087Y8184D01*
X43040Y8195D01*
X42983Y8203D01*
X42920Y8205D01*
X42882D01*
X42863Y8203D01*
X42841Y8201D01*
X42819D01*
X42793Y8197D01*
X42739Y8190D01*
X42684Y8177D01*
X42634Y8162D01*
X42612Y8151D01*
X42593Y8140D01*
X42590Y8138D01*
X42582Y8131D01*
X42573Y8123D01*
X42560Y8110D01*
X42549Y8092D01*
X42538Y8072D01*
X42529Y8048D01*
X42527Y8022D01*
Y8020D01*
Y8011D01*
X42529Y8000D01*
X42534Y7987D01*
X42540Y7970D01*
X42551Y7953D01*
X42564Y7935D01*
X42584Y7918D01*
X42588Y7915D01*
X42595Y7911D01*
X42603Y7907D01*
X42617Y7902D01*
X42634Y7894D01*
X42654Y7885D01*
X42680Y7876D01*
X42713Y7865D01*
X42750Y7854D01*
X42793Y7839D01*
X42843Y7826D01*
X42902Y7811D01*
X42968Y7793D01*
X43040Y7776D01*
X43081Y7765D01*
X43122Y7756D01*
X43124D01*
X43127Y7754D01*
X43133D01*
X43142Y7752D01*
X43166Y7745D01*
X43196Y7737D01*
X43236Y7728D01*
X43279Y7715D01*
X43325Y7702D01*
X43377Y7684D01*
X43482Y7647D01*
X43536Y7626D01*
X43589Y7604D01*
X43641Y7580D01*
X43687Y7554D01*
X43731Y7527D01*
X43768Y7499D01*
X43770Y7497D01*
X43776Y7492D01*
X43785Y7484D01*
X43796Y7471D01*
X43811Y7456D01*
X43826Y7436D01*
X43842Y7414D01*
X43859Y7388D01*
X43877Y7357D01*
X43892Y7327D01*
X43909Y7292D01*
X43922Y7253D01*
X43933Y7211D01*
X43942Y7168D01*
X43949Y7120D01*
X43951Y7070D01*
Y7065D01*
Y7057D01*
X43949Y7041D01*
X43946Y7019D01*
X43942Y6993D01*
X43938Y6963D01*
X43929Y6930D01*
X43920Y6893D01*
X43905Y6854D01*
X43890Y6812D01*
X43868Y6769D01*
X43844Y6725D01*
X43816Y6682D01*
X43781Y6638D01*
X43741Y6594D01*
X43698Y6553D01*
X43696Y6551D01*
X43687Y6544D01*
X43672Y6533D01*
X43652Y6520D01*
X43624Y6503D01*
X43593Y6485D01*
X43554Y6466D01*
X43510Y6446D01*
X43462Y6424D01*
X43406Y6405D01*
X43347Y6387D01*
X43279Y6372D01*
X43207Y6357D01*
X43129Y6346D01*
X43046Y6339D01*
X42957Y6337D01*
X42937D01*
X42913Y6339D01*
X42882D01*
X42845Y6344D01*
X42802Y6346D01*
X42754Y6352D01*
X42702Y6359D01*
X42645Y6370D01*
X42588Y6381D01*
X42529Y6396D01*
X42468Y6413D01*
X42412Y6435D01*
X42353Y6459D01*
X42298Y6485D01*
X42248Y6518D01*
X42246Y6520D01*
X42237Y6527D01*
X42224Y6538D01*
X42207Y6551D01*
X42185Y6570D01*
X42161Y6592D01*
X42137Y6618D01*
X42109Y6647D01*
X42080Y6682D01*
X42052Y6719D01*
X42024Y6758D01*
X41995Y6802D01*
X41971Y6849D01*
X41947Y6900D01*
X41928Y6954D01*
X41910Y7011D01*
X42490Y7100D01*
Y7098D01*
X42492Y7094D01*
X42494Y7085D01*
X42497Y7072D01*
X42501Y7059D01*
X42508Y7041D01*
X42523Y7004D01*
X42542Y6963D01*
X42566Y6919D01*
X42599Y6880D01*
X42638Y6843D01*
X42641D01*
X42643Y6838D01*
X42649Y6834D01*
X42660Y6830D01*
X42671Y6823D01*
X42684Y6814D01*
X42702Y6808D01*
X42721Y6799D01*
X42743Y6791D01*
X42767Y6784D01*
X42793Y6775D01*
X42821Y6769D01*
X42852Y6764D01*
X42885Y6760D01*
X42920Y6756D01*
X42978D01*
X42994Y6758D01*
X43013D01*
X43033Y6760D01*
X43057Y6762D01*
X43083Y6767D01*
X43138Y6775D01*
X43194Y6791D01*
X43247Y6810D01*
X43273Y6823D01*
X43295Y6836D01*
X43299Y6838D01*
X43308Y6847D01*
X43319Y6860D01*
X43334Y6878D01*
X43347Y6900D01*
X43360Y6926D01*
X43369Y6956D01*
X43371Y6991D01*
Y6993D01*
Y7002D01*
X43369Y7015D01*
X43367Y7030D01*
X43360Y7046D01*
X43353Y7065D01*
X43343Y7083D01*
X43329Y7100D01*
X43327Y7102D01*
X43321Y7107D01*
X43308Y7115D01*
X43288Y7126D01*
X43264Y7137D01*
X43229Y7150D01*
X43209Y7157D01*
X43188Y7163D01*
X43162Y7170D01*
X43135Y7176D01*
X43133D01*
X43127Y7179D01*
X43118Y7181D01*
X43105Y7183D01*
X43090Y7187D01*
X43070Y7192D01*
X43048Y7196D01*
X43024Y7203D01*
X42996Y7209D01*
X42968Y7216D01*
X42904Y7233D01*
X42835Y7250D01*
X42763Y7270D01*
X42686Y7290D01*
X42612Y7314D01*
X42538Y7336D01*
X42466Y7360D01*
X42401Y7386D01*
X42340Y7410D01*
X42314Y7421D01*
X42290Y7434D01*
X42268Y7447D01*
X42248Y7458D01*
X42246Y7460D01*
X42237Y7466D01*
X42224Y7475D01*
X42209Y7490D01*
X42189Y7508D01*
X42167Y7530D01*
X42143Y7556D01*
X42120Y7586D01*
X42096Y7619D01*
X42072Y7656D01*
X42050Y7695D01*
X42030Y7741D01*
X42015Y7787D01*
X42002Y7839D01*
X41993Y7894D01*
X41991Y7950D01*
Y7955D01*
Y7963D01*
X41993Y7979D01*
X41995Y7998D01*
X41997Y8022D01*
X42002Y8051D01*
X42011Y8081D01*
X42019Y8116D01*
X42030Y8153D01*
X42045Y8192D01*
X42063Y8231D01*
X42085Y8271D01*
X42111Y8312D01*
X42139Y8351D01*
X42174Y8391D01*
X42213Y8428D01*
X42215Y8430D01*
X42224Y8437D01*
X42237Y8445D01*
X42257Y8458D01*
X42281Y8473D01*
X42309Y8489D01*
X42344Y8506D01*
X42386Y8526D01*
X42431Y8543D01*
X42481Y8561D01*
X42538Y8576D01*
X42601Y8591D01*
X42669Y8604D01*
X42743Y8613D01*
X42824Y8620D01*
X42909Y8622D01*
X42952D01*
X42983Y8620D01*
D02*
G37*
G36*
X26827D02*
X26864Y8617D01*
X26905Y8613D01*
X26953Y8609D01*
X27006Y8604D01*
X27058Y8596D01*
X27112Y8585D01*
X27169Y8574D01*
X27224Y8558D01*
X27278Y8543D01*
X27328Y8522D01*
X27376Y8500D01*
X27420Y8473D01*
X27422Y8471D01*
X27428Y8467D01*
X27442Y8458D01*
X27455Y8447D01*
X27472Y8430D01*
X27494Y8412D01*
X27516Y8391D01*
X27540Y8365D01*
X27564Y8336D01*
X27590Y8303D01*
X27614Y8269D01*
X27638Y8229D01*
X27662Y8188D01*
X27684Y8142D01*
X27703Y8094D01*
X27721Y8042D01*
X27176Y7942D01*
Y7944D01*
X27173Y7948D01*
X27171Y7955D01*
X27169Y7963D01*
X27158Y7985D01*
X27145Y8014D01*
X27125Y8044D01*
X27104Y8077D01*
X27075Y8107D01*
X27040Y8136D01*
X27036Y8138D01*
X27030Y8142D01*
X27023Y8146D01*
X27012Y8151D01*
X27001Y8157D01*
X26971Y8170D01*
X26932Y8184D01*
X26884Y8195D01*
X26827Y8203D01*
X26764Y8205D01*
X26726D01*
X26707Y8203D01*
X26685Y8201D01*
X26663D01*
X26637Y8197D01*
X26583Y8190D01*
X26528Y8177D01*
X26478Y8162D01*
X26456Y8151D01*
X26437Y8140D01*
X26434Y8138D01*
X26426Y8131D01*
X26417Y8123D01*
X26404Y8110D01*
X26393Y8092D01*
X26382Y8072D01*
X26373Y8048D01*
X26371Y8022D01*
Y8020D01*
Y8011D01*
X26373Y8000D01*
X26378Y7987D01*
X26384Y7970D01*
X26395Y7953D01*
X26408Y7935D01*
X26428Y7918D01*
X26432Y7915D01*
X26439Y7911D01*
X26447Y7907D01*
X26461Y7902D01*
X26478Y7894D01*
X26498Y7885D01*
X26524Y7876D01*
X26557Y7865D01*
X26594Y7854D01*
X26637Y7839D01*
X26687Y7826D01*
X26746Y7811D01*
X26812Y7793D01*
X26884Y7776D01*
X26925Y7765D01*
X26966Y7756D01*
X26969D01*
X26971Y7754D01*
X26977D01*
X26986Y7752D01*
X27010Y7745D01*
X27040Y7737D01*
X27080Y7728D01*
X27123Y7715D01*
X27169Y7702D01*
X27221Y7684D01*
X27326Y7647D01*
X27380Y7626D01*
X27433Y7604D01*
X27485Y7580D01*
X27531Y7554D01*
X27575Y7527D01*
X27612Y7499D01*
X27614Y7497D01*
X27620Y7492D01*
X27629Y7484D01*
X27640Y7471D01*
X27655Y7456D01*
X27670Y7436D01*
X27686Y7414D01*
X27703Y7388D01*
X27721Y7357D01*
X27736Y7327D01*
X27753Y7292D01*
X27766Y7253D01*
X27777Y7211D01*
X27786Y7168D01*
X27793Y7120D01*
X27795Y7070D01*
Y7065D01*
Y7057D01*
X27793Y7041D01*
X27790Y7019D01*
X27786Y6993D01*
X27782Y6963D01*
X27773Y6930D01*
X27764Y6893D01*
X27749Y6854D01*
X27734Y6812D01*
X27712Y6769D01*
X27688Y6725D01*
X27660Y6682D01*
X27625Y6638D01*
X27586Y6594D01*
X27542Y6553D01*
X27540Y6551D01*
X27531Y6544D01*
X27516Y6533D01*
X27496Y6520D01*
X27468Y6503D01*
X27437Y6485D01*
X27398Y6466D01*
X27354Y6446D01*
X27306Y6424D01*
X27250Y6405D01*
X27191Y6387D01*
X27123Y6372D01*
X27051Y6357D01*
X26973Y6346D01*
X26890Y6339D01*
X26801Y6337D01*
X26781D01*
X26757Y6339D01*
X26726D01*
X26689Y6344D01*
X26646Y6346D01*
X26598Y6352D01*
X26546Y6359D01*
X26489Y6370D01*
X26432Y6381D01*
X26373Y6396D01*
X26312Y6413D01*
X26256Y6435D01*
X26197Y6459D01*
X26142Y6485D01*
X26092Y6518D01*
X26090Y6520D01*
X26081Y6527D01*
X26068Y6538D01*
X26051Y6551D01*
X26029Y6570D01*
X26005Y6592D01*
X25981Y6618D01*
X25953Y6647D01*
X25924Y6682D01*
X25896Y6719D01*
X25868Y6758D01*
X25839Y6802D01*
X25815Y6849D01*
X25791Y6900D01*
X25772Y6954D01*
X25754Y7011D01*
X26334Y7100D01*
Y7098D01*
X26336Y7094D01*
X26338Y7085D01*
X26341Y7072D01*
X26345Y7059D01*
X26352Y7041D01*
X26367Y7004D01*
X26386Y6963D01*
X26410Y6919D01*
X26443Y6880D01*
X26482Y6843D01*
X26485D01*
X26487Y6838D01*
X26493Y6834D01*
X26504Y6830D01*
X26515Y6823D01*
X26528Y6814D01*
X26546Y6808D01*
X26565Y6799D01*
X26587Y6791D01*
X26611Y6784D01*
X26637Y6775D01*
X26665Y6769D01*
X26696Y6764D01*
X26729Y6760D01*
X26764Y6756D01*
X26823D01*
X26838Y6758D01*
X26857D01*
X26877Y6760D01*
X26901Y6762D01*
X26927Y6767D01*
X26982Y6775D01*
X27038Y6791D01*
X27091Y6810D01*
X27117Y6823D01*
X27139Y6836D01*
X27143Y6838D01*
X27152Y6847D01*
X27163Y6860D01*
X27178Y6878D01*
X27191Y6900D01*
X27204Y6926D01*
X27213Y6956D01*
X27215Y6991D01*
Y6993D01*
Y7002D01*
X27213Y7015D01*
X27211Y7030D01*
X27204Y7046D01*
X27197Y7065D01*
X27187Y7083D01*
X27173Y7100D01*
X27171Y7102D01*
X27165Y7107D01*
X27152Y7115D01*
X27132Y7126D01*
X27108Y7137D01*
X27073Y7150D01*
X27053Y7157D01*
X27032Y7163D01*
X27006Y7170D01*
X26979Y7176D01*
X26977D01*
X26971Y7179D01*
X26962Y7181D01*
X26949Y7183D01*
X26934Y7187D01*
X26914Y7192D01*
X26892Y7196D01*
X26868Y7203D01*
X26840Y7209D01*
X26812Y7216D01*
X26748Y7233D01*
X26679Y7250D01*
X26607Y7270D01*
X26530Y7290D01*
X26456Y7314D01*
X26382Y7336D01*
X26310Y7360D01*
X26245Y7386D01*
X26184Y7410D01*
X26158Y7421D01*
X26134Y7434D01*
X26112Y7447D01*
X26092Y7458D01*
X26090Y7460D01*
X26081Y7466D01*
X26068Y7475D01*
X26053Y7490D01*
X26033Y7508D01*
X26011Y7530D01*
X25987Y7556D01*
X25964Y7586D01*
X25940Y7619D01*
X25916Y7656D01*
X25894Y7695D01*
X25874Y7741D01*
X25859Y7787D01*
X25846Y7839D01*
X25837Y7894D01*
X25835Y7950D01*
Y7955D01*
Y7963D01*
X25837Y7979D01*
X25839Y7998D01*
X25842Y8022D01*
X25846Y8051D01*
X25855Y8081D01*
X25863Y8116D01*
X25874Y8153D01*
X25889Y8192D01*
X25907Y8231D01*
X25929Y8271D01*
X25955Y8312D01*
X25983Y8351D01*
X26018Y8391D01*
X26057Y8428D01*
X26059Y8430D01*
X26068Y8437D01*
X26081Y8445D01*
X26101Y8458D01*
X26125Y8473D01*
X26153Y8489D01*
X26188Y8506D01*
X26230Y8526D01*
X26275Y8543D01*
X26325Y8561D01*
X26382Y8576D01*
X26445Y8591D01*
X26513Y8604D01*
X26587Y8613D01*
X26668Y8620D01*
X26753Y8622D01*
X26796D01*
X26827Y8620D01*
D02*
G37*
G36*
X48030D02*
X48064Y8617D01*
X48104Y8613D01*
X48147Y8607D01*
X48193Y8600D01*
X48243Y8591D01*
X48293Y8580D01*
X48348Y8565D01*
X48400Y8548D01*
X48452Y8528D01*
X48505Y8504D01*
X48553Y8478D01*
X48599Y8447D01*
X48601Y8445D01*
X48609Y8439D01*
X48620Y8430D01*
X48638Y8415D01*
X48657Y8397D01*
X48679Y8375D01*
X48703Y8347D01*
X48729Y8317D01*
X48758Y8284D01*
X48786Y8245D01*
X48814Y8201D01*
X48840Y8153D01*
X48869Y8103D01*
X48895Y8048D01*
X48917Y7987D01*
X48939Y7924D01*
X48370Y7822D01*
Y7824D01*
X48367Y7828D01*
X48365Y7837D01*
X48363Y7850D01*
X48359Y7863D01*
X48354Y7881D01*
X48341Y7918D01*
X48324Y7959D01*
X48300Y8003D01*
X48272Y8042D01*
X48237Y8079D01*
X48234D01*
X48232Y8083D01*
X48226Y8088D01*
X48219Y8092D01*
X48195Y8107D01*
X48165Y8123D01*
X48128Y8138D01*
X48082Y8153D01*
X48030Y8162D01*
X47973Y8166D01*
X47951D01*
X47936Y8164D01*
X47918Y8162D01*
X47897Y8157D01*
X47872Y8153D01*
X47849Y8146D01*
X47820Y8140D01*
X47792Y8129D01*
X47763Y8118D01*
X47735Y8103D01*
X47707Y8085D01*
X47679Y8066D01*
X47652Y8042D01*
X47626Y8016D01*
X47624Y8014D01*
X47620Y8009D01*
X47615Y8000D01*
X47607Y7987D01*
X47596Y7970D01*
X47585Y7950D01*
X47574Y7926D01*
X47563Y7898D01*
X47550Y7865D01*
X47539Y7828D01*
X47528Y7787D01*
X47517Y7743D01*
X47508Y7693D01*
X47504Y7639D01*
X47500Y7580D01*
X47498Y7517D01*
Y7512D01*
Y7499D01*
Y7479D01*
X47500Y7453D01*
X47502Y7421D01*
X47504Y7386D01*
X47508Y7344D01*
X47515Y7303D01*
X47530Y7211D01*
X47541Y7165D01*
X47552Y7122D01*
X47567Y7078D01*
X47585Y7037D01*
X47604Y7000D01*
X47628Y6967D01*
X47631Y6965D01*
X47635Y6961D01*
X47642Y6952D01*
X47652Y6943D01*
X47665Y6930D01*
X47681Y6917D01*
X47700Y6902D01*
X47722Y6889D01*
X47746Y6873D01*
X47772Y6858D01*
X47801Y6845D01*
X47831Y6832D01*
X47866Y6823D01*
X47901Y6814D01*
X47940Y6810D01*
X47979Y6808D01*
X47995D01*
X48008Y6810D01*
X48021D01*
X48036Y6812D01*
X48075Y6819D01*
X48117Y6832D01*
X48162Y6847D01*
X48206Y6871D01*
X48228Y6884D01*
X48248Y6902D01*
X48250Y6904D01*
X48252Y6906D01*
X48258Y6913D01*
X48265Y6919D01*
X48274Y6930D01*
X48285Y6943D01*
X48296Y6958D01*
X48306Y6978D01*
X48319Y6998D01*
X48330Y7022D01*
X48343Y7048D01*
X48357Y7078D01*
X48367Y7109D01*
X48378Y7146D01*
X48389Y7183D01*
X48398Y7224D01*
X48967Y7129D01*
Y7124D01*
X48963Y7111D01*
X48956Y7091D01*
X48950Y7063D01*
X48939Y7030D01*
X48926Y6993D01*
X48910Y6952D01*
X48891Y6908D01*
X48869Y6860D01*
X48845Y6812D01*
X48816Y6762D01*
X48786Y6712D01*
X48751Y6664D01*
X48714Y6618D01*
X48673Y6575D01*
X48627Y6536D01*
X48625Y6533D01*
X48616Y6527D01*
X48601Y6518D01*
X48581Y6505D01*
X48555Y6490D01*
X48524Y6472D01*
X48489Y6455D01*
X48448Y6437D01*
X48402Y6418D01*
X48352Y6400D01*
X48298Y6383D01*
X48237Y6368D01*
X48173Y6355D01*
X48104Y6346D01*
X48030Y6339D01*
X47953Y6337D01*
X47931D01*
X47921Y6339D01*
X47907D01*
X47875Y6341D01*
X47833Y6346D01*
X47787Y6352D01*
X47735Y6363D01*
X47679Y6374D01*
X47618Y6392D01*
X47556Y6411D01*
X47491Y6435D01*
X47428Y6464D01*
X47365Y6498D01*
X47304Y6538D01*
X47245Y6586D01*
X47188Y6638D01*
X47186Y6642D01*
X47175Y6651D01*
X47162Y6668D01*
X47144Y6695D01*
X47123Y6725D01*
X47099Y6762D01*
X47072Y6806D01*
X47046Y6856D01*
X47020Y6913D01*
X46994Y6976D01*
X46970Y7046D01*
X46948Y7120D01*
X46931Y7200D01*
X46918Y7288D01*
X46907Y7379D01*
X46905Y7477D01*
Y7479D01*
Y7484D01*
Y7490D01*
Y7501D01*
X46907Y7514D01*
Y7530D01*
Y7547D01*
X46909Y7567D01*
X46913Y7612D01*
X46920Y7665D01*
X46929Y7721D01*
X46940Y7785D01*
X46955Y7852D01*
X46974Y7920D01*
X46998Y7990D01*
X47025Y8061D01*
X47057Y8129D01*
X47096Y8197D01*
X47140Y8260D01*
X47190Y8319D01*
X47195Y8323D01*
X47203Y8332D01*
X47221Y8347D01*
X47243Y8367D01*
X47271Y8388D01*
X47306Y8415D01*
X47347Y8443D01*
X47395Y8471D01*
X47447Y8497D01*
X47504Y8526D01*
X47567Y8552D01*
X47637Y8574D01*
X47711Y8593D01*
X47790Y8609D01*
X47875Y8617D01*
X47964Y8622D01*
X48003D01*
X48030Y8620D01*
D02*
G37*
G36*
X46440Y6387D02*
X45863D01*
Y6965D01*
X46440D01*
Y6387D01*
D02*
G37*
G36*
X37541Y8293D02*
X37546Y8297D01*
X37555Y8308D01*
X37570Y8323D01*
X37592Y8345D01*
X37618Y8369D01*
X37650Y8397D01*
X37688Y8426D01*
X37729Y8458D01*
X37777Y8489D01*
X37827Y8517D01*
X37884Y8546D01*
X37943Y8569D01*
X38004Y8591D01*
X38069Y8609D01*
X38139Y8617D01*
X38211Y8622D01*
X38243D01*
X38261Y8620D01*
X38283Y8617D01*
X38304Y8615D01*
X38331Y8613D01*
X38385Y8604D01*
X38446Y8591D01*
X38507Y8572D01*
X38568Y8548D01*
X38570D01*
X38575Y8543D01*
X38584Y8541D01*
X38594Y8535D01*
X38607Y8528D01*
X38623Y8517D01*
X38660Y8495D01*
X38699Y8469D01*
X38738Y8437D01*
X38778Y8399D01*
X38810Y8358D01*
Y8356D01*
X38815Y8354D01*
X38819Y8347D01*
X38823Y8338D01*
X38830Y8327D01*
X38839Y8314D01*
X38856Y8282D01*
X38873Y8245D01*
X38893Y8201D01*
X38911Y8153D01*
X38924Y8101D01*
Y8099D01*
X38926Y8094D01*
Y8085D01*
X38928Y8075D01*
X38930Y8059D01*
X38932Y8042D01*
X38937Y8020D01*
X38939Y7994D01*
X38941Y7966D01*
X38945Y7935D01*
X38948Y7898D01*
X38950Y7861D01*
X38952Y7817D01*
Y7772D01*
X38954Y7721D01*
Y7669D01*
Y6387D01*
X38377D01*
Y7541D01*
Y7545D01*
Y7556D01*
Y7573D01*
Y7595D01*
Y7623D01*
X38374Y7654D01*
Y7689D01*
X38372Y7724D01*
X38368Y7798D01*
X38366Y7835D01*
X38361Y7870D01*
X38357Y7902D01*
X38353Y7931D01*
X38348Y7957D01*
X38342Y7976D01*
X38339Y7981D01*
X38335Y7992D01*
X38326Y8009D01*
X38315Y8029D01*
X38300Y8053D01*
X38278Y8077D01*
X38254Y8101D01*
X38226Y8123D01*
X38222Y8125D01*
X38211Y8131D01*
X38193Y8140D01*
X38169Y8151D01*
X38139Y8162D01*
X38104Y8170D01*
X38063Y8177D01*
X38017Y8179D01*
X37993D01*
X37980Y8177D01*
X37964Y8175D01*
X37932Y8170D01*
X37890Y8162D01*
X37847Y8149D01*
X37803Y8131D01*
X37760Y8107D01*
X37757D01*
X37755Y8105D01*
X37742Y8094D01*
X37720Y8077D01*
X37696Y8055D01*
X37670Y8024D01*
X37642Y7990D01*
X37616Y7946D01*
X37594Y7896D01*
Y7894D01*
X37592Y7889D01*
X37589Y7881D01*
X37585Y7870D01*
X37581Y7854D01*
X37576Y7837D01*
X37572Y7815D01*
X37568Y7791D01*
X37563Y7765D01*
X37559Y7734D01*
X37555Y7700D01*
X37550Y7663D01*
X37546Y7621D01*
X37544Y7577D01*
X37541Y7532D01*
Y7482D01*
Y6387D01*
X36964D01*
Y9404D01*
X37541D01*
Y8293D01*
D02*
G37*
G36*
X32966Y8620D02*
X32998D01*
X33035Y8617D01*
X33077Y8615D01*
X33121Y8611D01*
X33166Y8607D01*
X33214Y8600D01*
X33310Y8583D01*
X33356Y8574D01*
X33402Y8561D01*
X33443Y8546D01*
X33480Y8530D01*
X33482D01*
X33489Y8526D01*
X33498Y8522D01*
X33511Y8513D01*
X33526Y8504D01*
X33543Y8493D01*
X33585Y8467D01*
X33628Y8432D01*
X33672Y8393D01*
X33713Y8347D01*
X33731Y8323D01*
X33746Y8297D01*
Y8295D01*
X33751Y8290D01*
X33753Y8282D01*
X33759Y8269D01*
X33764Y8253D01*
X33770Y8231D01*
X33779Y8208D01*
X33785Y8179D01*
X33792Y8146D01*
X33801Y8107D01*
X33807Y8066D01*
X33812Y8018D01*
X33818Y7966D01*
X33820Y7909D01*
X33825Y7846D01*
Y7778D01*
X33816Y7104D01*
Y7102D01*
Y7091D01*
Y7076D01*
Y7057D01*
Y7033D01*
X33818Y7006D01*
Y6976D01*
X33820Y6943D01*
X33822Y6873D01*
X33827Y6804D01*
X33829Y6769D01*
X33833Y6736D01*
X33838Y6708D01*
X33842Y6679D01*
Y6677D01*
X33844Y6673D01*
Y6666D01*
X33849Y6655D01*
X33851Y6642D01*
X33855Y6627D01*
X33866Y6592D01*
X33879Y6549D01*
X33899Y6498D01*
X33920Y6444D01*
X33947Y6387D01*
X33375D01*
Y6389D01*
X33371Y6398D01*
X33367Y6411D01*
X33360Y6431D01*
X33352Y6455D01*
X33341Y6483D01*
X33330Y6518D01*
X33319Y6557D01*
Y6560D01*
X33317Y6566D01*
X33314Y6575D01*
X33310Y6586D01*
X33304Y6607D01*
X33301Y6616D01*
X33299Y6625D01*
X33297Y6623D01*
X33293Y6618D01*
X33284Y6612D01*
X33273Y6601D01*
X33260Y6590D01*
X33243Y6575D01*
X33225Y6560D01*
X33203Y6544D01*
X33158Y6509D01*
X33103Y6472D01*
X33044Y6440D01*
X32981Y6409D01*
X32979D01*
X32974Y6407D01*
X32963Y6402D01*
X32953Y6398D01*
X32935Y6392D01*
X32918Y6387D01*
X32896Y6381D01*
X32874Y6374D01*
X32848Y6365D01*
X32820Y6359D01*
X32759Y6348D01*
X32691Y6339D01*
X32621Y6337D01*
X32606D01*
X32589Y6339D01*
X32565D01*
X32536Y6344D01*
X32504Y6346D01*
X32469Y6352D01*
X32427Y6361D01*
X32386Y6370D01*
X32342Y6383D01*
X32299Y6396D01*
X32255Y6413D01*
X32211Y6435D01*
X32168Y6459D01*
X32126Y6487D01*
X32089Y6520D01*
X32087Y6522D01*
X32081Y6529D01*
X32072Y6540D01*
X32059Y6553D01*
X32044Y6570D01*
X32028Y6592D01*
X32011Y6618D01*
X31993Y6647D01*
X31974Y6679D01*
X31956Y6714D01*
X31941Y6751D01*
X31926Y6793D01*
X31913Y6836D01*
X31904Y6882D01*
X31898Y6932D01*
X31895Y6982D01*
Y6985D01*
Y6991D01*
Y7000D01*
X31898Y7013D01*
Y7030D01*
X31900Y7048D01*
X31902Y7070D01*
X31906Y7094D01*
X31917Y7144D01*
X31932Y7200D01*
X31954Y7257D01*
X31982Y7312D01*
X31985Y7314D01*
X31987Y7318D01*
X31991Y7325D01*
X32000Y7336D01*
X32020Y7362D01*
X32048Y7394D01*
X32083Y7429D01*
X32124Y7466D01*
X32174Y7503D01*
X32231Y7534D01*
X32233D01*
X32238Y7538D01*
X32248Y7543D01*
X32262Y7547D01*
X32277Y7554D01*
X32296Y7562D01*
X32320Y7571D01*
X32349Y7580D01*
X32379Y7591D01*
X32414Y7602D01*
X32451Y7612D01*
X32493Y7623D01*
X32536Y7636D01*
X32584Y7647D01*
X32636Y7658D01*
X32691Y7669D01*
X32695D01*
X32708Y7673D01*
X32730Y7676D01*
X32756Y7682D01*
X32789Y7689D01*
X32828Y7697D01*
X32870Y7706D01*
X32913Y7715D01*
X33007Y7739D01*
X33099Y7763D01*
X33142Y7774D01*
X33184Y7787D01*
X33221Y7800D01*
X33253Y7813D01*
Y7870D01*
Y7872D01*
Y7876D01*
Y7885D01*
X33251Y7896D01*
Y7911D01*
X33249Y7926D01*
X33243Y7961D01*
X33234Y8000D01*
X33219Y8040D01*
X33199Y8077D01*
X33186Y8092D01*
X33171Y8107D01*
X33166Y8110D01*
X33162Y8114D01*
X33153Y8118D01*
X33145Y8125D01*
X33131Y8129D01*
X33118Y8136D01*
X33101Y8144D01*
X33081Y8151D01*
X33057Y8157D01*
X33033Y8162D01*
X33005Y8168D01*
X32972Y8173D01*
X32937Y8177D01*
X32900Y8179D01*
X32833D01*
X32820Y8177D01*
X32804D01*
X32772Y8173D01*
X32732Y8164D01*
X32691Y8153D01*
X32652Y8138D01*
X32617Y8118D01*
X32612Y8116D01*
X32604Y8107D01*
X32586Y8090D01*
X32569Y8068D01*
X32547Y8040D01*
X32523Y8003D01*
X32501Y7957D01*
X32480Y7904D01*
X31954Y7998D01*
X31956Y8003D01*
X31958Y8011D01*
X31963Y8029D01*
X31972Y8051D01*
X31980Y8077D01*
X31993Y8107D01*
X32009Y8140D01*
X32024Y8175D01*
X32044Y8214D01*
X32067Y8251D01*
X32092Y8290D01*
X32120Y8330D01*
X32148Y8367D01*
X32183Y8404D01*
X32218Y8437D01*
X32257Y8467D01*
X32259Y8469D01*
X32268Y8473D01*
X32281Y8482D01*
X32299Y8491D01*
X32320Y8502D01*
X32349Y8515D01*
X32381Y8530D01*
X32421Y8546D01*
X32462Y8558D01*
X32510Y8574D01*
X32565Y8587D01*
X32621Y8598D01*
X32684Y8607D01*
X32752Y8615D01*
X32824Y8620D01*
X32903Y8622D01*
X32939D01*
X32966Y8620D01*
D02*
G37*
G36*
X28989Y6387D02*
X28412D01*
Y6965D01*
X28989D01*
Y6387D01*
D02*
G37*
G36*
X18578Y8293D02*
X18582Y8297D01*
X18591Y8308D01*
X18606Y8323D01*
X18628Y8345D01*
X18654Y8369D01*
X18687Y8397D01*
X18724Y8426D01*
X18765Y8458D01*
X18813Y8489D01*
X18863Y8517D01*
X18920Y8546D01*
X18979Y8569D01*
X19040Y8591D01*
X19105Y8609D01*
X19175Y8617D01*
X19247Y8622D01*
X19280D01*
X19297Y8620D01*
X19319Y8617D01*
X19341Y8615D01*
X19367Y8613D01*
X19421Y8604D01*
X19482Y8591D01*
X19543Y8572D01*
X19604Y8548D01*
X19607D01*
X19611Y8543D01*
X19620Y8541D01*
X19631Y8535D01*
X19644Y8528D01*
X19659Y8517D01*
X19696Y8495D01*
X19735Y8469D01*
X19774Y8437D01*
X19814Y8399D01*
X19847Y8358D01*
Y8356D01*
X19851Y8354D01*
X19855Y8347D01*
X19860Y8338D01*
X19866Y8327D01*
X19875Y8314D01*
X19892Y8282D01*
X19910Y8245D01*
X19929Y8201D01*
X19947Y8153D01*
X19960Y8101D01*
Y8099D01*
X19962Y8094D01*
Y8085D01*
X19964Y8075D01*
X19966Y8059D01*
X19969Y8042D01*
X19973Y8020D01*
X19975Y7994D01*
X19977Y7966D01*
X19982Y7935D01*
X19984Y7898D01*
X19986Y7861D01*
X19988Y7817D01*
Y7772D01*
X19990Y7721D01*
Y7669D01*
Y6387D01*
X19413D01*
Y7541D01*
Y7545D01*
Y7556D01*
Y7573D01*
Y7595D01*
Y7623D01*
X19410Y7654D01*
Y7689D01*
X19408Y7724D01*
X19404Y7798D01*
X19402Y7835D01*
X19397Y7870D01*
X19393Y7902D01*
X19389Y7931D01*
X19384Y7957D01*
X19378Y7976D01*
X19376Y7981D01*
X19371Y7992D01*
X19363Y8009D01*
X19352Y8029D01*
X19336Y8053D01*
X19315Y8077D01*
X19291Y8101D01*
X19262Y8123D01*
X19258Y8125D01*
X19247Y8131D01*
X19229Y8140D01*
X19206Y8151D01*
X19175Y8162D01*
X19140Y8170D01*
X19099Y8177D01*
X19053Y8179D01*
X19029D01*
X19016Y8177D01*
X19001Y8175D01*
X18968Y8170D01*
X18926Y8162D01*
X18883Y8149D01*
X18839Y8131D01*
X18796Y8107D01*
X18793D01*
X18791Y8105D01*
X18778Y8094D01*
X18756Y8077D01*
X18733Y8055D01*
X18706Y8024D01*
X18678Y7990D01*
X18652Y7946D01*
X18630Y7896D01*
Y7894D01*
X18628Y7889D01*
X18626Y7881D01*
X18621Y7870D01*
X18617Y7854D01*
X18613Y7837D01*
X18608Y7815D01*
X18604Y7791D01*
X18599Y7765D01*
X18595Y7734D01*
X18591Y7700D01*
X18586Y7663D01*
X18582Y7621D01*
X18580Y7577D01*
X18578Y7532D01*
Y7482D01*
Y6387D01*
X18000D01*
Y9404D01*
X18578D01*
Y8293D01*
D02*
G37*
G36*
X45063Y8574D02*
X45457D01*
Y8114D01*
X45063D01*
Y7231D01*
Y7229D01*
Y7220D01*
Y7207D01*
Y7187D01*
Y7168D01*
Y7144D01*
X45065Y7091D01*
Y7037D01*
X45067Y7011D01*
Y6985D01*
X45069Y6963D01*
Y6943D01*
X45071Y6928D01*
X45073Y6917D01*
Y6915D01*
X45076Y6910D01*
X45080Y6902D01*
X45084Y6891D01*
X45091Y6880D01*
X45100Y6869D01*
X45110Y6856D01*
X45124Y6845D01*
X45126Y6843D01*
X45130Y6841D01*
X45139Y6836D01*
X45152Y6832D01*
X45165Y6825D01*
X45182Y6821D01*
X45202Y6819D01*
X45222Y6817D01*
X45237D01*
X45254Y6819D01*
X45281Y6823D01*
X45313Y6830D01*
X45355Y6841D01*
X45400Y6854D01*
X45455Y6871D01*
X45505Y6422D01*
X45503D01*
X45496Y6418D01*
X45485Y6413D01*
X45470Y6409D01*
X45451Y6402D01*
X45427Y6396D01*
X45400Y6387D01*
X45372Y6381D01*
X45339Y6372D01*
X45305Y6363D01*
X45267Y6357D01*
X45226Y6350D01*
X45141Y6341D01*
X45047Y6337D01*
X45021D01*
X45008Y6339D01*
X44993D01*
X44954Y6344D01*
X44910Y6350D01*
X44864Y6359D01*
X44814Y6372D01*
X44766Y6389D01*
X44764D01*
X44762Y6392D01*
X44755Y6394D01*
X44746Y6398D01*
X44725Y6411D01*
X44696Y6426D01*
X44666Y6446D01*
X44637Y6468D01*
X44607Y6494D01*
X44583Y6525D01*
X44581Y6529D01*
X44574Y6540D01*
X44563Y6560D01*
X44550Y6583D01*
X44537Y6616D01*
X44524Y6655D01*
X44511Y6701D01*
X44502Y6751D01*
Y6753D01*
Y6756D01*
X44500Y6762D01*
Y6771D01*
X44498Y6784D01*
Y6799D01*
X44496Y6819D01*
X44493Y6841D01*
X44491Y6865D01*
Y6895D01*
X44489Y6928D01*
X44487Y6965D01*
Y7006D01*
X44485Y7054D01*
Y7104D01*
Y7159D01*
Y8114D01*
X44219D01*
Y8574D01*
X44485D01*
Y9008D01*
X45063Y9348D01*
Y8574D01*
D02*
G37*
G36*
X40565Y8620D02*
X40578D01*
X40613Y8617D01*
X40655Y8613D01*
X40705Y8604D01*
X40759Y8596D01*
X40818Y8583D01*
X40881Y8565D01*
X40947Y8543D01*
X41014Y8517D01*
X41084Y8487D01*
X41152Y8450D01*
X41217Y8406D01*
X41282Y8356D01*
X41343Y8299D01*
X41348Y8295D01*
X41357Y8284D01*
X41374Y8266D01*
X41394Y8240D01*
X41418Y8210D01*
X41444Y8170D01*
X41472Y8127D01*
X41503Y8077D01*
X41533Y8020D01*
X41561Y7959D01*
X41588Y7891D01*
X41612Y7819D01*
X41633Y7741D01*
X41649Y7660D01*
X41657Y7573D01*
X41662Y7484D01*
Y7482D01*
Y7477D01*
Y7471D01*
Y7462D01*
X41660Y7451D01*
Y7436D01*
X41657Y7401D01*
X41653Y7360D01*
X41644Y7309D01*
X41636Y7255D01*
X41622Y7196D01*
X41605Y7133D01*
X41583Y7065D01*
X41557Y6998D01*
X41527Y6928D01*
X41489Y6860D01*
X41448Y6791D01*
X41398Y6725D01*
X41341Y6662D01*
X41337Y6658D01*
X41326Y6649D01*
X41309Y6631D01*
X41285Y6612D01*
X41252Y6586D01*
X41215Y6560D01*
X41171Y6529D01*
X41121Y6501D01*
X41064Y6470D01*
X41003Y6440D01*
X40938Y6413D01*
X40866Y6387D01*
X40790Y6368D01*
X40709Y6350D01*
X40624Y6341D01*
X40535Y6337D01*
X40504D01*
X40484Y6339D01*
X40456Y6341D01*
X40426Y6344D01*
X40389Y6348D01*
X40349Y6355D01*
X40308Y6361D01*
X40262Y6370D01*
X40214Y6381D01*
X40166Y6394D01*
X40116Y6409D01*
X40064Y6429D01*
X40014Y6448D01*
X39961Y6472D01*
X39959Y6475D01*
X39950Y6479D01*
X39935Y6487D01*
X39915Y6498D01*
X39894Y6511D01*
X39868Y6529D01*
X39839Y6549D01*
X39807Y6573D01*
X39774Y6599D01*
X39741Y6629D01*
X39706Y6662D01*
X39671Y6697D01*
X39639Y6736D01*
X39606Y6778D01*
X39575Y6821D01*
X39547Y6869D01*
X39545Y6871D01*
X39541Y6882D01*
X39534Y6895D01*
X39525Y6917D01*
X39514Y6941D01*
X39501Y6972D01*
X39490Y7009D01*
X39477Y7048D01*
X39462Y7094D01*
X39451Y7141D01*
X39438Y7194D01*
X39427Y7250D01*
X39419Y7312D01*
X39412Y7375D01*
X39408Y7440D01*
X39405Y7510D01*
Y7514D01*
Y7523D01*
Y7538D01*
X39408Y7560D01*
X39410Y7584D01*
X39412Y7615D01*
X39416Y7649D01*
X39423Y7687D01*
X39432Y7728D01*
X39440Y7772D01*
X39451Y7817D01*
X39464Y7865D01*
X39482Y7915D01*
X39501Y7966D01*
X39523Y8016D01*
X39547Y8066D01*
X39549Y8068D01*
X39554Y8077D01*
X39562Y8092D01*
X39573Y8110D01*
X39588Y8133D01*
X39606Y8160D01*
X39626Y8188D01*
X39650Y8219D01*
X39678Y8251D01*
X39708Y8286D01*
X39741Y8319D01*
X39776Y8354D01*
X39815Y8386D01*
X39857Y8419D01*
X39900Y8450D01*
X39948Y8478D01*
X39950Y8480D01*
X39959Y8484D01*
X39974Y8491D01*
X39994Y8500D01*
X40018Y8511D01*
X40049Y8524D01*
X40081Y8537D01*
X40118Y8550D01*
X40160Y8563D01*
X40205Y8576D01*
X40253Y8589D01*
X40304Y8600D01*
X40358Y8609D01*
X40413Y8615D01*
X40471Y8620D01*
X40530Y8622D01*
X40552D01*
X40565Y8620D01*
D02*
G37*
G36*
X22584Y8574D02*
X22979D01*
Y8114D01*
X22584D01*
Y7231D01*
Y7229D01*
Y7220D01*
Y7207D01*
Y7187D01*
Y7168D01*
Y7144D01*
X22587Y7091D01*
Y7037D01*
X22589Y7011D01*
Y6985D01*
X22591Y6963D01*
Y6943D01*
X22593Y6928D01*
X22595Y6917D01*
Y6915D01*
X22598Y6910D01*
X22602Y6902D01*
X22606Y6891D01*
X22613Y6880D01*
X22622Y6869D01*
X22633Y6856D01*
X22646Y6845D01*
X22648Y6843D01*
X22652Y6841D01*
X22661Y6836D01*
X22674Y6832D01*
X22687Y6825D01*
X22704Y6821D01*
X22724Y6819D01*
X22744Y6817D01*
X22759D01*
X22776Y6819D01*
X22803Y6823D01*
X22835Y6830D01*
X22877Y6841D01*
X22922Y6854D01*
X22977Y6871D01*
X23027Y6422D01*
X23025D01*
X23018Y6418D01*
X23008Y6413D01*
X22992Y6409D01*
X22973Y6402D01*
X22949Y6396D01*
X22922Y6387D01*
X22894Y6381D01*
X22861Y6372D01*
X22827Y6363D01*
X22790Y6357D01*
X22748Y6350D01*
X22663Y6341D01*
X22569Y6337D01*
X22543D01*
X22530Y6339D01*
X22515D01*
X22476Y6344D01*
X22432Y6350D01*
X22386Y6359D01*
X22336Y6372D01*
X22288Y6389D01*
X22286D01*
X22284Y6392D01*
X22277Y6394D01*
X22268Y6398D01*
X22247Y6411D01*
X22218Y6426D01*
X22188Y6446D01*
X22159Y6468D01*
X22129Y6494D01*
X22105Y6525D01*
X22103Y6529D01*
X22096Y6540D01*
X22085Y6560D01*
X22072Y6583D01*
X22059Y6616D01*
X22046Y6655D01*
X22033Y6701D01*
X22024Y6751D01*
Y6753D01*
Y6756D01*
X22022Y6762D01*
Y6771D01*
X22020Y6784D01*
Y6799D01*
X22018Y6819D01*
X22016Y6841D01*
X22013Y6865D01*
Y6895D01*
X22011Y6928D01*
X22009Y6965D01*
Y7006D01*
X22007Y7054D01*
Y7104D01*
Y7159D01*
Y8114D01*
X21741D01*
Y8574D01*
X22007D01*
Y9008D01*
X22584Y9348D01*
Y8574D01*
D02*
G37*
G36*
X21181D02*
X21575D01*
Y8114D01*
X21181D01*
Y7231D01*
Y7229D01*
Y7220D01*
Y7207D01*
Y7187D01*
Y7168D01*
Y7144D01*
X21183Y7091D01*
Y7037D01*
X21185Y7011D01*
Y6985D01*
X21187Y6963D01*
Y6943D01*
X21189Y6928D01*
X21192Y6917D01*
Y6915D01*
X21194Y6910D01*
X21198Y6902D01*
X21202Y6891D01*
X21209Y6880D01*
X21218Y6869D01*
X21229Y6856D01*
X21242Y6845D01*
X21244Y6843D01*
X21248Y6841D01*
X21257Y6836D01*
X21270Y6832D01*
X21283Y6825D01*
X21301Y6821D01*
X21320Y6819D01*
X21340Y6817D01*
X21355D01*
X21373Y6819D01*
X21399Y6823D01*
X21431Y6830D01*
X21473Y6841D01*
X21519Y6854D01*
X21573Y6871D01*
X21623Y6422D01*
X21621D01*
X21614Y6418D01*
X21603Y6413D01*
X21588Y6409D01*
X21569Y6402D01*
X21545Y6396D01*
X21519Y6387D01*
X21490Y6381D01*
X21457Y6372D01*
X21423Y6363D01*
X21385Y6357D01*
X21344Y6350D01*
X21259Y6341D01*
X21165Y6337D01*
X21139D01*
X21126Y6339D01*
X21111D01*
X21072Y6344D01*
X21028Y6350D01*
X20982Y6359D01*
X20932Y6372D01*
X20884Y6389D01*
X20882D01*
X20880Y6392D01*
X20873Y6394D01*
X20865Y6398D01*
X20843Y6411D01*
X20814Y6426D01*
X20784Y6446D01*
X20755Y6468D01*
X20725Y6494D01*
X20701Y6525D01*
X20699Y6529D01*
X20692Y6540D01*
X20681Y6560D01*
X20668Y6583D01*
X20655Y6616D01*
X20642Y6655D01*
X20629Y6701D01*
X20620Y6751D01*
Y6753D01*
Y6756D01*
X20618Y6762D01*
Y6771D01*
X20616Y6784D01*
Y6799D01*
X20614Y6819D01*
X20612Y6841D01*
X20609Y6865D01*
Y6895D01*
X20607Y6928D01*
X20605Y6965D01*
Y7006D01*
X20603Y7054D01*
Y7104D01*
Y7159D01*
Y8114D01*
X20337D01*
Y8574D01*
X20603D01*
Y9008D01*
X21181Y9348D01*
Y8574D01*
D02*
G37*
G36*
X30993Y6335D02*
X30566D01*
X31313Y9454D01*
X31749D01*
X30993Y6335D01*
D02*
G37*
G36*
X29822D02*
X29395D01*
X30143Y9454D01*
X30579D01*
X29822Y6335D01*
D02*
G37*
G36*
X35222Y8620D02*
X35250Y8615D01*
X35285Y8611D01*
X35324Y8602D01*
X35370Y8591D01*
X35418Y8578D01*
X35471Y8558D01*
X35525Y8535D01*
X35579Y8506D01*
X35636Y8471D01*
X35693Y8430D01*
X35747Y8382D01*
X35802Y8327D01*
X35852Y8264D01*
Y8574D01*
X36393D01*
Y6610D01*
Y6605D01*
Y6592D01*
Y6573D01*
Y6546D01*
X36391Y6516D01*
X36388Y6479D01*
Y6437D01*
X36384Y6394D01*
X36382Y6348D01*
X36377Y6300D01*
X36364Y6204D01*
X36358Y6158D01*
X36349Y6115D01*
X36338Y6071D01*
X36327Y6034D01*
Y6032D01*
X36325Y6025D01*
X36321Y6017D01*
X36316Y6004D01*
X36310Y5986D01*
X36301Y5969D01*
X36281Y5925D01*
X36255Y5877D01*
X36225Y5827D01*
X36190Y5777D01*
X36149Y5733D01*
X36146Y5731D01*
X36144Y5729D01*
X36138Y5722D01*
X36127Y5716D01*
X36116Y5707D01*
X36103Y5696D01*
X36085Y5683D01*
X36066Y5672D01*
X36046Y5657D01*
X36022Y5644D01*
X35970Y5615D01*
X35909Y5587D01*
X35839Y5563D01*
X35837D01*
X35830Y5561D01*
X35819Y5557D01*
X35804Y5554D01*
X35787Y5548D01*
X35763Y5544D01*
X35737Y5537D01*
X35706Y5533D01*
X35673Y5526D01*
X35636Y5520D01*
X35597Y5515D01*
X35553Y5511D01*
X35508Y5506D01*
X35457Y5502D01*
X35407Y5500D01*
X35316D01*
X35300Y5502D01*
X35263D01*
X35218Y5506D01*
X35165Y5511D01*
X35107Y5515D01*
X35045Y5524D01*
X34982Y5535D01*
X34917Y5548D01*
X34849Y5563D01*
X34786Y5581D01*
X34723Y5602D01*
X34664Y5629D01*
X34612Y5659D01*
X34564Y5692D01*
X34561Y5694D01*
X34553Y5701D01*
X34542Y5711D01*
X34527Y5727D01*
X34509Y5746D01*
X34490Y5768D01*
X34470Y5794D01*
X34448Y5825D01*
X34426Y5858D01*
X34407Y5895D01*
X34387Y5934D01*
X34370Y5977D01*
X34354Y6023D01*
X34343Y6071D01*
X34335Y6121D01*
X34333Y6176D01*
Y6178D01*
Y6182D01*
Y6187D01*
Y6195D01*
Y6217D01*
X34335Y6246D01*
X34995Y6165D01*
Y6163D01*
Y6160D01*
X35000Y6145D01*
X35004Y6126D01*
X35010Y6102D01*
X35021Y6075D01*
X35034Y6049D01*
X35050Y6025D01*
X35072Y6006D01*
X35076Y6004D01*
X35087Y5997D01*
X35107Y5986D01*
X35135Y5975D01*
X35170Y5962D01*
X35192Y5958D01*
X35215Y5953D01*
X35242Y5949D01*
X35268Y5945D01*
X35298Y5943D01*
X35353D01*
X35368Y5945D01*
X35388D01*
X35410Y5947D01*
X35434Y5949D01*
X35460Y5951D01*
X35514Y5960D01*
X35571Y5973D01*
X35623Y5988D01*
X35649Y5999D01*
X35671Y6012D01*
X35675Y6015D01*
X35684Y6021D01*
X35697Y6032D01*
X35715Y6047D01*
X35732Y6069D01*
X35752Y6093D01*
X35771Y6123D01*
X35787Y6158D01*
X35789Y6163D01*
X35791Y6174D01*
X35795Y6191D01*
X35798Y6204D01*
X35802Y6219D01*
X35804Y6235D01*
X35806Y6254D01*
X35808Y6276D01*
X35811Y6300D01*
X35813Y6326D01*
Y6357D01*
X35815Y6387D01*
Y6422D01*
X35817Y6743D01*
X35815Y6738D01*
X35806Y6727D01*
X35791Y6710D01*
X35769Y6688D01*
X35745Y6660D01*
X35713Y6629D01*
X35678Y6599D01*
X35636Y6566D01*
X35590Y6531D01*
X35543Y6501D01*
X35488Y6470D01*
X35429Y6444D01*
X35366Y6420D01*
X35300Y6402D01*
X35231Y6392D01*
X35159Y6387D01*
X35139D01*
X35117Y6389D01*
X35087Y6394D01*
X35050Y6398D01*
X35006Y6407D01*
X34958Y6418D01*
X34906Y6433D01*
X34851Y6453D01*
X34795Y6479D01*
X34738Y6507D01*
X34679Y6544D01*
X34620Y6586D01*
X34566Y6636D01*
X34511Y6692D01*
X34461Y6758D01*
X34459Y6762D01*
X34453Y6771D01*
X34444Y6788D01*
X34431Y6810D01*
X34415Y6838D01*
X34398Y6873D01*
X34380Y6915D01*
X34361Y6961D01*
X34341Y7011D01*
X34324Y7065D01*
X34306Y7126D01*
X34291Y7192D01*
X34280Y7259D01*
X34269Y7333D01*
X34263Y7410D01*
X34261Y7490D01*
Y7492D01*
Y7497D01*
Y7503D01*
Y7514D01*
Y7527D01*
X34263Y7543D01*
Y7560D01*
X34265Y7580D01*
X34269Y7628D01*
X34274Y7680D01*
X34282Y7739D01*
X34293Y7802D01*
X34309Y7868D01*
X34326Y7937D01*
X34346Y8007D01*
X34372Y8077D01*
X34402Y8144D01*
X34437Y8210D01*
X34479Y8273D01*
X34524Y8330D01*
X34527Y8334D01*
X34538Y8343D01*
X34551Y8356D01*
X34572Y8375D01*
X34598Y8397D01*
X34629Y8421D01*
X34664Y8450D01*
X34705Y8476D01*
X34751Y8504D01*
X34801Y8530D01*
X34856Y8554D01*
X34912Y8576D01*
X34976Y8596D01*
X35041Y8609D01*
X35111Y8620D01*
X35183Y8622D01*
X35200D01*
X35222Y8620D01*
D02*
G37*
G36*
X25559Y62620D02*
X25576D01*
X25598Y62617D01*
X25646Y62615D01*
X25701Y62609D01*
X25759Y62600D01*
X25825Y62591D01*
X25892Y62578D01*
X25962Y62561D01*
X26034Y62541D01*
X26106Y62517D01*
X26174Y62487D01*
X26241Y62454D01*
X26302Y62415D01*
X26359Y62371D01*
X26363Y62369D01*
X26372Y62360D01*
X26385Y62345D01*
X26405Y62325D01*
X26427Y62301D01*
X26450Y62271D01*
X26477Y62236D01*
X26505Y62195D01*
X26533Y62151D01*
X26559Y62101D01*
X26586Y62046D01*
X26607Y61987D01*
X26629Y61924D01*
X26645Y61857D01*
X26655Y61785D01*
X26662Y61708D01*
X26054Y61682D01*
Y61684D01*
X26052Y61693D01*
X26049Y61704D01*
X26045Y61719D01*
X26041Y61739D01*
X26034Y61761D01*
X26028Y61785D01*
X26019Y61811D01*
X25995Y61865D01*
X25967Y61920D01*
X25929Y61972D01*
X25910Y61996D01*
X25886Y62016D01*
X25884Y62018D01*
X25879Y62020D01*
X25873Y62024D01*
X25862Y62031D01*
X25849Y62040D01*
X25831Y62048D01*
X25812Y62057D01*
X25790Y62068D01*
X25764Y62077D01*
X25735Y62085D01*
X25703Y62094D01*
X25668Y62103D01*
X25631Y62110D01*
X25591Y62114D01*
X25546Y62118D01*
X25474D01*
X25456Y62116D01*
X25435Y62114D01*
X25408Y62112D01*
X25380Y62110D01*
X25347Y62105D01*
X25282Y62092D01*
X25212Y62072D01*
X25177Y62059D01*
X25145Y62044D01*
X25114Y62027D01*
X25084Y62007D01*
X25079Y62005D01*
X25068Y61994D01*
X25053Y61979D01*
X25036Y61957D01*
X25018Y61931D01*
X25003Y61900D01*
X24992Y61863D01*
X24990Y61844D01*
X24988Y61822D01*
Y61819D01*
Y61817D01*
X24990Y61804D01*
X24992Y61785D01*
X24999Y61759D01*
X25010Y61730D01*
X25025Y61700D01*
X25047Y61669D01*
X25077Y61639D01*
X25079D01*
X25084Y61634D01*
X25090Y61630D01*
X25103Y61621D01*
X25118Y61612D01*
X25138Y61602D01*
X25162Y61591D01*
X25190Y61577D01*
X25225Y61562D01*
X25264Y61547D01*
X25310Y61530D01*
X25363Y61512D01*
X25422Y61493D01*
X25485Y61475D01*
X25559Y61456D01*
X25637Y61436D01*
X25640D01*
X25642Y61434D01*
X25648D01*
X25657Y61431D01*
X25679Y61425D01*
X25709Y61418D01*
X25746Y61408D01*
X25790Y61397D01*
X25836Y61383D01*
X25886Y61370D01*
X25938Y61353D01*
X25993Y61338D01*
X26102Y61301D01*
X26154Y61281D01*
X26204Y61259D01*
X26252Y61240D01*
X26294Y61218D01*
X26296Y61216D01*
X26302Y61213D01*
X26313Y61207D01*
X26328Y61198D01*
X26346Y61185D01*
X26368Y61172D01*
X26389Y61157D01*
X26416Y61137D01*
X26442Y61118D01*
X26468Y61094D01*
X26496Y61070D01*
X26525Y61041D01*
X26579Y60980D01*
X26603Y60945D01*
X26627Y60910D01*
X26629Y60908D01*
X26631Y60902D01*
X26638Y60891D01*
X26647Y60876D01*
X26655Y60856D01*
X26666Y60834D01*
X26677Y60808D01*
X26688Y60777D01*
X26699Y60745D01*
X26710Y60708D01*
X26721Y60668D01*
X26730Y60627D01*
X26738Y60581D01*
X26745Y60533D01*
X26747Y60483D01*
X26749Y60431D01*
Y60429D01*
Y60420D01*
Y60405D01*
X26747Y60387D01*
X26745Y60363D01*
X26740Y60337D01*
X26736Y60307D01*
X26732Y60274D01*
X26723Y60237D01*
X26714Y60198D01*
X26701Y60158D01*
X26688Y60117D01*
X26671Y60073D01*
X26651Y60030D01*
X26629Y59988D01*
X26603Y59945D01*
X26601Y59943D01*
X26597Y59936D01*
X26588Y59923D01*
X26577Y59908D01*
X26562Y59890D01*
X26544Y59868D01*
X26522Y59844D01*
X26498Y59818D01*
X26470Y59792D01*
X26439Y59764D01*
X26407Y59735D01*
X26370Y59709D01*
X26331Y59681D01*
X26289Y59655D01*
X26243Y59631D01*
X26195Y59609D01*
X26193Y59607D01*
X26184Y59605D01*
X26169Y59598D01*
X26147Y59592D01*
X26123Y59583D01*
X26093Y59574D01*
X26056Y59565D01*
X26017Y59554D01*
X25971Y59544D01*
X25921Y59535D01*
X25866Y59526D01*
X25809Y59517D01*
X25749Y59511D01*
X25683Y59504D01*
X25613Y59502D01*
X25541Y59500D01*
X25502D01*
X25487Y59502D01*
X25467D01*
X25448Y59504D01*
X25400Y59509D01*
X25343Y59513D01*
X25282Y59522D01*
X25217Y59533D01*
X25147Y59548D01*
X25075Y59565D01*
X25001Y59585D01*
X24929Y59611D01*
X24857Y59642D01*
X24787Y59677D01*
X24722Y59718D01*
X24661Y59764D01*
X24656Y59766D01*
X24648Y59777D01*
X24632Y59792D01*
X24613Y59814D01*
X24589Y59840D01*
X24560Y59875D01*
X24532Y59914D01*
X24501Y59960D01*
X24469Y60010D01*
X24438Y60069D01*
X24408Y60132D01*
X24379Y60200D01*
X24351Y60276D01*
X24329Y60357D01*
X24310Y60444D01*
X24297Y60536D01*
X24890Y60592D01*
Y60588D01*
X24892Y60579D01*
X24896Y60564D01*
X24901Y60544D01*
X24907Y60518D01*
X24916Y60490D01*
X24924Y60459D01*
X24935Y60426D01*
X24966Y60355D01*
X24983Y60317D01*
X25003Y60280D01*
X25025Y60246D01*
X25049Y60213D01*
X25077Y60182D01*
X25105Y60154D01*
X25108Y60152D01*
X25114Y60148D01*
X25123Y60141D01*
X25136Y60132D01*
X25151Y60121D01*
X25173Y60110D01*
X25195Y60097D01*
X25223Y60084D01*
X25251Y60071D01*
X25286Y60058D01*
X25321Y60047D01*
X25360Y60036D01*
X25404Y60028D01*
X25450Y60021D01*
X25498Y60017D01*
X25548Y60014D01*
X25576D01*
X25596Y60017D01*
X25620Y60019D01*
X25648Y60021D01*
X25681Y60025D01*
X25714Y60030D01*
X25785Y60045D01*
X25823Y60056D01*
X25860Y60067D01*
X25894Y60082D01*
X25929Y60097D01*
X25962Y60117D01*
X25991Y60139D01*
X25993Y60141D01*
X25997Y60145D01*
X26004Y60152D01*
X26014Y60160D01*
X26025Y60174D01*
X26038Y60187D01*
X26052Y60204D01*
X26067Y60222D01*
X26093Y60265D01*
X26117Y60313D01*
X26128Y60342D01*
X26134Y60368D01*
X26139Y60398D01*
X26141Y60429D01*
Y60431D01*
Y60433D01*
Y60446D01*
X26139Y60466D01*
X26132Y60492D01*
X26126Y60520D01*
X26115Y60551D01*
X26100Y60581D01*
X26078Y60610D01*
X26076Y60614D01*
X26065Y60623D01*
X26049Y60636D01*
X26028Y60655D01*
X25997Y60675D01*
X25958Y60699D01*
X25912Y60721D01*
X25886Y60732D01*
X25857Y60743D01*
X25855D01*
X25853Y60745D01*
X25844Y60747D01*
X25836Y60749D01*
X25820Y60754D01*
X25803Y60760D01*
X25781Y60767D01*
X25757Y60773D01*
X25727Y60782D01*
X25692Y60791D01*
X25653Y60802D01*
X25607Y60814D01*
X25557Y60828D01*
X25500Y60841D01*
X25437Y60856D01*
X25369Y60873D01*
X25367D01*
X25363Y60876D01*
X25356D01*
X25347Y60880D01*
X25337Y60882D01*
X25323Y60887D01*
X25291Y60895D01*
X25249Y60906D01*
X25203Y60921D01*
X25153Y60939D01*
X25101Y60956D01*
X25044Y60978D01*
X24988Y61000D01*
X24929Y61024D01*
X24874Y61050D01*
X24820Y61078D01*
X24770Y61109D01*
X24724Y61139D01*
X24682Y61172D01*
X24680Y61174D01*
X24672Y61183D01*
X24656Y61198D01*
X24639Y61216D01*
X24619Y61240D01*
X24595Y61270D01*
X24569Y61303D01*
X24545Y61342D01*
X24519Y61383D01*
X24493Y61429D01*
X24469Y61479D01*
X24449Y61532D01*
X24432Y61588D01*
X24417Y61650D01*
X24408Y61713D01*
X24406Y61778D01*
Y61780D01*
Y61789D01*
Y61800D01*
X24408Y61817D01*
X24410Y61837D01*
X24412Y61861D01*
X24417Y61889D01*
X24421Y61920D01*
X24430Y61950D01*
X24436Y61985D01*
X24447Y62020D01*
X24460Y62057D01*
X24475Y62096D01*
X24493Y62133D01*
X24512Y62173D01*
X24534Y62210D01*
X24536Y62212D01*
X24541Y62218D01*
X24547Y62229D01*
X24558Y62242D01*
X24571Y62260D01*
X24589Y62279D01*
X24608Y62299D01*
X24630Y62323D01*
X24656Y62347D01*
X24685Y62373D01*
X24715Y62397D01*
X24748Y62423D01*
X24785Y62447D01*
X24824Y62471D01*
X24866Y62495D01*
X24911Y62515D01*
X24914Y62517D01*
X24922Y62519D01*
X24938Y62526D01*
X24955Y62532D01*
X24979Y62539D01*
X25007Y62550D01*
X25040Y62559D01*
X25077Y62569D01*
X25118Y62578D01*
X25164Y62589D01*
X25212Y62598D01*
X25264Y62604D01*
X25321Y62613D01*
X25380Y62617D01*
X25441Y62620D01*
X25504Y62622D01*
X25544D01*
X25559Y62620D01*
D02*
G37*
G36*
X16298D02*
X16316D01*
X16335Y62617D01*
X16383Y62615D01*
X16438Y62609D01*
X16499Y62602D01*
X16564Y62591D01*
X16632Y62580D01*
X16704Y62563D01*
X16778Y62546D01*
X16850Y62521D01*
X16922Y62495D01*
X16991Y62463D01*
X17059Y62426D01*
X17120Y62384D01*
X17124Y62382D01*
X17133Y62373D01*
X17151Y62360D01*
X17170Y62340D01*
X17196Y62317D01*
X17225Y62288D01*
X17257Y62253D01*
X17290Y62214D01*
X17325Y62170D01*
X17358Y62122D01*
X17392Y62068D01*
X17425Y62011D01*
X17456Y61948D01*
X17484Y61881D01*
X17508Y61811D01*
X17528Y61734D01*
X16924Y61621D01*
Y61623D01*
X16922Y61630D01*
X16917Y61643D01*
X16911Y61658D01*
X16904Y61676D01*
X16893Y61697D01*
X16882Y61721D01*
X16869Y61748D01*
X16854Y61774D01*
X16837Y61802D01*
X16817Y61833D01*
X16795Y61861D01*
X16769Y61889D01*
X16743Y61918D01*
X16715Y61946D01*
X16682Y61970D01*
X16680Y61972D01*
X16673Y61976D01*
X16664Y61983D01*
X16651Y61990D01*
X16634Y62001D01*
X16612Y62011D01*
X16588Y62022D01*
X16562Y62035D01*
X16531Y62048D01*
X16499Y62059D01*
X16462Y62070D01*
X16422Y62081D01*
X16383Y62088D01*
X16337Y62094D01*
X16292Y62099D01*
X16244Y62101D01*
X16226D01*
X16204Y62099D01*
X16178Y62096D01*
X16143Y62092D01*
X16104Y62088D01*
X16063Y62079D01*
X16015Y62068D01*
X15965Y62055D01*
X15914Y62037D01*
X15860Y62018D01*
X15808Y61994D01*
X15755Y61963D01*
X15705Y61931D01*
X15655Y61892D01*
X15609Y61846D01*
X15607Y61844D01*
X15598Y61835D01*
X15587Y61819D01*
X15572Y61798D01*
X15555Y61772D01*
X15535Y61739D01*
X15513Y61702D01*
X15492Y61658D01*
X15470Y61608D01*
X15448Y61551D01*
X15428Y61490D01*
X15411Y61423D01*
X15396Y61349D01*
X15385Y61270D01*
X15376Y61185D01*
X15374Y61096D01*
Y61094D01*
Y61089D01*
Y61083D01*
Y61072D01*
Y61059D01*
X15376Y61046D01*
Y61028D01*
X15378Y61009D01*
X15380Y60963D01*
X15387Y60913D01*
X15394Y60856D01*
X15404Y60795D01*
X15415Y60729D01*
X15433Y60664D01*
X15450Y60597D01*
X15474Y60531D01*
X15500Y60466D01*
X15533Y60403D01*
X15570Y60344D01*
X15611Y60291D01*
X15614Y60289D01*
X15622Y60280D01*
X15635Y60267D01*
X15655Y60250D01*
X15679Y60230D01*
X15707Y60206D01*
X15742Y60182D01*
X15779Y60158D01*
X15823Y60132D01*
X15869Y60108D01*
X15921Y60086D01*
X15978Y60065D01*
X16037Y60047D01*
X16100Y60034D01*
X16167Y60025D01*
X16237Y60023D01*
X16257D01*
X16270Y60025D01*
X16287D01*
X16309Y60028D01*
X16331Y60030D01*
X16357Y60032D01*
X16385Y60036D01*
X16416Y60041D01*
X16479Y60054D01*
X16549Y60073D01*
X16621Y60097D01*
X16623D01*
X16630Y60102D01*
X16640Y60104D01*
X16654Y60110D01*
X16669Y60117D01*
X16688Y60126D01*
X16710Y60137D01*
X16734Y60148D01*
X16786Y60174D01*
X16841Y60204D01*
X16898Y60239D01*
X16952Y60278D01*
Y60662D01*
X16255D01*
Y61172D01*
X17567D01*
Y59969D01*
X17565Y59966D01*
X17558Y59960D01*
X17547Y59951D01*
X17532Y59938D01*
X17512Y59921D01*
X17486Y59903D01*
X17458Y59882D01*
X17425Y59857D01*
X17388Y59834D01*
X17347Y59807D01*
X17301Y59781D01*
X17251Y59753D01*
X17199Y59724D01*
X17140Y59696D01*
X17076Y59668D01*
X17011Y59642D01*
X17007Y59640D01*
X16996Y59635D01*
X16976Y59629D01*
X16948Y59620D01*
X16915Y59609D01*
X16876Y59598D01*
X16832Y59585D01*
X16784Y59572D01*
X16730Y59559D01*
X16673Y59546D01*
X16612Y59535D01*
X16549Y59524D01*
X16484Y59515D01*
X16416Y59509D01*
X16346Y59504D01*
X16276Y59502D01*
X16244D01*
X16231Y59504D01*
X16198D01*
X16157Y59509D01*
X16108Y59513D01*
X16054Y59520D01*
X15995Y59526D01*
X15932Y59537D01*
X15867Y59550D01*
X15799Y59568D01*
X15729Y59585D01*
X15657Y59609D01*
X15587Y59635D01*
X15518Y59666D01*
X15450Y59701D01*
X15446Y59703D01*
X15435Y59709D01*
X15417Y59722D01*
X15394Y59738D01*
X15363Y59757D01*
X15330Y59783D01*
X15293Y59812D01*
X15252Y59847D01*
X15210Y59884D01*
X15167Y59925D01*
X15123Y59973D01*
X15080Y60023D01*
X15036Y60078D01*
X14997Y60137D01*
X14957Y60200D01*
X14923Y60267D01*
X14920Y60272D01*
X14916Y60285D01*
X14907Y60304D01*
X14894Y60333D01*
X14881Y60368D01*
X14866Y60407D01*
X14851Y60455D01*
X14835Y60507D01*
X14818Y60564D01*
X14803Y60627D01*
X14787Y60693D01*
X14774Y60762D01*
X14763Y60836D01*
X14755Y60913D01*
X14748Y60991D01*
X14746Y61072D01*
Y61074D01*
Y61076D01*
Y61085D01*
Y61094D01*
Y61105D01*
X14748Y61118D01*
Y61150D01*
X14753Y61192D01*
X14757Y61240D01*
X14763Y61294D01*
X14770Y61353D01*
X14781Y61416D01*
X14794Y61484D01*
X14809Y61554D01*
X14829Y61623D01*
X14851Y61695D01*
X14877Y61767D01*
X14907Y61839D01*
X14942Y61909D01*
X14944Y61913D01*
X14951Y61924D01*
X14964Y61944D01*
X14979Y61970D01*
X14999Y62001D01*
X15025Y62035D01*
X15056Y62075D01*
X15088Y62116D01*
X15127Y62162D01*
X15171Y62208D01*
X15217Y62253D01*
X15269Y62301D01*
X15326Y62347D01*
X15387Y62391D01*
X15450Y62432D01*
X15520Y62471D01*
X15524Y62473D01*
X15533Y62478D01*
X15550Y62484D01*
X15572Y62495D01*
X15601Y62506D01*
X15635Y62519D01*
X15675Y62532D01*
X15718Y62548D01*
X15768Y62561D01*
X15825Y62574D01*
X15884Y62587D01*
X15947Y62598D01*
X16015Y62609D01*
X16089Y62615D01*
X16165Y62620D01*
X16244Y62622D01*
X16281D01*
X16298Y62620D01*
D02*
G37*
G36*
X20543Y59554D02*
X19934D01*
Y60873D01*
X18740D01*
Y59554D01*
X18132D01*
Y62572D01*
X18740D01*
Y61383D01*
X19934D01*
Y62572D01*
X20543D01*
Y59554D01*
D02*
G37*
G36*
X29446Y62062D02*
X28552D01*
Y59554D01*
X27944D01*
Y62062D01*
X27048D01*
Y62572D01*
X29446D01*
Y62062D01*
D02*
G37*
G36*
X14526Y59554D02*
X13863D01*
X13601Y60239D01*
X12394D01*
X12145Y59554D01*
X11500D01*
X12671Y62572D01*
X13318D01*
X14526Y59554D01*
D02*
G37*
G36*
X22553Y62620D02*
X22570D01*
X22592Y62617D01*
X22618Y62615D01*
X22644Y62613D01*
X22675Y62609D01*
X22705Y62604D01*
X22740Y62600D01*
X22812Y62587D01*
X22891Y62569D01*
X22973Y62548D01*
X23061Y62521D01*
X23150Y62487D01*
X23239Y62447D01*
X23326Y62399D01*
X23414Y62345D01*
X23455Y62314D01*
X23496Y62279D01*
X23536Y62245D01*
X23575Y62208D01*
X23577Y62205D01*
X23579Y62203D01*
X23586Y62197D01*
X23593Y62188D01*
X23601Y62177D01*
X23612Y62164D01*
X23625Y62149D01*
X23638Y62131D01*
X23653Y62112D01*
X23669Y62090D01*
X23684Y62064D01*
X23701Y62037D01*
X23719Y62009D01*
X23739Y61976D01*
X23756Y61944D01*
X23776Y61909D01*
X23813Y61830D01*
X23850Y61745D01*
X23882Y61650D01*
X23913Y61547D01*
X23939Y61436D01*
X23959Y61318D01*
X23972Y61192D01*
X23976Y61124D01*
Y61057D01*
Y61054D01*
Y61048D01*
Y61039D01*
Y61024D01*
X23974Y61006D01*
Y60987D01*
X23972Y60963D01*
X23970Y60937D01*
X23967Y60906D01*
X23963Y60876D01*
X23961Y60841D01*
X23954Y60804D01*
X23943Y60725D01*
X23926Y60640D01*
X23904Y60551D01*
X23878Y60457D01*
X23847Y60361D01*
X23808Y60267D01*
X23763Y60174D01*
X23708Y60082D01*
X23680Y60039D01*
X23647Y59995D01*
X23614Y59953D01*
X23577Y59914D01*
X23575Y59912D01*
X23573Y59910D01*
X23566Y59903D01*
X23560Y59897D01*
X23549Y59888D01*
X23536Y59877D01*
X23523Y59864D01*
X23505Y59851D01*
X23466Y59818D01*
X23416Y59783D01*
X23359Y59746D01*
X23296Y59709D01*
X23224Y59670D01*
X23143Y59633D01*
X23056Y59598D01*
X22962Y59568D01*
X22860Y59539D01*
X22753Y59520D01*
X22638Y59506D01*
X22577Y59504D01*
X22515Y59502D01*
X22485D01*
X22470Y59504D01*
X22450D01*
X22428Y59506D01*
X22404Y59509D01*
X22376Y59511D01*
X22348Y59515D01*
X22315Y59520D01*
X22282Y59524D01*
X22208Y59537D01*
X22130Y59554D01*
X22045Y59574D01*
X21958Y59602D01*
X21870Y59635D01*
X21781Y59674D01*
X21691Y59722D01*
X21604Y59777D01*
X21563Y59807D01*
X21524Y59840D01*
X21482Y59875D01*
X21445Y59912D01*
Y59914D01*
X21441Y59916D01*
X21436Y59923D01*
X21428Y59932D01*
X21419Y59943D01*
X21408Y59956D01*
X21397Y59971D01*
X21384Y59988D01*
X21369Y60008D01*
X21354Y60030D01*
X21336Y60054D01*
X21319Y60080D01*
X21301Y60108D01*
X21284Y60139D01*
X21247Y60206D01*
X21210Y60283D01*
X21175Y60368D01*
X21140Y60461D01*
X21109Y60562D01*
X21086Y60671D01*
X21066Y60788D01*
X21053Y60913D01*
X21051Y60976D01*
X21048Y61043D01*
Y61046D01*
Y61048D01*
Y61054D01*
Y61063D01*
Y61074D01*
Y61087D01*
X21051Y61120D01*
X21053Y61159D01*
X21055Y61205D01*
X21059Y61257D01*
X21066Y61312D01*
X21072Y61373D01*
X21081Y61434D01*
X21094Y61499D01*
X21107Y61562D01*
X21123Y61628D01*
X21140Y61693D01*
X21162Y61754D01*
X21186Y61815D01*
X21188Y61817D01*
X21190Y61826D01*
X21197Y61837D01*
X21205Y61854D01*
X21214Y61874D01*
X21227Y61898D01*
X21242Y61924D01*
X21260Y61955D01*
X21299Y62018D01*
X21347Y62088D01*
X21402Y62160D01*
X21465Y62229D01*
X21467Y62231D01*
X21474Y62238D01*
X21482Y62247D01*
X21495Y62260D01*
X21513Y62275D01*
X21532Y62293D01*
X21556Y62312D01*
X21580Y62332D01*
X21609Y62354D01*
X21639Y62375D01*
X21707Y62421D01*
X21779Y62465D01*
X21818Y62484D01*
X21857Y62502D01*
X21861Y62504D01*
X21870Y62506D01*
X21885Y62513D01*
X21907Y62521D01*
X21934Y62530D01*
X21966Y62539D01*
X22003Y62550D01*
X22045Y62563D01*
X22090Y62574D01*
X22138Y62585D01*
X22193Y62593D01*
X22250Y62602D01*
X22311Y62611D01*
X22374Y62617D01*
X22439Y62620D01*
X22507Y62622D01*
X22537D01*
X22553Y62620D01*
D02*
G37*
G36*
X16441Y65264D02*
Y64000D01*
X15832D01*
Y65269D01*
X14729Y67017D01*
X15440D01*
X16153Y65820D01*
X16846Y67017D01*
X17548D01*
X16441Y65264D01*
D02*
G37*
G36*
X13328Y67015D02*
X13365D01*
X13406Y67013D01*
X13493Y67011D01*
X13580Y67004D01*
X13624Y67002D01*
X13666Y66997D01*
X13703Y66991D01*
X13737Y66987D01*
X13740D01*
X13746Y66984D01*
X13755Y66982D01*
X13768Y66980D01*
X13783Y66976D01*
X13801Y66971D01*
X13820Y66967D01*
X13844Y66960D01*
X13892Y66943D01*
X13945Y66921D01*
X13999Y66893D01*
X14054Y66860D01*
X14056D01*
X14060Y66856D01*
X14067Y66851D01*
X14077Y66843D01*
X14101Y66823D01*
X14134Y66795D01*
X14171Y66758D01*
X14210Y66714D01*
X14248Y66666D01*
X14285Y66610D01*
X14287Y66607D01*
X14289Y66603D01*
X14293Y66594D01*
X14300Y66581D01*
X14306Y66568D01*
X14315Y66551D01*
X14324Y66529D01*
X14333Y66507D01*
X14341Y66481D01*
X14348Y66455D01*
X14363Y66394D01*
X14374Y66328D01*
X14378Y66293D01*
Y66256D01*
Y66254D01*
Y66248D01*
Y66237D01*
X14376Y66221D01*
X14374Y66202D01*
X14372Y66180D01*
X14370Y66156D01*
X14363Y66128D01*
X14350Y66069D01*
X14330Y66003D01*
X14317Y65971D01*
X14302Y65936D01*
X14283Y65901D01*
X14263Y65868D01*
X14261Y65866D01*
X14258Y65860D01*
X14252Y65851D01*
X14243Y65840D01*
X14230Y65825D01*
X14217Y65807D01*
X14200Y65790D01*
X14182Y65768D01*
X14160Y65748D01*
X14139Y65727D01*
X14086Y65681D01*
X14025Y65639D01*
X13956Y65602D01*
X13958D01*
X13969Y65598D01*
X13982Y65594D01*
X14001Y65587D01*
X14023Y65578D01*
X14049Y65567D01*
X14080Y65554D01*
X14112Y65539D01*
X14145Y65522D01*
X14180Y65502D01*
X14215Y65478D01*
X14250Y65454D01*
X14285Y65428D01*
X14317Y65397D01*
X14350Y65365D01*
X14378Y65330D01*
X14381Y65328D01*
X14385Y65321D01*
X14391Y65310D01*
X14402Y65295D01*
X14413Y65277D01*
X14426Y65256D01*
X14439Y65229D01*
X14453Y65201D01*
X14466Y65168D01*
X14481Y65134D01*
X14492Y65096D01*
X14503Y65055D01*
X14514Y65014D01*
X14520Y64968D01*
X14524Y64922D01*
X14527Y64874D01*
Y64872D01*
Y64865D01*
Y64855D01*
X14524Y64839D01*
Y64820D01*
X14522Y64800D01*
X14518Y64774D01*
X14516Y64748D01*
X14509Y64717D01*
X14503Y64687D01*
X14485Y64619D01*
X14463Y64547D01*
X14448Y64510D01*
X14431Y64473D01*
Y64471D01*
X14426Y64464D01*
X14420Y64453D01*
X14413Y64440D01*
X14404Y64425D01*
X14391Y64406D01*
X14363Y64362D01*
X14324Y64312D01*
X14280Y64259D01*
X14228Y64209D01*
X14169Y64161D01*
X14167Y64159D01*
X14163Y64157D01*
X14152Y64150D01*
X14139Y64144D01*
X14123Y64133D01*
X14104Y64124D01*
X14082Y64111D01*
X14056Y64100D01*
X14027Y64087D01*
X13997Y64076D01*
X13962Y64063D01*
X13927Y64052D01*
X13888Y64041D01*
X13847Y64033D01*
X13759Y64020D01*
X13753D01*
X13742Y64017D01*
X13727D01*
X13707Y64015D01*
X13681Y64013D01*
X13650D01*
X13611Y64011D01*
X13565Y64009D01*
X13513Y64007D01*
X13454D01*
X13386Y64004D01*
X13349D01*
X13310Y64002D01*
X13223D01*
X13177Y64000D01*
X12000D01*
Y67017D01*
X13295D01*
X13328Y67015D01*
D02*
G37*
G36*
X14963Y71120D02*
X14980D01*
X15002Y71117D01*
X15050Y71115D01*
X15105Y71109D01*
X15164Y71100D01*
X15229Y71091D01*
X15296Y71078D01*
X15366Y71061D01*
X15438Y71041D01*
X15510Y71017D01*
X15578Y70987D01*
X15645Y70954D01*
X15706Y70915D01*
X15763Y70871D01*
X15767Y70869D01*
X15776Y70860D01*
X15789Y70845D01*
X15809Y70825D01*
X15831Y70801D01*
X15855Y70771D01*
X15881Y70736D01*
X15909Y70695D01*
X15937Y70651D01*
X15964Y70601D01*
X15990Y70546D01*
X16012Y70487D01*
X16033Y70424D01*
X16049Y70357D01*
X16059Y70285D01*
X16066Y70208D01*
X15458Y70182D01*
Y70184D01*
X15456Y70193D01*
X15453Y70204D01*
X15449Y70219D01*
X15445Y70239D01*
X15438Y70261D01*
X15432Y70285D01*
X15423Y70311D01*
X15399Y70365D01*
X15371Y70420D01*
X15334Y70472D01*
X15314Y70496D01*
X15290Y70516D01*
X15288Y70518D01*
X15283Y70520D01*
X15277Y70524D01*
X15266Y70531D01*
X15253Y70540D01*
X15235Y70548D01*
X15216Y70557D01*
X15194Y70568D01*
X15168Y70577D01*
X15139Y70586D01*
X15107Y70594D01*
X15072Y70603D01*
X15035Y70609D01*
X14996Y70614D01*
X14950Y70618D01*
X14878D01*
X14861Y70616D01*
X14839Y70614D01*
X14812Y70612D01*
X14784Y70609D01*
X14751Y70605D01*
X14686Y70592D01*
X14616Y70572D01*
X14581Y70559D01*
X14549Y70544D01*
X14518Y70527D01*
X14488Y70507D01*
X14483Y70505D01*
X14472Y70494D01*
X14457Y70479D01*
X14440Y70457D01*
X14422Y70431D01*
X14407Y70400D01*
X14396Y70363D01*
X14394Y70344D01*
X14392Y70322D01*
Y70319D01*
Y70317D01*
X14394Y70304D01*
X14396Y70285D01*
X14403Y70258D01*
X14414Y70230D01*
X14429Y70200D01*
X14451Y70169D01*
X14481Y70139D01*
X14483D01*
X14488Y70134D01*
X14494Y70130D01*
X14507Y70121D01*
X14523Y70112D01*
X14542Y70101D01*
X14566Y70091D01*
X14594Y70078D01*
X14629Y70062D01*
X14669Y70047D01*
X14714Y70030D01*
X14767Y70012D01*
X14826Y69993D01*
X14889Y69975D01*
X14963Y69955D01*
X15041Y69936D01*
X15044D01*
X15046Y69934D01*
X15052D01*
X15061Y69932D01*
X15083Y69925D01*
X15113Y69918D01*
X15150Y69907D01*
X15194Y69897D01*
X15240Y69884D01*
X15290Y69870D01*
X15342Y69853D01*
X15397Y69838D01*
X15506Y69801D01*
X15558Y69781D01*
X15608Y69759D01*
X15656Y69740D01*
X15698Y69718D01*
X15700Y69716D01*
X15706Y69713D01*
X15717Y69707D01*
X15732Y69698D01*
X15750Y69685D01*
X15772Y69672D01*
X15793Y69657D01*
X15820Y69637D01*
X15846Y69618D01*
X15872Y69594D01*
X15900Y69570D01*
X15929Y69541D01*
X15983Y69480D01*
X16007Y69445D01*
X16031Y69411D01*
X16033Y69408D01*
X16036Y69402D01*
X16042Y69391D01*
X16051Y69376D01*
X16059Y69356D01*
X16070Y69334D01*
X16081Y69308D01*
X16092Y69278D01*
X16103Y69245D01*
X16114Y69208D01*
X16125Y69169D01*
X16134Y69127D01*
X16142Y69081D01*
X16149Y69033D01*
X16151Y68983D01*
X16153Y68931D01*
Y68929D01*
Y68920D01*
Y68905D01*
X16151Y68887D01*
X16149Y68863D01*
X16145Y68837D01*
X16140Y68807D01*
X16136Y68774D01*
X16127Y68737D01*
X16118Y68698D01*
X16105Y68658D01*
X16092Y68617D01*
X16075Y68573D01*
X16055Y68530D01*
X16033Y68488D01*
X16007Y68445D01*
X16005Y68442D01*
X16001Y68436D01*
X15992Y68423D01*
X15981Y68408D01*
X15966Y68390D01*
X15948Y68368D01*
X15926Y68344D01*
X15902Y68318D01*
X15874Y68292D01*
X15844Y68264D01*
X15811Y68235D01*
X15774Y68209D01*
X15735Y68181D01*
X15693Y68155D01*
X15647Y68131D01*
X15599Y68109D01*
X15597Y68107D01*
X15589Y68105D01*
X15573Y68098D01*
X15552Y68092D01*
X15528Y68083D01*
X15497Y68074D01*
X15460Y68065D01*
X15421Y68054D01*
X15375Y68044D01*
X15325Y68035D01*
X15270Y68026D01*
X15214Y68017D01*
X15153Y68011D01*
X15087Y68004D01*
X15017Y68002D01*
X14945Y68000D01*
X14906D01*
X14891Y68002D01*
X14871D01*
X14852Y68004D01*
X14804Y68009D01*
X14747Y68013D01*
X14686Y68022D01*
X14621Y68033D01*
X14551Y68048D01*
X14479Y68065D01*
X14405Y68085D01*
X14333Y68111D01*
X14261Y68142D01*
X14191Y68177D01*
X14126Y68218D01*
X14065Y68264D01*
X14060Y68266D01*
X14052Y68277D01*
X14036Y68292D01*
X14017Y68314D01*
X13993Y68340D01*
X13964Y68375D01*
X13936Y68414D01*
X13906Y68460D01*
X13873Y68510D01*
X13842Y68569D01*
X13812Y68632D01*
X13783Y68700D01*
X13755Y68776D01*
X13733Y68857D01*
X13714Y68944D01*
X13701Y69036D01*
X14294Y69092D01*
Y69088D01*
X14296Y69079D01*
X14300Y69064D01*
X14305Y69044D01*
X14311Y69018D01*
X14320Y68990D01*
X14329Y68959D01*
X14339Y68927D01*
X14370Y68855D01*
X14387Y68818D01*
X14407Y68780D01*
X14429Y68746D01*
X14453Y68713D01*
X14481Y68682D01*
X14510Y68654D01*
X14512Y68652D01*
X14518Y68647D01*
X14527Y68641D01*
X14540Y68632D01*
X14555Y68621D01*
X14577Y68610D01*
X14599Y68597D01*
X14627Y68584D01*
X14656Y68571D01*
X14690Y68558D01*
X14725Y68547D01*
X14764Y68536D01*
X14808Y68528D01*
X14854Y68521D01*
X14902Y68517D01*
X14952Y68515D01*
X14980D01*
X15000Y68517D01*
X15024Y68519D01*
X15052Y68521D01*
X15085Y68525D01*
X15118Y68530D01*
X15190Y68545D01*
X15227Y68556D01*
X15264Y68567D01*
X15299Y68582D01*
X15334Y68597D01*
X15366Y68617D01*
X15395Y68639D01*
X15397Y68641D01*
X15401Y68645D01*
X15408Y68652D01*
X15418Y68660D01*
X15429Y68674D01*
X15442Y68687D01*
X15456Y68704D01*
X15471Y68722D01*
X15497Y68765D01*
X15521Y68813D01*
X15532Y68841D01*
X15538Y68868D01*
X15543Y68898D01*
X15545Y68929D01*
Y68931D01*
Y68933D01*
Y68946D01*
X15543Y68966D01*
X15536Y68992D01*
X15530Y69020D01*
X15519Y69051D01*
X15504Y69081D01*
X15482Y69110D01*
X15480Y69114D01*
X15469Y69123D01*
X15453Y69136D01*
X15432Y69155D01*
X15401Y69175D01*
X15362Y69199D01*
X15316Y69221D01*
X15290Y69232D01*
X15262Y69243D01*
X15259D01*
X15257Y69245D01*
X15248Y69247D01*
X15240Y69249D01*
X15225Y69253D01*
X15207Y69260D01*
X15185Y69267D01*
X15161Y69273D01*
X15131Y69282D01*
X15096Y69291D01*
X15057Y69301D01*
X15011Y69314D01*
X14961Y69328D01*
X14904Y69341D01*
X14841Y69356D01*
X14773Y69373D01*
X14771D01*
X14767Y69376D01*
X14760D01*
X14751Y69380D01*
X14741Y69382D01*
X14728Y69387D01*
X14695Y69395D01*
X14653Y69406D01*
X14608Y69421D01*
X14557Y69439D01*
X14505Y69456D01*
X14448Y69478D01*
X14392Y69500D01*
X14333Y69524D01*
X14278Y69550D01*
X14224Y69578D01*
X14174Y69609D01*
X14128Y69639D01*
X14087Y69672D01*
X14084Y69674D01*
X14076Y69683D01*
X14060Y69698D01*
X14043Y69716D01*
X14023Y69740D01*
X13999Y69770D01*
X13973Y69803D01*
X13949Y69842D01*
X13923Y69884D01*
X13897Y69929D01*
X13873Y69979D01*
X13853Y70032D01*
X13836Y70088D01*
X13821Y70149D01*
X13812Y70213D01*
X13810Y70278D01*
Y70280D01*
Y70289D01*
Y70300D01*
X13812Y70317D01*
X13814Y70337D01*
X13816Y70361D01*
X13821Y70389D01*
X13825Y70420D01*
X13834Y70450D01*
X13840Y70485D01*
X13851Y70520D01*
X13864Y70557D01*
X13880Y70596D01*
X13897Y70633D01*
X13916Y70673D01*
X13938Y70710D01*
X13940Y70712D01*
X13945Y70718D01*
X13951Y70729D01*
X13962Y70742D01*
X13975Y70760D01*
X13993Y70780D01*
X14012Y70799D01*
X14034Y70823D01*
X14060Y70847D01*
X14089Y70873D01*
X14119Y70897D01*
X14152Y70923D01*
X14189Y70947D01*
X14228Y70971D01*
X14270Y70995D01*
X14315Y71015D01*
X14318Y71017D01*
X14326Y71019D01*
X14342Y71026D01*
X14359Y71032D01*
X14383Y71039D01*
X14411Y71050D01*
X14444Y71058D01*
X14481Y71069D01*
X14523Y71078D01*
X14568Y71089D01*
X14616Y71098D01*
X14669Y71104D01*
X14725Y71113D01*
X14784Y71117D01*
X14845Y71120D01*
X14908Y71122D01*
X14948D01*
X14963Y71120D01*
D02*
G37*
G36*
X19284D02*
X19301D01*
X19321Y71117D01*
X19369Y71115D01*
X19423Y71109D01*
X19484Y71102D01*
X19550Y71091D01*
X19617Y71080D01*
X19689Y71063D01*
X19763Y71046D01*
X19835Y71021D01*
X19907Y70995D01*
X19977Y70963D01*
X20044Y70926D01*
X20106Y70884D01*
X20110Y70882D01*
X20119Y70873D01*
X20136Y70860D01*
X20156Y70841D01*
X20182Y70817D01*
X20210Y70788D01*
X20243Y70753D01*
X20276Y70714D01*
X20311Y70670D01*
X20343Y70622D01*
X20378Y70568D01*
X20411Y70511D01*
X20441Y70448D01*
X20470Y70381D01*
X20494Y70311D01*
X20513Y70235D01*
X19909Y70121D01*
Y70123D01*
X19907Y70130D01*
X19903Y70143D01*
X19896Y70158D01*
X19890Y70176D01*
X19879Y70197D01*
X19868Y70221D01*
X19855Y70248D01*
X19840Y70274D01*
X19822Y70302D01*
X19803Y70333D01*
X19781Y70361D01*
X19755Y70389D01*
X19728Y70418D01*
X19700Y70446D01*
X19667Y70470D01*
X19665Y70472D01*
X19659Y70477D01*
X19650Y70483D01*
X19637Y70490D01*
X19619Y70500D01*
X19598Y70511D01*
X19574Y70522D01*
X19547Y70535D01*
X19517Y70548D01*
X19484Y70559D01*
X19447Y70570D01*
X19408Y70581D01*
X19369Y70588D01*
X19323Y70594D01*
X19277Y70599D01*
X19229Y70601D01*
X19212D01*
X19190Y70599D01*
X19164Y70596D01*
X19129Y70592D01*
X19090Y70588D01*
X19048Y70579D01*
X19000Y70568D01*
X18950Y70555D01*
X18900Y70538D01*
X18846Y70518D01*
X18793Y70494D01*
X18741Y70463D01*
X18691Y70431D01*
X18641Y70391D01*
X18595Y70346D01*
X18593Y70344D01*
X18584Y70335D01*
X18573Y70319D01*
X18558Y70298D01*
X18540Y70272D01*
X18521Y70239D01*
X18499Y70202D01*
X18477Y70158D01*
X18455Y70108D01*
X18433Y70051D01*
X18414Y69990D01*
X18396Y69923D01*
X18381Y69849D01*
X18370Y69770D01*
X18361Y69685D01*
X18359Y69596D01*
Y69594D01*
Y69589D01*
Y69583D01*
Y69572D01*
Y69559D01*
X18361Y69546D01*
Y69528D01*
X18364Y69509D01*
X18366Y69463D01*
X18372Y69413D01*
X18379Y69356D01*
X18390Y69295D01*
X18401Y69230D01*
X18418Y69164D01*
X18436Y69096D01*
X18460Y69031D01*
X18486Y68966D01*
X18519Y68902D01*
X18556Y68844D01*
X18597Y68791D01*
X18599Y68789D01*
X18608Y68780D01*
X18621Y68767D01*
X18641Y68750D01*
X18665Y68730D01*
X18693Y68706D01*
X18728Y68682D01*
X18765Y68658D01*
X18808Y68632D01*
X18854Y68608D01*
X18906Y68586D01*
X18963Y68565D01*
X19022Y68547D01*
X19085Y68534D01*
X19153Y68525D01*
X19223Y68523D01*
X19242D01*
X19255Y68525D01*
X19273D01*
X19295Y68528D01*
X19316Y68530D01*
X19342Y68532D01*
X19371Y68536D01*
X19401Y68541D01*
X19465Y68554D01*
X19534Y68573D01*
X19606Y68597D01*
X19609D01*
X19615Y68602D01*
X19626Y68604D01*
X19639Y68610D01*
X19654Y68617D01*
X19674Y68626D01*
X19696Y68637D01*
X19720Y68647D01*
X19772Y68674D01*
X19827Y68704D01*
X19883Y68739D01*
X19938Y68778D01*
Y69162D01*
X19240D01*
Y69672D01*
X20552D01*
Y68469D01*
X20550Y68467D01*
X20544Y68460D01*
X20533Y68451D01*
X20518Y68438D01*
X20498Y68421D01*
X20472Y68403D01*
X20443Y68382D01*
X20411Y68357D01*
X20374Y68334D01*
X20332Y68307D01*
X20287Y68281D01*
X20236Y68253D01*
X20184Y68225D01*
X20125Y68196D01*
X20062Y68168D01*
X19997Y68142D01*
X19992Y68139D01*
X19981Y68135D01*
X19962Y68129D01*
X19933Y68120D01*
X19901Y68109D01*
X19861Y68098D01*
X19818Y68085D01*
X19770Y68072D01*
X19715Y68059D01*
X19659Y68046D01*
X19598Y68035D01*
X19534Y68024D01*
X19469Y68015D01*
X19401Y68009D01*
X19332Y68004D01*
X19262Y68002D01*
X19229D01*
X19216Y68004D01*
X19183D01*
X19142Y68009D01*
X19094Y68013D01*
X19039Y68020D01*
X18981Y68026D01*
X18917Y68037D01*
X18852Y68050D01*
X18785Y68068D01*
X18715Y68085D01*
X18643Y68109D01*
X18573Y68135D01*
X18503Y68166D01*
X18436Y68201D01*
X18431Y68203D01*
X18420Y68209D01*
X18403Y68222D01*
X18379Y68238D01*
X18349Y68257D01*
X18316Y68283D01*
X18279Y68312D01*
X18237Y68347D01*
X18196Y68384D01*
X18152Y68425D01*
X18109Y68473D01*
X18065Y68523D01*
X18022Y68578D01*
X17982Y68637D01*
X17943Y68700D01*
X17908Y68767D01*
X17906Y68772D01*
X17902Y68785D01*
X17893Y68804D01*
X17880Y68833D01*
X17867Y68868D01*
X17851Y68907D01*
X17836Y68955D01*
X17821Y69007D01*
X17804Y69064D01*
X17788Y69127D01*
X17773Y69192D01*
X17760Y69262D01*
X17749Y69336D01*
X17740Y69413D01*
X17734Y69491D01*
X17731Y69572D01*
Y69574D01*
Y69576D01*
Y69585D01*
Y69594D01*
Y69604D01*
X17734Y69618D01*
Y69650D01*
X17738Y69692D01*
X17742Y69740D01*
X17749Y69794D01*
X17755Y69853D01*
X17766Y69916D01*
X17779Y69984D01*
X17795Y70054D01*
X17814Y70123D01*
X17836Y70195D01*
X17862Y70267D01*
X17893Y70339D01*
X17928Y70409D01*
X17930Y70413D01*
X17936Y70424D01*
X17950Y70444D01*
X17965Y70470D01*
X17984Y70500D01*
X18011Y70535D01*
X18041Y70575D01*
X18074Y70616D01*
X18113Y70662D01*
X18157Y70708D01*
X18202Y70753D01*
X18255Y70801D01*
X18311Y70847D01*
X18372Y70891D01*
X18436Y70932D01*
X18505Y70971D01*
X18510Y70973D01*
X18519Y70978D01*
X18536Y70984D01*
X18558Y70995D01*
X18586Y71006D01*
X18621Y71019D01*
X18660Y71032D01*
X18704Y71048D01*
X18754Y71061D01*
X18811Y71074D01*
X18869Y71087D01*
X18933Y71098D01*
X19000Y71109D01*
X19074Y71115D01*
X19151Y71120D01*
X19229Y71122D01*
X19266D01*
X19284Y71120D01*
D02*
G37*
G36*
X23513Y68054D02*
X22903D01*
X21684Y70030D01*
Y68054D01*
X21119D01*
Y71072D01*
X21710D01*
X22948Y69051D01*
Y71072D01*
X23513D01*
Y68054D01*
D02*
G37*
G36*
X17254D02*
X16646D01*
Y71072D01*
X17254D01*
Y68054D01*
D02*
G37*
G36*
X13282Y70561D02*
X11654D01*
Y69892D01*
X13169D01*
Y69382D01*
X11654D01*
Y68565D01*
X13339D01*
Y68054D01*
X11045D01*
Y71072D01*
X13282D01*
Y70561D01*
D02*
G37*
G36*
X9206Y71069D02*
X9243D01*
X9282Y71067D01*
X9325Y71065D01*
X9371Y71061D01*
X9417Y71056D01*
X9513Y71048D01*
X9559Y71041D01*
X9605Y71032D01*
X9646Y71024D01*
X9685Y71013D01*
X9687D01*
X9696Y71008D01*
X9711Y71004D01*
X9729Y70998D01*
X9753Y70989D01*
X9779Y70978D01*
X9809Y70965D01*
X9842Y70950D01*
X9877Y70930D01*
X9914Y70910D01*
X9951Y70886D01*
X9990Y70862D01*
X10027Y70834D01*
X10067Y70803D01*
X10104Y70771D01*
X10141Y70734D01*
X10143Y70732D01*
X10149Y70725D01*
X10158Y70714D01*
X10171Y70699D01*
X10189Y70679D01*
X10206Y70655D01*
X10226Y70629D01*
X10248Y70599D01*
X10272Y70564D01*
X10293Y70527D01*
X10317Y70487D01*
X10341Y70444D01*
X10365Y70398D01*
X10387Y70350D01*
X10409Y70298D01*
X10429Y70245D01*
X10431Y70243D01*
X10433Y70232D01*
X10437Y70217D01*
X10444Y70193D01*
X10452Y70165D01*
X10461Y70132D01*
X10470Y70093D01*
X10479Y70049D01*
X10487Y69999D01*
X10496Y69945D01*
X10505Y69886D01*
X10514Y69823D01*
X10520Y69757D01*
X10524Y69685D01*
X10529Y69611D01*
Y69533D01*
Y69528D01*
Y69515D01*
Y69495D01*
X10527Y69469D01*
Y69439D01*
X10524Y69400D01*
X10520Y69358D01*
X10518Y69312D01*
X10511Y69264D01*
X10507Y69212D01*
X10490Y69105D01*
X10466Y68996D01*
X10452Y68944D01*
X10435Y68892D01*
X10433Y68887D01*
X10431Y68876D01*
X10424Y68859D01*
X10413Y68837D01*
X10402Y68809D01*
X10389Y68776D01*
X10372Y68741D01*
X10352Y68702D01*
X10330Y68660D01*
X10306Y68617D01*
X10280Y68573D01*
X10252Y68528D01*
X10219Y68484D01*
X10187Y68440D01*
X10152Y68397D01*
X10112Y68357D01*
X10110Y68355D01*
X10106Y68351D01*
X10095Y68342D01*
X10084Y68331D01*
X10067Y68318D01*
X10047Y68305D01*
X10025Y68288D01*
X9999Y68270D01*
X9971Y68251D01*
X9938Y68231D01*
X9903Y68212D01*
X9866Y68192D01*
X9825Y68172D01*
X9781Y68153D01*
X9735Y68135D01*
X9685Y68118D01*
X9683D01*
X9676Y68116D01*
X9663Y68111D01*
X9648Y68109D01*
X9629Y68103D01*
X9602Y68098D01*
X9574Y68092D01*
X9541Y68087D01*
X9504Y68081D01*
X9465Y68074D01*
X9419Y68070D01*
X9371Y68065D01*
X9319Y68061D01*
X9264Y68057D01*
X9206Y68054D01*
X8000D01*
Y71072D01*
X9173D01*
X9206Y71069D01*
D02*
G37*
G36*
X14264Y28502D02*
X12262D01*
X12264Y28500D01*
X12267Y28497D01*
X12273Y28491D01*
X12280Y28482D01*
X12290Y28471D01*
X12303Y28456D01*
X12315Y28439D01*
X12330Y28423D01*
X12345Y28400D01*
X12364Y28378D01*
X12380Y28354D01*
X12401Y28328D01*
X12419Y28299D01*
X12439Y28269D01*
X12480Y28203D01*
X12482Y28201D01*
X12486Y28195D01*
X12491Y28184D01*
X12497Y28171D01*
X12506Y28156D01*
X12517Y28138D01*
X12528Y28116D01*
X12541Y28093D01*
X12567Y28042D01*
X12593Y27986D01*
X12619Y27929D01*
X12641Y27873D01*
X12338D01*
X12336Y27877D01*
X12332Y27884D01*
X12325Y27899D01*
X12315Y27918D01*
X12304Y27940D01*
X12290Y27968D01*
X12273Y27997D01*
X12254Y28029D01*
X12232Y28064D01*
X12210Y28101D01*
X12158Y28178D01*
X12101Y28258D01*
X12038Y28334D01*
X12036Y28336D01*
X12031Y28343D01*
X12021Y28352D01*
X12008Y28365D01*
X11992Y28382D01*
X11973Y28400D01*
X11951Y28421D01*
X11929Y28443D01*
X11903Y28465D01*
X11875Y28489D01*
X11818Y28536D01*
X11757Y28578D01*
X11725Y28597D01*
X11694Y28613D01*
Y28817D01*
X14264D01*
Y28502D01*
D02*
G37*
G36*
X13246Y27194D02*
X13279D01*
X13316Y27192D01*
X13359Y27189D01*
X13403Y27185D01*
X13451Y27180D01*
X13501Y27174D01*
X13603Y27159D01*
X13655Y27148D01*
X13703Y27137D01*
X13751Y27122D01*
X13795Y27107D01*
X13797Y27106D01*
X13805Y27104D01*
X13818Y27098D01*
X13833Y27091D01*
X13853Y27080D01*
X13875Y27068D01*
X13899Y27054D01*
X13927Y27035D01*
X13956Y27015D01*
X13986Y26993D01*
X14016Y26967D01*
X14047Y26937D01*
X14078Y26906D01*
X14108Y26872D01*
X14138Y26834D01*
X14165Y26793D01*
X14167Y26791D01*
X14171Y26782D01*
X14178Y26769D01*
X14188Y26752D01*
X14199Y26728D01*
X14210Y26702D01*
X14223Y26669D01*
X14236Y26634D01*
X14249Y26591D01*
X14262Y26547D01*
X14273Y26499D01*
X14284Y26445D01*
X14293Y26388D01*
X14300Y26327D01*
X14304Y26264D01*
X14306Y26195D01*
Y26160D01*
X14304Y26136D01*
X14302Y26105D01*
X14299Y26070D01*
X14295Y26029D01*
X14291Y25986D01*
X14284Y25940D01*
X14277Y25892D01*
X14265Y25844D01*
X14254Y25794D01*
X14240Y25746D01*
X14223Y25696D01*
X14204Y25649D01*
X14182Y25605D01*
X14180Y25603D01*
X14177Y25596D01*
X14169Y25583D01*
X14160Y25568D01*
X14147Y25550D01*
X14130Y25527D01*
X14112Y25505D01*
X14092Y25479D01*
X14067Y25453D01*
X14040Y25426D01*
X14012Y25398D01*
X13979Y25372D01*
X13945Y25346D01*
X13906Y25322D01*
X13868Y25300D01*
X13825Y25280D01*
X13821Y25278D01*
X13814Y25276D01*
X13801Y25270D01*
X13782Y25265D01*
X13758Y25257D01*
X13729Y25250D01*
X13696Y25241D01*
X13657Y25231D01*
X13612Y25222D01*
X13564Y25213D01*
X13512Y25205D01*
X13455Y25198D01*
X13394Y25192D01*
X13327Y25187D01*
X13257Y25185D01*
X13183Y25183D01*
X11703D01*
Y25522D01*
X13181D01*
X13185D01*
X13196D01*
X13213D01*
X13235Y25524D01*
X13263D01*
X13294Y25526D01*
X13329Y25527D01*
X13368Y25529D01*
X13407Y25533D01*
X13448Y25537D01*
X13529Y25548D01*
X13568Y25555D01*
X13607Y25563D01*
X13642Y25572D01*
X13673Y25583D01*
X13675D01*
X13681Y25587D01*
X13688Y25590D01*
X13699Y25596D01*
X13712Y25601D01*
X13727Y25611D01*
X13762Y25633D01*
X13801Y25662D01*
X13821Y25679D01*
X13842Y25699D01*
X13862Y25720D01*
X13881Y25744D01*
X13899Y25768D01*
X13916Y25796D01*
Y25798D01*
X13919Y25803D01*
X13923Y25810D01*
X13929Y25823D01*
X13936Y25838D01*
X13943Y25855D01*
X13951Y25875D01*
X13958Y25899D01*
X13966Y25925D01*
X13973Y25953D01*
X13981Y25982D01*
X13988Y26016D01*
X13993Y26051D01*
X13997Y26088D01*
X13999Y26125D01*
X14001Y26166D01*
Y26182D01*
X13999Y26201D01*
Y26227D01*
X13995Y26258D01*
X13992Y26291D01*
X13986Y26330D01*
X13981Y26373D01*
X13971Y26415D01*
X13960Y26460D01*
X13945Y26504D01*
X13930Y26549D01*
X13910Y26591D01*
X13888Y26630D01*
X13862Y26667D01*
X13833Y26698D01*
X13831Y26700D01*
X13825Y26706D01*
X13814Y26713D01*
X13799Y26722D01*
X13779Y26735D01*
X13753Y26748D01*
X13723Y26763D01*
X13686Y26778D01*
X13646Y26793D01*
X13599Y26808D01*
X13546Y26820D01*
X13487Y26834D01*
X13420Y26843D01*
X13348Y26850D01*
X13268Y26856D01*
X13181Y26858D01*
X11703D01*
Y27196D01*
X13183D01*
X13185D01*
X13187D01*
X13192D01*
X13200D01*
X13209D01*
X13220D01*
X13246Y27194D01*
D02*
G37*
G36*
X53630Y61822D02*
X53657Y61820D01*
X53691Y61818D01*
X53728Y61813D01*
X53770Y61807D01*
X53818Y61800D01*
X53868Y61788D01*
X53920Y61776D01*
X53974Y61761D01*
X54027Y61740D01*
X54081Y61718D01*
X54137Y61692D01*
X54188Y61663D01*
X54238Y61628D01*
X54242Y61626D01*
X54249Y61618D01*
X54264Y61607D01*
X54281Y61591D01*
X54303Y61572D01*
X54327Y61546D01*
X54353Y61518D01*
X54382Y61485D01*
X54412Y61448D01*
X54444Y61407D01*
X54473Y61361D01*
X54503Y61313D01*
X54532Y61259D01*
X54558Y61202D01*
X54584Y61141D01*
X54605Y61076D01*
X54272Y60999D01*
X54270Y61002D01*
X54268Y61011D01*
X54262Y61024D01*
X54255Y61045D01*
X54246Y61067D01*
X54234Y61093D01*
X54220Y61123D01*
X54205Y61154D01*
X54188Y61187D01*
X54168Y61221D01*
X54148Y61254D01*
X54124Y61289D01*
X54098Y61321D01*
X54072Y61352D01*
X54042Y61380D01*
X54011Y61406D01*
X54009Y61407D01*
X54003Y61411D01*
X53994Y61417D01*
X53981Y61426D01*
X53964Y61435D01*
X53944Y61446D01*
X53920Y61457D01*
X53894Y61470D01*
X53865Y61481D01*
X53833Y61493D01*
X53798Y61504D01*
X53761Y61513D01*
X53720Y61522D01*
X53678Y61528D01*
X53633Y61531D01*
X53585Y61533D01*
X53557D01*
X53537Y61531D01*
X53511Y61529D01*
X53482Y61526D01*
X53448Y61522D01*
X53413Y61515D01*
X53374Y61507D01*
X53335Y61498D01*
X53295Y61487D01*
X53252Y61474D01*
X53211Y61457D01*
X53171Y61437D01*
X53130Y61417D01*
X53091Y61391D01*
X53089Y61389D01*
X53082Y61385D01*
X53073Y61376D01*
X53060Y61365D01*
X53043Y61350D01*
X53025Y61333D01*
X53004Y61313D01*
X52982Y61291D01*
X52960Y61265D01*
X52936Y61237D01*
X52914Y61206D01*
X52891Y61171D01*
X52869Y61136D01*
X52849Y61097D01*
X52830Y61056D01*
X52814Y61011D01*
Y61010D01*
X52810Y61000D01*
X52806Y60988D01*
X52801Y60971D01*
X52795Y60949D01*
X52788Y60923D01*
X52782Y60893D01*
X52775Y60860D01*
X52767Y60825D01*
X52760Y60786D01*
X52753Y60745D01*
X52747Y60703D01*
X52738Y60614D01*
X52736Y60567D01*
X52734Y60519D01*
Y60516D01*
Y60505D01*
Y60488D01*
X52736Y60464D01*
X52738Y60436D01*
X52740Y60403D01*
X52742Y60366D01*
X52745Y60327D01*
X52751Y60283D01*
X52756Y60236D01*
X52775Y60142D01*
X52784Y60092D01*
X52797Y60044D01*
X52812Y59996D01*
X52829Y59950D01*
X52830Y59948D01*
X52832Y59939D01*
X52838Y59927D01*
X52847Y59911D01*
X52856Y59890D01*
X52869Y59866D01*
X52884Y59841D01*
X52901Y59813D01*
X52921Y59785D01*
X52943Y59755D01*
X52967Y59724D01*
X52993Y59694D01*
X53023Y59665D01*
X53054Y59637D01*
X53088Y59611D01*
X53124Y59587D01*
X53126Y59585D01*
X53134Y59582D01*
X53145Y59576D01*
X53160Y59569D01*
X53178Y59559D01*
X53200Y59548D01*
X53226Y59539D01*
X53254Y59528D01*
X53285Y59515D01*
X53319Y59506D01*
X53356Y59495D01*
X53393Y59485D01*
X53434Y59478D01*
X53474Y59472D01*
X53517Y59469D01*
X53559Y59467D01*
X53572D01*
X53587Y59469D01*
X53607D01*
X53631Y59472D01*
X53659Y59476D01*
X53693Y59480D01*
X53726Y59487D01*
X53763Y59496D01*
X53802Y59508D01*
X53842Y59520D01*
X53883Y59535D01*
X53924Y59554D01*
X53964Y59576D01*
X54003Y59602D01*
X54042Y59630D01*
X54044Y59631D01*
X54051Y59637D01*
X54061Y59646D01*
X54074Y59661D01*
X54090Y59678D01*
X54109Y59698D01*
X54129Y59724D01*
X54149Y59752D01*
X54172Y59785D01*
X54194Y59820D01*
X54218Y59861D01*
X54238Y59905D01*
X54260Y59952D01*
X54279Y60003D01*
X54296Y60057D01*
X54310Y60116D01*
X54649Y60031D01*
Y60029D01*
X54647Y60026D01*
X54645Y60020D01*
X54643Y60013D01*
X54641Y60003D01*
X54638Y59990D01*
X54629Y59963D01*
X54616Y59927D01*
X54601Y59889D01*
X54582Y59844D01*
X54560Y59796D01*
X54536Y59744D01*
X54508Y59693D01*
X54477Y59641D01*
X54442Y59587D01*
X54403Y59535D01*
X54360Y59485D01*
X54314Y59439D01*
X54264Y59395D01*
X54260Y59393D01*
X54251Y59385D01*
X54236Y59374D01*
X54214Y59361D01*
X54188Y59345D01*
X54155Y59326D01*
X54118Y59306D01*
X54075Y59285D01*
X54029Y59265D01*
X53977Y59245D01*
X53922Y59226D01*
X53863Y59210D01*
X53798Y59197D01*
X53731Y59186D01*
X53661Y59178D01*
X53587Y59176D01*
X53559D01*
X53546Y59178D01*
X53519D01*
X53483Y59182D01*
X53443Y59186D01*
X53396Y59191D01*
X53348Y59197D01*
X53295Y59206D01*
X53241Y59217D01*
X53184Y59232D01*
X53128Y59247D01*
X53073Y59267D01*
X53017Y59289D01*
X52964Y59315D01*
X52914Y59345D01*
X52910Y59346D01*
X52903Y59352D01*
X52890Y59363D01*
X52871Y59376D01*
X52849Y59393D01*
X52825Y59415D01*
X52797Y59439D01*
X52767Y59469D01*
X52736Y59502D01*
X52705Y59537D01*
X52671Y59578D01*
X52638Y59620D01*
X52606Y59668D01*
X52575Y59718D01*
X52545Y59774D01*
X52520Y59831D01*
Y59833D01*
X52518Y59835D01*
X52514Y59846D01*
X52507Y59863D01*
X52499Y59887D01*
X52488Y59916D01*
X52477Y59952D01*
X52464Y59992D01*
X52453Y60037D01*
X52440Y60087D01*
X52427Y60140D01*
X52416Y60196D01*
X52405Y60257D01*
X52398Y60318D01*
X52390Y60382D01*
X52386Y60449D01*
X52385Y60518D01*
Y60519D01*
Y60523D01*
Y60529D01*
Y60536D01*
Y60545D01*
X52386Y60556D01*
Y60584D01*
X52390Y60619D01*
X52392Y60660D01*
X52398Y60706D01*
X52403Y60756D01*
X52412Y60808D01*
X52421Y60864D01*
X52434Y60923D01*
X52449Y60982D01*
X52466Y61041D01*
X52486Y61100D01*
X52510Y61158D01*
X52536Y61215D01*
X52538Y61219D01*
X52544Y61228D01*
X52553Y61243D01*
X52564Y61265D01*
X52581Y61289D01*
X52599Y61317D01*
X52623Y61350D01*
X52649Y61383D01*
X52677Y61418D01*
X52710Y61457D01*
X52745Y61494D01*
X52784Y61531D01*
X52827Y61568D01*
X52871Y61603D01*
X52919Y61637D01*
X52971Y61668D01*
X52975Y61670D01*
X52984Y61676D01*
X52999Y61683D01*
X53021Y61692D01*
X53047Y61705D01*
X53078Y61718D01*
X53115Y61731D01*
X53154Y61746D01*
X53198Y61761D01*
X53247Y61774D01*
X53298Y61788D01*
X53352Y61800D01*
X53409Y61809D01*
X53469Y61816D01*
X53530Y61822D01*
X53593Y61824D01*
X53619D01*
X53630Y61822D01*
D02*
G37*
G36*
X56616Y61502D02*
X56614Y61498D01*
X56604Y61491D01*
X56591Y61474D01*
X56573Y61454D01*
X56551Y61428D01*
X56525Y61396D01*
X56495Y61359D01*
X56464Y61317D01*
X56429Y61270D01*
X56390Y61219D01*
X56349Y61161D01*
X56308Y61100D01*
X56264Y61034D01*
X56221Y60963D01*
X56175Y60889D01*
X56131Y60810D01*
Y60808D01*
X56129Y60804D01*
X56125Y60799D01*
X56120Y60791D01*
X56114Y60780D01*
X56109Y60767D01*
X56099Y60752D01*
X56092Y60736D01*
X56081Y60717D01*
X56072Y60695D01*
X56047Y60649D01*
X56022Y60597D01*
X55994Y60538D01*
X55964Y60473D01*
X55935Y60403D01*
X55903Y60331D01*
X55874Y60253D01*
X55842Y60173D01*
X55814Y60092D01*
X55787Y60007D01*
X55761Y59922D01*
X55759Y59918D01*
X55757Y59907D01*
X55752Y59890D01*
X55746Y59866D01*
X55739Y59835D01*
X55729Y59800D01*
X55720Y59759D01*
X55711Y59713D01*
X55700Y59663D01*
X55690Y59609D01*
X55679Y59550D01*
X55670Y59489D01*
X55661Y59426D01*
X55654Y59360D01*
X55646Y59289D01*
X55641Y59219D01*
X55317D01*
Y59223D01*
Y59232D01*
X55319Y59250D01*
Y59272D01*
X55321Y59302D01*
X55324Y59337D01*
X55328Y59378D01*
X55333Y59422D01*
X55339Y59474D01*
X55346Y59530D01*
X55356Y59589D01*
X55367Y59654D01*
X55382Y59722D01*
X55396Y59794D01*
X55413Y59870D01*
X55433Y59948D01*
Y59950D01*
X55435Y59953D01*
X55437Y59959D01*
X55439Y59966D01*
X55443Y59977D01*
X55446Y59990D01*
X55450Y60005D01*
X55455Y60022D01*
X55467Y60059D01*
X55481Y60105D01*
X55498Y60155D01*
X55517Y60212D01*
X55539Y60273D01*
X55563Y60338D01*
X55591Y60407D01*
X55618Y60477D01*
X55650Y60549D01*
X55685Y60623D01*
X55720Y60699D01*
X55759Y60773D01*
Y60775D01*
X55761Y60777D01*
X55765Y60782D01*
X55768Y60791D01*
X55774Y60801D01*
X55781Y60812D01*
X55796Y60839D01*
X55816Y60873D01*
X55839Y60913D01*
X55866Y60958D01*
X55896Y61006D01*
X55927Y61058D01*
X55962Y61111D01*
X56001Y61167D01*
X56040Y61224D01*
X56123Y61337D01*
X56168Y61393D01*
X56212Y61444D01*
X54958D01*
Y61746D01*
X56616D01*
Y61502D01*
D02*
G37*
G36*
X36021Y63880D02*
X36019D01*
X36015D01*
X36010D01*
X36002D01*
X35991D01*
X35980Y63882D01*
X35950Y63884D01*
X35919Y63887D01*
X35882Y63893D01*
X35843Y63902D01*
X35804Y63915D01*
X35802D01*
X35797Y63919D01*
X35788Y63922D01*
X35775Y63928D01*
X35758Y63933D01*
X35739Y63943D01*
X35719Y63954D01*
X35697Y63965D01*
X35671Y63978D01*
X35645Y63995D01*
X35588Y64030D01*
X35527Y64072D01*
X35464Y64122D01*
X35462Y64124D01*
X35456Y64130D01*
X35447Y64137D01*
X35434Y64148D01*
X35418Y64163D01*
X35399Y64181D01*
X35377Y64202D01*
X35353Y64228D01*
X35325Y64255D01*
X35296Y64285D01*
X35264Y64318D01*
X35229Y64355D01*
X35194Y64396D01*
X35157Y64438D01*
X35118Y64485D01*
X35077Y64533D01*
X35075Y64535D01*
X35074Y64539D01*
X35068Y64544D01*
X35062Y64551D01*
X35053Y64561D01*
X35044Y64572D01*
X35020Y64600D01*
X34992Y64635D01*
X34957Y64672D01*
X34920Y64714D01*
X34879Y64759D01*
X34837Y64807D01*
X34792Y64853D01*
X34748Y64901D01*
X34702Y64946D01*
X34657Y64990D01*
X34615Y65029D01*
X34572Y65066D01*
X34533Y65095D01*
X34532Y65097D01*
X34524Y65101D01*
X34513Y65108D01*
X34500Y65119D01*
X34481Y65130D01*
X34461Y65141D01*
X34437Y65156D01*
X34411Y65169D01*
X34383Y65182D01*
X34354Y65197D01*
X34289Y65221D01*
X34256Y65230D01*
X34222Y65238D01*
X34189Y65241D01*
X34156Y65243D01*
X34154D01*
X34147D01*
X34137D01*
X34124Y65241D01*
X34108Y65240D01*
X34089Y65236D01*
X34069Y65232D01*
X34047Y65227D01*
X34023Y65219D01*
X33997Y65210D01*
X33971Y65199D01*
X33945Y65186D01*
X33917Y65171D01*
X33891Y65153D01*
X33865Y65132D01*
X33841Y65108D01*
X33840Y65106D01*
X33836Y65103D01*
X33830Y65095D01*
X33821Y65084D01*
X33812Y65071D01*
X33801Y65055D01*
X33788Y65036D01*
X33777Y65016D01*
X33764Y64992D01*
X33753Y64966D01*
X33742Y64936D01*
X33732Y64907D01*
X33723Y64873D01*
X33718Y64838D01*
X33714Y64801D01*
X33712Y64762D01*
Y64740D01*
X33714Y64725D01*
X33716Y64705D01*
X33719Y64683D01*
X33723Y64659D01*
X33729Y64631D01*
X33736Y64603D01*
X33745Y64574D01*
X33756Y64544D01*
X33769Y64512D01*
X33786Y64483D01*
X33804Y64453D01*
X33825Y64424D01*
X33849Y64398D01*
X33851Y64396D01*
X33854Y64392D01*
X33864Y64385D01*
X33873Y64377D01*
X33888Y64366D01*
X33904Y64355D01*
X33925Y64342D01*
X33947Y64331D01*
X33971Y64318D01*
X34001Y64305D01*
X34030Y64294D01*
X34063Y64283D01*
X34100Y64276D01*
X34139Y64268D01*
X34180Y64265D01*
X34224Y64263D01*
X34191Y63939D01*
X34189D01*
X34187D01*
X34182Y63941D01*
X34174D01*
X34156Y63943D01*
X34132Y63948D01*
X34102Y63954D01*
X34067Y63961D01*
X34028Y63971D01*
X33988Y63982D01*
X33943Y63996D01*
X33899Y64013D01*
X33852Y64033D01*
X33806Y64057D01*
X33762Y64083D01*
X33719Y64115D01*
X33679Y64148D01*
X33642Y64187D01*
X33640Y64189D01*
X33634Y64196D01*
X33623Y64209D01*
X33612Y64226D01*
X33597Y64248D01*
X33581Y64274D01*
X33564Y64305D01*
X33545Y64341D01*
X33529Y64381D01*
X33512Y64424D01*
X33496Y64472D01*
X33481Y64524D01*
X33468Y64579D01*
X33459Y64638D01*
X33453Y64701D01*
X33451Y64768D01*
Y64784D01*
X33453Y64803D01*
X33455Y64829D01*
X33457Y64860D01*
X33462Y64895D01*
X33468Y64936D01*
X33477Y64979D01*
X33488Y65025D01*
X33501Y65071D01*
X33518Y65121D01*
X33538Y65169D01*
X33562Y65217D01*
X33588Y65264D01*
X33619Y65308D01*
X33656Y65351D01*
X33658Y65352D01*
X33666Y65360D01*
X33677Y65371D01*
X33693Y65384D01*
X33712Y65400D01*
X33736Y65419D01*
X33764Y65439D01*
X33795Y65460D01*
X33830Y65478D01*
X33869Y65499D01*
X33912Y65517D01*
X33956Y65534D01*
X34004Y65547D01*
X34054Y65558D01*
X34108Y65565D01*
X34163Y65567D01*
X34165D01*
X34171D01*
X34178D01*
X34189D01*
X34204Y65565D01*
X34219Y65563D01*
X34237Y65561D01*
X34258Y65560D01*
X34304Y65552D01*
X34356Y65541D01*
X34409Y65525D01*
X34465Y65504D01*
X34467D01*
X34472Y65500D01*
X34480Y65497D01*
X34491Y65491D01*
X34504Y65486D01*
X34520Y65476D01*
X34539Y65467D01*
X34559Y65454D01*
X34581Y65441D01*
X34606Y65426D01*
X34659Y65389D01*
X34687Y65369D01*
X34716Y65347D01*
X34746Y65321D01*
X34778Y65295D01*
X34779Y65293D01*
X34785Y65288D01*
X34794Y65280D01*
X34807Y65267D01*
X34824Y65251D01*
X34844Y65230D01*
X34868Y65208D01*
X34896Y65180D01*
X34925Y65149D01*
X34959Y65112D01*
X34996Y65073D01*
X35037Y65029D01*
X35079Y64981D01*
X35125Y64929D01*
X35175Y64872D01*
X35227Y64810D01*
X35229Y64807D01*
X35238Y64798D01*
X35249Y64784D01*
X35266Y64766D01*
X35284Y64742D01*
X35307Y64718D01*
X35331Y64690D01*
X35357Y64661D01*
X35410Y64598D01*
X35438Y64568D01*
X35464Y64539D01*
X35490Y64511D01*
X35512Y64487D01*
X35532Y64464D01*
X35551Y64448D01*
X35555Y64444D01*
X35566Y64435D01*
X35582Y64420D01*
X35603Y64402D01*
X35629Y64381D01*
X35656Y64359D01*
X35688Y64337D01*
X35719Y64316D01*
Y65571D01*
X36021D01*
Y63880D01*
D02*
G37*
G36*
Y63297D02*
X35488Y62959D01*
X35486Y62957D01*
X35479Y62951D01*
X35466Y62944D01*
X35451Y62934D01*
X35431Y62922D01*
X35408Y62907D01*
X35384Y62890D01*
X35358Y62874D01*
X35301Y62835D01*
X35242Y62794D01*
X35186Y62753D01*
X35160Y62733D01*
X35136Y62714D01*
X35135Y62713D01*
X35131Y62711D01*
X35125Y62705D01*
X35116Y62698D01*
X35094Y62679D01*
X35068Y62657D01*
X35040Y62629D01*
X35011Y62602D01*
X34985Y62572D01*
X34964Y62542D01*
X34962Y62539D01*
X34957Y62529D01*
X34948Y62515D01*
X34938Y62494D01*
X34927Y62472D01*
X34914Y62446D01*
X34905Y62418D01*
X34896Y62389D01*
Y62387D01*
X34894Y62378D01*
X34892Y62363D01*
X34888Y62344D01*
X34887Y62318D01*
X34885Y62285D01*
X34883Y62246D01*
Y61808D01*
X36021D01*
Y61469D01*
X33460D01*
Y62637D01*
X33462Y62659D01*
Y62688D01*
X33464Y62722D01*
X33466Y62757D01*
X33470Y62798D01*
X33473Y62838D01*
X33477Y62881D01*
X33490Y62968D01*
X33497Y63008D01*
X33507Y63049D01*
X33518Y63088D01*
X33531Y63123D01*
Y63125D01*
X33534Y63131D01*
X33538Y63140D01*
X33544Y63153D01*
X33551Y63168D01*
X33562Y63184D01*
X33573Y63205D01*
X33586Y63225D01*
X33603Y63247D01*
X33619Y63271D01*
X33640Y63295D01*
X33662Y63319D01*
X33688Y63341D01*
X33714Y63366D01*
X33743Y63388D01*
X33775Y63408D01*
X33777Y63410D01*
X33782Y63414D01*
X33792Y63417D01*
X33804Y63425D01*
X33821Y63432D01*
X33841Y63441D01*
X33864Y63453D01*
X33888Y63462D01*
X33915Y63471D01*
X33945Y63482D01*
X33977Y63491D01*
X34010Y63499D01*
X34045Y63506D01*
X34082Y63512D01*
X34121Y63513D01*
X34160Y63515D01*
X34163D01*
X34171D01*
X34185Y63513D01*
X34206D01*
X34228Y63510D01*
X34256Y63506D01*
X34285Y63501D01*
X34319Y63493D01*
X34354Y63484D01*
X34391Y63473D01*
X34430Y63458D01*
X34469Y63441D01*
X34507Y63421D01*
X34544Y63397D01*
X34583Y63369D01*
X34618Y63338D01*
X34620Y63336D01*
X34626Y63330D01*
X34635Y63319D01*
X34648Y63305D01*
X34663Y63286D01*
X34679Y63262D01*
X34698Y63236D01*
X34718Y63205D01*
X34739Y63168D01*
X34759Y63129D01*
X34778Y63082D01*
X34798Y63034D01*
X34815Y62981D01*
X34831Y62923D01*
X34844Y62861D01*
X34855Y62794D01*
Y62796D01*
X34859Y62800D01*
X34861Y62807D01*
X34866Y62816D01*
X34872Y62827D01*
X34879Y62840D01*
X34896Y62870D01*
X34914Y62903D01*
X34937Y62936D01*
X34959Y62968D01*
X34983Y62997D01*
X34985Y62999D01*
X34988Y63005D01*
X34998Y63012D01*
X35007Y63023D01*
X35022Y63036D01*
X35037Y63051D01*
X35055Y63070D01*
X35077Y63088D01*
X35101Y63108D01*
X35127Y63131D01*
X35155Y63155D01*
X35184Y63179D01*
X35218Y63203D01*
X35251Y63229D01*
X35325Y63279D01*
X36021Y63721D01*
Y63297D01*
D02*
G37*
G36*
X49317Y53215D02*
X49002D01*
Y55217D01*
X49000Y55215D01*
X48997Y55211D01*
X48991Y55206D01*
X48982Y55198D01*
X48971Y55189D01*
X48956Y55176D01*
X48939Y55163D01*
X48923Y55148D01*
X48900Y55134D01*
X48878Y55115D01*
X48854Y55098D01*
X48828Y55078D01*
X48799Y55060D01*
X48769Y55039D01*
X48702Y54999D01*
X48701Y54997D01*
X48695Y54993D01*
X48684Y54988D01*
X48671Y54982D01*
X48656Y54973D01*
X48638Y54962D01*
X48616Y54950D01*
X48593Y54937D01*
X48542Y54912D01*
X48486Y54886D01*
X48429Y54860D01*
X48373Y54838D01*
Y55141D01*
X48377Y55143D01*
X48384Y55147D01*
X48399Y55154D01*
X48418Y55163D01*
X48440Y55174D01*
X48467Y55189D01*
X48497Y55206D01*
X48529Y55224D01*
X48564Y55247D01*
X48601Y55269D01*
X48678Y55321D01*
X48758Y55378D01*
X48834Y55441D01*
X48836Y55443D01*
X48843Y55448D01*
X48852Y55457D01*
X48865Y55470D01*
X48882Y55487D01*
X48900Y55506D01*
X48921Y55528D01*
X48943Y55550D01*
X48965Y55576D01*
X48989Y55603D01*
X49036Y55661D01*
X49078Y55722D01*
X49097Y55753D01*
X49113Y55785D01*
X49317D01*
Y53215D01*
D02*
G37*
G36*
X46873Y55774D02*
X46902D01*
X46936Y55772D01*
X46971Y55770D01*
X47012Y55766D01*
X47052Y55763D01*
X47095Y55759D01*
X47182Y55746D01*
X47223Y55739D01*
X47263Y55729D01*
X47302Y55718D01*
X47337Y55705D01*
X47339D01*
X47345Y55702D01*
X47354Y55698D01*
X47367Y55692D01*
X47382Y55685D01*
X47398Y55674D01*
X47419Y55663D01*
X47439Y55650D01*
X47461Y55633D01*
X47485Y55616D01*
X47509Y55596D01*
X47533Y55574D01*
X47556Y55548D01*
X47580Y55522D01*
X47602Y55493D01*
X47622Y55461D01*
X47624Y55459D01*
X47628Y55454D01*
X47631Y55444D01*
X47639Y55431D01*
X47646Y55415D01*
X47655Y55395D01*
X47666Y55372D01*
X47676Y55348D01*
X47685Y55321D01*
X47696Y55291D01*
X47705Y55259D01*
X47713Y55226D01*
X47720Y55191D01*
X47726Y55154D01*
X47728Y55115D01*
X47729Y55076D01*
Y55073D01*
Y55065D01*
X47728Y55050D01*
Y55030D01*
X47724Y55008D01*
X47720Y54980D01*
X47715Y54950D01*
X47707Y54917D01*
X47698Y54882D01*
X47687Y54845D01*
X47672Y54806D01*
X47655Y54767D01*
X47635Y54729D01*
X47611Y54691D01*
X47583Y54653D01*
X47552Y54618D01*
X47550Y54616D01*
X47544Y54610D01*
X47533Y54601D01*
X47519Y54588D01*
X47500Y54573D01*
X47476Y54556D01*
X47450Y54538D01*
X47419Y54518D01*
X47382Y54497D01*
X47343Y54477D01*
X47297Y54458D01*
X47248Y54438D01*
X47195Y54421D01*
X47137Y54405D01*
X47074Y54392D01*
X47008Y54381D01*
X47010D01*
X47014Y54377D01*
X47021Y54375D01*
X47030Y54370D01*
X47041Y54364D01*
X47054Y54357D01*
X47084Y54340D01*
X47117Y54321D01*
X47150Y54299D01*
X47182Y54277D01*
X47211Y54253D01*
X47213Y54251D01*
X47219Y54247D01*
X47226Y54238D01*
X47237Y54229D01*
X47250Y54214D01*
X47265Y54199D01*
X47284Y54181D01*
X47302Y54159D01*
X47322Y54135D01*
X47345Y54109D01*
X47369Y54081D01*
X47393Y54051D01*
X47417Y54018D01*
X47443Y53985D01*
X47493Y53911D01*
X47935Y53215D01*
X47511D01*
X47173Y53748D01*
X47171Y53750D01*
X47165Y53757D01*
X47158Y53770D01*
X47148Y53785D01*
X47136Y53805D01*
X47121Y53828D01*
X47104Y53852D01*
X47087Y53878D01*
X47049Y53935D01*
X47008Y53994D01*
X46967Y54049D01*
X46947Y54075D01*
X46928Y54100D01*
X46927Y54101D01*
X46925Y54105D01*
X46919Y54111D01*
X46912Y54120D01*
X46893Y54142D01*
X46871Y54168D01*
X46843Y54196D01*
X46815Y54225D01*
X46786Y54251D01*
X46756Y54272D01*
X46753Y54273D01*
X46743Y54279D01*
X46729Y54288D01*
X46708Y54297D01*
X46686Y54308D01*
X46660Y54321D01*
X46632Y54331D01*
X46603Y54340D01*
X46601D01*
X46592Y54342D01*
X46577Y54344D01*
X46558Y54347D01*
X46532Y54349D01*
X46499Y54351D01*
X46460Y54353D01*
X46022D01*
Y53215D01*
X45683D01*
Y55776D01*
X46851D01*
X46873Y55774D01*
D02*
G37*
%LPC*%
G36*
X18538Y12101D02*
X17829Y11833D01*
X17828D01*
X17826Y11831D01*
X17815Y11828D01*
X17798Y11822D01*
X17776Y11813D01*
X17748Y11803D01*
X17717Y11790D01*
X17680Y11779D01*
X17641Y11765D01*
X17600Y11750D01*
X17558Y11735D01*
X17469Y11705D01*
X17380Y11676D01*
X17337Y11663D01*
X17297Y11652D01*
X17300D01*
X17308Y11650D01*
X17321Y11646D01*
X17339Y11643D01*
X17361Y11637D01*
X17387Y11631D01*
X17417Y11624D01*
X17450Y11617D01*
X17487Y11605D01*
X17526Y11596D01*
X17565Y11585D01*
X17607Y11572D01*
X17696Y11544D01*
X17787Y11513D01*
X18538Y11232D01*
Y12101D01*
D02*
G37*
G36*
X47164Y12879D02*
X47162D01*
X47157D01*
X47149D01*
X47136Y12877D01*
X47123D01*
X47107Y12875D01*
X47088Y12872D01*
X47069Y12870D01*
X47027Y12859D01*
X46981Y12844D01*
X46935Y12825D01*
X46912Y12812D01*
X46890Y12798D01*
X46888D01*
X46885Y12794D01*
X46879Y12788D01*
X46872Y12783D01*
X46851Y12764D01*
X46827Y12740D01*
X46803Y12709D01*
X46777Y12674D01*
X46755Y12631D01*
X46738Y12583D01*
Y12581D01*
X46736Y12579D01*
Y12574D01*
X46735Y12566D01*
X46733Y12557D01*
X46731Y12544D01*
X46729Y12529D01*
X46725Y12511D01*
X46724Y12490D01*
X46722Y12468D01*
X46720Y12442D01*
X46718Y12413D01*
X46716Y12381D01*
Y12346D01*
X46714Y12309D01*
Y11614D01*
X47630D01*
Y12306D01*
X47628Y12328D01*
X47626Y12354D01*
X47623Y12385D01*
X47619Y12418D01*
X47615Y12455D01*
X47600Y12531D01*
X47591Y12570D01*
X47578Y12609D01*
X47565Y12646D01*
X47549Y12681D01*
X47530Y12712D01*
X47508Y12740D01*
X47506Y12742D01*
X47502Y12746D01*
X47495Y12753D01*
X47486Y12763D01*
X47473Y12772D01*
X47458Y12785D01*
X47440Y12798D01*
X47419Y12811D01*
X47395Y12823D01*
X47371Y12835D01*
X47341Y12848D01*
X47312Y12857D01*
X47279Y12866D01*
X47242Y12874D01*
X47205Y12877D01*
X47164Y12879D01*
D02*
G37*
G36*
X16041Y43121D02*
X15238Y41967D01*
X16041D01*
Y43121D01*
D02*
G37*
G36*
X57531Y72791D02*
X57513D01*
X57494Y72786D01*
X57467Y72782D01*
X57439Y72773D01*
X57408Y72763D01*
X57376Y72745D01*
X57343Y72723D01*
X57339Y72721D01*
X57330Y72710D01*
X57315Y72693D01*
X57295Y72669D01*
X57275Y72636D01*
X57265Y72616D01*
X57254Y72595D01*
X57243Y72571D01*
X57234Y72542D01*
X57223Y72514D01*
X57214Y72483D01*
Y72481D01*
X57212Y72473D01*
X57210Y72460D01*
X57206Y72440D01*
X57201Y72416D01*
X57195Y72385D01*
X57191Y72348D01*
X57186Y72305D01*
X57180Y72257D01*
X57175Y72200D01*
X57169Y72139D01*
X57164Y72071D01*
X57162Y71995D01*
X57158Y71914D01*
X57156Y71825D01*
Y71729D01*
Y71727D01*
Y71723D01*
Y71716D01*
Y71705D01*
Y71694D01*
Y71679D01*
Y71642D01*
X57158Y71601D01*
Y71551D01*
X57160Y71496D01*
X57162Y71439D01*
X57164Y71378D01*
X57169Y71317D01*
X57173Y71256D01*
X57177Y71197D01*
X57184Y71141D01*
X57191Y71088D01*
X57199Y71040D01*
X57208Y70999D01*
Y70997D01*
X57210Y70990D01*
X57214Y70979D01*
X57219Y70966D01*
X57223Y70951D01*
X57230Y70934D01*
X57245Y70892D01*
X57265Y70849D01*
X57289Y70805D01*
X57315Y70766D01*
X57328Y70748D01*
X57343Y70735D01*
X57348Y70733D01*
X57358Y70724D01*
X57376Y70715D01*
X57398Y70702D01*
X57426Y70692D01*
X57456Y70681D01*
X57494Y70672D01*
X57531Y70670D01*
X57535D01*
X57548Y70672D01*
X57568Y70674D01*
X57594Y70679D01*
X57622Y70685D01*
X57655Y70698D01*
X57685Y70713D01*
X57718Y70735D01*
X57722Y70740D01*
X57731Y70748D01*
X57746Y70766D01*
X57766Y70790D01*
X57786Y70824D01*
X57797Y70844D01*
X57807Y70866D01*
X57818Y70890D01*
X57827Y70916D01*
X57838Y70944D01*
X57847Y70975D01*
Y70977D01*
X57849Y70986D01*
X57853Y70999D01*
X57855Y71018D01*
X57862Y71043D01*
X57866Y71073D01*
X57871Y71110D01*
X57877Y71154D01*
X57884Y71202D01*
X57888Y71256D01*
X57895Y71319D01*
X57899Y71387D01*
X57901Y71461D01*
X57906Y71544D01*
X57908Y71633D01*
Y71729D01*
Y71731D01*
Y71736D01*
Y71742D01*
Y71753D01*
Y71764D01*
Y71779D01*
Y71814D01*
X57906Y71858D01*
Y71908D01*
X57903Y71960D01*
X57901Y72019D01*
X57899Y72078D01*
X57895Y72139D01*
X57890Y72200D01*
X57884Y72259D01*
X57879Y72316D01*
X57871Y72370D01*
X57862Y72416D01*
X57853Y72457D01*
Y72460D01*
X57851Y72466D01*
X57847Y72477D01*
X57845Y72490D01*
X57838Y72505D01*
X57831Y72523D01*
X57816Y72564D01*
X57797Y72610D01*
X57773Y72654D01*
X57746Y72693D01*
X57731Y72710D01*
X57716Y72723D01*
X57711Y72725D01*
X57703Y72734D01*
X57685Y72745D01*
X57664Y72758D01*
X57635Y72769D01*
X57605Y72780D01*
X57568Y72789D01*
X57531Y72791D01*
D02*
G37*
G36*
X47117Y74313D02*
X46709Y73195D01*
X47536D01*
X47117Y74313D01*
D02*
G37*
G36*
X41030Y74507D02*
X40690D01*
Y72510D01*
X41209D01*
X41233Y72512D01*
X41259D01*
X41288Y72514D01*
X41349Y72517D01*
X41410Y72523D01*
X41467Y72530D01*
X41493Y72534D01*
X41515Y72539D01*
X41517D01*
X41521Y72541D01*
X41530Y72543D01*
X41538Y72545D01*
X41552Y72549D01*
X41567Y72556D01*
X41602Y72569D01*
X41641Y72584D01*
X41680Y72606D01*
X41722Y72632D01*
X41761Y72663D01*
X41763Y72665D01*
X41765Y72667D01*
X41769Y72671D01*
X41778Y72680D01*
X41785Y72689D01*
X41796Y72702D01*
X41807Y72715D01*
X41818Y72733D01*
X41831Y72752D01*
X41844Y72774D01*
X41857Y72798D01*
X41870Y72824D01*
X41883Y72852D01*
X41896Y72885D01*
X41909Y72918D01*
X41920Y72955D01*
Y72957D01*
X41922Y72964D01*
X41927Y72977D01*
X41931Y72992D01*
X41935Y73011D01*
X41940Y73038D01*
X41946Y73066D01*
X41953Y73101D01*
X41957Y73138D01*
X41963Y73179D01*
X41968Y73223D01*
X41974Y73273D01*
X41977Y73325D01*
X41981Y73382D01*
X41983Y73443D01*
Y73506D01*
Y73511D01*
Y73522D01*
Y73539D01*
Y73563D01*
X41981Y73594D01*
Y73626D01*
X41979Y73663D01*
X41974Y73705D01*
X41972Y73746D01*
X41968Y73790D01*
X41957Y73879D01*
X41948Y73923D01*
X41942Y73966D01*
X41931Y74006D01*
X41920Y74043D01*
Y74045D01*
X41918Y74051D01*
X41913Y74060D01*
X41909Y74073D01*
X41903Y74088D01*
X41894Y74108D01*
X41876Y74150D01*
X41850Y74197D01*
X41822Y74245D01*
X41787Y74291D01*
X41748Y74335D01*
X41745Y74337D01*
X41743Y74339D01*
X41737Y74346D01*
X41728Y74352D01*
X41717Y74361D01*
X41704Y74370D01*
X41671Y74392D01*
X41630Y74415D01*
X41582Y74439D01*
X41525Y74459D01*
X41464Y74476D01*
X41462D01*
X41458Y74479D01*
X41449D01*
X41438Y74481D01*
X41423Y74483D01*
X41403Y74485D01*
X41381Y74490D01*
X41353Y74492D01*
X41323Y74494D01*
X41286Y74498D01*
X41244Y74501D01*
X41198Y74503D01*
X41148Y74505D01*
X41091D01*
X41030Y74507D01*
D02*
G37*
G36*
X38221Y74313D02*
X37813Y73195D01*
X38639D01*
X38221Y74313D01*
D02*
G37*
G36*
X35260Y74507D02*
X34608D01*
Y73742D01*
X35127D01*
X35162Y73744D01*
X35245D01*
X35291Y73746D01*
X35384Y73751D01*
X35430Y73753D01*
X35474Y73757D01*
X35513Y73761D01*
X35550Y73766D01*
X35581Y73770D01*
X35605Y73777D01*
X35607D01*
X35609Y73779D01*
X35622Y73783D01*
X35642Y73794D01*
X35668Y73807D01*
X35694Y73825D01*
X35722Y73847D01*
X35750Y73873D01*
X35774Y73905D01*
X35777Y73910D01*
X35785Y73923D01*
X35794Y73942D01*
X35807Y73968D01*
X35818Y74001D01*
X35829Y74041D01*
X35836Y74084D01*
X35838Y74132D01*
Y74134D01*
Y74139D01*
Y74147D01*
X35836Y74158D01*
Y74171D01*
X35833Y74184D01*
X35827Y74219D01*
X35818Y74259D01*
X35803Y74300D01*
X35783Y74339D01*
X35755Y74376D01*
Y74378D01*
X35750Y74381D01*
X35740Y74392D01*
X35722Y74407D01*
X35696Y74426D01*
X35663Y74446D01*
X35624Y74466D01*
X35578Y74483D01*
X35526Y74496D01*
X35517D01*
X35509Y74498D01*
X35498D01*
X35482Y74501D01*
X35465D01*
X35443Y74503D01*
X35384D01*
X35349Y74505D01*
X35308D01*
X35260Y74507D01*
D02*
G37*
G36*
X28613Y74559D02*
X27962D01*
Y73794D01*
X28480D01*
X28515Y73796D01*
X28598D01*
X28644Y73799D01*
X28738Y73803D01*
X28783Y73805D01*
X28827Y73809D01*
X28866Y73814D01*
X28903Y73818D01*
X28934Y73822D01*
X28958Y73829D01*
X28960D01*
X28962Y73831D01*
X28975Y73836D01*
X28995Y73847D01*
X29021Y73860D01*
X29047Y73877D01*
X29076Y73899D01*
X29104Y73925D01*
X29128Y73958D01*
X29130Y73962D01*
X29139Y73975D01*
X29147Y73995D01*
X29160Y74021D01*
X29171Y74054D01*
X29182Y74093D01*
X29189Y74136D01*
X29191Y74184D01*
Y74186D01*
Y74191D01*
Y74200D01*
X29189Y74211D01*
Y74224D01*
X29187Y74237D01*
X29180Y74272D01*
X29171Y74311D01*
X29156Y74352D01*
X29136Y74392D01*
X29108Y74428D01*
Y74431D01*
X29104Y74433D01*
X29093Y74444D01*
X29076Y74459D01*
X29049Y74479D01*
X29017Y74498D01*
X28977Y74518D01*
X28932Y74535D01*
X28879Y74548D01*
X28871D01*
X28862Y74551D01*
X28851D01*
X28836Y74553D01*
X28818D01*
X28796Y74555D01*
X28738D01*
X28703Y74557D01*
X28661D01*
X28613Y74559D01*
D02*
G37*
G36*
X25413Y74599D02*
X25396D01*
X25376Y74596D01*
X25350Y74594D01*
X25319Y74590D01*
X25282Y74585D01*
X25241Y74577D01*
X25195Y74566D01*
X25149Y74553D01*
X25099Y74535D01*
X25049Y74514D01*
X24997Y74490D01*
X24947Y74459D01*
X24896Y74424D01*
X24851Y74385D01*
X24805Y74339D01*
X24803Y74337D01*
X24796Y74326D01*
X24783Y74313D01*
X24770Y74291D01*
X24753Y74263D01*
X24733Y74230D01*
X24711Y74191D01*
X24691Y74145D01*
X24670Y74093D01*
X24648Y74036D01*
X24628Y73973D01*
X24611Y73903D01*
X24598Y73827D01*
X24587Y73744D01*
X24578Y73655D01*
X24576Y73561D01*
Y73559D01*
Y73554D01*
Y73548D01*
Y73539D01*
Y73526D01*
X24578Y73513D01*
X24580Y73476D01*
X24582Y73434D01*
X24589Y73384D01*
X24596Y73330D01*
X24607Y73271D01*
X24617Y73210D01*
X24633Y73147D01*
X24652Y73081D01*
X24676Y73018D01*
X24702Y72955D01*
X24733Y72894D01*
X24770Y72837D01*
X24811Y72785D01*
X24814Y72783D01*
X24822Y72774D01*
X24835Y72761D01*
X24855Y72743D01*
X24877Y72724D01*
X24905Y72702D01*
X24938Y72678D01*
X24975Y72654D01*
X25016Y72628D01*
X25062Y72604D01*
X25112Y72582D01*
X25165Y72562D01*
X25223Y72545D01*
X25282Y72532D01*
X25346Y72523D01*
X25413Y72521D01*
X25428D01*
X25448Y72523D01*
X25474Y72525D01*
X25505Y72530D01*
X25542Y72534D01*
X25581Y72543D01*
X25625Y72554D01*
X25673Y72567D01*
X25721Y72584D01*
X25771Y72606D01*
X25821Y72632D01*
X25871Y72660D01*
X25919Y72695D01*
X25967Y72737D01*
X26013Y72783D01*
X26015Y72785D01*
X26024Y72796D01*
X26034Y72811D01*
X26050Y72833D01*
X26067Y72859D01*
X26087Y72894D01*
X26109Y72933D01*
X26130Y72979D01*
X26152Y73031D01*
X26174Y73090D01*
X26193Y73155D01*
X26211Y73225D01*
X26226Y73302D01*
X26237Y73384D01*
X26246Y73474D01*
X26248Y73570D01*
Y73572D01*
Y73576D01*
Y73583D01*
Y73591D01*
Y73605D01*
X26246Y73620D01*
Y73635D01*
X26244Y73655D01*
X26241Y73698D01*
X26235Y73748D01*
X26228Y73803D01*
X26220Y73862D01*
X26207Y73923D01*
X26191Y73986D01*
X26174Y74051D01*
X26152Y74115D01*
X26126Y74178D01*
X26095Y74237D01*
X26061Y74293D01*
X26019Y74344D01*
X26017Y74346D01*
X26008Y74354D01*
X25995Y74367D01*
X25978Y74383D01*
X25954Y74402D01*
X25928Y74424D01*
X25895Y74448D01*
X25858Y74472D01*
X25816Y74494D01*
X25771Y74518D01*
X25721Y74540D01*
X25666Y74559D01*
X25609Y74575D01*
X25548Y74588D01*
X25483Y74596D01*
X25413Y74599D01*
D02*
G37*
G36*
X35852Y78588D02*
X35512D01*
Y76591D01*
X36031D01*
X36055Y76593D01*
X36081D01*
X36109Y76595D01*
X36170Y76597D01*
X36231Y76604D01*
X36288Y76610D01*
X36314Y76615D01*
X36336Y76619D01*
X36338D01*
X36343Y76621D01*
X36351Y76623D01*
X36360Y76626D01*
X36373Y76630D01*
X36388Y76636D01*
X36423Y76650D01*
X36463Y76665D01*
X36502Y76687D01*
X36543Y76713D01*
X36582Y76743D01*
X36585Y76745D01*
X36587Y76748D01*
X36591Y76752D01*
X36600Y76761D01*
X36606Y76770D01*
X36617Y76783D01*
X36628Y76796D01*
X36639Y76813D01*
X36652Y76833D01*
X36665Y76854D01*
X36678Y76878D01*
X36691Y76905D01*
X36704Y76933D01*
X36718Y76966D01*
X36731Y76998D01*
X36742Y77035D01*
Y77038D01*
X36744Y77044D01*
X36748Y77057D01*
X36752Y77073D01*
X36757Y77092D01*
X36761Y77118D01*
X36768Y77147D01*
X36774Y77182D01*
X36779Y77219D01*
X36785Y77260D01*
X36790Y77304D01*
X36796Y77354D01*
X36798Y77406D01*
X36803Y77463D01*
X36805Y77524D01*
Y77587D01*
Y77591D01*
Y77602D01*
Y77620D01*
Y77644D01*
X36803Y77674D01*
Y77707D01*
X36800Y77744D01*
X36796Y77785D01*
X36794Y77827D01*
X36790Y77870D01*
X36779Y77960D01*
X36770Y78003D01*
X36763Y78047D01*
X36752Y78086D01*
X36742Y78123D01*
Y78126D01*
X36739Y78132D01*
X36735Y78141D01*
X36731Y78154D01*
X36724Y78169D01*
X36715Y78189D01*
X36698Y78230D01*
X36672Y78278D01*
X36643Y78326D01*
X36608Y78372D01*
X36569Y78415D01*
X36567Y78418D01*
X36565Y78420D01*
X36558Y78426D01*
X36550Y78433D01*
X36539Y78442D01*
X36526Y78450D01*
X36493Y78472D01*
X36452Y78496D01*
X36404Y78520D01*
X36347Y78540D01*
X36286Y78557D01*
X36284D01*
X36279Y78559D01*
X36271D01*
X36260Y78562D01*
X36244Y78564D01*
X36225Y78566D01*
X36203Y78570D01*
X36175Y78572D01*
X36144Y78575D01*
X36107Y78579D01*
X36066Y78581D01*
X36020Y78583D01*
X35970Y78585D01*
X35913D01*
X35852Y78588D01*
D02*
G37*
G36*
X32968Y78627D02*
X32950D01*
X32931Y78625D01*
X32905Y78623D01*
X32874Y78618D01*
X32837Y78614D01*
X32796Y78605D01*
X32750Y78594D01*
X32704Y78581D01*
X32654Y78564D01*
X32604Y78542D01*
X32552Y78518D01*
X32501Y78487D01*
X32451Y78452D01*
X32405Y78413D01*
X32360Y78368D01*
X32357Y78365D01*
X32351Y78354D01*
X32338Y78341D01*
X32325Y78320D01*
X32307Y78291D01*
X32288Y78259D01*
X32266Y78219D01*
X32246Y78173D01*
X32225Y78121D01*
X32203Y78064D01*
X32183Y78001D01*
X32166Y77931D01*
X32153Y77855D01*
X32142Y77772D01*
X32133Y77683D01*
X32131Y77589D01*
Y77587D01*
Y77583D01*
Y77576D01*
Y77567D01*
Y77554D01*
X32133Y77541D01*
X32135Y77504D01*
X32137Y77463D01*
X32144Y77413D01*
X32150Y77358D01*
X32161Y77299D01*
X32172Y77238D01*
X32188Y77175D01*
X32207Y77110D01*
X32231Y77046D01*
X32257Y76983D01*
X32288Y76922D01*
X32325Y76865D01*
X32366Y76813D01*
X32368Y76811D01*
X32377Y76802D01*
X32390Y76789D01*
X32410Y76772D01*
X32432Y76752D01*
X32460Y76730D01*
X32493Y76706D01*
X32530Y76682D01*
X32571Y76656D01*
X32617Y76632D01*
X32667Y76610D01*
X32719Y76591D01*
X32778Y76573D01*
X32837Y76560D01*
X32900Y76552D01*
X32968Y76549D01*
X32983D01*
X33003Y76552D01*
X33029Y76554D01*
X33059Y76558D01*
X33097Y76562D01*
X33136Y76571D01*
X33179Y76582D01*
X33227Y76595D01*
X33275Y76613D01*
X33325Y76634D01*
X33376Y76661D01*
X33426Y76689D01*
X33474Y76724D01*
X33522Y76765D01*
X33567Y76811D01*
X33570Y76813D01*
X33578Y76824D01*
X33589Y76839D01*
X33604Y76861D01*
X33622Y76887D01*
X33642Y76922D01*
X33663Y76961D01*
X33685Y77007D01*
X33707Y77060D01*
X33729Y77118D01*
X33748Y77184D01*
X33766Y77254D01*
X33781Y77330D01*
X33792Y77413D01*
X33801Y77502D01*
X33803Y77598D01*
Y77600D01*
Y77605D01*
Y77611D01*
Y77620D01*
Y77633D01*
X33801Y77648D01*
Y77663D01*
X33799Y77683D01*
X33796Y77727D01*
X33790Y77777D01*
X33783Y77831D01*
X33775Y77890D01*
X33762Y77951D01*
X33746Y78014D01*
X33729Y78080D01*
X33707Y78143D01*
X33681Y78206D01*
X33650Y78265D01*
X33615Y78322D01*
X33574Y78372D01*
X33572Y78374D01*
X33563Y78383D01*
X33550Y78396D01*
X33533Y78411D01*
X33509Y78431D01*
X33482Y78452D01*
X33450Y78477D01*
X33413Y78500D01*
X33371Y78522D01*
X33325Y78546D01*
X33275Y78568D01*
X33221Y78588D01*
X33164Y78603D01*
X33103Y78616D01*
X33038Y78625D01*
X32968Y78627D01*
D02*
G37*
G36*
X24429Y8164D02*
X24409D01*
X24394Y8162D01*
X24376Y8160D01*
X24355Y8155D01*
X24331Y8151D01*
X24305Y8144D01*
X24278Y8136D01*
X24250Y8123D01*
X24219Y8110D01*
X24191Y8094D01*
X24161Y8075D01*
X24132Y8053D01*
X24104Y8027D01*
X24076Y7998D01*
X24073Y7996D01*
X24069Y7992D01*
X24063Y7981D01*
X24054Y7968D01*
X24043Y7950D01*
X24032Y7931D01*
X24019Y7904D01*
X24006Y7876D01*
X23993Y7843D01*
X23980Y7809D01*
X23969Y7769D01*
X23958Y7726D01*
X23949Y7678D01*
X23943Y7628D01*
X23938Y7573D01*
X23936Y7514D01*
Y7510D01*
Y7499D01*
Y7479D01*
X23938Y7453D01*
X23941Y7423D01*
X23945Y7388D01*
X23949Y7351D01*
X23954Y7307D01*
X23971Y7220D01*
X23984Y7174D01*
X23997Y7129D01*
X24015Y7085D01*
X24034Y7043D01*
X24056Y7004D01*
X24082Y6969D01*
X24084Y6967D01*
X24089Y6963D01*
X24098Y6954D01*
X24108Y6943D01*
X24124Y6928D01*
X24139Y6915D01*
X24159Y6897D01*
X24182Y6882D01*
X24206Y6867D01*
X24235Y6849D01*
X24263Y6836D01*
X24294Y6823D01*
X24329Y6810D01*
X24363Y6802D01*
X24400Y6797D01*
X24440Y6795D01*
X24448D01*
X24459Y6797D01*
X24475D01*
X24490Y6799D01*
X24512Y6804D01*
X24533Y6808D01*
X24557Y6814D01*
X24584Y6823D01*
X24612Y6834D01*
X24640Y6847D01*
X24669Y6863D01*
X24697Y6882D01*
X24725Y6904D01*
X24751Y6928D01*
X24778Y6956D01*
X24780Y6958D01*
X24784Y6965D01*
X24791Y6974D01*
X24799Y6987D01*
X24808Y7004D01*
X24821Y7026D01*
X24832Y7052D01*
X24845Y7083D01*
X24858Y7118D01*
X24869Y7157D01*
X24882Y7200D01*
X24891Y7248D01*
X24900Y7301D01*
X24906Y7357D01*
X24911Y7418D01*
X24913Y7486D01*
Y7490D01*
Y7501D01*
Y7519D01*
X24911Y7543D01*
X24908Y7571D01*
X24906Y7604D01*
X24902Y7641D01*
X24895Y7680D01*
X24878Y7763D01*
X24867Y7804D01*
X24854Y7846D01*
X24839Y7887D01*
X24819Y7926D01*
X24797Y7963D01*
X24773Y7996D01*
X24771Y7998D01*
X24767Y8003D01*
X24760Y8011D01*
X24749Y8022D01*
X24734Y8035D01*
X24719Y8048D01*
X24699Y8064D01*
X24677Y8081D01*
X24653Y8096D01*
X24627Y8112D01*
X24599Y8125D01*
X24568Y8138D01*
X24538Y8149D01*
X24503Y8157D01*
X24466Y8162D01*
X24429Y8164D01*
D02*
G37*
G36*
X33253Y7436D02*
X33251D01*
X33249Y7434D01*
X33243Y7431D01*
X33232Y7429D01*
X33221Y7425D01*
X33206Y7421D01*
X33188Y7416D01*
X33166Y7412D01*
X33142Y7405D01*
X33116Y7399D01*
X33088Y7390D01*
X33055Y7384D01*
X33020Y7375D01*
X32983Y7366D01*
X32942Y7355D01*
X32898Y7346D01*
X32896D01*
X32887Y7344D01*
X32876Y7342D01*
X32859Y7338D01*
X32839Y7333D01*
X32818Y7327D01*
X32770Y7314D01*
X32717Y7299D01*
X32665Y7283D01*
X32641Y7272D01*
X32619Y7264D01*
X32599Y7255D01*
X32584Y7246D01*
X32582D01*
X32580Y7242D01*
X32567Y7231D01*
X32549Y7214D01*
X32530Y7190D01*
X32508Y7161D01*
X32491Y7126D01*
X32477Y7085D01*
X32475Y7063D01*
X32473Y7041D01*
Y7039D01*
Y7037D01*
Y7030D01*
X32475Y7022D01*
X32477Y6998D01*
X32484Y6969D01*
X32495Y6937D01*
X32510Y6902D01*
X32532Y6867D01*
X32562Y6832D01*
X32567Y6828D01*
X32580Y6819D01*
X32599Y6804D01*
X32626Y6788D01*
X32658Y6773D01*
X32698Y6758D01*
X32743Y6749D01*
X32794Y6745D01*
X32809D01*
X32820Y6747D01*
X32835D01*
X32850Y6751D01*
X32889Y6758D01*
X32935Y6771D01*
X32985Y6788D01*
X33038Y6814D01*
X33066Y6830D01*
X33092Y6847D01*
X33094D01*
X33097Y6852D01*
X33110Y6860D01*
X33127Y6878D01*
X33149Y6900D01*
X33173Y6928D01*
X33195Y6961D01*
X33214Y6998D01*
X33230Y7037D01*
X33232Y7041D01*
X33234Y7052D01*
X33236Y7061D01*
X33238Y7072D01*
X33240Y7085D01*
X33243Y7100D01*
X33245Y7118D01*
X33247Y7139D01*
Y7161D01*
X33249Y7187D01*
X33251Y7216D01*
X33253Y7248D01*
Y7283D01*
Y7320D01*
Y7436D01*
D02*
G37*
G36*
X40532Y8151D02*
X40511D01*
X40495Y8149D01*
X40476Y8146D01*
X40452Y8142D01*
X40428Y8136D01*
X40400Y8129D01*
X40371Y8120D01*
X40341Y8110D01*
X40308Y8094D01*
X40275Y8077D01*
X40245Y8057D01*
X40212Y8033D01*
X40181Y8007D01*
X40151Y7976D01*
X40149Y7974D01*
X40144Y7968D01*
X40138Y7959D01*
X40127Y7944D01*
X40116Y7926D01*
X40103Y7904D01*
X40090Y7878D01*
X40075Y7850D01*
X40062Y7817D01*
X40046Y7780D01*
X40033Y7739D01*
X40022Y7695D01*
X40012Y7645D01*
X40005Y7595D01*
X40001Y7538D01*
X39998Y7479D01*
Y7475D01*
Y7464D01*
Y7449D01*
X40001Y7425D01*
X40003Y7399D01*
X40007Y7366D01*
X40012Y7331D01*
X40018Y7294D01*
X40025Y7255D01*
X40035Y7214D01*
X40049Y7172D01*
X40064Y7131D01*
X40081Y7091D01*
X40101Y7052D01*
X40125Y7015D01*
X40151Y6980D01*
X40153Y6978D01*
X40157Y6974D01*
X40166Y6965D01*
X40179Y6954D01*
X40195Y6941D01*
X40212Y6926D01*
X40234Y6910D01*
X40258Y6895D01*
X40284Y6878D01*
X40312Y6863D01*
X40343Y6847D01*
X40378Y6834D01*
X40413Y6823D01*
X40452Y6814D01*
X40491Y6810D01*
X40532Y6808D01*
X40543D01*
X40554Y6810D01*
X40569D01*
X40589Y6812D01*
X40613Y6817D01*
X40637Y6823D01*
X40666Y6830D01*
X40694Y6838D01*
X40724Y6849D01*
X40757Y6865D01*
X40788Y6880D01*
X40820Y6900D01*
X40851Y6923D01*
X40883Y6950D01*
X40912Y6980D01*
X40914Y6982D01*
X40918Y6989D01*
X40927Y6998D01*
X40936Y7013D01*
X40947Y7030D01*
X40960Y7052D01*
X40975Y7078D01*
X40990Y7107D01*
X41003Y7141D01*
X41019Y7179D01*
X41032Y7220D01*
X41043Y7264D01*
X41051Y7314D01*
X41060Y7366D01*
X41064Y7423D01*
X41067Y7482D01*
Y7486D01*
Y7497D01*
Y7512D01*
X41064Y7534D01*
X41062Y7562D01*
X41058Y7593D01*
X41054Y7628D01*
X41047Y7665D01*
X41038Y7704D01*
X41030Y7743D01*
X41016Y7785D01*
X41001Y7826D01*
X40984Y7868D01*
X40962Y7907D01*
X40940Y7942D01*
X40912Y7976D01*
X40910Y7979D01*
X40905Y7983D01*
X40896Y7992D01*
X40883Y8005D01*
X40870Y8018D01*
X40851Y8031D01*
X40831Y8048D01*
X40807Y8064D01*
X40781Y8079D01*
X40753Y8096D01*
X40720Y8110D01*
X40687Y8125D01*
X40652Y8136D01*
X40613Y8144D01*
X40574Y8149D01*
X40532Y8151D01*
D02*
G37*
G36*
X35329Y8179D02*
X35309D01*
X35294Y8177D01*
X35276Y8175D01*
X35257Y8170D01*
X35233Y8166D01*
X35209Y8160D01*
X35183Y8151D01*
X35154Y8140D01*
X35126Y8127D01*
X35098Y8110D01*
X35069Y8092D01*
X35041Y8070D01*
X35013Y8044D01*
X34987Y8016D01*
X34984Y8014D01*
X34980Y8009D01*
X34973Y7998D01*
X34967Y7985D01*
X34956Y7968D01*
X34945Y7948D01*
X34932Y7922D01*
X34921Y7894D01*
X34908Y7861D01*
X34895Y7824D01*
X34884Y7785D01*
X34875Y7739D01*
X34867Y7691D01*
X34860Y7639D01*
X34856Y7584D01*
X34854Y7523D01*
Y7519D01*
Y7508D01*
Y7490D01*
X34856Y7466D01*
X34858Y7438D01*
X34860Y7405D01*
X34865Y7368D01*
X34871Y7329D01*
X34886Y7246D01*
X34897Y7205D01*
X34910Y7163D01*
X34925Y7122D01*
X34943Y7083D01*
X34963Y7048D01*
X34987Y7015D01*
X34989Y7013D01*
X34993Y7009D01*
X35000Y7000D01*
X35010Y6989D01*
X35024Y6978D01*
X35039Y6965D01*
X35059Y6950D01*
X35078Y6934D01*
X35102Y6919D01*
X35128Y6904D01*
X35185Y6880D01*
X35215Y6869D01*
X35248Y6860D01*
X35283Y6856D01*
X35320Y6854D01*
X35329D01*
X35340Y6856D01*
X35355D01*
X35375Y6858D01*
X35394Y6863D01*
X35418Y6867D01*
X35444Y6876D01*
X35473Y6884D01*
X35501Y6895D01*
X35529Y6908D01*
X35560Y6923D01*
X35590Y6943D01*
X35621Y6965D01*
X35649Y6991D01*
X35678Y7019D01*
X35680Y7022D01*
X35684Y7028D01*
X35691Y7037D01*
X35702Y7050D01*
X35713Y7067D01*
X35723Y7089D01*
X35737Y7113D01*
X35752Y7144D01*
X35765Y7176D01*
X35778Y7211D01*
X35789Y7253D01*
X35802Y7296D01*
X35811Y7344D01*
X35817Y7397D01*
X35822Y7451D01*
X35824Y7510D01*
Y7514D01*
Y7525D01*
Y7543D01*
X35822Y7564D01*
X35819Y7593D01*
X35817Y7626D01*
X35813Y7660D01*
X35806Y7700D01*
X35789Y7783D01*
X35778Y7824D01*
X35765Y7865D01*
X35747Y7904D01*
X35728Y7944D01*
X35706Y7981D01*
X35682Y8014D01*
X35680Y8016D01*
X35675Y8020D01*
X35667Y8029D01*
X35658Y8040D01*
X35643Y8053D01*
X35627Y8066D01*
X35608Y8081D01*
X35586Y8096D01*
X35562Y8112D01*
X35534Y8127D01*
X35505Y8140D01*
X35475Y8153D01*
X35440Y8164D01*
X35405Y8173D01*
X35368Y8177D01*
X35329Y8179D01*
D02*
G37*
G36*
X12987Y61867D02*
X12579Y60749D01*
X13405D01*
X12987Y61867D01*
D02*
G37*
G36*
X22513Y62101D02*
X22496D01*
X22476Y62099D01*
X22450Y62096D01*
X22420Y62092D01*
X22383Y62088D01*
X22341Y62079D01*
X22295Y62068D01*
X22250Y62055D01*
X22199Y62037D01*
X22149Y62016D01*
X22097Y61992D01*
X22047Y61961D01*
X21997Y61926D01*
X21951Y61887D01*
X21905Y61841D01*
X21903Y61839D01*
X21896Y61828D01*
X21883Y61815D01*
X21870Y61793D01*
X21853Y61765D01*
X21833Y61732D01*
X21811Y61693D01*
X21792Y61647D01*
X21770Y61595D01*
X21748Y61538D01*
X21729Y61475D01*
X21711Y61405D01*
X21698Y61329D01*
X21687Y61246D01*
X21678Y61157D01*
X21676Y61063D01*
Y61061D01*
Y61057D01*
Y61050D01*
Y61041D01*
Y61028D01*
X21678Y61015D01*
X21681Y60978D01*
X21683Y60937D01*
X21689Y60887D01*
X21696Y60832D01*
X21707Y60773D01*
X21718Y60712D01*
X21733Y60649D01*
X21753Y60584D01*
X21777Y60520D01*
X21803Y60457D01*
X21833Y60396D01*
X21870Y60339D01*
X21912Y60287D01*
X21914Y60285D01*
X21923Y60276D01*
X21936Y60263D01*
X21955Y60246D01*
X21977Y60226D01*
X22005Y60204D01*
X22038Y60180D01*
X22075Y60156D01*
X22117Y60130D01*
X22162Y60106D01*
X22212Y60084D01*
X22265Y60065D01*
X22324Y60047D01*
X22383Y60034D01*
X22446Y60025D01*
X22513Y60023D01*
X22529D01*
X22548Y60025D01*
X22574Y60028D01*
X22605Y60032D01*
X22642Y60036D01*
X22681Y60045D01*
X22725Y60056D01*
X22773Y60069D01*
X22821Y60086D01*
X22871Y60108D01*
X22921Y60134D01*
X22971Y60163D01*
X23019Y60198D01*
X23067Y60239D01*
X23113Y60285D01*
X23115Y60287D01*
X23124Y60298D01*
X23135Y60313D01*
X23150Y60335D01*
X23167Y60361D01*
X23187Y60396D01*
X23209Y60435D01*
X23231Y60481D01*
X23252Y60533D01*
X23274Y60592D01*
X23294Y60658D01*
X23311Y60727D01*
X23326Y60804D01*
X23337Y60887D01*
X23346Y60976D01*
X23348Y61072D01*
Y61074D01*
Y61078D01*
Y61085D01*
Y61094D01*
Y61107D01*
X23346Y61122D01*
Y61137D01*
X23344Y61157D01*
X23342Y61200D01*
X23335Y61251D01*
X23329Y61305D01*
X23320Y61364D01*
X23307Y61425D01*
X23292Y61488D01*
X23274Y61554D01*
X23252Y61617D01*
X23226Y61680D01*
X23196Y61739D01*
X23161Y61796D01*
X23119Y61846D01*
X23117Y61848D01*
X23109Y61857D01*
X23095Y61870D01*
X23078Y61885D01*
X23054Y61905D01*
X23028Y61926D01*
X22995Y61950D01*
X22958Y61974D01*
X22917Y61996D01*
X22871Y62020D01*
X22821Y62042D01*
X22766Y62062D01*
X22710Y62077D01*
X22648Y62090D01*
X22583Y62099D01*
X22513Y62101D01*
D02*
G37*
G36*
X13164Y66516D02*
X12608D01*
Y65818D01*
X13160D01*
X13197Y65820D01*
X13308D01*
X13343Y65822D01*
X13376D01*
X13406Y65825D01*
X13430D01*
X13450Y65827D01*
X13456D01*
X13465Y65829D01*
X13476Y65831D01*
X13489Y65833D01*
X13504Y65838D01*
X13539Y65849D01*
X13578Y65862D01*
X13618Y65881D01*
X13657Y65905D01*
X13694Y65936D01*
X13698Y65940D01*
X13709Y65951D01*
X13722Y65973D01*
X13740Y65999D01*
X13757Y66032D01*
X13770Y66073D01*
X13781Y66119D01*
X13785Y66171D01*
Y66173D01*
Y66178D01*
Y66184D01*
X13783Y66195D01*
X13781Y66219D01*
X13777Y66252D01*
X13766Y66289D01*
X13753Y66326D01*
X13733Y66363D01*
X13707Y66398D01*
X13703Y66402D01*
X13692Y66411D01*
X13674Y66426D01*
X13650Y66444D01*
X13618Y66463D01*
X13578Y66481D01*
X13532Y66494D01*
X13478Y66505D01*
X13467D01*
X13456Y66507D01*
X13443D01*
X13426Y66509D01*
X13404D01*
X13378Y66511D01*
X13310D01*
X13269Y66514D01*
X13219D01*
X13164Y66516D01*
D02*
G37*
G36*
X13175Y65317D02*
X12608D01*
Y64510D01*
X13282D01*
X13315Y64512D01*
X13349D01*
X13419Y64514D01*
X13454Y64517D01*
X13489D01*
X13520Y64519D01*
X13548Y64521D01*
X13572Y64525D01*
X13591Y64528D01*
X13594D01*
X13598Y64530D01*
X13604D01*
X13613Y64532D01*
X13639Y64541D01*
X13670Y64552D01*
X13705Y64567D01*
X13742Y64589D01*
X13777Y64615D01*
X13812Y64648D01*
Y64650D01*
X13816Y64652D01*
X13825Y64665D01*
X13840Y64687D01*
X13855Y64715D01*
X13870Y64752D01*
X13886Y64796D01*
X13894Y64848D01*
X13899Y64905D01*
Y64907D01*
Y64911D01*
Y64918D01*
Y64926D01*
X13894Y64953D01*
X13890Y64983D01*
X13881Y65020D01*
X13870Y65057D01*
X13853Y65096D01*
X13831Y65134D01*
Y65136D01*
X13829Y65138D01*
X13818Y65149D01*
X13805Y65166D01*
X13783Y65188D01*
X13757Y65210D01*
X13724Y65234D01*
X13685Y65256D01*
X13642Y65273D01*
X13639D01*
X13635Y65275D01*
X13629Y65277D01*
X13615Y65280D01*
X13600Y65284D01*
X13580Y65286D01*
X13556Y65291D01*
X13528Y65295D01*
X13493Y65299D01*
X13454Y65304D01*
X13410Y65306D01*
X13360Y65310D01*
X13306Y65312D01*
X13245Y65315D01*
X13175Y65317D01*
D02*
G37*
G36*
X8948Y70561D02*
X8608D01*
Y68565D01*
X9127D01*
X9151Y68567D01*
X9177D01*
X9206Y68569D01*
X9267Y68571D01*
X9328Y68578D01*
X9384Y68584D01*
X9410Y68589D01*
X9432Y68593D01*
X9434D01*
X9439Y68595D01*
X9448Y68597D01*
X9456Y68599D01*
X9469Y68604D01*
X9485Y68610D01*
X9520Y68624D01*
X9559Y68639D01*
X9598Y68660D01*
X9639Y68687D01*
X9679Y68717D01*
X9681Y68719D01*
X9683Y68722D01*
X9687Y68726D01*
X9696Y68735D01*
X9703Y68743D01*
X9713Y68757D01*
X9724Y68770D01*
X9735Y68787D01*
X9748Y68807D01*
X9761Y68828D01*
X9775Y68852D01*
X9788Y68879D01*
X9801Y68907D01*
X9814Y68940D01*
X9827Y68972D01*
X9838Y69009D01*
Y69011D01*
X9840Y69018D01*
X9844Y69031D01*
X9849Y69046D01*
X9853Y69066D01*
X9857Y69092D01*
X9864Y69121D01*
X9870Y69155D01*
X9875Y69192D01*
X9881Y69234D01*
X9886Y69278D01*
X9892Y69328D01*
X9894Y69380D01*
X9899Y69437D01*
X9901Y69498D01*
Y69561D01*
Y69565D01*
Y69576D01*
Y69594D01*
Y69618D01*
X9899Y69648D01*
Y69681D01*
X9897Y69718D01*
X9892Y69759D01*
X9890Y69801D01*
X9886Y69844D01*
X9875Y69934D01*
X9866Y69977D01*
X9860Y70021D01*
X9849Y70060D01*
X9838Y70097D01*
Y70099D01*
X9836Y70106D01*
X9831Y70115D01*
X9827Y70128D01*
X9820Y70143D01*
X9812Y70163D01*
X9794Y70204D01*
X9768Y70252D01*
X9740Y70300D01*
X9705Y70346D01*
X9665Y70389D01*
X9663Y70391D01*
X9661Y70394D01*
X9655Y70400D01*
X9646Y70407D01*
X9635Y70415D01*
X9622Y70424D01*
X9589Y70446D01*
X9548Y70470D01*
X9500Y70494D01*
X9443Y70513D01*
X9382Y70531D01*
X9380D01*
X9376Y70533D01*
X9367D01*
X9356Y70535D01*
X9341Y70538D01*
X9321Y70540D01*
X9299Y70544D01*
X9271Y70546D01*
X9240Y70548D01*
X9203Y70553D01*
X9162Y70555D01*
X9116Y70557D01*
X9066Y70559D01*
X9009D01*
X8948Y70561D01*
D02*
G37*
G36*
X34160Y63166D02*
X34158D01*
X34152D01*
X34143D01*
X34130Y63164D01*
X34113Y63162D01*
X34097Y63158D01*
X34076Y63155D01*
X34054Y63149D01*
X34032Y63142D01*
X34008Y63132D01*
X33982Y63123D01*
X33958Y63110D01*
X33932Y63094D01*
X33908Y63077D01*
X33884Y63057D01*
X33862Y63033D01*
X33860Y63031D01*
X33856Y63027D01*
X33851Y63018D01*
X33843Y63008D01*
X33834Y62994D01*
X33825Y62975D01*
X33814Y62955D01*
X33803Y62931D01*
X33792Y62905D01*
X33780Y62874D01*
X33771Y62838D01*
X33762Y62801D01*
X33755Y62761D01*
X33749Y62716D01*
X33745Y62668D01*
X33743Y62616D01*
Y61808D01*
X34589D01*
Y62574D01*
X34587Y62592D01*
Y62616D01*
X34585Y62640D01*
X34583Y62668D01*
X34578Y62726D01*
X34569Y62787D01*
X34557Y62846D01*
X34550Y62872D01*
X34543Y62897D01*
Y62899D01*
X34541Y62903D01*
X34537Y62910D01*
X34533Y62920D01*
X34528Y62931D01*
X34522Y62942D01*
X34506Y62972D01*
X34483Y63005D01*
X34457Y63038D01*
X34426Y63070D01*
X34389Y63097D01*
X34387D01*
X34383Y63101D01*
X34378Y63103D01*
X34370Y63108D01*
X34361Y63114D01*
X34348Y63120D01*
X34321Y63132D01*
X34287Y63144D01*
X34248Y63155D01*
X34206Y63162D01*
X34160Y63166D01*
D02*
G37*
G36*
X46830Y55493D02*
X46022D01*
Y54647D01*
X46788D01*
X46806Y54649D01*
X46830D01*
X46854Y54651D01*
X46882Y54653D01*
X46939Y54658D01*
X47001Y54667D01*
X47060Y54678D01*
X47086Y54686D01*
X47111Y54693D01*
X47113D01*
X47117Y54695D01*
X47124Y54699D01*
X47134Y54703D01*
X47145Y54708D01*
X47156Y54714D01*
X47186Y54730D01*
X47219Y54752D01*
X47252Y54778D01*
X47284Y54810D01*
X47311Y54847D01*
Y54849D01*
X47315Y54852D01*
X47317Y54858D01*
X47322Y54865D01*
X47328Y54875D01*
X47333Y54888D01*
X47346Y54915D01*
X47357Y54949D01*
X47369Y54988D01*
X47376Y55030D01*
X47380Y55076D01*
Y55078D01*
Y55084D01*
Y55093D01*
X47378Y55106D01*
X47376Y55123D01*
X47372Y55139D01*
X47369Y55159D01*
X47363Y55182D01*
X47356Y55204D01*
X47346Y55228D01*
X47337Y55254D01*
X47324Y55278D01*
X47308Y55304D01*
X47291Y55328D01*
X47271Y55352D01*
X47247Y55374D01*
X47245Y55376D01*
X47241Y55380D01*
X47232Y55385D01*
X47223Y55393D01*
X47208Y55402D01*
X47189Y55411D01*
X47169Y55422D01*
X47145Y55433D01*
X47119Y55444D01*
X47087Y55455D01*
X47052Y55465D01*
X47015Y55474D01*
X46975Y55481D01*
X46930Y55487D01*
X46882Y55491D01*
X46830Y55493D01*
D02*
G37*
%LPD*%
D10*
X57839Y67898D02*
G03*
X56972Y68764I-866J0D01*
G01*
Y64236D02*
G03*
X57839Y65102I0J866D01*
G01*
X51028Y68764D02*
G03*
X50161Y67898I0J-866D01*
G01*
Y65102D02*
G03*
X51028Y64236I866J0D01*
G01*
X57839Y65102D02*
Y67898D01*
X55181Y68764D02*
X56953D01*
X55181Y64236D02*
X56953D01*
X51047Y68764D02*
X52819D01*
X51047Y64236D02*
X52819D01*
X50161Y65102D02*
Y67898D01*
X43890Y56957D02*
Y61425D01*
Y69043D02*
X50110D01*
X43890Y56957D02*
X50110D01*
X43890Y64575D02*
Y69043D01*
X50110Y56957D02*
Y61425D01*
Y64575D02*
Y69043D01*
X37626Y56977D02*
Y61445D01*
Y69063D02*
X43846D01*
X37626Y56977D02*
X43846D01*
X37626Y64595D02*
Y69063D01*
X43846Y56977D02*
Y61445D01*
Y64595D02*
Y69063D01*
D11*
X7000Y6000D02*
X8500Y4500D01*
D12*
X28079Y3650D02*
Y4650D01*
Y50350D02*
Y51350D01*
X37921Y3650D02*
Y4650D01*
Y50350D02*
Y51350D01*
X6200Y22579D02*
X7200D01*
X58800D02*
X59800D01*
X6200Y32421D02*
X7200D01*
X58800D02*
X59800D01*
X59300Y4150D02*
Y50850D01*
X6700D02*
X59300D01*
X6700Y4150D02*
Y50850D01*
Y4150D02*
X59300D01*
M02*
