G04*
G04 #@! TF.GenerationSoftware,Altium Limited,Altium Designer,22.2.1 (43)*
G04*
G04 Layer_Color=255*
%FSLAX25Y25*%
%MOIN*%
G70*
G04*
G04 #@! TF.SameCoordinates,F257658A-247B-4475-9E09-9EFA5F1A57C6*
G04*
G04*
G04 #@! TF.FilePolarity,Positive*
G04*
G01*
G75*
%ADD15R,0.02362X0.02559*%
%ADD23R,0.02559X0.02362*%
%ADD24R,0.00906X0.03937*%
D15*
X30827Y39000D02*
D03*
X34173D02*
D03*
X30827Y43169D02*
D03*
X34173D02*
D03*
X54536Y29699D02*
D03*
X51190D02*
D03*
X54536Y25500D02*
D03*
X51190D02*
D03*
D23*
X30925Y30803D02*
D03*
Y27456D02*
D03*
X35303Y30803D02*
D03*
Y27456D02*
D03*
D24*
X20827Y73886D02*
D03*
X22402D02*
D03*
X23976D02*
D03*
X25551D02*
D03*
X27126D02*
D03*
X28701D02*
D03*
X30276D02*
D03*
X31850D02*
D03*
X33425D02*
D03*
X35000D02*
D03*
X36575D02*
D03*
X38150D02*
D03*
X39724D02*
D03*
X41299D02*
D03*
X42874D02*
D03*
X44449D02*
D03*
X46024D02*
D03*
X38150Y60500D02*
D03*
X46024D02*
D03*
X44449D02*
D03*
X42874D02*
D03*
X41299D02*
D03*
X39724D02*
D03*
X36575D02*
D03*
X35000D02*
D03*
X33425D02*
D03*
X31850D02*
D03*
X30276D02*
D03*
X28701D02*
D03*
X27126D02*
D03*
X25551D02*
D03*
X23976D02*
D03*
X22402D02*
D03*
X20827D02*
D03*
M02*
